<svg xmlns="http://www.w3.org/2000/svg" viewBox="0 0 144 144"><path d="M34.12 72.88c-.42.41-.3 1.12.04 1.55l.54 1.16.69 1.47c0 .1 0 .31-.03.41-1.34-.67-2.44-4.25-1.42-5.05z" fill="#3f4146"/><path d="M28.61 136.88c-.68-.27-.39-1-.27-1.56l.29.22v1.33Z" fill="#1d1e29"/><path d="M20.24 28.14c-.06-.08-.23-.43-.36-.39l-.53.17.39-.65c.1-.16.65.16.61.35z" fill="#7c7c7c"/><path d="M18.47 29.38c-.06.29-.28.74-.47.97-.08-.13-.23-.58-.07-.67l.53-.3Zm.44-.84c-.07.25-.24.52-.44.66l.02-.5c0-.12.35-.07.43-.16Z" fill="#575455"/><path d="m125.49 106.45-.58-.42c-.7-3.75-5.03-14.6-6.83-18.25l-6.66-13.52c-1.82-3.7-6.12-10.52-8.71-13.7-.09-.12-.31-.32-.42-.42-1.05-1.84-2.65-3.55-4.16-5.15-.17.17-.39.51-.47.69l-.51.24-.14-.22c.1-.16.37-.59.55-.78 2.1-2.19-.56-6.18-2.56-6.72-.86-.23-.06-.09-1.14.85.62-1.11-.21-2.94-.83-3.71-.15-.19-.29-.69-.3-.94-.01-.63.08-1.86.02-2.59-.2-2.3-1.49-4.37-3.25-5.58l-.2-.02c.13-.69.28-4.14-.74-4.43.21-.35.48-.99.72-1.29 1.26-1.62 2.06-3.53 2.74-5.59 1.02-3.09.77-6.26-.87-9.1-.61-1.04-1.18-2.16-1.97-3.07l-1.54-1.77c-1.44-1.66-2.93-3.4-4.54-4.88-.1.09-.26.3-.25.4-.86-1.58-2.66-2.03-4.36-1.76l-1.59.25c-.44.07-1.19-.13-1.53.22-1.36-.11-2.59.54-3.73 1.29.35-.29.72-.61 1.1-.88 1-.73 3.09-1.11 4.19-1.1.15 0 .38-.18.49-.28l2.54.16.06-.58c1.32.27 2.09 2.1 2.98 1.55.01-.8-.4-1.74-.94-2.12-.85-.6-1.73-.72-2.69-.23l.64.8C77.14 2.11 71.57.12 68.53-.16c-.11-.01-.33 0-.44 0-.04-.04-.15-.13-.22-.13l-2.52-.13c-1.86-.09-5.1.91-6.33 2.08-.09.09-.31.2-.43.27-.53.33-.91.8-1.3 1.26l-.91 1.07c-.46.54-1.1 1.08-1.35 1.75l-.31.28c-.1.09.07.38.16.44l-.44.5c-.71.39-1.17 1.3-1.13 2.1l-1.05-.24-7.13-2.59c-2.77-1.01-11.86-4.01-14.38-2.74.04.55.02 1.43.27 1.87 2.48 4.3 6.37 7.33 10.94 9.09.57.22 1.1.34 1.62.35-.62.67-1.38 1.28-2.16 1.76l-.19-.18 1.06-1.21-2.09-.95c-4.02-1.83-7.4-4.77-9.59-8.65-.33-.59-.67-1.98-.26-2.44 1.98-1.9 12.41 1.64 14.94 2.57l6.8 2.5c.21.08.75-.2.84-.4 1.39-2.97 3.44-5.48 6.16-7.28 5.54-3.67 14.12-.84 19.55 1.71 1.14-.44 2.39-.76 3.6.1 1.94 1.38 1.04 3.03 1.84 3.77 1.16 1.07 2.29 2.15 3.24 3.37l3.74 4.85c3.88 5.03 1.67 12.09-1.59 16.83.36 1.33.42 2.57.46 4.01l1.8 2.3c2.78 3.56.81 5.94 1.89 7.38 1.56 2.07.15 1.93 2.01 2.67 2.34.93 3.52 3.45 3.04 5.91a1.5 1.5 0 0 0 .43 1.39c.79.79 1.4 1.5 2.11 2.36 4.29 5.18 8 10.65 11.02 16.7l6.18 12.38c1.77 3.56 7.13 16.48 7.08 19.94Z" fill="#28272f"/><path d="M34.16 74.44c-.34-.43-.46-1.14-.04-1.55z" fill="#1d1e29"/><path d="M87.29 28.33c-.32-.21-.77-.36-1.29-.45.63.51 1.15.8 1.73 1.1.08 1.39 1.16.75 1.55 1.5-.24.3-.51.94-.72 1.29-1.11-.32-3.23-1.16-4.28-1.69-.34-.17-.64-.32-.78-.23 1.22-3.22 2.59-5.21-.6-8.11.49.16.94-.28 1.27-.69-.07.34-.08.69-.11 1.25.98-.41 1.36-.87 1.83-1.55L87.82 18c.34-.48 1.39-.72 2.02-.76.86 1.14 1.07 2.2 1.16 3.5.46 6.52-1.4 5.23-2.29 5.76-.61.36-1.15 1.23-1.43 1.82Z" fill="#29385e"/><path d="M89.28 30.48c-.39-.75-1.48-.11-1.55-1.5l1.54.66c.03.06.1.29.12.22.02-.08.12-.35.11-.36s-.16-.06-.23-.08c-.33-.09-.91-.37-1.31-.66l.58-.78c.35-.47 1.48-.65 1.89-.97.58.2 1.88-5.65 1.45-5.8-.04-1.37-.24-4.7-2.13-4.89-1.05-1.05-1.73-4.02-2.31-4.15l-1.89-.42c-.09-.5-.56-1.33-.81-1.83l-1.33-2.66c-.18-.37-.29-.67-.58-.78 0-.1.16-.31.25-.4 1.62 1.48 3.1 3.21 4.54 4.88l1.54 1.77c.79.91 1.36 2.03 1.97 3.07 1.64 2.83 1.89 6.01.87 9.1-.68 2.06-1.47 3.97-2.74 5.59Z" fill="#344872"/><path d="m53.31 9.32 1.06.88.27-.19c.12.11.3.37.44.46l.88.64c.5.49 1.41 1.48 1.99 1.76l.44.22c.24.28.72.79 1.01 1.07v.19c-1.57.47-2.15-1.21-3.45-1.39l-2.03-.27c-2.37-.32-1.25.94-3.57-.39-.81-.47-1.41-.66-1.61-1.75-.08-.44-.7-1.16-1.11-1.18l-2.07-.1c-.52-.03-1.57.33-2.12.6-.36.18-.63 1.1-.74 1.46l-.19.15s.13.25.19.29l2.87 1.96c-.9.45-1.58.63-1.79 1.3l-.2.04c-.52-.01-1.05-.13-1.62-.35-4.57-1.76-8.46-4.79-10.94-9.09-.25-.44-.23-1.31-.27-1.87 2.52-1.27 11.61 1.73 14.38 2.74l7.13 2.59 1.05.24ZM31.1 3.89l2.34 1.03c3.1 1.37-1.15-1.49-2.34-1.03m3.46 1.38c0-.06-.05-.11-.11-.11s-.11.05-.11.11.05.11.11.11.11-.05.11-.11m.69.33c0-.14-.11-.25-.25-.25s-.25.11-.25.25.11.25.25.25.25-.11.25-.25m1.2.52-1.15-.24.9.74c.29.26.34-.07.25-.5m.97 1.19c-.16-.36-.35-.49-.65-.5zm.9.63c-.25-.36-.42-.49-.68-.55.07.28.35.49.68.55m.3.04-.22.26 1.59 1.38.22-.26zm1.78 1.54-.21.26 1.96 1.6.21-.26z" fill="#2c3e65"/><path d="M59.03 1.64s.15.03.22.05c.89 0 1.62.08 2.49.11l3.45.1c.55.02 1.83.55 1.72 1.03l-.95 1.65-.51.94c-.13.23.1.98.35 1.04l1.29.29c1.59 1.34 1.39-.44 2.99.92-.17.3-.42.68-.66.91-.41 0-1.03.08-1.35.33-.3.23-.41.96-.47 1.45l-.77 1.01c.23.83-.34 2.37-1.15 2.67-1.86.27-3.12-1.37-3.8-.2-.23.4-.52.87-.82 1.16l-.66-.46c.1-1-.36-1.99-1.18-2.65l-1.45.21v-.54c-.02-.62 1.53.3 1.97-1.44.91.28 1.72.72 2.71 1.29l.6-.85.92.41c.41-.06.53-1.17.19-1.44l-.93-.74.03-.41.44-.05.79.07c.07.5.54.73 1.03.55.29-.11.49-.78.38-1.1-.1-.29-.83-.27-1.1-.37-.24-.2-.69-.55-1.03-.71l-1.98-.96c.3 1.89-2.23 4.55-2.07 3.58l.08-.51c.02-.15-.02-.47-.07-.62s-.53.07-.69.21c-.25.21-1.18-.31-1.02-.6l1.31-2.47.74-.2c.12-.03.03-.63-.09-.66l-1.62-.35c-.23-.05-.49-.44-.6-.66.33-.55.64-1.11.84-1.69.11-.07.34-.19.43-.27Zm6.28 10.59c-.53-.29-1.63-.32-1.68.22-.02.28.72.48 1.03.44.29-.04.78-.45.65-.66m10.05-7.04c-.19.89-.92 1.51-1.78 1.95-.4.41-2.89 2.08-3.14 1.77l-.35-.45.58-.93.97-1.06c1.14-.75 2.37-1.4 3.73-1.29Z" fill="#2c3d63"/><path d="M76.92 4.5c-1.1 0-3.19.37-4.19 1.1-.02-.15.03-.6-.13-.66l-1.01-.33c-.39-.13.18-1.33.59-1.27.65.1 1.13.21 1.65.23.64.03 3.06.05 3.1.91Z" fill="#2c3d63"/><path d="m67.88-.31.22.13h.44c-.05.62 1.82 1.44 2.79 1.65.87.18 1.87.62 2.72.72 1.54.18 2.78.59 3.36 2.01-.11.1-.34.28-.49.28-.04-.86-2.45-.88-3.1-.91-.52-.02-1-.13-1.65-.23-.41-.06-.98 1.14-.59 1.27l1.01.33c.17.05.12.51.13.66-.38.28-.75.59-1.1.88l-1.54 1.29c-1.6-1.36-1.4.42-2.99-.92l-1.29-.29c-.25-.06-.48-.81-.35-1.04l.51-.94.95-1.65c.11-.48-1.17-1.02-1.72-1.03l-3.45-.1c-.87-.03-1.6-.1-2.49-.11-.07-.02-.27-.06-.22-.05C60.26.47 63.51-.53 65.36-.44z" fill="#2c3e65"/><path d="m58.36 4.26 1.62.35c.12.03.2.62.09.66l-.74.2-1.31 2.47c-.16.3.77.82 1.02.6.16-.13.64-.35.69-.21s.1.47.07.62l-.08.51c-.16.96 2.37-1.69 2.07-3.58l1.98.96c.34.17.79.52 1.03.71l-.3.93-.79-.07.14-.76c.03-.19-.49-.36-.78-.48-.22-.08-.68.06-.75.28-.05.19.06.71.24.77l.71.23-.03.41c-.55.67-2.06-.1-1.84.79.04.18.27.49.44.57.36.18 1.02-.81 1.28-.26.08.16.05.53-.05.67l-.6.85c-.99-.56-1.8-1.01-2.71-1.29-1.02-.83-2.28-1.46-3.51-1.94l-.7-.52a4.2 4.2 0 0 0-1.08-.55l.44-.5c.1 0 .63-.22.51-.34l-.36-.38c.24-.67.88-1.21 1.35-1.75l-.22 3.53c1.1.42 2.74-2.96 2.19-3.52Z" fill="#c2c7cd"/><path d="M82.85 6.48c.06.65 2.1 3.8 2.17 5.22-.56.04-1.53-.64-1.56-1.21-.02-.38.04-.92-.1-1.16l-.97-1.76c-1.52 1.04-4.33-1.63-3.9-2.85 1.7-.27 3.5.18 4.36 1.76" fill="#33446a"/><path d="m80.01 3.79-.06.58-2.54-.16c-.59-1.42-1.82-1.83-3.36-2.01-.84-.1-1.84-.53-2.72-.72-.97-.21-2.85-1.03-2.79-1.65 3.03.28 8.6 2.26 11.48 3.96Z" fill="#344872"/><path d="m80.01 3.79-.64-.8c.95-.5 1.84-.38 2.69.23.53.38.95 1.32.94 2.12-.89.55-1.67-1.28-2.98-1.55Zm-22.25-.18c.11.21.37.61.6.66.55.56-1.09 3.95-2.19 3.52l.22-3.53.91-1.07.46.43Zm-3.31 3.62c.38.12.77.31 1.08.55-.32.17-1.03.56-1.05.9s-.05.85-.08 1.03l-1.09-.39c-.04-.8.43-1.7 1.13-2.1Z" fill="#344872"/><path d="m57.76 3.61-.46-.43c.39-.46.77-.93 1.3-1.26-.2.58-.51 1.13-.84 1.69" fill="#2c3e65"/><path d="M54.89 6.72c-.09-.06-.26-.35-.16-.44l.31-.28.36.38c.12.13-.41.34-.51.34" fill="#575455"/><path d="M76.89 4.97c0 .87-.47 1.87-1.51 1.92-.69.04-1.11.42-1.06 1.2.09 1.14-1.39.86-1.36 1.23.09 1.5.78 2.48 2.31 3.06 3.93 1.5 4.33-.12 6.32 2.32.83-.29 2.46-1.03 2.94-.68l.83.62c-.03.17-.02.51 0 .67-.23.01-.83.39-.81.69.21 2.95-1.11 2.58-2.33 4.31l.43 1.34c-.82-.43-3.69-2.02-4-2.85l.66-.64c.14-1.08-.81-1.92-1.84-1.94l-.39.68-1-.79c-.44-.35-1.05-.57-1.58-.55-1.22.06-2.15.92-3.16 1.5l-2.75 1.58c-.45.26-1.12.26-1.17.9h-.2c-.48.26-.98.28-1.53-.12-.67-.49-.79.47-3.55.05-1.47-.23-3.02-.27-4.34-.63-1.14-.31-2.41-.87-3.6-1.33l-4.64-1.76c-.05-.64-1.06-.65-2.96-1.88l-3.9-2.54c.11-.36.38-1.28.74-1.46.55-.28 1.59-.63 2.12-.6l2.07.1c.41.02 1.03.74 1.11 1.18.2 1.09.79 1.29 1.61 1.75 2.32 1.33 1.2.07 3.57.39l2.03.27c1.31.18 1.88 1.86 3.47 1.39 1.76 1.02 3.68 3.48 5.34 4.47l-1.65-1.6c-.74-.72-1.44-1.41-2.04-2.12.29-.29.59-.76.82-1.16.68-1.18 1.95.46 3.8.2.81-.31 1.38-1.85 1.15-2.67l.77-1.01c.06-.49.17-1.23.47-1.45.32-.25.94-.34 1.35-.33l-.2.71.86-.92.35.45c.25.31 2.74-1.37 3.14-1.77.86-.44 1.59-1.06 1.78-1.95.35-.35 1.09-.15 1.53-.22Zm-7.71 4.94c-.06-.51-.29-.45-.42.01l-.2.57.61-.58ZM67.72 12c.39-.34.61-.76.76-1.34-.39.34-.61.76-.76 1.34m-.42.87.34-.67-.44.36c-.06.05.14.43.1.31" fill="#29385e"/><path d="M67.23 19.55c-.12.23-.55.45-.8.41-3.18-.47-2.6.35-5.63-.23a45 45 0 0 1-3.01-.68l.02-.22c1.32.36 2.87.4 4.34.63 2.77.43 2.88-.54 3.55-.05.55.4 1.05.39 1.53.14" fill="#272834"/><path d="M49.57 15.75c-.43-.16-.89-.35-1.37-.62l-2.15-1.23-2.26 1.12c.21-.67.89-.85 1.79-1.3l-2.87-1.96c-.06-.04-.24-.25-.19-.29l.19-.15 3.9 2.54c1.9 1.23 2.91 1.24 2.96 1.88Z" fill="#28272f"/><path d="m57.81 18.83-.02.22c-1.53-.29-3.02-.88-4.55-1.51l-2.31-.95c-.49-.2-1-.54-1.36-.84l4.64 1.76c1.19.45 2.46 1.01 3.6 1.33Z" fill="#3f4146"/><path d="m68.6 18.87-1.17.66c.05-.64.73-.64 1.17-.9v.23Z" fill="#272834"/><path d="m87.96 28.76-.67-.44c.28-.59.82-1.46 1.43-1.82.89-.53 2.74.76 2.29-5.76-.09-1.3-.3-2.36-1.16-3.5-.63.04-1.68.28-2.02.76l-1.93 2.75c-.47.67-.85 1.14-1.83 1.55.03-.55.04-.91.11-1.25.36-.43.66-1.24.68-1.78 0-.06-.01-.16 0-.22 1.09-2.21 1.15-4.87.7-7.3l1.89.42c.58.13 1.25 3.09 2.31 4.15 1.89.18 2.09 3.51 2.13 4.89.43.15-.87 6-1.45 5.8-.41.32-1.54.5-1.89.97l-.58.78Z" fill="#2e4066"/><path d="M85.36 15.31c.06.46.03 1.35-.09 1.93l-.4 1.81c-.01.06 0 .16 0 .22-.29.52-.56 1.18-.68 1.78-.33.4-.78.84-1.27.69-.07-.02-.2-.06-.26-.1l-.43-1.34c1.22-1.73 2.54-1.36 2.33-4.31-.02-.3.57-.68.81-.69Z" fill="#2c3d63"/><path d="m87.29 28.33.67.44c.41.29.98.57 1.31.66v.22l-1.54-.66c-.58-.31-1.09-.59-1.73-1.1.52.09.97.24 1.29.45Zm-1.73-16.58c.45 2.43.38 5.1-.7 7.3l.4-1.81c.13-.58.15-1.47.09-1.93-.02-.17-.03-.51 0-.67.13-.74.06-2.18-.34-2.94-.07-1.42-2.11-4.57-2.17-5.22.29.1.39.41.58.78l1.33 2.66c.25.5.72 1.34.81 1.83" fill="#272834"/><path d="M89.28 29.65v-.22c.07.02.22.07.23.08 0 0-.09.28-.11.36-.02.07-.09-.16-.12-.22" fill="#29385e"/><path d="M59.74 10.22c-.44 1.74-1.99.82-1.98 1.44v.54c-.6-.32-1.24-.69-1.8-1.1l-.88-.64c.13-.33.31-.99.5-1.26l.65-.92c1.23.47 2.49 1.1 3.51 1.94" fill="#2e3c62"/><path d="m56.23 8.29-.65.92c-.19.28-.37.94-.5 1.26-.14-.1-.32-.35-.44-.46l-.24-.3c.03-.19.06-.68.08-1.03s.73-.74 1.05-.9l.7.52Z" fill="#314267"/><path d="M31.1 3.89c1.19-.46 5.44 2.4 2.34 1.03zm7.298 4.356.223-.257 1.593 1.384-.223.257zm1.787 1.544.214-.263 1.962 1.598-.215.264zM38.32 7.94c-.34-.06-.61-.27-.68-.55.27.06.43.19.68.55m-.9-.63-.65-.5c.3 0 .49.13.65.5" fill="#28272f"/><path d="m54.4 9.71.24.3-.27.19-1.06-.88z" fill="#272834"/><path d="m57.77 12.21.4.67h-.22c-.58-.29-1.49-1.27-1.99-1.76.56.41 1.2.78 1.81 1.1Z" fill="#1d1e29"/><path d="M36.45 6.12c.09.43.04.76-.25.5l-.9-.74zm23.28 8.07-.33-.02c-.29-.28-.77-.79-1.01-1.07z" fill="#28272f"/><circle cx="35.01" cy="5.6" r=".25" fill="#28272f"/><path d="m58.39 13.1-.44-.22h.22c.04.07.17.16.22.22m2.01 1.55.66.46c.6.71 1.3 1.4 2.04 2.12l1.65 1.6c-1.66-.99-3.58-3.45-5.34-4.47v-.19l.32.02c.16.13.49.33.67.46" fill="#272834"/><circle cx="34.45" cy="5.27" r=".11" fill="#28272f"/><path d="M60.4 14.65c-.18-.13-.51-.33-.67-.46l-1.34-1.09c-.05-.06-.18-.15-.22-.22l-.4-.67 1.45-.21c.82.66 1.28 1.65 1.18 2.65m2.64-3.99c.1-.15.13-.51.05-.67-.26-.55-.93.44-1.28.26-.16-.08-.39-.39-.44-.57-.22-.89 1.28-.12 1.84-.79l.93.74c.35.27.22 1.39-.19 1.44l-.92-.41Z" fill="#2e4066"/><path d="m64.48 8.49.3-.93c.28.11 1 .09 1.1.37.11.32-.09 1-.38 1.1-.48.18-.95-.05-1.03-.55Z" fill="#29385e"/><path d="M65.31 12.23c.12.21-.37.63-.65.66-.3.04-1.05-.16-1.03-.44.05-.54 1.15-.51 1.68-.22m-1.62-3.8-.44.05-.71-.23c-.17-.06-.29-.58-.24-.77.06-.22.52-.36.75-.28.29.11.81.29.78.48l-.14.76Z" fill="#2e4066"/><path d="m70.08 8.47-.86.92.2-.71c.24-.23.5-.61.66-.91l1.54-1.29-.97 1.06-.58.93Z" fill="#272834"/><path d="M78.48 4.72c-.42 1.22 2.38 3.89 3.9 2.85l.97 1.76c.14.25.08.78.1 1.16.03.57 1 1.25 1.56 1.21.4.75.48 2.2.34 2.94l-.83-.62c-.48-.36-2.12.39-2.94.68-1.99-2.44-2.39-.82-6.32-2.32-1.53-.59-2.22-1.56-2.31-3.06-.02-.37 1.45-.09 1.36-1.23-.06-.78.37-1.16 1.06-1.2 1.04-.05 1.51-1.05 1.51-1.92l1.59-.25Z" fill="#2c3d63"/><path d="M78.65 18.8c-.49-.41-1.3-1.27-1.56-1.9l.39-.68c1.02.02 1.98.86 1.84 1.94l-.66.64Z" fill="#314267"/><path d="M67.72 12c.15-.58.37-1 .76-1.34-.15.58-.37 1-.76 1.34m1.46-2.09-.61.58.2-.57c.13-.46.35-.52.42-.01Zm-1.88 2.96c.04.11-.16-.26-.1-.31l.44-.36zm16.88 8.19c.13-.6.4-1.26.68-1.78-.02.55-.33 1.35-.68 1.78" fill="#272834"/><path d="M39.63 138.22c.75 0 2.15.12 2.85 0 .22-.04.68.06.96.11l-.26 1.15c-.67.58-.84 2.09-.56 2.78.06.14.67.15.7.11.27.29.85.42 1.2.51.93.58 1.97.86 3.19 1.06l.28-1.99.52-.02c.33-.04.7-.17.98-.33l.69 1.21-1.15 1.37c1.46.13 2.96.21 4.49.19l7.94-.1c2.88-.03 7.14-1.45 7.3-4.75 0-.06-.01-.16-.02-.23.16 0 .48.07.64.09l-.02.55c-.19.52-.35 1.67-.33 2.21 0 .18.75.33.78.27.24 1.34 5.2 1.65 6.19 1.57l.69-.05c.25.45 4.04.24 4.83.2 3.67-.18 7.12-.17 10.63-.09.45.01 1.04 0 1.48.05 3.43.37 7.36 1.01 9.97-1.42 1.51.13 3 .12 4.62.06 1.07-.04 5.44-1.65 5.74-1.83l.04.52c-2.69 1.48-6.49 2.17-9.77 2-1.47-.08-1.19 1.19-4.28 1.5-1.4.14-2.71.02-4.09-.07-3.77-.24-7.43-.34-11.22-.22-2.38.08-4.67.2-7.01.03-2.21-.15-1.47.21-4.77-.42-1.66-.32-3.7-.42-4.31-1.99-1.93 1.54-4.19 2.53-6.64 2.55l-4.2.02c-2.81.01-5.56.27-8.35-.08-1.72-.21-5.71-.96-7.05-2.1-1.46-2.05 1.6-3.71-.69-3.78l-7.25-.23-.71-.52c-.19-.14-.61-.34-.84-.36l.36-2.83.55-.49-.11.6c-.02.14.31.01.66-.01.4-.03.85.7.91 1.12.19 1.32-1.4 1.27-1.06 1.97 1.78.1 3.73.13 5.48.11Z" fill="#3f4146"/><path d="M30.16 133.54h.27l.17.89v2.19l-.24.47-1.08-.44-.23-.03-.22.27h-.22l.01-1.35-.29-.22c.12-.55.2-1.09.5-1.54l.45-.06.67-.16.2-.02Z" fill="#575455"/><path d="m29.28 136.66 1.08.44c.52.41 1.33.64 2.01.75l-.02.36c-1.3.1-2.53-.48-3.52-1.32l.22-.27c.1.17.17.2.23.03Z" fill="#3f4146"/><path d="M32.83 137.75c.23.02.65.22.84.36l-.03.58-1.31-.48.02-.36.47-.1Z" fill="#1d1e29"/><path d="M58.85 136.63c.13.17.5.46.73.53l3.44 1.03c2.38.71 2.17.53 4.41 1.1h.66c-.07.18.53.24.68.22-.16 3.3-4.43 4.71-7.3 4.75l-7.94.1c-1.53.02-3.03-.06-4.49-.19l1.15-1.37.3-.23c2.35.07.29-1.71 3.16-3.17l2.84-1.44c.47-.24.03-1.61-.48-1.9l.19-.33c.77.38 1.85.67 2.66.89Z" fill="#e8e7dd"/><path d="M52.21 133.77h.22c.19.14.48.34.68.44l3.08 1.52-.19.33c.52.29.95 1.66.48 1.9l-2.84 1.44c-2.87 1.46-.81 3.24-3.16 3.17.01-.42-.1-.98-.41-1.41-.28-.39-1.03-.38-1.36-.13l.2-1.31c.46-.43.89-.93 1.34-1.48-.8.23-1.24.83-1.34 1.48-.57.54-.81 1.38-.93 2.21l-.28 1.99c-1.23-.2-2.27-.48-3.19-1.06l.39-.28c.24-.02.7-.07.78-.28.23-.63.33-1.46-.06-2.04-.15-.22-.58-.27-.9-.29.67-4.16 4.86-3.89 4.87-3.65 0 .01 0-.15.01-.21.01-.09-.23-.25-.34-.24l-1.51.13v-.82c1.23-.36 2.63-.86 3.82-1.32.15-.06.49-.08.62-.08Zm1.27 3.5c-.06 0-.38-.04-.44-.03l-2.19.41c-.1.02-.34.15-.42.19s.07.41.15.37l.42-.24c.75-.44 4.37-.53 2.49-.69Z" fill="#e8e5d5"/><path d="M42.1 131.15c.04.81.58 2.24 1.06 3.02l-1.23-.16-1.05 1.64-.72 1.29c-.27.47-.5.83-.54 1.28-1.76.02-3.7 0-5.48-.11-.34-.7 1.25-.65 1.06-1.97-.06-.42-.5-1.15-.91-1.12-.35.02-.69.15-.66.01l.11-.6c.19-.17.36-.63.44-.88.27-.25.57-.48.87-.66.49.15.7 1.89 1.9 1.54.84-.25 1.44-.89 2.11-1.38l1.58-1.14c.57-.41.88-.9.79-1.6.17.05.45.07.51.21s.15.48.15.63Zm3.73 4.44h.2c.49-.33 1.23-.27 1.74-.42v.82c-2.78 1.69-1.8 1.01-3.52 3.72l-1.07-.24.26-1.15c-.29-.04-.74-.14-.96-.11-.41.03 1.43-3.26 1.56-3.14l1.07.82c.16.13.58-.12.72-.31Zm-1.15.97c.53-.15.19-.31-.19-.29l-.84 1.71z" fill="#e8e7dd"/><path d="M43.16 134.17c.32.04.62.71.88.91-.13-.12-1.97 3.17-1.56 3.14-.71.12-2.1 0-2.85 0 .04-.45.27-.8.54-1.28l.72-1.29 1.05-1.64 1.23.16Zm-8.66-3.2.5 1.32c-.34.18-.7.9-.81 1.27-.08.25-.25.71-.44.88l-.55.49c-.43-.18-.57-.98-.78-1.49-.16-.41-1.2-.48-1.61-.46.28-.86 1.58-2.08 2.65-2.29z" fill="#e7e0d0"/><path d="m33.2 134.92-.36 2.83-.47.1c-.68-.11-1.49-.34-2.01-.75l.23-.47c.22-.07.44-.13.58-.24s.19-.62.19-.87c0-.54-.31-1.09-.76-1.09l-.17-.88c.1-.14.33-.42.38-.58.41-.02 1.44.05 1.61.46.2.51.35 1.31.78 1.49" fill="#e6ddcb"/><path d="m44.91 142.58-.39.28c-.35-.09-.94-.21-1.2-.51-.06-.84.34-1.67 1.16-1.94.17-.06.74.37.73.59-.04.53-.19 1.18-.3 1.57Z" fill="#575455"/><path d="m44.25 139.71.24.24v.47c-.83.27-1.23 1.09-1.17 1.94-.03.04-.64.03-.7-.11-.28-.69-.11-2.2.56-2.78z" fill="#7c7c7c"/><path d="m50.49 142.57-.3.23-.69-1.21c-.28.15-.65.28-.98.33.07-.26.17-.63.21-.89.33-.24 1.08-.26 1.36.13.3.43.42.98.41 1.41Z" fill="#272834"/><path d="M48.73 141.03c-.04.26-.14.62-.21.89l-.52.02c.12-.82.35-1.67.93-2.21l-.2 1.31Z" fill="#7c7c7c"/><path d="M68.76 139.28c0 .07.02.17.02.23-.16.02-.75-.04-.68-.22h.66Z" fill="#575455"/><path d="M41.44 130.31c.09.7-.21 1.18-.79 1.6l-1.58 1.14c-.67.49-1.27 1.13-2.11 1.38-1.2.36-1.41-1.38-1.9-1.54.28-1.06 2.25-1.03 3.23-.94 0-.07.02-.3.03-.38 0-.45-.88-.82-1.45-.88l-2.08-.24c-.11-.01-.33.02-.44.02l-.11-.71 1.59-.92c.63-.37.87-.38 1.55-.04 1.32.64 2.72 1.09 4.06 1.52Z" fill="#e6ddcb"/><path d="m34.23 129.75.11.71c-.24 0-.66-.02-.88 0-1.52.37-2.58 1.72-3.3 3.08l-.2.02-.25-.67c.46-2.02 2.49-3.15 4.52-3.13Z" fill="#ede7d6"/><path d="m29.96 133.56-.67.16.42-.83z" fill="#e6ddcb"/><path d="M30.59 136.63v-2.19c.46 0 .77.55.77 1.09 0 .25-.05.76-.19.87s-.36.17-.58.24Z" fill="#28272f"/><path d="M33.46 130.46v.22c-1.07.2-2.37 1.42-2.65 2.29-.05.17-.28.44-.38.58h-.27c.72-1.37 1.79-2.72 3.3-3.09" fill="#989390"/><path d="m29.05 136.62.23.03c-.06.17-.13.14-.23-.03" fill="#1d1e29"/><path d="M79.97 125.34c-.42.53-.55 1.56-1.07 2.04-.34-.29-.46-.88-.51-1.39.12-.49 1.05-1.08 1.58-.65" fill="#314267"/><path d="M78.89 127.38c-.05.25-.13.6-.21.84-.06-.05-.29-.4-.3-.55l-.15-1.4.15-.29c.05.51.17 1.1.51 1.39Z" fill="#272834"/><path d="m62.12 135.29-.92 1.94 1.82.74v.22l-3.44-1.03c-.23-.07-.6-.36-.73-.53l1.82.43c.76.18.73-1.94 1.44-1.77Z" fill="#3f4146"/><path d="M68.1 139.29h-.66v-.44c.2.02.65-.11.9-.19z" fill="#272834"/><path d="M44.91 142.58c.11-.38.26-1.04.3-1.57.02-.23-.55-.66-.73-.59v-.47l.25.02c.32.02.75.07.9.29.39.58.3 1.41.06 2.04-.08.21-.54.26-.78.28" fill="#3f4146"/><path d="M53.48 137.27c1.87.16-1.74.25-2.49.69l-.42.24c-.08.05-.23-.32-.15-.37s.33-.17.42-.19l2.19-.41c.06-.01.38.03.44.03Zm-8.75 2.7-.24-.02-.24-.24c1.72-2.72.74-2.03 3.52-3.72l1.51-.13c.1 0 .35.15.34.24 0 .06 0 .22-.01.21-.01-.23-4.2-.5-4.87 3.65Zm4.2-.25c.1-.65.54-1.25 1.34-1.48-.46.55-.88 1.05-1.34 1.48" fill="#989390"/><path d="M53.11 133.77v.44c-.2-.1-.49-.3-.68-.44z" fill="#575455"/><path d="M122.79 118.78c.03 2.73.14 7.13-.41 9.74-.41 1.92-1.12 3.83-2.04 5.7-1.4 2.86-3.73 5.06-6.37 6.68-.3.18-4.67 1.79-5.74 1.83-1.62.05-3.1.06-4.62-.06v-.29c.71-1.63-.3-3.47-1.43-4.66l1 1.91c.2.39.23 1.18.22 1.64l-2.17.34-1.54-1c-.08-.05-.5 0-.58.03-.66.28 1.19 1.37 1.61 1.46.01.12-.71 1.03-1.04.87l-1.58-.8-.99-.5c-.54-.28-.87 1.46-3.59.72l.13 1.69c-.44-.05-1.03-.04-1.48-.05.1-.69-.12-1.23-.66-1.71-1.72-1.53-1.88.06-3.99-.73-.11.27-4.07-.51-3.76-.77.85-.72.71-1.52.42-2.53-.21-.73-.38-1.45-.65-2.09.84-.22 2.9 1.75 3.24.89-3.19-1.51-3.78-1.78-7.25-2.25-.84-.12-1.96-.09-2.54-.69-.27-.34-.36-1.28-.32-1.69.48-.24.83-.66 1.02-1.22l1.02-3.01c.08-.23.15-.59.21-.84.52-.48.66-1.51 1.07-2.04.54-.68 1.19-1.57 1.83-2.14.79-.71 1.77-1.32 2.61-1.99.24-.09.51-.24.68-.41.05-.02.16-.02.22-.02l.22-.2.22-.02.22-.19s.17 0 .22-.02c1.01-.32 3.03-1 4.1-1.12l2.1-.23c.98-.11 2.12-.19 3.03-.13s2.51.43 3.35.56c.16.02.5.03.66.04 1.02.3 2.66.58 3.73.87l1.56.42 5.71 2.18 1.12-.59.23.02c1-.17 2.11-.65 3.08-.9 1.15-.3 4.78-1.1 5.72-2.01l2.2-.67Zm-20.81 18.75-1.54-2.15c-.08-.17-.42.22-.29.31zm-8.74 6.28c0-.06-.05-.11-.11-.11s-.11.05-.11.11.05.11.11.11.11-.05.11-.11" fill="#ece6d7"/><path d="M79.57 137.92c.2 1.43-1.11 2.84-.1 4.1 1.09-.83 2-1.02 3.17-.8l1.11-.41c-.31.26 3.65 1.04 3.76.77 2.11.8 2.28-.8 3.99.73.54.48.76 1.02.66 1.71-3.51-.09-6.96-.09-10.63.09-.79.04-4.59.25-4.83-.2l1.38-.89c.5-.33.55-1.22.33-1.62-.38-.67-1.17-.88-1.71-.39l-.29-.07 1.18-2.33c.12-.04.36-.11.46-.17.36-.21 1.11-.6 1.52-.53Z" fill="#e8e7dd"/><path d="m80.01 135.29.09.48c.02.08.35-.04.35-.13v-.33c.13 0 .36.14.46.2.27.6 1.35.89 1.97.5l.65.19c.28.65.44 1.36.65 2.09.29 1.01.43 1.8-.42 2.53l-1.11.41c-1.17-.22-2.08-.03-3.17.8-1.01-1.26.3-2.67.1-4.1l.77-.44-1.01-.11c-.55-.66-1.56-1.29-2.34-1.6l-.28.39c-.8-.04-1.62.15-2.22.68-.92.07-1.75.84-2 1.72-.74.42-1.04 1.46-.99 2.3-.08.12-.22.33-.31.43-.04-.32-.02-1.04-.22-1.33-.32-.45-1.19-.29-1.57-.04l.02-.55c.38.05 1-.33 1.32-.58.9-.7 1.4-1.96 1.82-3.02 2.64-1.1 4.99-.6 7.47-.47Z" fill="#e7e0d0"/><path d="m75.61 136.71.57 1.04c-.3.81-.33 1.83.05 2.64-.05.3-.13.84-.15 1.15-.06.81-.07 1.63-.05 2.44-.99.08-5.95-.23-6.19-1.57.38-.26 1.03-.81 1.35-1.11l.27 1.99c.82-.25 1.71-.69 2.05-1.4.13-.28-.02-1.08-.19-1.32-.19-.28-.81-.4-1.2-.35l.38-1.65 2-1.72 1.13-.13Z" fill="#e7e0d0"/><path d="M103.39 141.27c0 .37.08.79.22 1.1v.29c-2.61 2.43-6.55 1.79-9.97 1.42l-.13-1.69c2.72.73 3.04-1 3.59-.72l.99.5 1.58.8c.32.16 1.05-.75 1.04-.87-.42-.09-2.27-1.18-1.61-1.46.08-.04.5-.08.58-.03l1.54 1z" fill="#e8e7dd"/><path d="m76.7 143.92-.69.05c-.02-.81 0-1.63.05-2.44.2-.14.42-.33.63-.51.54-.49 1.33-.29 1.71.39.22.4.17 1.29-.33 1.62l-1.38.89Zm-5.52-2.63c.1-.09.23-.31.31-.43.22-.11.56-.43.61-.65.4-.05 1.01.06 1.2.35.17.25.32 1.05.19 1.32-.34.71-1.23 1.16-2.05 1.4l-.27-1.99Z" fill="#575455"/><path d="M71.18 141.29c-.31.31-.97.85-1.35 1.11-.03.06-.77-.09-.78-.27-.02-.55.14-1.69.33-2.21.38-.25 1.26-.41 1.57.04.2.29.18 1 .22 1.33Z" fill="#575455"/><path d="M126.57 125.18c-.11-.08-.39-.5-.41-.69l-.16-1.53c-.15.82-.13 1.78.06 2.43.1.33.25 1.09.13 1.44-.5 1.42-2.06 1.88-3.35 1.6l.34-3.07.07-6.37-.2-.23 2.51-1.67c.19-.13.6-.25.8-.25s.59.46.6.67l.16 2.46c.52.76 1.49 1.42 1.41 2.56-.07 1.07-1.16 2.25-1.97 2.64Z" fill="#e8e5d5"/><path d="m122.85 128.43-.47.09c.55-2.61.45-7.01.41-9.74h.27l.2.22-.07 6.37-.34 3.07Zm3.72-3.25c-.13.06-.37.16-.51.21-.2-.65-.22-1.61-.06-2.43l.16 1.53c.02.19.31.61.41.69" fill="#7c7c7c"/><path d="M76.97 134.15c-.02.14-.02.51-.17.53s-.61-.01-.79.02l-3.43.64c.01-.12-.08-.35-.08-.47.07-.09.15-.47.17-.68.06-.16.37-.43.59-.5l2.52-.83c.24-.08.56-.24.87-.41-.04.42.04 1.36.32 1.69Z" fill="#e8e7dd"/><path d="m83.52 136.2-.65-.19c-.49-.44-1.31-.64-1.97-.5-.09-.06-.33-.19-.45-.2l-.44-.02c-2.48-.12-4.84-.62-7.47.47l.05-.42 3.43-.64c.18-.03.64 0 .79-.02s.16-.38.17-.53c.58.59 1.7.57 2.54.69 3.47.48 4.05.74 7.25 2.25-.34.86-2.4-1.11-3.24-.89Z" fill="#989390"/><path d="M103.61 142.38c-.15-.31-.23-.74-.22-1.1 0-.46-.02-1.25-.22-1.64l-1-1.91c1.14 1.19 2.15 3.03 1.44 4.66Zm-1.63-4.85-1.83-1.84c-.13-.09.2-.48.29-.31z" fill="#7c7c7c"/><path d="M84.41 121.21c.17-.14.48-.32.68-.41-.17.16-.44.32-.68.41m1.34-.64.22-.19zm-.45.22.22-.2z" fill="#272834"/><circle cx="93.14" cy="143.81" r=".11" fill="#e8e7dd"/><path d="m79.32 137.38-.75.5c-.17.12-.43.4-.53.57-.11.06-.35.13-.46.17-.44.42-1.06 1.23-1.36 1.76-.37-.81-.35-1.83-.05-2.64l-.57-1.04 1.01-.12c.09-.01.09-.45.08-.43l.28-.39c.78.31 1.79.94 2.34 1.6Z" fill="#eaeaeb"/><path d="M79.57 137.92c-.41-.07-1.16.32-1.52.53.1-.18.35-.46.53-.57l.75-.5 1.01.11-.77.44Zm-2.87 3.11c-.2.18-.42.38-.63.51.02-.3.1-.85.15-1.15.3-.54.92-1.34 1.36-1.76l-1.18 2.33.29.07Zm-2.22-4.18-2 1.72c.25-.88 1.08-1.65 2-1.72m2.22-.68s.01.42-.08.43l-1.01.12-1.13.13c.6-.53 1.41-.72 2.22-.68m-4.22 2.4-.38 1.65c-.05.23-.39.55-.61.65-.05-.84.25-1.88.99-2.3" fill="#989390"/><path d="M82.88 136.01c-.62.39-1.7.1-1.97-.5.66-.15 1.48.05 1.97.5" fill="#ece6d7"/><path d="M72.51 134.88c0 .12.09.35.08.47l-.05.42c-.41 1.06-.91 2.32-1.82 3.02.37-1.28.98-.99 1.51-3.26.1-.44.18-.84.28-1.1v.44Z" fill="#272834"/><path d="M80.45 135.31v.33c0 .09-.33.21-.35.13l-.09-.48z" fill="#ece6d7"/><path d="M38.32 131.57c0 .08-.02.31-.03.38-.99-.09-2.95-.12-3.23.94-.3.18-.6.41-.87.66.11-.36.47-1.09.81-1.27 1.04-.54 2.16-.78 3.32-.72Zm34.19 3.31v-.44c.02-.07.12-.18.17-.24-.02.21-.1.59-.17.68" fill="#989390"/><path d="m44.68 136.56-1.03 1.42.84-1.71c.38-.02.72.14.19.29" fill="#868586"/><path d="M38.32 131.57c-1.16-.06-2.28.18-3.32.72l-.5-1.32.29-.52 2.08.24c.58.07 1.46.43 1.45.88" fill="#e7d9c5"/><path d="M34.34 130.46c.11 0 .33-.03.44-.02l-.29.52-1.04-.28v-.22c.22-.02.64 0 .88 0Z" fill="#7c7c7c"/><path d="M125.49 106.45c-.02.94.42 1.48 1.01 2.22 1.71 2.12 1.44 5.12.27 7.47 1.38 1.84.6 2.99 1.5 3.97 1.31 1.42 1.04 3.39-.4 4.64-1.74 1.52.01 3.46-4.18 4.53-.67.17-.99.71-1.22 1.29-.55 1.34-1.02 2.65-1.64 3.95-1.44 3.02-4.03 5.35-6.84 6.9l-.04-.52c2.64-1.62 4.97-3.83 6.37-6.68.91-1.86 1.63-3.77 2.04-5.7l.47-.09c1.29.27 2.85-.19 3.35-1.6.12-.35-.03-1.11-.13-1.44.14-.06.38-.15.51-.21.81-.39 1.9-1.58 1.97-2.64.08-1.14-.89-1.8-1.41-2.56l-.16-2.46c-.01-.21-.4-.67-.6-.67s-.61.12-.8.25l-2.51 1.67h-.27l-2.2.68c.28-.94 2.61-.16 2.59-2.21-.01-1.07-.51-6.81-2.22-5.88l-2.43 1.32c-.26.14-.15.85 0 1.18.64 1.46.87 3.82.91 5.33.04.2.71.33 1.15.27-.94.91-4.58 1.71-5.72 2.01.66-1.26-.12-5.3-.73-6.72.21-.62-3.83.83-3.65.9-1.07.14-3.01.43-3.95.75l-.49.16-3.24.67c-.13.09.04.76.1.94l.64 2.04c.27.14.88.47 1.19.54l-1.56-.42-.54-2.5c-.04-.2-.54-.55-.76-.5l-2.88.58.45 1.55c-.16-.01-.5-.01-.66-.04.36-.41.29-.99-.21-1.43l-2.8.52c-.08.01-.39.4-.34.35-.91-.06-2.05.03-3.03.13l-2.1.23c-1.07.12-3.09.79-4.1 1.12.06-1.01 5.36-1.59 6.41-1.74 5.78-.88 11.33-1.95 17-3.29 2-.47 3.86-1.1 5.77-1.77 2.88-1 5.5-2.38 7.95-4.17.44-.32.85-.87 1.12-1.21.14-.18.92.23.47-2.14l.58.42Zm-.26 4.6-1.24-1.62c-.65.39-1.41.95-2.01 1.54 1.25 2.26 1.48 4.26 1.53 6.79.62-.27 1.64-.8 2.01-1.29.34-1.71.19-3.54-.29-5.41.43.31.61.92.67 1.53l.36 3.46c1.04-2.14 1.68-5.46-.84-7.61-.32-.11-1.28.69-1.06.99l.88 1.63Zm-6.77 9.07c1.61-.52-.12-6.13-.58-7.11l-3.69 1.42c.65 1.44 1.1 2.54 1.12 3.86l.04 2.81 3.11-.99ZM36.72 98.75c0 .45.18.98.66 1.13l1.81.56 3.02 3.84c.16 7.76.04 5.36-3.16 9.29-.19.24-.85.38-1.13.33l-1.1-.18-.04 3.04-2.28.03c.45 1.64 1 3.15 1.99 4.36.94 2.67 2.8 4.89 4.74 7.06.86.96 1.85 1.68 3.14 2 2.26.55 4.59.69 6.89.52.26-1.44 1.54-3.73 2.73-3.77l-.79.78c-1.11 1.09-2.19 4.14-1.01 5.77-.06-.04-.3-.04-.46-.05l-.77-2.17c-.68-.31-1.85-.18-2.75.06l.88 3.43c-1.13-.46-.68-3.03-1.09-3.45-.13-.13-.47-.12-.67-.14l-2.57-.35c-.04.82.11 1.59.45 2.28l.09 1.13c-.63-.95-.74-2.25-.97-3.43-.1-.54-1.65-1.01-1.93-.61l-.3.96c0-.15-.09-.49-.15-.63s-.34-.15-.51-.21c-1.34-.43-2.74-.88-4.06-1.52-.69-.33-.92-.32-1.55.04l-1.59.92c-2.04-.01-4.07 1.12-4.52 3.13l-.42.83-.45.06c.25-1.35.88-2.9 2.2-3.7s3.9-.61 4.6-1.86c0-1.64.2-3.36 1.11-4.76-2.19-3.92-2.93-6.58-4.12-10.64l.41-.44.23.38c.12.76.41 1.64.87 2.51.11-.33.2-.69.18-.92l.46.69c0 .25 0 .93.21 1.11.25.21 1.14.14 1.41-.02l-.03-2.83.44-.11c.43.01 1.37.05 1.86-.06l2.95-3.15-.03-5.53-2.17-2.72c-.49-.62-1.02-1.02-1.78-1.05l-.88-.4c-.1-.04-.32-.03-.43-.03v-1.52h.37Zm1.29 29.66.06-2.8c0-.41-.51-1.18-.85-1.58-.81 1.05-1.02 2.45-.67 3.65.12.41 1.02.73 1.46.74Zm2 .91c.33-2.08-.58-2.28-1.58-3.64l-.2 3.07zm12.64 4.45h-.44l-.02-.26z" fill="#272834"/><path d="m32.63 94.27-.09 1.31-.48 4.68c-.05.48.08 1.44.43 1.71-1.02-.36-.23 3.19-.12 3.65.05.21.82.45.97.55l.81 2.82c-.57-.47-1.23-1.7-1.71-2.57-.47.49.31 2.66-.25 3.09l-.29-.2-.28-3.75c-.17-2.29-.37-4.54-.01-6.85l.71-4.65z" fill="#272834"/><path d="M34.15 108.99c.34 1.2.2 2.57.15 3.83l-.62-.05h-.41l-.23-.39-.42-2.19c-.03-.16-.38-.51-.44-.52l.02-.16c.56-.43-.22-2.6.25-3.09.48.87 1.14 2.11 1.71 2.57Z" fill="#f3f3f3"/><path d="M34.76 88.31v6.22h-.42l.02-3.29c0-.16-.63-.31-.75-.2s-.32.38-.37.58l-.62 2.66-.31-.21c.25-1.66.83-4.64 1.61-5.99l.82.24Z" fill="#3f4146"/><path d="m36.36 83.05-1.56 4.3 1.98.38-.03 2.18c-.02 1.58 2.12.02 2.65 1.96l-.1.49c-1.56-1.26-.42-1-3.02-1.12l.07-3.05-1.54-.05-.71-.43c.34-1.22 1.15-3.56 1.94-4.66l.31.02Z" fill="#1d1e29"/><path d="M54.63 126.72v.22l-.65.02c.05-1.97.18-4.11.49-6.18l1.52-10.21c.47-3.12-.21-4.86-1.11-8.15-1.49-5.45-2.1-10.98-1.68-16.58.6-3.44 1.85-6.31 3.86-9.26l-5.9 2.72a59 59 0 0 1-8.71 3.23c-1.04.29-5.07.74-5.9.28-.23-.24-.63-.67-.87-.9-1.05-.98-1.02-1.91-.55-3.57l.24-.86c.03-.1.03-.31.03-.41.54.11 1.09.4 1.59.72-.71-.11-1.23.6-1.37 1.25-.24 1.14-.14 2.65 1.01 3.29.3.17 2.89.77 3.02.04l.04-.22c.23.3.78.49 1.17.4l3.2-.79c-1.54-2.17-.42-3.22-1.28-4.45.54-.15 1.16-.37 1.7-.43l-1.08.9c.02 1.03 0 4.23 1.55 3.62 2.47-.98 3.35-.79 3.13-1.62.15.09.57.2.74.14l3.17-1.3c.12-.05.44-.34.48-.39.06-.02.16-.04.2-.06l4.42-1.83c.09-.26.11-.76.04-.97.97.93.79-.25 3.48-2.03-.24.36-.82.85-1.22 1.22-3.27 3.08-5.05 7.2-5.84 11.59-.63 3.45.42 10.7 1.32 14.27l1.92 7.61-2.02 14.05c-.19 1.3-.22 3.51-.12 4.66Z" fill="#1d1e29"/><path d="m33.04 112.38-.41.44c-.3-1.03-.57-2.1-.45-3.15.06 0 .41.36.44.52z" fill="#3f4146"/><path d="m34.82 88.12-.06.2-.82-.24c.05-.09.14-.28.17-.39zm1.73-5.31-.19.24-.31-.02-.37-1.12c.25.23.64.66.87.9" fill="#272834"/><path d="M50.91 74.17c1.02-.18.41 2.46 1.54 4.05-.04.05-.36.34-.48.39l-3.17 1.3c-.17.07-.59-.04-.74-.14l-.39-1.5c-.16-.62-.13-1.8-.03-2.41l.83-.58c.55-.39 1.74-.93 2.44-1.11" fill="#314267"/><path d="M39.68 82.15c-.1-.31-.27-.93-.27-1.26v-2.27c.08-.11.17-.34.23-.47l3.12-.85c.86 1.23-.26 2.28 1.28 4.45l-3.2.79c-.39.1-.94-.1-1.17-.4Z" fill="#33446a"/><path d="M63.68 68.03c.12.61.4 1.27.73 1.81l.14.78c.03.19-.44.43-.63.53l-3.03 1.57-.87-2.89c-.03-.1.14-.56.13-.52.44-.32 1.2-.77 1.76-.89l.69-.15 1.07-.23Zm7.95-3.97.22.22c.09.71.42 1.43.88 1.99.06.67.33 1.42.53 2.29-1.25.95-2.87 1.35-4.28.8-.06-.56-.26-1.2-.66-1.54-.15-.48-.4-1.15-.66-1.54-.06-.4-.08-.65.2-.95.27-.18.66-.53.92-.76.75-.22 1.47-.55 2.19-.89l.66.39Z" fill="#314267"/><path d="M75.8 62.2c.29.42.68.96.9 1.42.42.89.61 1.99.77 3.05l-3.68 1.8c-.74-.33-.27-1.98-1.05-2.2-.06-.62-.39-1.7-.88-1.99-.07-.04-.17-.16-.22-.22v-.7s.17 0 .22-.02c1.75-.48 3.36-1.53 3.96-1.14Zm-16.53 7.55c.26.06.61.37.68.6l.66 2.13c.07.22.1.67-.02.84-2.69 1.79-2.51 2.96-3.48 2.03l-.64-2.06c-.23-.74-.34-1.45-.08-2 .71-.54 2.11-1.23 2.87-1.54Zm7.7-3.99.68.51c.1.6.35 1.03.66 1.54.23.38.17 1.31.66 1.54.68.37-3.29.82-4.09 1.26l-.47-.77c-.11-.63-.35-1.32-.73-1.81l.42-.71c.17-.16.49-.48.69-.57l2.17-.99Zm-27.55 12.4v.46c-.58.81-.64 2.83.22 3.75-.13.74-2.71.13-3.02-.04-1.15-.64-1.25-2.15-1.01-3.29.14-.66.66-1.36 1.37-1.25l2.43.37Z" fill="#314267"/><path d="M72.73 66.27c-.46-.56-.79-1.27-.88-1.99.49.29.82 1.37.88 1.99" fill="#272834"/><path d="m73.78 68.46.02.24c-.44.2-.87.44-1.5.77l2.53.26c.23.02.66.3.76.47-3.78-.54-7.57-.51-11.08 1.05-.88.39-3.29 1.66-3.92 2.07.11-.17.08-.62.02-.84l-.66-2.13c-.07-.23-.42-.54-.68-.6.23-.1.66-.33.88-.44 0-.04-.16.43-.13.52l.87 2.89 3.03-1.57c.18-.1.66-.33.63-.53l-.14-.78.47.77c.8-.44 4.76-.89 4.09-1.26 1.41.55 3.03.15 4.28-.8-.2-.87-.47-1.62-.53-2.29.78.21.31 1.86 1.05 2.2Zm-2.15-5.1v.7l-.67-.39z" fill="#272834"/><path d="M64.42 69.85c-.34-.54-.61-1.2-.73-1.81.38.5.62 1.18.73 1.81m4.56-.49c-.49-.24-.43-1.17-.66-1.54.4.35.61.99.66 1.54m2.87-5.08-.22-.22c.05.06.15.18.22.22m-3.99 1.04c-.29.29-.27.55-.2.95l-.68-.51c.24-.11.68-.3.89-.44Zm.46 2.49c-.32-.52-.56-.94-.66-1.54.26.4.51 1.06.66 1.54m-4.21-.49-.42.71-1.07.23-.69.15c.11-.1.43-.34.63-.43l1.56-.67Z" fill="#272834"/><path d="M98.29 56.13c.02.22.07.61.26.67l.65.21.69.92c-.74.97.43 2.51 1.17 2.64.38.06.97-.11 1.04-.44h.19c.11.11.33.3.42.42-.06 0-.21-.02-.28-.03s.01.35.05.4l1.57 2.25c1.37 1.96.23 2.46 2.02 3.49.56.33.93.89 1.24 1.46l.88 1.59c.22.41.91 1.17.86 1.62-.18 1.65-.11.75.52 2.68.11.34-.16-.21-.98-.02-.1.02-.09.42.02.45s.29.04.43.06l1.25.3c1.14.27 2.65 3.45 2.55 3.97l-.31 1.67 1.53.51c.38.81.75 1.66 1.2 2.36 1.63 2.51.67 1.74 1.99 4.6.09.2.43.61.41.8l-.28 2.07c1.43.9 2.11 1.92 2.44 3.44.21.97.71 2.07.63 3.05s-.02 1.77.41 2.72c.28.61.73.79 1.43 1.06.79.3 1.25 1.74 1.07 2.55-.48 2.18.67 1.46.93 3.49-.46-.24-1.45-.62-1.61-1.21-.17-.65-.05-1.9-.13-2.49-.03-.24-.87-.26-.94-.02l-.26.96-1.9.09c-1.19 2.95.04 1.44-.8 3.16l.38.92c-.67.52-1.35.25-2.16.11-3.71-.65-3.34.3-2.91.34l1.82.18c-.27.84-.94.79-1.64.73l-2-.15-1.64-.15.16-1.11c-.66-.08-1.78-.1-2.13-.49l-1.49-1.66 1.73-.66c.12-.04.38-.42.3-.38-.25-.27-.61-.75-.49-.69l1.88-.16 2.27-.08c-.32-.86-1.05-.25-1.53-.48-2.6-1.26-2.85-.68-3.65-1.29-.65-.5 1.67-.73 2.38-.65.89.1 1.71.04 2.53-.24.5-.17 1.24.23 1.7-.45l-4.01-.39-1.92-.1c.27-.76.41-1.15.61-1.84.4-1.4-4.17-.74-5.15-.15-.16.1-.03.88-.22.86l-.8-.07c.03-.41-.07-1.04-.27-1.37-.56-.9 2.46.37 2.47-1.93-2.14 1.43-2.03 0-2.81.46l-.76.43c-.14.08-.52-.27-.68-.29l-.98.02c.15-.35.45-.72.3-.82l-.64-.4c-.12-.07-.47.23-.44.38l.09.56c.02.12-.46.23-.49.11l-.16-.59-1.16-.85 1.3.04 1.72-.43c-.1-.17-.44-.59-.63-.73-.16-.11-.61.28-.81.37l-1.06-.51c-.37.54-1.29.5-1.74.33-.16-.05-.32.57-.16.63l.58.24c.09.04.36.29.45.37.05.05-.06.07-.17.08l-1.47.36c-1.01.25 1.06-2.65-.43-2.23l-1.4.39c-.09-1.05.63-1.28 1.43-1.29l2.31-.02.43-.44-.94-1.1c-.2-.23-.74.14-.91.62l-.37.08c-.03-.52.05-.95-.15-.97l-.8-.06c-.13-.01-.37-.22-.45-.33s.31-.26.45-.25l.72.05c.24.02.36-1.93 1.59-1.55l-.82 1.05c.42.16 1.42.12 1.49-.25l.29-1.64c.04-.22.16-.58.24-.74.05-.12.54-.11.57-.23l.3-1.15c.89-.63 1.13.21 2.07-.54.13-.1-.37-.57-.58-.58l-3.07-.17c-.26-.01-.64.12-.7-.03-.04-.11-.12-.46-.02-.52l.52-.27c.73-.38 3.13-.95 1.91-1.14l-2.42-.38c-.17-.03-.35-.55-.21-.63.73-.42 3.1.03 4.7-.52-.61-.5-1.1-.68-1.67-.75l-1.16-.16c.97-1.82 2 .26 2.91-.78.15-.17.24-.81.02-.8-.33.02-.73.09-.91.02-.64-.24-.42-1.23-1.63-1.08-.36.04-.54.04-.68-.04-.1-.06-.18-.59-.07-.62 1.75-.48.76.12 2.02-.33.11-.04.07-.37-.03-.43-.94-.57-.2.27-2.81-.58-1.34-.44-1.66.77-3.66-1.19-.15-.58 2.03 0 2.52-.02l1.95-.06c.64-.02 1.25-.15 2.01-.34-.65-.42-1.18-.42-1.8-.59l-1.94-.55 2.13-.59.54-1.05c.23-.24.58-.63.72-.9.11-.2-.46-.65-.33-.83l.51-.69-2.14-.64c.39-.54.8-1.05.6-1.38-.22-.37-1.03-.48-1.42-.56-.04-.05 0-.53.13-.52l.65.03c.68.03 1.26-.05 1.95-.17l2.87-.49-.24-.38c-.32-.03-.69-.03-.68-.16l.07-.64c.04-.39-.03-.96-.12-1.32l.76-.2c-.52-1.14-1.54 1.14-3.27.14l.45-.91-.55-.44c-.12-.1.05-.43.13-.69.58-1.76-.93-2.58-.85-4.37l.39.02Zm2.48 12.78c0-.14-.11-.25-.25-.25s-.25.11-.25.25.11.25.25.25.25-.11.25-.25m.99 3.07-2.46-.21-.1.56c-.05.26 2.44.32 2.57-.36Zm-.5 4.3-.34.42.96.77.34-.42zm.91 5.09 1.91-.31c-.32-1.52-.25-.14-2.1-.12-.08-.08.08.45.19.43m4.2.95c-.38-.13-.78-.14-.77.03.02.29.56.3.77-.03m-6.56.13c-.1.14 0 .69.11.59l.42-.38c.08-.08-.46-.3-.53-.21m7.88.74c-.37-.12-.78-.13-.77.02.03.35.57.33.77-.02m-4.74 1.39h-.88v.82h.88zm1.34.32h-.47c.11.81.37.81.47 0m6.3.64c-.35-.92-1.65-.48-2.16 0-.12.11.45.59.61.54l1.55-.53Zm4.7-.27c-.11-.34-.89-.32-.87 0 .02.23.95.22.87 0m-10.3.04-.55.22.26.65.55-.22zm2.67 2.59-1.26-1.32-.44 1.44c1.1.11 1.29.61 1.7-.11Zm1.41-.36-.68-.04c-.11 0-.13.27-.17.42-.02.12.45.24.53.15s.1-.14.31-.53Zm-1.75 1.16.02.55c0 .09.31-.05.38-.11s.04-.25-.02-.32-.38-.2-.38-.12m-1.79.38-.85.63.29.39.85-.63zm-6.22.73c-.37-.12-.78-.13-.77.04.02.28.57.32.77-.04m13 2.45c-.69-.26-1.32-.27-1.68.25.6.18 1.19.02 1.68-.25m-2.93 2.24c0-.14-.11-.25-.25-.25s-.25.11-.25.25.11.25.25.25.25-.11.25-.25m-5.53.53-1.33-.12c-.2-.02-.3.53-.2.72s.59.57.75.43l.67-.59.36-.18c.08-.04-.15-.26-.24-.27Zm5.12 1.6c0-.2-.17-.37-.37-.37s-.37.17-.37.37.17.37.37.37.37-.17.37-.37m-1.17.03c.05-.09-.37-.14-.42-.05l-.2.37.29.19c.06.04.23-.34.33-.51m5.06 12.22c.08-.05.11-.56.02-.56h-.43c-.28 0-.76.25-1.14.57.48.17 1.23.18 1.55-.01" fill="#314267"/><path d="M102.71 60.56c2.59 3.18 6.89 9.99 8.71 13.7l6.66 13.52c1.8 3.66 6.13 14.5 6.83 18.25.44 2.37-.33 1.96-.47 2.14l-.14-1.08c-.26-2.02-1.41-1.3-.93-3.49.18-.81-.29-2.24-1.07-2.55-.7-.27-1.15-.45-1.43-1.06-.43-.95-.5-1.69-.41-2.72s-.42-2.09-.63-3.05c-.32-1.51-1.01-2.54-2.44-3.44l.28-2.07c.03-.19-.32-.6-.41-.8-1.32-2.86-.36-2.09-1.99-4.6-.46-.71-.83-1.56-1.2-2.36l-1.53-.51.31-1.67c.1-.53-1.41-3.7-2.55-3.97l-1.25-.3c-.14-.02-.33-.04-.43-.06s-.12-.42-.02-.45c.82-.2 1.09.36.98.02-.62-1.92-.7-1.03-.52-2.68.05-.45-.64-1.22-.86-1.62l-.88-1.59c-.31-.56-.68-1.13-1.24-1.46-1.79-1.03-.65-1.53-2.02-3.49l-1.57-2.25c-.04-.05-.11-.41-.05-.4s.22.03.28.03ZM97 55.7c-.81.5-.5-.94-.89-1.78a6.3 6.3 0 0 0-1.1-1.54l-.45-.43c-.06-.06-.17-.19-.22-.27l-.61-1.16c.45.07 1.11.09 1.66.02.09-.29.09-1.07-.02-1.36l-.37-.97c2 .54 4.65 4.53 2.56 6.72-.18.18-.45.62-.55.78Z" fill="#33446a"/><path d="m95 48.2.37.97c.11.29.11 1.07.02 1.36-.54.07-1.21.04-1.66-.02l.61 1.16a5 5 0 0 0-1.16-.68c-.31-.13-.91.52-.99.78l-.7.4-.27-.03c1.04-.88 1.98-1.9 2.64-3.08 1.08-.94.28-1.08 1.14-.85Z" fill="#29385e"/><path d="M102.29 60.13h-.19l-2.21-2.2-.69-.92c-.24-.32-.6-.68-.9-.88l-.39-.02-.25-.43c.08-.18.3-.52.47-.69 1.52 1.6 3.11 3.31 4.16 5.15Z" fill="#344872"/><path d="m75.78 132.87-2.52.83c-.22.07-.53.34-.59.5-.05.06-.14.17-.17.24-.09.25-.17.66-.28 1.1-.53 2.27-1.14 1.98-1.51 3.26-.32.25-.94.63-1.32.58-.16-.02-.48-.1-.64-.09h-.66l.24-.62c.16-.06.36-.31.42-.47 1.23-1.37 1.58-3.25 1.66-5.1.34-.66 2.05-.06 2.19.78l-.13-1.17.45-.23c.24-.12.4-.43.45-.71.11-.05.37-.26.45-.41l1.38-2.48.38 2.53.19 1.46Z" fill="#2e3c62"/><path d="M120.58 119.45c-.44.06-1.11-.06-1.15-.27-.04-1.51-.27-3.87-.91-5.33-.14-.32-.25-1.04 0-1.18l2.43-1.32c1.71-.93 2.21 4.81 2.22 5.88.02 2.05-2.31 1.27-2.59 2.21Z" fill="#2e4066"/><path d="m118.46 120.12-3.11.99-.04-2.81c-.02-1.33-.47-2.42-1.12-3.86l3.69-1.42c.46.98 2.19 6.59.58 7.11Z" fill="#2e3c62"/><path d="M114.86 121.46c-.97.25-2.08.73-3.08.9l-.17-2.51c-.05-.72-.2-1.47-.52-1.97 0-.06 0-.15-.01-.22 0-.23-.08-.6-.22-.66-.02-.05-.01-.15-.02-.22-.05-.21-.12-.47-.19-.67l-.17-.47c-.18-.08 3.86-1.53 3.65-.9.6 1.41 1.39 5.45.73 6.72" fill="#2e3c62"/><path d="M125.23 111.05c.48 1.87.63 3.71.29 5.41-.37.49-1.38 1.02-2.01 1.29-.05-2.53-.28-4.53-1.53-6.79.6-.59 1.35-1.15 2.01-1.54l1.24 1.62Z" fill="#2e4066"/><path d="M106.04 116.56c.48 1.5.84 3.04.83 4.68l-2.15-.48c-.31-.07-.91-.4-1.19-.54l-.64-2.04c-.06-.18-.23-.85-.1-.94l3.24-.67Z" fill="#2e3c62"/><path d="m106.75 117.62.51 3.02 2.08-1.28c.25-.16.93-.2 1.12-.02l.64.58c.55.71-.06 1.96.45 2.43l-1.12.59-5.71-2.18 2.15.48c.01-1.64-.35-3.18-.83-4.68l.49-.16z" fill="#29385e"/><path d="m125.23 111.05-.88-1.63c-.21-.3.75-1.11 1.06-.99 2.52 2.15 1.88 5.47.84 7.61l-.36-3.46c-.06-.61-.24-1.22-.67-1.53Z" fill="#344872"/><path d="M103.16 120.34c-1.08-.29-2.71-.57-3.73-.87l-.45-1.55 2.88-.58c.22-.04.72.3.76.5z" fill="#2e3c62"/><path d="m110.48 115.65.17.47.19.67c0 .07 0 .17.02.22l.22.66c0 .07.01.16.01.22l-.03.4c-.54-.01-.86-.37-1.24-.91-.87-1.23-2.71.34-3.07.24l-.22-1.22c.95-.32 2.88-.61 3.95-.75" fill="#344872"/><path d="M98.76 119.43c-.84-.12-2.45-.5-3.35-.56-.06.05.26-.34.34-.35l2.8-.52c.51.44.58 1.02.21 1.43" fill="#314267"/><path d="M53.99 126.96c-1.19.04-2.47 2.32-2.73 3.77-2.3.18-4.63.04-6.89-.52-1.29-.31-2.28-1.04-3.14-2-1.94-2.17-3.8-4.39-4.74-7.06.15-1.1.28-2.3.88-3.3 1.22-2.01-.19-1.8.54-3.95.29.05.94-.1 1.13-.33 3.2-3.93 3.32-1.53 3.16-9.29l-3.02-3.84-1.81-.56c-.48-.15-.67-.68-.66-1.13l.05-3.49c.57.28.97.53 1.35.84l.16 1.5 3.6.09.03-5.14-1.6.03c-.27 0-.81-.46-.89-.72-.54-1.94-2.67-.38-2.65-1.96l.03-2.18-1.98-.38 1.56-4.3.19-.24c.84.45 4.86.01 5.9-.28a59 59 0 0 0 8.71-3.23l5.9-2.72c-2.01 2.95-3.25 5.82-3.86 9.26-.42 5.6.19 11.13 1.68 16.58.9 3.28 1.57 5.02 1.11 8.15l-1.52 10.21c-.31 2.07-.43 4.2-.49 6.18Z" fill="#2c3d63"/><path d="M54.63 126.94c.17.17.46.54.68.62-.11 1.28-1.83 1.85-1.99 3.79l-.2 2.43h-.46l-.46-.26c-1.18-1.63-.1-4.67 1.01-5.77l.79-.78.65-.02Z" fill="#33446a"/><path d="M45.2 133.1c.63.05 1.75-.1 2.22-.59.23-.24 0-1.08-.1-1.33.2.03.54.02.67.14.41.42-.04 2.99 1.09 3.45l-.88-3.43c.9-.24 2.07-.37 2.75-.06l.77 2.17c.17.02.4.02.46.05l.02.26c-.13 0-.46.02-.62.08-1.2.46-2.59.96-3.82 1.32-.51.15-1.25.08-1.74.41-.05-.33-.17-.68-.32-.97l.12.97c-.13.19-.55.44-.72.31l-1.07-.82c-.25-.2-.56-.86-.88-.91-.48-.78-1.02-2.22-1.06-3.02l.3-.96c.27-.4 1.82.07 1.93.61.23 1.18.34 2.47.97 3.43l-.09-1.13Zm-7.28-19.19c-.73 2.15.68 1.94-.54 3.95-.61 1-.73 2.2-.88 3.3-.99-1.21-1.54-2.72-1.99-4.36l2.28-.03.04-3.04 1.1.18Z" fill="#33446a"/><path d="M38.01 128.41c-.44 0-1.34-.33-1.46-.74-.35-1.2-.14-2.6.67-3.65.34.4.86 1.17.85 1.58l-.06 2.8Z" fill="#314267"/><path d="M47.32 131.18c.1.25.33 1.09.1 1.33-.46.49-1.59.63-2.22.59-.34-.68-.49-1.46-.45-2.28l2.57.35Zm-7.31-1.86-1.78-.57.2-3.07c1 1.35 1.91 1.56 1.58 3.64" fill="#29385e"/><path d="m33.68 112.77.12.7c.02.13.4.1.48.08l.05.81c.01.22-.07.59-.18.92-.46-.88-.75-1.75-.87-2.51h.41Z" fill="#2e3c62"/><path d="M34.34 94.53c-1.5.44-1.28 2.33-.88 3.48.11.32.41.68.67.9l.19.45v3.47l-.65.06-1.18-.91c-.35-.27-.48-1.23-.43-1.71l.48-4.68.09-1.31.62-2.66c.04-.19.24-.47.37-.58s.75.04.75.2l-.02 3.29Z" fill="#f3f3f3"/><path d="m32.49 101.98 1.18.91.54 1.04c.17.34.15 1.09.14 1.6-.04 2.12.51 4.05-.2 3.45l-.81-2.82c-.15-.11-.92-.34-.97-.55-.11-.45-.9-4.01.12-3.65Z" fill="#29385e"/><path d="m34.76 94.53-.03 2.35-.71-.53c-.21.03-.35.83-.37 1.25-.04.09-.19.4-.19.4-.4-1.15-.62-3.04.88-3.48h.42Z" fill="#1d1e29"/><path d="M39.31 92.34c.05.21.47.65.72.66l1.34.04-.02 4.13-2.56-.04-.47-1.03c-.25-.55-1.08-1.28-1.53-1.61l-.02-2.46c0-.1-.03-.41-.11-.41h-.33l-.03-.42c2.6.12 1.46-.14 3.02 1.12Z" fill="#eaeaeb"/><path d="m38.11 96.1.22.02.47 1.03 2.56.04.02-4.13-1.34-.04c-.25 0-.68-.45-.72-.66l.1-.49c.07.26.62.73.89.72l1.6-.03-.03 5.14-3.6-.09-.16-1.5Z" fill="#28272f"/><path d="m39.68 82.15-.04.22c-.86-.92-.8-2.94-.22-3.75v2.27c0 .33.16.95.26 1.26" fill="#272834"/><path d="M48.07 79.78c.22.83-.66.64-3.13 1.62-1.54.61-1.54-2.6-1.55-3.62l1.08-.9c.88-.1 1.83-.41 2.64-.88.04 1.13.07 3.21.97 3.78Zm9.05-4.42c.06.21.05.71-.04.97l-4.42 1.83c-.44-.51-1.33-3.94-.64-4.36 1.25-.76 2.57-1.45 3.88-2.1l.68 3.01c.04.19.4.51.55.65Z" fill="#2e4066"/><path d="m90.13 54.4.22.19 1.04 1.65c.19.3.42.88.53 1.2.23.72.33 1.74.16 2.56l-4.49 2.38c-.13-.98-.61-3.48-1.19-3.61l-.22-.44c-.79-1.58-.9-.85-.91-1.74 1.1-.72 2.15-1.61 3.31-2.23.51-.27 1.11-.31 1.55.05Zm11.97 5.74c-.07.33-.66.5-1.04.44-.74-.13-1.91-1.67-1.17-2.64z" fill="#33446a"/><path d="M101.76 71.98c-.13.68-2.61.62-2.57.36l.1-.56 2.46.21Zm8.83 13.56-1.55.53c-.17.06-.73-.42-.61-.54.51-.48 1.81-.92 2.16 0Zm-2.93 2.36c-.41.72-.61.23-1.7.11l.44-1.44 1.26 1.32Zm-3.81 7.13c.09 0 .32.23.24.27l-.36.18-.67.59c-.16.14-.65-.24-.75-.43s0-.74.2-.72l1.33.12Zm-1.68-13.66c-.11.02-.27-.52-.19-.43 1.85-.02 1.78-1.39 2.1.12zm10.69 27.51c-.32.19-1.07.18-1.55.01.38-.32.85-.58 1.14-.58h.43c.1 0 .06.52-.02.57m-.55-16.62c-.49.27-1.08.44-1.68.25.35-.52.99-.51 1.68-.25m-10.24-7.68h.88v.82h-.88zm-1.146-7.884.337-.421.96.77-.338.42zm8.146 10.844c-.22.39-.24.44-.31.53s-.55-.03-.53-.15c.03-.15.05-.43.17-.42l.68.04Zm-4.395 2.159.852-.631.291.394-.852.63zm2.645-.999c0-.08.31.06.38.12s.09.25.02.32-.38.21-.38.11z" fill="#2e4066"/><circle cx="108.6" cy="96.63" r=".37" fill="#2e4066"/><path d="m99.2 57.01-.65-.21c-.19-.06-.24-.45-.26-.67.31.2.67.56.9.88Z" fill="#33446a"/><path d="M107.8 96.66c-.1.18-.26.55-.33.51l-.29-.19.2-.37c.05-.1.47-.04.42.05m7.49-11.39c.07.22-.86.23-.87 0-.02-.32.76-.33.87 0m-10.856.265.548-.218.26.65-.549.219zM99.81 82.45c.07-.09.61.13.53.21l-.42.38c-.11.1-.21-.45-.11-.59m-.5 7.36c-.2.36-.74.32-.77.04-.01-.17.4-.16.77-.04m4.98-4.91c-.11.81-.37.81-.47 0zm3.4-1.71c-.2.35-.73.37-.77.02-.01-.14.4-.13.77-.02m-1.32-.87c-.21.33-.74.32-.77.03-.01-.17.39-.16.77-.03" fill="#2e4066"/><circle cx="109.13" cy="94.5" r=".25" fill="#2e4066"/><circle cx="100.53" cy="68.91" r=".25" fill="#2e4066"/><path d="M94.35 51.66c.04.08.16.21.22.27l.45.43.88 1.54c.65 2.32.36 1.76.06 2.42-.66-1.25-2.22-2.32-2.69-3.82l-1.06-.75c.09-.26.68-.9.99-.78.4.16.88.46 1.16.68Z" fill="#344872"/><path d="m97 55.7.14.22c-3.24 4.07-8.31 6.39-13.13 8.36l-4.89 2-5.32 2.43-.02-.24 3.68-1.8c-.15-1.06-.35-2.16-.77-3.05v-.22c.81.72.81 1.93 1.02 3.12l4.45-1.81.53-.26 4.51-1.91c.34-1.46-.77-2.77-.8-3.78.59.14 1.07 2.63 1.19 3.61l4.49-2.38c.16-.82.07-1.85-.16-2.56h.22l.41 2.29 2.82-2.4c.23-.2.45-.75.57-1 .31-.66.59-.1-.06-2.42h.22c.39.84.08 2.29.89 1.78Z" fill="#1d1e29"/><path d="M96.11 53.91h-.22l-.88-1.54c.38.37.88 1.05 1.1 1.54" fill="#272834"/><path d="m95.01 52.37-.45-.43z" fill="#29385e"/><path d="m78.23 126.27.15 1.4c.02.15.24.5.3.55l-1.02 3.01c-.19.57-.53.99-1.02 1.22-.12-.13-.46-.59-.51-.82l-.6-2.69c-.33-1.5 1.11-2.92 2.11-3.07.19-.03.6.37.57.4Z" fill="#314267"/><path d="M81.8 123.2c-.64.57-1.29 1.45-1.83 2.14-.53-.43-1.46.16-1.58.65l-.15.29s-.39-.43-.57-.4c-1.01.14-2.44 1.57-2.11 3.07l.6 2.69c.05.23.39.7.51.82-.31.17-.64.33-.87.41l-.19-1.46-.38-2.53-1.38 2.48c-.08.15-.34.35-.45.41.08-.41.23-.89.44-1.35l2.7-5.85c1.13-2.45 4.89-14.9 5.37-17.83s.54-5.82.69-8.77l.24-4.59c.09-1.73.05-3.47 0-5.2-.01-.45-.35-.9.11-1.3.17.7.37 1.47.37 2.1v5.99l.4-.43c1.04-1.12-.57 1.19-.59 1.58l-.49 8.76c-.14 2.44-.75 4.65-1.45 6.95l-2.9 9.5c-.5 1.63-1.15 3.03-1.84 4.8l3.55-1.6 1.81-1.3Z" fill="#1d1e29"/><path d="m111.78 122.36-.23-.02c-.51-.47.1-1.72-.45-2.43.1-.52.09-1.12-.04-1.62l.03-.4c.32.5.48 1.24.52 1.97l.17 2.51Z" fill="#272834"/><path d="m72.49 132.68.13 1.17c-.14-.83-1.85-1.43-2.19-.78-.08 1.85-.43 3.73-1.66 5.1.63-1.79 1.45-3.4 1.31-5.51l-2.57-.52c.07 2.1-.6 4-1.69 5.51-.12.16-.16.8 0 .85.38.12 1.23.29 1.62.32v.44c-2.24-.57-2.03-.39-4.41-1.1v-.22c.45.18 1.41.26 2.02.26.79 0 2.37-5.1 2.15-6.17l-3.28-1.18c-.19-.07-.68.36-.65.47l-.14-.29c-.02-.16-.3-.6-.51-.67l-3.31-1.13-.17.02s-.36-.4-.51-.45l-2.64-1-.67-.26c-.21-.08-.51-.45-.68-.62v-.22c4.34 1.82 8.7 3.61 13.26 5.07 1.57.5 3.09.83 4.59.89Z" fill="#28272f"/><path d="M68.76 138.19c-.06.16-.26.42-.42.47-.25.08-.71.21-.9.19-.39-.03-1.24-.2-1.62-.32-.17-.05-.13-.69 0-.85 1.09-1.51 1.77-3.41 1.69-5.51l2.57.52c.14 2.11-.67 3.72-1.31 5.51Z" fill="#29385e"/><path d="M46.03 135.58h-.2l-.12-.97c.16.29.27.64.32.97" fill="#272834"/><path d="M83.99 94.18c1.77-2.61 2.89-5.41 2.94-8.74.78 1.96-.86 7.41-2.94 8.74" fill="#1d1e29"/><path d="m97.18 76.77-.16.91-1.38-.67zm12.28 32.45c-.2.36-.74.38-.77.02 0-.14.39-.13.77-.02" fill="#314267"/><path d="M73.39 131.75c-.05.28-.21.58-.45.71l.04-.52c0-.12.3-.13.42-.18Z" fill="#28272f"/><path d="m111.08 117.67-.22-.66c.14.07.23.43.22.66m-.24-.88-.19-.67c.07.19.14.45.19.67" fill="#272834"/><path d="M111.06 118.29c.13.5.14 1.1.04 1.62l-.64-.58c-.19-.17-.87-.13-1.12.02l-2.08 1.28-.51-3.02c.36.1 2.2-1.47 3.07-.24.38.54.7.9 1.24.91Z" fill="#2e4066"/><path d="m34.73 96.88.03 1.6c-.15-.09-.36-.25-.41-.13l-.22.55c-.26-.22-.56-.58-.67-.9 0 0 .15-.31.19-.4.02-.42.16-1.21.37-1.25z" fill="#3f4146"/><path d="M34.77 98.48c0 .22-.09.65-.1.87h-.34l-.19-.45.22-.55c.05-.13.26.04.41.13" fill="#28272f"/><path d="M55.98 127.83c-1.06.21-1.96 2.73-2.44 3.52h-.22c.16-1.94 1.88-2.5 1.99-3.79l.67.26Z" fill="#29385e"/><path d="m86.19 58.32.22.44c.03 1 1.14 2.31.8 3.78l-4.51 1.91c-.06-1.25-.34-2.64-1.11-3.72-.33-.47-.76-1.04-.69-1.52.38-.07 1.11-.32 1.32-.66.69-.04 2.34-1.78 2.93-1.22l1.04 1Z" fill="#2e4066"/><path d="M95.95 56.33c-.12.25-.34.81-.57 1l-2.82 2.4-.41-2.29c-.17-.93-1.13-2.31-1.79-2.86l-.22-.19-.24-.62c-.06-.15.33-.42.47-.56l1.13-1.07.7-.4 1.06.75c.47 1.5 2.03 2.56 2.69 3.82Z" fill="#2e3c62"/><path d="M92.14 57.44h-.22c-.1-.33-.34-.9-.53-1.2l-1.04-1.65c.66.54 1.62 1.92 1.79 2.86Z" fill="#272834"/><path d="M76.7 63.4v.22c-.22-.46-.6-.99-.9-1.42l.18-.14c.23.37.56.98.72 1.34" fill="#28272f"/><path d="m82.17 64.71-4.45 1.81c-.2-1.19-.2-2.41-1.02-3.12-.16-.36-.49-.96-.72-1.34.12-.23.42-.51.67-.64l3.86-1.9c1.04 1.42 1.98 3.61 1.66 5.19" fill="#33446a"/><path d="m63.11 131.06-.71 2.76c-.09.35-.21.8-.26 1.06-.02.1-.02.3-.02.41-.71-.17-.68 1.95-1.44 1.77l-1.82-.43c-.02-.62-1.78-.54-1.52-1.74.44-2.08 1.14-3.85 1.97-5.63l3.31 1.13c.21.07.49.51.51.67Z" fill="#29385e"/><path d="m63.02 137.96-1.82-.74.92-1.94c0-.11 0-.31.02-.41.55-1.08.9-2.32 1.12-3.53-.02-.1.46-.54.65-.47l3.28 1.18c.22 1.07-1.37 6.17-2.15 6.17-.61 0-1.57-.08-2.02-.26" fill="#2e3c62"/><path d="m55.98 127.83 2.64 1c.15.06.49.42.51.45l-1.19 2.09c-2.57-.15-1.89.35-3.04 1.11-.62.41-.94.86-.95 1.53-.17-.1-.51-.41-.5-.64l.08-2.01c.48-.79 1.38-3.31 2.44-3.52Z" fill="#2e4066"/><path d="M63.26 131.35c-.22 1.21-.57 2.45-1.12 3.53.05-.26.17-.72.26-1.06l.71-2.76.14.29Z" fill="#272834"/><path d="M57.94 131.36c-.28.49-.49 1.57-.59 2.16l-.32 2.06-1.48-.71c-.45-.22-1.23-.66-1.6-.89.02-.67.33-1.12.95-1.53 1.15-.76.46-1.25 3.04-1.11Z" fill="#29385e"/><path d="M97.91 56.11c-.08 1.79 1.42 2.62.85 4.37-.08.26-.25.59-.13.69l.55.44-.45.91c1.73.99 2.75-1.28 3.27-.14l-.76.2c.09.36.16.93.12 1.32l-.07.64c-.01.13.36.12.68.16l.24.38-2.87.49c-.68.12-1.26.2-1.95.17l-.65-.03c-.13 0-.16.47-.13.52.38.07 1.2.19 1.42.56.19.33-.21.85-.6 1.38l2.14.64-.51.69c-.14.18.44.63.33.83-.15.27-.49.66-.72.9l-.54 1.05-2.13.59 1.94.55c.62.18 1.15.17 1.8.59-.76.19-1.37.32-2.01.34l-1.95.06c-.49.01-2.67-.56-2.52.02 2 1.96 2.33.75 3.66 1.19 2.61.85 1.87 0 2.81.58.1.06.14.39.03.43-1.26.45-.26-.15-2.02.33-.12.03-.04.56.07.62.14.08.32.08.68.04 1.22-.15.99.85 1.63 1.08.18.07.59 0 .91-.02.22-.01.13.63-.02.8-.91 1.03-1.94-1.04-2.91.78l1.16.16c.57.08 1.06.26 1.67.75-1.6.55-3.97.11-4.7.52-.15.08.03.6.21.63l2.42.38c1.22.19-1.18.76-1.91 1.14l-.52.27c-.11.05-.02.4.02.52.05.15.44.01.7.03l3.07.17c.2.01.71.48.58.58-.95.74-1.18-.1-2.07.54l-.3 1.15c-.03.12-.52.11-.57.23-.07.16-.2.52-.24.74l-.29 1.64c-.07.37-1.07.4-1.49.25l.82-1.05c-1.23-.38-1.35 1.57-1.59 1.55l-.72-.05c-.13 0-.52.14-.45.25s.32.32.45.33l.8.06c.2.02.13.45.15.97l.37-.08c.16-.47.71-.85.91-.62l.94 1.1-.43.44-2.31.02c-.8 0-1.52.24-1.43 1.29l1.4-.39c1.49-.42-.58 2.48.43 2.23l1.47-.36c.11-.02.22-.03.17-.08-.08-.08-.35-.33-.45-.37l-.58-.24c-.16-.07 0-.69.16-.63.45.17 1.37.21 1.74-.33l1.06.51c.2-.09.65-.49.81-.37.2.14.53.56.63.73l-1.72.43-1.3-.04 1.16.85.16.59c.03.11.51 0 .49-.11l-.09-.56c-.02-.14.32-.45.44-.38l.64.4c.15.09-.15.47-.3.82l.98-.02c.15.02.54.37.68.29l.76-.43c.79-.45.67.98 2.81-.46 0 2.3-3.03 1.04-2.47 1.93.2.32.3.96.27 1.37l.8.07c.19.02.06-.76.22-.86.97-.59 5.55-1.25 5.15.15-.2.69-.35 1.08-.61 1.84l1.92.1 4.01.39c-.46.68-1.2.28-1.7.45-.82.28-1.64.34-2.53.24-.7-.08-3.03.15-2.38.65.79.61 1.05.03 3.65 1.29.48.23 1.21-.38 1.53.48l-2.27.08-1.88.16c-.12-.06.24.42.49.69.08-.04-.18.33-.3.38l-1.73.66 1.49 1.66c.35.39 1.46.41 2.13.49l-.16 1.11 1.64.15 2 .15c.7.05 1.37.11 1.64-.73l-1.82-.18c-.44-.04-.8-.99 2.91-.34.81.14 1.49.41 2.16-.11l-.38-.92c.84-1.72-.38-.21.8-3.16l1.9-.09.26-.96c.06-.24.91-.22.94.02.08.59-.04 1.84.13 2.49.16.6 1.14.97 1.61 1.21l.14 1.08c-.28.34-.68.89-1.12 1.21a29.8 29.8 0 0 1-7.95 4.17c-1.91.66-3.77 1.3-5.77 1.77-5.67 1.34-11.22 2.41-17 3.29-1.04.16-6.35.74-6.41 1.74-.05.02-.18-.02-.22.02l-.22.19-.22.02-.22.2c-.06 0-.17 0-.22.02-.2.09-.5.27-.68.41-.84.66-1.82 1.28-2.61 1.99l-1.81 1.3-3.55 1.6c.69-1.76 1.34-3.17 1.84-4.8l2.9-9.5c.7-2.29 1.31-4.5 1.45-6.95l.49-8.76c.02-.38 1.63-2.69.59-1.58l-.4.43v-5.99c0-.63-.19-1.39-.37-2.1-.45.4-.12.85-.11 1.3.05 1.73.09 3.47 0 5.2l-.24 4.59c-.15 2.95-.21 5.84-.69 8.77s-4.24 15.38-5.37 17.83l-2.7 5.85c-.21.46-.36.94-.44 1.35-.11.05-.41.06-.42.18l-.04.52-.45.23c-1.5-.06-3.02-.39-4.59-.89-4.57-1.46-8.93-3.25-13.26-5.07-.1-1.14-.07-3.35.12-4.66l2.02-14.05-1.92-7.61c-.9-3.57-1.94-10.82-1.32-14.27.8-4.39 2.57-8.51 5.84-11.59.39-.37.97-.86 1.22-1.22.63-.42 3.04-1.68 3.92-2.07 3.52-1.57 7.3-1.6 11.08-1.05-.1-.16-.53-.44-.76-.47l-2.53-.26c.63-.33 1.06-.57 1.5-.77l5.32-2.43 4.89-2c4.81-1.97 9.88-4.28 13.13-8.36l.51-.24.25.43Zm-.73 20.66-1.54.24 1.38.67zM83.99 94.18c2.07-1.34 3.71-6.79 2.94-8.74-.04 3.33-1.16 6.14-2.94 8.74m25.47 15.04c-.38-.11-.78-.12-.77.02.02.36.57.34.77-.02" fill="#2e4066"/><path fill="#ede2d3" d="M26.37 34.48c.07.26.59.56.89.69l1.55.68c1.59 1.23 3.21 2.42 4.65 3.94.33.35.72.81 1.08.92 1.44 1.88 2.71 3.33 4.53 4.83l1 .82c-.14 3.26-1.14 4.52-1.32 8.2-.02.48 0 1.05 0 1.54 0 .24-.03.66 0 .88.46 3.24 1.26 5.89 4.32 7.79 1.5.93 3.11 1.3 4.73 1.61 1.25.24 2.44-.2 3.79-.03l5.68.72c.54.07 1.4.26 2 .23 1.19-.07 4.84-.61 5.5-.9l.03.32c-.21.09-.52.41-.69.57l-1.56.67c-.2.09-.52.32-.63.43-.56.12-1.33.57-1.76.89-.22.12-.65.35-.88.44-.75.31-2.15 1-2.87 1.54-1.88.85-3.79 1.74-5.5 2.88-.7.18-1.89.73-2.44 1.11l-3 1.02c-.33.11-.78.38-1.01.57-.54.06-1.16.28-1.7.43l-3.12.85c-.06 0-.17.01-.22 0l-2.43-.37c-.5-.32-1.05-.61-1.59-.72l-.69-1.47-.54-1.16-.04-1.55-.18-.46-.05-.47.66.06c.41.04.92.19 1.42.33 3.58 1.06 5.86-.32 9.39-.79l2.62-.35c-1.03-.68-1.84.08-2.62.13-1.05.06-2.19.19-3.31.53-2.47.74-4.98.69-7.28-.33s-4.22-3.02-5.04-5.58c-1.31-4.1-.98-4.65-3.14-8.49.58-.12 2.08 1.81 2.91 1.93a38 38 0 0 0-3.36-2.86c-.27-.2-.61-.6-.85-.87-.04-.11-.06-.38-.18-.41l-.48-.1c-.33-1.54-1.28-2.44-1.8-5.44-.1-.57.21-1.27-.3-1.71-.57 2.54 1.07 4.9 1.63 6.8h-.31c-.27-.33-.67-.75-1.09-1.04-2.06-1.42-3.35-3.5-3.56-6.07-.33-3.9 1.01-6.72-2.21-9.35-1.08-.89-1.68-2.23-1.51-3.65s1.28-2.48 2.76-2.5c.83-.01 1.8.18 2.6.44l5.5 1.82Zm-4.16 4.49-2.81-.67c-.22-.05-.64.04-.82.19l3.53.9c.1.03.35.14.43.18s.18-.27.12-.33-.32-.23-.45-.27m1.13.82c0-.14-.11-.25-.25-.25s-.25.11-.25.25.11.25.25.25.25-.11.25-.25m.37.17-.22.21 1.65 1.67.22-.21zm2.78 3.49-.72-1.24c-.05-.09-.3-.18-.38-.23s0 .28.05.36l.59 1.1h.46Zm5.2-1.12c0-.06-.05-.11-.11-.11s-.11.05-.11.11.05.11.11.11.11-.05.11-.11m.53.87c-.47-.84-.56-.58-.29-.05.34.06.54.1.29.05m.31.26-.2.17.97 1.11.2-.17zm-5.57.69-.55-.36.08.66c.01.1.31-.15.47-.3m6.66.61-.22.21 2.34 2.38.22-.21zm3.8 3.54-1.28-1.02c.24.62.73.95 1.28 1.02M26.3 50.4c.07-.6-.02-.79-.31-.89 0 .39.11.7.31.89m3.96 7.72c-1.2-2.42-2.4-4.32-3.18-6.65-.2-.35-.38-.59-.74-.91.3 1.08.65 1.86 1.11 2.78.86 1.72 1.61 3.47 2.8 4.79Zm3.25 3.45-3.13-3.32c.73 1.43 1.84 2.59 3.13 3.32m.79.72c-.11-.47-.33-.63-.77-.58zm.32-.06-.16.27 1.34.79.16-.27z"/><path d="m36.31 22.59.39.43v.23l-.27.22c-.07.05.08.32.15.39l.82.87c0 .09.01.23 0 .31l-.23 1.78c-.97.82-2.27 1.21-3.5.87-.45-1.74.33-1.62-.25-2.71-.12-.23-.81-.54-1.01-.36-.69.59-1.45 2.35-.55 3.06l-1.73.37c.1-.15.27-.46.37-.72l1.34-3.4c.05-.14 0-.55-.03-.68s-.54.16-.62.31l-1.53 3.03c-.08.15-.31.41-.38.44-.55-.61-.7-1.46-.76-2.4-2.72.21-6.03 2.4-6.58 5.01-.22.23-.34.6-.43.92-.06.25-.41.62-.61.79h-.18l.14-1.02c.83-.6.4-1.69 1.81-3.26s3.18-2.53 5.27-2.88c.66-.11 1.21-.56 1.57-1.08 1.29-1.88 3.51-2.28 5.41-1.04.41.27.94.47 1.36.53Z" fill="#3f4146"/><path d="M17.99 30.74c-.12.09-.18 1.05.08 1.1l2.3.42.38-.94h.18l-.18.94c.48.42 1.42.72 1.89.25h.27l.62.32c.05.03.14 0 .23-.02.07.28.4.67.66.78.41.17.95.02 1.11-.35l.23-.03.86.15v.26c-.12.19-.28.64-.22.86l-5.5-1.82c-.8-.26-1.77-.46-2.6-.44-1.48.02-2.59 1.09-2.76 2.5s.42 2.77 1.51 3.65c3.22 2.63 1.88 5.45 2.21 9.35.22 2.57 1.5 4.65 3.56 6.07.42.29.82.71 1.09 1.05l-.29.18c-.86-.76-2.05-1.3-2.88-2.26-1.42-1.63-2.15-3.71-2.11-5.91l.06-3.75c.07-4.58-4.74-4.45-3.6-8.99.57-2.28 2.86-1.89 2.62-3.18l.32-.19Zm7.55 2.96c-.14.04.19.46.31.38.08-.05.25-.14.34-.18s-.1-.37-.2-.34z" fill="#575455"/><path d="M24.18 54.83c.1.12.32.31.47.34.06.27.37.49.66.51.24.26.58.66.85.87.13.3.29.66.45.93 2.16 3.84 1.83 4.39 3.14 8.49.82 2.56 2.67 4.53 5.04 5.58l-.22.48-.66-.06c-.08-.09-.39-.45-.55-.54-2.16-1.23-3.65-3.31-4.33-5.72l-1.17-4.14c-.73-2.59-2.31-4.79-4.27-6.52l.29-.18h.31Z" fill="#3f4146"/><path d="m20.24 28.14.04.58c0 .14.1.4.16.53l.46 1.07-.14 1.01-.38.94-2.3-.42c-.26-.05-.2-1.01-.08-1.1v-.39c.2-.23.42-.68.48-.97.01-.05 0-.13 0-.19.2-.14.37-.41.44-.66.13-.15.33-.44.43-.61l.53-.17c.13-.04.3.31.36.39Z" fill="#f3f3f3"/><path d="M41.42 16.82c-.52 1.45-1.94.41-4.16 2.51-.42.4-.41 1.26-.04 1.65l1.95 2.09v.18l-2.16-.2c.06-.34-.32-.81-.67-.89-.25-.61-.39-1.63-.08-2.28 1.33-2.79 4.01-2.15 4.96-3.24l.19.18Z" fill="#3f4146"/><path d="m37.02 23.06-.31-.03-.39-.43.03-.43c.35.09.73.56.67.89" fill="#c2c7cd"/><path d="M20.43 29.25c-.05-.13-.15-.39-.16-.53l.41.16c.11.04-.24.4-.26.37Zm53.13 29.5c-.02.09-.11.27-.14.36-.02.06.05.08.15.12-1.84 1.81-3.08 3.38-5.04 5.22l-1.21.63c-.86.45-1.74.99-2.55 1.34-.66.29-4.32.83-5.5.9-.59.03-1.46-.16-2-.23v-.23c4.93.35 8.62-.7 12.43-4.07 2.36-2.09 3.93-4.59 4.85-7.62.32 1.15-.78 2.71-.99 3.58" fill="#7c7c7c"/><path d="M57.27 66.87v.23l-5.68-.72c-1.34-.17-2.53.27-3.79.03v-.31c1.49.33 3.2-.08 4.65-.6l3.92-1.4 4.07-1.59c-1.7 1.67-5.44 2.09-7.87 3.45 1.44.56 3.63.48 4.7.91" fill="#868586"/><path d="M39.2 57c0 2.73 1.22 5.41 3.61 7.01 1.53 1.03 3.27 1.7 5 2.09v.31c-1.62-.31-3.23-.68-4.73-1.61-3.06-1.9-3.86-4.56-4.32-7.79h.44Zm6.17 14.34v.22c-3.53.47-5.81 1.85-9.39.79-.5-.15-1.01-.29-1.42-.33l.22-.48c2.3 1.02 4.8 1.07 7.28.33 1.12-.34 2.26-.46 3.31-.53" fill="#7c7c7c"/><path d="M30.37 35.78c-.05.2-.16.78 0 .94.23.21 2.41 2.11 2.64 1.77.1.49.59 1.05.92 1.29l.57-.61c.01.47.24 1.03.6 1.33.32.26 1.22.14 1.5-.27.24-.34.29-1.33.09-1.74-.17-.34-1.31-.14-1.67-.03.07-.06.13-.25.2-.43l-1.51-.51-.71.96.44-1.79.23.03c0 1.18 3.1.61 4.91 2.97 1.49 1.95 2.01 4.35 1.9 6.67h-.41l-1-.84h.19c.16.11.49.25.92.45l-.23-2.64c-.02-.22-.46-.7-.53-.72.19-.62-.16-1.74-.73-2.14-.28-.19-.97.22-1.14.49s-.27 1.07-.08 1.35c.44.63 1.4.64 1.95.3-.26.35-1.2.61-1.68.38-1.08-.52-.06-2.23-.76-2.57.35-.13 1.35.26 1.29-.45-.04-.42-.63-.96-1.15-1.36-.09.62-.16 1.34-.14 1.82-.54.2-1.31.49-1.9.45l-.54-.18c-.36-.12-.75-.57-1.08-.92-1.44-1.51-3.07-2.71-4.65-3.94l.5-.03.38.41c.07.08.43 0 .43-.11v-.51c.07.04.2.13.25.16Z" fill="#575455"/><path d="M40.49 46.38c-.02.49-.03 1.08-.15 1.61l-1.03 4.39c-.16.7-.11 1.55-.11 2.19h-.44c.18-3.69 1.18-4.94 1.32-8.2h.41ZM30.26 58.12c-1.19-1.32-1.94-3.07-2.8-4.79-.46-.91-.81-1.7-1.11-2.78.36.32.54.57.74.91.78 2.33 1.98 4.23 3.18 6.65Z" fill="#868586"/><path d="M29.96 28.23c-.37.73-.84 1.76-1.06 2.51 1.87 1.44-.4 4.31 1.4 4.64.32.06.7-.26 1.03-.68.48-.62 1.86-1.48 2.61-1.53l-.03 1.98c-.01.61-.06 1.19-.22 1.58l-.23-.03c.2-.8.25-2.19.16-2.93-.03-.22-.79-.02-.98.13l-2.27 1.88s-.17-.12-.24-.16l-.57-.33c-.14-.08-.26.44-.25.54l-.5.03-1.55-.68c-.31-.13-.82-.43-.89-.69 2.55.84.32.17 2.85 1.22l.12-4.11c0-.32-.96-.17-1.13.07l.7-1.97c.2-.55.52-1.1.89-1.47h.15Z" fill="#7c7c7c"/><path d="M24.65 55.17c-.15-.03-.37-.22-.47-.34-.56-1.9-2.2-4.27-1.63-6.8.51.44.2 1.14.3 1.71.52 2.99 1.47 3.9 1.8 5.44Z" fill="#868586"/><path d="m48.47 75.29-.83.58c-.1.61-.13 1.79.03 2.41l.39 1.5c-.9-.57-.93-2.66-.97-3.78-.81.47-1.75.79-2.64.88.22-.19.68-.46 1.01-.57l3-1.02Z" fill="#272834"/><path d="m68.54 64.46.24.1c-.26.23-.65.57-.92.76-.21.14-.65.33-.89.44l-2.17.99-.03-.32c.81-.35 1.69-.9 2.55-1.34l1.21-.63Z" fill="#c2c7cd"/><path d="M22.21 38.97c.13.03.39.2.45.27s-.03.37-.12.33-.33-.15-.43-.18l-3.53-.9c.18-.15.6-.25.82-.19zm11.3 22.6c-1.29-.73-2.39-1.88-3.13-3.32z" fill="#868586"/><path d="m33.406 44.972.214-.21 2.345 2.377-.213.21z" fill="#989390"/><path d="M56.4 71.29c-.26.56-.15 1.27.08 2l.64 2.06c-.14-.14-.5-.45-.55-.65l-.68-3.01c-1.31.65-2.63 1.34-3.88 2.1-.69.42.2 3.85.64 4.36-.05.02-.14.04-.2.06-1.14-1.59-.53-4.23-1.54-4.05 1.71-1.14 3.61-2.03 5.5-2.88Z" fill="#272834"/><path d="m23.491 40.182.214-.211 1.65 1.673-.213.21zM45.37 71.56v-.22c.78-.05 1.59-.81 2.62-.13z" fill="#868586"/><path d="M39.2 54.57v1.54h-.44c0-.49-.02-1.06 0-1.54z" fill="#7c7c7c"/><path d="m34.455 62.498.162-.276 1.337.784-.161.276z" fill="#868586"/><path d="m35.09 40.89 1.95 2.42c.62.77 1.47 1.63 2.23 2.22h-.19c-1.82-1.49-3.1-2.94-4.53-4.82z" fill="#3f4146"/><path d="M26.49 43.45h-.46l-.59-1.1c-.04-.08-.14-.41-.05-.36s.33.14.38.23l.72 1.24ZM39.2 56.12V57h-.44c-.03-.22 0-.65 0-.88z" fill="#868586"/><path d="M26.61 57.48c-.15-.27-.32-.64-.45-.93 1.15.88 2.24 1.79 3.36 2.86-.83-.11-2.33-2.05-2.91-1.93" fill="#7c7c7c"/><path d="m34.3 62.29-.77-.58c.43-.05.65.11.77.58" fill="#868586"/><path d="m32.326 43.631.196-.17.966 1.108-.196.17z" fill="#989390"/><path d="M26.3 50.4c-.2-.19-.32-.5-.31-.89.29.1.38.29.31.89" fill="#868586"/><path d="M25.32 55.68c-.29-.02-.61-.24-.66-.51l.48.1c.12.02.14.3.18.41" fill="#575455"/><path d="M26.96 44.15c-.17.15-.46.39-.47.3l-.08-.66z" fill="#868586"/><path d="M32.22 43.2c.25.05.05 0-.29-.05-.27-.52-.18-.78.29.05m5.2 5.1c-.55-.07-1.04-.39-1.28-1.02z" fill="#989390"/><circle cx="23.09" cy="39.79" r=".25" fill="#868586"/><path d="M39.42 78.62v-.46h.22c-.05.13-.14.36-.22.47Z" fill="#1d1e29"/><circle cx="31.59" cy="42.33" r=".11" fill="#989390"/><path d="M49.57 15.75c.36.3.87.64 1.36.84l2.31.95c1.53.63 3.02 1.22 4.55 1.51.95.25 1.92.47 3.01.68 3.03.59 2.45-.24 5.63.23.25.04.68-.18.8-.41h.2l1.17-.68c.71.45 1.36.95 1.92 1.57l-1.39.88c.44 0 .73-.16 1.14-.33l2.46-1.05h.66l-.07 1.96c-.59-.17-1.96-.8-2.35-.29l-1.03 1.33.62.14c.13.03.26.33.2.45l-.32.65 1.28.37-.66.61c1.11 1.39-.54 1.3 2.29 2.77 0 1 .25 2.05.44 3 .26 1.28.53 2.47 1.36 3.63.7.96 1.58 2 2.92 2.07 2.38.12 4.51-5.03 5.43-6.77.14-.09.44.06.78.23 1.04.53 3.17 1.37 4.28 1.69 1.02.29.87 3.74.74 4.43-.34 1.75-2.09 6.92-3.6 7.72-.13.07.33.26.49.05 1.35-1.74 3.11-5.09 3.3-7.75 1.76 1.22 3.05 3.28 3.25 5.58.06.73-.03 1.96-.02 2.59-.12.17-.31.55-.38.82l-.71 2.59c.86-.32.59-2.17 1.39-2.48.62.77 1.45 2.61.83 3.71-.65 1.18-1.6 2.2-2.64 3.08l-2.64 2.22c-1.17.62-2.21 1.51-3.31 2.23-.96.63-2.06 1.16-3.06 1.74-.42.24-.98.58-1.32.88-.11.02-.36.11-.5.17l-6.36 2.91c-.77.35-1.51.7-2.18 1.05-.05.01-.17 0-.22.02l-.66.31c-.72.34-1.44.67-2.19.89l-.24-.1c1.96-1.84 3.19-3.41 5.04-5.22.84-.53 1.69-1.12 2.3-1.97l-2.32 1.48c.21-.87 1.31-2.43.99-3.58-.92 3.04-2.49 5.54-4.85 7.62-3.8 3.37-7.5 4.42-12.43 4.07-1.07-.43-3.26-.35-4.7-.91 2.43-1.36 6.17-1.78 7.87-3.45l-4.07 1.59-3.92 1.4c-1.44.52-3.16.93-4.64.6-1.73-.39-3.48-1.06-5-2.09-2.39-1.61-3.61-4.28-3.61-7.01v-2.43c0-.64-.06-1.5.11-2.19l1.03-4.39c.13-.53.13-1.12.15-1.61.11-2.32-.41-4.72-1.9-6.67-1.81-2.36-4.91-1.79-4.91-2.97.17-.4.21-.98.22-1.58l.03-1.98.72-.05c.19-.01-.06-.78-.3-.7-.22.07-.41.54-.41.75-.76.05-2.13.91-2.61 1.53-.33.42-.71.74-1.03.68-1.8-.33.46-3.2-1.4-4.64.23-.75.7-1.78 1.06-2.51.05-.05.15-.13.19-.18l1.73-.37h1.81c1.23.34 2.53-.05 3.5-.86l1.4 1.29c1.07.98.97 2.15 2.12 2.25.94 2.29 1.6 4.61 1.86 7.33-.1.56.3.35.46-.02-.36-2.38-1.21-6.38-2.25-8.06.26-.39.41-.71.68-1.31-.49-.4-2.36-3.22-2.88-2.38l-.25-.02-.24-.2-.42-.95c1.84.11 4.34 2.64 5.05 1.36.19.13.49.46.52.69l.06.42c.02.11.25.17.35.21.22.46.65 1.08.85 1.57l1.06 2.71c.89 2.27.87 4.58.76 6.99a79 79 0 0 0-.05 4.84c-.04-2.23.37 5.81.54 3.7.35-1.44-.09-1.54-.09-3.7v-6.46l1.05 1.46c-.48-1.41-.88-2.44-1.18-3.84.89.81 1.21 1.48 2.19 1.99l-1.27-1.46-.64-.71c.05-.05.14-.13.19-.19.03-.03 3.78 2.61 5.65.87l-1.44.12c-1.49.13-3.6-.72-4.54-1.73-1.15-1.66-.82-2.5-1.82-4.61.56-.23 1.56-.68 2.12-.39l1.6.83c.72.37 1.62.48 1.77 1.35l.38 2.19 1.89-1.16 1.7-1.11c.97-.63.36-1.61.18-2.49s-.53-2.33-.99-2.95c-.16-.22-.35-.99-.63-.88-1.56.65-3.46 1.93-4.18 1.1.17-.62.33-1.14.36-1.58.84-.19 1.8-.45 2.68-.43 1.36.02 2.63.28 4.1.54-.25-1.55-2.61-1.67-3.68-1.74-1.68-.11-3.34.17-5.02.36-2.59-3.18-4.78-.29-5.32-2.47l.4-.88c-.63.51-1.18.99-1.74 1.54-.41.4-.61 1.07-.7 1.73l-.08.61c-.02.15-.47-.05-.57-.07l-1.95-2.09c-.37-.39-.37-1.26.04-1.65 2.22-2.1 3.64-1.07 4.16-2.51.78-.48 1.55-1.09 2.16-1.76l.2-.04 2.26-1.12 2.15 1.23c.47.27.93.46 1.37.62Zm-3.76.77c0-.06-.05-.11-.11-.11s-.11.05-.11.11.05.11.11.11.11-.05.11-.11m-.44.22c0-.06-.05-.11-.11-.11s-.11.05-.11.11.05.11.11.11.11-.05.11-.11m-.41.33c0-.14-.11-.25-.25-.25s-.25.11-.25.25.11.25.25.25.25-.11.25-.25m-2.14 1.89 1.47-1.63c-.73.43-1.15.96-1.47 1.63m3.16-.09c1.58-.54 2.98-.81 4.64-1.13-.66-.93-6.26 1.27-7.1 1.63.89.21 1.6-.21 2.45-.5Zm-4.51 0c.31-.4.15-1.14-.58-1.12zm-6.68 10.75c0-.23-.19-.42-.42-.42s-.42.19-.42.42.19.42.42.42.42-.19.42-.42m-2.17 1.13a.38.38 0 1 0-.76 0 .38.38 0 0 0 .76 0m5.09.9c0-.23-.18-.41-.41-.41s-.41.18-.41.41.18.41.41.41.41-.18.41-.41m.53 3.18c0-.23-.18-.41-.41-.41s-.41.18-.41.41.18.41.41.41.41-.18.41-.41m22.2.73c.06-.1-.46-.09-.44.03l.06.5c0 .08.24-.28.38-.53m-.68.66-1.5 1.65.26.23 1.5-1.65zm-1.46 1.89-2.82.85c-2.52.11-4.48-.95-6.68-2.27 1.33 1.55 3.28 2.15 5.2 2.54 1.57.05 3.17-.02 4.29-1.12Zm-15.2 5.43c.68-1.8-1.63-5-2.76-5.31 1.36 1.23 2.42 2.69 2.39 4.61zm6.9-2.22c-.67-.96-1.34-1.8-2.14-2.68.52 1.09 1.25 1.94 2.14 2.68m13.72-2.06c-.25-.39-.49-.54-.33 0-.45 3.78-1.48 7.16-2.84 10.58-1.27 3.21-3.23 5.74-5.3 8.47 4.82-4.14 7.77-12.77 8.47-19.04Zm-11.76 3.66c-.63-.6-1.09-.95-1.68-1.33.38.7.98 1.28 1.68 1.33m26.77 10.25-.94 1.81.29.15.94-1.81zm-1.07 1.99-.74.93c.4.01.68-.27.74-.93m-1.59 1.98c.39-.25.63-.49.83-.8zM55 58.66c0-.08-.06-.14-.14-.14s-.14.06-.14.14.06.14.14.14.14-.06.14-.14" fill="#eee5d5"/><path d="M89.5 36.23c-.19 2.66-1.95 6-3.3 7.75-.16.21-.62.02-.49-.05 1.51-.8 3.25-5.97 3.6-7.72l.2.02Zm3.53 9.11c-.8.31-.53 2.16-1.39 2.48l.71-2.59c.07-.27.26-.65.38-.82 0 .25.14.74.3.94Z" fill="#7c7c7c"/><path d="m36.3 91.22.03.41v3.31l.03.48v4.84l.02 8.18v4.86l.04 2.83c-.27.16-1.17.23-1.41.02-.21-.18-.21-.85-.21-1.11l-.13-15.69c.02-.22.11-.65.1-.87l-.03-1.6.03-2.35v-6.22l.06-.2 1.54.05-.07 3.05Zm.52 21.98c-.04-1.08-.01-2.19.07-3.34.74-.28 1.57-.88 1.58-1.67l.02-2c.01-1.1-.59-1.3-1.64-2.09-.05-.98-.02-2.05.09-2.98l.52-.06c.12-.01.16-.24.19-.38.76.02 1.29.43 1.78 1.05l2.17 2.72.03 5.53-2.95 3.15c-.48.11-1.42.07-1.86.06Z" fill="#f3f3f3"/><path d="m34.79 115.05-.46-.69-.05-.81c-.01-.18.01-.53.02-.72.05-1.26.2-2.63-.15-3.83.72.59.16-1.34.2-3.45.01-.52.03-1.27-.14-1.6l-.54-1.04.64-.06v-3.47h.35l.13 15.69Zm1.99-14.76.17.83c-.11.93-.14 2-.09 2.98 1.06.79 1.66.99 1.64 2.09l-.58.05c-.16-.59-.47-1.03-1.14-1.46v3.59c-.09.02-.29.05-.41.06l-.02-8.18c.11 0 .33-.02.43.03Z" fill="#3f4146"/><path d="m38.49 106.19-.02 2c0 .78-.84 1.38-1.58 1.67-.08 1.15-.11 2.26-.07 3.34l-.44.11v-4.86c.1-.01.3-.04.41-.06.35-.09.98-.39 1.16-.7s.06-1.09-.03-1.43l.58-.05Z" fill="#1d1e29"/><path d="M36.8 94.5c.45.33 1.28 1.06 1.53 1.61l-.22-.02c-.38-.31-.78-.55-1.35-.84l-.05 3.49h-.36v-3.33l.52-.15c.09-.03-.13-.31-.22-.31l-.33-.02v-.88c.13.12.34.34.47.44Z" fill="#3f4146"/><path d="M37.66 100.69c-.04.13-.07.36-.19.38l-.52.06-.17-.83.88.4Z" fill="#eaeaeb"/><path d="m29.3 27.02.51 1.2c-.37.37-.7.92-.89 1.47l-.7 1.97c-.22.31-.64.67-.96.9-.08.02-.32.13-.33.04s-.08-.5-.06-.58l.32-1.86.34-1.66c.22-.21.44-.61.6-.92-.35.08-.55.11-.56.25-.01.18 0 .52-.04.66-1.19 1.14-.79 2.88-.92 4.86l-.86-.15-.42-2.28c-.95.43-1.48 1.1-1.8 1.9l-.62-.32c0-.18 0-.5-.02-.66-.08-.6-.46-1.77-.91-2.22.56-2.61 3.86-4.79 6.58-5.01.06.94.21 1.79.76 2.4Zm-3.18-.23c0-.19-.16-.35-.35-.35s-.35.16-.35.35.16.35.35.35.35-.16.35-.35M24.87 29a.38.38 0 1 0-.76 0 .38.38 0 0 0 .76 0m14.3-5.74c.55.32 1.25.66 1.82.88h.19c.16.53.79.89 1.28 1.26l.23.71c-.7 1.28-3.21-1.25-5.05-1.36l-.26-.02-.82-.87c-.07-.07-.22-.34-.15-.39l.27-.22.3-.2 2.15.2Z" fill="#e6ddcb"/><path d="M33.68 27.69h-1.81c-.9-.72-.14-2.48.55-3.07.2-.17.89.14 1.01.36.58 1.09-.2.97.25 2.71" fill="#28272f"/><path d="m38.07 25.69.24.2c.85 1.45 1.75 2.92 2.38 4.46-1.15-.1-1.05-1.26-2.12-2.25l-1.4-1.29.23-1.78zm2.7 3.92-1.78-2.87c-.17-.28-.33-.59-.42-.83.52-.84 2.39 1.98 2.88 2.38-.26.61-.42.93-.68 1.31Z" fill="#f3f3f3"/><path d="M30.14 28.05c-.04.06-.13.14-.19.18h-.15l-.51-1.21c.07-.04.3-.29.38-.44l1.53-3.03c.08-.15.59-.44.62-.31s.08.55.03.68l-1.34 3.4c-.1.26-.27.58-.37.72Z" fill="#1d1e29"/><path d="m22.65 31.85-.02.66c-.46.47-1.41.18-1.89-.25l.18-.93c.2-.17.54-.55.61-.79l.69-.26.43 1.56Z" fill="#f3f3f3"/><path d="M22.87 31.85h-.22l-.43-1.56-.69.26c.08-.32.2-.69.43-.92.45.46.83 1.62.91 2.22" fill="#7c7c7c"/><path d="m38.07 25.69-.67-.66v-.31l.26.02.42.95Z" fill="#989390"/><path d="m36.71 23.25-.01-.23.32.04z" fill="#7c7c7c"/><path d="M26.37 34.48c-.06-.22.1-.67.22-.86l.67-1.05c.32-.23.74-.6.96-.9.17-.24 1.14-.39 1.13-.07l-.12 4.11c-2.53-1.05-.3-.38-2.85-1.22Zm-.86-1.24c-.16.37-.7.52-1.11.35-.27-.11-.59-.5-.66-.78.34-.55.69-1.06 1.38-1.56.16.45.29 1.09.33 1.48l.05.52Z" fill="#f3f3f3"/><path d="m27.26 32.57-.67 1.05v-.26c.14-1.98-.27-3.71.92-4.86l-.34 1.66-.32 1.86c-.01.09.05.49.06.58s.26-.03.33-.04Z" fill="#989390"/><path d="m25.74 33.22-.23.03-.05-.52c-.04-.39-.17-1.03-.33-1.48-.7.5-1.05 1.01-1.38 1.56-.09.02-.18.05-.23.02.33-.8.85-1.47 1.8-1.9l.42 2.28Z" fill="#868586"/><path d="m25.54 33.7.45-.14c.09-.03.28.3.2.34-.09.04-.26.13-.34.18-.12.08-.45-.34-.31-.38" fill="#ca7879"/><path d="M22.9 32.52h-.27l.02-.66h.22c.02.16.02.48.02.66Z" fill="#989390"/><path d="M40.74 20.82c-.42.53-.94 1.92-.47 2.58l.72.73c-.57-.22-1.27-.56-1.82-.88v-.18c.11.02.56.22.58.07l.08-.61c.09-.65.28-1.32.7-1.73h.22Z" fill="#7c7c7c"/><path d="M34.3 112.83c0 .2-.03.54-.02.72-.09.02-.46.05-.48-.08l-.12-.7.62.05Z" fill="#272834"/><path d="M73.57 59.24c-.1-.04-.17-.07-.15-.12.03-.09.11-.27.14-.36l2.32-1.48c-.62.84-1.46 1.43-2.3 1.97Z" fill="#868586"/><path d="M39.42 42.64c.08.02.51.49.53.72l.23 2.64c-.43-.2-.75-.33-.92-.46-.77-.59-1.61-1.45-2.23-2.22l-1.95-2.42c.59.04 1.36-.24 1.9-.45.7.34-.33 2.05.76 2.57.48.23 1.42-.03 1.68-.38" fill="#ca7879"/><path d="M36.98 40.45c-.03-.48.05-1.19.14-1.82.52.41 1.12.94 1.15 1.36.06.72-.94.32-1.29.45Z" fill="#ca7879"/><path d="M39.42 42.64c-.54.34-1.51.33-1.95-.3-.19-.28-.09-1.07.08-1.35s.86-.69 1.14-.49c.56.39.92 1.52.73 2.14" fill="#f3f3f3"/><path d="M30.12 35.62v.51c0 .1-.36.19-.44.11l-.38-.41c-.01-.1.11-.62.25-.54z" fill="#ca7879"/><path d="m33.46 36.71-.44 1.79c-.23.34-2.41-1.56-2.64-1.77-.17-.16-.05-.74 0-.94l2.27-1.88c.19-.15.95-.35.98-.13.1.74.04 2.13-.16 2.93Zm1.05 2.47.06-.27.46-.44c.36-.11 1.51-.31 1.67.03.2.4.14 1.4-.09 1.74-.28.41-1.18.53-1.5.27-.36-.29-.59-.86-.6-1.33" fill="#f3f3f3"/><path d="M35.03 38.47c-.07.02-.24.05-.32.07-.11.03-.12.24-.14.37l-.06.27-.57.61c-.33-.24-.82-.8-.92-1.29l.71-.96 1.51.51c-.08.18-.14.36-.2.43Z" fill="#ca7879"/><path d="M77.09 16.9c.26.63 1.07 1.5 1.56 1.9.31.83 3.17 2.42 4 2.85.06.03.19.07.26.1 3.19 2.9 1.81 4.89.6 8.11-.18.11-.42.44-.56.68-.94 1.68-1.86 3.23-2.99 4.75-.77 1.03-2.17 1.33-3.25.55-1.44-1.05-2.31-3.36-2.72-4.91-.23-.87-.18-1.83-.17-2.84l.04-7.9-.24-.24c-.13-.14-.65-.29-.88-.22l-2.21.72c-.56-.61-1.21-1.12-1.92-1.57v-.23l2.75-1.58c.04.52.24 1.29.59 1.57.38.3 1.18.54 1.72.5 1.01-.08 2.02-1.21 2.32-2.06-.2-.98-1.65-.72-1.46-1.51.52-.03 1.14.2 1.58.55l1 .79Z" fill="#ede7d6"/><path d="M53.55 25.27c.46.62.82 2.09.99 2.95s.78 1.86-.18 2.49l-1.7 1.11-1.89 1.16-.38-2.19c-.15-.87-1.05-.98-1.77-1.35l-1.6-.83c-.55-.29-1.56.16-2.12.39-.22-.47-.8-1.1-1.11-1.55l.2-.36c1.51 0 3.12-.08 4.51.28 1.83.47 3.52 1.34 5.49 2.07-1.24-1.4-3.11-1.65-4.61-2.42.87-1.32 1.61-.61 3.02-1.61l1.15-.15Z" fill="#e7d9c5"/><path d="M41.86 20.16c.54 2.18 2.73-.71 5.32 2.47 0 .06 0 .15-.01.2-1.27.2-2.55.49-3.78.86h-1.75l-.11-1.16c-.31.34-.37.76-.3 1.19l-.05.4h-.19l-.72-.73c-.46-.65.05-2.05.47-2.58.2-.26.82-.54 1.12-.66Z" fill="#e8e7dd"/><path d="M49.1 23.91c-.03.45-.19.96-.36 1.58.72.83 2.62-.45 4.18-1.1.28-.12.47.66.63.88l-1.15.15c-1.4 1-2.15.29-3.02 1.61-.18 0-.56.05-.73-.02l-1.09-.43-.06-.87c-1.18-.22-3.2-.8-3.44.8-.17 0-.49.09-.66.13-.23-.42-.57-.97-.94-1.24l.23-.33 1.58-.24c.93-.14 1.8-.36 2.67-.66.56-.19 1.56-.12 2.15-.25Z" fill="#e7e0d0"/><path d="M63.72 39.26c-.7 6.27-3.65 14.9-8.47 19.04 2.07-2.73 4.03-5.26 5.3-8.47 1.35-3.42 2.38-6.8 2.84-10.58-.15-.53.09-.38.33 0Z" fill="#7c7c7c"/><path d="m73.33 23.3.02 4.62c-2.84-1.47-1.18-1.38-2.29-2.77l.66-.61-1.28-.37.32-.65 1.22-.39c.32-.1 1 .06 1.35.17" fill="#c2c7cd"/><path d="M44.89 29c1 2.1.68 2.94 1.82 4.61l-.15 1c-.2.05.06-.02.29-.08l.64.71 1.27 1.46c-.98-.51-1.3-1.18-2.19-1.99.31 1.41.7 2.43 1.18 3.84l-1.06-1.46v6.46h-.43c-.03-1.56-.02-3.17.05-4.84.1-2.41.13-4.72-.76-6.99l-1.06-2.71c-.19-.49-.63-1.12-.85-1.57l.15.02c.31.45.89 1.08 1.11 1.55Z" fill="#868586"/><path d="m52.2 22.27-.42 1.21c-.88-.01-1.84.25-2.68.43-.59.13-1.59.05-2.15.25l.22-1.32s0-.14.01-.2c1.68-.19 3.34-.47 5.02-.36Z" fill="#28272f"/><path d="M73.98 30.92h-.19c-.19-.95-.43-2.01-.44-3l-.02-4.62c0-.43-.02-.98 0-1.4l.07-1.96h.22l.24.24-.04 7.9c0 1.01-.06 1.97.17 2.84Z" fill="#989390"/><path d="m51.78 23.47.42-1.21c1.07.07 3.43.2 3.68 1.74-1.46-.26-2.74-.52-4.1-.54Z" fill="#575455"/><path d="M73.32 21.9c-.01.43 0 .97 0 1.4-.35-.11-1.03-.28-1.35-.17l-1.22.39c.06-.12-.08-.42-.2-.45l-.62-.14 1.03-1.33c.39-.5 1.76.13 2.35.29Z" fill="#e7d9c5"/><path d="M83.5 29.86c-.92 1.73-3.06 6.89-5.43 6.77-1.34-.07-2.23-1.11-2.92-2.07-.83-1.15-1.1-2.35-1.36-3.63h.19c.41 1.55 1.29 3.86 2.72 4.91 1.07.78 2.48.49 3.25-.55 1.14-1.52 2.06-3.07 2.99-4.75.14-.24.38-.58.56-.68" fill="#7c7c7c"/><path d="M58.3 38.11c-1.13 1.1-2.73 1.16-4.29 1.12-1.93-.39-3.87-.99-5.2-2.54 2.19 1.33 4.16 2.39 6.68 2.27l2.82-.85Z" fill="#868586"/><path d="M40.77 29.61c1.04 1.68 1.89 5.69 2.25 8.06-.16.36-.57.57-.46.02-.26-2.72-.92-5.04-1.86-7.33-.63-1.54-1.53-3.01-2.38-4.46l.25.02c.09.24.25.55.42.83l1.78 2.87Z" fill="#989390"/><path d="m47.56 26.57 1.09.43-.15.36c-1.39-.35-3.01-.28-4.51-.28l-.2.36-.15-.02c-.1-.04-.33-.1-.35-.21l-.06-.42.18-.16c.18-.04.49-.13.66-.13l3.5.07Z" fill="#1d1e29"/><path d="M45.98 18.87c-.85.29-1.56.71-2.45.5.84-.36 6.44-2.56 7.1-1.63-1.67.32-3.06.59-4.64 1.13Zm.87 15.66c-.23.06-.49.13-.29.08l.15-1c.94 1.01 3.05 1.86 4.54 1.73l1.44-.12c-1.87 1.73-5.62-.9-5.65-.87l-.19.19Zm-3.75 9.01-.37-.7c.02-1.93-1.04-3.38-2.39-4.61 1.13.32 3.44 3.51 2.76 5.31" fill="#989390"/><path d="M80.89 59.21c-.06.48.36 1.05.69 1.52.77 1.08 1.05 2.47 1.11 3.72l-.53.26c.33-1.58-.61-3.78-1.66-5.19l-3.86 1.9c-.25.13-.55.41-.67.64l-.18.14c-.6-.38-2.21.67-3.96 1.14.67-.36 1.41-.7 2.18-1.05l6.36-2.91c.14-.06.39-.15.5-.17Z" fill="#272834"/><path d="M46.7 43.54c0 2.15.44 2.25.09 3.7-.17 2.11-.58-5.93-.54-3.7h.44Z" fill="#7c7c7c"/><path d="M72.73 19.72v.22l-2.46 1.05c-.41.18-.7.34-1.14.33l1.39-.88z" fill="#989390"/><path d="M51.96 42.92c-.7-.05-1.3-.63-1.68-1.33.59.38 1.05.73 1.68 1.33" fill="#868586"/><path d="M90.13 54.4c-.44-.36-1.03-.32-1.55-.05l2.64-2.22.27.03-1.13 1.07c-.14.13-.53.4-.47.56l.24.62Z" fill="#272834"/><path d="m77.787 54.978.943-1.81.284.148-.943 1.81z" fill="#868586"/><path d="M85.27 56.58c.01.89.13.17.91 1.74l-1.04-1c-.59-.57-2.25 1.18-2.93 1.22v-.22c1-.58 2.09-1.11 3.06-1.74" fill="#272834"/><circle cx="37.3" cy="31.65" r=".41" fill="#575455"/><path d="M33.94 33.17c0-.21.19-.68.41-.75.24-.08.49.69.3.7l-.72.05Z" fill="#575455"/><circle cx="37.84" cy="34.83" r=".41" fill="#575455"/><circle cx="32.23" cy="30.75" r=".38" fill="#575455"/><circle cx="34.37" cy="29.62" r=".42" fill="#575455"/><path d="M42.82 18.96c.32-.67.74-1.2 1.47-1.63z" fill="#989390"/><path d="m58.265 37.87 1.499-1.652.259.235-1.498 1.652zM77.66 55.16c-.06.67-.34.95-.74.93z" fill="#868586"/><path d="m41.47 18.87-.58-1.12c.73-.02.89.71.58 1.12" fill="#c2c7cd"/><path d="M50 41.32c-.9-.74-1.62-1.59-2.14-2.68.81.87 1.47 1.71 2.14 2.68" fill="#868586"/><path d="M82.22 58.55c-.21.34-.95.6-1.32.66.35-.3.9-.64 1.32-.88z" fill="#3f4146"/><path d="M60.44 35.56c-.14.26-.37.61-.38.53l-.06-.5c-.01-.12.5-.13.44-.03" fill="#868586"/><path d="M73.61 19.94h-.88v-.22c.23-.07.75.08.88.22" fill="#575455"/><circle cx="44.71" cy="17.07" r=".25" fill="#989390"/><path d="M41.86 20.16c-.3.12-.91.4-1.12.66h-.22c.56-.54 1.11-1.03 1.74-1.54z" fill="#868586"/><circle cx="54.86" cy="58.66" r=".14" fill="#7c7c7c"/><path d="m43.4 26.63-.18.16c-.03-.22-.33-.56-.52-.69l-.23-.71c.37.27.7.82.94 1.24Z" fill="#7c7c7c"/><path d="m76.07 57.14.83-.8c-.2.31-.45.55-.83.8" fill="#868586"/><circle cx="45.26" cy="16.74" r=".11" fill="#989390"/><circle cx="45.7" cy="16.52" r=".11" fill="#989390"/><path d="M59.29 129.26c-.82 1.78-1.53 3.55-1.97 5.63-.26 1.21 1.51 1.12 1.52 1.74-.81-.22-1.89-.52-2.66-.89l-3.08-1.52v-.44l.2-2.43h.22l-.08 2.01c0 .23.33.54.5.64.38.22 1.15.67 1.6.89l1.48.71.32-2.06c.09-.59.31-1.68.59-2.16l1.19-2.09.17-.02Z" fill="#272834"/><path d="M36.8 94.5c-.13-.1-.35-.32-.47-.44v-2.43h.34c.08 0 .11.31.11.41zm-.45.92-.03-.48.33.02c.09 0 .31.29.22.31z" fill="#1d1e29"/><path d="M37.92 106.25c.09.35.21 1.13.03 1.43s-.8.61-1.16.7v-3.59c.66.43.97.87 1.13 1.46" fill="#314267"/><circle cx="24.49" cy="29" r=".38" fill="#575455"/><circle cx="25.77" cy="26.79" r=".35" fill="#575455"/><path d="M27.52 28.51c.03-.15.02-.48.04-.66.01-.15.21-.18.56-.25-.16.31-.37.7-.6.92Z" fill="#7c7c7c"/><path d="M41.64 23.69h1.75l.88 1.13-1.58.24-.23.33c-.49-.36-1.12-.73-1.28-1.26l.05-.4c.11-.01.31-.04.41-.04" fill="#3f4146"/><path d="m35.03 38.47-.46.44c.02-.13.03-.35.14-.37.08-.02.25-.05.32-.07" fill="#7c7c7c"/><path d="M74.51 15.56c-.19.79 1.26.52 1.46 1.51-.3.85-1.31 1.97-2.32 2.06-.53.04-1.34-.2-1.72-.5-.35-.28-.55-1.05-.59-1.57 1.01-.58 1.94-1.44 3.16-1.5Z" fill="#eee5d5"/><path d="M49.38 27.02c1.5.78 3.38 1.02 4.61 2.42-1.97-.73-3.65-1.61-5.49-2.07l.15-.36c.17.07.54.02.73.02Z" fill="#28272f"/><path d="m47.17 22.83-.22 1.32c-.88.3-1.74.52-2.67.66l-.88-1.12c1.23-.37 2.51-.66 3.78-.86Z" fill="#575455"/><path d="M41.64 23.69c-.1 0-.3.03-.41.04-.07-.43 0-.85.3-1.19z" fill="#7c7c7c"/><path d="m47.56 26.57-3.5-.07c.24-1.6 2.27-1.02 3.44-.8z" fill="#e7d9c5"/></svg>