<svg xmlns="http://www.w3.org/2000/svg" viewBox="0 0 144 144"><path d="M21.72 45.83c.25 2.35-.08 4.83.51 7.14l-.35.21c-.54-2.4-.8-4.87-.6-7.39.14.04.29.05.44.04M38.6 21.66c.12 1.27.99 3.21-.42 3.84-1.24.56-2.47.11-3.52-.36-.1-.77 1.5-1.11.91-2.38-.25-.53-.81-.84-1.44-.57-.86.37.05 1.18-2.46 1.73-.04-.67-.16-1.07-.59-1.04-.12-.2-.26-.36-.63-.3-2.68.41-4.72 2.39-5.16 4.96a.5.5 0 0 0-.18.17c-1.5-.56-5.07-.65-5.89 1.72-1.04 3.01 1.66 3.24 1.73 6.35.06 2.71.22 5.34.68 8.01.09.5.06.95.07 1.35-.16.03-.32.05-.48.05-.41-3.02-.82-6.04-.87-9.2-.02-1.14-.41-2.04-1.07-2.89-1.49-1.9-1.03-4.78 1.15-5.86 1.35-.67 2.75-.5 4.25-.28 1.15-3.37 3.06-4.66 6.32-5.13.82.81.98-2 3.35-2.21 2.71-.24 3.06 2.16 4.24 2.04Z" fill="#2f4168"/><path d="M21.7 45.14c0 .23-.01.46.01.69-.15 0-.29 0-.44-.04.01-.19-.03-.41-.05-.59.16 0 .32-.02.48-.05Z" fill="#272830"/><path d="M47.12 14.85c4.11 2.77 8.98 4.73 13.89 5.44.29.04.58.01.87.03.66.49 1.61.15 2.39.16.17 0 .44-.13.6-.02.64.52 1.13.26 1.75-.2 1.82-1.35 3.8-2.44 5.76-3.56 1.11-.64 2.26-.38 3.07.53l2.54 2.88c1.55 1.75 6.94 2.82 5.48 7.46-.13.4-.23.93-.3 1.26-.44.28-.39.91-.65 1.28-2.03 2.81-4.15 8.86-7.28 5.81-4.16-4.06-1.47-11-2.56-15.72-1.66.69-3.18.92-4.33 1.94 1.47-.24 2.52-1.45 4.03-1.34.63.04.22 1.25.2 1.69-.09 1.96.07 3.77-.19 5.69-.08.57.1.99.13 1.53.13 2.38.78 4.75 2.48 6.44.64.63 1.37 1.02 2.23.95 2.39-.2 4.14-5 5.38-6.51 1.59.7 3.1 1.58 4.76 2.11.17 1.27.32 2.67.05 3.95-.58 2.76-1.69 5.22-3.33 7.73 2.1-1.92 2.98-4.77 3.52-7.48 1.22 1.69 3.97 2.23 2.8 8.66-.15.84-1.02 1.61-.91 2.74.49-.13 1.04-3.06 1.29-2.38 1.14 1.3 1.12 2.98.24 4.45-.73.43-.98 1.32-1.67 1.79a97 97 0 0 0-4.62 3.41c-.52.18-.94.45-1.3.86l-5.87 3.27-3.72 1.79c-1.62.78-3.28 1.31-4.75 2.16-.14.03-.34.12-.65.2-.7.18-1.34.72-2.21.89-.04-.28.15-.53.42-.72 1.5-1.06 2.51-2.53 3.81-3.78 1.34-1.28 3.07-1.98 4.13-3.63-1.35.47-1.8 1.93-3.19 2.22.07-1.37 1.29-2.1.85-3.36-1.23 3.84-3.55 6.76-6.77 8.95-4.9 3.32-8.58 2.83-14.09 1.61 2.35-1.54 6.16-1.66 7.85-3.51-1.42.51-2.53 1.2-3.95 1.59-4.26 1.15-5.18 2.97-9.86 1.29-9.78-3.52-4.85-14.44-5.61-20.89-.2-1.74-1.02-3.29-2.01-4.68L34.1 34.6c-1.21-1.7-2.33-3.4-4-4.7.5.98 1.37 1.55 2 2.44l5.43 7.62c1 1.4 1.89 3.02 1.96 4.79.21 5.13-.82 7.96-.54 12.76.23 4.02 2.63 7.06 6.37 8.32 1.66.56 3.15.59 4.87.6 3.43.03 8.91 2.53 14.51-1.02.38-.24.71-.51 1.11-.48-.3.3-.82.9-1.33 1.05-1.25.38-2.36 1.23-3.68 1.8l-6.63 3.37-7.52 3.81c-1.04.52-2.15.68-3.04 1.28h-.22c-2.68 1.04-5.81 2.47-8.67 1.37-.09-.03-.22-.02-.3-.07-1.88-1.2-3.16-3.73-1.92-5.63 2.04 1.11 4.51.98 6.86.49 2.03-.67 3.99-.76 6.14-1.15-2.37-.32-4.48.42-6.79.86-2.05.45-4.27.47-6.19-.36-1.29-.56-2.56-1.77-3.49-2.84-2.81-3.26-1.6-6.34-3.97-10.03-1.17-1.81-2.29-3.82-2.81-5.88-.59-2.31-.26-4.79-.51-7.14-.02-.23 0-.46-.01-.69-.01-.4.02-.85-.07-1.35-.46-2.67-.62-5.3-.68-8.01-.07-3.11-2.77-3.35-1.73-6.35.82-2.37 4.39-2.28 5.89-1.72 1.63.6 3.15 1.29 4.85 2.25-.37-.77-.6-1.35-.12-2 .32-1.16.98-2.03 1.78-2.93-1.59.73-2 2.36-2.43 4.08-1.39-.62-2.62-1.22-3.91-1.57.44-2.57 2.48-4.55 5.16-4.96.37-.06.51.1.63.3-.11.69-.11 1.88.75 2.13s2.05-.23 2.83.12c1.05.48 2.28.92 3.52.36 1.41-.63.54-2.57.42-3.84.8-.09 1.8.09 2.6.18 1.76 1.34 2.93 3.12 3.67 5.28 2.41 6.98.41 13.03 1.41 20.35.85-.58.14-1.28.15-1.91.05-2.71-.13-5.3.09-8.09.88 1.08 1.2 2.41 2.45 3.3-.87-1.62-2.26-2.99-2.45-5.21.97.32 1.42 1.23 2.21 1.81 1.96 1.44 4.28 2.58 6.73 2.18 1.49-.24 2.96-1 3.52-2.32-1.88 1.89-4.13 2.57-6.55 1.72-2.2-.78-4.39-2.17-5.66-4.25 1.42.51 2.57 1.77 3.88 1.03-1.42-.21-3.79-.76-4.12-2.41-.86-4.3-.92-8.77-5.33-11.47-.76-.46-1.66-.7-2.61-.64l.62-2.37c.79.72 2.56 3.83 3.55 2.96.24-.22.24-.64.21-.99.53.08.24-.41 1.09-1.85-.77.3-1.14 1.18-1.09 1.85-1.13-.18-2.4-2.52-2.92-3.71 1.95-1.27 3.98-2.06 6.08-2.78.37.37.74.37.99.54Zm-.7 2.03-2.08 1.44.2.28 2.08-1.44zm-2.17 1.81c0-.06-.05-.11-.11-.11s-.11.05-.11.11.05.11.11.11.11-.05.11-.11m3.89 4.34c.67.15 1.37-.01 2.11.24.1.03.3.04.61 0 1.98-.22 3.93.34 6.01.89 0-2.45-7.62-2.22-9.16-2.27l-3.79-.13c-.24-.48.15-.77.04-1.41-.2.32-.9 1.41-.63 2.11.33.85 3.99.57 4.8.56Zm-8.54.41c.25-.53-.28-.81-.53-.89.32.34-.06.78.53.89m.3.25c0-.06-.05-.11-.11-.11s-.11.05-.11.11.05.11.11.11.11-.05.11-.11m.21.44c0-.06-.05-.11-.11-.11s-.11.05-.11.11.05.11.11.11.11-.05.11-.11m.22.43c0-.06-.05-.11-.11-.11s-.11.05-.11.11.05.11.11.11.11-.05.11-.11m7.62 1.45a1.16 1.16 0 1 0-2.322.002 1.16 1.16 0 0 0 2.322-.002m-5.84 6.05c0-2.54-.63-5-1.73-7.26zm.19 5.17c.48-1.64.08-2.99.2-4.53-.56-.53-.59 4.73-.2 4.53m-12.47 1.9c-1.99-4.2-4.7-5.2-8.76-5.76.58.57 1.38.65 2.1.78 2.46.45 4.4 1.83 5.73 3.96.25.4.4.97.92 1.03Zm29.91-2.61c.37-.34.13-.72-.26-.44.08.47-.4.54-.43.76-.05.31.37.33.43.12.03-.09.04-.27.26-.45ZM54.03 59c4.8-3.5 9.04-13.87 8.94-19.4-1.5 8.02-3.55 13.42-8.94 19.4m-4.85-18.11-.24.26 2.3 2.17.24-.26zM34.67 64.23c-4.44-2.91-7.65-8.25-8.82-13.15-.69-1.55-.61-3.2-1.51-4.76 1 5.68 2.61 10.62 6.48 15.07 1.07 1.22 2.19 2.49 3.85 2.85Zm41.52-10.6-.83 1.69.31.15.83-1.69zm-.81 1.93c-.61.21-.74.51-.86.97.5-.14.71-.51.86-.97" fill="#efe6d5"/><path d="M87.59 36.89c-.54 2.71-1.42 5.55-3.52 7.48 1.64-2.51 2.75-4.97 3.33-7.73l.19.26Zm3.18 9.02c-.25-.68-.8 2.25-1.29 2.38-.11-1.14.76-1.9.91-2.74.22.02.26.23.38.36M41.2 21.84c-.8-.09-1.8-.27-2.6-.18-.04-.11-.03-.34-.02-.46.95-.07 1.85.17 2.61.64Zm0 0c4.41 2.7 4.47 7.17 5.33 11.47.33 1.66 2.7 2.2 4.12 2.41-1.32.75-2.46-.52-3.88-1.03 1.27 2.08 3.46 3.48 5.66 4.25 2.42.86 4.67.17 6.55-1.72-.56 1.33-2.04 2.08-3.52 2.32-2.46.4-4.77-.74-6.73-2.18-.79-.58-1.24-1.49-2.21-1.81.19 2.22 1.58 3.59 2.45 5.21-1.24-.89-1.57-2.23-2.45-3.3-.22 2.79-.04 5.38-.09 8.09-.01.63.7 1.32-.15 1.91-1-7.32 1-13.37-1.41-20.35-.74-2.16-1.91-3.93-3.67-5.28ZM32.49 71.9v-.17c1.92.84 4.14.82 6.19.36 2.31-.44 4.42-1.18 6.79-.86-2.15.4-4.11.48-6.14 1.15-2.34.49-4.82.62-6.86-.49Z" fill="#807d7f"/><path d="M34.67 25.14c-.78-.35-1.96.13-2.83-.12s-.86-1.44-.75-2.13c.43-.03.55.37.59 1.04 2.51-.55 1.6-1.36 2.46-1.73.63-.27 1.2.04 1.44.57.59 1.27-1 1.61-.91 2.38Z" fill="#272830"/><path d="M25.12 27.71c.04-.07.1-.13.18-.17 1.29.35 2.52.94 3.91 1.57.42-1.73.84-3.35 2.43-4.08-.8.9-1.47 1.77-1.78 2.93-.48.65-.24 1.23.12 2-1.7-.96-3.22-1.65-4.85-2.25ZM66.2 64.72c0 .14-.27.06-.4.18-.41-.04-.73.23-1.11.48-5.6 3.55-11.08 1.04-14.51 1.02-1.71-.01-3.2-.04-4.87-.6-3.74-1.27-6.14-4.31-6.37-8.32-.28-4.8.75-7.63.54-12.76-.07-1.77-.96-3.39-1.96-4.79l-5.43-7.62c-.63-.89-1.5-1.46-2-2.44 1.67 1.3 2.79 3 4 4.7l3.72 5.23c.99 1.39 1.8 2.94 2.01 4.68.76 6.45-4.17 17.38 5.61 20.89 4.68 1.68 5.6-.14 9.86-1.29 1.42-.38 2.54-1.08 3.95-1.59-1.69 1.85-5.51 1.97-7.85 3.51 5.51 1.22 9.18 1.71 14.09-1.61 3.23-2.19 5.54-5.1 6.77-8.95.44 1.26-.78 1.99-.85 3.36 1.39-.29 1.84-1.74 3.19-2.22-1.06 1.64-2.8 2.35-4.13 3.63-1.31 1.25-2.32 2.72-3.81 3.78-.27.2-.47.44-.42.72Zm5.26-5.77c0-.06-.05-.11-.11-.11s-.11.05-.11.11.05.11.11.11.11-.05.11-.11M82.52 30.1c.05.15.08.31.08.47-1.25 1.51-3 6.32-5.38 6.51-.86.07-1.59-.32-2.23-.95-1.71-1.69-2.36-4.05-2.48-6.44-.03-.53-.21-.96-.13-1.53.26-1.91.1-3.73.19-5.69.02-.44.43-1.65-.2-1.69-1.5-.1-2.56 1.1-4.03 1.34 1.15-1.03 2.67-1.26 4.33-1.94 1.09 4.72-1.59 11.66 2.56 15.72 3.13 3.05 5.25-3.01 7.28-5.81Z" fill="#807d7f"/><path d="M50.86 23.28c.15-.19-.22-.42-.39-.34-.1.05-.4.19-.22.33-.75-.25-1.45-.1-2.11-.24-.12-.3-.43-.37-.87-.59.2-.19.4-.31.44-.54 1.54.05 9.16-.17 9.16 2.27-2.08-.55-4.03-1.11-6.01-.89" fill="#272830"/><path d="M34.67 64.23c-1.65-.35-2.78-1.62-3.85-2.85-3.87-4.45-5.48-9.38-6.48-15.07.9 1.56.81 3.22 1.51 4.76 1.17 4.9 4.38 10.24 8.82 13.15ZM54.03 59c5.39-5.98 7.44-11.38 8.94-19.4.1 5.53-4.14 15.9-8.94 19.4" fill="#807d7f"/><path d="M47.71 21.89c-.04.23-.24.35-.44.54.44.22.75.29.87.59-.81 0-4.46.29-4.8-.56-.27-.7.43-1.79.63-2.11.11.64-.28.92-.04 1.41l3.79.13Z" fill="#31426a"/><path d="M29.83 39.13c-.52-.05-.67-.63-.92-1.03-1.33-2.12-3.27-3.51-5.73-3.96-.73-.13-1.52-.2-2.1-.78 4.06.56 6.76 1.56 8.76 5.76Z" fill="#807d7f"/><circle cx="46.79" cy="26.01" r="1.16" fill="#272830"/><path d="m42.11 32.06-1.73-7.26c1.1 2.26 1.73 4.71 1.73 7.26m.19 5.17c-.39.19-.36-5.06.2-4.53-.12 1.54.27 2.89-.2 4.53m6.63 3.909.24-.255 2.3 2.167-.24.255zm-4.588-22.814 2.079-1.442.194.28-2.08 1.441zM75.357 55.33l.836-1.695.305.15-.836 1.695zM42.97 20.8c-.05-.67.32-1.55 1.09-1.85-.84 1.44-.56 1.93-1.09 1.85m32.41 34.76c-.16.45-.37.83-.86.97.12-.46.25-.76.86-.97M59.74 36.52c-.22.18-.24.35-.26.45-.06.21-.48.19-.43-.12.03-.22.51-.3.43-.76.39-.29.63.1.26.44ZM39.6 23.44c-.59-.11-.21-.55-.53-.89.25.08.78.36.53.89" fill="#807d7f"/><path d="M50.86 23.28c-.31.04-.51.03-.61 0-.19-.14.12-.29.22-.33.17-.08.54.15.39.34Z" fill="#31426a"/><circle cx="40.22" cy="24.56" r=".11" fill="#807d7f"/><circle cx="40" cy="24.13" r=".11" fill="#807d7f"/><circle cx="39.79" cy="23.69" r=".11" fill="#807d7f"/><circle cx="44.14" cy="18.69" r=".11" fill="#807d7f"/><circle cx="71.35" cy="58.95" r=".11" fill="#efe6d5"/><path d="M80.81 5.99c1.79 3.06 3.76 6.02 3.7 9.98-.01.71-.63 3.32-.25 3.04-.11.52-.23 1.03-.71 1.5-.09-.1-.33-.47-.5-.39-.29.31-1.47 2.33-.68 2.53.46-.28.34-.92.82-1.33.27.77-.72 1.56-.26 2.01.29.28.5-.03.71-.14 1.02-.56.79-1.73 3.02-3.96.42-.42 1.93-.37 2.21.13s.83 1.17.93 1.63l.47 2.14v1.74c-.01.61-.47 1.35-.51 1.99-.68.36-1.52-.07-2.07.36-.66.56-.93 1.53-1.23 2.25-.48-.25-.83-.79-1.55-.63.16.35.51.39.67.65-.27.1-.53.3-.8.36-.31.07-.56-.59-1.63-1.03.08-.33.17-.86.3-1.26 1.46-4.64-3.93-5.71-5.48-7.46l-2.54-2.88c-.8-.91-1.95-1.16-3.07-.53-1.96 1.12-3.94 2.22-5.76 3.56-.62.46-1.11.72-1.75.2.04-.22-.08-.4-.26-.58s-.35.07-.62.14c-.99.23-2.99-.11-2.98.28-4.91-.71-9.78-2.67-13.89-5.44-.08-.26-.35-.54-.66-.68-1.34-.6-2.27-1.59-3.33-2.37-.36-1.83-.55-.69 0-3.16 1.47-.21 2.73-.39 3.97-.78 1.8.76 3.82 1.13 5.57 2.22.25-1.07.58-1.8 1.36-2.21l7.58 4.36c.41-.45.81-.85.76-1.5-.61.18-.92.63-1.35.36-.31-.2-.85-.41-.59-.87.76-1.36 1.14.49 1.71-.42.08-.13.26-.48 0-.59-.33-.14-.76-.16-.72-.52.02-.18.08-.56.36-.71.38-.2.84.17 1.13.35s.02.87.33 1.01c.37.14.84-.76.7-1.07-.7-.24-2.9-1.99-3.11-1.5-.04.1-.04.27.05.39.3.41-.07.57-.12.77-.44.03-1.17.2-1.44-.26l-.72-1.25c.07-.08 0-.29.15-.35.13-.05.28-.03.48-.05.18-.02.18-.24.15-.35-.12-.41-1.35-.51-1.61-.59-.45-.14-.77-.54-1.05-.9 1.94-2.23 5.07-3.6 8.2-3.54 5.18.1 10.14 1.87 14.46 4.6-2.59.22-5.03-.06-7.11 1.34 3.2-.58 5.56-1.62 8.58-.58Zm-8.7.73c0-.06-.05-.11-.11-.11s-.11.05-.11.11.05.11.11.11.11-.05.11-.11m-1.3.65c.45-.11.73-.17.86-.53-.36.18-.65.27-.86.53m-1.12 1.41c0-.1-.08-.19-.19-.19s-.19.08-.19.19.08.19.19.19.19-.08.19-.19m-.38.66c0-.13-.11-.24-.24-.24s-.24.11-.24.24.11.24.24.24.24-.11.24-.24m-.44.65c0-.13-.11-.24-.24-.24s-.24.11-.24.24.11.24.24.24.24-.11.24-.24m-15.7.11c0-.06-.05-.11-.11-.11s-.11.05-.11.11.05.11.11.11.11-.05.11-.11m15.25.59c.01-.3-.21-.34-.42-.23-.1.47-.27.81-.44 1.27.43-.19.55-.54.86-1.04m-.87 1.52c.01-.3-.21-.34-.42-.23-.1.47-.27.81-.44 1.27.43-.19.55-.54.86-1.04m-10.59.96c.06-.17-.14-.31-.2-.35s-.26-.06-.31.11c-.03.1.53.17.51.24m.77.27-.23.24 1.85 1.77.23-.24zm8.66.63c.05-.4.27-.38.27-.58-.25.04-.36.23-.42.33s.06.41.15.26Zm-.74 1.01c.19.07.32-.14.36-.2s.05-.26-.11-.31c-.1-.03-.17.54-.25.51m-.07.46c0-.06-.05-.11-.11-.11s-.11.05-.11.11.05.11.11.11.11-.05.11-.11m-5.55.08-.2.22 1.93 1.79.2-.22zm5.33.35c0-.06-.05-.11-.11-.11s-.11.05-.11.11.05.11.11.11.11-.05.11-.11m-.22.44c0-.06-.05-.11-.11-.11s-.11.05-.11.11.05.11.11.11.11-.05.11-.11m-.21.44c0-.06-.05-.11-.11-.11s-.11.05-.11.11.05.11.11.11.11-.05.11-.11m-.22.43c0-.06-.05-.11-.11-.11s-.11.05-.11.11.05.11.11.11.11-.05.11-.11m-.22.44c0-.06-.05-.11-.11-.11s-.11.05-.11.11.05.11.11.11.11-.05.11-.11m-1.17 1.17c-.24-.54-.58-.8-.99-1.05.27.48.63.74.99 1.05m.95-.74c0-.06-.05-.11-.11-.11s-.11.05-.11.11.05.11.11.11.11-.05.11-.11m-.18.55c0-.08-.06-.14-.14-.14s-.14.06-.14.14.06.14.14.14.14-.06.14-.14" fill="#2f4168"/><path d="M87.36 32.68c-1.66-.54-3.17-1.41-4.76-2.11 0-.16-.03-.32-.08-.47.26-.37.21-1 .65-1.28 1.07.44 1.33 1.1 1.63 1.03.26-.06.53-.27.8-.36.35-.12.72.36.88-.02.31-.72.57-1.69 1.23-2.25.55-.43 1.39 0 2.07-.36.04-.64.5-1.38.5-1.99v-1.74l-.46-2.14c-.1-.46-.65-1.13-.93-1.63s-1.79-.55-2.21-.13c-2.23 2.23-2 3.4-3.02 3.96-.21.12-.42.42-.71.14-.46-.45.53-1.24.26-2.01-.48.41-.36 1.05-.82 1.33-.8-.2.38-2.22.68-2.53.17-.07.41.29.5.39.48-.47.59-.99.71-1.5.23-1.05.54-2.15.61-3.35.16-2.92-1.43-5.25-2.54-8.15 3.13 2.59 5.51 5.81 7.58 9.13 3.43 5.49.41 11.37-2.56 16.04Zm-3.69-11.7c0-.14-.11-.25-.25-.25s-.25.11-.25.25.11.25.25.25.25-.11.25-.25m3.13 8.7-.13.26 1.44.72.13-.26zM47.09 7.86c-1.24.39-2.49.57-3.97.78-.55 2.46-.36 1.32 0 3.16-1.77-1.3-3.57-2.7-5.11-4.39-.61-.67-1.28-.31-1.95-.51-.76-.22-6.09-2.87-3.8-2.97-.12-.35-.65-.18-.87-.59 3.86-.12 12.28 3.08 15.7 4.52M34.45 5.04c-.46-.66-1.24-.98-1.98-.98.59.65 1.28.73 1.98.98m.19.17c.03.35.23.37.36.31.12-.06.17-.2.11-.32s-.24-.24-.47.02Zm.65.44c.03.35.23.37.36.31.12-.06.17-.2.11-.32s-.24-.24-.47.02Zm.91.41c0-.06-.05-.11-.11-.11s-.11.05-.11.11.05.11.11.11.11-.05.11-.11" fill="#31426a"/><path d="M58.57 6.41c-.51.6-1.21 1.48-1.27 2.36-.04.64.99.49 1.34.34.7-.31.06 1.04.35 1.19.7.35 1.58-1.79 1.74-2.38.06-.2.43-.36.12-.77a.46.46 0 0 1-.05-.39c.21-.49 2.41 1.26 3.11 1.5.15.31-.33 1.21-.7 1.07-.3-.13-.05-.84-.33-1.01s-.75-.55-1.13-.35c-.28.15-.34.52-.36.71-.03.36.39.38.72.52.26.11.08.46 0 .59-.56.92-.95-.93-1.71.42-.26.46.28.68.59.87.42.26.73-.18 1.35-.36.05.65-.34 1.05-.76 1.5L54 7.86c.89-.48-.27-1.39 1.58-2.54.26.94-.21 1.94.02 3.06.08.37.88.08 1.03-.27.7-1.67 1.58-1.79 1.09-3.04.26.08 1.49.18 1.61.59.03.11.03.34-.15.35-.2.02-.34 0-.48.05s-.08.27-.15.35Z" fill="#efe6d5"/><path d="M57.74 5.07c.49 1.25-.39 1.38-1.09 3.04-.15.36-.95.65-1.03.27-.23-1.12.24-2.12-.02-3.06.07-.63.76-.78 1.09-1.16.28.35.6.76 1.05.9Zm23.07.92c-.79-.84-1.62-1.16-2.25-1.9.93-.42 1.9-.27 2.58.31.52.45 1.01 1.24.85 2.04l-1.19-.45Z" fill="#31426a"/><path d="M64.87 20.46c-.15-.11-.43.02-.6.02.25-.36-1.74-.13-2.39-.16-.29-.01-.58.02-.87-.03-.02-.39 1.99-.06 2.98-.28.27-.06.44-.32.62-.14s.3.36.26.58Z" fill="#272830"/><path d="M64.27 20.48c-.79-.01-1.74.33-2.39-.16.66.03 2.65-.2 2.39.16" fill="#2f4168"/><path d="M60.73 7.92c-.16.58-1.04 2.73-1.74 2.38-.3-.15.35-1.5-.35-1.19-.35.15-1.38.3-1.34-.34.06-.88.76-1.76 1.27-2.36l.72 1.25c.27.46 1 .29 1.44.26" fill="#31426a"/><path d="m57.502 13.783.228-.238 1.848 1.771-.228.238zm2.328 2.153.204-.22 1.927 1.79-.205.22zm7.72-3.626c-.31.5-.43.84-.86 1.04.17-.47.33-.8.44-1.27.22-.11.43-.07.42.23m.87-1.52c-.31.5-.43.84-.86 1.04.17-.47.33-.8.44-1.27.22-.11.43-.07.42.23" fill="#272830"/><circle cx="69.06" cy="9.44" r=".24" fill="#272830"/><circle cx="68.63" cy="10.09" r=".24" fill="#272830"/><path d="M56.96 13.27c.02-.07-.54-.14-.51-.24.06-.17.25-.15.31-.11s.26.18.2.35m9.43.9c-.1.15-.22-.16-.15-.26s.18-.29.42-.33c0 .21-.22.19-.27.58Zm-.74 1.01c.08.03.15-.54.25-.51.17.05.15.25.11.31s-.17.26-.36.2m5.16-7.81c.2-.26.49-.35.86-.53-.12.37-.4.42-.86.53" fill="#272830"/><circle cx="63.95" cy="18.8" r=".14" fill="#272830"/><circle cx="69.5" cy="8.78" r=".19" fill="#272830"/><path d="M63.32 18.99c-.36-.31-.73-.57-.99-1.05.41.25.75.51.99 1.05" fill="#272830"/><circle cx="64.17" cy="18.25" r=".11" fill="#272830"/><circle cx="64.38" cy="17.82" r=".11" fill="#272830"/><circle cx="64.6" cy="17.38" r=".11" fill="#272830"/><circle cx="64.82" cy="16.95" r=".11" fill="#272830"/><circle cx="65.04" cy="16.51" r=".11" fill="#272830"/><circle cx="65.25" cy="16.07" r=".11" fill="#272830"/><circle cx="65.47" cy="15.64" r=".11" fill="#272830"/><circle cx="72" cy="6.72" r=".11" fill="#272830"/><circle cx="53.06" cy="10.2" r=".11" fill="#272830"/><path d="M86.48 29.46c-.16.38-.53-.1-.88.02-.16-.26-.51-.3-.67-.65.72-.16 1.07.38 1.55.63" fill="#272830"/><circle cx="83.42" cy="20.98" r=".25" fill="#2f4168"/><path d="m86.681 29.948.13-.26 1.44.72-.13.26zM34.45 5.04c-.7-.25-1.39-.33-1.98-.98.74 0 1.52.32 1.98.98m.84.61c.22-.26.41-.14.47-.02s0 .26-.11.32c-.13.07-.33.04-.36-.31Zm-.65-.44c.22-.26.41-.14.47-.02s0 .26-.11.32c-.13.07-.33.04-.36-.31Z" fill="#272830"/><circle cx="36.09" cy="6.06" r=".11" fill="#272830"/><path d="M40.8 138.44c.42.1.83.27 1.26.33.07.01.16-.02.23 0 .67.29 1.19.55 1.25 1.2.17 1.9-1.06 1.36-1.01 2.23-.79-.13-1-1.08-1.75-.98.48-.63.63-1.5.58-2.28-.38.52-.61.81-1.05.85.11-.4 0-.87.05-1.3.14.01.31-.09.45-.06Zm27.62 2.03c.29-.18.36-.54.44-.85.03-.11.05-.23.1-.33.34.08.74-.18 1.15-.06.54.16.76.85.76 1.31 0 .86-1.68 1.99-2.13 1.53-.38-.37-.24-1.15-.32-1.61Zm0 0c-.44.28-.78.75-1.29.91-.25.08-.57-.08-.83-.05.03-.14-.11-.31-.1-.46l.24-2.15c.49.03 1.02-.18 1.55-.04.51.52.32 1.21.42 1.78Z" fill="#31426a"/><path d="M40.77 141.22c-.31.04-.52-.15-.55-.41-.03-.23-.04-.42-.02-.62l.11-.4c.44-.04.67-.33 1.05-.85.04.77-.11 1.65-.58 2.28Z" fill="#807d7f"/><path d="M72.95 132.15c.23.68.88 1.05 1.33 1.75-1.63-.03-3.08.07-4.47.58-.07-.58-.07-1.35.56-1.6.85-.35 1.65-.65 2.58-.73" fill="#efe6d5"/><path d="M93.81 118.12c.4.4.88.5 1.41.58 1.41.21 2.8.57 4.18.91.34.08.68.18 1.02.18h.2c.54.64 1.51.58 2.32.87 1.51.54 2.91 1.08 4.33 1.68-.14-.7 3.31-1.07 3.89-1.18.53-.1.96-.71 1.65-.52.45.12.7-.3 1.04-.43l5.28-1.95c.49 1.88.15 7.31-.24 9.19-.51 2.48-1.48 4.9-2.82 7.13-1.85 3.06-4.63 5.09-7.94 6.29-2.59.94-5.31.72-7.93.88.32-1.73.19-3.42-1.1-4.81-.86-.93-1.53-2.01-2.6-2.75 1.34 2.34 4.75 4.27 3.2 7.6-.91 1.96-6.24 1.57-8.12 1.44-4.21-.28-8.28-.41-12.51-.13-1.77.12-3.43-.06-5.05-.09.16-.43.72-.49 1.08-.8.62-.52.75-1.32.31-1.9s-1.2-.52-1.77-.07c.13-1.93 1.74-3.17 3.74-3.64-1.9-.6-4.83 2.85-4.2 4.49-.24.6-.05 1.28-.18 1.9-.8-.01-5.73-.39-5.88-1.61.51-.16.85-.63 1.29-.91.08.46-.06 1.24.32 1.61.45.45 2.13-.67 2.13-1.53 0-.46-.22-1.14-.76-1.31-.42-.13-.82.14-1.15.06.54-1.13 1.28-2.13 2.29-2.96.83-.69 1.77-.36 2.76-.98-2.54-.26-4.59 1.59-5.28 3.93-.05.17-.09.4.13.34-.08.31-.15.66-.44.85-.1-.58.09-1.26-.42-1.78-.53-.14-1.06.07-1.55.04l.02-.46c.1.06.28 0 .4.02 1.69.26 2.53-2.78 2.85-3.48 1.62-.66 3.4-.5 5.23-.58 3.07-.13 5.63.99 8.62 2.06-2.44-1.73-5.42-2.17-8.39-2.54-.93-.12-1.38-1.1-1.95-1.63l.03-.36c.06-.07.11-.14.16-.22.42-.1.89-.13 1.31-.45.37-1.4.83-2.67 1.3-3.92.07-.19.07-.48.17-.64.46-.67.84-1.41 1.11-2.17.34-.19.54-.53.66-.89.08-.03.16-.13.21-.19.12-.02.19-.13.23-.24l.2-.2c.1-.05.18-.13.23-.23.07-.07.15-.13.2-.2.54-.4 1.13-.78 1.56-1.3 1.47-.57 1.55-1.25 3.91-1.91 2.58-.73 5.36-.44 8.04-.87l1.25-.2Z" fill="#efe6d5"/><path d="M122.81 124.61c-.61-.66-.14-1.48-.26-2.47-.45.91-.34 1.89.07 2.66.46.84-.23 1.88-.83 2.35-.73.57-1.61.63-2.45.49.29-3.2.71-6.38.18-9.57 1.01-.52 1.93-1.41 3.08-1.76.48-.12.85.92.84 1.32l-.04 1.8c1.18.68 1.79 2 1.23 3.27-.38.86-1.05 1.55-1.82 1.91" fill="#efe6d5"/><path d="M74.04 143h-1.02c.13-.63-.05-1.32.18-1.92.12-.29.44-.49.46-.85.57-.45 1.33-.52 1.77.07s.3 1.38-.31 1.9c-.36.31-.92.37-1.08.8" fill="#31426a"/><path d="M119.52 118.07c.53 3.18.11 6.37-.18 9.57-.16-.03-.29-.12-.43-.19.39-1.88.73-7.31.24-9.19.13-.05.25-.12.37-.18Zm-19.3 23.68-.5.03c1.55-3.33-1.86-5.26-3.2-7.6 1.07.75 1.74 1.83 2.6 2.75 1.29 1.39 1.42 3.08 1.1 4.81Zm22.59-17.14c-.07.03-.11.15-.19.19-.42-.77-.52-1.75-.07-2.66.13.99-.35 1.81.26 2.47" fill="#807d7f"/><path d="M34.88 127.6c.69.84 3.66 1.67 4.8 1.96 0 .17 0 .38.17.46 0 .21 0 .45.05.65.31 1.34.97 2.62 2.21 3.43.37.24.71.49.69.91-.2.01-.26.14 0 0 .59-.23 1.15-.54 1.7-.83 1.61-.26 3.31-.33 4.62-1.35.28-.01.56-.02.84 0h.19c3.96 2.6 10.98 5.16 15.94 5.63-.42 3.33-3.7 4.46-6.6 4.68s-5.62.17-8.48.09c-1.52-.04-3.06.22-4.35-.37.56-.39 1.27-.69 1.34-1.52.04-.49-.07-.9-.42-1.23-.28-.26-.78-.24-1.2-.07-.32-1.23.97-2.07 1.79-3.03-1.63.71-2.63 2.48-2.6 4.14 0 .48-.17 1.26-.47 1.61-.89.05-1.79-.42-2.56-.55-.05-.87 1.18-.33 1.01-2.23-.06-.66-.58-.91-1.25-1.2.31-1.09 1.02-1.89 1.77-2.87-1.18.51-1.77 1.78-2 2.87-.43-.06-.84-.23-1.26-.33.12-.32.19-.65.2-.99.8-.48.39-1.21 1.46-1.95-1.08.16-.85 1.29-1.48 1.73-3.05.01-6.22.33-9.15-.44.5-.33 1.14-.62 1.23-1.34.07-.51-.12-.96-.45-1.27-.3-.27-.91-.35-1.16-.05-.06-.16.06-.35-.15-.64-.08.25-.26.49-.31.74-.12.63-.41 1.24-.26 1.88-.07.18 0 .55-.15.62-.11.05-2.33-.06-2.23-.85l.27-.23c.58-.04.74-.57.68-1.16-.05-.48-.28-1.01-.87-1.11a.97.97 0 0 1-.26-.5c.4-.89 1.05-1.58 1.7-2.38-.93.58-1.61 1.42-1.96 2.39-.26-.04-.52-.07-.78-.07.51-2.07 2.01-3.62 4.24-3.94 2.43-.35 2.65-1.28 3.52-1.26Zm1.11 3.16c-2.27-.55-3.51.76-4.55 2.5 2.29-2.56 1.3-1.71 4.55-2.5m9.28 4.73c.8-.2 1.48.31 2.2-.3-1.21-.38-2.48-.2-3.33.55.48.4.71-.15 1.12-.26Zm5.91 1.09c-1.01-.51-2.11-.33-2.85.38 1.01-.21 1.81-.06 2.85-.38" fill="#efe6d5"/><path d="M69.72 134.81c.05-.11.06-.23.09-.34 1.39-.51 2.84-.61 4.47-.58-.46-.7-1.1-1.07-1.33-1.75l.28-.02c.57.53 1.02 1.51 1.95 1.63 2.97.38 5.95.81 8.39 2.54-2.99-1.07-5.55-2.2-8.62-2.06-1.82.08-3.61-.08-5.23.58" fill="#807d7f"/><path d="M31.82 136.79c-.45-.13-.53-.79-1.09-.69-.15-.64.14-1.25.26-1.88.08.07.24.16.31.08l.15-.18c.25-.3.86-.22 1.16.05.33.31.52.76.45 1.27-.09.72-.74 1.01-1.23 1.34Z" fill="#31426a"/><path d="M27.91 132.88c.08.01.18-.02.26 0 .03.19.13.36.26.5l.19 2.27-.27.23c-.5.24-.98-.07-1.33-.45.24-.66.28-1.34-.19-1.88.09-.23.24-.5.3-.74.26 0 .52.03.78.07m14.88 2.13c-.13.07-.18.07-.17.06s.07-.05.17-.06m1.69-.83c-.55.29-1.11.6-1.7.83.02-.42-.32-.67-.69-.91-1.24-.81-1.89-2.09-2.21-3.43h.22c.42 1.58 1.59 2.9 3.02 3.78.56-.14.94-.21 1.35-.27Z" fill="#2f4168"/><path d="M27.02 135.42c-.13-.02-.45 0-.49-.22-.12-.64.11-1.17.3-1.66.47.55.43 1.23.19 1.88" fill="#807d7f"/><path d="M39.84 130.02c-.17-.08-.17-.29-.17-.46.23.06.17.29.17.46" fill="#2f4168"/><path d="M41 137.45c0-.07-.03-.15-.03-.22.63-.44.4-1.57 1.48-1.73-1.07.75-.65 1.47-1.46 1.95Z" fill="#31426a"/><path d="M46.65 142.86c-.19-.09-.48.09-.78-.07l-.14-1.65c.13-.38.57-.68.64-1.1.42-.17.91-.19 1.2.07.35.32.47.74.42 1.23-.08.83-.79 1.13-1.34 1.52" fill="#2f4168"/><path d="M46.37 140.04c-.06.42-.5.72-.64 1.1h-.17c-.03-1.65.97-3.42 2.6-4.13-.82.96-2.1 1.8-1.79 3.03m-4.08-1.27c-.07-.03-.16 0-.23 0 .23-1.09.83-2.36 2-2.87-.75.98-1.47 1.78-1.77 2.87m26.67.53c-.05.1-.07.22-.1.33-.22.06-.18-.17-.13-.34.69-2.34 2.74-4.19 5.28-3.93-.99.62-1.93.29-2.76.98a8.6 8.6 0 0 0-2.29 2.96m4.7.94c-.02.36-.35.55-.46.85-.63-1.64 2.31-5.1 4.2-4.49-2 .47-3.62 1.71-3.74 3.64" fill="#807d7f"/><path d="M79.05 122.39c.4-.57.91-1.04 1.56-1.3-.43.51-1.02.9-1.56 1.3m-.86.88.23-.24c-.04.11-.11.21-.23.24m.42-.44.23-.23c-.05.1-.13.18-.23.23" fill="#272830"/><path d="M45.27 135.49c-.42.1-.64.66-1.12.26.85-.75 2.12-.93 3.33-.55-.72.61-1.4.1-2.2.3Zm5.91 1.09c-1.04.32-1.84.17-2.85.38.74-.71 1.84-.89 2.85-.38" fill="#807d7f"/><path d="m28.61 135.65-.19-2.27c.58.1.81.64.87 1.11.06.59-.1 1.12-.68 1.16" fill="#272830"/><path d="M35.99 130.76c-3.25.79-2.25-.05-4.55 2.5 1.04-1.74 2.27-3.05 4.55-2.5m-7.82 2.11c-.08 0-.18.02-.26 0 .35-.97 1.03-1.81 1.96-2.39-.64.8-1.3 1.49-1.7 2.38Zm3.28 1.25-.15.18c-.07.08-.22 0-.31-.08.05-.24.22-.49.31-.74.2.28.09.47.15.64" fill="#807d7f"/><path d="M66.31 141.33c.26-.04.58.13.83.05.15 1.21 5.09 1.6 5.88 1.61h1.02c1.63.04 3.29.22 5.05.1 4.23-.28 8.31-.15 12.51.13 1.87.12 7.21.52 8.12-1.44l.5-.03c2.62-.17 5.33.06 7.93-.88 3.31-1.2 6.09-3.23 7.94-6.29 1.35-2.22 2.31-4.64 2.82-7.13.14.07.28.17.43.19.84.14 1.72.08 2.45-.49.6-.47 1.28-1.51.83-2.35.07-.04.11-.16.19-.19.78-.36 1.44-1.05 1.82-1.91.56-1.27-.04-2.6-1.23-3.27l.04-1.8c0-.4-.36-1.44-.84-1.32-1.15.35-2.07 1.25-3.08 1.76-.12.06-.25.14-.37.18l-5.28 1.95c-.34.13-.59.55-1.04.43-.69-.19-1.13.42-1.65.52-.58.11-4.03.48-3.89 1.18-1.42-.6-2.83-1.14-4.33-1.68-.82-.29-1.79-.23-2.32-.87.97.09 1.78.45 2.98.88-.07-1.64-.26-3.03-.67-4.56-1.2 0-2.18.34-3.49.53l.98 3.15c-.34 0-.69-.1-1.02-.18.78-.3.07-1.99-.25-2.77-1.08-.04-2.02.27-3.04.44-.12.42.12.82-.25 1.03-.01-.22 0-.48-.08-.66-.23-.51-1.95 0-1.96.47l-1.25.2c-2.68.43-5.46.14-8.04.87 1.36-1 3.22-1.06 4.96-1.19 1.27-.1 2.41-.51 3.57-.69 2.25-.35 4.49-.72 6.71-1.23.54-.12 1.2-.3 1.73-.38 5.73-.8 14.71-3.53 19.37-7.67.44.55-.27.64-.18 1.04-.77.2-1.41.75-2.14 1.38 1.01 2.12 1.35 4.18 1.4 6.69.61-.1 1.77-.54 2-1.27.48-1.51.07-3.22-.2-4.75-.06-.35-.46-.76-.02-.9 1.27 2.99.25 1.8.99 4.82 1.34-2.19 1.08-5.12-.83-6.96-.28-.17-.62.32-.92 0 1.35-1.03-.89-7-1.38-8.32-1.59-4.33-3.1-8.53-5.14-12.69l-7.03-14.36c-3.1-6.34-7.21-11.98-11.84-17.44-3.96 4.46-7.94 6.72-13.37 8.87-3.8 1.5-7.42 3.05-11.12 4.75-.27.13-.52.15-.72.16.86-.85-1.05-3.23.15-2.37.19.62.08 1.25.51 1.81l3.78-1.77c0-1.68-.87-2.9-1.44-4.37 1.2.94 1.4 2.54 1.79 4.22l4.51-1.89c.3-1.11-.51-1.9-.54-3.19.82.7.62 1.9.93 3.11 1.45-.65 3.02-1.14 4.41-1.99.83-.51-1.05-3.6-1.03-4.41 1.11 1.07 1.28 2.58 1.53 4.26 1.7-.71 3.24-1.56 4.78-2.56-.03-2.23-1.03-4.34-2.73-5.66-.9.46-1.51 1.06-2.29 1.33 1.5-1.18 3.05-2.33 4.62-3.41l-.07.36c-.69.3-1.17.91-1.96 1.48 1.54 1.6 2.54 3.38 2.68 5.8 1.21-1.05 2.58-1.84 3.31-3.09 1.09-.48-.32-2.68-.31-3.33.81.65.74 1.67 1.07 2.64.32-.21.92-.59 1.14-1.11.93-2.2.03-4.79-2.01-6.01-.34-.2-.8-.16-1.09-.04-.39.17-.54 1.18-1.08 1.51.88-1.47.9-3.15-.24-4.45-.11-.13-.16-.35-.38-.36 1.17-6.42-1.58-6.97-2.8-8.66l-.19-.26c.27-1.28.12-2.68-.05-3.95 2.97-4.67 5.99-10.55 2.56-16.04-2.07-3.32-4.45-6.53-7.58-9.13 1.11 2.9 2.7 5.22 2.54 8.15-.07 1.2-.38 2.3-.61 3.35-.38.28.24-2.33.25-3.04.06-3.97-1.91-6.93-3.7-9.98l1.19.45c.16-.8-.33-1.59-.85-2.04-.68-.58-1.65-.73-2.58-.31.63.74 1.45 1.06 2.25 1.9-3.02-1.04-5.38 0-8.58.58 2.08-1.4 4.52-1.11 7.11-1.34C75.08 2.5 70.11.73 64.93.63c-3.13-.06-6.26 1.31-8.2 3.54-.33.38-1.02.52-1.09 1.16-1.84 1.14-.69 2.06-1.58 2.54-.78.42-1.11 1.14-1.36 2.21-1.74-1.09-3.77-1.46-5.57-2.22-3.43-1.44-11.85-4.64-15.7-4.52.22.4.75.23.87.59-2.29.1 3.05 2.75 3.8 2.97.67.2 1.34-.16 1.95.51 1.54 1.69 3.34 3.09 5.11 4.39 1.06.78 1.99 1.77 3.33 2.37.3.14.58.42.66.68-.25-.17-.62-.17-.99-.54-2.1.72-4.13 1.51-6.08 2.78.52 1.19 1.79 3.53 2.92 3.71.03.35.03.78-.21.99-.99.87-2.76-2.24-3.55-2.96l-.62 2.37c-.02.11-.02.35.02.46-1.18.13-1.53-2.27-4.24-2.04-2.36.21-2.53 3.02-3.35 2.21.41-1.37 1.59-2.42 2.78-2.74 1.76-.48 3.02.42 4.31 1.59 1.09-2.25.13-3.7 2.87-4.91l3.87-1.72-4.31-3.53c-1.29-1.06-2.51-2.04-4.06-2.7s-6.37-2.83-5.66-5.01c1.75-.22 3.34 0 5.01.47 5.57 1.58 10.87 3.63 16.3 5.79l2.39-3.79C56.54 2.07 60.5.03 64.49 0c4.71-.04 9.1 1.61 13.36 3.58 1.12-.39 2.27-.59 3.42.01 1.22.65 1.19 2.12 1.58 3.2 2.71 3.03 5.49 5.97 7.62 9.52 3.31 5.52.78 11.44-2.37 16.35-.19 1.04.29 2.36-.12 3.5 4.52 4.37 2.97 6.75 3.19 8.73.1.92 1.07 1.97 1.32 2.91 3.03 1.22 4.19 3.61 3.49 6.94 6.44 7.04 11.14 15.15 15.27 23.71 3.57 7.39 7.08 14.55 9.59 22.37.68 2.13 1.38 4.05 1.25 6.44 2.46 2.08 2.78 5.63 1.01 8.37 1.81 1.8.46 2.68 1.75 4.07 1.88 2.04-.36 4.18-1.32 5.36-.29.35 0 1-.22 1.35-.87 1.38-2.31 2.03-3.94 2.04-2.44 9.69-9.47 14.86-19.32 13.95-1.13 1.77-5.67 1.67-7.48 1.51-4.61-.41-9.07-.4-13.7-.2-1.84.08-13.04.19-12.56-2.38m48.42-28.71c-.28 0-.62-.03-.96.11l-2.89 1.2c1.38 2.78.98 3.5 1.13 6.49 1.11-.41 2.2-.67 3.27-1.21.72-.37-.17-5.46-.55-6.59 1.11 1.68 1.1 3.89 1.16 6.28 1.25-.2 2.38-.84 3.64-1.39.27-2.38-.29-4.67-1.29-6.98zm-3.19 7.76c.65-.65-.35-5.32-.86-6.38l-3.46.92c1.23 2.8.76 3.82 1.29 6.41.9-.39 2.26-.17 3.03-.94Zm-3.68.9c.38-.58-.37-5.53-.84-6.36l-3.97 1.1c.65 1.57.9 3.03.77 4.64 1.04.26 3.52 1.4 4.04.61Z" fill="#272830"/><path d="M70.37 69.05c-.13.28-.3.19-.43.21.01-.15-.01-.18.12-.19z" fill="#272830"/><path d="M32.49 71.73s.02.12 0 .17c-1.24 1.91.04 4.43 1.92 5.63-1.08.89-1.31 2.54-.66 3.68.72 1.28 2.19 1.58 3.72 1.19-.83-1.33-.74-2.58-.35-3.98l-1.71-.29c-.35-.06-.7-.22-.7-.54 2.86 1.1 5.99-.34 8.67-1.36.1.73-1.82.61-2.15 1.36-.44 1 .15 2.1.24 3.23-.99-.79-.63-2.05-.52-3.45-1.3.41-2.22.76-3.36.95-.8 1.29-.57 2.88.31 4.15.84-.34 4.58-.58 3.57-1.65.25.04.49.51.82.51l3.49-1.24c-.81-1.13-1.06-2.4-.82-3.96-.43-.21-.78.21-1.37.09.88-.61 2-.76 3.04-1.28l7.52-3.81 6.63-3.37c.44.44-2.79 1.41-3.33 1.91l.52 2.48c-.49-.57-.54-1.33-.78-2.28-1.08.47-2.51 1.03-3.37 1.87-.26 1.18.64 2.43.86 3.66-.9-.86-.93-2.09-1.1-3.6a17.7 17.7 0 0 0-3.98 2.08c-.61-.51.43 4.16.29 3.73-.83-.86-.75-2.27-.87-3.58l-3.71 1.81c-.63 1.18.09 3.11.79 4.16l4.01-1.73-.21-.66c.17.07.57.42.8.32l3.42-1.53c.22-.1.45-.15.55-.29s.06-.36.02-.7c.08.03.47.4.62.24.91-.92 1.85-1.65 2.8-2.5.2-.18-.14-.69-.13-.99l.64.7c1.12-.82 2.29-1.45 3.57-1.97 0-.69-.6-.99-.48-1.58.41.27.33 1.16.84 1.34 1.14-.19 2.15-.74 3.33-.76.21 0 .36-.18.57-.35 1.07.39 2.19-.12 3.48-.26-.08.88 2.98-.09 3.19 1.16-9.63-2.24-18.86 3.49-21.39 12.94-.74 2.76-.85 5.24-.62 8.13.3 3.64 1 7.05 1.84 10.61.42 1.77 1.26 3.63 1.22 5.51-.1 4.67-1.24 9.13-1.87 13.73-.22 1.59-.49 3.04-.1 4.61 5.46 2.21 11.53 5.19 17.27 5.88 2.09-2.5 4.9-9.3 5.83-12.33l2.97-9.69c1.48-4.84 1.38-9.86 1.63-14.92.13-2.52.31-4.97.02-7.5-.04-.35-.51-.8.11-1.01.8 2.67.34 5.36.51 8.03.03.47.11.57-.05 1.12-.3 1.03-.33 10.48-1.46 14.01l-2.12 6.64c-.99 3.09-1.96 6.08-3.19 9.03l4.25-1.76c-.12.36-.32.7-.66.89-.5.04-1.44.09-1.65.64s.03 1.48.54 1.53c-.1.17-.1.45-.17.64-.5.24-.66-1.61-.69-2.24-1.11.52-2.69 1.15-2.5 2.66.17 1.39.31 2.69.58 3.96-.05.08-.1.15-.16.22-.64-.97-.36-2.2-.95-3.44-.81 1.27-1.36 2.49-2.27 3.57-.16.19-.26.39-.22.61.04.24.32.32.55.37-.63.26-.63 1.02-.56 1.6-.03.11-.05.23-.09.34-.32.7-1.15 3.74-2.85 3.48.95-.65 1.87-1.44 2.16-2.68.22-.94.57-1.92.34-2.92-.12-.5-1.19-.69-1.6-.44-.18 2.01-.73 4.06-2.2 5.39.93-1.72 1.74-3.52 1.72-5.57-.84-.36-1.68-.61-2.5-.7-.19 1.66-.3 3.43-1.44 4.73.16-1.51 1.26-2.77 1.05-4.86l-3.62-1.26c-.35 1.11-.33 2.12-.87 3.08h-.22l-.02-.63c.3.29.95-2.27.75-2.42-1.05-.78-2.3-.99-3.62-1.58-.95 1.94-2 3.95-1.87 6.15.06.69 1.27.65 1.69.89s.92.64 1.55.62c.35 0 .35-.49.58-.66.16.36-.02.64.13.92.07.14 3.03 1.14 3.42.9.51-.11.56-.9 1.05-1.15-.04.37-.22.67-.51 1.23.75.51 1.79.66 2.72.31-.11.55.53.39.89.63l-.02.46-.24 2.15c-.53-.11-.63.47-.98.81-2.82 2.78-8.7 2.05-12.5 2.07-3.81.03-8.26.28-11.82-1.69-.45-.25-1.04-.25-1.05-.92 0-.3-.21-.93.34-.95-.02.19 0 .39.02.62.03.26.24.45.55.41.75-.09.97.86 1.75.98s1.67.59 2.56.55c.31-.34.48-1.13.47-1.61h.17l.14 1.64c.3.17.59-.02.78.07 1.29.59 2.82.33 4.35.37 2.86.07 5.62.12 8.48-.09s6.17-1.35 6.6-4.68c-4.97-.47-11.98-3.04-15.94-5.62 1.03.14.11-2.53 1.66-4.12-.51 1.35-.98 2.76-.75 4.32 1.13.61 2.24 1.08 3.47 1.56.15-2.31.7-4.26 2.18-6.1-1.21-.81-2.37-1.09-3.58-1.53-.46-.17-.91-.89-1.54-.55-2.02 1.1-3.29 4.84-1.64 6.42-.28-.02-.56 0-.84 0-.05-.69-.27-1.61-.59-2.29-.62-.37-1.78-.14-2.47-.1-.18 1.32.61 2.16.73 3.41-1.08-.94-.81-2.26-1.12-3.45l-3.16-.42c-.18 1.12.45 1.85.43 2.94-.86-.71-.77-1.84-.74-2.96-.59-.51-1.36-.56-2.02-.98-.06.63-.19 1.2-.06 1.71h-.22c-.05-.2-.05-.45-.05-.65 0-.16.06-.4-.17-.46-1.13-.3-4.11-1.13-4.8-1.96.17 0 .57.06.71-.14.31-.42-.05-.99.32-1.39.26.64-.11 1.13 0 1.79l1.77.68c.51-1.6-.49-2.42-1.34-3.46-.23.31.08.7-.38.85.12-1.08-.12-1.98-1.07-2.58-.78 1.46-.94 3.1 0 4.26-.86-.01-1.09.91-3.52 1.26-2.22.32-3.73 1.87-4.24 3.94-.06.24-.21.5-.3.74-.19.5-.42 1.02-.3 1.66.04.22.36.2.49.22.35.38.83.69 1.33.45-.1.79 2.13.9 2.23.85.15-.08.08-.45.15-.62.56-.1.64.56 1.09.69 2.93.77 6.1.45 9.15.44 0 .07.03.15.03.22-.01.34-.08.67-.2.99-.14-.03-.31.07-.45.06 0-.15 0-.33-.07-.43-.41-.56-10.66.54-13.99-2.3-1.11-.94.92-5 2.07-6.2 1.66-1.73 4.66-.96 5.19-2.18-.09-1.67.22-3.28.91-4.76-5.21-10.35-6.3-20.67-3.6-31.97.69-2.87 1.86-5.37 3-8.07-1.42-1.37-1.56-3.31-.62-5-1.56-1.55-2.33-3.54-1.69-5.82-6.3-3.32-4.71-9.27-6.6-11.81-1.59-2.14-2.51-4.35-3.06-6.77l.35-.21c.52 2.06 1.64 4.07 2.81 5.88 2.38 3.69 1.16 6.77 3.97 10.03.93 1.08 2.2 2.28 3.49 2.84Zm7.58 31.89c-.34 2.06.34 4.09-.25 5.9-.54 1.41-2.18 2.28-2.96 3.53-.82.09-1.35-.12-2.03.08-.18 1 .02 1.95 0 2.96l-2.41-.14c.93 2.6 1.9 5.09 3.42 7.45 3.82 5.89 5.66 6.61 12.92 6.5.52-1.84 1.26-3.07 2.79-4-.19-5.78 2.19-12.83 2.11-18.45-.04-3.19-3.46-9.6-2.85-21.02.19-3.54 1.85-6.7 3.67-9.78-5.72 2.46-13.79 6.96-19.96 6.11-.7 1.5-1.4 2.8-1.72 4.34l1.98.31c.06.93-.07 1.81.12 2.74 3.55.22 1.18 2.33 4.86 1.93l-.04 5.16-3.7-.08c.12-1.01-.25-1.79-1.14-2.15-.12 1.4-.14 2.71-.03 4.06.66.54 1.71.33 2.21.92l3.01 3.6Zm-5.71-15.77H32.7l.01 27.67h1.66zm-3.28 8.32c.02-1.08.47-1.53 1.15-2.17.23-.9.12-2.15.01-3.14-.03-.31-.78-.13-.87.22-.78 3.21-1.2 6.39-1.15 9.69.34.73 1.22 1.44 2.06 1.6-.12-1.24.31-2.73-.15-3.76-.51-.77-1.07-1.25-1.05-2.45Zm8.11.5c-.02-1.57.18-2.77-.06-4.12-1.05.21-1.82.03-2.28-.86-.27-.54-1.58-1.26-1.9-.63-.44.87-.02 2.03-.19 2.94.95.72 1.7 1.43 1.87 2.62.92.08 1.67.15 2.55.05Zm-6.82 1.2c.03-1.08.02-1.99-.17-2.95-.88.83-.9 2.26.17 2.95m4.3 14.42c.87-.95 2.19-1.9 2.66-3.06.24-1.64.3-3.62-.01-5.28-.45-1.27-1.76-2.37-2.56-3.41-.39-.51-1.34-.35-1.91-.65-.24 1.29-.07 2.46-.01 3.77 1.39.54 1.7 1.56 1.69 2.86s-.35 2.33-1.78 2.72l.11 3.17c.52 0 1.36.38 1.81-.11Zm-4.35-4.63c.1-1.59.03-3.12-.08-4.62-.61-.51-1.65-.77-2.09-1.58-.2 1.43.02 2.59.18 3.88 1.7.13.57 1.61 1.99 2.32m2.5-3.36c-.13 1.36-.22 2.68.15 4.02 1.52-.33 1.34-4.01-.15-4.02m-3.8 2.56c-.07-.34-.22-.75-.67-.94 0 1.9.36 3.76.76 5.7.07.35.95.61 1.18.32.38-4.98-.85-3.05-1.27-5.07Zm1.44 5.82c-.28-.13-.91-.21-.92.08-.03.95.28 1.73.76 2.45.18-.86.15-1.64.16-2.53m7.29 16.24c-.61-.73-1.02-1.04-1.54-1.47-.21.53-.24 1.22.34 1.39.29.09.84.54 1.2.08m43.66-72.5c-.37.41-.81.63-.64 1.12-.14-.14-.37-.2-.54-.22.28.03-4.01 2.37-4.6 2.66l-2.35 1.16c-.67.33-1.69.29-1.92 1.19-.8-.4-2.56.96-4.3 1.3 1.48-.85 3.13-1.38 4.75-2.16l3.72-1.79 5.87-3.27Zm-.42 1.34s-.14-.08-.22-.22zm.44.43c-.18-.02-.38-.1-.44-.44.41-.02.36.32.44.44m-18.29 8.27c-.17-.19-.51-.28-.67-.51.5-.15 1.03-.75 1.33-1.05.13-.12.4-.05.4-.18.87-.17 1.51-.71 2.21-.89.07.33-.19.46-.49.61l-2.85 1.32c-.2.12.07.54.08.71Z" fill="#272830"/><path d="M66.02 68.42c-.5-.39-.83-1.41-.87-1.96.38.6.68 1.28.87 1.96m.44 1.1c-.44-.12-.35-.74-.44-1.09.33.26.64.59.44 1.09" fill="#272830"/><path d="M82.78 57.54c.08.14.18.18.22.22.05.34.25.42.44.44-.02.81 1.86 3.91 1.03 4.41-1.4.85-2.96 1.34-4.41 1.99-.3-1.21-.11-2.41-.93-3.11.03 1.29.84 2.08.54 3.19l-4.51 1.89c-.39-1.68-.59-3.29-1.79-4.22.23-.9 1.25-.86 1.92-1.19L77.64 60c.59-.29 4.88-2.64 4.6-2.66.18.02.4.07.54.22Zm-4.36 2.72c0-.06-.05-.11-.11-.11s-.11.05-.11.11.05.11.11.11.11-.05.11-.11M54.7 75.38c.05.33.09.54-.02.7s-.33.19-.55.29l-3.42 1.53c-.23.1-.63-.25-.8-.32.14.44-.89-4.24-.29-3.73 1.23-.85 2.55-1.55 3.98-2.08.17 1.51.2 2.74 1.1 3.6Z" fill="#31426a"/><path d="m49.9 77.58.21.66-4.01 1.73c-.7-1.05-1.42-2.98-.79-4.16L49.02 74c.12 1.31.03 2.72.87 3.58Zm23.46-15.24c.57 1.47 1.44 2.7 1.44 4.37l-3.78 1.77c-.43-.55-.32-1.19-.51-1.81-1.19-.86.71 1.52-.15 2.37l-.31.02c-.13 0-.1.04-.12.19-1.29.14-2.4.65-3.48.26.2-.5-.11-.84-.44-1.09-.19-.68-.49-1.36-.87-1.96-.01-.17-.28-.58-.08-.71l2.85-1.32c.31-.14.56-.28.49-.61.32-.08.51-.17.65-.2 1.74-.33 3.5-1.7 4.3-1.3Zm-3.84 2.17c0-.13-.11-.24-.24-.24s-.24.11-.24.24.11.24.24.24.24-.11.24-.24m.2.54c0-.06-.05-.11-.11-.11s-.11.05-.11.11.05.11.11.11.11-.05.11-.11m.38 1.18c.23-.51-.17-.88-.3-.78-.23.23-.02.74.3.78" fill="#31426a"/><path d="M64.47 65.96c.16.22.5.32.67.51.04.54.37 1.57.87 1.96.1.35 0 .97.44 1.09-.21.17-.36.34-.57.35-1.18.02-2.19.57-3.33.76-.51-.18-.43-1.06-.84-1.34-.12.59.47.89.48 1.58-1.28.52-2.45 1.15-3.57 1.97l-.64-.7-.52-2.48c.54-.5 3.77-1.47 3.33-1.91 1.32-.56 2.43-1.42 3.68-1.8Zm-2.78 2.9c0-.08-.06-.14-.14-.14s-.14.06-.14.14.06.14.14.14.14-.06.14-.14" fill="#31426a"/><path d="M121.71 110.22c-.21-.49-.49-.99-1.03-1.15-.09-.39.62-.48.18-1.04-4.66 4.14-13.65 6.87-19.37 7.67.02-.55-.49-1.39.36-1.65.8-.25 1.27 1.42 1.76.72.12-.17.16-.57.01-.82-.91-1.57-3.35.07-3.92-.58 0-.05-.7-3.03-.47-2.75-.4-.5-1.23-.33-1.46-1.19-.12-.44.64-.41.78-.75-.45-.61-1.02.21-1.49.38-.83.31-1.79.18-2.51.78-.55.47-1.18 1.16-2 .95.17-.48.43-.65.42-.92-.03-.76-1.04-.21-2.86-.87-.69-.25-1.46.49-2.12.45-.42-.02-.97-.38-1.57-.08.07-.68-.08-1.16-.59-1.49-1.66-1.07-1.94 1.89-3.26 1.95-2.94.12-1.68-.9-3.53-.29 1.12-3.52 1.16-12.98 1.46-14.01.16-.54.08-.64.05-1.12-.17-2.67.29-5.36-.51-8.03-.61.21-.14.66-.11 1.01.28 2.53.1 4.97-.02 7.5-.25 5.06-.15 10.08-1.63 14.92l-2.97 9.69c-.93 3.04-3.74 9.83-5.83 12.33-5.73-.69-11.8-3.67-17.27-5.88-.39-1.57-.12-3.02.1-4.61.63-4.6 1.77-9.06 1.87-13.73.04-1.88-.8-3.73-1.22-5.51-.84-3.56-1.54-6.97-1.84-10.61-.24-2.89-.12-5.37.62-8.13 2.53-9.45 11.75-15.18 21.39-12.94-.2-1.25-3.27-.28-3.19-1.16.13-.01.31.07.43-.21.21-.01.45-.03.72-.16 3.7-1.7 7.32-3.25 11.12-4.75 5.43-2.14 9.42-4.4 13.37-8.87 4.63 5.46 8.74 11.1 11.84 17.44l7.03 14.36c2.04 4.16 3.54 8.36 5.14 12.69.48 1.31 2.72 7.29 1.38 8.32.3.32.63-.17.92 0 1.9 1.84 2.16 4.77.83 6.96-.74-3.02.28-1.83-.99-4.82ZM83.62 89.95c.17-.39 1.28-4.86.25-4.81.19 2.83-.65 5.41-2.07 7.72-.36.59-.92 1.06-.89 1.78 1.23-1.47 1.97-3.03 2.7-4.69Z" fill="#31426a"/><path d="M83.43 58.19c-.08-.11-.03-.46-.44-.44l-.22-.22c-.18-.49.27-.71.64-1.12s.79-.68 1.3-.86c.78-.27 1.38-.87 2.29-1.33 1.7 1.32 2.7 3.43 2.73 5.66-1.54 1-3.08 1.85-4.78 2.56-.24-1.68-.41-3.18-1.53-4.26ZM57.99 72.14c-.02.3.33.81.13.99-.95.85-1.88 1.58-2.8 2.5-.15.15-.54-.21-.62-.24-.21-1.22-1.11-2.48-.86-3.66.85-.85 2.28-1.4 3.37-1.87.24.96.29 1.72.78 2.28" fill="#31426a"/><path d="M101.49 115.7c-.52.07-1.19.25-1.73.38.01-.45-.25-.82-.68-1.09-.68-.44-.61-1.46-1.39-1.49-.26-.01-.15.44-.32.6-1.87 1.84-4.64 1.78-4.32 3.2-1.16.18-2.3.6-3.57.69-1.75.13-3.6.19-4.96 1.19-2.36.67-2.44 1.34-3.91 1.91-.65.25-1.16.72-1.56 1.3-.05.08-.14.14-.2.2l-.23.23c-.07.07-.14.13-.2.2l-.23.24c-.06.06-.14.16-.21.19l-4.25 1.76c1.23-2.96 2.2-5.94 3.19-9.03l2.12-6.64c1.84-.61.59.41 3.53.29 1.31-.05 1.59-3.02 3.26-1.95.52.33.67.81.59 1.49.6-.29 1.15.06 1.57.08.66.04 1.43-.7 2.12-.45 1.83.67 2.83.11 2.86.87.01.27-.25.44-.42.92.82.21 1.45-.48 2-.95.72-.61 1.68-.48 2.51-.78.46-.17 1.03-.99 1.49-.38-.14.33-.9.31-.78.75.23.86 1.06.68 1.46 1.19-.23-.28.47 2.7.47 2.75.58.66 3.01-.99 3.92.58.15.25.11.64-.01.82-.49.7-.96-.97-1.76-.72-.85.27-.34 1.11-.36 1.65" fill="#2f4168"/><path d="M93.3 56.69c-.3-1.1-1.53-1.51-2.36-2.28-.64-.6-.87-1.55-1.67-1.9l.07-.36c.68-.47.94-1.36 1.67-1.79.54-.32.69-1.34 1.08-1.51.29-.12.75-.17 1.09.04 2.04 1.21 2.95 3.8 2.01 6.01-.22.52-.82.9-1.14 1.11-.33-.97-.26-1.99-1.07-2.64-.01.65 1.41 2.85.31 3.33Zm-.37-3.61c0-.08-.06-.14-.14-.14s-.14.06-.14.14.06.14.14.14.14-.06.14-.14m21.8 59.54 3.51-2.09c1 2.31 1.56 4.6 1.29 6.98-1.26.56-2.39 1.19-3.64 1.39-.06-2.39-.05-4.6-1.16-6.28" fill="#31426a"/><path d="M114.73 112.62c.38 1.13 1.27 6.22.55 6.59-1.06.54-2.16.8-3.27 1.21-.15-2.99.25-3.71-1.13-6.49l2.89-1.2c.34-.14.68-.12.96-.11m-6.87 8.66c-.52.78-3-.35-4.04-.61.14-1.61-.11-3.07-.77-4.64l3.97-1.1c.47.83 1.22 5.78.84 6.36Z" fill="#2f4168"/><path d="M111.54 120.38c-.77.77-2.13.55-3.03.94-.54-2.59-.06-3.61-1.29-6.41l3.46-.92c.51 1.07 1.51 5.73.86 6.38Z" fill="#31426a"/><path d="M93.3 56.69c-.73 1.25-2.09 2.04-3.31 3.09-.14-2.42-1.14-4.2-2.68-5.8.78-.57 1.27-1.17 1.96-1.48.8.36 1.03 1.31 1.67 1.9.83.78 2.07 1.19 2.36 2.28Zm27.38 52.38c.54.16.82.66 1.03 1.15-.43.14-.04.55.02.9.27 1.53.68 3.24.2 4.75-.23.73-1.39 1.17-2 1.27-.06-2.52-.4-4.57-1.4-6.69.73-.62 1.37-1.17 2.14-1.38Zm-20.06 10.72h-.2l-.98-3.15c1.32-.19 2.29-.53 3.49-.53.41 1.53.61 2.92.67 4.56-1.21-.43-2.01-.79-2.98-.88" fill="#2f4168"/><path d="M99.76 116.08c-2.22.51-4.46.88-6.71 1.23-.32-1.43 2.45-1.37 4.32-3.2.17-.16.06-.61.32-.6.78.03.71 1.04 1.39 1.49.43.28.69.65.68 1.09Z" fill="#31426a"/><path d="M99.4 119.61c-1.38-.34-2.77-.7-4.18-.91-.06-.15-.05-.42.18-.36.1.02.25.19.46-.03.38-.21.13-.61.25-1.03 1.02-.18 1.96-.48 3.04-.44.32.79 1.03 2.47.25 2.77" fill="#2f4168"/><path d="M95.86 118.31c-.21.21-.35.05-.46.03-.23-.05-.24.21-.18.36-.53-.08-1.01-.18-1.41-.58.01-.46 1.73-.98 1.96-.47.08.18.07.44.08.66Z" fill="#31426a"/><path d="m40.07 103.62-3.01-3.6c-.49-.59-1.55-.39-2.21-.92-.11-1.35-.09-2.67.03-4.06.89.36 1.26 1.14 1.14 2.15l3.7.08.04-5.16c-3.69.4-1.31-1.71-4.86-1.93-.19-.93-.06-1.81-.12-2.74l-1.98-.31c.32-1.54 1.03-2.84 1.72-4.34 6.17.85 14.24-3.66 19.96-6.11-1.82 3.08-3.48 6.24-3.67 9.78-.6 11.42 2.81 17.83 2.85 21.02.07 5.62-2.3 12.67-2.11 18.45-1.53.93-2.27 2.16-2.79 4-7.26.1-9.1-.61-12.92-6.5-1.53-2.36-2.49-4.86-3.42-7.45l2.41.14c.02-1.01-.18-1.95 0-2.96.68-.2 1.21 0 2.03-.08.79-1.25 2.42-2.13 2.96-3.53.59-1.81-.08-3.84.25-5.9Z" fill="#2f4168"/><path d="M50.13 132.84h-.19c-1.66-1.59-.38-5.33 1.64-6.43.63-.34 1.08.38 1.54.55 1.2.44 2.37.72 3.58 1.53-1.48 1.85-2.03 3.79-2.18 6.1-1.23-.48-2.34-.94-3.47-1.56-.23-1.56.24-2.97.75-4.32-1.54 1.58-.62 4.26-1.66 4.12Zm1.95-4.45c0-.06-.05-.11-.11-.11s-.11.05-.11.11.05.11.11.11.11-.05.11-.11m11.29 7.72c-.48.25-.53 1.04-1.05 1.15-.39.24-3.34-.77-3.42-.9-.15-.28.02-.55-.13-.92-.24.17-.23.66-.58.66-.64.01-1.12-.38-1.55-.62.28-.13.57-.23.97-.36l1.33-2.17c.19-.32.43-.52.75-.5l.02.63c-.09.06-.21.05-.22.13-.03.12.03.29.12.31.13.04.25-.01.32-.11.05-.06-.06-.22 0-.33.55-.96.52-1.97.87-3.08l3.62 1.26c.21 2.09-.89 3.35-1.05 4.86Zm-3.88-1.9c.24-.11.28-.25.21-.38s-.2-.17-.33-.11-.13.21-.11.38c-.24.11-.28.25-.21.38s.2.17.33.11.13-.21.11-.38m-.2.82c0-.13-.11-.24-.24-.24s-.24.11-.24.24.11.24.24.24.24-.11.24-.24" fill="#31426a"/><path d="M59.68 132.44c-.31-.02-.55.19-.75.5l-1.33 2.17c-.4.13-.69.24-.97.36-.42-.24-1.64-.2-1.69-.89-.13-2.2.93-4.21 1.87-6.15 1.31.59 2.57.8 3.62 1.58.2.15-.45 2.71-.75 2.42Z" fill="#2f4168"/><path d="M49.1 132.83c-1.3 1.02-3.01 1.1-4.62 1.35-.41.06-.79.14-1.35.27-1.44-.88-2.61-2.2-3.02-3.78-.13-.51 0-1.08.06-1.71.66.42 1.43.48 2.02.98-.04 1.12-.12 2.25.74 2.96.01-1.1-.61-1.82-.43-2.94l3.16.42c.31 1.19.05 2.51 1.12 3.45-.12-1.25-.92-2.09-.73-3.41.69-.04 1.85-.26 2.47.1.33.68.54 1.6.59 2.29Zm-5.94.35c0-.06-.05-.11-.11-.11s-.11.05-.11.11.05.11.11.11.11-.05.11-.11m.22.43c0-.06-.05-.11-.11-.11s-.11.05-.11.11.05.11.11.11.11-.05.11-.11" fill="#31426a"/><path d="M65.58 137.64c-.93.35-1.97.2-2.72-.31.29-.55.47-.85.51-1.23 1.14-1.3 1.25-3.08 1.44-4.73.81.09 1.66.33 2.5.7.01 2.05-.79 3.85-1.72 5.57ZM41.47 80.82c-.1-1.13-.68-2.23-.24-3.23.33-.75 2.25-.63 2.15-1.36h.22c.59.12.94-.31 1.37-.1-.24 1.56 0 2.83.82 3.96l-3.49 1.24c-.33 0-.56-.47-.82-.51Z" fill="#2f4168"/><path d="M41.47 80.82c1.01 1.08-2.73 1.31-3.57 1.65-.88-1.27-1.11-2.86-.31-4.15 1.13-.18 2.06-.54 3.36-.95-.11 1.4-.47 2.66.52 3.45" fill="#31426a"/><path d="M34.41 77.53c.08.05.21.03.3.07 0 .32.35.48.7.54l1.71.29c-.4 1.4-.49 2.65.35 3.98-1.52.39-2.99.08-3.72-1.19-.65-1.15-.42-2.8.66-3.68Zm42.9 46.82c-.27.76-.65 1.51-1.11 2.17-.51-.05-.76-.95-.54-1.53s1.15-.6 1.65-.64" fill="#31426a"/><path d="M76.03 127.17c-.47 1.26-.93 2.53-1.3 3.92-.42.32-.89.35-1.31.45-.27-1.27-.41-2.57-.58-3.96-.19-1.51 1.39-2.14 2.5-2.66.03.64.19 2.48.69 2.24Zm-9.16 11.12c-.12-.02-.31.04-.4-.02-.36-.23-1-.08-.89-.63 1.47-1.33 2.02-3.39 2.2-5.39.41-.25 1.48-.06 1.6.44.23.99-.13 1.98-.34 2.92-.29 1.24-1.21 2.03-2.16 2.68ZM34.88 127.6c-.95-1.15-.78-2.8 0-4.26.95.61 1.18 1.5 1.07 2.58.47-.15.15-.54.38-.85.85 1.05 1.85 1.86 1.34 3.46l-1.77-.68c-.1-.66.26-1.15 0-1.79-.37.41 0 .97-.32 1.39-.14.19-.54.14-.71.14Zm38.37 4.16-.03.36-.28.02c-.92.08-1.72.38-2.58.73-.23-.05-.51-.13-.55-.37-.04-.22.06-.41.22-.61.91-1.08 1.46-2.3 2.27-3.57.59 1.24.31 2.48.95 3.44" fill="#31426a"/><path d="M32.71 87.85h1.66v27.67h-1.66zm3.96 24.44c-.45.49-1.3.12-1.81.11l-.11-3.17c1.42-.39 1.77-1.43 1.78-2.72s-.3-2.32-1.69-2.86c-.06-1.3-.22-2.48.01-3.77.57.3 1.51.13 1.91.65.8 1.04 2.11 2.14 2.56 3.41.32 1.66.25 3.65.01 5.28-.47 1.16-1.79 2.1-2.66 3.06Zm2.52-15.62c-.88.09-1.63.02-2.55-.05-.17-1.19-.92-1.9-1.87-2.62.16-.91-.26-2.07.19-2.94.32-.63 1.63.1 1.9.63.45.89 1.23 1.07 2.28.86.24 1.35.03 2.56.06 4.12Zm-8.11-.5c-.02 1.2.54 1.67 1.05 2.45.47 1.03.03 2.51.15 3.76-.84-.17-1.72-.87-2.06-1.6-.05-3.3.38-6.48 1.15-9.69.08-.35.83-.53.87-.22.11.99.22 2.23-.01 3.14-.68.64-1.13 1.08-1.15 2.17Z" fill="#efe6d5"/><path d="M32.32 107.66c-1.43-.72-.29-2.19-1.99-2.32-.15-1.29-.37-2.44-.18-3.88.44.81 1.47 1.07 2.09 1.58.11 1.49.19 3.03.08 4.62" fill="#2f4168"/><path d="M31.02 106.86c.42 2.03 1.65.09 1.27 5.07-.23.29-1.11.03-1.18-.32-.4-1.94-.75-3.8-.76-5.7.45.19.6.61.67.94Z" fill="#efe6d5"/><path d="M34.82 104.3c1.49 0 1.67 3.69.15 4.02-.37-1.34-.28-2.65-.15-4.02m-2.36 8.38c0 .89.02 1.67-.16 2.53-.48-.73-.79-1.5-.76-2.45.01-.29.64-.21.92-.08m-.09-14.81c-1.07-.69-1.06-2.11-.17-2.95.19.96.2 1.87.17 2.95m7.38 31.05c-.36.47-.91.01-1.2-.08-.57-.17-.55-.86-.34-1.39.51.43.93.74 1.54 1.47" fill="#2f4168"/><path d="M83.62 89.95c-.73 1.65-1.47 3.22-2.7 4.69-.03-.72.52-1.18.89-1.78 1.41-2.32 2.25-4.89 2.07-7.72 1.03-.05-.08 4.42-.25 4.81Z" fill="#272830"/><circle cx="78.31" cy="60.26" r=".11" fill="#272830"/><path d="M70.1 66.23c-.32-.04-.53-.55-.3-.78.13-.1.53.27.3.78" fill="#272830"/><circle cx="69.28" cy="64.51" r=".24" fill="#272830"/><circle cx="69.61" cy="65.05" r=".11" fill="#272830"/><circle cx="92.79" cy="53.08" r=".14" fill="#272830"/><circle cx="51.98" cy="128.39" r=".11" fill="#272830"/><path d="M59.49 134.21c.02.18.02.33-.11.38-.12.05-.26 0-.33-.11s-.03-.27.21-.38c-.02-.18-.02-.33.11-.38s.26 0 .33.11.03.27-.21.38" fill="#2f4168"/><circle cx="59.05" cy="135.03" r=".24" fill="#2f4168"/><path d="M59.92 133.07c-.06.11.05.27 0 .33a.28.28 0 0 1-.32.11c-.09-.03-.15-.19-.12-.31.02-.08.13-.07.22-.13z" fill="#2f4168"/><circle cx="61.55" cy="68.86" r=".14" fill="#272830"/><circle cx="43.05" cy="133.18" r=".11" fill="#272830"/><circle cx="43.27" cy="133.61" r=".11" fill="#272830"/></svg>