<?xml version="1.0" encoding="UTF-8"?>
<svg id="Layer_1" data-name="Layer 1" xmlns="http://www.w3.org/2000/svg" viewBox="0 0 144 144">
  <defs>
    <style>
      .cls-1 {
        fill: #1d1919;
      }

      .cls-2 {
        fill: #e7e8e0;
      }

      .cls-3 {
        fill: #7c7c7c;
      }

      .cls-4 {
        fill: #27375b;
      }

      .cls-5 {
        fill: #ebe1d2;
      }

      .cls-6 {
        fill: #e6d8c5;
      }

      .cls-7 {
        fill: #c36463;
      }

      .cls-8 {
        fill: #35466c;
      }

      .cls-9 {
        fill: #1b1d28;
      }

      .cls-10 {
        fill: #304267;
      }

      .cls-11 {
        fill: #ede7d7;
      }

      .cls-12 {
        fill: #2d3f65;
      }

      .cls-13 {
        fill: #ede5d5;
      }

      .cls-14 {
        fill: #292830;
      }

      .cls-15 {
        fill: #96928a;
      }

      .cls-16 {
        fill: #bfc6ce;
      }

      .cls-17 {
        fill: #eae4d6;
      }

      .cls-18 {
        fill: #293b62;
      }

      .cls-19 {
        fill: #ede4d3;
      }

      .cls-20 {
        fill: #5e5f64;
      }

      .cls-21 {
        fill: #f0f1f1;
      }

      .cls-22 {
        fill: #3d3f41;
      }

      .cls-23 {
        fill: #47474b;
      }

      .cls-24 {
        fill: #2b3d62;
      }
    </style>
  </defs>
  <path class="cls-22" d="M24.88,45.71l-.66-.02c0-.14,0-.37.12-.43s.54-.03.53.09c0,.09,0,.28.01.36Z"/>
  <g>
    <path class="cls-22" d="M27.44,37.2c1.56,3.32,1.43,5.16,1.12,8.7-.16.06-.46.21-.63.29,0-.07,0-.22,0-.29.25-3.15.52-5.64-1.31-8.46,0-.08.02-.21,0-.28l.81.05Z"/>
    <path class="cls-14" d="M24,45.94l-.49,1.93h-.75c-.03-.27-.06-.59-.09-.83l-.14-.91c.41-.2.96-.23,1.47-.19Z"/>
    <path class="cls-16" d="M27.71,45.88v.46s-.84.67-.84.67h-.56c-.05-.1-.19-.33-.14-.44.13-.28.43-.9.53-1.07l1.02.37Z"/>
    <path class="cls-15" d="M22.66,47.04c-.3.04-.48-.53-.45-.87l.3-.04.14.91Z"/>
    <g>
      <path class="cls-5" d="M38.59,55.05c-.02.16-.03.53-.03.77,0,.17.25.28.47.32,0,.12,0,.33,0,.44-.87,2.02.84,6.19,2.91,7.69,1.94,1.41,4.16,2.29,6.42,2.32h1.1s1.74-.23,1.74-.23c4.32.71,8.04,1.55,12.42.35l.26.36c-.12.06-.39.1-.5.18-1.06.77-3.31,1.86-4.57,2.56h-.22s-4.71,2.51-4.71,2.51c-1.23.65-2.42,1.2-3.5,1.92-.6.07-1.26.63-1.79.82-3.71,1.33-8.76,3.91-12.23,2.41-.21-.09-.6-.32-.81-.43-1.41-1.04-1.66-3.76-1.14-5.01l2.42.44c.47.08,1.4.51,1.9.41l6.37-1.28,2.8-.38c-1.03-.53-1.98-.1-2.8.16-2.84-.03-5.14,1.65-8.27.87-.69-.17-1.52-.4-2.18-.67-2.17-.88-5.08-3.6-5.03-5.64.77.1,1.49.44,2.39-.03l-2.38-.4-2.19-.44-3.37-1.42-1.4-.6c-.11-.09-.3-.24-.38-.33-3.44-3.76-.44-5.42-3.67-8.59-2.27-2.23-2.09-5.03-.67-5.78,1.27-.68,3.46,1.07,5.46,1.79l4.72,1.69c3.74,1.34,5.81,2.9,10.68,1.26l-.24,1.96ZM24.9,56.27c-1.45-1.03-2.95-2.1-4.76-1.95l4.76,1.95ZM29.04,55.05c0-.13-.11-.24-.24-.24s-.24.11-.24.24.11.24.24.24.24-.11.24-.24ZM32.5,56.79c1.38.29,2.94.41,4.22-.35-1.47-.27-3,.6-4.22.13l-3.37-1.3c.89,1.02,2.21,1.28,3.37,1.52ZM27.35,57.81c-.73-.69-1.43-1.17-2.35-1.47.66.74,1.43,1.28,2.35,1.47ZM28.59,58.41l-1.09-.53c.05.52.51.58,1.09.53ZM27.77,62.9l-.91-.44c.18.41.65.84.91.44ZM37.83,66.16c-3.61-.86-6.72-1.55-9.92-3.05.33.33.67.61,1.07.94,2.93.97,5.74,2.25,8.85,2.11Z"/>
      <path class="cls-22" d="M42.53,16.54c-.37.21-.68.53-1.06.89l-.62,1.16c-1.13-.58-5.18,1.71-3.89,3l2.22,2.22-.21.06-2.04-.02c0-.07,0-.15-.02-.19-.1-.25-.34-.57-.61-.83l.08.88-.02.22-.19.02-2.18-1.04c-1.7-.81-3.59.02-4.31,1.69l-.9,2.11-.38-1.56-3.3,1.18.14-.44c.8-.38,1.54-.98,2.7-1.05.64-.04,1.2-.5,1.56-1.05.99-1.5,2.77-2.18,4.44-1.47l2.01.86c.06-.67,0-1.57.15-2.21.31-1.37,1.72-2.43,2.99-2.7s3.17-1.59,2.81-2.35c.3.09.5.28.62.6Z"/>
      <polygon class="cls-20" points="26.87 47.02 26.86 47.24 26.31 47.2 26.31 47.01 26.87 47.02"/>
      <path class="cls-20" d="M19.45,44.59l-.77,2.15c-.09.26-.06,1.06.17,1.14l.95.34.73.26c.19.07.43-.22.63-.41.07.24.09.71.25.74l.83.15c.07.17.23.58.43.59.25,0,.72-.09.94-.16.18.21.62.43.92.37.33-.06.52-.66.45-1.05-.1-.56-.34-.97-.77-1.07l1.28-.17.69-.09c.06.06.2.23.28.17l.41-.3c.36.03.91.28.98.62-.53-.39-.96.18-1.42.67-.42.45-.99,1.28-.21,1.77.38.24,1.25.49,1.68.6l-.09.38.94.41c.07.03.21.05.28.08.78.39,2.35,1.01,3.29,1.09.28.31.76.42,1.27.47l1.78.15-.89-.44c.41-.03.89-.11,1.29-.23l-.21.57,2.44-.34-.48-.18v-.22c.37.18,1.3.04,1.42-.36.1-.34.05-.99-.06-1.35l.27-.04c.08-.01.15-.35.15-.44l-.04-2.81.44-.44c.18,3.09-.65,4.81-.65,7.83h-.44l.24-1.96c-4.87,1.63-6.93.08-10.68-1.26l-4.72-1.69c-2.01-.72-4.19-2.47-5.46-1.79-1.42.76-1.59,3.56.67,5.78,3.23,3.17.22,4.82,3.67,8.59-.06.08-.11.14-.16.19-.35.37-2.48-2.12-2.35-5.22.14-3.44-3.64-3.11-3.48-7.43.06-1.53,1.17-1.98,1.94-2.9.58-.69.02-2.55,1.19-2.77ZM25.65,48.93l.33-1.18c-.15-.05-.77.26-.81.5-.04.21.36.68.47.68Z"/>
      <path class="cls-22" d="M29.65,65.49v.43c-.06,2.04,2.85,4.76,5.02,5.64-.07.12-.19.33-.24.45-.53,1.25-.27,3.97,1.14,5.01l-.04.52c0,.12-.28-.06-.4-.11-1.48-1.45-1.92-3.54-1.32-5.7-2.2-1.36-4.07-3.16-4.84-5.7l-1.68-.75.18-.22,2.19.44Z"/>
      <path class="cls-21" d="M23.55,32.86c.06.19.25.55.43.64l-.04,1.92c0,.18-.3.55-.41.68-.28.33-.83.98-1.23,1.34-.97-1.57-.58-3.12-.03-4.58.23-.37.97-.05,1.28,0Z"/>
      <path class="cls-21" d="M22,46.2l.22-.03c-.03.34.14.9.45.87.04.24.07.57.09.82.04.41-.19.87-.53,1.08l-.83-.15c-.16-.03-.18-.5-.25-.74-.2.19-.44.48-.63.41l-.73-.26-.95-.34c-.23-.08-.26-.88-.17-1.14l.77-2.15.42-.62s.31.05.46.07c.45,1.26.81,2.78.92,4.07l.75-1.9Z"/>
      <path class="cls-20" d="M25.25,25.89l-.14.44c-1.13,1.01-2.34,1.97-2.85,3.49-.27.82-.36,2.06.64,2.44.51.19,1.42.15,1.99.15h.44l-1.76.44c-.32-.05-1.06-.36-1.28,0-.2-.99-1.18-1.26-.56-3.2.6-1.87,1.98-3.04,3.55-3.78Z"/>
      <path class="cls-20" d="M27.46,65.06l-.18.22c-.38.23-5.34-1.46-4.58-2.24l1.4.6,3.37,1.42Z"/>
      <path class="cls-2" d="M24.88,45.71c.05.11.13.32.18.42.16.31.41.95.42,1.33l-1.28.17-.45.27c-.07,0-.19-.03-.25-.03l.49-1.93c.02-.08.17-.2.23-.25l.66.02Z"/>
      <path class="cls-23" d="M22,46.2l-.75,1.9c-.11-1.28-.47-2.81-.92-4.07-.15-.02-.46-.07-.46-.07v-.34c0-.08.53-.19.56-.12.65,1.31.25,2.85,1.56,2.7Z"/>
      <path class="cls-2" d="M25.73,37.19l-.85.74-.21-.71c-.18-.53.68-1.6,1.14-1.38.51.25.21,1.09-.09,1.35Z"/>
      <path class="cls-3" d="M24.49,33.77c-.3.6-.28,1.59.04,2.26.83-.05,1.74-1.03,1.39-1.85l.7.64c-.19.59-.09,1.76,0,2.34.01.07,0,.2,0,.28l-.88-.24c.3-.26.6-1.1.09-1.35-.47-.22-1.32.86-1.14,1.38-.55-.02-.37-1.02-.62-1.05l-.52-.06c.11-.13.41-.51.41-.68l.04-1.92.5.26Z"/>
      <path class="cls-22" d="M26.16,46.58c-.05.11.09.34.14.43v.18s-.13.18-.13.18l-.69.09c-.01-.38-.26-1.02-.42-1.33.37.2.74.39,1.1.45Z"/>
      <path class="cls-14" d="M27.93,46.18l-.22.16v-.46c.06.02.14.01.21.01,0,.07,0,.22,0,.29Z"/>
      <path class="cls-19" d="M36.81,27.79c2.62.84,2.16,2.94,3.55,3.07,1.41,2.26,1.62,5.01,2.11,7.81.48-.77.13-1.63.07-2.57,1.33-.02-.22.39,1.34,1.63,1.27,1.01-1.18,2.82-1.75,2.77l-.18-.25c-.05-.07-.35.04-.31.11l.2.39c.98,1.91.46,2.6,1.15,3.2.07.26.14.79.1,1.09l-.3,2.14,2.16.88,1.71,1.49c.17.14.35.69.56.68.94-.01.96-.94,1.28-.8l.52.25,1.92-1,1.02,1.07c-.92.09-1.61.17-2.01.65l1.7,2.74.04.83c.92-.21,1.19-.04,1.72.4l1.84,1.55c.12.59.71-1.8.45-1.94l-.88-.45c-.08.04.11-.53.23-.45l.51.34c.22.15.72-.22,1.03-.39,2.72-1.46,1.97-3.51,3.54-3.2-1.4,3.35-3.13,6.45-5.94,9.12.7-.22,1.18-.64,1.58-1.07.25.27.61.7.65,1.01.07.5-.98,1.59-.68,1.86l.54.48.79.73c.19.17.88-.18,1.15-.16l2.16.24c.37.04,1.04.02,1.09.29.17.96-.83,1.57-.52,2.06.74,1.17.76.3,1.16,2.19-2.23.43-4.48.41-6.75.02,0-.52.53-.98.95-1.25.07-.2.15-.66.16-.88,1.22-.39,2.46-.98,3.55-1.82l-6.27,2.38c-1.42.54-2.81,1.09-4.23,1.15-.34.01-.84.03-1.17,0-1.42-.08-2.82-.59-4.19-1.19-2.84-1.24-4.73-3.77-4.99-6.86l-.13-1.57c0-.11,0-.31,0-.44v-1.09c0-3.02.83-4.74.65-7.83-.03-.44-.23-1.11-.29-1.56-.31-2.36-1.48-4.37-2.71-6.28s-2.33-3.6-4.48-4.78l-2.61-1.44c-.55-.3-.92-.6-.79-1.17.07-1.09.55-2.16,1.11-3.12l.87-.41c.19-.09.61-.12.81-.17h1.98c.55.15,1.2.14,1.74-.03l1.48-.47ZM34.7,30.19c0-.23-.19-.42-.42-.42s-.42.19-.42.42.19.42.42.42.42-.19.42-.42ZM32.56,31.31c0-.22-.18-.39-.39-.39s-.39.18-.39.39.18.39.39.39.39-.18.39-.39ZM37.56,32.21c0-.23-.19-.42-.42-.42s-.42.19-.42.42.19.42.42.42.42-.19.42-.42ZM34.72,33.33c0-.24-.19-.43-.43-.43s-.43.19-.43.43.19.43.43.43.43-.19.43-.43ZM38.11,35.29c0-.24-.19-.43-.43-.43s-.43.19-.43.43.19.43.43.43.43-.19.43-.43ZM40.73,38.95c0-.1-.08-.19-.19-.19s-.19.08-.19.19.08.19.19.19.19-.08.19-.19ZM40.98,39.47c-.12.02.18.31.29.36s.35.21.31.1l-.18-.48c-.03-.07-.24-.02-.41,0Z"/>
      <path class="cls-3" d="M68.14,64.9v.18s-1.27.63-1.27.63h-.65c-.52,0-2.19.61-1.96,1.13-.09.06-.28.17-.37.22l-.26-.36c-4.38,1.2-8.1.37-12.42-.35l-1.74.25.04-.4c1.42-.06,2.81-.62,4.23-1.15l6.27-2.38c-1.09.84-2.33,1.43-3.55,1.82-1.37.44-2.67.82-4.23,1.55,1.07.45,2.09.4,3.12.57,2.27.39,4.51.41,6.75-.02,5.47-1.05,10.38-5.85,11.79-11.18.38,1.4-.76,2.11-.7,3.5l2-1.42c-.95,1.27-2.39,1.96-3.4,3.13-1.47,1.7-2.89,3.12-4.72,4.55.33-.04.84-.13,1.09-.25Z"/>
      <path class="cls-3" d="M48.33,66.19l.03.38c-2.26-.02-4.48-.91-6.42-2.32-2.07-1.5-3.78-5.67-2.91-7.69l.13,1.57c.25,3.09,2.15,5.62,4.99,6.86,1.37.6,2.78,1.11,4.19,1.19Z"/>
      <path class="cls-14" d="M48.6,75.04c-.14.15-.42.4-.61.47-.23.09-.88.33-.85.65l.26,3.03c-.44-1.04-.43-1.8-.5-3.22l-2.2.78c-.42.15-1.02.43-1.29.67-.7.61.2,2.33-.06,3.07-.09-.11-.36-.51-.38-.71l-.17-2.27-3.32.72c-.34.8-.28,2.51-.2,3.35-.76-.91-.53-2.17.02-3.4-1.14-.05-2.15-.04-2.92-.5v-.24c3.47,1.5,8.52-1.09,12.23-2.41Z"/>
      <path class="cls-15" d="M37.83,66.16c-3.11.13-5.92-1.14-8.85-2.11-.4-.33-.74-.61-1.07-.94,3.2,1.5,6.31,2.19,9.92,3.05Z"/>
      <path class="cls-3" d="M45.11,71.36v.22l-6.37,1.28c-.5.1-1.43-.33-1.9-.41v-.22c3.13.78,5.43-.9,8.27-.87Z"/>
      <path class="cls-3" d="M24.9,56.27l-4.76-1.95c1.82-.15,3.31.92,4.76,1.95Z"/>
      <path class="cls-14" d="M52.34,77.97l-.24.19c-.6-1.24-.92-2.46-.94-3.96-.19,0-.58,0-.76.02,1.08-.72,2.26-1.27,3.5-1.92l4.71-2.49c-.76.71-1.83,1.16-2.78,1.79l-.08.53c-.06.42-.22-.44-.52-.28-.94.47-2.68,1.38-3.79,2.01-.1,1.48.4,2.86.91,4.11Z"/>
      <path class="cls-3" d="M32.5,56.79v-.22c1.22.47,2.75-.4,4.22-.13-1.28.75-2.84.64-4.22.35Z"/>
      <path class="cls-15" d="M32.5,56.57v.22c-1.16-.23-2.48-.5-3.37-1.52l3.37,1.3Z"/>
      <path class="cls-15" d="M45.11,71.58v-.22c.82-.27,1.78-.7,2.8-.16l-2.8.38Z"/>
      <path class="cls-20" d="M36.85,72.23v.22l-2.42-.44c.05-.12.17-.33.24-.45.65.26,1.49.5,2.18.67Z"/>
      <path class="cls-15" d="M29.64,65.92v-.43s2.39.4,2.39.4c-.9.47-1.62.13-2.39.03Z"/>
      <path class="cls-15" d="M39.02,55.05v1.09c-.22-.03-.47-.15-.47-.32,0-.24.01-.61.03-.77h.44Z"/>
      <path class="cls-20" d="M49.51,66.18l-.04.4h-1.1s-.03-.4-.03-.4c.33.02.83,0,1.17,0Z"/>
      <path class="cls-3" d="M27.35,57.81c-.91-.19-1.69-.73-2.35-1.47.91.3,1.62.77,2.35,1.47Z"/>
      <path class="cls-15" d="M27.77,62.9c-.26.4-.72-.03-.91-.44l.91.44Z"/>
      <path class="cls-3" d="M28.59,58.41c-.59.05-1.04-.01-1.09-.53l1.09.53Z"/>
      <circle class="cls-15" cx="28.8" cy="55.05" r=".24"/>
      <path class="cls-13" d="M58.82,20.09c.06.05.31.15.44.15h.65c.08.08.3.22.44.22h.44l1.96.22c-.07,0,2.11.13,1.76-.24l.89.05.41.31c.39.29,1.49-1.04,2.21-1.17.79.25,1.42.79,1.93,1.47l-1.29.97,1.96-.74c.52-.2,1.05-.44,1.5-.65h.65v.44s0,.44,0,.44l-.06,1.54c-.46-.57-1.69-1.41-2.36-.7-.26.28-.7.89-.97,1.23.42.06.88.19.96.48v.23c-.12.04-.22.08-.31.09-.12.02-.11.39-.09.51s.35.04.46.05l.48.07c.1.01.16.34.08.41l-.49.35c1.22,1.52-.73,1.07,2.24,2.73-.06,2.25.43,4.41,1.72,6.39.65,1,1.73,2.32,3.1,2.21,2.3-.18,4.28-4.99,5.27-6.73l3.39,1.44c.47.2,1.06.32,1.51.35l.6.77c.25,1.28.28,2.53.14,3.74-.09.29-.24.78-.3,1.1-.49.04-.86.28-1.27.71-.61.76-1.01,3-.22,3.04l-1.44,2.91c1.89-2.21,3.16-4.98,3.43-7.75,2.66,1.83,3.85,5.21,3.05,8.37-.27,1.08-.79,2.11-1,3.31.71-.26.8-2.72,1.36-2.73.96.96,1.26,2.35.89,3.67-.34.49-.68,1.31-1.07,1.74-.63.69-1.47,1.29-2.22,1.92l-1.93,1.6c-1.01.47-1.87,1.37-2.82,1.93l-4.57,2.71s-.13.1-.18.15c-.37.14-.74.31-1.09.5-.32.06-.84.36-1.09.56l-4.35,1.97h-.22s-1.37.62-1.37.62l-3.89,1.87c-.25.12-.76.21-1.09.25,1.83-1.43,3.25-2.85,4.72-4.55,1.01-1.17,2.44-1.85,3.4-3.13l-2,1.42c-.05-1.4,1.08-2.1.7-3.5-1.41,5.33-6.32,10.13-11.79,11.18-.4-1.89-.42-1.02-1.16-2.19-.3-.48.69-1.09.52-2.06-.05-.27-.72-.25-1.09-.29l-2.16-.24c-.27-.03-.96.33-1.15.16l-.79-.73-.54-.48c-.3-.27.75-1.36.68-1.86-.04-.31-.4-.73-.65-1.01.39-.42.58-1.35,1.32-1.08.04.2.16.5.26.66.09.13.68.2.8.11.49-.33,1.03-1.29,1.32-1.91.08-.17.57-.36.56-.55l-.07-.79c-.03-.31.59-.73.86-1.03.16-.18-.02-.7-.22-.83-.24-.15-.69-.27-.95-.3,1.6-4.08,3.47-8.22,3.37-12.9-.57,3.69-1.49,7.18-2.91,10.57-1.57-.31-.82,1.74-3.54,3.2-.31.17-.81.53-1.03.39l-.51-.34c-.12-.08-.31.49-.23.45l.88.45c.26.14-.33,2.53-.45,1.94l-1.84-1.55c-.53-.44-.8-.61-1.72-.4l-.04-.83-1.7-2.74c.4-.48,1.09-.56,2.01-.65l-1.02-1.07-1.92,1-.52-.25c-.31-.15-.34.79-1.28.8-.2,0-.39-.54-.56-.68l-1.71-1.49-2.16-.88.3-2.14c.04-.3-.02-.83-.1-1.09.03-1.12-.34-2.41-.85-3.45.57.05,3.02-1.76,1.75-2.77-1.56-1.25,0-1.65-1.34-1.63l-.82-2.94c-.17-.6-.3-1.12-.29-1.84.46-.34,1.49-.36,1.97-.59l.8-.71c.68.26,1.13,3.53,1.57,3.27l.21,2.6c-.77-.1-1.37,1.18-1.11,1.75.16.23.93.1,1.15-.01-.02,1.9-.1,3.88.02,5.9l.25,4.07c.76-.63.19-1.43.16-2.13l-.11-3.02c-.03-.93-.06-1.73-.01-2.65l.14-2.65c.79,2.07,1.2,2.11,1.91,3.1.27.37,2.74,3.5,3.08,3.09l.17-.21c.61-.14.68-.82.78-1.52l1.1-.98.09-.81c1.41.1,2.8-.33,4.11-.88.11.16.26.41.42.43.68.06,1.61-.47,1.5-.87-.08-.29-.76-.5-1.01-.47.3-.3.62-.83.82-1.27-1.03.9-1.68,2.09-3.12,2.33-.94.16-2.31.55-3.17.29-2.47-.74-4.94-1.99-6.33-4.17,1.87.45,3.74,1.87,5.53.48-2.74.63-4.98-.43-6.59-2.4-.03-.34-.04-.98-.17-1.29l-1.19-2.7.02-.13c1.46-.49,2.75-.09,4.01.82,2.39,1.71.54,3.08,1.59,3.49.64.25,3.9-2.12,4.68-2.74.68-.54-.16-1.28-.32-1.71l-1.33-3.59c-.99-.16-1.87.68-2.75,1.07l-.85.38c-.19.08-.23.57-.23.77-1.81-.54-4.73-.49-6.3-.67l-.62-1.3c.89.04,2.57-.27,3.47-.66.45-.2,1.35.01,1.74-.44,1.37-.12,2.77-.43,4.15-.46,1.19-.03,2.39.31,3.76.55-.04-1.62-2.78-1.68-3.78-1.74-1.56-.08-3.3.09-4.78.56h-.65c.01-.64-.13-1.39-.63-1.68-.64-.37-1.27-.31-1.96,0-.98.43-1.51-.87-1.99-1.15l.39-.48c-.21.11-.44.28-.61.46l-.87.87c-.25.25-.85.71-.87,1.09l-.07,1.07c0,.11-.35.12-.42.11l-2.22-2.22c-1.3-1.29,2.76-3.58,3.89-3l.62-1.16c.38-.36.7-.68,1.06-.89,1.2-.69,1.89-1.23,3.64-1.73,2.81,2.24,9.24,4.61,12.65,5.28ZM45.46,17.42c.07.05-.11-.31-.17-.26l-.37.36s.09,0,.53-.1ZM44.46,17.84c-.84.39-1.55,1.12-1.93,1.91l1.93-1.91h0ZM44.49,20.05c1.87-.83,3.68-1.22,5.79-1.53-.83-.45-1.81-.17-2.64.09l-4.41,1.38c.39.3.87.23,1.26.06ZM59.78,35.93l-.35.5c-.05.07.36.21.38.14l.09-.32c.02-.08-.08-.38-.13-.32ZM55.37,49.61c0-.13-.11-.24-.24-.24s-.24.11-.24.24.11.24.24.24.24-.11.24-.24ZM53.8,52.14c.61,1.96.49-.29,1.78-.82l-1.16-1.02c-.89,1.23-1.86.11-2.09.53l-.25.46c.68.04,1.55.31,1.72.85ZM56.45,52.1h-.47c.11.81.36.81.47,0ZM77.57,54.59c.45-.28.7-.71.49-1.35l-.49,1.35ZM76.88,55.48l-1.26,1.75c.55-.52.99-1.08,1.48-1.75l.38-.24c.09-.06-.03-.31-.16-.55l-.43.8ZM60.62,58.35c-.25.34-.27.81.01.64.15-.09.35-.24.52-.37s-.44-.4-.53-.28Z"/>
      <path class="cls-3" d="M88.64,36.72c-.28,2.77-1.55,5.54-3.43,7.75l1.44-2.91c.59-1.2,1.22-2.38,1.49-3.75.06-.32.21-.81.3-1.1h.2Z"/>
      <path class="cls-20" d="M92.05,45.68c-.57,0-.65,2.47-1.36,2.73.21-1.21.73-2.23,1-3.31l.36.59Z"/>
      <path class="cls-21" d="M36.19,95.29v4.15c.02.29.14.58.38.72.02.1.05.26.06.35-.09,0-.24.01-.32,0s-.14.32-.14.4l.07,3.66.12,3.32c.03.86-.06,1.91-.07,2.79l-.06,4.67c0,.49-1.69.34-1.57-.29v-12.14s-.02-4.17-.02-4.17v-.65s0-1.33,0-1.33l-.03-.46-.05-2.17c.33-1.59-.14-4.27.09-6.23h1.57s-.03,7.36-.03,7.36Z"/>
      <path class="cls-1" d="M38.32,107.04c0,1.03-.44,1.91-1.55,2.34l-.15,1.32h-.33c.01-.88.1-1.92.07-2.78h.29c.41.04,1.05-.38,1.13-.81l.54-.07Z"/>
      <path class="cls-5" d="M28.78,26.72c.06.24.39.65.48.9l.47,1.26c-.81.86-1.28,1.94-1.38,3.11-.38.17-.85.22-1.31.22l.36-3.13c-.61.93-.75,2.07-.8,3.13h-1.09c-.18,0-.54.13-.65.22-.56,0-1.48.04-1.99-.15-1-.38-.91-1.61-.64-2.44.51-1.52,1.72-2.48,2.85-3.49l3.3-1.18.38,1.56ZM26.14,27.4c0-.22-.18-.39-.39-.39s-.39.18-.39.39.18.39.39.39.39-.18.39-.39ZM28.08,28.26s-.07-.02-.4-.1l-.19.62c-.02.08.16.11.21.05l.38-.57ZM24.87,29.64c0-.24-.19-.43-.43-.43s-.43.19-.43.43.19.43.43.43.43-.19.43-.43Z"/>
      <path class="cls-23" d="M36.17,23.96c.19.35.45.75.7,1.08l.21.67c.18.56-.03,1.52-.27,2.08l-1.48.47.37-1.75c-.23-.37-.95-.91-1.34-1.25-.21-.18-.36-.9-.62-.83-.34.08-.77.38-.84.63-1.27.35-1.86,2.01-1.31,3.23-.21.04-.63.08-.81.17-.33-2.54,1.69-3.49,1.42-4.89-1.19-.61-1.95,3.35-2.93,4.05-.09-.24-.42-.65-.48-.9l.9-2.11c.72-1.67,2.61-2.5,4.31-1.69l2.18,1.04Z"/>
      <path class="cls-6" d="M36.92,23.85l2.04.02c.29.22.78.43,1.18.46l.82.28c.04.55.5.99,1.04,1.13l.72,1.28c-1.49,1.08-1.42-.13-4.46-1.55-.19-.09-.52-.46-.72-.45l-.67.03c-.25-.34-.51-.73-.7-1.08l.19-.02c.14-.02.42-.09.57-.09Z"/>
      <path class="cls-20" d="M40.15,24.33c-.41-.03-.89-.24-1.18-.46l.21-.06c.08,0,.42,0,.42-.11l.07-1.07h.22l.26,1.7Z"/>
      <path class="cls-16" d="M36.91,23.66l-.53.05-.08-.88c.27.26.51.58.61.83Z"/>
      <path class="cls-3" d="M36.91,23.66s.01.12.02.19c-.14,0-.42.07-.57.09l.02-.22.53-.05Z"/>
      <path class="cls-15" d="M23.51,47.88c.06,0,.17.02.25.03l-.15,1.47c-.22.06-.69.16-.94.16-.2,0-.36-.42-.43-.59.34-.22.57-.68.53-1.08h.75Z"/>
      <path class="cls-7" d="M33.77,36.98c-.63.11-1.3.02-1.71-.46-.1-.31-.22-.74-.26-1.06-.08-.53-.42-.76-1.04-.85-1.3-.2-1.21,1.13-2.43.43-.51-.29-1.16-.36-1.71-.23l-.7-.64c-.33-.3-.99-.43-1.43-.41l-.5-.26c-.18-.09-.38-.45-.43-.64l1.76-.44h.22c.83,0,1.93-.01,2.81.07,1.86,1.96,3.69,1.69,5.98,4.06l-.55.43Z"/>
      <path class="cls-1" d="M29,35.88c-.05,1.04.06,2.1.36,3.23,1.43-.47,2.3-1.44,2.7-2.59.41.48,1.08.57,1.71.46l.08.25c-.25,1.3-.43,2.53-.11,3.96.93-.35,2.05-1.17,2.63-1.61.07-.06.23-.15.31-.21,1.24,1.91,2.41,3.92,2.71,6.28-.07,0-.16.02-.21.01-1.23-.18-3.62.04-4.89.61l-.03-.18c-1.25-1.4-4.3-.74-5.7-.2.31-3.53.43-5.38-1.12-8.7l1.17-1.33h.39Z"/>
      <path class="cls-7" d="M34.26,46.09c-.26.15-.3.2.03.18,1.27-.57,3.66-.79,4.89-.61l.06,1.98.04,2.81c0,.08-.07.43-.15.44l-.27.04c-.1-.61-.64-.94-1.44-1.22l-.8,1.73c-.22.48.43,1.23.88,1.42l.48.18-2.44.34.21-.57.18-.18.49-.33c.1-.07-.04-.52-.12-.67l-.94-1.72c-.17-.31-1.11.05-1.27.36l-1.04,1.94.98.62c.1.07.32.16.44.22l.89.44-1.78-.15c-.51-.04-.99-.16-1.27-.47v-.22s.19-.44.19-.44c.04-.07.16-.24.17-.24,0,0-.16-.19-.17-.19.09-.96-.2-2.25-.65-3.05-.03-.35-.13-1.44-.56-1.32-.8.38-1.06,1.21-1.4,1.76-.48.78-.87,1.63-1.15,2.53l-.94-.41.09-.38h.26c.84.23.17-3.21-.26-2.83l-.05-.21c-.07-.34-.62-.59-.98-.62v-.23s.85-.67.85-.67l.22-.16c.17-.08.47-.22.63-.29,1.39-.54,4.45-1.2,5.7.2ZM33.67,46.14l-.76.56h.69c.12.02.1-.27.07-.56Z"/>
      <path class="cls-7" d="M26.86,47.24l-.41.3c-.07.05-.21-.12-.28-.17l.13-.18.55.05Z"/>
      <path class="cls-21" d="M28.33,35.04l.28.83-1.17,1.33-.81-.05c-.09-.58-.2-1.74,0-2.34.55-.13,1.2-.06,1.71.23Z"/>
      <path class="cls-15" d="M25.53,32.2v.22h-.65c.12-.09.47-.22.65-.22Z"/>
      <path class="cls-21" d="M23.6,49.38l.15-1.47.45-.27c.43.09.67.5.77,1.07.07.4-.12.99-.45,1.05-.3.05-.74-.17-.92-.37Z"/>
      <path class="cls-21" d="M25.91,34.17c.35.82-.56,1.8-1.39,1.85-.32-.66-.34-1.66-.04-2.26.44-.02,1.09.1,1.43.41Z"/>
      <path class="cls-3" d="M59.65,52.16c-.2.51-2.73,3.77-2.57,4.64-.75-.27-.93.66-1.32,1.08s-.88.85-1.58,1.07c2.81-2.67,4.54-5.77,5.94-9.12,1.42-3.4,2.34-6.89,2.91-10.57.1,4.68-1.78,8.82-3.37,12.9Z"/>
      <path class="cls-22" d="M35.33,28.26c-.55.17-1.2.18-1.74.02l-.07-2.19-.61-1.04c.07-.25.49-.54.84-.63.25-.06.41.66.62.83.39.34,1.12.88,1.34,1.25l-.37,1.75Z"/>
      <path class="cls-14" d="M30.78,28.46l-.87.41h-.17s-.47-1.25-.47-1.25c.99-.7,1.74-4.66,2.93-4.05.28,1.4-1.75,2.35-1.42,4.89Z"/>
      <path class="cls-21" d="M38.4,26.49c.81-.48,2.42,2.1,2.71,2.68l-.43,1.07-1.22-1.75c-.17-.44-.39-.77-.66-1.08.18.41.43.74.66,1.08l.9,2.36c-1.39-.13-.94-2.23-3.55-3.07.24-.55.45-1.52.27-2.08.66.32,1.07.94,1.66,1.7l-.34-.93Z"/>
      <path class="cls-14" d="M32.9,25.06l.61,1.04.07,2.19h-1.98c-.55-1.21.03-2.87,1.31-3.22Z"/>
      <path class="cls-5" d="M55.34,66.59c-1.03-.18-2.05-.13-3.12-.57,1.56-.72,2.86-1.11,4.23-1.55-.01.21-.09.68-.16.88-.42.26-.94.72-.95,1.25Z"/>
      <path class="cls-15" d="M40.68,30.25c.28.4.09,1.23.75,1.07-.02.72.12,1.24.29,1.84l.82,2.94c.07.94.41,1.8-.07,2.57-.48-2.8-.7-5.55-2.11-7.81l-.9-2.36,1.22,1.75Z"/>
      <path class="cls-3" d="M42.12,40.5c.51,1.04.89,2.33.85,3.45-.68-.6-.17-1.29-1.15-3.2l-.2-.39c-.04-.08.26-.18.31-.11l.18.25Z"/>
      <path class="cls-3" d="M28.8,31.98h-.44c.09-1.18.57-2.25,1.38-3.11h.17c-.56.95-1.05,2.02-1.11,3.11Z"/>
      <path class="cls-20" d="M28.8,31.98c-.13.57.24.87.79,1.17l2.61,1.44c2.15,1.19,3.29,2.94,4.48,4.78-.09.06-.24.15-.31.21,0-.22-.11-.71-.26-.91l-1.27-1.63c-.16-.21-.88.04-.98.19l-.08-.25.55-.43c-2.29-2.37-4.12-2.1-5.98-4.06-.88-.08-1.97-.07-2.81-.07v-.22h1.52c.46,0,.93-.05,1.31-.22h.44Z"/>
      <circle class="cls-23" cx="37.13" cy="32.21" r=".42"/>
      <circle class="cls-23" cx="34.28" cy="30.19" r=".42"/>
      <circle class="cls-23" cx="37.68" cy="35.29" r=".43"/>
      <circle class="cls-20" cx="32.17" cy="31.31" r=".39"/>
      <circle class="cls-23" cx="34.29" cy="33.33" r=".43"/>
      <path class="cls-23" d="M39.68,47.21l-.44.44-.06-1.98c.06,0,.14,0,.21-.01.06.45.26,1.12.29,1.56Z"/>
      <path class="cls-3" d="M40.98,39.47c.17-.03.38-.08.41,0l.18.48c.04.11-.2-.05-.31-.1s-.41-.35-.29-.36Z"/>
      <circle class="cls-15" cx="40.55" cy="38.95" r=".19"/>
      <path class="cls-16" d="M66.22,65.71v.22l-1.96.91c-.23-.52,1.44-1.13,1.96-1.13Z"/>
      <path class="cls-21" d="M27.84,47.87l.05.21c.22.92.29,1.87.26,2.83h-.26c-.43-.11-1.3-.36-1.68-.6-.77-.49-.21-1.32.21-1.77.46-.49.89-1.06,1.42-.67Z"/>
      <path class="cls-7" d="M25.65,48.93c-.11,0-.51-.47-.47-.68.04-.24.66-.55.81-.5l-.33,1.18Z"/>
      <path class="cls-21" d="M35.92,52.64l-.18.18c-.4.11-.88.2-1.29.23-.12-.06-.33-.15-.44-.22-.65-.58-.52-1.38.02-2.14.26-.38.56-.6,1.07-.75.73.92.97,1.73.82,2.7Z"/>
      <path class="cls-21" d="M38.86,50.94c.11.36.17,1.01.06,1.35-.12.41-1.06.55-1.42.36-.36-.22-.71-.81-.65-1.18.09-.57.45-1.26,1.08-1.32l.93.78Z"/>
      <path class="cls-3" d="M38.86,50.94l-.93-.78c-.63.07-1,.75-1.08,1.32-.06.37.29.95.65,1.18v.22c-.45-.19-1.1-.94-.88-1.42l.8-1.73c.8.28,1.34.61,1.44,1.22Z"/>
      <path class="cls-21" d="M31.63,48.74c.39,1.05.71,2.85.68,3.92v.22c-.94-.07-2.52-.7-3.29-1.09l.87-2.61,1.35-1.49.39,1.06Z"/>
      <path class="cls-3" d="M29.02,51.78c-.06-.03-.21-.05-.28-.08.28-.9.67-1.74,1.15-2.53l-.87,2.61Z"/>
      <path class="cls-11" d="M76.23,17.44c.2.79,1.12,1.26,1.53,1.89.73,1.11,2.82,2.28,3.89,2.86l.47.25c1.76,1.35,2.49,3.48,1.56,5.65l-.9,2.1c-1.75,2.1-1.52,3.3-3.88,5.97-1,1.14-2.72.6-3.6-.46-2.01-2.41-2.35-5.95-2.19-8.98.09-1.68.07-3.47.08-5.12l-.44-.07v-.44s.32,0,.32,0c.08,0,.17-.27.12-.32-.05-.05-.15-.12-.22-.12-.01-.18-.14-.5-.27-.45l-.6.23c-.71.27-1.45.5-2.17.64-.5-.68-1.13-1.22-1.93-1.47l.23-.5c.07,0,.15,0,.18-.02l.21-.17c.16-.1.46-.3.63-.38.38-.19,1.17-.53,1.6-.7.16.41.38,1.08.65,1.49.44.47,1.39.62,2.05.72.9-.49,1.55-1.48,1.54-2.41,0-.78-1.49-.55-1.47-.94l.02-.33c.57-.11,1.15.06,1.66.42l.93.65Z"/>
      <path class="cls-6" d="M44.43,29.17l-.86-1.07c.03-.12.05-.27.14-.29l.52-.06c3.37-.4,6.21,1.02,9.4,2.25-1.26-1.03-2.87-1.89-4.4-2.34,0-.2.04-.69.23-.77l.85-.38c.88-.39,1.76-1.23,2.75-1.07l1.33,3.59c.16.43,1,1.17.32,1.71-.78.62-4.04,2.99-4.68,2.74-1.05-.41.8-1.77-1.59-3.49-1.26-.91-2.55-1.3-4.01-.82Z"/>
      <path class="cls-5" d="M53.16,39.6c.12.02.33.15.44.22l-.09.81-1.1.98c-.1.7-.17,1.39-.78,1.52-1.94-1.1-1.96-1.8-3.25-2.88-.86-1.59-2.25-3.24-1.76-5.02.8,2.07,4.34,3.94,6.55,4.37Z"/>
      <path class="cls-2" d="M46.22,23.51c-.17.08-.48.26-.66.29l-2.82.55c-.46.09-1.02-.01-1.32-.16l-.1-.97c-.26.36-.34.73-.32,1.16l-.02.22-.82-.28-.26-1.7c.33-.13.42-.86.65-1.09l.87-.87c.08,0,.17,0,.22.02.48.28,1.01,1.57,1.99,1.15.7-.3,1.32-.37,1.96,0,.49.29.64,1.04.63,1.67Z"/>
      <path class="cls-19" d="M42.72,27.01l.71,1.04.77,1.22v.74s-.8.71-.8.71c-.48.24-1.51.25-1.97.59-.66.15-.47-.68-.75-1.07l.43-1.07c-.29-.58-1.91-3.16-2.71-2.68-.5-.38-.92-.88-.86-1.48.2,0,.53.36.72.45,3.04,1.42,2.98,2.63,4.46,1.55Z"/>
      <path class="cls-19" d="M57.08,56.8c-.16-.87,2.37-4.13,2.57-4.64.25.03.71.15.95.3.2.13.38.65.22.83-.27.3-.89.72-.86,1.03l.07.79c.02.19-.48.38-.56.55-.29.62-.83,1.58-1.32,1.91-.12.09-.71.01-.8-.11-.11-.16-.23-.46-.26-.66Z"/>
      <path class="cls-3" d="M46.83,35.21l-.22.02c-.49,1.79.9,3.43,1.76,5.02-.71-.98-1.12-1.03-1.91-3.1l-.14,2.65c-.05.92-.02,1.72.01,2.65l.11,3.02c.03.7.6,1.5-.16,2.13l-.25-4.07c-.12-2.02-.04-3.99-.02-5.9,0-.58,0-1.15-.04-1.74l-.21-2.6c1.61,1.96,3.85,3.03,6.59,2.4-1.79,1.39-3.66-.03-5.53-.48Z"/>
      <path class="cls-16" d="M72.68,24c.06,1.51.06,3.03.02,4.54-2.98-1.66-1.03-1.21-2.24-2.73l.49-.35c.09-.06.03-.39-.08-.41l-.48-.07-.08-.65v-.23s1.42-.24,1.42-.24c.23-.04.76.09.95.14Z"/>
      <path class="cls-14" d="M49.23,27.66c1.52.45,3.13,1.31,4.4,2.34-3.19-1.23-6.03-2.65-9.4-2.25l-.52.06c-.09.01-.12.17-.14.29l-.14-.05-.71-1.04.21-.02c1.57.18,4.49.13,6.3.67Z"/>
      <path class="cls-23" d="M45.56,23.8l.22,1.23c-.89.39-2.58.7-3.47.66-.08,0-.22.03-.31.04-.54-.15-1-.58-1.04-1.13l.02-.22.42-.2c.3.15.85.25,1.32.16l2.82-.55Z"/>
      <path class="cls-14" d="M51.65,22.95l.02,1.18c-1.37.03-2.78.34-4.15.46l-.65-1.08c1.48-.47,3.22-.64,4.78-.56Z"/>
      <path class="cls-3" d="M82.78,30.2l.02.21c-.99,1.73-2.98,6.55-5.27,6.73-1.37.11-2.44-1.21-3.1-2.21-1.3-1.98-1.78-4.14-1.72-6.39.04-1.51.03-3.03-.02-4.54,0-.26,0-.65,0-.92l.06-1.54.44.07c0,1.65.01,3.44-.08,5.12-.16,3.03.18,6.56,2.19,8.98.88,1.05,2.59,1.6,3.6.46,2.36-2.67,2.13-3.87,3.88-5.97Z"/>
      <path class="cls-23" d="M51.66,24.13l-.02-1.18c1,.05,3.74.12,3.78,1.74-1.38-.24-2.57-.58-3.76-.55Z"/>
      <path class="cls-6" d="M72.69,23.08c-.01.27-.02.65,0,.92-.19-.05-.72-.18-.95-.14l-1.41.24c-.09-.3-.54-.42-.96-.48.27-.34.72-.96.97-1.23.66-.71,1.89.13,2.36.7Z"/>
      <path class="cls-19" d="M53.8,52.14c-.17-.54-1.04-.81-1.72-.85l.25-.46c.23-.42,1.2.7,2.09-.53l1.16,1.02c-1.28.53-1.17,2.78-1.78.82Z"/>
      <path class="cls-6" d="M88.14,37.81c-.27,1.38-.9,2.56-1.49,3.75-.78-.04-.39-2.28.22-3.04.42-.43.79-.67,1.27-.71Z"/>
      <path class="cls-15" d="M44.49,20.05c-.39.17-.87.23-1.26-.06l4.41-1.38c.83-.26,1.81-.54,2.64-.09-2.11.31-3.92.7-5.79,1.53Z"/>
      <path class="cls-15" d="M53.16,39.38v.22c-2.2-.43-5.74-2.3-6.55-4.37l.22-.02c1.39,2.18,3.86,3.43,6.33,4.17Z"/>
      <path class="cls-22" d="M46.87,23.52l.65,1.08c-.38.45-1.28.24-1.74.44l-.22-1.23c.18-.03.49-.22.66-.29h.65Z"/>
      <path class="cls-19" d="M45.98,35.89c.05.59.05,1.15.04,1.74-.22.12-.99.25-1.15.01-.26-.57.34-1.85,1.11-1.75Z"/>
      <path class="cls-3" d="M58.63,38.02l-.92.91c-1.31.55-2.71.98-4.11.88-.11-.07-.31-.19-.44-.22v-.22c.86.26,2.23-.14,3.17-.29,1.44-.24,2.08-1.42,3.12-2.33-.2.43-.51.96-.82,1.27Z"/>
      <path class="cls-19" d="M57.71,38.94l.92-.91c.24-.03.93.19,1.01.47.11.4-.82.93-1.5.87-.16-.01-.32-.27-.42-.43Z"/>
      <path class="cls-15" d="M45.77,33.29c-.44.26-.89-3.01-1.57-3.27v-.74s.21.02.21.02l1.19,2.7c.13.31.15.95.17,1.29Z"/>
      <path class="cls-14" d="M77.97,60.44c-1.46,1.19-3.02,1.09-2.66,1.96-.42-.32-1.17-.16-1.69,0l4.35-1.97Z"/>
      <path class="cls-15" d="M72.09,20.45v.22c-.45.2-.99.45-1.5.65l-1.96.74,1.29-.97c.72-.14,1.46-.37,2.17-.64Z"/>
      <path class="cls-14" d="M85.36,58.53l-1.17-1.18c-.58.2-1.28.6-1.84.95l-1.23.77c-.18.12-.7.21-.8.17l4.57-2.71-.38.72.83,1.28Z"/>
      <polygon class="cls-20" points="44.43 29.17 44.41 29.3 44.2 29.28 43.43 28.05 43.57 28.1 44.43 29.17"/>
      <path class="cls-15" d="M51.63,43.13l-.17.21c-.34.41-2.81-2.72-3.08-3.09,1.29,1.08,1.31,1.78,3.25,2.88Z"/>
      <path class="cls-19" d="M60.62,58.35c.09-.12.69.15.53.28s-.37.27-.52.37c-.28.17-.26-.3-.01-.64Z"/>
      <path class="cls-3" d="M39.89,22.63h-.22c.02-.38.62-.84.87-1.09-.23.23-.33.96-.65,1.09Z"/>
      <path class="cls-15" d="M77.57,54.59l.49-1.35c.22.64-.04,1.06-.49,1.35Z"/>
      <path class="cls-20" d="M72.96,20.67h-.87v-.22l.6-.23c.14-.05.26.27.27.45Z"/>
      <path class="cls-15" d="M77.1,55.48h-.22l.43-.8c.13.24.26.49.16.55l-.38.24Z"/>
      <path class="cls-6" d="M70.31,24.32l.08.65c-.12-.02-.45.07-.46-.05s-.03-.48.09-.51c.09-.02.19-.06.29-.09Z"/>
      <path class="cls-19" d="M56.45,52.1c-.11.81-.36.81-.47,0h.47Z"/>
      <path class="cls-3" d="M59.78,35.93c.05-.07.15.24.13.32l-.09.32c-.02.08-.43-.07-.38-.14l.35-.5Z"/>
      <circle class="cls-19" cx="55.12" cy="49.61" r=".24"/>
      <path class="cls-9" d="M91.9,51.27l-.19.3-3.08,2.68c-.28.1-.66.23-.91.35l1.93-1.6c.75-.62,1.6-1.23,2.22-1.92l.03.19Z"/>
      <path class="cls-3" d="M72.74,21.1v-.44h.22c.07,0,.17.07.22.12.05.05-.04.32-.12.32h-.32Z"/>
      <path class="cls-15" d="M45.46,17.42c-.45.1-.57.14-.53.1l.37-.36c.05-.05.24.31.17.26Z"/>
      <path class="cls-3" d="M44.46,17.84l-1.93,1.91c.38-.79,1.09-1.52,1.93-1.91Z"/>
      <path class="cls-3" d="M42.93,26.99l-.21.02-.72-1.28c.08-.01.23-.05.31-.04l.62,1.3Z"/>
      <path class="cls-3" d="M76.88,55.48h.22c-.5.67-.93,1.23-1.48,1.75l1.26-1.75Z"/>
      <path class="cls-3" d="M41.63,20.69s-.14-.02-.22-.02c.18-.18.41-.35.61-.46l-.39.48Z"/>
      <path class="cls-15" d="M40.55,21.54l.87-.87-.87.87Z"/>
      <path class="cls-15" d="M27.06,32.2h-.44c.05-1.05.19-2.2.8-3.13l-.36,3.13Z"/>
      <circle class="cls-23" cx="24.44" cy="29.64" r=".43"/>
      <circle class="cls-14" cx="25.74" cy="27.4" r=".39"/>
      <path class="cls-20" d="M28.08,28.26l-.38.57c-.04.07-.23.03-.21-.05l.19-.62c.33.08.42.1.4.1Z"/>
      <path class="cls-15" d="M37.54,25.02c-.07.6.36,1.1.86,1.48l.34.93c-.59-.76-1-1.38-1.66-1.7l-.21-.67.67-.03Z"/>
      <path class="cls-21" d="M31.8,35.46c.04.31.17.74.26,1.06-.4,1.16-1.27,2.13-2.7,2.59-.3-1.13-.41-2.19-.36-3.23.03-.43.83-.89,1.25-.91.51-.03,1.19.16,1.55.49Z"/>
      <path class="cls-3" d="M31.8,35.46c-.36-.33-1.04-.52-1.55-.49-.41.02-1.21.48-1.25.91h-.39s-.28-.84-.28-.84c1.22.7,1.14-.63,2.43-.43.61.1.96.32,1.04.85Z"/>
      <path class="cls-21" d="M36.36,39.58c-.57.44-1.7,1.26-2.63,1.61-.31-1.43-.13-2.67.11-3.96.1-.15.81-.4.98-.19l1.27,1.63c.16.2.27.69.26.91Z"/>
      <path class="cls-22" d="M34.29,46.27c-.34.02-.29-.03-.03-.18l.03.18Z"/>
      <path class="cls-3" d="M32.5,51.78v.44l-.19.44c.03-1.07-.3-2.87-.68-3.92h.22c.45.8.74,2.08.65,3.05Z"/>
      <path class="cls-3" d="M28.14,50.91c.03-.96-.03-1.91-.26-2.83.43-.38,1.1,3.05.26,2.83Z"/>
      <path class="cls-20" d="M31.84,48.74h-.22l-.39-1.06-1.35,1.49c.34-.55.6-1.38,1.4-1.76.43-.12.53.97.56,1.32Z"/>
      <path class="cls-20" d="M35.92,52.64c.16-.97-.09-1.78-.82-2.7-.51.15-.8.38-1.07.75-.54.76-.67,1.56-.02,2.14l-.98-.62,1.04-1.94c.16-.31,1.11-.67,1.27-.36l.94,1.72c.08.15.23.6.12.67l-.49.33Z"/>
      <path class="cls-22" d="M33.67,46.14c.03.29.05.58-.07.57h-.69s.76-.57.76-.57Z"/>
      <path class="cls-20" d="M32.5,52.22v-.44s.17.19.17.19c0,0-.12.18-.17.24Z"/>
      <path class="cls-16" d="M39.46,28.5c-.23-.33-.48-.67-.66-1.08.27.3.49.64.66,1.08Z"/>
      <path class="cls-13" d="M73.64,16.37l-.02.33c-.03.38,1.46.16,1.47.94,0,.93-.64,1.93-1.54,2.41-.66-.1-1.6-.24-2.05-.72-.27-.4-.49-1.08-.65-1.49.76-.74,1.76-1.26,2.8-1.47Z"/>
      <path class="cls-3" d="M41.42,24.19l-.42.2c-.02-.44.06-.8.32-1.16l.1.97Z"/>
    </g>
    <g>
      <path class="cls-14" d="M120.05,130.97c.1-.4.33-1.08.48-1.5.19-.55.46-1.14.52-1.71l.46-.09c1.36.27,2.97-.3,3.36-1.79.07-.29-.09-.92-.18-1.19l.28-.19c.97-.35,1.89-1.33,2.08-2.45.19-1.09-.47-2.22-1.43-2.39.08-.69.28-3.36-.63-3.39-.5-.02-2.94,1.49-3.26,1.89-.08.01-.21.04-.28.03l-.39-.05c1.64-.85.36-6.45-.83-7.58l-2.97,1.6c-.24.13-.15.9-.05,1.14.73,1.83.93,3.53.95,5.67l2.89-.83-1.53.88c-.37.21-1.12.54-1.53.65l-1.88.51c-2.04.55-3.98,1.15-5.95,1.61.18-1.19.08-2.5-.29-3.65l.02-.85c.1.08.36.55.39.81l.33,3.37,3.24-.93c.16-2.05-.2-3.83-.59-5.89.44.79.79,1.86.81,2.83l.06,2.97c1.35-.41,2.49-.62,3.44-1.17.82-.52-.25-5.9-.95-6.74l-3.43,1.2v1s-.25-.51-.25-.51c-.29-.59-3.43.61-3.64.88l-3.89.66v.86s-.49-.74-.49-.74l-3.3.79.83,2.88,1.2.57c-.39-.15-1.14-.35-1.55-.44l-.76-3.05-3.52.65c.48.78.79,1.22,1.25,1.75l-1.52-.28.51-.36c.16-.12-.24-.87-.44-.89-.59-.05-2.83.16-2.94.73-2.08-.21-5.7.42-7.57.82.71-.57,1.74-.65,2.73-.79,2.08-.29,4.05-.6,6-.98.43-.08,1.07-.27,1.5-.32,1.69-.19,3.42-.44,5.02-1.01,1.75-.27,3.49-.64,5.2-1.05,4.65-1.11,8.22-2.24,12.51-4.67.8-.45,1.68-1.29,2.25-1.84l.53-.5c3.46.47-5.64-19.58-6.23-20.76l-6.96-14c-2.32-4.66-5.18-8.95-8.39-12.89-.97-1.62-2.61-3.46-3.84-4.75-.15-.16-.59-.08-.74-.04.94-2.27.69-4.75-1.31-6.23-.38-.28-.98-1.1-1.66-.53l-.78.66c.37-1.32.07-2.7-.89-3.67l-.36-.59c.79-3.16-.4-6.54-3.05-8.37h-.2c.14-1.23.11-2.47-.14-3.75l-.6-.77.02-.23c2.08-2.33,3.36-5.45,3.92-8.68.12-.68.06-1.54.04-2.15-.06-2.11-.97-4.08-2.19-5.9-.32-.48-.57-1-.7-1.46,5.35,5.08,3.58,12.63-.15,18.19,1.21,5.5-.78,2.55,1.86,5.75,2.81,3.39,1.48,6.09,1.91,7,.5,1.07.97,1.93,1.43,3.1,5.48,1.76,3.41,6.45,4.02,7.16l2.42,2.78c4.13,4.75,7.51,9.85,10.33,15.51l6.88,13.79c2.63,5.28,4.44,10.75,6.33,16.32.35,1.02.27,2.12.34,3.2.04.61.6,1.09.98,1.59,1.62,2.14,1.43,5.01.27,7.36.67,1.03.82,2.36,1.16,3.39,1.28,1.57,1.67,3.52-.04,5.04-2.12,1.87.72,2.57-4.17,4.58-1.99.82-.88,2.43-2.31,2.45ZM123.46,109.83l-.91-.86-1.82,1.34c1.03,2.16,1.57,4.12,1.43,6.7.6-.06,1.69-.59,1.9-1.25.62-1.94.32-3.97-.6-5.94,1.2.83,1.23,2.65,1.29,4.14l.06,1.57c1.41-2.29,1.56-5.61-.75-7.69-.27.11-.8.51-.97.72-.17.21.16.69.36,1.25Z"/>
      <path class="cls-14" d="M96.68,55.45l.04.51-.53.17v-.27c0-.1.06-.33.17-.35l.32-.07Z"/>
      <path class="cls-14" d="M37.75,113.36l-1.08-.2-.04,3.04-2.28-.15c.55,2.06,1.25,3.78,2.42,5.17.76,2.26,2.43,4.11,4.06,5.97.81.93,1.7,1.79,2.93,2.1,2.36.6,4.75.8,7.2.63.35-1.83,1.26-3.19,2.75-3.89l.02.24c-1.22.66-1.74,1.79-2.16,3.14-.36,1.18-.39,2.12.32,3.33-1.02-.46-.98-1.38-1.17-2.44l-2.73.19c.2,1.28.44,2.14.78,3.43-.85-.66-.72-1.78-.94-2.78l-.14-.62c-.04-.16-.44-.07-.6-.1l-2.6-.43c.12.98.26,1.64.47,2.47-.99-.15-.46-1.66-.84-2.52-.32-.39-1.42-.7-1.87-.7l-.41.87c0-.11-.04-.36-.06-.47-.03-.15-.42-.11-.57-.16l-3.24-1.08c-.56-.19-1.04-.58-1.33-.89l1.25.23-.03-2.95c0-.38-.47-1.07-.79-1.49-.86.99-1.22,3.36-.43,4.21-.65.38-1.81,1.04-2.43,1.34-.23.11-.76.13-1.02.17-.22.04-.53.13-.69.21h-.44v-.22c.69-.78,3.37-.15,3.41-2.12.03-1.5.48-2.85,1.15-4.17-1.9-3.42-4.34-9.98-4.67-13.73l-.52-5.88c-.08-.93.01-1.82.06-2.64h.44s.19.9.19.9c-.41,1.02-.12,2.19.06,3.28.34,1.94,1.48-.14,1.39,3.25-.44-.58-.69-1.08-1.23-2.02-.41,1.34.39,4.99.75,6.21l.65,2.2c.09.32.64.7.91.78-.12.63,1.56.78,1.57.29l.06-4.67h.33s.21,1.59.21,1.59c.06.45,1.44.5,1.77.15l2.79-2.92v-5.57s-2.43-2.99-2.43-2.99c-.26-.32-.66-.37-1.03-.5-.39-.14-.91-.53-1.24-.79l-.11.48c-.24-.14-.36-.43-.37-.72l.43-.45c-.01.07.27.43.45.48l2.03.56c.57,1.38,2.17,2.33,2.64,3.74.58,1.73.42,4.22-.11,5.93-.4,1.29-1.84,2.01-2.57,3.06-.26.38-.95.67-1.33.6ZM39.87,128.5c.18-2.03-.46-2.16-1.63-3.6l-.12,3.07,1.75.53Z"/>
      <path class="cls-9" d="M60.34,73.1c.03.07.05.29-.02.31l-.41.12c.01-.07.04-.21.07-.28.04-.1.27-.1.36-.15Z"/>
      <path class="cls-9" d="M59.69,73.76l.22-.22-.22.22Z"/>
      <path class="cls-9" d="M57.54,75.75c-2.88,4.11-4.84,8.88-4.53,14,.23,3.69.68,7.06,1.49,10.65.51,2.26,1.67,4.64,1.65,6.98-.05,5.88-2.44,13.97-1.86,18.62,0,.05,0,.14-.01.2l-.55.08-.02-.24c-.07-.91-.05-2.69.1-3.75l1.77-12.2c.11-.74.33-1.89.22-2.59-.44-2.64-1.21-4.96-1.8-7.55-1.03-4.49-1.51-9.08-1.14-13.66.25-3.09,1.43-5.81,2.92-8.38l.79-1.36-1.1.55c-2.6,1.3-5.24,2.31-7.9,3.45-4.12,1.76-6.58,2.46-11.24,2.2l-1.57,4.47,1.87.27.03,2.94c3.92-.33,1.5,2.86,5.08,1.66l-.08,5.24h-2.99c-.11,0-.47-.11-.52-.2-.07-.12-.14-.37-.13-.52l.51-.02c.78.26,1.65.26,2.59.19l.08-4.12c-3.34.42-1.52-2-4.49-1.65-.06,1.12-.04,2.22-.03,3.35v.74s-.06.41-.06.41h-.22l-.22-.22.03-7.35h-1.57s-.26-.02-.26-.02h-.56s1.99-5.32,1.99-5.32c-1.55-2.43-1.08-2.64-.7-5.18.12.06.39.24.4.11l.04-.52c.21.11.6.34.81.43v.24c-.82.22-1.51,2.6-.48,3.9,1.06,1.34,3.64,1.15,3.54.7-.05-.19-.14-.53-.15-.7.19.23.4.55.67.91l3.92-.8-.31-.77c.08.16.51.44.69.4l3.5-1.16-.2-.96c.38,1.4,2.67-.18,3.65-.63.3-.1.71-.23.91-.43l.24-.19c1.5-.41,3-1.11,4.51-1.76l-.19-.87c.29.17.69.4.88.41Z"/>
      <path class="cls-9" d="M57.54,75.75c.41-.58.93-1.11,1.5-1.56-.39.49-1.03,1.15-1.5,1.56Z"/>
      <path class="cls-9" d="M59.69,73.76c-.16.16-.45.34-.65.44.2-.15.42-.31.65-.44Z"/>
      <path class="cls-9" d="M60.78,72.67h.22c-.18.13-.46.32-.65.44l-.22-.44h.65Z"/>
      <path class="cls-21" d="M34.27,94.17c-1.21.34-1.25,1.59-1.09,2.69.11.79.58,1.45,1.04,2.14l-.04,3.63-.83-.37-1.23-.88-.19-.91.68-6.25c.05-.43-.01-.83-.12-1.1.07-.12.18-.32.24-.44.57-1.13.19-2.21,1.53-1.91v3.39Z"/>
      <path class="cls-23" d="M34.56,94.16h-.29s0-3.39,0-3.39c-1.34-.3-.97.78-1.53,1.91l-.32-.39.59-2.24.31.45c.09.13.48-.42.53-.58l.54-1.99h.26c-.23,1.97.24,4.66-.09,6.24Z"/>
      <path class="cls-23" d="M32.5,93.12c.11.26.17.66.12,1.1l-.68,6.25h-.44c.15-2.48.32-5.11,1-7.35Z"/>
      <path class="cls-14" d="M34.39,87.92l-.54,1.99c-.05.17-.44.72-.53.58l-.31-.45c.19-.72.57-1.41.83-2.11h.56Z"/>
      <path class="cls-12" d="M75.3,62.4c.68,1.69,1.13,1.53,1.57,4.24-1.04.6-2.18.98-2.83,1.68l-.87.22-.29-.06c-.26-.06.05-.8-.56-2.08l-1.26-2.63,1.88-.88c.15-.07.43-.4.46-.47h.22c.52-.17,1.27-.33,1.69-.01Z"/>
      <path class="cls-12" d="M60.13,72.67l.22.44c-.09.05-.32.06-.36.15-.03.07-.06.21-.07.28l-.22.22c-.23.12-.45.28-.65.44-.57.45-1.09.97-1.5,1.56-.2-.01-.59-.24-.88-.41l.19.87c-1.51.65-3,1.35-4.51,1.76-.51-1.25-1.01-2.63-.91-4.11,1.11-.63,2.85-1.54,3.79-2.01.31-.16.46.7.52.28l.08-.53c.94-.63,2.02-1.08,2.78-1.79h.22c.39.05.61.39.73.83l.58,2.04ZM55.84,73.32c.05-.53.07-.78.04-.88l-.04.88ZM56.3,74.85c.06-.66-.04-1.01-.3-1.32l.3,1.32Z"/>
      <path class="cls-12" d="M86.23,85.5c-.4,3.2-1.33,6.44-3.72,9.09l.02-6.08c0-.51-.22-1.25-.38-1.83-.35.29-.1.67-.09,1.04.05,1.87.09,3.73,0,5.58l-.18,3.51-.26,5.13c-.18,3.72-.94,7.19-2.1,10.73-1.29,3.92-2.29,7.8-3.85,11.61-.94,2.31-2.19,4.36-2.96,6.62l-.89,1.05c-5.88-.89-12.07-3.83-17.53-5.98-.58-4.65,1.81-12.73,1.86-18.62.02-2.34-1.14-4.72-1.65-6.98-.81-3.59-1.26-6.96-1.49-10.65-.32-5.12,1.65-9.89,4.53-14,.47-.4,1.11-1.07,1.5-1.56.21-.09.5-.28.65-.44l.22-.22.41-.12c.07-.02.06-.25.02-.31.19-.11.47-.3.65-.44.06-.05.16-.17.22-.22,2.05-.35,2.36-1.73,7.59-2.47,1.25-.18,2.45-.12,3.72.01l2.44.24c-1.01-1.05-2.18-.34-3.36-.73l1.58-.75.87-.44,6.38-2.77,7.76-3.33c.78-.33,1.48-.86,2.23-1.29,2.23-1.29,4.19-2.85,5.78-4.79l.53-.17c-.26.75-.06,1.44.25,2.24l.59,1.52c.13.34-.37.98-.69,1.41l.62.44c.1.07.09.46-.02.49l-.59.18c-.2.06-.69.29-.6.45.07.13.39.56.54.55l2.07-.19-.13-1.1c.9.1,2.07.3,2.63.52.16.06-.09.59-.23.57l-.62-.1-.74,1.33.36.66c.33.6-2.84.77-3.35.7-1.01-.13-1.82-.45-2.17.84l1.83.14c.29.02.73.63.69.93-.13.84-1.41.17-1.45.47-.17,1.47,1.23-.69,2.64,1.05l-1.2.57c-.13.16-.29.48-.48.81l-1.18-.82-2.61.35c.47,1.3,1.91.23,2.83.7,1.13.58-.91,1.35-.5,2.45.67.29,1.3.45,1.55.95-.77.12-1.5.27-1.91.21l-1.6-.26v-.86c-.46.5-1.03.98-1.61,1.42l.91.64c-1.04.35-1.03.53-1.58,1.14-.54.39-1.78.71-2.41.98l.04.71c0,.08.33-.02.42-.04l2.26-.43c.46-.09,1.34.44,1.53.69l-1.25.38-1.18-.06.1,1.05c.04.43,1.37-.12,2.1.23l-1.36,1.19-1.04-.22c-.38,1.01.56,1.03.85,1.59.26.5-.24,1.54-.6,2.2l4.36-.1,3.88.09c.34,0,.78.29.84.56-2.56.5-1.81.99-2.89,2.88-.28.4-1.46.48-1.89.7-.13.07-.47.51-.54.38l-.28-.47c-.15-.25-.38-.66-.58-.74-.17-.07-.52.29-.7.25l-1.16-.26c-.41.64.1,1.72.09,2.25l-1.25,2.06c-.41.68-.59,1.4-.56,2.11l-.89-.12c-.12,1.01-1.43,1.49-2.08,1.19-.24-.11-.41-.67-.36-.88.32-1.13,1.44.03,1.78-.65.79-1.54,1.65-1.16,1.51-1.96-.17-1.01-1.82-1.18-1.52-1.69l.55-.91-.52-.5c.25.24-.53-2.27,1.64-2.58.23-.11.35-.61-.03-.5-.44-.07-1.11-.34-1.03-.57s.35-.48.69-.83l-.98-.72c-.16-.12-.77,0-.83.19-.16.55.03,1.57-.36,1.65-.27.05-.83.04-1.11.03ZM98.44,63.97c0-.13-.11-.24-.24-.24s-.24.11-.24.24.11.24.24.24.24-.11.24-.24ZM78.74,74.98l-.58.63c-.05.06.26.34.32.29l1.67-1.35-.91-.62c-.13-.09.48-.57.67-.57h4.58c.48-1.18-3.03-.76-3.23-.73l-2.31.35-.35,1.02-.31-1.29h-1.67s.49.93.49.93c.09.17-.54.5-.61.67-.03.46.91,1.28,1.36,1.14.11-.03.3-.4.37-.49s.43-.01.5.04ZM84.68,74.16l-1.77-.14c-.23-.02-.7.27-.89.58,1.49.97,4.67-.28,2.66-.44ZM89.97,73.98l-1.65.3c.61.52,1.26.48,1.65-.3ZM89.56,75.85c-.02.14.44.48.48.34l.11-.41c.03-.1-.58-.04-.59.06ZM89.1,81.48c1.02-1.09.7-1.83.71-1.82-.08-.03-.51-.04-.55.03l-.78,1.49c-.08.14-.68.42-.55.53s.49.5.6.38l.57-.61ZM91.68,87.33c.25.21.87-.23,1.07-.49.18-.22.23-.98.15-1.13-.85.1-1.51.13-2.13.07-.14-.05-.28.55-.15.65l.42.36.64.54ZM95.81,86.03c-.12.03.18.43.3.38.08-.04.25-.1.34-.13.08-.03-.04-.37-.13-.35l-.52.11ZM90.17,86.91h-.47c.11.81.36.81.47,0Z"/>
      <path class="cls-12" d="M61.21,72.45c-.13.02-.35.15-.44.22h-.44l-.82-3.09,3.43-1.67,1.13,2.89c-1.04.52-2.09.94-2.87,1.65Z"/>
      <path class="cls-10" d="M68.39,69.4c-.27-1.12-.83-2.36-1.52-3.26-.03-.1,0-.32,0-.44l1.28-.63,2.54-1.13c.66.61,1.87,3.69,1.95,4.86-1.49.61-2.9,1.14-4.25.61Z"/>
      <path class="cls-10" d="M66.87,66.14c.08.28.28.73.44,1.06l1.08,2.21c.47.5-3.03.62-4.01,1.27-.32-1.54-1.53-2.43-.88-3.22,0,.02-.08-.17-.11-.23.11-.08.38-.12.5-.18.1-.05.28-.15.37-.22l1.96-.91.65.22Z"/>
      <path class="cls-8" d="M52.1,78.16c-.2.2-.62.33-.91.43-1.23-2.4-1.66-1.33-3.19-3.07.19-.07.47-.32.61-.47.53-.19,1.19-.75,1.79-.82.19-.02.57-.02.76-.02.02,1.5.35,2.72.94,3.96Z"/>
      <path class="cls-14" d="M66.87,65.71c0,.11-.03.33,0,.44l-.65-.22v-.22h.65Z"/>
      <path class="cls-14" d="M68.39,69.4l-1.08-2.21c-.16-.33-.36-.78-.44-1.06.7.9,1.25,2.14,1.52,3.26Z"/>
      <path class="cls-14" d="M73.18,68.53v.22l-1.58.75c1.18.4,2.35-.32,3.36.73l-2.44-.24c-1.27-.13-2.47-.19-3.72-.01-5.24.74-5.54,2.12-7.59,2.47.78-.71,1.83-1.13,2.87-1.65l-1.13-2.89-3.43,1.67.82,3.09h-.22l-.58-2.04c-.12-.43-.34-.78-.73-.84,1.26-.7,3.51-1.79,4.57-2.56.03.06.12.25.11.23-.65.79.56,1.68.88,3.22.98-.65,4.48-.77,4.01-1.27,1.35.53,2.76,0,4.25-.61-.09-1.16-1.3-4.25-1.95-4.86l-2.54,1.13v-.18s3.88-1.87,3.88-1.87l1.37-.61c-.03.07-.31.41-.46.47l-1.88.88,1.26,2.63c.61,1.28.3,2.02.56,2.08l.29.06Z"/>
      <path class="cls-14" d="M61.21,72.45c-.06.05-.16.17-.22.22h-.22c.09-.07.31-.2.44-.22Z"/>
      <path class="cls-10" d="M101.27,60.24c3.21,3.93,6.07,8.23,8.39,12.89l6.96,14c.59,1.18,9.69,21.23,6.23,20.76.02-.48-.18-1.32-.56-1.56-.75-.47-2.25-.56-2.79-.12-.19.16-.26.61-.24.83l1.41.88c.38.24,1.21.38,1.66.47-.57.55-1.45,1.39-2.25,1.84-4.29,2.43-7.86,3.56-12.51,4.67.4-1.05,2.78-.44,2.4-2.05.73-.21,1.69-.85,1.4-1.65-.45.05-1.11.18-1.39.13-.33-.06-.75-.62-.93-.94-.61-1.04-1.58-.34-2.41-.21-.93.14-1.45.21-2.53.86l-.97-2.49-2.28-.1c-.13,0-.5.32-.61.38-.15.08-.31-.39-.41-.64l-2.54-1.01.7-.83c-.32-.42-.55-.73-.69-.94s.45-.83.7-.86l2.18-.3c.21-.03.23-.59.04-.61l-1.1-.13.43-.91c.1-.21-.56-.54-.78-.61l-.61-.19c-.14-.05-.03-.52.11-.54.36-.02,1.01,0,1.34-.32-2.85-.88-2.97-.07-5.22-.6l-1.96-.46c.97-.5,1.93.05,2.14-1.03l-.81.17c-.45.09-1.11-1.09-1.3-.92l-.65.61c-.16.15-.54.45-.47.62l.37.91-1.32.1,2.03,1.26-1.72.95c-.45.07-1.41-.06-1.9-.15l1.18-.72c-.44-.81-1.33-.47-2.06-.27.11-.32.33-.95.1-1.01-.14-.03-.57.17-.56.31l.05.63c0,.12-.52.04-.65.03s.01-.3.04-.5v-.67c.01-.15-.53-.2-.66-.17l-.32,1.06c-.73.16-1.38.37-2.12.68-.05-.16-.17-.82-.42-.9s-.82-.11-1.09-.11c-.12-6.54-.46-4.23,2.86-9.17l.96.24-.74-.88c.61-1.79,1.09-3.53.89-5.43.28.02.85.02,1.11-.03.39-.07.2-1.1.36-1.65.06-.19.67-.31.83-.19l.98.72c-.34.35-.61.61-.69.83s.59.5,1.03.57c.38-.11.26.38.03.5-2.17.31-1.39,2.83-1.64,2.58l.52.5-.55.91c-.3.51,1.35.68,1.52,1.69.14.8-.73.42-1.51,1.96-.34.68-1.47-.49-1.78.65-.06.21.11.77.36.88.65.29,1.96-.18,2.08-1.19l.89.12c-.03-.71.15-1.43.56-2.11l1.25-2.06c0-.53-.5-1.61-.09-2.25l1.16.26c.18.04.53-.32.7-.25.2.08.43.49.58.74l.28.47c.08.13.41-.32.54-.38.43-.22,1.61-.3,1.89-.7,1.09-1.88.33-2.38,2.89-2.88-.06-.27-.5-.55-.84-.56l-3.88-.09-4.36.1c.37-.66.87-1.7.6-2.2-.29-.56-1.23-.59-.85-1.59l1.04.22,1.36-1.19c-.72-.35-2.05.2-2.1-.23l-.1-1.05,1.18.06,1.25-.38c-.19-.24-1.07-.77-1.53-.69l-2.26.43c-.1.02-.42.12-.42.04l-.04-.71c.63-.27,1.87-.59,2.41-.98.55-.6.55-.78,1.58-1.14l-.91-.64c.58-.44,1.15-.92,1.61-1.42v.86s1.61.26,1.61.26c.42.07,1.15-.09,1.91-.21-.26-.5-.88-.66-1.55-.95-.4-1.1,1.63-1.87.5-2.45-.92-.47-2.36.6-2.83-.7l2.61-.35,1.18.82c.18-.34.35-.66.48-.81l1.2-.57c-1.41-1.75-2.81.42-2.64-1.05.04-.31,1.32.37,1.45-.47.05-.3-.39-.91-.69-.93l-1.83-.14c.35-1.29,1.16-.97,2.17-.84.52.07,3.68-.1,3.35-.7l-.36-.66.74-1.33.62.1c.14.02.39-.51.23-.57-.56-.21-1.73-.42-2.63-.52l.13,1.1-2.07.19c-.15.01-.47-.42-.54-.55-.08-.17.41-.39.6-.45l.59-.18c.11-.03.12-.43.02-.49l-.62-.44c.32-.43.82-1.07.69-1.41l-.59-1.52c-.31-.8-.51-1.49-.25-2.24.63.13,1.18.78,1.63,1.35l1.84,2.35c.22.28.73.52,1.07.59ZM92.78,91.26h-.47c.11.81.36.81.47,0ZM93.81,94.47c-.19-.28-.53-.59-.73-.68-.16-.07-.73.23-.7.42.07.47,1.06.61,1.43.26ZM87.66,96.61c-1.06-.69-2.26-.99-3.37-.32-.37.22-.1,1.18-.09,1.63,0,.31-.15.87-.07,1.11s.64.38.95.44l.7.12c.49.09-.86-2.35,1.88-2.98ZM92.39,96.2c-.09.05.14.38.24.4.07.02.25-.07.23-.14l-.1-.39c-.02-.07-.26.06-.37.12ZM90.23,101.7l.25.35c.05.07.36-.05.34-.13-.03-.1-.08-.24-.11-.32s-.52.03-.47.1ZM113.08,110.28c-.16-.51-1.43-.54-1.51.11-.04.3.54.61.81.56.22-.04.78-.43.7-.67ZM114.33,110.09c0-.13-.11-.24-.24-.24s-.24.11-.24.24.11.24.24.24.24-.11.24-.24ZM115.41,110.31c0-.13-.11-.24-.24-.24s-.24.11-.24.24.11.24.24.24.24-.11.24-.24Z"/>
      <path class="cls-24" d="M109.95,112.85c.38,1.61-2,1-2.4,2.05-1.72.41-3.46.78-5.2,1.05-.05-1.26-4.99-.22-5,.12l-.03.89c-.42.05-1.07.23-1.5.32.13-.5-.25-1.67-.79-1.63l-3.51.29c.21-.5.32-.77.38-1.02.19-.9-2.11.64-2.89.24l-1.3-.67c-.05-.09-.18-.3-.23-.37-.44-.71-.4.37-1.37,1.02-.25.17-.82-.1-1.14-.06-.37.05-1.03.22-1.48.15-.59-.1-1.67-.27-1.92.14-.4.67-.52.99-1.41,1.25l.29,1.16c.18.73.23,2.1,1.03,2.39l1.32.47-2.26,1.71-.31-1c-.08-.26-.76.13-1.03.28-.48-.42-1.04-.77-1.68-.69.04-.1.13-.3.18-.4l1.43-.35.35-2.51c.02-.13-.05-.57-.18-.59l-.53-.08c0-.16-.04-.47.02-.61.24.02.73-.08.69-.29-.04-.19-.21-.56-.31-.58.09-.43.23-.97.44-1.31l.48-.1c.12-.02.03-.52-.09-.55l-.27-.05c.03-.17.18-.47.23-.64.61.01,1.65.14,2.19-.02l1.63-.49-.67-.86c.62-1.05,1.56-.79,2.43-.9.67-.08,1.2-.37,1.88-.03.24.12.48.27.45.42l-.12.66,2.38-.7.39.8c.12.24,3-1,4.38-.17.17.21.38.77.61.86s.84-.11.98-.32c.51-.72,1.3-.93,2.11-1.2.45-.15.95-1.34,1.6-.46.61.82,1.94,1.16,1.23,3.51-.06.2.59.68.69.51l.5-.79c1.6.41,3.22-1.2,3.25-.96l-.08-.56c2.45-1.07,2.78.38,4.1.67Z"/>
      <path class="cls-18" d="M95.83,117.28c-1.95.38-3.92.69-6,.98-1,.14-2.02.22-2.73.79-.05.01-.16.02-.22.02-.54-.06-1.31.12-1.52.63-.05.01-.16.02-.22.02-.45,0-.9.24-1.09.63h-.2s-.25.18-.25.18l-2.59,1.95c-.1.07-.33.17-.44.22-1.65,1.74-2.36,1.29-3.92,2.36-.12.04-.35.1-.44.17l-.39-.05,1.74-4.25c.64-.08,1.19.27,1.68.69.27-.15.95-.54,1.03-.28l.31,1,2.26-1.71-1.32-.47c-.8-.29-.85-1.66-1.03-2.39l-.29-1.16c.89-.27,1.01-.58,1.41-1.25.24-.41,1.33-.23,1.92-.14.45.07,1.11-.1,1.48-.15.32-.04.88.23,1.14.06.97-.65.93-1.74,1.37-1.02.05.07.18.28.23.37l1.3.67c.78.4,3.08-1.14,2.89-.24-.05.25-.17.52-.38,1.02l3.51-.29c.54-.05.92,1.12.79,1.63Z"/>
      <path class="cls-12" d="M121.06,118.12l-2.89.83c-.03-2.14-.22-3.84-.95-5.67-.1-.24-.19-1.01.05-1.14l2.97-1.6c1.19,1.13,2.47,6.74.83,7.58Z"/>
      <path class="cls-24" d="M109.9,117.27c-.26-.67-.47-1.45-.6-2.18.21-.27,3.35-1.46,3.64-.88l.25.51v-1s3.43-1.2,3.43-1.2c.71.84,1.77,6.22.95,6.74-.94.54-2.08.76-3.44,1.17l-.06-2.97c-.02-.98-.37-2.04-.81-2.83.39,2.06.75,3.84.59,5.89l-3.24.93-.33-3.37c-.02-.25-.29-.72-.39-.81Z"/>
      <path class="cls-12" d="M123.46,109.83c.93,1.97,1.22,4,.6,5.94-.21.66-1.3,1.19-1.9,1.25.14-2.58-.4-4.54-1.43-6.7l1.82-1.34.91.86Z"/>
      <path class="cls-24" d="M105.4,116.62c0,.07,0,.16,0,.22l.39,2.8c.03.25.05.75-.1.82l-.54.24-1.52-.58-1.2-.57-.83-2.88,3.3-.79.48.74Z"/>
      <path class="cls-8" d="M101.27,60.24c-.35-.07-.86-.31-1.07-.59l-1.84-2.35c-.45-.57-1-1.22-1.63-1.35l-.04-.51c.15-.03.59-.11.74.04,1.24,1.3,2.88,3.13,3.84,4.75Z"/>
      <path class="cls-8" d="M95.38,49.22c2,1.48,2.24,3.96,1.31,6.23l-.32.07c-.11.02-.17.25-.18.35l-.38.12c-.1.03-.18-.17-.22-.29-.21-.84-.57-1.65-1.03-2.36.28.9.53,1.47.55,2.11-.88-.32-1.55-.97-2.06-1.78l-1.34-2.11.19-.3c.72.03,1.37.64,1.91,1.16l.59.92-.12-.94.95-.71c.82-.61-1.28-2.51.13-2.5Z"/>
      <path class="cls-8" d="M109.3,115.09c.13.73.34,1.51.6,2.18l-.02.85c-.56-.41-1.1-.76-1.68-.57-1.83.58-1.05,1.7-2.09,2.5l-.26-2.13c-.05-.4-.24-.86-.44-1.08,0-.06,0-.15,0-.22v-.86s3.9-.66,3.9-.66Z"/>
      <path class="cls-8" d="M123.46,109.83c-.21-.56-.53-1.04-.36-1.25.17-.22.71-.61.97-.72,2.3,2.08,2.15,5.4.75,7.69l-.06-1.57c-.06-1.49-.09-3.31-1.29-4.14Z"/>
      <path class="cls-24" d="M95.38,49.22c-1.41-.02.69,1.89-.13,2.5l-.95.71h-.48c-.54-.51-1.19-1.12-1.91-1.15l-.03-.19c.38-.42.73-1.25,1.07-1.74l.78-.66c.68-.57,1.28.24,1.66.53Z"/>
      <path class="cls-4" d="M102.1,119.68l-3.03-.65c-.46-.53-.77-.98-1.25-1.75l3.52-.65.76,3.05Z"/>
      <path class="cls-12" d="M122.84,107.89l-.53.5c-.45-.09-1.28-.23-1.66-.47l-1.41-.88c-.02-.23.05-.68.24-.83.54-.45,2.04-.36,2.79.12.38.24.58,1.08.56,1.56Z"/>
      <path class="cls-10" d="M102.35,115.95c-1.6.56-3.33.82-5.02,1.01l.03-.89c.01-.33,4.94-1.38,5-.12Z"/>
      <path class="cls-10" d="M97.55,118.75c-.93-.17-1.93-.43-2.87-.52.1-.57,2.35-.78,2.94-.73.2.02.6.77.44.89l-.51.36Z"/>
      <path class="cls-24" d="M53.71,126.03c-1.49.7-2.39,2.06-2.75,3.89-2.45.17-4.84-.03-7.2-.63-1.23-.31-2.12-1.17-2.93-2.1-1.62-1.86-3.3-3.71-4.06-5.97.56-2.68-.54-1.85.48-3.99.84-1.78-.1-2.2.49-3.87.37.07,1.07-.22,1.33-.6.73-1.05,2.17-1.77,2.57-3.06.53-1.71.68-4.2.11-5.93-.47-1.41-2.08-2.36-2.64-3.74l-2.03-.56c-.18-.05-.46-.41-.45-.48v-3.48s.07-.41.07-.41c.82-.09,1.33.95,1.31,1.51,0,.14.06.39.13.52.05.09.41.2.52.2h2.99s.08-5.24.08-5.24c-3.59,1.2-1.16-1.99-5.08-1.66l-.03-2.94-1.87-.27,1.57-4.47c4.66.26,7.12-.43,11.24-2.2,2.66-1.14,5.3-2.16,7.9-3.45l1.1-.55-.79,1.36c-1.5,2.57-2.67,5.29-2.92,8.38-.37,4.57.11,9.17,1.14,13.66.59,2.58,1.37,4.91,1.8,7.55.12.7-.11,1.85-.22,2.59l-1.77,12.2c-.15,1.06-.17,2.84-.1,3.75Z"/>
      <path class="cls-21" d="M36.63,110.7l.15-1.32c1.11-.44,1.56-1.31,1.55-2.34v-1.75c-.02-.6-.92-1.26-1.43-1.36-.1-.37-.19-.81-.2-1.2,1.27.02.69-1.81,1.23-2.26.37.13.77.17,1.03.5l2.42,2.99v5.57s-2.78,2.92-2.78,2.92c-.33.35-1.71.3-1.77-.15l-.21-1.6Z"/>
      <path class="cls-8" d="M54.28,126.19l.63.61c-.08,1.23-1.83,2.02-1.96,3.74l-.14,1.94c-.01.18-.42.5-.5.45-.4-.36-3.14.84-3.47,1.16-.29-.02-.82-.09-1.09-.02-.73.17-2.06.7-2.81,1.03l-2.07-1.89c-.45-.8-.97-2.28-1.03-3.1l.41-.87c.45,0,1.55.3,1.87.7.38.86-.15,2.37.84,2.52.78-.15,1.6-.42,2.33-.83l-.19-1.2c.16.03.57-.06.6.1l.14.62c.22,1,.09,2.12.94,2.78-.34-1.29-.58-2.16-.78-3.43l2.73-.19c.19,1.06.15,1.97,1.17,2.44-.71-1.21-.69-2.15-.32-3.33.42-1.35.94-2.48,2.16-3.14l.55-.08ZM45.14,133.15c0-.08-.06-.14-.14-.14s-.14.06-.14.14.06.14.14.14.14-.06.14-.14Z"/>
      <path class="cls-8" d="M37.75,113.36c-.59,1.67.35,2.09-.49,3.87-1.01,2.14.08,1.31-.48,3.99-1.17-1.39-1.87-3.11-2.42-5.17l2.28.15.04-3.04,1.08.2Z"/>
      <path class="cls-4" d="M34.18,102.62l.49.32v12.14c-.28-.08-.82-.46-.92-.78l-.65-2.2,1.2.18-.08-3.24-.65-1.13c.09-3.39-1.06-1.31-1.39-3.25.52.4,1.03.5,1.86.38.1-.69.05-1.3-.22-1.84l-.47-.94.83.37Z"/>
      <path class="cls-21" d="M33.58,107.9l.65,1.13.08,3.24-1.2-.18c-.36-1.22-1.16-4.87-.75-6.21.54.94.79,1.44,1.23,2.02Z"/>
      <path class="cls-12" d="M33.35,102.25l.47.94c.27.54.32,1.15.22,1.84-.83.12-1.34.03-1.86-.38-.19-1.09-.48-2.26-.06-3.28l1.23.88Z"/>
      <path class="cls-10" d="M36.64,127.5c-.79-.86-.43-3.22.43-4.21.32.42.78,1.11.79,1.49l.03,2.95-1.25-.23Z"/>
      <path class="cls-4" d="M47.09,130.42l.19,1.2c-.73.42-1.54.68-2.33.83-.21-.83-.35-1.49-.47-2.47l2.6.43Z"/>
      <path class="cls-4" d="M39.87,128.5l-1.75-.53.12-3.07c1.17,1.45,1.8,1.58,1.63,3.6Z"/>
      <path class="cls-2" d="M37.93,100.47c-.54.45.04,2.28-1.23,2.26l-.07-2.22c0-.09-.04-.26-.06-.35l.11-.48c.34.25.85.65,1.24.79Z"/>
      <path class="cls-4" d="M36.64,99l-.43.45v-2.19c.2-.5.23-1.14.2-1.74h.22v3.48Z"/>
      <path class="cls-24" d="M70.57,137.28c-.33.26-.63.56-.85.9-.23.1-.67.33-.91.29l-.64-.1c-.1-.02-.32.04-.42.04-.05,0-.16,0-.22-.01v-.46c1.77-1.79,2.33-3.2,2.24-5.85.59-.24,1.88-.09,1.98.66.21,1.68-.51,3.16-1.17,4.53Z"/>
      <path class="cls-21" d="M38.53,96.59c-.21-.96-.93-1.85-1.84-2.23-.02-1.13-.03-2.23.03-3.35,2.97-.35,1.15,2.07,4.49,1.65l-.08,4.12c-.94.07-1.81.06-2.59-.19Z"/>
      <path class="cls-8" d="M43.34,80.5l.21.44.31.77-3.92.8c-.27-.37-.47-.68-.67-.91-.08-.83-.14-2.54.2-3.35l3.32-.72.17,2.27c.02.21.28.61.38.71Z"/>
      <path class="cls-10" d="M36.37,77.69c.77.46,1.79.44,2.92.5-.55,1.24-.78,2.49-.02,3.4.02.17.11.51.15.7.1.45-2.49.64-3.54-.7-1.02-1.3-.34-3.68.48-3.9Z"/>
      <path class="cls-23" d="M38.53,96.59l-.51.02c.02-.55-.49-1.6-1.31-1.51v-.74c.9.37,1.62,1.26,1.83,2.23Z"/>
      <path class="cls-22" d="M36.41,95.51c.02.6,0,1.24-.22,1.74v-1.96l.22.22Z"/>
      <path class="cls-9" d="M34.56,94.16l.05,2.17c-.16-.03-.72-.27-.86-.11l-.57.63c-.16-1.1-.12-2.35,1.09-2.69h.29Z"/>
      <path class="cls-4" d="M34.61,96.34l.03.46c-.23.33-.26,1.01,0,1.33v.65s-.42.22-.42.22c-.46-.69-.92-1.35-1.04-2.14l.57-.63c.14-.16.7.08.86.11Z"/>
      <polygon class="cls-23" points="34.67 102.94 34.18 102.62 34.22 98.99 34.64 98.78 34.67 102.94"/>
      <path class="cls-14" d="M55.84,73.32l.04-.88c.02.1,0,.35-.04.88Z"/>
      <path class="cls-14" d="M56.3,74.85l-.3-1.32c.26.31.35.67.3,1.32Z"/>
      <path class="cls-12" d="M51.19,78.59c-.98.45-3.27,2.04-3.65.63l.2.96-3.5,1.16c-.18.04-.61-.24-.69-.4l-.21-.44c.26-.74-.65-2.47.06-3.07.27-.24.87-.52,1.29-.67l2.2-.78c.07,1.42.06,2.18.5,3.22l-.26-3.03c-.03-.31.62-.56.85-.65,1.54,1.74,1.96.68,3.19,3.07Z"/>
      <path class="cls-8" d="M90.13,55.71c.09.23.26.49.44.68l.4,1.05c.07.19.19.47.27.65l.03,2.07c-.79.44-1.45.87-2.16,1.21l-2.5,1.2c.1-1.75-.53-2.94-1.25-4.04l-.83-1.28.38-.72c.95-.56,1.81-1.46,2.82-1.93.26-.12.63-.25.91-.35l1.49,1.46Z"/>
      <path class="cls-12" d="M85.36,58.53l1.13,3.32c.1.3-.24.95-.49,1.05l-4.23,1.7c.17-3.2-1.45-3.66-1.63-5.21.05-.04.13-.12.18-.15.1.04.62-.05.8-.17l1.23-.77c.56-.35,1.26-.75,1.84-.95l1.17,1.18Z"/>
      <path class="cls-10" d="M75.3,62.4c-.35-.87,1.2-.77,2.66-1.96.25-.2.77-.5,1.09-.56.23-.04.58-.03.78,0,.04,0,3.03,4.32,1.09,5.1l-3.93,1.58c-.06-1.64-.82-3.52-1.68-4.17Z"/>
      <polygon class="cls-9" points="74.05 68.32 73.18 68.75 73.18 68.53 74.05 68.32"/>
      <path class="cls-9" d="M96.19,55.87v.27c-1.59,1.94-3.55,3.5-5.77,4.79-.75.43-1.45.96-2.23,1.29l-7.76,3.33-6.38,2.77c.65-.69,1.78-1.07,2.83-1.68-.44-2.71-.89-2.55-1.57-4.24.86.65,1.63,2.53,1.68,4.17l3.93-1.58c1.95-.78-1.04-5.09-1.09-5.1-.2-.03-.55-.05-.78,0,.35-.18.73-.36,1.09-.5.18,1.55,1.8,2.01,1.63,5.21l4.23-1.7c.25-.1.59-.75.49-1.05l-1.13-3.32c.72,1.1,1.34,2.29,1.25,4.04l2.5-1.2c.71-.34,1.37-.77,2.16-1.21l-.03-2.07c.16.52.24.98.37,1.81.83-.68,4.17-3.05,3.73-4.18l.25-.02c.05.12.12.32.22.29l.38-.12Z"/>
      <path class="cls-12" d="M109.95,112.85c-1.32-.29-1.66-1.74-4.1-.67l.08.56c-.03-.24-1.66,1.37-3.25.96l-.5.79c-.11.17-.75-.31-.69-.51.71-2.35-.63-2.69-1.23-3.51-.65-.88-1.14.31-1.6.46-.82.28-1.6.48-2.11,1.2-.15.21-.75.41-.98.32s-.43-.65-.61-.86c-1.38-.83-4.27.41-4.38.17l-.39-.8-2.38.7.12-.66c.03-.14-.22-.3-.45-.42-.68-.34-1.22-.05-1.88.03-.88.11-1.81-.16-2.43.9l.67.86-1.63.49c-.54.16-1.58.03-2.19.02l.35-1.27c.76-2.73,1.65-5.35,1.71-8.06.42-.01.76-.54.75-.98-.01-.3-.4-.71-.71-.8l.18-1.05c.27,0,.84.03,1.09.11s.37.74.42.9c.73-.31,1.38-.52,2.12-.68l.32-1.06c.13-.02.67.02.67.17v.67c-.04.2-.18.5-.05.5.13,0,.66.09.65-.03l-.05-.63c-.01-.14.42-.34.56-.31.23.06.01.69-.1,1.01.73-.2,1.61-.54,2.06.27l-1.18.72c.49.08,1.45.22,1.9.15l1.72-.95-2.03-1.26,1.32-.1-.37-.91c-.07-.17.31-.47.47-.62l.65-.61c.18-.17.85,1.01,1.3.92l.81-.17c-.2,1.08-1.16.53-2.14,1.03l1.96.46c2.25.53,2.37-.28,5.22.6-.33.32-.99.3-1.34.32-.14.01-.26.49-.11.54l.61.19c.22.07.88.4.78.61l-.43.91,1.1.13c.18.02.16.59-.04.61l-2.18.3c-.25.03-.84.65-.7.86s.37.52.69.94l-.7.83,2.54,1.01c.1.25.27.72.41.64.11-.06.48-.39.61-.38l2.28.1.97,2.49c1.08-.65,1.6-.72,2.53-.86.83-.13,1.8-.83,2.41.21.18.31.61.88.93.94.29.05.94-.08,1.39-.13.29.8-.67,1.44-1.4,1.65Z"/>
      <path class="cls-9" d="M86.23,85.5c.2,1.9-.28,3.63-.89,5.43l-.22.64c-3.32,4.93-2.98,2.62-2.86,9.17l-.18,1.05-.04,1.78c-.06,2.71-.95,5.33-1.71,8.06l-.35,1.27c-.05.16-.2.47-.23.64l-.12.7c-.2.34-.34.88-.44,1.31l-.38.87c-.06.14-.02.46-.02.61-.49,1.08-.9,2.36-1.08,3.53-.05.1-.14.3-.18.4l-1.74,4.25.39.05c-.79.62-1.96,2.47-1.11,3.56.12.95.4,1.91.72,2.83l-.42.25c-.59-1.13-.64-2.55-.72-4l-1.72,3.04-.25-.02c.76-2.26,2.01-4.31,2.96-6.62,1.56-3.82,2.56-7.7,3.85-11.61,1.17-3.54,1.92-7.01,2.1-10.73l.26-5.13.18-3.51c.09-1.86.06-3.71,0-5.58-.01-.37-.26-.75.09-1.04.16.58.39,1.32.38,1.83l-.02,6.08c2.39-2.65,3.32-5.89,3.72-9.09Z"/>
      <path class="cls-12" d="M87.66,96.61c-2.74.63-1.39,3.06-1.88,2.98l-.7-.12c-.31-.05-.87-.2-.95-.44s.07-.8.07-1.11c0-.45-.28-1.41.09-1.63,1.11-.66,2.31-.36,3.37.32Z"/>
      <path class="cls-12" d="M113.08,110.28c.08.24-.48.63-.7.67-.27.05-.84-.26-.81-.56.08-.65,1.35-.62,1.51-.11Z"/>
      <path class="cls-12" d="M93.81,94.47c-.37.35-1.35.21-1.43-.26-.03-.18.53-.49.7-.42.2.09.54.4.73.68Z"/>
      <polygon class="cls-12" points="85.13 91.57 85.34 90.93 86.09 91.81 85.13 91.57"/>
      <path class="cls-12" d="M92.39,96.2c.12-.06.35-.19.37-.12l.1.39c.02.07-.16.15-.23.14-.1-.03-.33-.36-.24-.4Z"/>
      <path class="cls-12" d="M92.78,91.26c-.11.81-.36.81-.47,0h.47Z"/>
      <path class="cls-12" d="M90.23,101.7c-.05-.08.43-.18.47-.1s.08.21.11.32c.02.08-.29.2-.34.13l-.25-.35Z"/>
      <circle class="cls-12" cx="115.17" cy="110.31" r=".24"/>
      <circle class="cls-12" cx="114.08" cy="110.09" r=".24"/>
      <path class="cls-4" d="M109.88,118.11c.37,1.15.47,2.45.29,3.65l-.6.14-3.39-1.1-.07-.76c1.04-.8.26-1.92,2.09-2.5.58-.19,1.12.17,1.68.57Z"/>
      <path class="cls-8" d="M76.65,125.07c.17-.01.59-.01.7.14.59.84-.03,2.27.62,2.51l-1.06,2.63c-.26-.88-.83-1.72-1.81-1.55-.84-1.09.32-2.94,1.11-3.56.1-.07.33-.14.44-.17Z"/>
      <path class="cls-4" d="M75.4,131.89v.19s-.26.12-.26.12c-.85.14-1.74.4-2.58.65l-.82-.49c.56-.63.96-.98,1.21-1.43l1.72-3.04c.08,1.45.13,2.87.72,4Z"/>
      <path class="cls-4" d="M76.91,130.35c-.06.63-.48,1.15-1.09,1.29-.32-.93-.6-1.88-.72-2.83.98-.17,1.55.66,1.81,1.55Z"/>
      <path class="cls-9" d="M80.58,122.93l-1.38,1.67c-.33-.25-1.37.04-1.46.49-.11.53.15,1.23.42,1.54l-.19,1.08c-.64-.23-.03-1.67-.62-2.51-.1-.15-.53-.15-.7-.14,1.57-1.07,2.28-.62,3.92-2.36v.23Z"/>
      <path class="cls-12" d="M77.74,120.54c.18-1.17.58-2.45,1.08-3.53l.53.08c.13.02.2.46.18.59l-.35,2.51-1.43.35Z"/>
      <path class="cls-12" d="M78.84,116.4l.38-.87c.1.02.27.39.31.58.04.21-.45.31-.69.29Z"/>
      <path class="cls-12" d="M79.66,114.22l.12-.7.27.05c.12.02.21.52.09.55l-.48.1Z"/>
      <path class="cls-14" d="M95.59,55.7l-.25.02-.22-.27c-.02-.65-.27-1.21-.55-2.11.45.71.82,1.52,1.03,2.36Z"/>
      <polygon class="cls-4" points="94.29 52.42 94.4 53.36 93.81 52.43 94.29 52.42"/>
      <path class="cls-14" d="M36.63,100.52l.07,2.22c.01.38.09.83.2,1.2l-.3.53s0,.1,0,.15h-.35s-.07-3.68-.07-3.68c0-.09.06-.41.14-.4s.23,0,.32,0Z"/>
      <polygon class="cls-22" points="36.6 104.61 36.65 107.93 36.37 107.92 36.25 104.59 36.6 104.61"/>
      <path class="cls-23" d="M34.64,98.12c-.25-.32-.23-.99,0-1.33v1.33Z"/>
      <path class="cls-22" d="M38.32,107.04l-.54.07c.14-.9-.01-2.6-1.2-2.66l.3-.53c.51.1,1.42.77,1.42,1.36v1.75Z"/>
      <path class="cls-14" d="M72.71,130.91l.25.02c-.26.46-.66.8-1.21,1.43l.82.49c-.24.08-.46.46-.47.73-.05.02-.23.14-.22.22l.11.63c.02.11.09.31.13.42-.68.24-.47,1.58-1.54,2.42.66-1.37,1.37-2.86,1.17-4.53-.09-.75-1.38-.9-1.98-.66.1,2.65-.47,4.06-2.24,5.85,1.87-2.8,1.58-2.29,1.96-5.92-.68-.38-1.71-.6-2.55-.65.1,2.33-.74,3.96-1.9,6.02.62.41,1.42.58,2.49.56v.46l-3.9-.71-.45-.19c-.05-.02-.14,0-.22,0l-.44-.22v-.22l2.08.4c1.26-1.83,1.99-3.95,2.04-6.28l-3.68-1.24-.74,2.69c-.2.74-.87,2.36-1.28,3.02l-.2-.03c.98-1.72,1.46-3.66,1.95-5.74l-3.74-1.49-.8,1.28c0-.23.03-.65.15-.83l.37-.57c-1.04-.48-2.33-1.01-3.33-1.26-.12-.05-.37-.12-.46-.21l-.63-.61c0-.07.02-.16.01-.2,5.46,2.15,11.65,5.09,17.53,5.98l.89-1.05Z"/>
      <path class="cls-14" d="M57.73,130.76c.11-.44.03-.87.44-1.09,0,.38-.17.84-.44,1.09Z"/>
      <path class="cls-14" d="M57.73,130.76l-.74,3.04c-.17.69.21,1.33.88,1.43.2.03.5.38.51.53-1.65-.39-4.64-1.74-6.09-2.83.08.06.49-.27.5-.45l.14-1.94s.19.34.2.46l.09,2.23,2.67,1.09c.12.05.39.27.49.33.66.43,0-2.67,1.34-3.9Z"/>
      <path class="cls-4" d="M55.36,127.01c-.76,1.1-2.18,2.12-1.79,3.72.12.5,1.48.08,1.87-.22l1.06-.81c.52-.4,1.21-.72,1.82-.86-.12.18-.14.59-.15.83-.41.21-.33.65-.44,1.09-1.33,1.23-.67,4.33-1.34,3.9-.1-.07-.38-.29-.49-.33l-2.67-1.09-.09-2.23c0-.12-.18-.5-.2-.46.13-1.72,1.88-2.51,1.96-3.74.09.09.34.16.46.21Z"/>
      <path class="cls-4" d="M60.75,135.62l-.22.48c-.07.15-.64.01-.79-.02l-1.35-.32c-.01-.15-.31-.5-.51-.53-.67-.1-1.05-.74-.88-1.43l.74-3.04c.26-.24.43-.71.44-1.09l.8-1.28,3.74,1.49c-.49,2.08-.98,4.02-1.95,5.74Z"/>
      <circle class="cls-14" cx="45.01" cy="133.15" r=".14"/>
      <path class="cls-10" d="M37.79,107.11c-.08.42-.73.84-1.13.82l-.06-3.32c0-.05-.02-.12,0-.15,1.19.06,1.34,1.75,1.2,2.66Z"/>
      <path class="cls-24" d="M95.11,55.45l.22.27c.44,1.13-2.9,3.51-3.73,4.18-.13-.84-.21-1.29-.37-1.81-.07-.23-.17-.49-.27-.65l-.4-1.05c-.08-.2-.29-.53-.44-.68l-1.49-1.46,3.08-2.68,1.34,2.11c.51.81,1.18,1.46,2.06,1.78Z"/>
      <path class="cls-14" d="M91.24,58.09c-.08-.18-.2-.46-.27-.65.1.16.2.43.27.65Z"/>
      <path class="cls-14" d="M90.57,56.39c-.18-.19-.34-.45-.44-.68.15.15.36.48.44.68Z"/>
      <path class="cls-10" d="M78.74,74.98c-.07-.05-.42-.13-.5-.04s-.26.45-.37.49c-.45.14-1.39-.68-1.36-1.14.07-.17.7-.5.61-.67l-.49-.92h1.67s.31,1.29.31,1.29l.35-1.02,2.31-.35c.2-.03,3.71-.45,3.23.75h-4.58c-.19-.02-.8.46-.67.55l.91.62-1.67,1.35c-.06.05-.37-.23-.32-.29l.58-.63Z"/>
      <path class="cls-10" d="M91.68,87.33l-.64-.54-.42-.36c-.13-.11.01-.71.15-.65.63.06,1.28.03,2.13-.07.08.15.03.91-.15,1.13-.2.25-.82.69-1.07.49Z"/>
      <path class="cls-10" d="M84.68,74.16c2.01.16-1.17,1.41-2.66.44.2-.31.67-.6.89-.58l1.77.14Z"/>
      <path class="cls-10" d="M89.1,81.48l-.57.61c-.12.12-.47-.27-.6-.38s.47-.39.55-.53l.78-1.49c.04-.07.48-.06.55-.03-.01,0,.31.73-.71,1.82Z"/>
      <path class="cls-10" d="M89.97,73.98c-.39.78-1.04.83-1.65.3l1.65-.3Z"/>
      <path class="cls-10" d="M89.56,75.85c.02-.11.62-.17.59-.06l-.11.41c-.04.14-.5-.2-.48-.34Z"/>
      <path class="cls-10" d="M90.17,86.91c-.11.81-.36.81-.47,0h.47Z"/>
      <path class="cls-10" d="M95.81,86.03l.52-.11c.09-.02.21.32.13.35-.09.03-.26.1-.34.13-.12.06-.43-.35-.3-.38Z"/>
      <circle class="cls-10" cx="98.2" cy="63.97" r=".24"/>
      <path class="cls-10" d="M82.05,103.56l.04-1.78c.31.08.7.5.71.8.02.44-.33.97-.75.98Z"/>
      <path class="cls-24" d="M62.52,137.07l-1.11-.4c-.2-.05-.72-.31-.67-.49.04-.14.13-.4.21-.53.4-.65,1.07-2.28,1.28-3.02l.74-2.69,3.68,1.24c-.05,2.34-.79,4.45-2.04,6.28l-2.08-.4Z"/>
      <path class="cls-4" d="M67.52,137.94c-1.07.02-1.87-.14-2.49-.56,1.16-2.05,1.99-3.68,1.9-6.02.85.06,1.88.27,2.55.65-.37,3.63-.08,3.12-1.96,5.92Z"/>
      <path class="cls-10" d="M58.32,128.84c-.6.14-1.29.46-1.82.86l-1.06.81c-.39.3-1.75.72-1.87.22-.39-1.6,1.03-2.62,1.79-3.72,1,.26,2.29.79,3.33,1.26l-.37.57Z"/>
    </g>
    <g>
      <path class="cls-14" d="M87.8,12.63c-1.7-1.31-3.33-3.95-5.34-5.48-.02.31-.03.55.03.67h-.23c-.3-.58-.87-1.19-1.21-1.75.21.13.67.16,1.14.28.03-.81-.3-1.8-.88-2.18-.85-.56-1.7-.67-2.67-.16.62.58,1.24,1.05,1.92,1.44l.47.27.02.36c-.73-.46-2.47-.5-3.32-.4l-4.81.57c.53-.85,3.71-.6,3.74-1.08.83.14,1.74.14,2.66-.08-3.33-2.21-6.99-3.79-10.75-3.98l-1.05-.26s-.15-.12-.22-.12l-.84-.02-2.82-.07-.06-.29c-.01-.07-.15-.07-.16,0l-.03.33c-.81.04-2.39.37-3.02.99-1.47.39-2.87,1.41-3.67,2.7l-.63.46-.34-.46c2.86-3.45,7.07-4.87,11.59-4.18,3.77.57,7.28,1.55,10.67,3.43,1.19-.99,2.46-.58,3.59.01,1.22.63.75,2.21,1.52,3.11l4.33,5.12c.19.23.3.57.38.79Z"/>
      <path class="cls-14" d="M54.42,6.05l.71-.25-.49,1.12c-.19.19-.43.61-.42.9,0,.04,0,.13.01.18-.7.35-1.13,1.22-1.32,1.99-.11.05-.59.1-.82.01l-7.64-2.79c-2.52-.92-10.79-3.54-13.31-2.62,4,1.3,6.28,3.62,9.45,5.94.91.66,1.52,1.99,2.79,2.09l.21.43.04.22c-2.29-1.66-4.47-3.43-6.73-5.25-1.78-1.44-3.68-2.43-5.92-3.15-.29.8-.16,1.45.23,2.1,2.47,4.06,6.29,6.96,10.76,8.58,1.35.49,2.98-.56,3.15-1.21.15.11.51.13.69.18.8.22,2.47,1.28,3.93,1.92l3.62,1.59c1.87.82,3.75,1.49,5.76,1.73.66.08,1.22.17,1.67.47v.22h-.44c-.08-.08-.3-.22-.44-.22h-.65c-.05-.03-.31-.12-.44-.15-3.41-.67-9.84-3.04-12.65-5.28-1.74.5-2.44,1.03-3.64,1.73-.13-.32-.32-.51-.62-.6-4.92-1.5-9.32-5.21-11.55-9.84l.22-.54c.04-.11-.24-.32-.3-.33-.04-.28-.05-.99.25-1.08,1.1-.33,2.35-.45,3.5-.26,3.69.61,7.15,1.61,10.66,2.88l7.47,2.7c.8-1.24,1.49-2.33,2.27-3.42ZM30.76,4.79h0Z"/>
      <path class="cls-8" d="M87.8,12.63c.04.12.08.35.17.43.15.14.46.34.65.45l.17.26c.14.47.38.99.7,1.46,1.22,1.82,2.13,3.79,2.19,5.9-.97.26-.85-2.54-1.57-3.65-3.2-1.12-.79-3.15-3.84-4.78l-1.56.12c-.45-1.41-1.62-3.78-2.22-5.01-.06-.12-.05-.36-.03-.67,2,1.53,3.64,4.17,5.34,5.48Z"/>
      <path class="cls-22" d="M56.07,4.81l-.14.46-.8.53-.71.25c.42-.58.85-1.15,1.31-1.7l.34.46Z"/>
      <path class="cls-14" d="M88.62,13.51c-.19-.11-.49-.31-.65-.45,0-.1.37-.18.42-.07l.23.52Z"/>
      <path class="cls-22" d="M30.36,6.09l-.08-.87c.07,0,.35.22.3.33l-.22.54Z"/>
      <path class="cls-4" d="M86.89,29.1l-.43.14c-.06.02.16.18.21.22l.2.15.46,1.9c.03.14.35.46.4.46l-.02.23c-.45-.04-1.05-.16-1.51-.35l-3.39-1.44-.02-.21.9-2.1c.93-2.17.2-4.31-1.56-5.65.3.16.91.05,1.07-.25l.45.74c1-1.12,1.93-2.18,2.48-3.45.33-.76.44-1.1,1.43-1.29.39-.08,1.1-.16,1.54-.11.35.04.67.73.75,1.12l.74,4.07c.33,1.78-.76,3.66-2.33,4.39-.59.27-1.11.93-1.35,1.43ZM86.22,28.99l-.89-.54c.02.46.51.67.89.54Z"/>
      <path class="cls-10" d="M91.68,21.13c.02.61.08,1.47-.04,2.15-.56,3.24-1.84,6.35-3.92,8.68-.05,0-.37-.32-.4-.46l-.46-1.9.72.2-.7-.7c.24-.5.76-1.16,1.35-1.43,1.58-.72,2.66-2.6,2.33-4.39l-.74-4.07c-.07-.4-.4-1.08-.75-1.12-.44-.05-1.15.03-1.54.11-.99.2-1.1.53-1.43,1.29-.55,1.26-1.48,2.32-2.48,3.45l-.45-.74c.06-.11.15-.32.21-.43.52-.84,1.14-2.64,1.31-3.71.28-1.69.53-3.56,0-5.23l1.56-.12c3.06,1.63.64,3.66,3.84,4.78.71,1.1.6,3.91,1.57,3.65ZM87.98,29.92c0-.06-.05-.11-.11-.11s-.11.05-.11.11.05.11.11.11.11-.05.11-.11ZM88.41,30.13c0-.06-.05-.11-.11-.11s-.11.05-.11.11.05.11.11.11.11-.05.11-.11Z"/>
      <path class="cls-18" d="M66.44,1.15c.5-.02,1.14.25,1.37.68.62,1.15,1.38,1.14,2.49,1.37,1.79.36,3.44.27,5.47.88l.9,1.07c-.03.47-3.21.23-3.74,1.08l4.81-.57c.51,4.13,3.21,2,5,4.93-.1.22-.47.64-.35.78l.53.68c.33.43.83.74,1.32.74,1.11,1.4-.05,5.07.49,5.26-.18,1.07-.8,2.87-1.31,3.71l.33-1.44c.03-.13.07-.44.07-.55s-.28-.16-.39-.19c.05-.62.36-1.76.14-2.29-.61-1.45-2.17-1.32-3.27-.89l-1.35.53-.13,2.03-1.05.36c-.41-.63-1.33-1.1-1.53-1.89l.29-.21c.08-.06-.13-.48-.11-.58l.49-1.83-5.13-1.62c-.77,1.26-2.04,1.25-3.25.5-.23.11,0,.68.14,1.01l1.23,3.03-.64.79c-.16.08-.46.28-.63.38-.06.04-.15.12-.21.17-.03.03-.11.02-.18.02.03-.06.03-.21-.03-.21-.09,0-.52.09-.6.05l-1.74-.96c-.15-.08-.56-.22-.71-.28-.19-.08-.24-.54-.19-.73l2.19-3.86,1.03-1.82,1.47-2.57-1.69,2.15c-.76-.37-2.61,3.97-2.41,4.37l-.23.43c-.88.1-2.21-.8-3.32-.82-.39.61-.68,1.14-1.22,1.23l-.87-.33c-.47.35-.92.1-1.46-.11-1.22-.46-2.41-.97-3.02-2.32-2.1.23-5.64.69-7.47-.13-.16-.07-.05-.45-.09-.68-.22-.9-.2-1.27.6-2.2l-1.14-.52c-.28-.13-.7.52-1.02.73-.55.36-2.27-.33-2.33-.03l-.11.65c-.09.54-.24,1.07-.48,1.48-1.27-.11-1.88-1.43-2.79-2.09l.63-.26c.35-.15-.48-.5-.91-1.52-.08-.2.62-.31.83-.22.86.4,1.56.37,2.49.44l3.03.24c3.14.25,2.38,1.33,3.25,2.14,1.04.97,4.28,1.69,4.56.2h.22s2.82,1.9,2.82,1.9c-.9-.82-1.82-1.55-2.82-2.15l-.05-.26c-.08-1.29.91-.91.88-1.71l.23-.2c2.07.88,3.92,2.03,6.22,3.16l.71-1.19c.07-.11-.19-.48-.3-.43l-.55.29c-.18.1-.63.08-.76-.07-.11-.12-.12-.56-.02-.7.33-.48.68.25,1.44-.27.14-.1.1-.54-.06-.64l-.72-.44c-.16-.09.16-.65.32-.73.33-.17,1.26.3,1.26.47v.56c-.01.13.36.37.44.28.2-.22.66-1.1.45-1.2l-3.04-1.53c.22,1.05-.84,4.09-1.91,3.68.15-.5.22-1.38-.07-1.28l-.92.31c-.2.07-.71-.54-.6-.74l1.23-2.24c.33-.02,1.03-.55.83-.75l-1.76-.51c-.4-.11-.93-.54-1.24-.81.8-1.29,2.2-2.32,3.67-2.7.21.11.6.29.82.31,0,.11.05.4.18.4h.55s.6.05.6.05c1.17-.35,2.37-.75,3.5-1.24l.43-.02ZM71.29,7.19l1.46-.84c-.61.1-1.08.43-1.46.84ZM59.69,15.4c-.59-.66-1.24-1.2-1.93-1.64.61.72,1.21,1.19,1.93,1.64Z"/>
      <path class="cls-10" d="M81.05,6.07c.34.56.91,1.17,1.21,1.75.33.64,2.25,4.44,1.96,4.98-.48,0-.98-.31-1.32-.74l-.53-.68c-.11-.15.25-.56.35-.78-1.79-2.93-4.49-.81-5-4.93.85-.1,2.59-.06,3.32.4Z"/>
      <path class="cls-8" d="M76.67,5.15l-.9-1.07c-.04-.27-.3-.55-.58-.59-2.79-.36-1.47-.67-4.54-1.11-1-.14-1.76-.24-2.07-1.3,3.75.19,7.42,1.77,10.75,3.98-.92.22-1.83.23-2.66.08Z"/>
      <path class="cls-10" d="M67.31.7c.06.04.15.11.22.12l1.05.26c.31,1.06,1.07,1.16,2.07,1.3,3.06.44,1.75.74,4.54,1.11.28.04.54.33.58.59-2.03-.61-3.68-.52-5.47-.88-1.11-.23-1.87-.22-2.49-1.37-.24-.44-.87-.71-1.37-.68l.03-.47.84.02Z"/>
      <path class="cls-8" d="M57.94,5.17c.48.61-.95,3.73-2.11,3.45l.09-3.35.14-.46.63-.46c.31.27.85.7,1.24.81Z"/>
      <path class="cls-8" d="M81.05,6.07l-.02-.36.22-.19c.08-.07-.23-.36-.32-.3l-.36.23c-.68-.39-1.3-.85-1.92-1.44.97-.51,1.82-.4,2.67.16.58.38.91,1.36.88,2.18-.47-.12-.93-.14-1.14-.28Z"/>
      <path class="cls-8" d="M63.39.65c.06,0,.19-.04.25-.04l2.82.07-.03.47-.43.02c-.02-.09-.06-.27-.14-.26l-.42.03c-1.21.09-2.42.43-2.94,1.47l-.6-.03c0-.12-.06-.37-.18-.38l-.54-.04c-.22-.02-.61-.2-.82-.31.64-.62,2.22-.96,3.02-.99Z"/>
      <path class="cls-10" d="M81.03,5.71l-.47-.27.36-.23c.09-.06.4.23.32.3l-.22.19Z"/>
      <path class="cls-22" d="M63.64.61c-.06,0-.19.04-.25.04l.03-.33c0-.07.14-.07.16,0l.06.29Z"/>
      <path class="cls-9" d="M84.71,12.82c.53,1.67.28,3.55,0,5.23-.53-.19.62-3.86-.49-5.26.28-.54-1.63-4.35-1.96-4.98h.23c.6,1.23,1.77,3.6,2.22,5.01Z"/>
      <path class="cls-24" d="M67.52.82c-.06-.02-.16-.08-.22-.12.07,0,.17.08.22.12Z"/>
      <path class="cls-24" d="M43.62,13.27l1.49,1.08c-.17.65-1.8,1.7-3.15,1.21-4.47-1.63-8.29-4.52-10.76-8.58-.4-.65-.53-1.3-.23-2.1,2.25.72,4.15,1.71,5.92,3.15,2.26,1.83,4.44,3.6,6.73,5.25Z"/>
      <path class="cls-12" d="M52.91,9.99c.32.16,1.16.67,1.34.36l.49-.85c.1-.18.59-.17.79-.16.03.8-.96.43-.88,1.71-.04.01-.34.07-.31.15l.14.35c-.28,1.49-3.52.76-4.56-.2-.87-.81-.11-1.88-3.25-2.14l-3.03-.24c-.93-.07-1.63-.04-2.49-.44-.2-.1-.91.02-.83.22.43,1.02,1.27,1.38.91,1.52l-.63.26c-3.17-2.32-5.45-4.64-9.45-5.94,2.51-.92,10.78,1.7,13.31,2.62l7.64,2.79c.23.08.72.04.82-.01Z"/>
      <path class="cls-16" d="M55.93,5.27l-.09,3.35c1.15.28,2.59-2.85,2.11-3.45l1.76.51c.2.2-.5.73-.83.75l-1.23,2.24c-.11.2.4.81.6.74l.92-.31c.29-.1.22.78.07,1.28,1.07.41,2.13-2.63,1.91-3.68l3.04,1.53c.21.11-.24.99-.45,1.2-.08.09-.45-.16-.45-.28v-.56c.02-.17-.92-.64-1.25-.47-.16.08-.48.64-.32.73l.72.44c.16.1.2.54.06.64-.76.52-1.1-.21-1.44.27-.09.14-.09.58.02.7.14.16.58.17.76.07l.55-.29c.1-.05.37.31.3.43l-.71,1.19c-2.3-1.13-4.15-2.27-6.22-3.16-.18-.22-.54-.55-.79-.7l-.74-.44c0-.05-.01-.14-.01-.18l.75-.32c.15-.06-.25-.59-.32-.58l.49-1.12.8-.53Z"/>
      <path class="cls-8" d="M54.23,7.99l.74.44c.25.15.61.48.79.7l-.23.2c-.2,0-.68-.02-.79.16l-.49.85c-.18.31-1.02-.2-1.34-.36.19-.78.62-1.64,1.32-1.99Z"/>
      <path class="cls-20" d="M54.22,7.81c0-.28.23-.7.42-.9.07,0,.47.52.32.58l-.75.32Z"/>
      <path class="cls-22" d="M68,19.62c-.72.13-1.82,1.47-2.21,1.17l-.41-.31v-.17c.26-.07.73-.26,1.07-.41l1.78-.79-.23.5Z"/>
      <path class="cls-9" d="M65.37,20.32v.17s-.88-.05-.88-.05c-.58-.04-1.31.01-1.76.24l-1.96-.22v-.22c1.11,0,2.27.02,3.45-.11.47-.05.73-.06,1.14.19Z"/>
      <path class="cls-3" d="M64.49,20.43c.36.37-1.83.23-1.76.24.45-.22,1.17-.27,1.76-.24Z"/>
      <path class="cls-22" d="M59.26,20.23c-.12,0-.37-.1-.44-.15.12.02.38.11.44.15Z"/>
      <path class="cls-20" d="M60.34,20.45c-.13,0-.35-.14-.44-.22.13,0,.35.14.44.22Z"/>
      <path class="cls-8" d="M83.4,21.77c-.06.1-.16.31-.21.43-.16.3-.77.41-1.07.25l-.47-.25c.06-.07.23-.27.19-.23l-.37-.9c.72-.18,1.53-.52,1.71-1.24l.23-.24c.11.03.39.07.39.19s-.04.42-.07.55l-.33,1.44Z"/>
      <path class="cls-14" d="M86.22,28.99c-.37.12-.87-.08-.89-.54l.89.54Z"/>
      <path class="cls-14" d="M86.89,29.1l.7.7-.72-.2-.2-.15c-.05-.04-.27-.2-.21-.22l.43-.14Z"/>
      <circle class="cls-14" cx="87.87" cy="29.92" r=".11"/>
      <circle class="cls-14" cx="88.3" cy="30.13" r=".11"/>
      <path class="cls-4" d="M59.91,15.75l3.89,3.58-3.02-3.26c.54-.09.83-.62,1.22-1.23,1.11.02,2.44.91,3.32.82l-.36,1.31c-.05.2,0,.65.19.73.15.07.56.2.71.28l1.74.96c.08.04.5-.05.6-.05.06,0,.06.16.03.21l-1.78.79c-.34.15-.82.35-1.08.41-.4-.25-.67-.24-1.14-.19-1.18.13-2.34.11-3.45.11-.45-.3-1.01-.39-1.67-.47-2-.24-3.89-.91-5.76-1.73l-3.62-1.59c-1.46-.64-3.13-1.7-3.93-1.92-.54-.64-1.42-1.11-2.22-1.48l-.21-.43c.24-.41.39-.93.48-1.48l.11-.65c.05-.3,1.77.39,2.33.03.32-.21.74-.85,1.02-.73l1.14.52c-.79.93-.81,1.3-.6,2.2.04.23-.07.6.09.68,1.84.82,5.37.35,7.47.13.61,1.34,1.8,1.86,3.02,2.32.55.21,1,.46,1.46.11Z"/>
      <path class="cls-4" d="M76.23,17.44l-.93-.65c-.51-.36-1.09-.54-1.66-.42-1.04.21-2.04.73-2.8,1.47-.42.18-1.21.51-1.6.7l.64-.79-1.23-3.03c-.14-.34-.37-.91-.14-1.01,1.21.75,2.49.76,3.25-.5l5.13,1.62-.49,1.83c-.03.1.18.52.11.58l-.29.21Z"/>
      <path class="cls-4" d="M83.42,19.59l-.23.24c-.53-.04-1.5.29-1.82.67-.08.09.06.46.11.57l.37.9s-.14.16-.19.23c-1.07-.58-3.16-1.75-3.89-2.86l1.05-.36.13-2.03,1.35-.53c1.1-.43,2.66-.56,3.27.89.22.53-.09,1.67-.14,2.29Z"/>
      <path class="cls-4" d="M67.96,10.86c-.44,1.07-1.61,3.58-2.41,4.37-.2-.4,1.65-4.74,2.41-4.37Z"/>
      <path class="cls-10" d="M66,1.17c-1.12.49-2.33.89-3.5,1.24.52-1.04,1.73-1.38,2.94-1.47l.42-.03c.08,0,.12.18.14.26Z"/>
      <path class="cls-14" d="M64.96,16.97l.36-1.31.23-.43c.79-.79,1.96-3.3,2.41-4.37l1.69-2.15-1.47,2.57-1.03,1.82-2.19,3.86Z"/>
      <path class="cls-10" d="M61.9,2.37h-.55c-.13-.01-.17-.3-.18-.42l.54.04c.12,0,.17.25.18.38Z"/>
      <path class="cls-9" d="M59.69,15.4c-.71-.45-1.32-.92-1.93-1.64.69.44,1.33.98,1.93,1.64Z"/>
      <polygon class="cls-9" points="60.78 16.08 63.8 19.33 59.91 15.75 60.78 16.08"/>
      <path class="cls-9" d="M54.64,11.06l.05.26v.24s-.22,0-.22,0l-.14-.35c-.03-.08.27-.14.31-.15Z"/>
      <path class="cls-1" d="M54.68,11.56v-.24c1,.59,1.92,1.32,2.82,2.15l-2.82-1.9Z"/>
      <path class="cls-14" d="M71.29,7.19c.38-.41.85-.74,1.46-.84l-1.46.84Z"/>
      <path class="cls-22" d="M68.41,19.1c.06-.05.15-.13.21-.17l-.21.17Z"/>
      <path class="cls-1" d="M45.8,14.53c-.17-.05-.54-.07-.69-.18l-1.49-1.08-.04-.22c.8.37,1.68.84,2.22,1.48Z"/>
      <path class="cls-18" d="M83.19,19.82c-.18.72-1,1.06-1.71,1.24-.05-.12-.19-.48-.11-.57.32-.37,1.29-.7,1.82-.67Z"/>
    </g>
    <g>
      <path class="cls-22" d="M32.06,129.02v.22l-.44.24c-.11-.06-.15-.31-.03-.34.13-.03.37-.11.47-.12Z"/>
      <path class="cls-22" d="M31.35,129.67c-.77.6-2.04,2.12-1.91,3.26.1.86-1.33,1.71-.36,2.78l.47-1.72.8-.6c.6.14.88.67.97,1.27.1.66-.51,1.06-1.02,1.44.2.61,1.95,1.07,2.41.59l.46-2.4.43-.02c.26-.03.64-.09.86-.05.26.04.57.66.62.96.15.87-.43,1.09-1.23,1.96,1.32.11,2.39.16,3.46.16.53,0,1.2-.02,1.71.02,1.38.11,2.77.12,4.15-.01l-.04,1.27c-.75.49-1,1.55-.87,2.42.02.14.04.38.17.39l.57.05c.33.26.89.41,1.29.44.83.58,2.02.86,3.11,1.07.23-1.3.41-2.28.75-3.29l.24.9c.33,1.28.64-.14,1.48,1.31l-1.17,1.32c1.53.14,3.05.18,4.6.16l8.35-.11c.64,0,1.49-.43,2-.49,2.22-.25,4.47-1.87,4.57-4.15l-.04-.22.64.1-.04.54c0,.12-.11.34-.13.46l-.22,1.72c-.34.1-.62.29-1.01.54-3.55,2.32-6.15,2.14-10.35,2.09-3.14-.04-6.29.36-9.37-.26-1.32-.27-2.68-.71-3.96-1.04-.38-.1-1.08-.5-1.45-.72-1.37-.83.02-3-.19-3.87l-5.74-.16c-3.15-.09-5.49-.18-8.09-1.9-.72-.93,2-7.83,3.09-6.2Z"/>
      <path class="cls-22" d="M69.23,141.44c.04,1.24,5.25,1.63,6.11,1.67l.66.03c1.71.08,3.42.05,5.24-.04,3.48-.18,6.86-.11,10.23-.06h.38s1.77.12,1.77.12c.23.02.67-.02.88.02,1.9.35,6.67.6,7.8-1.54.08,0,.19-.01.25,0,1.71.28,4.05.18,5.65,0v.38c-1.85.34-3.53.44-5.46.48-.61.13-1.48.84-2.12,1.04-1.9.6-3.8.54-5.7.24-4.4-.22-8.63-.31-13.01-.09-1.56.11-14.26.13-13.45-2.27l.78.03Z"/>
      <path class="cls-2" d="M41.84,130.11c.06.82.57,2.3,1.03,3.1l-1.15.26c-1.27.99-2.31,2.36-2.7,3.84-.51-.04-1.18-.02-1.71-.02l-.21-.56c-.04-.11-.47,0-.61.02l-.54.05c-.17.02-.45-3.62-.88-4.27.3.03.52.47.79.8.59.72,2.01.08,2.55-.51,2.02-2.22,2.82-1.42,2.8-3.31.14.05.54,0,.57.16.02.11.06.35.06.47Z"/>
      <path class="cls-6" d="M36.64,127.5c.29.31.77.71,1.33.89l3.24,1.08c.02,1.9-.78,1.09-2.8,3.31-.54.59-1.96,1.23-2.55.51-.27-.33-.49-.77-.79-.8l-.34-.28c0-.19.27-.65.49-.7l2.94-.71c-1.15-.21-2.51-.03-3.47.76l-.48-1.42.48-.17c.07-.02-.06-.28-.14-.29l-.31-.04-.03-.82c.63-.3,1.78-.96,2.43-1.34Z"/>
      <path class="cls-11" d="M34.21,128.85l.03.82-1.13.07,1.1.43.48,1.42c-.33.42-.66,1.1-1.13,1.35-.88-.3.14-1.29-1.71-1.94.24-.41.62-.75,1.04-1.12-1.24.5-2.31,1.58-2.57,2.84-.05.07-.18.17-.25.24l-.63-.03c-.13-1.13,1.15-2.65,1.91-3.26.07-.05.2-.14.27-.19l.44-.24h.44c.19,0,.57-.14.69-.21.27-.05.79-.06,1.02-.17Z"/>
      <path class="cls-15" d="M33.18,129.02c-.12.07-.5.21-.69.21.15-.08.47-.17.69-.21Z"/>
      <path class="cls-2" d="M52.3,132.93c1.45,1.09,4.44,2.45,6.09,2.83,1.16.7,2.6,1.08,3.92,1.52l.65.22c-.15.84-1.15-.12-1.3,1.07-.08.63-.44,1.09-.81,1.53.12.23.56.79.47,1.03l-.33.84c-.08.19.44.61.65.57l1.75-.32.25.51c-.51.06-1.35.48-2,.49l-8.35.11c-1.55.02-3.08-.02-4.6-.16l1.17-1.32h.26c1.52,0,1.16-1,2.59-2.86.9-1.17,3.29-1.14,3.38-2.8.05-1.01-1.09-1.18-1.78-1.41-1.27-.44-2.22-.13-3.47.45-.69.32-1.76-.52-2.01-1.15.32-.32,3.06-1.51,3.47-1.16Z"/>
      <path class="cls-17" d="M48.83,134.09c.25.63,1.31,1.47,2.01,1.15,1.24-.58,2.2-.89,3.47-.45.68.24,1.83.4,1.78,1.41-.08,1.66-2.48,1.63-3.38,2.8-1.43,1.86-1.06,2.87-2.59,2.86.01-.43-.03-.98-.19-1.44-.13-.38-.87-.63-1.3-.51-.07-.68.56-1.85,1.28-2.55-.96.3-1.45,1.37-1.77,2.29-.35,1.01-.52,1.99-.75,3.29-1.09-.21-2.28-.49-3.11-1.07.05-.05.15-.14.19-.2.24,0,.65-.04.82-.2.19-.18.34-.81.35-1.11.01-.76-.36-1.38-1-1.34l-.14-.63c.24-.42.46-.88.62-1.32h.22s.3.12.39.1l1.76-.42c.19-.2.38-.92.45-1.26.41-.06.76-.09,1.35-.13v-.47s-2.42.46-2.42.46l.46-.51c.19-.21.36-.51.43-.78.27-.06.8,0,1.09.02ZM52.08,136.41c-.69.09-1.41.16-2.1.79.77-.04,1.4-.27,2.1-.57l1.2-.15c-.35-.31-.81-.28-1.2-.07Z"/>
      <path class="cls-17" d="M63.63,137.7l3.9.71c.05,0,.16.02.22.01l.46.17c-.11,2.28-2.35,3.91-4.57,4.15l-.25-.51-1.75.32c-.21.04-.73-.38-.65-.57l.33-.84c.09-.24-.35-.79-.47-1.03.38-.45.74-.91.81-1.53.14-1.19,1.14-.22,1.3-1.07.08,0,.17-.02.22,0,.09.06.32.17.45.19Z"/>
      <path class="cls-5" d="M44.93,135.1c-.12.12-.34.35-.47.45-.34.26-.85.82-.87,1.31-.08.13-.31.33-.43.44-1.39.14-2.78.12-4.15.01.39-1.48,1.43-2.85,2.7-3.84l1.15-.26,2.07,1.89Z"/>
      <path class="cls-6" d="M31.85,130.99c1.85.65.82,1.64,1.71,1.94l.03.44c0,.06,0,.15,0,.22-.21.14-.37.42-.42.69l-.46,2.4c-.46.49-2.21.02-2.41-.59.51-.38,1.12-.78,1.02-1.44-.09-.59-.37-1.13-.97-1.27,0-.07,0-.17,0-.23l-.03-.44c.87-1.1.51-1.55,1.53-1.73Z"/>
      <path class="cls-21" d="M46.85,135.35l-.2.33,1.28-.19c-.06.34-.25,1.06-.45,1.26l-1.76.42c-.09.02-.37-.07-.39-.1.23-.44.55-.77,1.04-1.28-.53.2-1.04.68-1.26,1.28-.16.44-.38.9-.62,1.32-.26.45-.93.36-1.37.18l.04-1.27c.12-.11.34-.32.43-.44l.87-1.31c.13-.1.35-.32.47-.45.74-.33,2.08-.86,2.81-1.03-.07.27-.24.57-.43.78l-.46.51Z"/>
      <path class="cls-21" d="M35.07,132.51c.42.65.7,4.29.88,4.27l.54-.05c.14-.01.56-.13.61-.02l.21.56c-1.07,0-2.14-.05-3.46-.16.8-.87,1.38-1.09,1.23-1.96-.05-.31-.36-.92-.62-.96-.22-.03-.6.02-.86.05v-.67c0-.06,0-.16,0-.22l1.15-1.13.34.28Z"/>
      <path class="cls-20" d="M44.64,139.01l-.16.41-1.44,1.73-.15-.58-.64.41c-.13-.87.12-1.93.87-2.42.44.18,1.12.27,1.37-.18l.14.63Z"/>
      <path class="cls-23" d="M44.47,139.43c.47.52.32,1.75,0,2.24-.04.06-.14.15-.19.2-.41-.03-.96-.18-1.29-.44l.05-.27,1.44-1.73Z"/>
      <path class="cls-14" d="M50.12,141.86h-.26c-.84-1.45-1.15-.03-1.48-1.31.08-.15.27-.47.25-.64.44-.12,1.17.13,1.3.51.16.46.2,1.02.19,1.44Z"/>
      <path class="cls-15" d="M48.63,139.91c.02.17-.17.49-.25.64l-.24-.9c.32-.92.81-1.99,1.77-2.29-.72.7-1.35,1.87-1.28,2.55Z"/>
      <path class="cls-15" d="M30.07,132.95l.28.2c0,.06,0,.16,0,.23l-.8.6-.47,1.72c-.97-1.07.46-1.92.36-2.78l.63.03Z"/>
      <path class="cls-15" d="M43.04,141.16l-.05.27-.57-.05c-.12-.01-.15-.25-.17-.39l.64-.41.15.58Z"/>
      <path class="cls-15" d="M33.59,134.25l-.43.02c.05-.27.21-.55.42-.69v.67Z"/>
      <path class="cls-20" d="M68.16,138.37l.04.22-.46-.17c.11,0,.32-.06.42-.04Z"/>
      <path class="cls-10" d="M79.2,124.6c-.28.7-.63,1.4-1.04,2.03-.26-.32-.52-1.01-.42-1.54.09-.45,1.13-.74,1.46-.49Z"/>
      <path class="cls-15" d="M34.73,132.24l-1.15,1.13-.03-.44c.47-.25.8-.92,1.13-1.35.96-.79,2.33-.97,3.47-.76l-2.94.71c-.21.05-.49.51-.49.7Z"/>
      <path class="cls-3" d="M34.24,129.67l.31.04c.07,0,.21.26.14.29l-.48.17-1.1-.43,1.13-.07Z"/>
      <path class="cls-15" d="M31.85,130.99c-1.01.18-.66.63-1.53,1.73.26-1.27,1.32-2.35,2.57-2.84-.42.37-.8.71-1.04,1.12Z"/>
      <path class="cls-22" d="M30.35,133.15l-.28-.2c.07-.06.2-.17.25-.24l.03.44Z"/>
      <path class="cls-22" d="M62.52,137.07v.22h-.22c-1.32-.44-2.76-.82-3.92-1.52l1.35.32c.16.04.73.17.79.02l.22-.48.2.03c-.08.13-.17.38-.21.53-.05.18.47.44.67.49l1.11.4Z"/>
      <polygon class="cls-15" points="62.96 137.5 62.3 137.28 62.52 137.28 62.96 137.5"/>
      <path class="cls-14" d="M44.47,141.66c.33-.49.47-1.72,0-2.24l.16-.41c.64-.04,1.01.58,1,1.34,0,.3-.15.93-.35,1.11-.16.15-.57.19-.82.2Z"/>
      <path class="cls-15" d="M47.93,135.49l-1.28.19.2-.33,2.41-.46v.47c-.58.04-.93.07-1.34.13Z"/>
      <path class="cls-15" d="M52.08,136.41v.22c-.71.3-1.33.53-2.1.57.69-.63,1.41-.7,2.1-.79Z"/>
      <path class="cls-3" d="M52.08,136.63v-.22c.39-.21.85-.24,1.2.07l-1.2.15Z"/>
      <path class="cls-15" d="M45.33,137.07h-.22c.22-.6.73-1.08,1.26-1.28-.49.51-.81.84-1.04,1.28Z"/>
      <path class="cls-16" d="M63.63,137.7c-.13-.02-.36-.13-.45-.19l.45.19Z"/>
      <path class="cls-3" d="M43.59,136.85c.02-.49.53-1.05.87-1.31l-.87,1.31Z"/>
      <g>
        <path class="cls-17" d="M98.6,134.41l1.12.7c.05.22.26.49.44.65l.44.44.44.44c.05.18.12.51.22.65-.23.75-1.13.25-1.08,1.5.01.27.17.67.34.7.92.13.53-1.26,1.17-1.55.24.36.53,1.13.39,1.51-.49.8-1.6,1.74-2.39,2.35-.21.16-.24.92-.48,1.03-.2.09-.73.2-.97.19l-3.49-.1-.24.27c-.22-.04-.65,0-.88-.02l-.22-.51c-.08-.18-1.79.14-1.55.39h-.38c-.38-1.29.78-.62.29-1.92l2.24-.46c-.6-.44-.97-.24-1.45-.32-.64-.12-1.32-.23-1.99-.07l-.99.23c-.22.05-.31.74-.52.81-.24.08-.6-.49-.88-.88l-.4.93-2.82-.67-2.41-.54c.37-.48,1.16-1.32,1.01-1.87l-.82-2.94c1.47-.43,2.72,2.11,3.12.65.34-1.25,2.38-1.7,2.5-1.35.26.73-1.22,1.29-.59,1.5,1.7.56,1.66-2.49,3.73-1.1l1.59-.91c.38.65.57,1.56.62,2.27.02.32.83.63,1.06.45l.82-.61c.57-.42,1.41-.47,1.81-1.02.35-.48.75-.77,1.21-.81Z"/>
        <path class="cls-17" d="M120.53,129.47c-.14.42-.38,1.1-.48,1.5-.04.16-.08.5-.1.67-1,4.81-7.72,8.92-11.53,9.95-.06.02-.16.03-.23.05-1.6.18-3.94.28-5.65,0l.18-1.18c.03-.21-.08-.65-.18-.79.02-.85-.34-1.65-.91-2.33l-.61-.72-.05-.49c-.01-.11-.28-.11-.39-.16l-.44-.22c-.09-.19-.27-.55-.44-.65-.01-.05,0-.14,0-.22.25-.7,2.02-.2,2.51.42,1.62,2.04,1.63,1.26,2.5,1.56.36.12.87.88,1.26.85.44-.03.94-.18,1.39-.3,2.42-.65,1.07-1.83,1.95-2.37.8-.49,1.9.62,2.67.38l1.7-.54c.72-.23,1.59-1.39,1.95-1.99.09-.15.75-.23.8-.06l.26.74.14.39c.13.38.56-1.52,1.34-2.39l-1.26-.4.04-1.65c0-.36-.45-1.22-.23-1.49.3-.38,1.2-.78,1.64-.72l2.14,2.18Z"/>
        <path class="cls-15" d="M108.43,141.59c3.81-1.03,10.53-5.14,11.53-9.95.35.97-.36,2.13-1.01,3.08-1.61,2.35-3.65,4.41-6.21,5.8-1.15.63-2.62.97-3.9,1.43l-.42-.36Z"/>
        <path class="cls-20" d="M70.85,139.95l.62-.33c.15.09.41.43.47.64l.35,1.15c-.41.3-.84.64-1.39.92l-.35-1.97-1.33,1.07-.78-.03-.02-.22.22-1.72c.53.06,1.16-.09,1.26-.62.46.03.68.55.72,1.08-.01.58.09.49.23.02Z"/>
        <path class="cls-11" d="M94.68,118.23c.94.09,1.94.35,2.87.52l1.52.28,3.03.65c.41.09,1.16.29,1.55.44l1.52.58,3.86,1.45c.12.04.41.11.45.02.03-.07.08-.21.1-.27l.6-.14c1.97-.46,3.9-1.05,5.95-1.61l1.88-.51c.3,1.95-.95,1.54-.62,4.13.75-.18,1.13-.29,1.77-.39,1.09-.17.95,2.37,2.14,2.15l-.25,2.22c-.06.58-.33,1.16-.52,1.71l-2.14-2.18c-.44-.06-1.34.34-1.64.72-.22.28.24,1.13.23,1.49l-.04,1.65,1.26.4c-.78.88-1.2,2.78-1.34,2.39l-.14-.39-.26-.74c-.06-.17-.71-.09-.8.06-.36.6-1.22,1.76-1.95,1.99l-1.7.54c-.77.25-1.87-.86-2.67-.38-.88.53.46,1.72-1.95,2.37-.46.12-.96.27-1.39.3-.39.03-.91-.73-1.26-.85-.87-.3-.88.48-2.5-1.56.1-.4.32-.81.61-1.16l.41-.49c.24-.29-1.05-.24-1.82-1.34-.04-.62-.13-.95-.36-1.7l1.46-.6c.6.54,1.58.91,1.99.11.22-.43,1.03-1.23,1.3-.88.46.6.73.88,1.37.8.52-.06.86-.53,1.2-1.33-.47-.05-1.01.31-1.44.76-1.29.56.35-1.43.03-2.14-.2-.45-.7-.91-1.18-1.14-1.23-.58-.67-1.46-1.16-1.3-.61.21-1.02,1.71-2.12,1.28-.75-.3-1.15-.79-1.24-1.69-.13-.02-.67.13-.87.25s-.22.95-.46.95c-.33,0-.94-.43-1.22-.4-.32.04-.59.67-.86,1.16-.43-.65-1.5-1.65-2.25-.83-.35.38-.21,1.64-.79,1.97-.51.29-1.65.1-2.04-.31-.04-.21.47-.75.66-.97-.19-1.09-2.69.13-2.91-.61l-.36-1.22c-.74-.06-1.82.29-2.66.92.61.12,1.58.02,1.74.82.05.25-.74.53-.9.36l-.89-.89c-.39-.16-1.42.18-1.68.6-.4.64-.56,1.21-.66,2.23l-3.67-.28-1.38,1.51,2.75.45c.27-.09-.07.91-.35.91h-1.74c.75.39.99.58,1.28,1.2.44.93.95,1.73,1.14,2.6-1.95-.65-3.87-.94-6.04-1.16-.7-.07-1.39-1.17-1.74-1.69v-.19s.42-.25.42-.25c.61-.14,1.03-.66,1.09-1.29l1.06-2.63.19-1.08c.41-.63.76-1.33,1.04-2.03l1.38-1.67c.1-.12.33-.32.44-.45l2.59-1.95.25-.17h.2s1.09-.65,1.09-.65c.06,0,.17,0,.22-.02.4-.11,1.11-.42,1.52-.63.06,0,.17-.01.22-.02,1.87-.4,5.49-1.02,7.57-.82ZM111.71,123.98c-.18-.57-1.01-1.1-1.4-1-.18.05-.68.63-.52.72l.75.4c.3.16,1.08.16,1.17-.12ZM104.46,133.54c.22,0-.06-.85-.25-.76l-.65.29.06.41c.02.11.62.08.83.07ZM110.86,133.45c.34-.09.75-.28.66-.36-.06-.05-.2-.42-.27-.4l-.78.24c-.15.05.19.56.39.52Z"/>
        <path class="cls-5" d="M124.98,124.49l-.35-2.23c-.15.76-.11,1.88.07,2.42.09.27.26.91.18,1.19-.39,1.49-2.01,2.06-3.36,1.79.2-3.18.72-6.38.22-9.53.32-.4,2.76-1.9,3.26-1.89.92.03.71,2.71.63,3.39.97.17,1.62,1.31,1.43,2.39-.19,1.13-1.11,2.11-2.08,2.45Z"/>
        <path class="cls-3" d="M121.52,127.67l-.46.09.25-2.22c.09-.85.26-1.66.23-2.62l-.1-3,.02-1.76c.07,0,.21-.02.28-.03.5,3.15-.02,6.35-.22,9.53Z"/>
        <path class="cls-11" d="M121.45,118.17l-.02,1.76c-.68-.22-1.43-.48-1.9-.93l1.53-.88.39.05Z"/>
        <path class="cls-3" d="M124.98,124.49l-.28.19c-.18-.55-.23-1.66-.07-2.42l.35,2.23Z"/>
        <path class="cls-13" d="M102.24,135.31c-.49-.62-2.27-1.12-2.51-.42l-.91-.94-.21.45c-.46.04-.86.33-1.21.81-.41.56-1.25.6-1.81,1.02l-.82.61c-.23.17-1.04-.14-1.06-.45-.05-.71-.24-1.62-.62-2.27l-1.59.91c-2.07-1.39-2.03,1.66-3.73,1.1-.64-.21.85-.78.59-1.5-.13-.35-2.16.1-2.5,1.35-.94-.1-1.87-.51-2.67-1.05-.19-.86-.7-1.67-1.14-2.6-.29-.62-.53-.82-1.28-1.21h1.74c.28,0,.62-1,.35-.91l-2.75-.45,1.38-1.51,3.67.28c.1-1.02.26-1.59.66-2.23.26-.42,1.29-.76,1.68-.6l.89.89c.17.17.95-.12.9-.36-.16-.8-1.13-.7-1.74-.82.84-.63,1.92-.97,2.66-.92l.36,1.22c.22.74,2.72-.48,2.91.61-.2.22-.71.76-.66.97.39.41,1.53.6,2.04.31.58-.33.44-1.59.79-1.97.76-.82,1.82.18,2.25.83.28-.49.54-1.13.86-1.16.28-.03.89.4,1.22.4.24,0,.26-.82.46-.95s.75-.27.87-.25c.09.91.49,1.4,1.24,1.69,1.09.43,1.51-1.07,2.12-1.28.49-.17-.07.72,1.16,1.3.48.23.98.69,1.18,1.14.32.71-1.32,2.69-.03,2.14.43-.45.97-.82,1.44-.76-.34.8-.68,1.27-1.2,1.33-.64.07-.91-.2-1.37-.8-.27-.35-1.08.45-1.3.88-.41.8-1.38.42-1.99-.11l-1.46.6c.23.76.33,1.08.36,1.7.77,1.1,2.06,1.05,1.82,1.34l-.41.49c-.29.35-.51.76-.61,1.16ZM89.75,126.42c-.17.07-.21.64-.15.84.05.18.5.06.65-.05s.33-.49.22-.64c-.09-.12-.58-.2-.72-.15ZM91.92,127.06c0-.13-.11-.24-.24-.24s-.24.11-.24.24.11.24.24.24.24-.11.24-.24ZM103.54,127.03c.06.14.21.51.26.43l.13-.2c.06-.08.12-.5.06-.42-.04.05-.48.13-.45.19ZM86.69,133.4c-.68-.5-.92-.46-1.38-.21-.21.12-.32.34-.42.99l1.8-.78Z"/>
        <path class="cls-20" d="M101.03,136.63l-.44-.44v-.22c.1.05.37.05.39.16l.05.49Z"/>
        <path class="cls-20" d="M102.55,139.68h-.22l-.26-.23c.14-.38-.15-1.15-.39-1.51l-.44-.65c-.1-.14-.17-.48-.22-.65l.61.72c.58.68.94,1.47.91,2.33Z"/>
        <path class="cls-15" d="M102.55,141.64c-.06,0-.17,0-.25,0l.04-1.97h.22c.1.14.22.57.18.79l-.18,1.18Z"/>
        <path class="cls-3" d="M100.16,135.76c-.17-.17-.38-.43-.44-.65.17.11.34.47.44.65Z"/>
        <path class="cls-3" d="M99.72,134.89c0,.07-.01.17,0,.22l-1.12-.7.21-.45.91.94Z"/>
        <polygon class="cls-3" points="100.59 135.98 100.59 136.2 100.16 135.76 100.59 135.98"/>
        <path class="cls-17" d="M74.52,134.28v1s-.46.48-.46.48l-1.31.46s-.39-.32-.45-.24c-.22.25-.41.87-.42,1.22l-.61,1.04c-.32.54-.51,1.16-.42,1.71-.14.47-.25.56-.23-.02-.04-.53-.27-1.05-.72-1.08-.34-.02-.78.06-1.13.16l.04-.54c.24.04.68-.19.91-.29.43-.18.63-.44.85-.9,1.07-.84.86-2.18,1.54-2.42.62.1,1.29-.16,1.5-.77l.22-.07c.13.11.5.28.69.26Z"/>
        <path class="cls-23" d="M69.9,138.85c-.1.53-.73.68-1.26.62.01-.12.12-.34.13-.46.35-.1.79-.18,1.13-.16Z"/>
        <path class="cls-2" d="M77.54,134.24c.12,1.75,1.16,1.16,1.11,2.2l-1.37.94c.61-.17,1.05-.29,1.56-.36l-.38,2.53c-.04.27-.15.61-.15.81,0,.87,1.75-.06,3.32-.08.21,0,.6-.08.7-.15.07,0,.16,0,.22.01l2.41.54,2.82.67.4-.93c.28.39.64.96.88.88.21-.07.3-.76.52-.81l.99-.23c.67-.16,1.35-.05,1.99.07.48.09.85-.12,1.45.32l-2.24.46c.49,1.3-.67.63-.29,1.92-3.37-.05-6.75-.12-10.23.06-1.83.09-3.54.12-5.24.04-.28-.49,1.86-.74,1.88-2.04,0-.48-.47-1.28-1.02-1.33-.25-.02-.81.23-1.01.35.16-.89.62-1.68,1.1-2.46l-1.63,2.01c-.28-.78-.17-1.88.07-2.84l-.45-1.01c.35.03.7-.07,1.28-.37l-1.71-.18v-1c.76-.06,2.2-.09,3.03-.04Z"/>
        <path class="cls-5" d="M74.94,135.83l.45,1.01c-.24.96-.35,2.06-.07,2.84.02.23.06.68.06.9l-.04,2.53c-.86-.04-6.07-.43-6.11-1.67l1.33-1.07.35,1.97c.55-.28.98-.62,1.39-.92.47-.35.74-.64.57-1.34-.13-.53-.7-.88-1.24-.85-.55-1.41,1.73-2.72,2.43-3.46l.88.07Z"/>
        <path class="cls-2" d="M102.33,139.68l-.04,1.97c-1.12,2.14-5.9,1.89-7.8,1.54l.24-.27,3.49.1c.25,0,.77-.1.97-.19.24-.11.27-.86.48-1.03.79-.61,1.9-1.55,2.39-2.35l.26.23Z"/>
        <path class="cls-23" d="M76,143.14l-.66-.03.04-2.53c.14-.09.35-.31.46-.45.2-.12.76-.37,1.01-.35.55.05,1.03.85,1.02,1.33-.02,1.3-2.16,1.55-1.88,2.04Z"/>
        <path class="cls-2" d="M93.62,143.16l-1.77-.12c-.25-.25,1.47-.57,1.55-.39l.22.51Z"/>
        <path class="cls-17" d="M119.53,119c.48.45,1.22.71,1.9.93l.1,3c.03.96-.13,1.77-.23,2.62-1.2.22-1.06-2.32-2.14-2.15-.64.1-1.02.2-1.77.39-.33-2.59.91-2.18.62-4.13.41-.11,1.16-.44,1.53-.65Z"/>
        <path class="cls-15" d="M83.17,134.93c.8.53,1.73.94,2.67,1.05-.4,1.46-1.65-1.08-3.12-.65-.66-.75-4.18-1.03-5.19-1.08-.83-.05-2.26-.02-3.01.04-.19.02-.56-.16-.69-.26l2.59-.17-1.29-1.65.25-.12c.35.52,1.04,1.61,1.74,1.69,2.17.23,4.09.51,6.04,1.16Z"/>
        <path class="cls-17" d="M111.71,123.98c-.09.28-.87.28-1.17.12l-.75-.4c-.16-.09.34-.67.52-.72.39-.1,1.23.43,1.4,1Z"/>
        <path class="cls-14" d="M106.11,120.04l.07.76,3.39,1.1c-.02.06-.07.2-.1.27-.04.09-.33.03-.45-.02l-3.86-1.45.54-.24c.15-.07.13-.57.1-.82l-.39-2.8c.2.22.39.68.44,1.08l.26,2.13Z"/>
        <path class="cls-13" d="M104.46,133.54c-.21,0-.81.04-.83-.07l-.06-.41.65-.29c.19-.08.47.75.25.76Z"/>
        <path class="cls-17" d="M110.86,133.45c-.19.05-.54-.47-.39-.52l.78-.24c.07-.02.21.35.27.4.09.08-.32.28-.66.36Z"/>
        <path class="cls-14" d="M86.89,119.07c-.41.21-1.12.51-1.52.63.22-.51.98-.68,1.52-.63Z"/>
        <path class="cls-14" d="M85.15,119.72l-1.09.63c.19-.4.64-.63,1.09-.63Z"/>
        <path class="cls-14" d="M83.61,120.54l.25-.17-.25.17Z"/>
        <path class="cls-14" d="M80.58,122.93v-.23c.11-.06.34-.15.44-.22-.11.13-.33.32-.44.45Z"/>
        <path class="cls-17" d="M86.69,133.4l-1.8.78c.1-.65.21-.87.42-.99.46-.25.7-.29,1.38.21Z"/>
        <path class="cls-11" d="M89.75,126.42c.14-.06.63.02.72.15.11.15-.07.53-.22.64s-.6.23-.65.05c-.06-.2-.02-.77.15-.84Z"/>
        <path class="cls-11" d="M103.54,127.03c-.03-.06.41-.14.45-.19.06-.08,0,.34-.06.42l-.13.2c-.06.08-.2-.29-.26-.43Z"/>
        <circle class="cls-11" cx="91.67" cy="127.06" r=".24"/>
        <path class="cls-6" d="M101.68,137.94c-.64.29-.25,1.68-1.17,1.55-.17-.02-.33-.42-.34-.7-.05-1.26.86-.76,1.08-1.5l.44.65Z"/>
        <path class="cls-23" d="M69.72,138.18c.23-.34.53-.64.85-.9-.22.46-.43.72-.85.9Z"/>
        <path class="cls-2" d="M75.14,132.2l1.29,1.65-2.59.17-.22.07-1.63.35-.11-.63.22-.22c0-.27.22-.66.47-.73.84-.26,1.73-.52,2.58-.65Z"/>
        <path class="cls-15" d="M74.06,135.76c-.7.74-2.98,2.05-2.43,3.46l-.16.4-.62.33c-.09-.55.1-1.17.42-1.71l.61-1.04c.35-.26.67-.6.87-.98l1.31-.46Z"/>
        <path class="cls-6" d="M73.61,134.09c-.22.62-.88.87-1.5.77-.04-.11-.11-.31-.13-.42l1.63-.35Z"/>
        <path class="cls-16" d="M74.94,135.83l-.88-.07.45-.48,1.71.18c-.58.3-.93.39-1.28.37Z"/>
        <path class="cls-6" d="M72.75,136.22c-.2.38-.51.72-.87.98,0-.35.2-.98.42-1.22.07-.08.5.26.45.24Z"/>
        <path class="cls-5" d="M82.72,135.33l.82,2.94c.15.55-.64,1.39-1.01,1.87-.05-.01-.15-.01-.22-.01l-.53-.26c-.1-.05-.18.39-.17.42-1.57.02-3.32.95-3.32.08,0-.2.11-.54.15-.81l.38-2.53.89-.43-1.07-.15c.04-1.03-.99-.45-1.11-2.2,1.01.06,4.52.33,5.19,1.08Z"/>
        <path class="cls-15" d="M78.83,137.02c-.5.08-.94.19-1.56.36l1.37-.94,1.07.15-.89.43Z"/>
        <path class="cls-15" d="M75.84,140.13c-.11.15-.33.37-.46.45,0-.23-.04-.67-.06-.9l1.63-2.01c-.49.78-.94,1.57-1.1,2.46Z"/>
        <path class="cls-17" d="M82.32,140.13c-.09.08-.48.15-.7.15-.01-.03.07-.47.17-.42l.53.26Z"/>
        <path class="cls-22" d="M72.3,141.41l-.35-1.15c-.06-.21-.32-.55-.47-.64l.16-.4c.54-.04,1.11.31,1.24.85.17.7-.1.99-.57,1.34Z"/>
        <path class="cls-6" d="M71.88,133.8c-.01-.08.16-.19.22-.22l-.22.22Z"/>
      </g>
    </g>
  </g>
</svg>