<?xml version="1.0" encoding="UTF-8"?>
<svg id="Layer_1" data-name="Layer 1" xmlns="http://www.w3.org/2000/svg" viewBox="0 0 144 144">
  <defs>
    <style>
      .cls-1 {
        fill: #618455;
      }

      .cls-2 {
        fill: #010101;
      }

      .cls-3 {
        fill: #282831;
      }

      .cls-4 {
        fill: #7c7c7c;
      }

      .cls-5 {
        fill: #2a375d;
      }

      .cls-6 {
        fill: #e4d8c4;
      }

      .cls-7 {
        fill: #1a1c25;
      }

      .cls-8 {
        fill: #263458;
      }

      .cls-9 {
        fill: #bebfbf;
      }

      .cls-10 {
        fill: #f2f3f1;
      }

      .cls-11 {
        fill: #303641;
      }

      .cls-12 {
        fill: #707278;
      }

      .cls-13 {
        fill: #34446c;
      }

      .cls-14 {
        fill: #46464c;
      }

      .cls-15 {
        fill: #90c073;
      }

      .cls-16 {
        fill: #e7e8e9;
      }

      .cls-17 {
        fill: #ebe1d1;
      }

      .cls-18 {
        fill: #293a60;
      }

      .cls-19 {
        fill: #ece7d6;
      }

      .cls-20 {
        fill: #ebe9dd;
      }

      .cls-21 {
        fill: #eae5d7;
      }

      .cls-22 {
        fill: #ece4d4;
      }

      .cls-23 {
        fill: #2d3e64;
      }

      .cls-24 {
        fill: #27385f;
      }

      .cls-25 {
        fill: #96948b;
      }
    </style>
  </defs>
  <path class="cls-14" d="M21.96,40.02l.21.29-2.7.87c-.22.07-1.01-.98,2.49-1.16Z"/>
  <rect class="cls-14" x="23.48" y="25.64" width=".33" height="1.29" transform="translate(-11.31 20.97) rotate(-39.39)"/>
  <rect class="cls-14" x="24.58" y="26.85" width=".32" height="1.34" transform="translate(-12.21 25.55) rotate(-45)"/>
  <g>
    <path class="cls-1" d="M20.71,36.84l-.02-.68c.05.02.3.23.24.33l-.22.35Z"/>
    <g>
      <path class="cls-14" d="M46.8,16.18l-2.32,1.94-2.92,1.22c-.74.31-1.14,1.1-1.09,1.81l-.27-.43-.39.47c.09-.38.24-.95.47-1.29,1.65-2.39,3.38-.69,5.68-3.91-2.73-.55-5.92-2.59-7.62-4.44.59,0,.55.25,1.87,1.14,1.88,1.27,3.73,2.37,5.95,3.01.27.09.54.29.63.47Z"/>
      <path class="cls-15" d="M15.76,29.65c-.16.24.22,1.01.31,1.26l-2.78.69c-.39-.27-.52-1.28-.37-1.75.46-1.49,2.3-1.37,3.72-1.21-.25.26-.68.71-.87,1ZM14.44,29.68l-.7.16.14.59.7-.16-.14-.59Z"/>
      <path class="cls-15" d="M20.98,31.8l-2.77-.82c.21-.18.7-.76.56-1.01l-.66-1.15c1.06-.03,2.37.47,3.23,1.26.34.31.05,1.5-.35,1.71ZM20.68,30.58c0-.23-.19-.41-.41-.41s-.41.19-.41.41.19.41.41.41.41-.19.41-.41Z"/>
      <rect class="cls-1" x="13.8" y="29.75" width=".72" height=".6" transform="translate(-6.43 3.98) rotate(-13.06)"/>
      <circle class="cls-1" cx="20.26" cy="30.58" r=".41"/>
      <g>
        <path class="cls-22" d="M50.28,15.05l-.05,1.84c-.42.12-.98.21-1.25.33-.95.41-2.61,1.74-3,2.76l1.03-.81.43.5-.43.58,3.49-1.07,3.67-.83c-.6-.26-1.2-.21-1.68-.08l.31-.61c.21-.4,1.6.49,2.03,0l3.05,1.1c3.2,1.15,6.46,1.99,9.88,1.72.8-.07,1.53.22,2.1.48.4.18,1.29.44,1.76.62.24.09.44-.55.57-.87.16-.39,1.17.09,1.38.44-.37.12-1,.6-1.34.98.78-.28,2.17-.85,2.85-1.2.07-.04.16-.16.22-.22h1.31s-.05,1.7-.05,1.7c-1.65.2-1.44-1.33-2.36-.2l-1.02,1.25c.26.06.91.18.88.4s-.19.52-.41.94l1.05.1c.03.11.18.41.07.48l-.62.39.58,1.25c.27.59,1,1.17,1.62,1.36l.11.81c.14,1.04.37,1.96.6,2.84s.4,1.78,1.01,2.69,1.27,1.83,2.32,2.23c.84.32,1.87.04,2.48-.64,1.24-1.39,2.31-3.01,2.9-4.71l.41-.5c.19-.23.47-.48.7-.63,1.49.48,2.77,1.53,4.58,1.74,1.17.68.78,3.25.79,4.4-.14.33-.4.93-.45,1.28-.54.05-1.05.41-1.4.96-.65,1.03-.32,2.66.14,2.56l-1.53,3.01c1.7-1.84,2.64-4.16,3.26-6.52l.29-1.09c1.44.95,2.54,2.55,3,4.35.25.99.16,2.12.05,3.07-.01.12-.05.33-.05.44v.63s-.57,1.54-.57,1.54c-.13.37-.23.76-.33,1.21.46-.24.36-.7.47-1.03.14-.41.35-1.1.45-1.49.81.31,1.21,1.29,1.34,2.14l.02.73c0,.99-.63,1.94-1.18,2.76l-.43.43c-.27.21-.56.43-.81.66l-.26.23c-.06.05-.16.17-.22.21l-.86.67-1.61,1.24-.6.49-2.6,1.71-2.6,1.57-.96.55c-1.69.97-2.5,1.2-4.04,2.01-.11.06-.32.18-.44.21-.8.24-2.3.84-3.05,1.36-.47.12-1.13.46-1.67.71l-3.29,1.5-.94.42c-.6.11,1.15-1.29,1.81-1.98l.59-.61,1.83-1.93,2.7-2.41-1.37.59,1.03-2.95c.04-.12-.15-.51-.25-.46-.77,2.86-2.06,4.8-3.97,6.9-.21.23-.68.54-.86.82l-1.04.77c-1.53,1.13-3.21,2.16-5.01,2.62-2.35.6-7.96.52-10.65-.49,2.39-1.31,6.03-1.79,7.68-3.42l-7.29,2.81c-1.48.57-3.05,1.02-4.57.81-2.02-.28-4.04-1.04-5.76-2.22-4.5-3.09-3.95-9.68-2.78-14.34.29-1.18.31-2.46-.14-3.45,0-.12.03-.33.02-.44-.21-1.44-.97-2.92-1.71-4.15-.66-1.11-1.56-2.18-2.85-2.63l-2.41-1.7-.16-2.17c-.07-.89-.12-1.47-.26-2.51-.45.1-1.98,1.15-1.75,1.41-.06.05-.16.16-.21.23-.29.2-.98.08-1.3-.05-1.06-.46.08-4.5.66-5.23l.84-.44c.2-.09.64-.15.86-.16h.9s.24.89.24.89c.12.45.28.85.53,1.14l.08-2.03h.89c.8.14,1.87-.05,2.64-.52,2.53.12,2.15,3.12,3.83,3.19,1.02,2.2,1.54,4.58,1.89,7.21-.12.57.19.38.42-.02-.43-2.48-.92-4.81-1.83-7.01-.15-.37-.28-.65-.39-1.11.57-.64.4-1.76-.01-2.41.85.08,1.75.09,2.43-.39l.06.46c.02.15.41.2.54.22.03.17.09.45.16.59l.56,1.16.2-.48.57-.25,2.12.61c.73.21,1.25.57,2.04.78,1.31.36.23,1.87.09,3.14-.04.33,1.04.33,1.3.13l3.09-2.35c.44-.34.99-.53,1.1-1.05.08-.38-.23-.96-.38-1.42-.32-.98-.62-1.85-1.16-2.7l-.32-.51c-.27-.43-3.7,1.01-3.69,2.13-1.07-.37-5-1.01-6.26-.44,0-.06,0-.2-.02-.26-.14-.31-.48-.84-.71-1.13l3.7-.85c1.73-.39,3.51-.8,5.28-.97,1.36-.13,2.79.38,4.22.59-.28-1.7-3-1.7-4.03-1.73-3.04-.09-2.74.29-5.48.61l-.38-1.21c-.34-1.07-2.63-.3-3.52-1.82l-.24-.52c-.7.62-1.42,1.47-1.73,2.24-1.27.98-.03,1.83-.71,1.78l-1.3-1.31c-.5-.5-.95-1.03-1.28-1.56-.05-.7.35-1.5,1.09-1.81l2.92-1.22,2.32-1.94,2-1.36c.35-.24,1.12.02,1.48.23ZM45.19,18.92l-.56-.36.08.65c.01.09.3-.14.47-.29ZM38.33,30.12c0-.24-.19-.43-.43-.43s-.43.19-.43.43.19.43.43.43.43-.19.43-.43ZM48.36,30.07c0-.08-.06-.14-.14-.14s-.14.06-.14.14.06.14.14.14.14-.06.14-.14ZM48.76,31.37h0l-.09-.7.09.7ZM36.16,31.29c0-.21-.17-.38-.38-.38s-.38.17-.38.38.17.38.38.38.38-.17.38-.38ZM41.19,32.21c0-.24-.2-.44-.44-.44s-.44.2-.44.44.2.44.44.44.44-.2.44-.44ZM49.23,32.24c0-.08-.06-.14-.14-.14s-.14.06-.14.14.06.14.14.14.14-.06.14-.14ZM49.69,37.85c-.08,2.04-.25,4.11-.06,6.14l.28,3c.26.24.38.24.35-.09-.11-1.16-.19-1.98-.19-2.91l-.03-6.14.08-.58.83,1.36-.58-1.91c-.08-.27-.08-.78-.04-1.02l1.49,1.34c-.3-.91-1.51-1.1-1.07-2,.53.34,1.66.86,2.36.91.58.04,1.39.53,1.96,0,.34.03.62,0,1.01-.34l-1.01.12c-.56,0-1.44.11-1.96,0-.89-.18-1.79-.68-2.59-1.11l-.03.26-.21-.22.24-.04-.52-.78-.78-1.15c.41,1.85.53,3.47.47,5.17ZM38.29,33.32c0-.24-.19-.43-.43-.43s-.43.19-.43.43.19.43.43.43.43-.19.43-.43ZM41.72,35.35c0-.25-.2-.45-.45-.45s-.45.2-.45.45.2.45.45.45.45-.2.45-.45ZM54.01,38.47c1.56,1.01,3.54,1.38,5.43,1.1,2.04-.3,3.68-2.03,4.24-3.9l-.96,1.37c-1.46,2.18-2.95,2.24-5.49,2.24-1.08,0-2.14-.73-3.22-.81ZM53.12,37.9l.67.38-.67-.38-.74-.83c-.07-.09-.4.25-.32.32l1.06.51ZM44.11,38.88c0-.08-.06-.14-.14-.14s-.14.06-.14.14.06.14.14.14.14-.06.14-.14ZM51.16,38.99h0ZM46.45,43.96c.45-2.06-.6-3.75-2.01-4.75.71.95,1.4,1.9,1.65,3.07l.36,1.68ZM51.81,40.08c.2.13.6.29.22,0-.07-.18-.25-.35-.61-.64l.39.64ZM58.91,58.39c1.69-1.95,3.14-3.79,4.24-6.06,1.97-4.06,3.54-8.39,3.64-12.98-1.46,7.54-3.3,14.05-8.86,19.52.41.07.69-.14.98-.48ZM52.6,40.93l-.32-.42.32.42ZM53.48,41.79l-.56-.62.56.62ZM53.9,42.45l-.32-.42.32.42ZM55.43,43.24c-.41-.39-.8-.66-1.24-.83.12.58.46.98,1.24.83ZM82.2,53.64c-.28-.14-.65-.32-.42-.2l-1.17,2.35c.65-.51,1.04-1.15,1.59-2.15ZM79.24,57.25c-.37.16-.68.43-1,.89.49-.18.76-.45,1-.89l1.25-1.23c-.62.25-1.02.71-1.25,1.23Z"/>
        <path class="cls-1" d="M21.79,32.66c-.13.09-.15.16,0,.25.02,0,.45-.09.54-.16l1.62-1.16.5-.04c.45.17,1.03.36,1.47.47.06.11.37.62.49.47l.38-.47.56-.41c.27.49.58.86.99.92-.14.44-.15,1-.02,1.42v.89s-.21,0-.21,0l-1.06.04.8-.62-3.69-1.62-2.71,1.68c2.11,1.56,3.23,1.67,5.6.56v.84s-1.49,1.52-1.49,1.52l-4.37-1.54-.46-.25c-.12-.19-.4-.55-.6-.71l-.96-.73c.9-.36,1.55-.62,2.29-1.04-2.99-2.05-6.34-1.63-9.19.29l.04-4.88c2.79-.9,8.63-.53,10.47,1.87-.5.65-.97,1.78-.98,2.38ZM15.76,29.65c.19-.29.62-.74.87-1-1.42-.16-3.26-.28-3.72,1.21-.15.47-.01,1.47.37,1.75l2.78-.69c-.1-.25-.47-1.02-.31-1.26ZM20.98,31.8c.41-.21.69-1.4.35-1.71-.86-.79-2.17-1.29-3.23-1.26l.66,1.15c.14.25-.35.82-.56,1.01l2.77.82Z"/>
        <path class="cls-11" d="M21.17,35.72l.02,1.31-.29.12c-.08.03.09.33.16.28l.29-.19.81,1.83c.15.33.78.61,1.13.68.19,2.61.66,1.71.29,5.2l2.89-1.28c-.8.82-1.97,1.46-2.98,2-.98,3.08.29,6.39,2.85,8.35.78.6,1.46,1.2,2.26,1.49l.51.75c.43.63,1.02,1.12,1.37,1.7,3.3,5.39,1.52,10.73,8.51,13.67l-.02.25c-.23.06-.53.35-.59.6-.65,2.69.97,4.81,3.44,5.42l-1.38-.15c-1,.99-1.17,2.9-.33,4.11l-.13.39c-2.19-2.3.13-4.01-.82-5.06-2.8-3.1-.44-5.19-2.08-6.04-2.13-1.1-3.49-2.84-4.19-5.09l-1.46-4.67c-1.27-4.08-2.94-4.86-5.71-7.17-6.21-5.2-.5-11.44-3.53-13.9l-.21-.29c-.13-1.05-1.21-1.5-1.25-3.17l.22-.35c.06-.09-.19-.31-.24-.33l.02-.69.46.25Z"/>
        <path class="cls-14" d="M37.47,22.29c-.12.53,1.9,1.48,2.37,1.47.11,1.26.75.55.9,1.79.11.69.27,1.83-.43,2.26-.77.48-1.84.66-2.64.54l.04-.54c.01-.15.43,0,.64.01h.36c.07.01.22-.22.16-.25l-.5-.28.4-.63c-.17-.23-.6-.71-.85-.94.14-1.09-1.42-.97-1.45-1.32-.02-.2,0-.61,0-.89,0-.2-.49-.56-.63-.43l-.53.46c-1.07.2-1.66,3.22-2.41,4.09-.33-.47-.77-1.47-.82-2.39-1.92.24-4.63,1.31-5.45,3.14-.6.45-2.25,2.42-2.19,3.17l-.5.04c1.44-3.41,3.54-6.03,7.55-6.75.64-.11,1.33-.49,1.63-1.01.94-1.64,2.77-2.18,4.34-1.55Z"/>
        <path class="cls-6" d="M43.05,24.02c.25.04.55.24.74.16l.96-.17c-.05.23-.12.47-.21.82l1.2,1.03c.28.24.57.93.9,1.16.03.06.01.19.02.26-.68.48-1.58.47-2.43.39l-.22-.17c-.02-.56-.55-.9-1.11-.93l-.76-.24c.01.17.04.55.09.7l-1.49-1.48c-.15-1.24-.79-.53-.9-1.79l-.06-.63c0-.07,0-.2,0-.27.35-.15.68.51.9.75l2.37.42Z"/>
        <path class="cls-3" d="M40.47,21.15c.33.53.78,1.06,1.28,1.56l1.3,1.31-2.37-.42c-.22-.24-.55-.9-.9-.75-.1-.45-.07-1.2.04-1.66l.39-.47.27.43Z"/>
        <path class="cls-3" d="M39.78,23.13l.06.63c-.47.02-2.5-.94-2.37-1.47l1.38.55c.33.13.66.25.94.29Z"/>
        <path class="cls-14" d="M21.78,32.91c-.14-.09-.13-.16,0-.25v.25Z"/>
        <path class="cls-19" d="M83.15,20.95l2.37,1.29.94.65c1.16,1.18,1.79,2.79,1.26,4.35-.34,1-.73,2.01-1.14,3-.44.35-.63.8-.82,1.35-.99,1.21-1.79,3.4-3.36,4.71-1.06.89-3.02.09-3.64-.96-.68-1.14-1.1-2.19-1.48-3.32-.24-.69-.42-1.59-.42-2.4l-.04-9.12c0-.39-1.26-.17-1.27.2h-.44l-1.51.44c-.21-.36-1.22-.83-1.38-.44-.13.32-.33.96-.57.87-.47-.18-1.36-.44-1.76-.62l.25-.45c2.2-1.38,1.8-1.39,4.31-2.65,1.42.85-.26,1.08,2.85,1.58,1.05-.36,1.43-1.27,1.27-2.22,1.13.59-.07,2.29.94,2.52.75.17,1.47.38,2.07.61l1.59.61Z"/>
        <path class="cls-6" d="M48.72,28.97l.7-1.25c2.42.08,4.71.97,6.95,1.92l.85.37c-.15-.17-.43-.4-.6-.53-1.08-.81-2.41-1.31-3.71-1.77-.01-1.11,3.42-2.56,3.69-2.13l.32.51c.54.85.84,1.72,1.16,2.7.15.46.46,1.05.38,1.42-.11.52-.66.71-1.1,1.05l-3.09,2.35c-.26.2-1.34.2-1.3-.13.14-1.26,1.22-2.77-.09-3.14-.79-.22-1.31-.57-2.04-.78l-2.12-.61Z"/>
        <path class="cls-10" d="M45.72,20.51c.89,1.52,3.19.75,3.52,1.82l.38,1.21-.2.21-4.12.74-.35-1.44-.2.95-.96.17c-.19-.53-.2-1.36-.03-1.94l1.14-1.46c.13-.17.67-.28.82-.26Z"/>
        <path class="cls-20" d="M52.9,16.6c.07-.02.16-.06.22-.06.17.14.42.32.65.47l1.06.66c-.43.49-1.82-.41-2.03,0l-.31.61c-1.05.29-2.14.6-3.26.97-.66.22-1.21.48-1.8.43l-.43-.5c.3-.88,1.69-1.31,1.97-1.95.26-.11.83-.21,1.25-.33l.05-1.84,2.62,1.54Z"/>
        <path class="cls-12" d="M51.99,66.2v.41c-1.55.1-3.17-.62-4.68-1.35-1.95-.93-3.42-2.46-4.17-4.51-.84-2.3-1.23-4.82-.78-7.24l.69-3.72c.22-1.2.22-2.44.09-3.59l.16-.02c.45.99.43,2.28.14,3.45-1.16,4.66-1.72,11.25,2.78,14.34,1.72,1.18,3.74,1.94,5.76,2.22Z"/>
        <path class="cls-4" d="M66.83,66.48l.17.16c-6.65,1.56-10-.37-11.96-.24l-3.04.2v-.41c1.52.21,3.1-.24,4.57-.81l7.29-2.81c-1.65,1.63-5.29,2.1-7.68,3.42,2.7,1.01,8.31,1.09,10.65.49Z"/>
        <path class="cls-12" d="M58.91,58.39c-.3.34-.57.54-.98.48,5.57-5.47,7.4-11.97,8.86-19.52-.1,4.59-1.67,8.92-3.64,12.98-1.1,2.27-2.55,4.11-4.24,6.06Z"/>
        <path class="cls-10" d="M42.22,27.02c.21.58.86,1.63,1.29,2.14-.29-.74-.75-1.6-1.29-2.14-.06-.15-.08-.53-.09-.7l.76.24c.23.45.64.84,1.11.93l.22.17c.41.65.59,1.77.01,2.41l-.64-.67.55,1.6c-1.67-.07-1.3-3.07-3.83-3.19.7-.43.54-1.57.43-2.26l1.49,1.48Z"/>
        <path class="cls-10" d="M35.92,37.03c0,.11-.01.33-.02.44l-.19.59-1.97-1.26c-.53-.34-.69-.74-.66-1.3l.9-1.29c.04-.06.15-.17.21-.23l.6-.55c.2-.18.83-.39,1.12-.26l.02,3.85Z"/>
        <path class="cls-3" d="M55.1,22.93c-.02.37-.09.77-.2,1.14-1.76.17-3.55.58-5.28.97l-.2-1.28.2-.21c2.73-.32,2.44-.7,5.48-.61Z"/>
        <path class="cls-9" d="M76.58,23.72c0,.93-.04,1.85-.11,2.87l-.12,1.8c-.61-.19-1.34-.77-1.62-1.36l-.58-1.25.62-.39c.11-.07-.04-.36-.07-.48l.51-1.42,1.36.23Z"/>
        <path class="cls-14" d="M49.42,23.75l.2,1.28-3.7.85-.19-.03-1.2-1.03c.1-.34.17-.58.21-.82l.2-.95.35,1.44,4.12-.74Z"/>
        <path class="cls-3" d="M35.31,23.54c.17.01.56,0,.56.16,0,.19-.09.61-.04.77-.18.06-.51.35-.52.56l-.04.5c-.74.17-1.07,2.34-1.1,2.97l-.84.44c-.07-.33-.23-1.02-.43-1.3.75-.87,1.34-3.89,2.41-4.09Z"/>
        <path class="cls-3" d="M36.07,25.1l.15.26c-.41.66-.74,1.27-.76,2.05l1.59-.26-.49-1.78,1.37.35c.25.23.68.71.85.94l-.4.63.5.28c.06.03-.09.26-.16.26h-.36c-.21-.01-.63-.17-.64-.02l-.04.54h-.89s-.53-.43-.53-.43c-.11-.08-.29.36-.32.41h-.9c-.41-2.38.08-.73.24-2.8l.31-.07c.11-.02.17-.24.18-.33l.32-.03Z"/>
        <path class="cls-7" d="M52.91,27.71c1.3.45,2.63.95,3.71,1.77l-.25.15c-2.23-.94-4.52-1.84-6.95-1.92-.75-.02-1.48-.05-2.18.23-.13-.02-.52-.07-.54-.22l-.06-.46c1.26-.57,5.19.07,6.26.44Z"/>
        <path class="cls-12" d="M32.68,34.17c-.06-.02-.29.04-.36.05-.08.02-.02.1.06.22-.04.36.05.75.27,1.04l-.05.32c-.01.07-.19.23-.23.16l-.15-.24c.4-.07-.04-.18-.22-.22l-.65.06c-.15-.08-.48-.2-.65-.24-.1-.17-.6-.49-.86-.48h-1.54s0-.88,0-.88l1.28.22.06-1.02c.23-.02.66-.1.87-.05l1.24.34.16-1.14c.18-1.25.52-2.58,1.42-3.38-.58.73-1.72,4.77-.66,5.23ZM31.71,33.91c-.32-.18-1.07-.36-1.42-.42-.2,1.18.74,1.59,1.66,1.54,0-.22-.04-1.01-.24-1.12Z"/>
        <path class="cls-6" d="M76.57,22.41v1.3s-1.36-.23-1.36-.23l-.51,1.42-1.05-.1c.22-.43.37-.73.41-.94s-.61-.33-.88-.4l1.02-1.25c.93-1.13.72.4,2.36.2Z"/>
        <path class="cls-14" d="M54.9,24.07c.11-.36.18-.76.2-1.14,1.03.03,3.75.02,4.03,1.73-1.43-.21-2.87-.72-4.22-.59Z"/>
        <path class="cls-12" d="M73.78,62.53l-.03-.26c1.91-2.09,3.2-4.03,3.97-6.9.1-.04.29.35.25.46l-1.03,2.95,1.37-.59-2.7,2.41-1.83,1.93Z"/>
        <path class="cls-4" d="M77.27,32.03h-.22c-.22-.88-.46-1.79-.6-2.84l-.11-.81.12-1.8c.07-1.02.11-1.94.11-2.87v-1.3s.05-1.7.05-1.7h-1.09c0-.37,1.27-.6,1.27-.2l.04,9.12c0,.81.19,1.71.42,2.4Z"/>
        <path class="cls-12" d="M71.37,65.12v.2c-.11.08-.31.22-.44.25l-.64.17c-.07-.07-.12-.15-.17-.13l-.42.19c-.9.41-1.83.63-2.71.84l-.17-.16c1.8-.46,3.48-1.49,5.01-2.62l1.04-.77.3.05c-.66.69-2.41,2.09-1.81,1.98Z"/>
        <path class="cls-12" d="M92.54,36.8l-.29,1.09c-.62,2.36-1.56,4.68-3.26,6.52l1.53-3.01c.56-1.11,1.08-2.24,1.26-3.52.05-.36.3-.95.45-1.28l.3.2Z"/>
        <path class="cls-4" d="M54.01,38.47c1.07.08,2.14.81,3.22.81,2.54,0,4.03-.06,5.49-2.24l.96-1.37c-.56,1.87-2.2,3.6-4.24,3.9-1.88.28-3.87-.09-5.43-1.1Z"/>
        <path class="cls-6" d="M91.79,37.88c-.18,1.27-.7,2.41-1.26,3.52-.46.1-.8-1.52-.14-2.56.35-.55.86-.91,1.4-.96Z"/>
        <path class="cls-12" d="M50.53,34.61c.79.44,1.69.93,2.59,1.11v.22c-.7-.05-1.83-.56-2.36-.91l-.26-.17.03-.26-.24.04-.41-.47c-.06.6.08,1.19.46,1.53-.04.24-.04.75.04,1.02l.58,1.91-.83-1.36-.08.58h-.34c.06-1.7-.06-3.31-.47-5.17l.78,1.15.52.78Z"/>
        <path class="cls-25" d="M44.23,30.07c.11.45.23.74.39,1.11.92,2.2,1.4,4.53,1.83,7.01-.23.4-.54.59-.42.02-.34-2.63-.87-5.01-1.89-7.21l-.55-1.6.64.67Z"/>
        <path class="cls-25" d="M47.44,19.67c.59.04,1.14-.21,1.8-.43,1.12-.37,2.21-.68,3.26-.97.48-.13,1.07-.18,1.68.08l-3.67.83-3.49,1.07.43-.58Z"/>
        <path class="cls-25" d="M50.04,37.85l.03,6.14h-.44c-.19-2.03-.02-4.1.06-6.14h.34Z"/>
        <path class="cls-14" d="M41.08,42.28l.22,1.51c.14.97.65,1.67,1.56,1.78l.46.17c.01.11-.02.32-.02.44l-.16.02c-1.06-.54-2.21-1.02-2.86-2.01l1.01.25-.52-1.65c-.16-.1-.75.14-.87.34s.11.62.37,1.06l-1.3-.84c.25-.28.34-.58.77-.7l1.31-.38Z"/>
        <path class="cls-9" d="M49.42,27.72l-.7,1.25-.57.25-.76-.67c-.07-.14-.13-.43-.16-.59.7-.28,1.43-.26,2.18-.23Z"/>
        <path class="cls-12" d="M77.06,32.03h.22c.39,1.12.81,2.17,1.48,3.32.62,1.05,2.58,1.85,3.64.96,1.58-1.31,2.38-3.51,3.36-4.71-.59,1.7-1.65,3.32-2.9,4.71-.61.68-1.64.97-2.48.64-1.05-.4-1.71-1.34-2.32-2.23s-.78-1.78-1.01-2.69Z"/>
        <path class="cls-11" d="M35.76,25.13c0,.09-.07.3-.18.33l-.31.07.04-.5.44.11Z"/>
        <path class="cls-11" d="M35.04,28.33c-.22,0-.66.07-.86.16.02-.63.36-2.79,1.1-2.97-.16,2.08-.65.42-.24,2.81Z"/>
        <path class="cls-14" d="M36.78,28.33l-.08,2.03c-.25-.28-.41-.69-.53-1.14l-.24-.89c.02-.05.21-.5.32-.41l.53.41Z"/>
        <path class="cls-12" d="M43.33,45.74l-.46-.17-1-3.27c-.05-.18-.7-.26-.72-.21l.47-.5c.74,1.24,1.51,2.72,1.71,4.15Z"/>
        <path class="cls-25" d="M46.45,43.96l-.36-1.68c-.25-1.17-.94-2.12-1.65-3.07,1.41,1,2.46,2.69,2.01,4.75Z"/>
        <path class="cls-25" d="M36.36,37.25l-.44-.22-.02-3.85c-.3-.13-.92.07-1.12.26l-.6.55c-.23-.26,1.3-1.31,1.75-1.41.14,1.04.2,1.61.26,2.51l.16,2.17Z"/>
        <path class="cls-4" d="M50.07,44c0,.93.09,1.75.19,2.91.04.34-.08.33-.35.09l-.28-3h.44Z"/>
        <circle class="cls-11" cx="40.76" cy="32.21" r=".44"/>
        <circle class="cls-14" cx="41.26" cy="35.35" r=".45"/>
        <path class="cls-12" d="M43.79,24.18c-.19.08-.49-.12-.74-.16.68.05-.56-.81.71-1.78-.17.58-.16,1.42.03,1.94Z"/>
        <path class="cls-25" d="M55.08,35.73v.22c-.57.53-1.37.04-1.96,0v-.22c.52.11,1.4,0,1.96,0Z"/>
        <path class="cls-25" d="M50.28,34.65l.21.22.26.17c-.44.9.76,1.09,1.07,2l-1.49-1.34c-.38-.34-.51-.92-.46-1.53l.41.47Z"/>
        <circle class="cls-14" cx="37.9" cy="30.12" r=".43"/>
        <path class="cls-25" d="M75.1,20.71v.22c-.68.35-2.07.92-2.85,1.2.35-.37.97-.86,1.34-.98l1.51-.44Z"/>
        <path class="cls-3" d="M80.32,61.14l-.75.64c-.08.07-.29.15-.27.22l.1.46c-.17-.11-.56-.36-.75-.31l-1.38.34c.75-.52,2.25-1.12,3.05-1.36Z"/>
        <circle class="cls-14" cx="37.86" cy="33.32" r=".43"/>
        <path class="cls-4" d="M55.43,43.24c-.79.15-1.12-.26-1.24-.83.45.17.83.45,1.24.83Z"/>
        <path class="cls-25" d="M79.24,57.25c.22-.52.62-.98,1.25-1.23l-1.25,1.23Z"/>
        <path class="cls-12" d="M95.55,45.53c-.1.39-.31,1.08-.45,1.49l-.14-.18.56-1.54.03.24Z"/>
        <path class="cls-25" d="M82.2,53.64c-.55,1-.94,1.64-1.59,2.15l1.17-2.35c-.23-.11.14.07.42.2Z"/>
        <path class="cls-25" d="M47.01,19.17l-1.03.81c.39-1.02,2.04-2.35,3-2.76-.28.64-1.67,1.08-1.97,1.95Z"/>
        <path class="cls-14" d="M95.1,47.01c-.11.33,0,.8-.47,1.03.1-.45.2-.84.33-1.21l.14.18Z"/>
        <path class="cls-4" d="M73.75,62.27l.03.26-.59.61-.3-.05c.19-.28.65-.59.86-.82Z"/>
        <path class="cls-3" d="M85.76,58.36v.22l-.88.49c-.25.14-.59.61-.77.92-1-.41-2.13.85-3.36.94,1.54-.82,2.35-1.05,4.04-2.01l.96-.55Z"/>
        <circle class="cls-14" cx="35.79" cy="31.29" r=".38"/>
        <path class="cls-11" d="M77.27,62.5c-1.56,1.09-1.64.58-2.32,1.62,0,0-.71-.11-.9-.01l-1.69.88c-.35.18-.7.29-1,.34v-.2s.94-.42.94-.42l3.29-1.5c.54-.25,1.2-.59,1.67-.71Z"/>
        <path class="cls-25" d="M32.68,34.17c.31.13,1.01.25,1.3.05l-.9,1.29.04-1.08-.74.02c-.08-.12-.14-.2-.06-.22.07-.01.3-.08.36-.05Z"/>
        <path class="cls-12" d="M79.24,57.25c-.24.43-.51.71-1,.89.31-.46.62-.72,1-.89Z"/>
        <path class="cls-25" d="M86.58,30.24l.29.23c-.23.15-.51.4-.7.63l-.41.5c.19-.55.38-1,.82-1.35Z"/>
        <path class="cls-3" d="M93.16,53.57l-.19.86c-.16-.16-.66-.13-.86-.01l-1.15.67.6-.49,1.61-1.24v.22Z"/>
        <path class="cls-4" d="M55.08,35.94v-.22l1.01-.12c-.39.35-.67.37-1.01.34Z"/>
        <path class="cls-2" d="M96.92,48.39l-.02-.73.38.11c.11.03.12.35.02.41l-.38.22Z"/>
        <path class="cls-14" d="M45.19,18.92c-.18.15-.46.39-.47.29l-.08-.65.56.36Z"/>
        <path class="cls-25" d="M45.72,20.51c-.15-.02-.69.09-.82.26l-1.14,1.46c.31-.77,1.03-1.62,1.73-2.24l.24.52Z"/>
        <polygon class="cls-12" points="48.16 29.22 47.96 29.7 47.4 28.54 48.16 29.22"/>
        <path class="cls-25" d="M53.12,37.9l-1.06-.51c-.07-.07.25-.41.32-.32l.74.83Z"/>
        <path class="cls-4" d="M52.03,40.08h-.22l-.39-.64c.36.29.54.46.61.64Z"/>
        <path class="cls-25" d="M46.63,27.01c-.32-.23-.62-.92-.9-1.16l.19.03c.23.29.57.82.71,1.13Z"/>
        <path class="cls-25" d="M48.76,31.37l-.09-.7.09.7Z"/>
        <path class="cls-7" d="M94.24,52.48l.26-.23s.24.14.18.16l-.44.08Z"/>
        <path class="cls-25" d="M51.81,40.08h.22c.39.29-.02.13-.22,0Z"/>
        <circle class="cls-12" cx="48.22" cy="30.07" r=".14"/>
        <circle class="cls-12" cx="49.09" cy="32.24" r=".14"/>
        <circle class="cls-9" cx="43.98" cy="38.88" r=".14"/>
        <path class="cls-4" d="M53.12,37.9l.67.38-.67-.38Z"/>
        <path class="cls-25" d="M52.6,40.93l-.32-.42.32.42Z"/>
        <path class="cls-4" d="M53.48,41.79l-.56-.62.56.62Z"/>
        <path class="cls-4" d="M53.9,42.45l-.32-.42.32.42Z"/>
        <path class="cls-7" d="M93.16,53.57v-.22l.86-.67c-.23.33-.54.64-.86.88Z"/>
        <path class="cls-4" d="M75.1,20.93v-.22h.22c-.05.06-.15.18-.22.22Z"/>
        <path class="cls-17" d="M30.71,35.33c.17.04.49.15.65.24,1.87,1.02,2.61,1.86,4.31,2.79.16.34.26.73.26,1.08l-1.09,1.07c-1.3,1.28-2.66,2.53-4.13,3.47-.35-.02-.63-.48-.81-.9l-.16-.39c-.04-.08-.39.04-.35.12l.19.39c.22.47.39.97.44,1.41-.94.47-1.73.95-2.75,1.68l3.26.95c1.29.38,2.17.98,3.24,1.98l2.44-2.77,2.8-3.1,1.3.84c.64.99,1.8,1.47,2.86,2.01.13,1.14.13,2.38-.09,3.59l-.69,3.72c-.45,2.42-.06,4.94.78,7.24.75,2.04,2.21,3.58,4.17,4.51,1.51.72,3.13,1.45,4.68,1.35l3.04-.2c1.96-.13,5.31,1.8,11.96.24.89-.21,1.81-.43,2.71-.84l.42-.19c.05-.02.1.06.17.13l-.21.23c-.46.15-.91.38-1.31.65-.53.24-1.06.54-1.54.88-1.28.44-3.71,1.84-4.98,2.56-.82.25-1.75.81-2.41,1.3l-.64.3c-.79.38-1.68.72-2.38,1.25-.36.1-.85.3-1.22.53l-1.19.76c-.5.19-1.06.39-1.51.68l-3.53,1.34c-1.75.66-3.46,1.2-5.19,1.68h-.22s-1.96,0-1.96,0c-.06,0-.16,0-.22-.01-2.46-.6-4.08-2.73-3.44-5.42.06-.24.36-.54.59-.6.87.53,2.01.84,3.07.83,2.47-.02,3.39-.57,5.44-.87l4.31-.63c-.77-.4-1.56-.19-2.4-.1l-1.91.51-2.84.51c-.85.15-1.78.17-2.6.15-1.02-.03-2.1-.26-3.05-.65-6.99-2.93-5.21-8.28-8.51-13.67l.23-.22,2.39,1.92c-.25-.37-.51-.65-.81-.92-1.29-1.17-2.38-2.31-3.65-3.7l-.04.47c-.8-.28-1.48-.89-2.26-1.49-2.56-1.96-3.83-5.26-2.85-8.35,1.01-.53,2.19-1.17,2.98-2l-2.89,1.28c.37-3.49-.1-2.59-.29-5.2-.35-.07-.98-.35-1.13-.68l-.81-1.83c-.03-.06-.11-.16-.16-.22l-.02-1.31,4.37,1.54,1.47-1.52,1.25-.66c.64-.01,1.84.12,2.44.25ZM28.43,41.14c-1.01-1.6-2.7-2.38-4.52-2.56,2.61,1.26,2,.35,4.52,2.56ZM29.12,41.79l-.29-.41c-.05-.07-.31.13-.34.16l.6.93c0,.05.38-.16.3-.27l-.28-.41ZM38.43,46.76l-.15.23,2.08,1.39.15-.23-2.08-1.39ZM26.33,48.28c-.26,1.96.3,3.84,1.24,5.59l.19.36c.04.08.37-.03.34-.12l-.16-.39c-.96-1.67-1.31-3.41-1.61-5.44ZM41.51,48.96c-.19-.46-.58-.84-.89-.36l.89.36ZM42.02,49.11c0-.06-.05-.11-.11-.11s-.11.05-.11.11.05.11.11.11.11-.05.11-.11ZM30.2,50.88c.07.05,0-.53-.07-.66l-.19-.36c-.04-.08-.38.04-.35.12l.14.42c.04.11.33.37.47.47ZM30.44,51.14l-.38.23.67,1.12.38-.23-.67-1.12ZM31.6,53.81c-.24-.47-.19-1.01-.83-1.07l2.18,4.43c.38.3.36-.05.17-.33l-1.53-3.03ZM28.55,54.66c0-.13-.11-.24-.24-.24s-.24.11-.24.24.11.24.24.24.24-.11.24-.24ZM33.77,57.71c0-.13-.11-.24-.24-.24s-.24.11-.24.24.11.24.24.24.24-.11.24-.24ZM33.97,58.38c.75,1.35,1.92,2.54,3.33,3.47l-3.33-3.47h0ZM39.14,62.94l-1.76-1.03,1.95,1.46c.56-.16.34-.39-.19-.43Z"/>
        <path class="cls-17" d="M32.9,27.63c.2.28.36.97.43,1.3-.9.8-1.25,2.13-1.42,3.38l-.16,1.14-1.24-.34c.05-1.23.23-2.47.4-3.7h0c-.52.74-.67,1.85-.82,2.78-.31-.25-.69-.53-.93-.62-.05-.02-.36.31-.33.31.02,0,.1.11.13.14l-.63.51c-.41-.06-.72-.43-.99-.92l-.56.41v-.87l.4.22.11-2.12c0-.12.17-.48.05-.46-.08.01-.32.02-.37-.04l-.34-.37c.82-1.83,3.53-2.9,5.45-3.14.06.92.49,1.91.82,2.39ZM29.76,27.35c0-.23-.18-.41-.41-.41s-.41.18-.41.41.18.41.41.41.41-.18.41-.41ZM31.76,28.17s-.37-.04-.52-.06c-.14-.02-.1.41-.1.55,0,.09.32.14.36.06l.26-.55ZM28.38,29.9c.14-.05.12-.54-.02-.56-.12-.02-.4-.08-.43.03l-.17.57c-.03.1.46.01.62-.04Z"/>
        <path class="cls-15" d="M27.03,34.9c-2.37,1.11-3.49,1-5.6-.56l2.71-1.68,3.69,1.62-.8.62ZM25.53,34.87c-.28-.81-.53-.95-1.04-.9-.28.03-.56.36-.72.85l1.76.05Z"/>
        <path class="cls-10" d="M26.97,28.76c0,.42-.03.9-.08,1.4l-.1,1v.44c-.08,0-.17-.02-.22,0-.21.11-.47.29-.65.44-.44-.11-1.02-.29-1.47-.47-.06-.75,1.58-2.72,2.19-3.17l.34.37Z"/>
        <path class="cls-10" d="M29.65,33.16l-.06,1.02-1.28-.22c-.13-.43-.12-.98.02-1.42l.63-.51h.62c.04.41.08.88.07,1.14Z"/>
        <polygon class="cls-12" points="28.09 34.86 28.27 35.08 27.02 35.74 27.03 34.9 28.09 34.86"/>
        <path class="cls-14" d="M30.71,35.33c-.6-.12-1.8-.26-2.44-.25l-.18-.23h1.76c.26-.01.76.3.86.47Z"/>
        <path class="cls-16" d="M26.78,31.81v.22l-.38.47c-.12.15-.43-.35-.49-.47.19-.15.45-.32.65-.44l.22.22Z"/>
        <path class="cls-4" d="M30.46,57.97c-.35-.58-.94-1.07-1.37-1.7l-.51-.75.04-.47c1.27,1.39,2.36,2.52,3.65,3.7.3.28.56.55.81.92l-2.39-1.92-.23.22Z"/>
        <path class="cls-4" d="M42.02,72.29v.44c-1.05,0-2.19-.31-3.07-.83l.02-.25c.94.39,2.03.62,3.05.65Z"/>
        <path class="cls-1" d="M21.34,37.25l-.29.19c-.07.04-.23-.25-.16-.28l.29-.12c.05.06.13.15.16.22Z"/>
        <path class="cls-11" d="M37.92,25.72l-1.37-.35h-.34s-.15-.27-.15-.27l-.23-.63c-.06-.15.04-.58.04-.77,0-.17-.39-.15-.56-.16l.53-.46c.14-.12.64.24.63.43,0,.28-.02.68,0,.89.03.34,1.59.23,1.45,1.32Z"/>
        <path class="cls-22" d="M44,27.49c-.47-.09-.88-.48-1.11-.93.56.03,1.09.37,1.11.93Z"/>
        <path class="cls-17" d="M77.3,16.36c.33.32.8.61,1.25.85.16.95-.22,1.86-1.27,2.22-3.11-.5-1.43-.74-2.85-1.58.94-.47,1.73-1.46,2.86-1.49Z"/>
        <path class="cls-20" d="M80.13,17.63c.39.66.92,1.28,1.5,1.77.23.35.56.71.92,1.03l.6.52-1.59-.61c-.6-.23-1.32-.44-2.07-.61-1-.22.19-1.92-.94-2.52-.46-.24-.92-.54-1.25-.85.48-.2,1.21-.08,1.63.27l1.21,1Z"/>
        <path class="cls-20" d="M42.87,45.57c-.91-.11-1.42-.8-1.56-1.78l-.22-1.51.06-.19c.02-.06.67.03.72.21l1,3.27Z"/>
        <path class="cls-4" d="M30.7,43.98c-.16.2-.46.52-.69.64-.05-.44-.22-.94-.44-1.41l-.19-.39c-.04-.08.32-.21.35-.12l.16.39c.18.43.45.88.81.9Z"/>
        <path class="cls-11" d="M56.37,29.63l.25-.15c.17.13.45.35.6.53l-.85-.37Z"/>
        <path class="cls-9" d="M42.22,27.02c.54.54,1,1.41,1.29,2.14-.43-.51-1.08-1.56-1.29-2.14Z"/>
        <path class="cls-1" d="M32.01,35.51l.22.22.15.24c.04.06.22-.09.23-.16l.05-.32.42.03c-.02.56.13.96.66,1.3l1.97,1.26c-.02.07-.03.21-.04.29-1.7-.93-2.44-1.77-4.31-2.79l.65-.06Z"/>
        <path class="cls-7" d="M36.56,25.36l.49,1.78-1.59.26c.02-.77.35-1.39.76-2.05h.34Z"/>
        <path class="cls-14" d="M36.07,25.1l-.32.03-.44-.11c.02-.2.34-.49.52-.56l.23.63Z"/>
        <path class="cls-6" d="M31.71,33.91c.2.11.25.91.24,1.12-.92.05-1.86-.36-1.66-1.54.35.06,1.1.24,1.42.42Z"/>
        <path class="cls-25" d="M30.52,33.12c-.21-.06-.64.03-.87.05.01-.25-.03-.72-.07-1.14h-.62s-.11-.15-.13-.14c-.02,0,.28-.33.33-.31.24.1.62.37.93.62.15-.94.3-2.04.82-2.78-.18,1.23-.35,2.47-.4,3.7Z"/>
        <path class="cls-9" d="M33.07,35.51l-.42-.03c-.22-.29-.31-.68-.27-1.04l.74-.02-.04,1.08Z"/>
        <path class="cls-25" d="M32.22,35.73l-.22-.22c.18.03.62.14.22.22Z"/>
        <path class="cls-25" d="M40.29,44.19c-.26-.44-.49-.87-.37-1.06s.71-.44.87-.34l.52,1.65-1.01-.25Z"/>
        <path class="cls-11" d="M52.91,74.89c-.41.26-.72.44-1.34.78-.33.18-.37.88-.3,1.31l-.11.32-.19-1.4-2.25.91c-.36.15-1.33.4-1.4.79-.15.76.13,3.17.58,3.59-.86-.03-.97-2.79-.9-3.69l-1.47.27c-.42.08-.96.14-1.33.15,1.72-.48,3.44-1.02,5.19-1.68l3.53-1.34Z"/>
        <path class="cls-4" d="M26.33,48.28c.31,2.03.65,3.77,1.61,5.44l.16.39c.03.08-.3.2-.34.12l-.19-.36c-.94-1.75-1.5-3.63-1.24-5.59Z"/>
        <path class="cls-12" d="M47.46,71.64v.22c-2.05.3-2.97.85-5.44.87v-.44c.82.02,1.74,0,2.6-.15l2.84-.51Z"/>
        <path class="cls-4" d="M31.6,53.81l1.53,3.03c.19.28.21.63-.17.33l-2.18-4.43c.64.06.59.6.83,1.07Z"/>
        <path class="cls-25" d="M47.46,71.85v-.22l1.91-.51c.84-.09,1.63-.3,2.4.1l-4.31.63Z"/>
        <path class="cls-4" d="M28.43,41.14c-2.51-2.22-1.91-1.3-4.52-2.56,1.81.18,3.51.96,4.52,2.56Z"/>
        <rect class="cls-4" x="39.26" y="46.32" width=".28" height="2.5" transform="translate(-22.05 53.85) rotate(-56.21)"/>
        <path class="cls-7" d="M67.24,67.51l.12,1.1-.1.2-.25-.73c-.06-.18-.62,0-.8.09l-1.9.98c-.33.17-.65.53-.89.89.03.03-.18-.19-.25-.26l-.92.28c1.28-.71,3.7-2.11,4.98-2.56Z"/>
        <path class="cls-12" d="M33.97,58.38l3.33,3.47c-1.41-.92-2.57-2.12-3.33-3.47Z"/>
        <rect class="cls-4" x="30.36" y="51.16" width=".45" height="1.31" transform="translate(-22.3 23.12) rotate(-30.96)"/>
        <path class="cls-4" d="M30.2,50.88c-.14-.1-.43-.36-.47-.47l-.14-.42c-.03-.09.31-.21.35-.12l.19.36c.06.12.14.71.07.66Z"/>
        <path class="cls-12" d="M39.14,62.94c.53.04.75.27.19.43l-1.95-1.46,1.76,1.03Z"/>
        <path class="cls-4" d="M41.51,48.96l-.89-.36c.31-.47.7-.09.89.36Z"/>
        <path class="cls-4" d="M29.12,41.79l.28.41c.08.11-.31.32-.3.27l-.6-.93s.29-.24.34-.16l.29.41Z"/>
        <circle class="cls-4" cx="33.53" cy="57.71" r=".24"/>
        <circle class="cls-4" cx="28.31" cy="54.66" r=".24"/>
        <circle class="cls-4" cx="41.91" cy="49.11" r=".11"/>
        <path class="cls-12" d="M26.78,31.16l.1-1c.05-.5.08-.97.08-1.4.05.06.3.05.37.04.11-.02-.05.34-.05.46l-.11,2.12-.4-.22Z"/>
        <circle class="cls-14" cx="29.36" cy="27.35" r=".41"/>
        <path class="cls-14" d="M28.38,29.9c-.16.06-.65.14-.62.04l.17-.57c.03-.1.31-.04.43-.03.14.02.16.51.02.56Z"/>
        <path class="cls-14" d="M31.76,28.17l-.26.55c-.04.09-.36.03-.36-.06,0-.14-.03-.56.1-.55.15.02.54.06.52.06Z"/>
        <path class="cls-1" d="M26.78,31.81l-.22-.22s.14,0,.22,0v.22Z"/>
        <path class="cls-1" d="M25.53,34.87l-1.76-.05c.17-.49.44-.82.72-.85.5-.05.76.09,1.04.9Z"/>
        <g>
          <path class="cls-1" d="M38.77,38.95c1.29.45,2.19,1.53,2.85,2.63l-.47.5-.06.19-1.31.38c-.43.12-.52.42-.77.7l-2.8,3.1-2.44,2.77c-1.07-1-1.95-1.61-3.24-1.98l-3.26-.95c1.03-.74,1.81-1.21,2.75-1.68.23-.11.53-.43.69-.64,1.47-.95,2.83-2.2,4.13-3.47l1.09-1.07.88-.88c.45-.45.63-.08,1.98.39ZM36.8,43.84l3.53-3.11c-.65-.77-1.84-1.73-2.71-1.64l-2.08,1.93,1.11.56c.54.51.33,1.39.15,2.26ZM35.49,41.28c0-.06-.05-.11-.11-.11s-.11.05-.11.11.05.11.11.11.11-.05.11-.11ZM36.06,44.7c-.3-.51-1.92-.23-2.04-.64l-.38-1.22-2.05,1.61c-.54.42-1,.88-1.38,1.53l3.32,1.12c.4-.02,2.23-1.84,2.52-2.39Z"/>
          <path class="cls-14" d="M36.36,37.25l2.41,1.7c-1.35-.47-1.52-.85-1.98-.39-.02-.2-.09-.6-.19-.78s-.51-.27-.71-.3c0-.11.02-.33.02-.44l.44.22Z"/>
          <path class="cls-15" d="M36.06,44.7c-.3.56-2.13,2.37-2.52,2.39l-3.32-1.12c.38-.64.84-1.11,1.38-1.53l2.05-1.61.38,1.22c.13.41,1.74.13,2.04.64ZM33.45,45.23c-.33-.44-1.19.03-1.44.58.2.11.7.26.94.28s.65-.67.51-.86Z"/>
          <path class="cls-15" d="M36.8,43.84c.18-.87.39-1.76-.15-2.26l-1.11-.56,2.08-1.93c.88-.08,2.07.88,2.71,1.64l-3.53,3.11ZM38.49,40.86c0-.27-.22-.49-.49-.49s-.49.22-.49.49.22.49.49.49.49-.22.49-.49Z"/>
          <path class="cls-4" d="M36.79,38.56l-.88.88c0-.35-.09-.74-.26-1.08,0-.08.02-.22.04-.29l.19-.59c.2.04.61.13.71.3s.16.57.19.78Z"/>
          <circle class="cls-15" cx="35.38" cy="41.28" r=".11"/>
          <path class="cls-1" d="M33.45,45.23c.15.19-.27.89-.51.86s-.74-.17-.94-.28c.25-.55,1.11-1.02,1.44-.58Z"/>
          <circle class="cls-1" cx="38" cy="40.86" r=".49"/>
        </g>
      </g>
      <g>
        <path class="cls-5" d="M34.61,4.17l.3.25.17.37c.06.13.33.23.52.32l1.94.91c1.16.54,2.25,1.18,3.24,2l3.32,2.76,4.19,3.26c.24.19.46.53.52.78l-2,1.36c-.1-.18-.36-.38-.63-.47-2.22-.64-4.07-1.75-5.95-3.01-1.32-.89-1.28-1.14-1.87-1.14-.11-.12-.34-.36-.46-.46.02-1.07-.87-.87-1.53-2.17-.87-.93-1.93-3.65-2.29-3.48l-.08-.89c-.02-.2.45-.28.62-.39Z"/>
        <path class="cls-3" d="M95.59,44.21c.11-.95.2-2.08-.05-3.07-.46-1.8-1.56-3.4-3-4.35l-.3-.2c-.01-1.15.38-3.72-.79-4.4l.16-.38c1.44-1.64,2.41-3.69,3.14-5.87,1.86-5.58-.21-9.73-3.86-13.81-1.45-1.62-2.63-3.4-4.51-4.66l2.41,5.83c.07,3.92.09,2.75-.63,6.09h-.22l.3-1.69c.14-.83.14-1.73.06-2.48.03-.21.09-.62.1-.83.03-.6-.18-1.27-.43-1.79-.04-.3-.14-.9-.26-1.16l-.62-1.32-1.75-3.76c.06.05.65-.17.66-.37.06-1.13-1.45-2.84-2.92-2.31l-.76.33.43.57c-.94-.1-3.88-2.87-11.38-3.86-2.14-.28-5.49-.42-7.12.84-.38.13-.99.32-1.37.55l-1.24.76-.42-.02c2.39-1.85,4.3-3,7.81-2.83,4.55.22,8.83,1.39,12.84,3.61,1.4-1.03,3.05-.74,4.09.6.5.64.58,1.94.8,2.64,1.22,1.29,2.49,2.43,3.57,3.83l3.41,4.41c2.53,3.27,2.59,7.81,1.28,11.58-.66,1.89-1.57,3.6-2.53,5.34.61,1.9-.26,3.91,1.07,4.91,2.03,1.53,2.98,4.84,2.55,7-.04.18-.52.35-.49.28ZM86.41,7.33c0-.06-.05-.11-.11-.11s-.11.05-.11.11.05.11.11.11.11-.05.11-.11Z"/>
        <path class="cls-3" d="M84.89,6.07c-1.16-.57-2.35-.71-3.62-.52-3.56.52-6.45.55-8.29,4.28-.18.13-.53.47-.66.71l-.56,1.01c-.12.22-.4.57-.58.68l1.27-2.23c.21-.36.37-.76.47-1.1.11.03.3,0,.4-.05-.61.28,1.96-2.48,4.06-3.01,1.09-.27,2.4-.7,3.39-.68l2.27.04.11-.33c.57.15,1.42.58,1.74,1.19Z"/>
        <path class="cls-3" d="M69.44,15.49c.17-.68.6-1.48,1.09-1.96-.02.12-.67,1.67-1.09,1.96Z"/>
        <path class="cls-3" d="M68.13,18.1c.1-.41.33-1.04.65-1.31-.06.44-.37.96-.65,1.31Z"/>
        <path class="cls-3" d="M70.53,13.53c.06-.42.29-1.08.65-1.31-.01.58-.27.94-.65,1.31Z"/>
        <path class="cls-3" d="M67.92,18.97l-.23.04c0-.36.16-.73.45-.91l-.22.87Z"/>
        <path class="cls-3" d="M85.33,6.37c-.07,0-.26.04-.29-.03l-.14-.27c.15.07.37.17.43.3Z"/>
        <path class="cls-3" d="M83.15,4.88c-.18-.05-.36-.21-.42-.29l.33.04c.08,0,.12.18.09.26Z"/>
        <path class="cls-3" d="M68.79,16.79c.07-.55.2-1,.65-1.31-.14.57-.21.94-.65,1.31Z"/>
        <path class="cls-7" d="M54.2,8.95v.24s-2.04-.59-2.04-.59l-5.34-1.88c-2.83-1-9.18-2.77-11.92-2.3l-.3-.25c2.17-1.4,11.29,1.72,14.09,2.71l4.03,1.42c.5.18,1.06.46,1.47.66Z"/>
        <path class="cls-14" d="M37.89,11.09c-1.26-1.07-3.66-3.99-3.82-5.64.36-.17,1.41,2.54,2.29,3.48.66,1.3,1.55,1.1,1.53,2.17Z"/>
        <path class="cls-7" d="M61.63,2.87l-1.76,2.18c-.18.09-.54.28-.66.45v-.69c.65-.72,1.23-1.37,1.99-1.96l.42.02Z"/>
        <path class="cls-7" d="M57.92,7.27l.18.38-.02.2c-.48.25-.95.84-1.23,1.32l-.49-.17,1.11-1.79.44.06Z"/>
        <path class="cls-14" d="M59.21,5.5c-.26.36-.68,1.08-.86,1.48l-.44.29-.44-.06c.56-.9,1.06-1.63,1.74-2.4v.69Z"/>
        <path class="cls-3" d="M56.37,9l.49.17-.23.23c-.14.1-.15.12-.02.22,0,.15.02.5.14.6l-2.53-1.03v-.24c.32.16,2.05.64,2.16.05Z"/>
        <path class="cls-8" d="M94.75,22.43c-.23,3.75-1.89,4.18-3.69,6.94-.15-.06-.41-.08-.81-.12l.96.62c.24.15.48.33.64.46-.52.24-.51,1.01-.25,1.49l-.16.38c-1.81-.21-3.09-1.26-4.58-1.74l-.29-.23c.41-.99.79-2,1.14-3,.02.04.47-.13.47-.24l-.04-2.39c0-.33-.57-.87-.81-1.08,1.49-1.78.55-.54,1.76-2.38l.94-1.43c.49-.74,2.03-1.81,2.29-1.32l.34.62c.91,1.69,1.09,1.58,2.11,3.41ZM90.11,29.16c-.25-.33-.65-.56-1.1-.57l1.1.57Z"/>
        <path class="cls-3" d="M53.95,16.57c.7.16,1.93.85,2.63,1.24,2.75,1.53,8.19,2.45,11.12,2.44.11,0,.3-.64.39-.58l.42.29c.49.34,1.07.56,1.62.55l-.25.45c-.57-.26-1.3-.55-2.1-.48-3.42.28-6.68-.56-9.88-1.72l-3.05-1.1-1.06-.66c-.24-.15-.49-.33-.65-.47.22-.01.63-.02.84.03Z"/>
        <path class="cls-7" d="M43.18,9.44c1.97,2.53,4.62,3.45,6.55,4.77l3.17,2.15v.24l-2.62-1.54c-.36-.21-1.12-.48-1.48-.23-.05-.25-.27-.6-.52-.78l-4.19-3.26-3.32-2.76c-.98-.81-2.08-1.45-3.24-2l-1.94-.91c-.19-.09-.47-.19-.52-.32,3.01.46,5.65,3.16,8.1,4.64Z"/>
        <path class="cls-23" d="M54.2,9.2l2.53,1.03c.34.29,1.01.87,1.38,1.13.47.33-2.33.27-2.19.3l-1.78-.46-.24-1.21c-1.38-.58-1.8-.7-3.41-.75l-1.96-.06c-.88-.03-1.64-.63-2.12-1.33l-1.43-.12c-.32-.03-.87-.04-1.15.08-.94.38.11,1.87-.66,1.64-2.45-1.48-5.09-4.18-8.1-4.64l-.17-.37c2.74-.48,9.09,1.3,11.92,2.3l5.34,1.88,2.04.59Z"/>
        <path class="cls-18" d="M80.77,5.16c-.99-.02-2.29.4-3.39.68-2.1.53-4.68,3.29-4.06,3.01-.1.05-.29.08-.4.05l-.34-.1c-.09-.03-.18.23-.28.46-.62,1.37-1.34.16-2.54,3.16-.1.24.17,1.06-.06,1.15l-1.69.72c-.65.28-1.78-.64-2.52-.23-.64.35.44,1.96-.78,2.22-.43-.32-.99-.75-1.45-1.15l-1.98-1.74c-.73-.65-1.55-1.42-2.37-1.93l-1.9-1.19c.06-.16.33-.43.53-.52l1.66-.78c.56.18,1.21.45,1.79.76l4.72,2.57.66-1.16c.05-.09-.21-.39-.25-.45-.02-.16-.06-.48-.02-.64l.17-.79c-.2-.12-.68-.38-.82-.52-.1-.33.47-.83.77-.74s.82.48.75.76l-.12.48c-.03.11.54.21.6.11l.63-1.09-2.77-1.42c-.07-.04-.47-.05-.47.02v.36c.04.94-.83,3.02-1.67,3.12-.07-.41-.12-1.4-.41-1.29l-.85.31c-.18.07-.61-.5-.52-.68l1.03-2.1c.08-.16.64-.33.82-.39.09-.03.24-.34.18-.41-.28-.32-1.29-.73-1.96-.7l.39,1.07-1.32,2.12c-.12.19-.86.27-.85.06l.18-3.31,1.76-2.18,1.24-.76c.38-.23.99-.42,1.37-.55,1.01.79,2.4.5,3.56-.22.54-.34,1.43-.11,2.06-.1,2.6.04,5.2.86,7.46,1.94,1.07.04,1.9.38,2.56,1.23l.9.74Z"/>
        <path class="cls-24" d="M81.27,5.54c.4,2.81,3.73,1.51,4.03,2.73.4,1.64.9,4.68,2.66,4.35.26.52.47,1.19.43,1.79l-1.24.45c-2.18.79-2.62.46-3.65,1.4-1.41,1.29-.47,2.57-1.01,2.79l-.85.35c-.58-.49-1.11-1.11-1.5-1.77-.37-2.84,1.28-1.72,1.1-3.03l-3.62-1.39c-.85-.33-1.77-.88-2.28-1.58-1.35-1.89-1.5-.38-2.36-1.79,1.84-3.74,4.73-3.76,8.29-4.28Z"/>
        <path class="cls-13" d="M91.6,31.82c-.26-.48-.26-1.26.25-1.49l.49-.17c-.36-.27-.91-.64-1.29-.79,1.8-2.77,3.46-3.19,3.69-6.94.4-.84-.15-1.71-.49-2.55-.54-1.33-1.12-2.6-2.74-2.98l-.89-3.23c-.37-.36-1.38-.41-1.85-.35l-2.41-5.83c1.87,1.26,3.05,3.04,4.51,4.66,3.65,4.07,5.73,8.22,3.86,13.81-.73,2.19-1.69,4.24-3.14,5.87Z"/>
        <path class="cls-18" d="M94.75,22.43c-1.02-1.83-1.2-1.72-2.11-3.41l-.34-.62c-.26-.48-1.8.58-2.29,1.32l-.94,1.43c-1.21,1.84-.27.6-1.76,2.38-.11-.1-.52-.31-.49-.45.44-2.09.95-1.93,1.32-3.67.72-3.34.7-2.17.63-6.09.47-.06,1.48,0,1.85.35l.89,3.23c1.62.38,2.2,1.65,2.74,2.98.34.84.89,1.71.49,2.55Z"/>
        <path class="cls-8" d="M88.39,14.41c-.01.21-.07.62-.1.83-.67.48-.86,1.47-.39,2.16l-.52,1.42c-.68,1.85-2.68.86-2.77,1.81-.02.25.3.58.51.76l.42.35c.11.09.06.34-.02.5l-2.37-1.29-.6-.52c-.36-.31-.69-.68-.92-1.03l.85-.35c.54-.22-.4-1.5,1.01-2.79,1.03-.94,1.47-.61,3.65-1.4l1.24-.45Z"/>
        <path class="cls-13" d="M84.89,6.07l.14.27c.04.07.22.04.29.03l1.75,3.76.62,1.32c.12.27.22.87.26,1.16-1.76.33-2.25-2.71-2.66-4.35-.3-1.22-3.63.08-4.03-2.73,1.27-.19,2.46-.05,3.62.52Z"/>
        <path class="cls-13" d="M85.33,6.37c-.06-.13-.29-.23-.43-.3-.32-.61-1.17-1.04-1.74-1.19.02-.07-.01-.25-.09-.26l-.33-.04-.43-.57.76-.33c1.46-.53,2.98,1.18,2.92,2.31-.01.21-.6.42-.66.37Z"/>
        <path class="cls-13" d="M82.74,4.58c.06.08.24.25.42.29l-.11.33-2.27-.04-.9-.74c-.67-.86-1.49-1.2-2.56-1.23-2.26-1.08-4.87-1.9-7.46-1.94-.63,0-1.52-.23-2.06.1-1.16.72-2.55,1-3.56.22,1.63-1.26,4.98-1.13,7.12-.84,7.5.99,10.45,3.76,11.38,3.86Z"/>
        <path class="cls-24" d="M88.29,15.24c.09.75.09,1.65-.06,2.48l-.3,1.69-.32.4-.95.52-.92.34-.64.71c-.21-.18-.54-.51-.51-.76.09-.95,2.09.05,2.77-1.81l.52-1.42c-.47-.69-.28-1.68.39-2.16Z"/>
        <circle class="cls-13" cx="86.31" cy="7.33" r=".11"/>
        <path class="cls-9" d="M59.87,5.05l-.18,3.31c0,.2.73.13.85-.06l1.32-2.12-.39-1.07c.67-.03,1.68.38,1.96.7.06.07-.09.38-.18.41-.18.07-.74.23-.82.39l-1.03,2.1c-.09.18.34.75.52.68l.85-.31c.3-.11.34.87.41,1.29.84-.1,1.71-2.18,1.68-3.12v-.36c-.01-.07.38-.06.46-.02l2.77,1.42-.63,1.09c-.06.1-.63,0-.6-.11l.12-.48c.07-.28-.44-.67-.75-.76s-.87.41-.77.74c.14.14.63.4.82.52l-.17.79c-.29,0-.88-.01-1.24,0-.18,0-.27.56-.13.67s.53.25.7.2l.7-.23c.04.06.3.37.25.45l-.66,1.16-4.72-2.57c-.58-.31-1.23-.58-1.79-.76-.33-.37-.75-.76-1.14-1.11l.02-.2.77-.35-.52-.32c.18-.4.6-1.12.86-1.48.12-.17.48-.35.66-.45Z"/>
        <path class="cls-13" d="M59.22,8.97l-1.66.78c-.2.09-.47.36-.53.52-.08,0-.23,0-.29-.04-.12-.1-.13-.45-.14-.6l.02-.22.23-.23c.28-.48.75-1.08,1.23-1.32.39.35.81.75,1.14,1.11Z"/>
        <polygon class="cls-13" points="58.1 7.65 57.92 7.27 58.35 6.98 58.87 7.3 58.1 7.65"/>
        <path class="cls-7" d="M56.6,9.63c-.12-.1-.12-.12.02-.22l-.02.22Z"/>
        <path class="cls-8" d="M80.13,17.63l-1.21-1c-.42-.35-1.15-.46-1.63-.27-1.13.03-1.92,1.02-2.86,1.49-2.5,1.27-2.1,1.28-4.31,2.65-.55,0-1.12-.21-1.62-.55l-.42-.29c-.08-.06-.28.58-.39.58-2.94,0-8.37-.9-11.12-2.44-.7-.39-1.93-1.08-2.63-1.24l-.2-1.12c-.28-1.57,2.58-2.22,3.95-1.81.46-.08.92.01,1.27.29l1.96,1.59c-.03.54.16,1.75.65,1.86.7.16,2.81.23,3.01-.52l.75.36c.49.72,1.74,1.77,2.41,2.35l.15-.58.22-.87c.28-.34.6-.87.65-1.31.45-.37.51-.73.65-1.31.42-.29,1.07-1.84,1.09-1.96.38-.37.64-.73.65-1.31.18-.11.46-.46.58-.68l.56-1.01c.13-.24.48-.58.66-.71.87,1.41,1.01-.1,2.36,1.79.51.71,1.42,1.25,2.28,1.58l3.62,1.39c.18,1.31-1.47.19-1.1,3.03Z"/>
        <path class="cls-8" d="M72.92,8.89c-.1.34-.27.74-.47,1.1l-1.27,2.23c-.36.23-.59.89-.65,1.31-.49.48-.92,1.28-1.09,1.96-.45.31-.58.76-.65,1.31-.32.26-.55.89-.65,1.31-.29.17-.45.55-.45.91-.58.09-.6-.98-2.32-1.8l-.64-.93c1.21-.27.14-1.87.78-2.22.73-.41,1.87.51,2.52.23l1.69-.72c.23-.1-.04-.91.06-1.15,1.19-3.01,1.92-1.79,2.54-3.16.11-.23.19-.49.28-.46l.34.1Z"/>
        <path class="cls-23" d="M87.62,19.81c-.11.62-.3,1.31-.6,1.92l-.57,1.17-.94-.65c.08-.16.13-.4.02-.5l-.42-.35.64-.71.92-.34.95-.52Z"/>
        <path class="cls-11" d="M88.16,19.4c-.38,1.74-.88,1.58-1.32,3.67-.03.15.38.35.49.45.24.21.81.74.81,1.08l.04,2.39c0,.12-.45.28-.47.24.54-1.56-.1-3.16-1.26-4.35l.57-1.17c.3-.61.48-1.29.6-1.92l.32-.4h.22Z"/>
        <path class="cls-7" d="M91.06,29.37c.38.14.93.52,1.29.79l-.49.17c-.17-.13-.41-.31-.64-.46l-.96-.62c.4.04.66.06.81.12Z"/>
        <path class="cls-7" d="M90.11,29.16l-1.1-.57c.45.01.85.24,1.1.57Z"/>
        <path class="cls-8" d="M53.12,16.54c-.06,0-.15.04-.22.06v-.24c.06.04.16.13.22.18Z"/>
        <path class="cls-24" d="M58.12,11.35c1.76.85,5.27,3.98,6.48,5.5-.2.76-2.31.68-3.01.52-.5-.11-.69-1.32-.65-1.86l-1.96-1.59c-.35-.28-.81-.38-1.27-.29-1.37-.4-4.23.25-3.95,1.81l.2,1.12c-.2-.05-.62-.04-.84-.03-.06-.05-.16-.14-.22-.18l-3.17-2.15c-1.93-1.31-4.59-2.24-6.55-4.77.76.23-.29-1.26.66-1.64.28-.12.83-.11,1.15-.08l1.43.12c.49.7,1.25,1.3,2.12,1.33l1.96.06c1.62.05,2.03.17,3.41.75l.24,1.21,1.78.46c-.14-.03,2.66.03,2.19-.3Z"/>
        <path class="cls-7" d="M64.72,16.28l.64.93-.75-.36c-1.22-1.52-4.73-4.65-6.48-5.5-.37-.25-1.04-.84-1.38-1.13.07.03.21.03.29.04l1.9,1.19c.82.51,1.63,1.28,2.37,1.93l1.98,1.74c.46.4,1.02.83,1.45,1.15Z"/>
        <path class="cls-7" d="M67.68,19.01l.23-.04-.15.58c-.67-.58-1.92-1.63-2.41-2.35,1.72.82,1.75,1.9,2.32,1.8Z"/>
        <path class="cls-12" d="M66.13,10.05c-.03.16,0,.48.02.64l-.7.23c-.17.05-.56-.09-.7-.2s-.04-.66.13-.67c.36-.01.94,0,1.24,0Z"/>
      </g>
    </g>
    <g>
      <path class="cls-14" d="M72.91,138.48l.04.28c.02.15,1.12-.15,1.46.3.15.21.25.66.39,1.13l.26-.36.55-.49c.3-.25.85.13,1.23.26.29.86,0,1.71-.64,2.33l-1.41.36-.1-2.16c-.29.35-.66.77-.99,1.04l-.32.26c-.85.69,3.23,1.35,2.62,1.21,1.06.25,2.2.43,3.38.45l.14-2.63.4-.25c.23-.15.76-.49,1.04-.45.61.08,1.02.88.96,1.42-.12,1.24-1.91,1.15-1.78,2.01-.02.38.06.23.21-.02,1.11.06,3.26.05,4.54-.03,5.49-.36,10.67-.08,16.11.29,4.49.31,5.17-1.82,5.71-1.75,1.18.14,3.46.23,4.75.03.09.1-.29.68-.54.68l-3.38.02c-1.96.01-1.88,1.91-6.76,1.56-.48-.03-1-.15-1.4-.32-.12.04-.68.19-.93.17l-3.08-.17c-2.46-.13-4.83-.11-7.25-.06l-5.37.12h-2.39c-1.28-.02-2.51-.13-3.74-.38l-2.94-.61c-.68-.14-1.03-.73-1.26-1.42-.1-.25-.72.26-.97.43-2.01,1.42-4.47,2.07-6.98,2.1l-8.18.1c-1.39.02-2.8-.02-4.19-.19,0,0-4.1-1.18-3.95-1.36l.36-.27,3.02.96.58-2.89.37.68c.08.14.07.51.09.61.21-.21.36-.44.45-.38s.32.23.42.31l.56.5-.81.73c-.11.1-.44.42-.31.48.09.04.45.21.55.21l3.1.04,7.1-.03c.4,0,4.34-.17,4.09-.76,1.88.22,4.85-1.74,4.55-4.07l.67-.03Z"/>
      <path class="cls-11" d="M33.53,132.96l-.64,1.83c-.05.14.14.48.2.61.18.34.79.68,1.27.51-.31.69,1.82,1.09,2.42,1.02l.39-2.38.71-.25c.2-.07.5-.13.68-.09.14.03.38.38.45.51.69,1.47-1.09,1.88-.93,2.16l.19.32c1.49.08,2.82.16,4.17.12l1.08-.03c1.05.13,2.62.16,3.74.09l-.05,1.25c-.34.15-.32.54-.4.91l-.44,1.98c-.32-.05-.75-.72-.66-1.06l.65-2.32c-.33-.24-1.16-.39-1.75-.38-3.42.08-6.84.02-10.18-.71l-2-1.25c-.6-.31,1-4.86,1.49-4.99l.48-.19-.54,1.05c-.16.31-.23.98-.34,1.29Z"/>
      <path class="cls-22" d="M41.8,128.23c.16.07.51.14.69.18.04,0,.12,0,.17,0l.66.48c-.82-.18-1.72,1.72-4.35-.26.19-.07.39-.44.46-.63l.08-.17h.14s.2.22.27.15l.18-.19c.05-.05.19-.13.2-.21l1.5.65Z"/>
      <path class="cls-11" d="M48.48,142.12l-.36.27-1.24-.32c-.12-.03-.33-.48-.31-.51l.6-.11c.27.13.89.31,1.07.3l.55-2.67c.29,0,.79.34.85.66.11.58.05,1.4-.27,1.64-.37.28-.69.52-.9.73Z"/>
      <path class="cls-23" d="M39.43,128c-.08.19-.27.56-.46.63l-.61.22-1.32.24c-.13.02-.36.15-.48.22-.78.15-1.57.73-2.14,1.32l-.48.19c.3-1.01,1.29-1.7,2.37-1.98l3.13-.83Z"/>
      <path class="cls-25" d="M47.17,141.44l-.6.11c-.06-.01-.14-.03-.19-.04l.44-1.98.62.18-.27,1.74Z"/>
      <path class="cls-7" d="M83.16,124.73c-.32-.25-.93-.03-1.32.23-.18,0-.49-.02-.65,0,.8-.48,1.78-.93,2.56-1.53l2.24-1.73c-1.14,1.25-1.68,1.48-2.84,3.03Z"/>
      <path class="cls-7" d="M102.74,118.9l-.44-.03v-.65c.19.17.37.43.44.69Z"/>
      <path class="cls-20" d="M68.08,137.78c-.72.37-1.28.9-1.92,1.53l-.6.6c-.14.14.28.58.41.73l1.71,1.94c.25.59-3.69.76-4.09.76l-7.1.03-3.1-.04c-.11,0-.46-.17-.55-.21-.13-.06.2-.38.31-.48l.81-.73c.18-.16.37-.65.29-.87,2.33.3,1.45-1.58,3.51-2.27.53-.18,1.02-.63,1.51-.9l1.01-.54c.34-.19.47-1.25.41-1.47-.42-.37-.59-.57-.61-.88,3.08,1.09,4.65,1.9,7.98,2.81Z"/>
      <path class="cls-21" d="M60.1,134.97c.02.31.19.51.61.88.06.23-.07,1.29-.41,1.47l-1.01.54c-.49.27-.98.72-1.51.9-2.07.69-1.19,2.57-3.51,2.27-.08-.24-.35-.7-.51-.93s-.74-.24-1.04-.14c-.02-.52.28-1.55.63-1.94.12-.13.39-.28.81-.54.1-.05-.24-.44-.27-.29l-.78.81-.51.97c-.19.36-.44.87-.51,1.2l-.58,2.89-3.02-.96c.21-.21.53-.45.9-.73.32-.24.38-1.07.27-1.64-.06-.31-.57-.67-.85-.66l-.26-.61c.94-1.18,1-3.42,4.8-3.09.41-.82-2.25-.13-2.61.02.07-.16.33-.48.5-.55l.6-.21c.14-.05-.16-.44-.19-.52.04,0,.13,0,.18,0,.31-.05.81-.2,1.09-.26.7-.15,1.97-.61,2.63-1.05.42-.11,1.09.37,1.51.58l3.07,1.59ZM56.82,136.72c.09,0,.38.11.37.04,0-.08-.01-.34,0-.34,0,0-.31-.13-.39-.16l-2,.51,2.02-.05ZM54.64,137.03c0-.06-.05-.11-.11-.11s-.11.05-.11.11.05.11.11.11.11-.05.11-.11Z"/>
      <path class="cls-21" d="M68.79,137.96l2.39.32c.27.04.78.24,1.06.23.3,2.33-2.67,4.29-4.55,4.07l-1.71-1.94c-.13-.15-.55-.59-.41-.73l.6-.6c.63-.63,1.2-1.17,1.92-1.53.06.02.16.03.23.05l.03.3c0,.07.22.12.27.06l.19-.23Z"/>
      <path class="cls-3" d="M54.26,141.04c.08.22-.12.71-.29.87l-.56-.5c-.09-.08-.33-.25-.42-.31s-.24.17-.45.38c-.02-.1-.01-.47-.09-.61.09-.23.28-.66.27-.89.3-.11.87-.09,1.04.14s.43.69.51.93Z"/>
      <path class="cls-4" d="M52.71,139.97c.01.23-.18.66-.27.89l-.37-.68c.07-.33.31-.84.51-1.2l.51-.97.24.02c-.35.39-.65,1.42-.63,1.94Z"/>
      <path class="cls-2" d="M80.12,143.18c.07,0,.15-.02.21-.02-.14.25-.23.4-.21.02Z"/>
      <path class="cls-20" d="M46.15,130.83c.1.53.37,1.04.6,1.51l.7,1.46-1.5-.45-.91,1.33-.96,1.49c-.27.41-.49.72-.56,1.12l-1.08.03.08-1.45c0-.41-1.3-.29-1.46.08-.19.43-.34.75-.53.92s-1.08.07-1.05-.18c.21-1.88.69-1.18-.46-4.54l.43-.44.5,1.47c.09.12.72.08.9-.03l4.09-2.43c.31-.18.71-.86,1.01-.95l.21,1.08Z"/>
      <path class="cls-6" d="M38.97,128.63c2.63,1.98,3.54.08,4.35.26l1.62.36c.29.06.95.23,1.01.5-.3.09-.7.77-1.01.95l-4.09,2.43c-.18.11-.81.15-.9.03l-.5-1.47c1.53-1.59,3.94.14,2.46-1.16-1.16.28-2.07.55-2.95.94-.17-.38-.42-1.06-.48-1.45-.02-.14.03-.41.02-.54,0-.17-.08-.47-.13-.63l.61-.22Z"/>
      <path class="cls-23" d="M40.1,127.8l-.18.19c-.07.07-.3-.1-.27-.15l.45-.05Z"/>
      <path class="cls-17" d="M47.45,133.8c.52.16,1.09.75,1.45,1.16l-.58.87c-.14.16-.4.45-.44.65-.06.34-.3.73-.63.88-1.12.07-2.69.04-3.74-.09.07-.39.3-.7.56-1.12l.96-1.49.91-1.33,1.5.45Z"/>
      <path class="cls-10" d="M39.01,132.14c1.15,3.36.67,2.66.46,4.54-.03.26.85.35,1.05.18s.35-.48.53-.92c.16-.38,1.46-.49,1.46-.08l-.08,1.45c-1.34.04-2.67-.04-4.17-.12l-.19-.32c-.17-.28,1.62-.69.93-2.16-.06-.14-.3-.48-.45-.51-.18-.04-.48.02-.68.09l-.24-.35.45-1.15c.1-.26.68-.57.91-.65Z"/>
      <path class="cls-6" d="M37.18,134.36v.19s-.39,2.38-.39,2.38c-.6.07-2.73-.33-2.42-1.02.21-.08.49-.19.7-.29.81-.36.27-1.97.04-1.96l-.47.04-.05-1.35c.07-.11.19-.32.24-.43v.34c0,.09.31.06.43.09l.74.19c.15.04-.17.66-.09.8.21.35.87.81,1.25,1.02Z"/>
      <path class="cls-10" d="M50.72,135.4c-1,.73-1.94,1.84-2.19,3.07-.28.35-.9.32-1.32.15l.05-1.25c.32-.15.56-.55.63-.88l.44-.65.58-.87c.37-.13.78-.3,1.14-.44.39-.15,1-.18,1.33-.44l.25.04c.03.08.33.48.19.52l-.6.21c-.17.06-.43.39-.5.55Z"/>
      <path class="cls-22" d="M38.36,128.85c.05.16.13.46.13.63-.52.05-.98.17-1.54.38l1.51.16c.06.38.31,1.07.48,1.45l-.85,1.32c-.17.26-.48.62-.69.87l-.63-.45c-.75-.54-.06-1.68-.82-2.17.26-.24.45-.82.97-1.03-.78-.03-1.77,1.24-2.09,1.92-.05.11-.18.32-.24.43-.15.24-.56.54-.82.62h-.24c.11-.32.18-.98.34-1.29l.54-1.05c.57-.59,1.36-1.17,2.14-1.32l.48-.22,1.32-.24Z"/>
      <path class="cls-12" d="M48.8,139.08l-.55,2.67c-.18,0-.81-.18-1.07-.3l.27-1.74-.62-.18c.08-.36.06-.76.4-.91.42.17,1.04.2,1.32-.15l.26.61Z"/>
      <path class="cls-14" d="M34.64,133.7c-.1.37-.19,1.23-.18,1.63,0,.15.57.32.6.29-.21.09-.49.21-.7.29-.48.18-1.1-.17-1.27-.51.03.29.87-2.61.68-2.44.26-.08.67-.38.82-.62l.05,1.35Z"/>
      <path class="cls-25" d="M33.09,135.4c-.07-.13-.25-.47-.2-.61l.64-1.83h.24c.19-.17-.65,2.73-.68,2.44Z"/>
      <path class="cls-4" d="M37.88,134.29l-.71.25v-.19s.24-.7.24-.7c.21-.25.52-.6.69-.87l-.45,1.15.24.35Z"/>
      <path class="cls-25" d="M37.03,129.09l-.48.22c.12-.06.35-.19.48-.22Z"/>
      <g>
        <path class="cls-21" d="M98.81,118.17l3.49.69.44.03c2.26.18,6.68,1.65,8.74,2.64l.72,1.27c.14.25.76,0,1.13-.1,1.1-.3,2.36-.14,3.46.05l1.43-.79c1.77.28,3.27-1,3.91-2.43l1.87-.86c.43-.2,1.04-.35,1.58-.52l.07,5.73c0,.56-.12,1.34-.22,1.93l-.28,1.74c-.1.64-.48,1.79-.64,2.39-.01.05-.01.14-.02.2l-.23.45c-1.87,5.86-6.72,10.16-12.82,11.08-1.29.19-3.57.11-4.75-.03v-.18s.16-.95.16-.95c.05-.26-.15-.76-.2-1-.01-.05.03-1.01-.54-1.76-.06-.07-.38.05-.34.13l.19.41c.16.34.37.91.45,1.21.01.05,0,.14-.01.19l-.74.61c-.39.32-1.03.7-1.44.64-.59-.08-1.06-.35-1.45-.83-.53-.3-1.37-.67-1.96-.74l-2.71-.33-3.72-.02-3.1.08c-.89.54-1.84.77-2.88.88l-3.71.36c.48-1.25,3.17-1.15,3.04-1.91-.1-.57-.4-1.41-.56-1.98-.17-.6-.44-1.17-1.18-1.13-1.18.06-2.29.29-3.25.72-.42-.5-2.04-1.42-2.64-.7-.48-.23-1.12-.1-1.51.26h-.22l-.22-.04c-.07-.01-.21,0-.27-.01-.48-.09-1.41.13-1.92.41l-.2-.1c.1-.37.24-.77.42-1.12.4-.02.83-.17,1.11-.44h.22l4.6-.05c2.63-.03,5.25,1.12,7.59,2.01-1.48-1.45-5.03-2.18-7.17-2.38-.92-.08-1.46.67-3.03-1.77l.03-.24.38-.21c.28-.06.8-.43.9-.74l1.02-3.19.41-1.27c.36-.55.69-1.14.93-1.75,1.15-1.55,1.7-1.79,2.84-3.03,2.09-1.61,4.52-2.68,7.13-3.09.7-.11,5.31-.51,5.69-.44ZM103.61,134.97c.07.2.21.34.58.67l-.12-.38c-.04-.13-.32-.27-.46-.28l-.64-.86c0,.43.32.84.64.86ZM105.35,137.14v.34c.01.09.29.04.37.07.12.04-.08-.29-.15-.41-.33-.53-.74-.97-1.28-1.25l1.07,1.25Z"/>
        <path class="cls-14" d="M124.5,129.96c.16-.6.54-1.75.64-2.39h.28c1.3.39,3.14-.13,3.43-1.79.1-.54-.23-1.59-.26-2.13h.27c.01.21.1.58.18.92,1.13-.65,1.94-1.53,2.1-2.75.11-.83-.5-1.73-1.09-2.17l-.52.74c.2-1.39.29-2.54.03-3.73l.21-.17c1.19,1.54-.2.85,1.53,3.57,1.06,1.67.04,3.82-1.72,4.54l-.21,2c-.81.79-1.83,1.54-2.88,1.8-2.23.56-.51,1.53-2,1.56Z"/>
        <path class="cls-14" d="M124.25,130.61l.23-.45.21.21s-.02.16-.09.17l-.35.07Z"/>
        <path class="cls-20" d="M82.72,136.06v.39s-1.62,1.11-1.62,1.11c-.22.15-.47.62-.56.89-.54.57-.98,1.04-1.03,2.01l-.14,2.63c-1.18-.01-2.32-.19-3.38-.45l.2-.71c.65-.62.93-1.47.64-2.33.44.04.73.29,1.14.54.79.49,1.22-.99,1.2-1.62l-.03-.94c0-.17-.5-.3-.61-.45l-.66-.9-.03-.39c0-.07.02-.2.03-.28.07.01.21,0,.27.01.09.22.13.26.22.04h1.32c.11.01.34-.17.41-.26.6-.73,2.22.2,2.64.7Z"/>
        <path class="cls-20" d="M82.97,136.99c-.12,2-.5.34-.51,3.48,0,.82,1.6-.04,2.22-.1l3.71-.36c1.04-.1,1.99-.34,2.88-.88l3.1-.08,3.72.02,2.71.33c.59.07,1.43.45,1.96.74.39.48.86.75,1.45.83.41.06,1.05-.32,1.44-.64l.74-.61c.02.61.04,1.25.28,1.77v.18c-.53-.07-1.2,2.06-5.69,1.75-5.44-.37-10.62-.64-16.11-.29-1.28.08-3.43.09-4.54.03-.05,0-.14,0-.21.02-.13-.86,1.66-.77,1.78-2.01.05-.55-.35-1.35-.96-1.42-.28-.04-.82.31-1.04.45l.64-1.75c.56-.58,1.7-1.61,2.43-1.46ZM101.34,143.06v-1.25c0-.2-.03-.51-.08-.67-.03-.12-.5-.03-.54.08l-.68,1.64,1.29.19ZM99.01,141.94c-.05-.23-.15-.68-.31-.68-.12,0-.46.1-.56.19l-1.29,1.19,2.23.27c.17.02.43.07.55.1.92.18-.49-.51-.62-1.07Z"/>
        <path class="cls-17" d="M84.67,140.36c-.61.06-2.22.92-2.22.1.01-3.13.39-1.48.51-3.48.21.04.6-.11,1.04-.35l-1.27-.19v-.39c.96-.42,2.07-.66,3.24-.72.74-.04,1.01.53,1.18,1.13.16.57.46,1.41.56,1.98.13.76-2.56.66-3.04,1.91Z"/>
        <path class="cls-20" d="M122.12,119.54c-.63,1.43-2.14,2.71-3.91,2.43l-1.43.79c-1.1-.2-2.36-.36-3.46-.05-.36.1-.98.35-1.13.1l-.72-1.27c.39.19,1.27.44,1.73.56l3.19-.9,1.8-.59c.91-.3,2.04-.37,2.85-.88.28-.04.83-.06,1.08-.18Z"/>
        <path class="cls-20" d="M79.21,132.13l1.27,1.78c-1.22.05-2.17.07-2.99.4h-.22c-.29,0-.8.11-1.09.18-.13-.39.05-1.11,0-1.49.74-.26,2.26-.72,3.03-.88Z"/>
        <path class="cls-6" d="M77.87,135.56c-.01.08-.03.21-.03.28-1.01.3-3.73,3.33-2.79,3.99l-.26.36c-.14-.47-.24-.92-.39-1.13-.34-.46-1.44-.16-1.46-.3l-.04-.28h.46s.21-.23.21-.23c.5-.2,1.32-.92,1.6-1.42l.56-.97.2.1c.5-.28,1.44-.5,1.92-.41Z"/>
        <path class="cls-25" d="M77.49,134.31c.82-.33,1.77-.35,2.99-.4l-1.27-1.78c.07-.01.2,0,.28,0,1.57,2.44,2.11,1.68,3.03,1.77,2.14.2,5.68.93,7.17,2.38-2.34-.89-4.96-2.04-7.59-2.01l-4.6.05Z"/>
        <path class="cls-12" d="M125.57,117.95l.26.26c.46,2.72.13,6.61-.4,9.35h-.28s.28-1.73.28-1.73c.09-.59.22-1.37.22-1.93l-.07-5.73c-.54.17-1.15.32-1.58.52v-.19c.48-.12,1.05-.54,1.58-.54Z"/>
        <path class="cls-23" d="M83.16,124.73c-.24.61-.58,1.2-.93,1.75-.29-.38-.41-1-.38-1.53.39-.25,1-.48,1.32-.23Z"/>
        <path class="cls-25" d="M106.67,141.49c-.23-.52-.26-1.17-.28-1.77,0-.05.03-.14.01-.19h.25c.05.26.25.75.2,1.02l-.18.95Z"/>
        <path class="cls-14" d="M106.65,139.54h-.25c-.08-.31-.29-.88-.45-1.22l-.19-.41c-.04-.08.29-.21.34-.13.58.75.53,1.71.54,1.76Z"/>
        <path class="cls-25" d="M80.09,135.36c-.07.08-.3.27-.41.27h-1.1c.39-.37,1.03-.5,1.51-.27Z"/>
        <path class="cls-25" d="M77.27,134.31c-.27.27-.7.42-1.11.44v-.26c.31-.08.81-.18,1.11-.18Z"/>
        <path class="cls-12" d="M103.61,134.97c.14.01.42.15.46.28l.12.38c-.37-.32-.5-.47-.58-.67Z"/>
        <path class="cls-14" d="M105.35,137.14h.22c.08.12.28.45.15.41-.08-.03-.36.02-.36-.07v-.34Z"/>
        <path class="cls-4" d="M103.61,134.97c-.32-.03-.64-.43-.64-.86l.64.86Z"/>
        <path class="cls-12" d="M105.57,137.14h-.22l-1.07-1.25c.54.28.96.73,1.28,1.25Z"/>
        <path class="cls-25" d="M78.14,135.58l.22.04c-.09.22-.13.18-.22-.04Z"/>
        <path class="cls-17" d="M129.56,116.65c.26,1.2.17,2.35-.03,3.73l.52-.74c.59.44,1.2,1.35,1.09,2.17-.16,1.22-.97,2.09-2.1,2.75-.08-.34-.17-.72-.18-.92l-.08-1.56-.31,1.02c-.03.11.08.44.12.54.04.54.36,1.59.26,2.13-.3,1.66-2.13,2.18-3.43,1.78.53-2.73.87-6.63.4-9.35.07-.11.35-.43.5-.52l2.18-1.31c.24-.15.88.12,1.05.28Z"/>
        <path class="cls-16" d="M76.19,141.93l-.2.71c.61.15-3.48-.52-2.62-1.21l.32-.26c.33-.27.7-.69.99-1.04l.1,2.16,1.41-.36Z"/>
        <path class="cls-25" d="M82.97,136.99c-.72-.15-1.87.88-2.43,1.46.1-.27.34-.74.56-.89l1.63-1.11,1.27.19c-.44.24-.83.39-1.04.35Z"/>
        <path class="cls-25" d="M80.54,138.45l-.64,1.75-.4.25c.05-.96.49-1.44,1.03-2.01Z"/>
        <path class="cls-21" d="M99.01,141.94c.13.56,1.54,1.25.62,1.07-.12-.02-.39-.08-.55-.1l-2.23-.27,1.29-1.19c.1-.09.44-.19.56-.19.16,0,.26.44.31.68Z"/>
        <path class="cls-21" d="M101.34,143.06l-1.29-.19.68-1.64c.05-.11.51-.2.54-.08.04.16.08.47.08.67v1.25Z"/>
        <path class="cls-17" d="M77.87,136.23l.66.9c.11.15.61.28.61.45l.03.94c.02.62-.41,2.11-1.2,1.62-.41-.26-.7-.51-1.14-.54-.38-.13-.94-.51-1.23-.26-.61-.87,1.39-2.99,2.27-3.11Z"/>
        <path class="cls-25" d="M77.84,135.84l.03.39c-.88.11-2.88,2.23-2.27,3.11l-.55.49c-.95-.66,1.77-3.69,2.79-3.99Z"/>
        <path class="cls-14" d="M73.37,138.47c.05-.06.14-.19.21-.21l-.21.21Z"/>
        <path class="cls-12" d="M128.86,123.65h-.27c-.04-.1-.16-.43-.12-.54l.31-1.02.08,1.56Z"/>
      </g>
      <path class="cls-25" d="M48.53,138.47c.25-1.23,1.19-2.34,2.19-3.07.36-.15,3.02-.85,2.61-.02-3.79-.32-3.86,1.91-4.8,3.09Z"/>
      <path class="cls-25" d="M56.82,136.72l-2.02.05,2-.51c.08.03.39.16.39.16-.01,0,0,.26,0,.34,0,.07-.28-.04-.37-.04Z"/>
      <path class="cls-12" d="M52.33,133.81l.57.04c-.28.06-.78.21-1.09.26.1-.1.36-.31.52-.3Z"/>
      <path class="cls-25" d="M53.34,138.03l-.24-.02.78-.81c.03-.14.37.24.27.29-.42.26-.69.41-.81.54Z"/>
      <circle class="cls-25" cx="54.53" cy="137.03" r=".11"/>
      <path class="cls-20" d="M68.79,137.96l-.19.23c-.05.06-.26.01-.27-.06l-.03-.3.48.13Z"/>
      <path class="cls-25" d="M39.44,131.7l-.43.44c-.23.08-.81.39-.91.65l.85-1.32c.88-.39,1.79-.66,2.95-.94,1.48,1.3-.92-.43-2.46,1.16Z"/>
      <path class="cls-4" d="M38.49,129.48c0,.14-.04.41-.02.54l-1.51-.16c.56-.21,1.02-.33,1.54-.38Z"/>
      <path class="cls-12" d="M47.89,136.49c.04-.21.3-.49.44-.65l-.44.65Z"/>
      <path class="cls-17" d="M35.96,131.03c.76.49.08,1.63.82,2.17l.63.45-.23.7c-.39-.21-1.05-.68-1.25-1.02-.08-.14.24-.76.09-.8l-.74-.19c-.12-.03-.44,0-.43-.09v-.34c.27-.28.87-.65,1.13-.89Z"/>
      <path class="cls-3" d="M35.07,135.62s-.6-.14-.6-.29c-.01-.4.08-1.26.18-1.63l.47-.04c.23-.02.77,1.6-.04,1.96Z"/>
      <path class="cls-25" d="M35.96,131.03c-.26.24-.86.61-1.13.89.32-.68,1.31-1.95,2.09-1.92-.51.21-.71.79-.97,1.03Z"/>
    </g>
    <g>
      <path class="cls-3" d="M129.78,116.49l-.21.17c-.17-.16-.81-.42-1.05-.28l-2.18,1.31c-.15.09-.43.41-.5.52l-.26-.26c.91-.62-.08-7.19-1.41-7.36l-3.22,1.71c.57,1.5,1.06,2.87,1.15,4.36l.14,2.28,1.75-.45v.19s-1.86.86-1.86.86c-.25.12-.8.14-1.08.18l.77-.62c.24-1.7-.12-5.13-1.21-6.63l-3.55,1.32c.42,1.03,1.09,2.34,1.11,3.5l.05,3.16,2.82-.74c-.8.51-1.94.59-2.85.88-.06-.04-.22-.14-.22-.22,0-.54.05-1.61,0-2.18-.04-.46-.16-1.12-.26-1.57-.18-.81-.52-3.01-1.47-2.67l-2.9,1.03-3.89.85-2.86.54c-.22.04-.52.1-.66.14-.18.05-.16.5-.25.81-.04-.05-.22-.69-.38-.67l-1.53.17-1.69.5-2.61.39c-.2.03-.65.36-.67.44-.38-.08-4.98.33-5.69.44l.25-.4,3.08-.31c.78-.08,1.46-.18,2.13-.34.25-.06.65-.16.89-.2l5.82-1.14c2.37-.46,4.74-.96,7.08-1.54l3.2-.79,3.1-1.04c1.32-.44,2.49-1.06,3.74-1.67,1.8-.88,3.4-2.02,4.72-3.41.29-.31.66-.55.59-1.1-.49-3.74-5.53-16.98-6.95-19.27l-.87-1.4c-.22-.36-.46-.94-.62-1.31-.69-1.7-2.15-4.61-3.02-6.06-.09-.15-.18-.49-.25-.65l-.43-.86c-.14-.41-.49-.9-.66-1.29-1.92-4.62-4.67-8.88-7.69-12.98l-3.08-4.18c-.09-.12-3.2-4.03-3.35-3.15l-.19-.19c.48-1.02.78-2.36.45-3.56-.27-.95-1.6-3.05-2.67-2.97-.28-.21-.82.02-.97.34-.97,2.05-1,.68-1.03,2.11l-.66-.06c.55-.81,1.17-1.77,1.18-2.76l.38-.22c.1-.06.09-.38-.02-.41l-.38-.11c-.13-.85-.53-1.83-1.34-2.14l-.03-.24v-.63c.85-.06,1.75,1.88,1.99,3.05.06.32.9.42,1.22.54,2.21.83,3.34,3.25,2.9,5.53-.19.97.18,1.29.76,1.91,3.17,3.36,5.85,7.03,8.4,10.92,2.32,3.54,4.1,7.19,5.98,10.98l4.65,9.33c.56,1.13,1.04,2.25,1.53,3.44l4.01,10.34c.81,2.1,1.32,4.12,1.21,6.47,2.22,1.9,2.8,4.93,1.48,7.61-.24.48-.2,1.31.12,1.72ZM128.93,115.2c1.45-2.21,1.2-5.56-.79-7.2-.41-.34-1.23.59-.96.95.62.85,1.23,1.78,1.35,2.81l.4,3.44ZM126.29,117.1c.59-.32,1.51-.74,1.75-1.17.81-1.46.31-5.74-1.54-6.9l-1.69,1.3c1.22,3.12,1.44,3.46,1.48,6.77Z"/>
      <path class="cls-3" d="M47.89,81.65c-.65.82-3.56,1.08-4.78,1.1l-2.54.04c-.61,1.54-1,2.65-1.44,4.3l2,.29.03,2.88,1.82.39,1.26,1.68,1.9-.16v5.13s-3.57-.08-3.57-.08c-.04-.76-.06-1.18-.14-1.69.22.21.42.61.63,1.03.15.31,1.19.15,1.55.12h.67c.06,0,.24-.2.24-.26l-.02-1.73.08-1.96-1.54-.17c-.75-.08-.95-2.1-2.9-1.52l.02,3,.85,1.07-.19.05c-.33,0-.89.38-.89.8l.02,2.82c0,.19.52.44.65.47,1.12,1.03.81-.43,2.47,1.66l2.3,2.9c.47,7.94-.8,5.93-2.85,8.93-.2.3-.79.63-1.07.64-.36-.14-.99-.25-1.45-.2l.02,2.98-2.05.03c-.31,1.9,1.03,3.18,1.72,4.61,1.42,2.96,3.27,6.11,6.15,7.99,1.76,1.15,7.71,1.36,8.08,1.16.39-.21.7-3.22,2.79-3.76-.98.83-1.64,1.78-1.99,3.12-.47,1.76-.56,2.33,1.12,3.6l.25-2.34c.11-1.05.85-2.11,1.5-2.84l-.76,1.46c-.6,1.16-.55,2.68-.48,4.04l3.42,1.3c.26-1.14.26-3.93,1.28-4.41l-.86,3.33c-.08.3-.15,1.03.03,1.23.71.8,2.77,1.24,2.4,1.09l1.12.45c1.25.51,2.46.88,3.87,1.16,1.15-.9,2.89-5.97,1.85-6.33l-3.27-1.14c-.4.76-.37,1.5-.57,2.18l-.22-.22c.04-.32.13-.8.26-1.09.1-.21.21-.81.03-1l-3.64-1.44-.63.92.24-1.06-2.82-1.15c-.29-.12-.91.28-1.11.48l.33-.66-.9-.67.23-.25c.29.09.63.22.98.36l6.36,2.6c1.98.81,8.4,3.09,10.33,2.94l.75-.84h.28c-.46.73-1.03,1-.9,1.95-.48.17-.53-1.58-2.2-.91l-.33,2.76c-.11.94-.95,2.3-1.63,2.7l.86-1.59c.42-.77.83-3.42.49-4.03-.62-.28-1.49-.46-2.31-.58-.03,2-.56,3.81-1.51,5.48-.07.13-.28.6-.16.65l.56.26c.62.28,1.38.36,1.85,0-.16.2-.4.41-.63.53l-2.39-.32-.48-.13c-.07-.01-.17-.03-.23-.05-3.33-.91-4.9-1.72-7.98-2.81l-3.07-1.59c-.42-.22-1.09-.7-1.51-.58l-.74-2.45c-.8,0-1.68.05-2.65.18.13,1.37.32,2.31.76,3.33l-.57-.04-.18-1.33-.21-1.57c-.03-.23-.38-.52-.6-.54l-2.63-.24c.02.92.06,1.55.29,2.19l-.18.5-.57-2.66c-.05-.23-.38-.48-.6-.55l-1.46-.4.17,1.38-.2.24-.21-1.08c-.05-.27-.72-.44-1.01-.5l-1.62-.36-.66-.48.66.02.36.29c.13.1.32-.43.29-.52.1-1.49-.66-2.25-1.66-3.45,0,.75.01,1.28.06,1.96l.12,1.72c-.18-.04-.53-.11-.69-.18.68-.3.5-4.12-.42-4.9-.68.49-.86,1.05-.91,1.85l-.17,2.4c0,.07-.15.15-.2.21l-.45.05h-.14c.12-1.78.52-3.53,1.25-5.25-.57-1.36-1.46-2.62-1.87-3.99l-1.93-6.36c-.67-2.23-.69-4.55-.89-6.86-.16-1.89-.24-3.64-.06-5.41h.35c.04.29.15.83.13,1.1-.06.94-.47,4.87,1.25,4.72.27.71.5,1.64.59,2.37-.52-.42-.91-1.08-1.24-1.77l-.17-.35c-.74-1.55.27,4.85.48,5.7.08.32.98.5,1.32.5l.07-2.14c.02-.49-.21-1.21-.47-1.94l.41-.07v-4.07c.02-.48-.5-1.45-.86-1.77l.84.28.05-1.75h.22l.07,3.43.05,7.13v4.16s1.58.08,1.58.08v-4.38c-.01-.08.08-.41.17-.41h.32s0,1.7,0,1.7c2.19.7,3.09-1.64,4.74-3.12l-.1-5.55c-1.92-1.65-1.83-3.56-4.42-3.75l-.14-.18c-.04-.06-.27.09-.33.13-.09.07.13.3.19.32,0,.07.02.16.02.22l.02,1.11c0,.5-.13,1.39.07,1.89s1.38.89,1.47,1.47c.26,1.8.36,3.7-1.53,4.26-.18-.04-.51-.41-.51-.62v-3.11s0-8.06,0-8.06l-.06-9.43c-.37-.21-1.13-.24-1.57-.16-.15-.18-.39-.36-.61-.46l1.37-4.01c.15-.43.23-.83.19-1.21l.13-.39c.9.71,2.35.68,3.44.66l.22-.22c.82.02,1.62-.1,2.48-.29l1.65-.36ZM42.27,106.25c-.06-.85-.26-1.69-1.27-2.17l-.09,3.7c.9.08,1.42-.69,1.36-1.53ZM44.63,127.68c0-.06-.05-.11-.11-.11s-.11.05-.11.11.05.11.11.11.11-.05.11-.11ZM44.81,127.82l-.36.31.93,1.09.36-.31-.93-1.09Z"/>
      <path class="cls-5" d="M36.29,96.89l.07-.88c.06.02.34.26.28.36l-.34.52Z"/>
      <path class="cls-23" d="M79.01,67.72l-1.74.87-.31-.02c.21.01-.83-2.26-.78-2.16-.32-.73-.62-1.45-1.05-2.18.16.84.69,1.56,1.05,2.18l.4,2.16-.61.68c-1.46.12-1.35.49-3.22.48l-.47-.69c-.57-1.85-1.26-2.25-1.35-3.47.12-.03.32-.18.44-.25.3-.05.65-.16,1-.34l1.69-.88c.19-.1.89.01.9.01.68-1.03.76-.53,2.32-1.62l1.38-.34c.19-.05.58.2.75.31l-.1-.46c-.02-.07.19-.15.27-.22l.75-.64c.12-.04.32-.15.44-.21,1.23-.08,2.36-1.35,3.36-.94.18-.31.51-.78.77-.92l.88-.49,2.37-1.34c1.18.8,2.55,4.28,2.08,5.39-.39.45-1.47.77-2.05,1.01l-2.44.98c.02-1.22,0-2.08-.48-2.85l-.77-1.23c.56,1.41,1.1,2.78,1.05,4.18l-4.62,1.92c-.07-.85.03-2.13-.41-2.72l-1.01-1.36,1.28,3.09c.08.2.06.84-.07,1.01-.49.66-1.39.45-1.67,1.07Z"/>
      <path class="cls-23" d="M114.92,75.81c.16.39.52.89.66,1.29v.81c0,.06.3.24.33.19l.1-.15c.08.16.16.5.25.65-.74.73.41.87.43,3.3.02,1.34,1.25-.13,1.85,2.43.12.12.59.3.74.34.15.38.39.96.62,1.31l-.27.05c-.07.01-.06.31-.03.37,1.13,2.68-.15,1.79.41,3.11-.43.55-.84,1.57-.14,2.2l1.15.29c.13.03.25.54.11.54h-.6c-.3-.02-.94.31-.8.5.93.18,2.41.49,2.76,1.52l.44,1.32c.24.72-.14,2.05-.06,2.78,2.27,1.47.4,1.29,2.64,2.46.99.52.11,2.74.71,4.23.79.66,1.02,1.48.92,2.4-1.32,1.39-2.92,2.54-4.72,3.41-1.25.61-2.43,1.23-3.74,1.67l-3.1,1.04-3.2.79c.25-.64,1.55-.5,1.88-1.02.25-.4.95-1.72,1.05-2.11.16-.6-1.22.74-2.74-.62-.58-.52-1.34.66-1.45.57l-.42-.34c-.1-.08-.35-.21-.45-.26s-.12.47-.19.56c-.55.75-2.4,1.17-2.97.36-.29-.42-.54-.76-.88-1.03-1.77-1.43-2.12-1-3.53-.93-.72.03-2.83-.49-2.87.11-.04.64.49.98.19,1.04l-.48.1-1.07.22c-.64.13-1.66-.03-2.37.04-.6.06-1.03.21-1.49-.21-.56-.51-1.33-.5-2.03-.72-.44-.14-.96-.65-1.57-.59-.65.07-1.01.24-1.44.71l-.84-.7-1.48,1.15.02-1.23c0-.17-.8-.05-.83.12l-.2.91-.22.98c-.05.22-.59.26-.91.36-.87.29-.31.73-1.06.81,1.21-3.94,1.92-7.92,2.11-12.16l.25-5.42c2.17-2.44,4.82-6.91,3.81-10.07l-.2,1.88c-.27,2.83-1.6,5.08-3.39,7.38l-.02-6.37c0-.44-.22-1.16-.37-1.69-.38.39-.1.83-.08,1.28.06,1.64.1,3.3,0,4.95l-.31,5.65c-.44,7.97-.36,8.29-2.84,15.91-1.1,3.38-1.95,6.74-3.3,10.03-.95,2.32-2.17,4.42-2.91,6.72l-.75.84c-1.92.15-8.35-2.13-10.33-2.94l-6.36-2.6c-.35-.14-.69-.27-.98-.36-.17-1.6-.09-3.24.16-4.96l1.95-13.48-1.96-7.63c-.57-2.24-.97-4.44-1.14-6.76l-.22-3.03c-.09-1.28-.19-2.47,0-3.74.42-2.82,1.73-6.73,3.28-8.96l1.32-1.89c.42-.24,1.07-.91,1.36-1.36.4-.3.77-.62,1.09-1.01.35-.22.71-.45,1.03-.69l.26-.2c.34,0,.71-.18.87-.44.79-.06,1.46-.9,4.2-1.48,1.93-.41,3.18-.68,5.15-.53l2.7.21c.38.07.4.04-.01-.28l-2.59-.2c.04-.11.08-.26.13-.32.56-.05.93-.28,1.3-.66.66.04,1.23-.52,1.74-.87,1.32-.48,2.64-1.04,4.04-1.63l7.38-3.11c1.23-.52,2.38-1.2,3.6-1.84,2.14-1.14,4.15-2.73,5.63-4.51.14-.1.34-.32.47-.44.15-.14.48-.33.68-.43.01.61,1.67,1.27,1.89,2.38.07.37-.16,1.02.02,1.24.85,1.05,1.32-.11,2.33,1.23l1.34,1.75c.6.79,1.42,2.19,1.38,3.13-.05,1.15,1.22,1.07,1.7,1.62.79.89,1.51,2.09,2.02,3.18l1.22,2.65c-.16.33-.44.87-.42,1.16.01.31.47.75.82.83,1.54.32.48.57,1.67,1.06.06.03.08-.05.13-.16Z"/>
      <path class="cls-23" d="M67.26,68.81l.16.22c.12.29.3.62.49.86l.23.92-1.33.68c-.14.07-.35.25-.42.37-.34.02-.71.14-.87.44l-.26.2-1.01-.04-.02.74c-.41.25-.83.62-1.09,1.01-.47.36-1.03.88-1.36,1.36-.15.09-.55.28-.66.15s-.29-.42-.37-.59c-.52-1.18-.83-2.46-.9-3.75.66-.49,1.59-1.05,2.41-1.3l.92-.28c.07.07.28.28.25.26.23-.36.56-.72.89-.89l1.9-.98c.18-.09.73-.27.8-.09l.25.73ZM64.25,71.85c0-.08-.06-.14-.14-.14s-.14.06-.14.14.06.14.14.14.14-.06.14-.14Z"/>
      <path class="cls-13" d="M92.97,54.43l.2.2.42.46.22.22.18.24c.23.56.75,1.62,1.12,2.16l.15.87c0,.07.02.16.02.22l.04.93c-.45.93-3.34,2.17-4.56,2.65-.44-3.59-1.34-3.17-2.42-5.59l2.6-1.71,1.15-.67c.19-.11.7-.14.86.01Z"/>
      <path class="cls-5" d="M95.31,51.58c.16.36.49.6.87.97,1.44,1.42,1.82,3.43,2.85,3.69l.06.23c-.75,1.35-2.15,2.57-3.52,3.27.02-.33-.06-.81-.26-.95,0-.05-.02-.15-.02-.22.04-.3,0-.66-.15-.87-.37-.54-.9-1.59-1.12-2.16-.03-.07-.13-.19-.18-.24l-.22-.22c-.08-.17-.26-.37-.42-.46l-.2-.2.19-.86c.32-.25.63-.56.86-.88.06-.05.16-.16.22-.21l.44-.08c.06-.01-.13-.13-.18-.16.26-.23.54-.46.81-.66Z"/>
      <path class="cls-13" d="M100.62,55.3c-.12.26-.5.65-.71.89-.2-.14-.36-.47-.49-.8l-.56-1.4.28,1.82c.01.09-.1.43-.12.44-1.03-.26-1.4-2.27-2.85-3.69-.38-.37-.71-.61-.87-.97l.43-.43.66.06,1.98,2.14.32.69c.05-.21.12-.48.13-.56.02-.12-.39-.1-.45-.13l.03-.74c.01-.31,1.36.11,1.66-.75.15-.44-1.46-1.74-1.67-3.09,1.06-.08,2.4,2.02,2.67,2.97.34,1.2.03,2.54-.45,3.56Z"/>
      <path class="cls-7" d="M75.97,69.25c-.05.06-.09.21-.13.32l2.59.2c.41.31.4.34.01.28l-2.7-.21c-1.97-.15-3.21.12-5.15.53-2.74.58-3.42,1.42-4.2,1.48.07-.11.29-.3.42-.37l1.33-.68-.23-.92.62.78,2.27-.82,1.49.06c.02-.3.05-.68,0-.86l.47.69c1.87,0,1.76-.37,3.22-.48Z"/>
      <path class="cls-7" d="M65.26,72.49c-.32.24-.68.48-1.03.69l.02-.74,1.01.04Z"/>
      <path class="cls-7" d="M61.78,75.55c.33-.48.9-1,1.36-1.36-.29.44-.94,1.11-1.36,1.36Z"/>
      <path class="cls-7" d="M77.27,68.59c-.37.38-.74.62-1.3.66l.61-.68-.4-2.16c-.05-.11.99,2.17.78,2.16l.31.02Z"/>
      <path class="cls-7" d="M99.66,56.62c-1.48,1.78-3.49,3.37-5.63,4.51-1.21.64-2.36,1.32-3.6,1.84l-7.38,3.11c-1.4.59-2.72,1.15-4.04,1.63.28-.62,1.18-.41,1.67-1.07.13-.18.16-.81.07-1.01l-1.28-3.09,1.01,1.36c.44.59.34,1.87.41,2.72l4.62-1.92c.05-1.4-.49-2.78-1.05-4.18l.77,1.23c.48.77.5,1.63.48,2.85l2.44-.98c.58-.23,1.66-.56,2.05-1.01.47-1.11-.89-4.59-2.08-5.39l-2.37,1.34v-.22l2.6-1.57c1.08,2.42,1.98,2,2.42,5.59,1.21-.48,4.11-1.72,4.56-2.65h.21c1.37-.69,2.77-1.91,3.52-3.26l.5-.05c.07,0,.06.09.08.2Z"/>
      <path class="cls-7" d="M65.26,72.49l.26-.2-.26.2Z"/>
      <path class="cls-7" d="M64.23,73.18c-.32.39-.69.71-1.09,1.01.26-.4.68-.76,1.09-1.01Z"/>
      <path class="cls-7" d="M66.39,71.85c-.16.25-.53.44-.87.44.16-.29.53-.41.87-.44Z"/>
      <path class="cls-7" d="M79.01,67.72c-.51.35-1.08.91-1.74.87l1.74-.87Z"/>
      <path class="cls-7" d="M61.78,75.55l-1.32,1.89c-1.56,2.23-2.87,6.14-3.28,8.96-.19,1.27-.09,2.46,0,3.74l.22,3.03c.16,2.31.56,4.52,1.14,6.76l1.96,7.63-1.95,13.48c-.25,1.73-.34,3.36-.16,4.96l-.23.25-.44-.02c.14-2.71.14-3.83.58-6.76l1.45-9.69c.12-.77.37-1.94.18-2.64l-1.54-5.9c-.8-3.06-1.24-6.06-1.47-9.22-.45-6.25.15-9.24,3.22-14.68.07-.12.06-.47,0-.51v-.21s.77-.51.77-.51l-.39-.98h.23c.08.16.25.46.37.59s.51-.07.66-.15Z"/>
      <path class="cls-5" d="M98.59,117.55c-.67.16-1.35.26-2.13.34l-3.08.31-.25.4c-2.61.41-5.05,1.48-7.13,3.09l-2.24,1.73c-.78.6-1.76,1.05-2.56,1.53-.33.04-.86.28-1.16.45-.03.03-.07-.32-.02-.45l2.04-5.41c-.03.42,1.72-.56,2.92-.58l.37-2.22c.06-.37.41-1,.58-1.52.34-1.02,2.07-.95,2.2-.85.46.37.02.47.8,1.02.27.19.4-1.1.66-.9l.45.35c.1.08.33.39.41.3l.29-.32c.13-.14.38-.35.51-.28.1.05.39.33.49.37l1.7.5c.93-.52,3.26-1.34,3.94,0l1.28-.34c.19.92.19,1.68-.06,2.45Z"/>
      <path class="cls-8" d="M117.97,120.39c0,.08.16.18.22.22l-1.8.59-3.19.9c-.46-.12-1.34-.37-1.73-.56-2.06-.99-6.47-2.46-8.74-2.64-.07-.25-.24-.52-.44-.69,0-.13-.13-.35-.2-.44v-.43s1.68-.5,1.68-.5l1.53-.17c.15-.02.34.62.38.67.08-.31.07-.76.25-.81.14-.04.44-.1.66-.14l2.86-.54c.06.17.21.47.25.64.18.83.42,2.46.56,3.54.5-.89.99-1.6,2.12-1.77.52-.08.9.06,1.64.35l-.18-.86-.21-2c.84,1.62.93,3.51,1.07,5.57l2.5-.63c.2-.05.63-.25.77-.31Z"/>
      <path class="cls-7" d="M84.04,112.97c-.13.41-.25.93-.33,1.34-.45.77-.74,1.68-.79,2.58-.47.79-.76,1.75-.86,2.66l-2.04,5.41c-.05.13,0,.49.02.45v.2c-1.99.95-.75,4.57-.14,6.08l-.38.21c-.11-.17-.38-.67-.42-.9l-.46-2.9c-.58,1.09-1,2.07-1.56,2.97h-.28c.74-2.3,1.96-4.4,2.91-6.72,1.35-3.29,2.2-6.65,3.3-10.03,2.48-7.63,2.41-7.94,2.84-15.91l.31-5.65c.09-1.66.05-3.31,0-4.95-.02-.45-.3-.89.08-1.28.14.53.37,1.25.37,1.69l.02,6.37c1.79-2.31,3.13-4.55,3.39-7.38l.2-1.88c1,3.16-1.64,7.63-3.81,10.07l-.25,5.42c-.19,4.24-.91,8.22-2.11,12.16Z"/>
      <path class="cls-23" d="M76.18,133.01c.05.38-.13,1.1,0,1.49v.26c-.19.35-.33.74-.43,1.12l-.56.97c-.29.49-1.1,1.21-1.6,1.42-.07.03-.16.15-.21.21h-.46s-.67.05-.67.05c-.27.01-.79-.19-1.06-.23.23-.13.47-.33.63-.53.05-.05.15-.15.21-.19.68-.41,1.52-1.76,1.63-2.7l.33-2.76c1.67-.67,1.72,1.08,2.2.91Z"/>
      <path class="cls-13" d="M81.81,127.75l-1.02,3.19c-.1.31-.62.68-.9.74-.61-1.5-1.84-5.13.16-6.08.39-.19.83-.33,1.37-.51l.39,2.66Z"/>
      <path class="cls-5" d="M79.51,131.89l-.03.24c-.08,0-.21-.02-.28,0-.77.16-2.28.62-3.03.88-.13-.94.44-1.22.9-1.95.56-.9.98-1.88,1.56-2.97l.46,2.9c.04.23.3.73.42.9Z"/>
      <path class="cls-23" d="M102.09,117.34v.43c0,.13.11.35.21.44v.65l-3.49-.69c.02-.08.46-.41.67-.44l2.61-.39Z"/>
      <path class="cls-3" d="M81.19,124.96c.16-.02.47,0,.65,0-.02.53.09,1.14.38,1.53l-.41,1.27-.39-2.66c-.54.18-.98.33-1.37.51v-.2c.28-.17.81-.41,1.14-.45Z"/>
      <path class="cls-18" d="M112.37,114.67c-2.34.58-4.71,1.08-7.08,1.54-.07-.22-.16-.49-.25-.66-.26-.48-1.38.37-1.85.2-1.63-.59-3.88.83-3.71,1.6-.24.05-.64.14-.89.2.25-.77.25-1.54.06-2.45l-1.28.34c-.68-1.35-3.01-.53-3.94,0l-1.7-.5c-.11-.03-.39-.31-.49-.37-.13-.07-.39.14-.51.28l-.29.32c-.08.09-.3-.22-.41-.3l-.45-.35c-.26-.2-.39,1.09-.66.9-.78-.55-.34-.65-.8-1.02-.13-.1-1.86-.17-2.2.85-.17.52-.52,1.15-.58,1.52l-.37,2.22c-1.2.02-2.95,1-2.92.58.1-.92.39-1.87.86-2.66.31-.15.74-.4,1.05-.69.59-.54.26-1.48-.26-1.88.08-.4.2-.93.33-1.34.75-.08.19-.52,1.06-.81.32-.11.86-.15.91-.36l.22-.98.2-.91c.04-.17.84-.29.83-.12l-.02,1.23,1.48-1.15.84.7c.42-.47.79-.65,1.44-.71.61-.06,1.13.45,1.57.59.7.22,1.47.2,2.03.72.46.42.89.27,1.49.21.71-.07,1.73.09,2.37-.04l1.07-.22.48-.1c.3-.06-.23-.4-.19-1.04.04-.6,2.16-.08,2.87-.11,1.4-.06,1.76-.5,3.53.93.34.27.59.61.88,1.03.57.81,2.42.39,2.97-.36.07-.09.09-.61.19-.56s.35.17.45.26l.42.34c.11.09.87-1.09,1.45-.57,1.52,1.36,2.9.02,2.74.62-.1.39-.8,1.7-1.05,2.11-.33.52-1.62.38-1.88,1.02Z"/>
      <path class="cls-13" d="M119.9,85.98l.87,1.4c1.42,2.29,6.46,15.52,6.95,19.27.07.55-.29.79-.59,1.1.11-.92-.13-1.74-.92-2.4-.6-1.48.28-3.71-.71-4.23-2.23-1.16-.36-.99-2.64-2.46-.08-.73.3-2.05.06-2.78l-.44-1.32c-.34-1.03-1.82-1.34-2.76-1.52-.14-.19.51-.52.8-.52h.6c.14.02.02-.49-.11-.53l-1.15-.29c-.69-.62-.29-1.64.14-2.2-.56-1.32.72-.42-.41-3.11-.03-.07-.04-.36.03-.37l.27-.05Z"/>
      <path class="cls-18" d="M125.57,117.95c-.53,0-1.1.42-1.58.54l-1.75.45-.14-2.28c-.09-1.49-.59-2.86-1.15-4.36l3.22-1.71c1.33.17,2.32,6.74,1.41,7.36Z"/>
      <path class="cls-5" d="M121.03,119.72l-2.82.74-.05-3.16c-.02-1.16-.69-2.46-1.11-3.5l3.55-1.32c1.09,1.5,1.45,4.93,1.21,6.63l-.77.62Z"/>
      <path class="cls-23" d="M117.71,116.64c-.36-.04-1.05.27-1.05.61-.02.89.76,1.03,1.31.97.05.57,0,1.63,0,2.18-.14.06-.57.26-.77.31l-2.5.63c-.15-2.06-.24-3.96-1.07-5.57-.1-.19-.22-.53-.29-.75l2.9-1.03c.95-.34,1.29,1.86,1.47,2.67Z"/>
      <path class="cls-13" d="M114.92,75.81c-.06.11-.07.18-.13.16-1.2-.49-.13-.75-1.67-1.06-.35-.07-.81-.52-.82-.83s.27-.83.42-1.16l-1.22-2.65c-.5-1.09-1.23-2.3-2.02-3.18-.49-.55-1.75-.46-1.7-1.62.04-.94-.78-2.34-1.38-3.13l-1.34-1.75c-1.01-1.33-1.48-.18-2.33-1.23-.18-.22.05-.87-.02-1.24-.22-1.1-1.88-1.76-1.89-2.38v-.26c.14-.88,3.26,3.03,3.35,3.15l3.08,4.18c3.02,4.1,5.76,8.37,7.69,12.98Z"/>
      <path class="cls-18" d="M126.29,117.1c-.04-3.31-.27-3.65-1.48-6.77l1.69-1.3c1.85,1.16,2.35,5.44,1.54,6.9-.24.43-1.16.85-1.75,1.17Z"/>
      <path class="cls-5" d="M98.38,53.35c.05.03.47,0,.45.13-.01.08-.08.35-.13.56l-.32-.69Z"/>
      <path class="cls-5" d="M98.4,48.77c.22,1.35,1.82,2.65,1.67,3.09-.3.86-1.65.44-1.66.75l-.03.74-1.98-2.14c.03-1.43.06-.06,1.03-2.11.15-.31.69-.55.97-.34Z"/>
      <path class="cls-13" d="M128.93,115.2l-.4-3.44c-.12-1.03-.72-1.96-1.35-2.81-.27-.37.55-1.29.96-.95,1.99,1.64,2.24,4.99.79,7.2Z"/>
      <path class="cls-23" d="M105.3,116.21l-5.82,1.14c-.17-.77,2.09-2.19,3.71-1.6.48.17,1.59-.67,1.85-.2.09.17.18.43.25.66Z"/>
      <path class="cls-13" d="M113.34,115c.07.22.19.55.29.75l.21,2c-.34-.1-.69-.37-.98-.73-1.26-1.57-1.15-.05-3.16-.53-.04-.17-.19-.47-.25-.64l3.89-.85Z"/>
      <path class="cls-13" d="M119.28,84.67c-.15-.04-.62-.22-.74-.34-.6-2.55-1.83-1.08-1.85-2.43-.03-2.43-1.17-2.57-.43-3.3.88,1.45,2.33,4.36,3.02,6.06Z"/>
      <path class="cls-13" d="M116.01,77.96l-.1.15s-.32-.14-.32-.19v-.81s.43.86.43.86Z"/>
      <path class="cls-7" d="M100.81,55.49v.26c-.2.1-.53.29-.68.43h-.22c.21-.24.59-.63.71-.89l.19.19Z"/>
      <path class="cls-18" d="M57.71,126.22c-2.09.54-2.4,3.55-2.79,3.76s-6.32-.01-8.08-1.16c-2.88-1.88-4.73-5.03-6.15-7.99.62-.41-1.22-2.08.98-3.6.16-2.56,1.13-2.83.78-3.83.29-.01.87-.34,1.07-.64,2.05-3,3.31-.98,2.85-8.93l-2.3-2.9c-1.66-2.09-1.35-.64-2.47-1.66.06-.1.28-.56.29-.75l.2-2.4c.02-.22-.25-.8-.27-.93l.19-.05.42.42c.08.51.11.93.14,1.69l3.56.08v-5.13s-1.89.16-1.89.16l-1.26-1.68-1.82-.39-.03-2.88-2-.29c.44-1.65.83-2.76,1.44-4.3l2.54-.04c1.21-.02,4.13-.28,4.78-1.1.06,0,.17,0,.22,0,.73-.14,2.15-.5,2.89-.82l4.42-1.9,2.28-.97,2.43-1.14c.05.04.06.39,0,.51-3.07,5.44-3.67,8.44-3.22,14.68.23,3.16.67,6.16,1.47,9.22l1.54,5.9c.19.71-.06,1.88-.18,2.64l-1.45,9.69c-.44,2.93-.43,4.06-.58,6.76Z"/>
      <path class="cls-13" d="M42.44,113.4c.35,1-.63,1.27-.78,3.83-2.2,1.51-.36,3.19-.98,3.6-.69-1.43-2.03-2.72-1.72-4.61l2.05-.03-.02-2.98c.46-.05,1.08.06,1.45.2Z"/>
      <path class="cls-23" d="M41.8,128.23l-1.5-.65.17-2.4c.06-.81.24-1.36.91-1.85.91.77,1.1,4.6.42,4.9Z"/>
      <path class="cls-23" d="M43.98,128.19l-.66.24-.66-.02s-.13,0-.17,0l-.12-1.72c-.05-.69-.06-1.21-.06-1.96,1.01,1.2,1.76,1.97,1.66,3.45Z"/>
      <path class="cls-13" d="M47.64,129.62c.02.88-.06,1.71-.19,2.7l-.7.03c-.23-.47-.5-.98-.6-1.51l.2-.24-.17-1.38,1.46.4Z"/>
      <rect class="cls-11" x="44.86" y="127.8" width=".48" height="1.44" transform="translate(-72.78 60.29) rotate(-40.6)"/>
      <path class="cls-11" d="M43.98,128.19c.03.09-.17.62-.29.52l-.36-.29.66-.24Z"/>
      <circle class="cls-11" cx="44.52" cy="127.68" r=".11"/>
      <path class="cls-13" d="M41.8,77.9c.05,0,.16.01.22.01.18.12.66.24,1.11.34-.1.65-.36,1.77-.16,2.39l.58,1.87c-1.09.02-2.54.05-3.44-.66-.85-1.21-.67-3.12.33-4.11l1.38.15Z"/>
      <path class="cls-13" d="M47.89,81.18h.22v.47c-.05,0-.16,0-.22,0l-1.65.36c-.86.19-1.66.31-2.48.29l-.47-2.4c-.15-.75.17-1.57.68-1.98h.22c.37-.02.91-.08,1.33-.16l1.47-.27c-.07.9.04,3.67.9,3.69Z"/>
      <path class="cls-13" d="M41.82,95.18c.02.13.29.72.27.93l-.2,2.4c-.02.18-.23.65-.29.75-.13-.03-.65-.27-.65-.47l-.02-2.82c0-.41.56-.8.89-.8Z"/>
      <path class="cls-11" d="M43.98,77.92c-.52.41-.83,1.23-.68,1.98l.47,2.4-.22.22-.58-1.87c-.19-.62.06-1.74.16-2.39-.45-.1-.93-.22-1.11-.34h1.96Z"/>
      <path class="cls-7" d="M95.27,58.58l-.15-.87c.15.21.19.57.15.87Z"/>
      <path class="cls-3" d="M95.55,59.74h-.21s-.04-.95-.04-.95c.2.14.28.62.26.95Z"/>
      <path class="cls-3" d="M93.6,55.1l-.42-.46c.16.09.34.29.42.46Z"/>
      <path class="cls-3" d="M94,55.55l-.18-.24c.05.05.15.17.18.24Z"/>
      <path class="cls-3" d="M99.91,56.18h.22c-.12.12-.33.34-.47.44-.02-.12-.01-.21-.08-.2l-.5.05-.06-.23s.14-.35.12-.44l-.28-1.82.56,1.4c.13.33.29.66.49.8Z"/>
      <path class="cls-3" d="M70.94,65.57c.09,1.22.78,1.62,1.35,3.47-.22-.32-.45-.71-.66-1.13l-.68-1.35c-.15-.3-.53-.57-.86-.59l.21-.23.64-.17Z"/>
      <path class="cls-23" d="M113.84,117.75l.18.86c-.75-.29-1.13-.43-1.64-.35-1.13.17-1.62.88-2.12,1.77-.14-1.08-.37-2.71-.56-3.54,2.01.49,1.89-1.04,3.16.53.29.36.64.64.98.73Z"/>
      <path class="cls-3" d="M102.3,118.21c-.1-.09-.2-.31-.2-.44.07.08.2.31.2.44Z"/>
      <path class="cls-23" d="M82.91,116.88c.05-.9.35-1.81.79-2.58.52.4.84,1.34.26,1.88-.31.29-.74.55-1.05.69Z"/>
      <path class="cls-5" d="M72.02,137.56c-.06.04-.15.14-.21.19-.47.36-1.23.28-1.85,0l-.56-.26c-.12-.06.09-.53.16-.65.94-1.67,1.48-3.48,1.51-5.48.82.13,1.69.3,2.31.58.34.6-.07,3.26-.49,4.03l-.86,1.59Z"/>
      <path class="cls-8" d="M117.71,116.64c.1.45.21,1.11.26,1.57-.55.06-1.33-.08-1.31-.97,0-.34.69-.65,1.05-.61Z"/>
      <path class="cls-23" d="M49,132.33c.57-.06,1.57-.22,2.11-.47.33-.15.28-1.2.24-1.48.22.02.57.3.6.54l.21,1.57.18,1.33c-.16-.01-.42.2-.52.3-.04,0-.14.02-.18,0l-.25-.04c-.48-.5-1.03-.67-1.9-.79l.58,1.24c-.36.14-.77.31-1.14.44-.36-.41-.93-1-1.45-1.16l-.7-1.46.7-.03c.13-.98.22-1.82.19-2.7.23.06.55.32.6.55l.57,2.66.18-.5Z"/>
      <path class="cls-13" d="M55.52,132.79c-.66.44-1.93.9-2.63,1.05-.44-1.02-.64-1.96-.76-3.33.97-.13,1.86-.18,2.65-.18l.74,2.45Z"/>
      <path class="cls-3" d="M60.14,76.6v.21s-2.43,1.14-2.43,1.14l-2.28.97-4.42,1.9c-.75.32-2.16.68-2.89.82v-.46c.78.02,2.64-.6,3.4-.96.36-.17.72-.39,1.1-.53l2.14-.77,1.62-.59c-.16-.37-.29-.79-.42-1.05v-.22l.59,1,3.6-1.47Z"/>
      <g>
        <path class="cls-11" d="M39.02,87.93l-.04,2.86h-.24c-.35-.15-1.13.05-1.2.55l-1.19,8.64h-.35c.1-.98.11-2.17.29-3.1l.34-.52c.07-.1-.21-.34-.28-.36.17-2.17.86-6.69,2.05-8.54.22.1.46.28.61.46Z"/>
        <path class="cls-16" d="M41.16,109.31v1.5s-.32.01-.32.01c-.08,0-.18.33-.18.41v4.38s-1.58-.08-1.58-.08v-4.16s-.04-7.13-.04-7.13l-.07-3.43.1-1.84-.09-8.17.04-2.86c.44-.07,1.2-.04,1.57.16l.06,9.43v8.06s0,3.11,0,3.11c0,.21.33.58.51.62Z"/>
        <path class="cls-10" d="M41.16,110.81v-1.5c1.89-.56,1.79-2.46,1.52-4.26-.08-.57-1.27-.97-1.47-1.47s-.07-1.39-.07-1.89c.18.12.59-.37.49-.55s-.33-.43-.51-.56c0-.05-.01-.15-.02-.22l.28-.27c2.6.19,2.51,2.1,4.42,3.75l.1,5.55c-1.64,1.48-2.55,3.82-4.74,3.12v-1.71Z"/>
        <path class="cls-10" d="M38.74,90.79l-.07,2.86c-.41.11-.76.42-.78.82-.4.99-.53,2.14-.02,3.08.06.11.15.31.22.41l.61.9c.04.62.07,1.39.06,1.94l-.05,1.75-.84-.28-1.38-1.2c.02-.27-.1-.81-.13-1.09l1.19-8.64c.07-.5.85-.7,1.2-.55Z"/>
        <path class="cls-5" d="M37.87,102.27c.36.32.88,1.28.88,1.77v4.07s-.43.07-.43.07c-.09-.73-.32-1.66-.59-2.37-1.72.15-1.31-3.78-1.25-4.72l1.38,1.2Z"/>
        <path class="cls-10" d="M38.32,108.17c.26.73.48,1.45.47,1.94l-.07,2.14c-.35,0-1.24-.18-1.32-.5-.22-.86-1.22-7.25-.48-5.7l.17.35c.33.69.72,1.35,1.24,1.77Z"/>
        <path class="cls-7" d="M38.97,100.8h-.22c.02-.55-.02-1.31-.06-1.94l-.61-.9.7.19-.12-2.16-.72.33-.07,1.23c-.51-.94-.38-2.09.02-3.08.46-.11.77-.38.78-.82l.07-2.86h.24s.09,8.17.09,8.17l-.1,1.84Z"/>
        <path class="cls-10" d="M45.51,94.71c-.78.28-1.37,1.24-.89,1.99-.36.03-1.4.19-1.55-.12-.2-.42-.41-.81-.63-1.03l-.42-.42-.85-1.07-.02-3c1.96-.58,2.16,1.44,2.9,1.52l1.54.17-.08,1.96Z"/>
        <path class="cls-18" d="M42.27,106.25c.06.84-.46,1.6-1.36,1.53l.09-3.7c1.02.48,1.21,1.32,1.27,2.17Z"/>
        <path class="cls-16" d="M45.51,94.71l.02,1.73-.24.25h-.67c-.48-.75.11-1.7.89-1.99Z"/>
        <path class="cls-6" d="M41.14,101.69l-.02-1.11c.17.13.41.38.51.56s-.31.68-.49.55Z"/>
        <path class="cls-6" d="M41.38,100.1l-.28.27c-.06-.02-.28-.24-.19-.32.06-.05.29-.19.33-.13l.14.18Z"/>
        <path class="cls-10" d="M45.28,96.7l.24-.25c0,.06-.18.25-.24.25Z"/>
        <path class="cls-8" d="M38.09,97.96c-.07-.1-.16-.3-.22-.41l.07-1.23.72-.33.12,2.16-.7-.19Z"/>
        <path class="cls-6" d="M38.67,93.65c0,.44-.32.71-.78.82.02-.4.37-.71.78-.82Z"/>
      </g>
      <path class="cls-23" d="M54.42,74.21l.56-.02c.45-.01,0,1.21.97,3.1.13.27.27.68.42,1.05l-1.62.59-2.14.77c-.38.14-.74.36-1.1.53-.76.36-2.62.98-3.4.96h-.22c-.44-.43-.72-2.83-.58-3.6.08-.4,1.04-.65,1.4-.79l2.25-.91.19,1.4c-.06.6.09,1.59.5,2.17l-.39-2.49c-.07-.43-.03-1.13.3-1.31.62-.34.93-.52,1.34-.78.45-.29,1.02-.48,1.51-.68Z"/>
      <path class="cls-18" d="M60.52,75.12l.39.98-.77.51-3.6,1.47-.59-1-.32-1.48c-.16-.73-.23-1.59.4-2.06l.81-.62c.69-.53,1.59-.87,2.38-1.25.66.37.56,1.58,1.31,3.45Z"/>
      <path class="cls-13" d="M70.09,65.98c.33.01.71.29.86.59l.68,1.35c.21.42.44.81.66,1.13.06.18.03.56,0,.86l-1.49-.06c-.15-.32-.52-.58-.9-.86l-2.09-1.53,1.26-.74-.28-.1c.4-.27.85-.49,1.31-.65Z"/>
      <path class="cls-18" d="M70.8,69.85l-2.27.82-.62-.78c-.08-.32-.26-.63-.49-.86l-.16-.22.1-.2-.12-1.1c.48-.34,1.01-.64,1.54-.88l.28.1-1.26.74,2.09,1.53c.38.28.76.53.9.86Z"/>
      <path class="cls-7" d="M56.83,72.92l-.81.62c-.63.47-.55,1.33-.4,2.06l.32,1.48v.22c-.96-1.89-.52-3.11-.97-3.1l-.56.02,1.19-.76c.36-.23.86-.43,1.22-.53Z"/>
      <path class="cls-3" d="M59.85,71.37c.07,1.28.38,2.57.9,3.75h-.23c-.74-1.87-.65-3.07-1.31-3.45l.64-.3Z"/>
      <path class="cls-12" d="M51.37,134.08c-.33.27-.94.29-1.33.44l-.58-1.24c.87.12,1.43.29,1.9.79Z"/>
      <path class="cls-3" d="M76.19,66.41c-.36-.62-.89-1.35-1.05-2.18.43.73.73,1.45,1.05,2.18Z"/>
      <path class="cls-18" d="M63.61,135.82c0-.3.31-.58.64-.85.23-.19.43-.84.59-1.16.5-.98.8-1.8,1.01-2.92l.8-.05c-.13.29-.21.77-.26,1.09-.31.3-.86,2.35-1.03,3.06.52-.93.97-1.86,1.25-2.85.2-.68.17-1.42.57-2.18l3.27,1.14c1.04.36-.7,5.43-1.85,6.33-1.42-.29-2.62-.66-3.87-1.16l-1.12-.45ZM65.33,135.4c0-.08-.06-.14-.14-.14s-.14.06-.14.14.06.14.14.14.14-.06.14-.14Z"/>
      <path class="cls-18" d="M62.42,129.3c0,.06.04.15.01.18-.14,0-.42.17-.21.26l-.18.42c-1.02.48-1.02,3.26-1.28,4.41l-3.42-1.3c-.07-1.36-.12-2.89.48-4.04l.76-1.46c.03-.05.09-.14.14-.18.2-.2.82-.6,1.11-.48l2.82,1.15-.24,1.06Z"/>
      <path class="cls-8" d="M66.65,130.83l-.8.05c-.21,1.13-.51,1.95-1.01,2.92-.17.32-.36.98-.59,1.16-.33.26-.63.54-.64.85.37.15-1.69-.29-2.4-1.09-.18-.2-.11-.94-.03-1.23l.86-3.33.18-.42.21-.26s0-.12-.01-.18l.63-.92,3.64,1.44c.18.19.06.79-.03,1Z"/>
      <path class="cls-13" d="M58.15,126.25l.9.67-.33.66s-.1.13-.14.18c-.65.74-1.39,1.8-1.5,2.84l-.25,2.34c-1.68-1.27-1.58-1.85-1.12-3.6.35-1.33,1.01-2.28,1.99-3.12l.44.02Z"/>
      <path class="cls-11" d="M66.61,132.14c-.28.99-.74,1.91-1.25,2.85.17-.72.72-2.76,1.03-3.06l.22.22Z"/>
      <path class="cls-8" d="M51.34,130.38c.04.27.1,1.33-.24,1.48-.54.25-1.53.41-2.11.47-.23-.64-.27-1.27-.29-2.19l2.63.24Z"/>
      <path class="cls-3" d="M51.16,77.29l.11-.32.39,2.49c-.41-.58-.56-1.57-.5-2.17Z"/>
      <path class="cls-3" d="M67.91,69.88c-.19-.24-.37-.56-.49-.86.23.22.41.54.49.86Z"/>
      <circle class="cls-7" cx="64.11" cy="71.85" r=".14"/>
      <circle class="cls-11" cx="65.2" cy="135.4" r=".14"/>
      <path class="cls-3" d="M62.43,129.49l-.21.26c-.21-.09.07-.27.21-.26Z"/>
    </g>
  </g>
</svg>