<?xml version="1.0" encoding="UTF-8"?>
<svg id="Layer_1" data-name="Layer 1" xmlns="http://www.w3.org/2000/svg" xmlns:xlink="http://www.w3.org/1999/xlink" viewBox="0 0 288.96 288.96">
  <defs>
    <style>
      .cls-1 {
        fill: none;
      }

      .cls-2 {
        fill: #ba0c2f;
      }

      .cls-3 {
        clip-path: url(#clippath);
      }
    </style>
    <clipPath id="clippath">
      <rect class="cls-1" x="38.07" y="246.69" width="212.82" height="27.82"/>
    </clipPath>
  </defs>
  <g class="cls-3">
    <path d="M44.23,247.54h-6.16v15.02c0,7.79,4.25,11.96,11,11.96s10.96-4.21,10.96-12v-14.99h-5.57v14.99c0,4.17-1.85,6.28-5.09,6.28-3.43,0-5.13-2.29-5.13-6.9v-14.36ZM65.76,273.68h5.76v-14.25l16.32,15.24h.55v-27.13h-5.76v14.4l-16.28-15.25h-.59v26.98ZM94.44,273.68h6.24v-26.13h-6.24v26.13ZM112.08,273.68h6.24v-20.67h8.27v-5.46h-22.81v5.46h8.31v20.67ZM129.58,273.68h16.24v-5.5h-10.19v-5.17h8.6v-5.35h-8.6v-4.73h10.04v-5.39h-16.09v26.13Z"/>
    <path class="cls-2" d="M150.63,273.75h6.17v-10.96h10.08v10.96h6.13v-26.13h-6.13v9.6h-10.08v-9.6h-6.17v26.13ZM179.02,273.75h16.24v-5.5h-10.19v-5.17h8.6v-5.35h-8.6v-4.73h10.04v-5.39h-16.09v26.13ZM200.02,273.75h6.05v-10.26h.89l6.98,10.26h7.12l-7.97-11.22c3.17-1.4,4.87-3.95,4.87-7.24,0-2.25-1.11-4.43-3.06-5.83-2.25-1.62-4.83-1.85-8.16-1.85h-6.72v26.13ZM207.11,252.38c3.43,0,5.13.92,5.13,3.54,0,2.36-1.66,3.69-4.84,3.69h-1.33v-7.24h1.03ZM223.53,273.75h16.24v-5.5h-10.19v-5.17h8.6v-5.35h-8.6v-4.73h10.04v-5.39h-16.09v26.13Z"/>
    <path d="M246.08,265.58l1.81.26c1.66-7.97,2.99-14.25,3.03-19.05l-7.12,1c.15,5.39.96,11.3,2.29,17.79M244.08,271.16c0,1.62,1.4,3.06,3.07,3.06s3.06-1.4,3.06-3.06-1.33-3.06-3.06-3.06-3.07,1.36-3.07,3.06"/>
  </g>
  <path class="cls-2" d="M144.38,213.33c50.59.03,92.25-41.35,92.54-91.42.29-51.13-40.34-92.88-91.42-93.46-50.88-.58-93.13,39.99-93.45,91.75-.32,51.56,41.1,93.1,92.32,93.13M144.46,227.17c-58.67.02-106.38-47.6-106.39-106.2,0-59.24,47.58-106.5,107.27-106.51,57.53-.01,105.59,48.12,105.56,105.72-.03,59.35-47.41,106.97-106.43,106.99"/>
  <path class="cls-2" d="M167.59,182.21h32.75v-8.73h-9.52v-12.8h12.12v-8.5h-12.12v-18.24l-10.31,4.19v14.16h-21.87l32.63-41.13-7.48-5.78-39.77,50.54,2.27,4.65h34.22v13.14h-12.92v8.5ZM111.16,174.39c-5.78,0-11.56-1.59-14.39-4.31,1.36-1.02,2.27-2.83,2.27-4.76,0-3.63-2.95-6.57-6.69-6.57-4.08,0-6.91,3.51-6.91,7.82,0,2.49.91,4.87,2.49,7.03,4.19,5.67,13.14,9.74,23.12,9.74,15.18,0,27.08-8.5,27.08-21.08,0-7.71-4.53-13.26-10.65-16.43-2.15-1.13-4.65-2.04-7.03-2.61,2.38-.45,4.87-1.47,6.91-2.72,5.44-3.17,9.07-8.61,9.07-14.84,0-11.45-10.88-19.15-24.59-19.15-10.99,0-18.13,4.31-21.53,9.07-1.59,2.27-2.38,4.53-2.38,6.57,0,4.87,3.4,8.05,6.91,8.05,3.74,0,6.69-3.06,6.69-6.57,0-1.93-1.02-3.63-2.27-4.65,2.27-2.04,6.35-3.51,12.12-3.51,8.05,0,14.5,3.51,14.5,10.42,0,4.42-2.38,8.05-6.46,10.31-3.29,1.93-7.59,2.95-12.58,2.95h-4.19v9.07h3.85c5.21,0,9.52.79,12.92,2.27,5.44,2.27,8.27,6.23,8.27,11.45,0,7.03-7.03,12.46-16.54,12.46"/>
  <path class="cls-2" d="M195.58,92.13c2.73,0,5.12-1.24,6.56-6.17l-2.11-.81c-1.05,2.92-1.96,3.45-2.82,3.45-.77,0-1.1-.43-1.1-1.48,0-.53.14-1.2.34-2.06l6.56-28.34h-9.09l-1.15,4.4h3.92l-5.55,23.98c-.19.81-.29,1.58-.29,2.3,0,2.87,1.48,4.74,4.74,4.74M170.93,87.68c-2.54,0-3.78-1.96-3.78-4.45,0-4.26,2.82-8.18,6.32-8.18,2.78,0,4.12,1.72,4.12,4.45,0,4.5-3.16,8.18-6.65,8.18M168.44,92.13c3.25,0,5.79-2.15,7.51-4.74,0,2.87,1.58,4.74,4.31,4.74,2.3,0,4.98-1.24,6.41-6.17l-2.11-.81c-1.05,2.92-2.06,3.45-2.68,3.45-.72,0-1.05-.43-1.05-1.29,0-.53.14-1.34.38-2.25l3.59-14.26h-4.88l-1.44,4.31c-.86-2.39-3.11-4.69-5.89-4.69-6.08,0-10.91,6.37-10.91,13.59,0,4.88,2.82,8.14,6.75,8.14M149.15,92.13c2.82,0,5.41-.72,7.37-2.06l.05-4.64c-2.15,1.48-4.64,2.35-7.08,2.35-3.06,0-5.5-2.01-5.5-5.55,0-5.31,3.97-7.47,7.04-7.47.96,0,1.87.19,2.49.62-.43.57-.72,1.24-.72,2.01,0,1.68,1.34,3.02,3.02,3.02,2.01,0,3.21-1.72,3.21-3.78,0-3.69-3.64-6.22-7.85-6.22-6.75,0-12.49,5.41-12.49,12.21,0,5.98,4.59,9.52,10.48,9.52M123.73,87.78c-2.58,0-4.74-1.77-4.74-5.17,0-4.5,2.87-7.85,6.37-7.85,2.58,0,4.74,1.77,4.74,5.17,0,4.5-2.87,7.85-6.37,7.85M123.54,92.13c6.94,0,11.87-5.94,11.87-12.21,0-5.07-3.54-9.53-9.86-9.53-6.94,0-11.87,5.94-11.87,12.21,0,5.07,3.54,9.52,9.86,9.52M86.11,91.75h22.5l2.15-9.24h-5.22l-1.05,4.45h-8.52l5.07-21.87h4.02l1.1-4.83h-13.26l-1.1,4.83h3.83l-5.07,21.83h-3.35l-1.1,4.83Z"/>
</svg>
