<?xml version="1.0" encoding="UTF-8"?>
<svg id="Layer_1" data-name="Layer 1" xmlns="http://www.w3.org/2000/svg" viewBox="0 0 288 288">
  <defs>
    <style>
      .cls-1 {
        fill: #3dae2b;
      }
    </style>
  </defs>
  <path class="cls-1" d="M234.04,176.01c0-12.38-1.48-24.75-11.82-35.09-5.36-5.36-13.67-8.87-24.57-8.87-8.87,0-16.25,3.32-19.76,6.65v-28.26h53.2v-21.61h-74.99v74.25h21.98c1.66-5.17,6.1-10.71,15.88-10.71,11.64,0,16.07,8.5,16.07,23.64,0,8.31-.92,15.33-5.17,19.58-2.96,2.96-6.83,4.25-11.45,4.25-9.97,0-14.78-5.91-16.07-16.25h-24.01c.74,9.6,2.59,19.21,10.71,27.34,5.73,5.73,15.7,10.53,29.37,10.53s23.09-4.8,29-10.71c9.6-9.6,11.64-19.95,11.64-34.73M137.62,182.29c0-15.88-7.57-24.94-16.99-29.92,8.68-4.62,15.15-12.74,15.15-26.97,0-22.16-16.81-37.68-40.08-37.68s-39.71,14.04-40.27,37.5h24.01c.55-9.97,7.2-15.89,16.25-15.89s16.07,5.73,16.07,16.81c0,9.24-4.99,16.44-16.62,16.44h-3.51v20.87h3.51c11.82,0,18.47,7.2,18.47,18.1,0,11.82-7.39,18.29-17.73,18.29-9.42,0-17.55-5.36-17.92-17.18h-24.01c.37,27.52,20.5,38.79,41.93,38.79,22.53,0,41.74-12.93,41.74-39.16"/>
  <path class="cls-1" d="M231.77,72.38v-7.04h-18.34V31.95h-7.89v40.43h26.23ZM184.99,58.58h-10.05l5.11-14.71,4.94,14.71ZM197.71,72.38l-14.76-40.43h-6.19l-14.71,40.43h8.23l2.44-7.15h14.36l2.38,7.15h8.23ZM157.4,59.94h-8.01c-.8,3.24-2.84,5.73-6.81,5.73-2.16,0-3.92-.8-5.05-2.1-1.53-1.7-1.99-3.63-1.99-11.41s.45-9.71,1.99-11.41c1.14-1.31,2.9-2.1,5.05-2.1,3.97,0,6.02,2.5,6.81,5.73h8.01c-1.42-8.46-7.32-12.77-14.88-12.77-4.43,0-8.06,1.59-10.9,4.43-4.09,4.09-3.97,9.14-3.97,16.12s-.11,12.04,3.97,16.12c2.84,2.84,6.47,4.43,10.9,4.43,7.5,0,13.46-4.32,14.88-12.77M110.21,52.16c0,7.78-.45,9.65-1.99,11.36-1.14,1.31-2.9,2.16-5.05,2.16s-3.97-.85-5.11-2.16c-1.53-1.7-1.93-3.58-1.93-11.36s.4-9.65,1.93-11.36c1.14-1.31,2.95-2.16,5.11-2.16s3.92.85,5.05,2.16c1.53,1.7,1.99,3.58,1.99,11.36M118.11,52.16c0-6.98.06-12.04-4.03-16.12-2.84-2.84-6.3-4.43-10.9-4.43s-8.12,1.59-10.96,4.43c-4.09,4.09-3.97,9.14-3.97,16.12s-.11,12.04,3.97,16.12c2.84,2.84,6.36,4.43,10.96,4.43s8.06-1.59,10.9-4.43c4.09-4.09,4.03-9.14,4.03-16.12M81.83,72.38v-7.04h-18.34V31.95h-7.89v40.43h26.23Z"/>
  <path class="cls-1" d="M58.9,234.59h-4.95v12.07c0,6.26,3.41,9.61,8.84,9.61s8.81-3.38,8.81-9.64v-12.04h-4.48v12.04c0,3.35-1.48,5.04-4.09,5.04-2.76,0-4.12-1.84-4.12-5.55v-11.54ZM76.19,255.59h4.63v-11.45l13.11,12.25h.45v-21.8h-4.63v11.57l-13.08-12.25h-.48v21.68ZM99.23,255.59h5.01v-21h-5.01v21ZM113.41,255.59h5.01v-16.61h6.64v-4.39h-18.33v4.39h6.67v16.61ZM127.47,255.59h13.05v-4.42h-8.19v-4.15h6.91v-4.3h-6.91v-3.8h8.07v-4.33h-12.93v21Z"/>
  <path class="cls-1" d="M153.48,255.65h4.95v-8.81h8.1v8.81h4.92v-21h-4.92v7.71h-8.1v-7.71h-4.95v21ZM176.29,255.65h13.05v-4.42h-8.19v-4.15h6.91v-4.3h-6.91v-3.8h8.07v-4.33h-12.93v21ZM193.16,255.65h4.86v-8.25h.71l5.6,8.25h5.72l-6.41-9.02c2.55-1.13,3.91-3.17,3.91-5.81,0-1.81-.89-3.56-2.46-4.69-1.81-1.3-3.88-1.48-6.55-1.48h-5.4v21ZM198.86,238.48c2.76,0,4.12.74,4.12,2.85,0,1.9-1.33,2.97-3.88,2.97h-1.07v-5.81h.83ZM212.06,255.65h13.05v-4.42h-8.19v-4.15h6.91v-4.3h-6.91v-3.8h8.07v-4.33h-12.93v21Z"/>
  <path class="cls-1" d="M230.17,249.09l1.45.21c1.33-6.4,2.4-11.45,2.43-15.3l-5.72.8c.12,4.33.77,9.08,1.84,14.29M228.57,253.56c0,1.3,1.13,2.46,2.46,2.46s2.46-1.13,2.46-2.46-1.07-2.46-2.46-2.46-2.46,1.1-2.46,2.46"/>
</svg>