<?xml version="1.0" encoding="UTF-8"?>
<svg id="Layer_1" data-name="Layer 1" xmlns="http://www.w3.org/2000/svg" viewBox="0 0 287.58 287.58">
  <defs>
    <style>
      .cls-1 {
        fill: #ee3331;
      }
    </style>
  </defs>
  <path class="cls-1" d="M204.75,30.94s-.13-.14-.15-.13c0,.09.06.15.06.24,0,.11-.09.1-.1.18-.07.03.03.21.05.26.03.06.05.14.08.21.03.08.06.02.07-.03.02-.11.1-.2.17-.26.03-.03.08-.06.08-.11,0-.02,0-.13.01-.14l-.07-.12c-.07-.03-.16-.06-.21-.1"/>
  <path class="cls-1" d="M207.84,31.53c-.06.03-.12.07-.16.13-.05.06-.12.16-.07.23.05.01.08,0,.13-.01.02,0,.04-.01.06-.02.03,0,.05-.04.07-.07,0,0,.02-.02.02-.03,0-.01.02-.04.03-.06.01-.02.01-.06.04-.06v-.13s-.08,0-.13,0"/>
  <path class="cls-1" d="M178.99,175.42c0-8.32-6.19-14.51-16.81-14.51-13.09,0-21.58,9.38-21.58,24.06,0,17.52,12.91,27.42,49.18,27.42,33.44,0,54.31-14.68,54.31-38.21,0-13.09-8.14-21.23-18.75-25.48,18.93-3.01,29.19-12.56,29.19-27.95,0-19.46-18.05-31.14-47.24-31.14-34.5,0-51.31,10.26-51.31,30.43,0,9.55,7.25,16.28,17.16,16.28s19.11-5.84,19.11-17.34c0-1.77-.35-3.54-1.06-5.13,2.12-.71,4.25-1.06,6.37-1.06,8.85,0,13.8,4.6,13.8,11.15,0,10.26-6.55,16.1-18.22,16.1-4.25,0-8.85-.88-13.09-1.94l-6.55,24.59c3.54-.35,6.9-.71,10.44-.71,10.26,0,15.22,3.72,15.22,11.5,0,9.55-5.84,16.45-17.34,16.45-3.18,0-6.19-.35-8.85-1.42,3.72-2.65,6.02-7.25,6.02-13.09M71.43,175.42c0-8.32-6.19-14.51-16.81-14.51-13.09,0-21.58,9.38-21.58,24.06,0,17.52,12.91,27.42,49.18,27.42,33.44,0,54.31-14.68,54.31-38.21,0-13.09-8.14-21.23-18.75-25.48,18.93-3.01,29.19-12.56,29.19-27.95,0-19.46-18.05-31.14-47.24-31.14-34.5,0-51.31,10.26-51.31,30.43,0,9.55,7.25,16.28,17.16,16.28s19.11-5.84,19.11-17.34c0-1.77-.35-3.54-1.06-5.13,2.12-.71,4.24-1.06,6.37-1.06,8.85,0,13.8,4.6,13.8,11.15,0,10.26-6.55,16.1-18.22,16.1-4.24,0-8.84-.88-13.09-1.94l-6.55,24.59c3.54-.35,6.9-.71,10.44-.71,10.26,0,15.21,3.72,15.21,11.5,0,9.55-5.84,16.45-17.34,16.45-3.18,0-6.19-.35-8.85-1.42,3.72-2.65,6.02-7.25,6.02-13.09"/>
  <path class="cls-1" d="M213.14,82.9c2.32,0,4.17-.23,6.43-.87l1.74-6.49c-.35.12-.75.17-1.1.17-.58,0-.99-.29-.99-1.16,0-1.39,1.22-5.16,1.97-7.94l6.49-23.87c-1.68.46-4.4.81-7.71.81h-8.52l-1.8,6.66h1.1c.99,0,1.16.52.7,2.32l-4.87,18.13c-.52,2.03-1.45,4.81-1.45,6.37,0,3.94,2.95,5.85,7.99,5.85M182.43,75.08c-1.1,0-1.91-.75-1.91-2.38,0-5.45,2.84-12.28,5.79-12.28,1.04,0,1.85.81,1.85,2.32,0,5.16-2.72,12.34-5.74,12.34M176.41,82.9c3.77,0,6.84-2.09,8.86-4.93.52,3.19,3.3,4.93,7.99,4.93,2.32,0,4.29-.41,6.55-.87l1.74-6.55c-.41.12-.81.23-1.16.23-.58,0-1.1-.23-1.1-1.22,0-.46.17-1.04.35-1.74l5.33-20.05c-1.68.46-4.4.81-7.7.81h-5.62l-1.22,4.17c-.87-3.07-3.42-5.04-6.66-5.04-10.31,0-16.45,10.77-16.45,20.16,0,5.74,3.36,10.08,9.1,10.08M154.16,66.22c0,3.3,2.49,4.52,5.22,4.52,4.87,0,7.3-3.77,7.3-8.23,0-5.97-4.87-9.85-13.5-9.85-9.79,0-17.03,7.01-17.03,16.97s7.59,13.27,14.71,13.27c5.85,0,10.54-2.14,13.27-7.13l-5.97-3.88c-1.33,1.74-2.61,3.01-4.63,3.01-2.61,0-4.17-1.74-4.17-4.87,0-5.56,2.55-10.25,6.14-10.25,1.04,0,1.91.23,2.55.64-2.26.81-3.88,3.07-3.88,5.79M115.92,75.54c-1.68,0-2.32-.99-2.32-2.61,0-2.66,1.8-12.92,5.27-12.92,1.62,0,2.2,1.1,2.2,2.61,0,2.61-1.74,12.92-5.16,12.92M116.39,82.9c9.79,0,17.38-7.19,17.38-16.97,0-8.86-6.72-13.27-15.76-13.27-9.79,0-17.03,6.84-17.03,16.63,0,8.86,6.43,13.61,15.41,13.61M93.85,82.03l4.06-15.18h-7.24l-3.48,5.5c-1.62,2.61-2.66,2.72-6.78,2.72h-.58l5.97-22.25c.52-1.85.99-2.32,2.2-2.32h2.03l1.85-6.95h-21.67l-1.85,6.95h1.45c1.22,0,1.45.46.93,2.32l-5.33,19.93c-.52,1.85-.99,2.32-2.2,2.32h-1.45l-1.85,6.95h33.95Z"/>
  <path class="cls-1" d="M232.38,238.02l.08-.4c1.47-7.04,2.21-11.75,2.23-14.14l-5.43.76c.05,1.96.23,4.06.51,6.3.29,2.24.7,4.66,1.23,7.27l1.37.21ZM230.18,243.71c.47.47,1.01.7,1.64.7s1.2-.23,1.66-.69c.45-.46.68-1.01.68-1.65s-.22-1.23-.67-1.67c-.45-.45-1-.67-1.67-.67-.63,0-1.18.23-1.64.69-.46.46-.69,1.01-.69,1.65s.23,1.17.7,1.64M225.01,244.07v-4.19h-7.77v-3.95h6.56v-4.08h-6.56v-3.6h7.66v-4.11h-12.28v19.94h12.39ZM198.17,244.07v-7.82h.67l5.32,7.82h5.43l-6.08-8.57c1.2-.53,2.12-1.27,2.76-2.21.64-.94.96-2.04.96-3.3,0-.87-.2-1.7-.61-2.48s-.98-1.44-1.73-1.97c-.7-.5-1.5-.86-2.4-1.08-.9-.22-2.18-.32-3.82-.32h-5.13v19.94h4.62ZM201.95,228.4c.62.43.92,1.12.92,2.07s-.32,1.6-.95,2.09c-.63.49-1.55.73-2.75.73h-1v-5.53h.78c1.38,0,2.38.21,3,.64M188.79,244.07v-4.19h-7.77v-3.95h6.56v-4.08h-6.56v-3.6h7.66v-4.11h-12.28v19.94h12.39ZM158.32,244.07v-8.36h7.69v8.36h4.68v-19.94h-4.68v7.32h-7.69v-7.32h-4.7v19.94h4.7ZM139.6,244.07v-4.19h-7.77v-3.95h6.56v-4.08h-6.56v-3.6h7.66v-4.11h-12.28v19.94h12.39ZM117.49,244.07v-15.77h6.31v-4.17h-17.41v4.17h6.34v15.77h4.76ZM102.9,224.13h-4.76v19.94h4.76v-19.94ZM79.52,244.07v-10.88l12.46,11.63h.41v-20.7h-4.39v10.99l-12.42-11.63h-.45v20.59h4.39ZM52.88,224.13v11.47c0,2.89.74,5.13,2.21,6.73,1.47,1.59,3.53,2.39,6.18,2.39s4.67-.8,6.15-2.41c1.48-1.61,2.21-3.85,2.21-6.73v-11.44h-4.25v11.44c0,1.56-.33,2.75-1,3.56-.66.81-1.63,1.22-2.89,1.22s-2.29-.44-2.94-1.31c-.65-.88-.97-2.19-.97-3.95v-10.96h-4.7Z"/>
</svg>