<?xml version="1.0" encoding="UTF-8"?>
<svg id="Layer_1" data-name="Layer 1" xmlns="http://www.w3.org/2000/svg" viewBox="0 0 287.79 287.79">
  <defs>
    <style>
      .cls-1 {
        fill: #c10230;
      }

      .cls-2 {
        fill: #231f20;
      }
    </style>
  </defs>
  <path class="cls-1" d="M188.16,93.2l-4.44,20.22h41.72c-16.49,16.35-39.14,47.74-48.75,74.27h28.68c9.89-25.66,27.38-54.91,47.46-75.99l3.87-18.5h-68.53ZM152.46,187.68l20.07-94.49h-17.78c-4.73,4.01-14.05,8.89-24.95,10.04l-4.16,17.78c2.72.14,10.47,0,15.34-1l-14.62,67.67h26.09ZM101.42,187.68l7.17-19.93h-41.29c3.73-5.88,12.62-11.04,22.37-16.78,17.35-10.04,24.09-17.35,24.09-32.69,0-13.62-8.89-26.81-32.4-26.81-27.39,0-35.7,17.64-38.28,32.69h24.52c2.01-9.61,5.02-14.48,12.04-14.48,5.74,0,7.6,3.73,7.6,8.03,0,8.75-4.73,12.62-19.07,21.51-23.8,14.77-32.4,27.67-35.99,44.73l-.72,3.73h69.97Z"/>
  <path class="cls-1" d="M97.37,82.18l3.61-20.41h-4.43l-3.58,20.41h4.4ZM87.7,69.67l-.19,1.28c-.6-.61-1.19-1.05-1.76-1.33-.57-.27-1.21-.41-1.9-.41-1.77,0-3.24.76-4.42,2.27-1.18,1.51-1.76,3.41-1.76,5.7,0,1.65.4,2.97,1.19,3.98.8,1,1.84,1.51,3.14,1.51.63,0,1.24-.14,1.85-.43.6-.29,1.24-.74,1.9-1.36l-.22,1.31h4.35l2.19-12.51h-4.36ZM86.59,76.13c-.19,1.06-.52,1.87-1.01,2.45-.49.58-1.07.87-1.74.87-.59,0-1.06-.22-1.42-.65-.35-.44-.53-1.01-.53-1.74,0-1.37.31-2.51.93-3.43.62-.92,1.37-1.37,2.26-1.37.43,0,.8.11,1.12.33.32.22.59.56.81,1.01l-.43,2.53ZM76.79,70.55c-.78-.49-1.58-.86-2.4-1.1-.82-.25-1.68-.37-2.55-.37-2.2,0-4.04.71-5.5,2.14-1.47,1.43-2.2,3.19-2.2,5.3,0,1.86.61,3.37,1.83,4.54,1.22,1.17,2.81,1.75,4.76,1.75.73,0,1.47-.1,2.23-.3.75-.2,1.57-.51,2.44-.92l-.68-3.55c-.62.38-1.2.66-1.73.83-.53.17-1.08.26-1.63.26-.86,0-1.57-.28-2.12-.85-.56-.57-.83-1.31-.83-2.21s.37-1.74,1.12-2.4c.74-.66,1.67-.99,2.78-.99.56,0,1.14.13,1.73.38.59.25,1.19.64,1.8,1.16l.97-3.65ZM57.45,73.19c.4.55.6,1.26.6,2.14,0,1.18-.27,2.16-.82,2.96-.55.8-1.2,1.19-1.97,1.19-.64,0-1.17-.28-1.58-.83-.42-.55-.62-1.27-.62-2.16,0-1.14.28-2.11.85-2.92.56-.81,1.23-1.21,2-1.21.64,0,1.16.27,1.55.82M50.4,81.02c1.21,1.15,2.8,1.73,4.78,1.73s3.79-.72,5.21-2.17c1.42-1.44,2.13-3.22,2.13-5.32,0-1.83-.6-3.32-1.8-4.47-1.2-1.15-2.74-1.72-4.63-1.72-2.13,0-3.91.72-5.35,2.15-1.44,1.43-2.16,3.19-2.16,5.27,0,1.87.61,3.38,1.82,4.53M46.73,82.18l.74-4.1h-7.84l2.82-16.04h-4.83l-3.55,20.13h12.68Z"/>
  <path class="cls-2" d="M39.99,199.01h-6.22v15.15c0,7.85,4.28,12.06,11.09,12.06s11.05-4.24,11.05-12.1v-15.11h-5.62v15.11c0,4.21-1.86,6.33-5.14,6.33-3.46,0-5.17-2.31-5.17-6.96v-14.48ZM61.69,225.36h5.81v-14.37l16.45,15.37h.56v-27.36h-5.81v14.52l-16.41-15.37h-.6v27.21ZM90.6,225.36h6.29v-26.35h-6.29v26.35ZM108.39,225.36h6.29v-20.84h8.34v-5.51h-23v5.51h8.38v20.84ZM126.04,225.36h16.37v-5.55h-10.27v-5.21h8.67v-5.4h-8.67v-4.76h10.12v-5.43h-16.23v26.35Z"/>
  <path class="cls-1" d="M147.26,225.43h6.22v-11.05h10.16v11.05h6.18v-26.35h-6.18v9.68h-10.16v-9.68h-6.22v26.35ZM175.88,225.43h16.38v-5.54h-10.27v-5.21h8.67v-5.4h-8.67v-4.76h10.12v-5.43h-16.23v26.35ZM197.06,225.43h6.1v-10.35h.9l7.03,10.35h7.18l-8.04-11.31c3.2-1.41,4.91-3.98,4.91-7.3,0-2.27-1.12-4.47-3.09-5.88-2.27-1.64-4.87-1.86-8.22-1.86h-6.77v26.35ZM204.2,203.88c3.46,0,5.17.93,5.17,3.57,0,2.38-1.67,3.72-4.88,3.72h-1.34v-7.3h1.04ZM220.77,225.43h16.38v-5.54h-10.27v-5.21h8.67v-5.4h-8.67v-4.76h10.12v-5.43h-16.23v26.35Z"/>
  <path class="cls-2" d="M243.5,217.2l1.82.26c1.67-8.04,3.01-14.37,3.05-19.21l-7.18,1.01c.15,5.43.97,11.39,2.31,17.94M241.49,222.82c0,1.64,1.41,3.09,3.09,3.09s3.09-1.41,3.09-3.09-1.34-3.09-3.09-3.09-3.09,1.38-3.09,3.09"/>
</svg>