<?xml version="1.0" encoding="UTF-8"?>
<svg id="Layer_1" data-name="Layer 1" xmlns="http://www.w3.org/2000/svg" xmlns:xlink="http://www.w3.org/1999/xlink" viewBox="0 0 288.12 288.12">
  <defs>
    <style>
      .cls-1 {
        fill: none;
      }

      .cls-2 {
        fill: #006978;
      }

      .cls-3 {
        clip-path: url(#clippath-1);
      }

      .cls-4 {
        clip-path: url(#clippath-3);
      }

      .cls-5 {
        clip-path: url(#clippath-2);
      }

      .cls-6 {
        opacity: .8;
      }

      .cls-7 {
        fill: #f37721;
      }

      .cls-8 {
        fill: #90191c;
      }

      .cls-9 {
        fill: #006977;
      }

      .cls-10 {
        fill: #ffcf68;
      }

      .cls-11 {
        clip-path: url(#clippath);
      }
    </style>
    <clipPath id="clippath">
      <rect class="cls-1" x="41.13" y="23.53" width="207.26" height="240.93"/>
    </clipPath>
    <clipPath id="clippath-1">
      <rect class="cls-1" x="107.15" y="21.86" width="144.57" height="155.18"/>
    </clipPath>
    <clipPath id="clippath-2">
      <rect class="cls-1" x="92.4" y="53.82" width="104.9" height="124.52"/>
    </clipPath>
    <clipPath id="clippath-3">
      <rect class="cls-1" x="37.79" y="22.02" width="144.57" height="155.18"/>
    </clipPath>
  </defs>
  <g class="cls-11">
    <g class="cls-6">
      <g class="cls-3">
        <path class="cls-8" d="M181.41,134.2l16.98-18.47,4.11,5.29-16.45,17.98-4.63-4.79ZM157.84,23.54l-4.9,120.71,13.95,5.78,11.92-13,7.84,7.63,20.9-22.75-6.59-9.11,47.43-51.77-90.54-37.5Z"/>
      </g>
    </g>
    <g class="cls-6">
      <g class="cls-5">
        <path class="cls-7" d="M159.98,147.42l8.62-23.56,5.82,3.31-8.32,22.9-6.11-2.65ZM95.85,54.2l41.67,113.4h15.1l6.04-16.57,10.16,4.05,10.6-29.01-9.57-5.89,24.01-65.97h-98Z"/>
      </g>
    </g>
    <g class="cls-6">
      <g class="cls-4">
        <path class="cls-10" d="M136.05,122.79l-1.06-25.07,6.64.83,1.08,24.34-6.66-.11ZM41.13,61.2l81.89,88.82,13.95-5.78-.76-17.62,10.94-.15-1.31-30.87-11.1-1.78-3.07-70.14L41.13,61.2Z"/>
      </g>
    </g>
  </g>
  <path class="cls-2" d="M55.5,186.32v16.79l-11.05-16.79h-3.32v23.91h3.63v-16.82l11.05,16.82h3.32v-23.91h-3.63ZM68.52,186.32v23.91h15.28v-3.26h-11.65v-7.19h9.94v-3.22h-9.94v-6.98h11.65v-3.26h-15.28ZM113.85,186.32l-4.16,17.09-4.8-17.09h-2.92l-4.8,17.09-4.16-17.09h-3.83l6.25,23.91h3.16l4.83-16.75,4.87,16.75h3.16l6.25-23.91h-3.83ZM148.87,186.32v10.21h-9.7v-10.21h-3.63v23.91h3.63v-10.44h9.7v10.44h3.63v-23.91h-3.63ZM169.35,191.72l3.63,10.61h-7.35l3.73-10.61ZM167.81,186.32l-8.76,23.91h3.86l1.65-4.8h9.44l1.65,4.8h3.86l-8.76-23.91h-2.92ZM196.68,186.32l-5.51,17.39-5.51-17.39h-3.76l7.86,23.91h2.82l7.92-23.91h-3.83ZM206.95,186.32v23.91h15.28v-3.26h-11.65v-7.19h9.94v-3.22h-9.94v-6.98h11.65v-3.26h-15.28ZM244.72,186.32v16.79l-11.05-16.79h-3.32v23.91h3.63v-16.82l11.05,16.82h3.32v-23.91h-3.63Z"/>
  <path class="cls-9" d="M248.38,246.45v-6.29h-16.26v7.01h7.92v1.63c0,2.24-.54,4.17-1.93,5.74-1.39,1.51-3.45,2.42-5.99,2.42-2.3,0-4.17-.85-5.38-2.24-1.63-1.81-2.06-3.87-2.06-12.15s.42-10.28,2.06-12.09c1.21-1.39,3.08-2.3,5.38-2.3,4.29,0,6.77,2.24,7.74,6.29h8.46c-1.15-7.26-6.23-13.78-16.2-13.78-4.84,0-8.59,1.69-11.61,4.72-4.35,4.35-4.23,9.73-4.23,17.17s-.12,12.82,4.23,17.17c3.02,3.02,6.89,4.72,11.61,4.72s8.71-1.33,12.15-4.9c3.02-3.14,4.11-6.89,4.11-13.12M203.4,264.1v-43.05h-8.4v26.36l-17.05-26.36h-7.5v43.05h8.4v-26.42l17.05,26.42h7.5ZM156.12,221.05h-8.4v43.05h8.4v-43.05ZM135.5,251.41c0-3.81-1.03-6.95-3.33-9.13-1.81-1.69-4.29-2.78-8.22-3.33l-5.08-.73c-1.75-.24-3.14-.91-3.99-1.69-.91-.85-1.27-2-1.27-3.08,0-2.96,2.18-5.44,6.65-5.44,2.84,0,6.11.36,8.83,2.96l5.32-5.26c-3.69-3.57-7.98-5.02-13.91-5.02-9.31,0-14.99,5.38-14.99,13.06,0,3.63,1.03,6.41,3.08,8.46,1.93,1.87,4.66,3.02,8.34,3.57l5.2.73c2,.3,2.96.73,3.81,1.51.91.85,1.33,2.12,1.33,3.63,0,3.45-2.66,5.32-7.62,5.32-3.99,0-7.68-.91-10.4-3.63l-5.44,5.44c4.23,4.29,9.19,5.68,15.72,5.68,9.01,0,15.96-4.72,15.96-13.06M93.36,221.05h-8.4v43.05h8.4v-43.05ZM63.56,234.23c0,3.33-2.42,5.68-6.11,5.68h-7.92v-11.37h7.92c3.69,0,6.11,2.36,6.11,5.68M73.71,264.1l-9.61-18.56c4.17-1.51,7.86-5.26,7.86-11.31,0-7.19-5.2-13.18-13.97-13.18h-16.87v43.05h8.4v-17.17h6.05l8.4,17.17h9.73Z"/>
  <rect class="cls-1" x="41.13" y="23.53" width="207.26" height="240.93"/>
</svg>