<?xml version="1.0" encoding="UTF-8"?>
<svg id="Layer_1" data-name="Layer 1" xmlns="http://www.w3.org/2000/svg" viewBox="0 0 604.7 282.61">
  <defs>
    <style>
      .cls-1 {
        fill: #93723d;
      }

      .cls-2 {
        stroke: #231f20;
        stroke-width: .09px;
      }

      .cls-2, .cls-3 {
        fill: none;
      }

      .cls-4 {
        fill: #513e18;
      }

      .cls-5 {
        fill: #274283;
      }

      .cls-6 {
        fill: #24428f;
      }

      .cls-7 {
        fill: #6e5a3a;
      }

      .cls-8 {
        fill: #c1499b;
      }

      .cls-9 {
        fill: #eb9623;
      }

      .cls-10 {
        fill: #a5885c;
      }

      .cls-11 {
        fill: #9c8c71;
      }

      .cls-12 {
        fill: #fcccae;
      }

      .cls-13 {
        fill: #4f8f73;
      }

      .cls-14 {
        fill: #fbbf9b;
      }

      .cls-15 {
        fill: #646566;
      }

      .cls-16 {
        fill: #feddc8;
      }

      .cls-17 {
        fill: #c2ad8d;
      }

      .cls-18 {
        fill: #c69754;
      }

      .cls-19 {
        fill: #d2242a;
      }

      .cls-3 {
        stroke: #646566;
        stroke-width: .46px;
      }
    </style>
  </defs>
  <g>
    <path class="cls-15" d="M219.64,235.69c0-3.25,1.49-5.08,3.99-5.08,1.65,0,2.78.78,3.41,2.13l-.97.57c-.4-1-1.22-1.66-2.44-1.66-1.7,0-2.71,1.32-2.71,3.32v1.45c0,1.99,1.01,3.2,2.71,3.2,1.26,0,2.13-.7,2.53-1.75l.95.58c-.62,1.37-1.83,2.21-3.48,2.21-2.5,0-3.99-1.73-3.99-4.97Z"/>
    <path class="cls-15" d="M229.28,235.64c0-3.26,1.65-5.03,4.21-5.03s4.21,1.77,4.21,5.03-1.65,5.03-4.21,5.03-4.21-1.77-4.21-5.03ZM236.41,236.44v-1.62c0-1.92-1.21-3.18-2.93-3.18s-2.93,1.25-2.93,3.18v1.62c0,1.92,1.21,3.18,2.93,3.18s2.93-1.25,2.93-3.18Z"/>
    <path class="cls-15" d="M240.82,230.77h1.59l2.84,5.24h.07l2.86-5.24h1.53v9.72h-1.16v-8.19h-.07l-.84,1.63-2.37,4.24-2.37-4.24-.84-1.63h-.07v8.19h-1.16v-9.72Z"/>
    <path class="cls-15" d="M253.34,230.77h1.59l2.84,5.24h.07l2.86-5.24h1.53v9.72h-1.16v-8.19h-.07l-.84,1.63-2.37,4.24-2.37-4.24-.84-1.63h-.07v8.19h-1.16v-9.72Z"/>
    <path class="cls-15" d="M265.41,240.5v-.98h1.39v-7.77h-1.39v-.97h3.98v.97h-1.39v7.77h1.39v.98h-3.98Z"/>
    <path class="cls-15" d="M275.78,231.81v8.69h-1.19v-8.69h-3.15v-1.03h7.5v1.03h-3.15Z"/>
    <path class="cls-15" d="M285.22,231.81v8.69h-1.19v-8.69h-3.15v-1.03h7.5v1.03h-3.15Z"/>
    <path class="cls-15" d="M291,240.5v-9.72h6.05v1.03h-4.86v3.26h4.57v1.03h-4.57v3.37h4.86v1.03h-6.05Z"/>
    <path class="cls-15" d="M300.27,240.5v-9.72h6.05v1.03h-4.86v3.26h4.57v1.03h-4.57v3.37h4.86v1.03h-6.05Z"/>
  </g>
  <g>
    <path class="cls-15" d="M437.67,258.2h1.59l2.84,5.24h.07l2.86-5.24h1.53v9.72h-1.17v-8.19h-.07l-.84,1.63-2.37,4.24-2.37-4.24-.84-1.63h-.07v8.19h-1.17v-9.72Z"/>
    <path class="cls-15" d="M450.21,267.93v-9.72h6.05v1.03h-4.86v3.26h4.57v1.03h-4.57v3.37h4.86v1.03h-6.05Z"/>
    <path class="cls-15" d="M459.48,258.2h1.59l2.84,5.24h.07l2.86-5.24h1.53v9.72h-1.17v-8.19h-.07l-.84,1.63-2.37,4.24-2.37-4.24-.84-1.63h-.07v8.19h-1.17v-9.72Z"/>
    <path class="cls-15" d="M472,258.2h4.08c1.63,0,2.64.99,2.64,2.51s-.95,1.96-1.61,2.06v.08c.71.04,1.95.64,1.95,2.26s-1.09,2.81-2.56,2.81h-4.5v-9.72ZM473.19,262.41h2.74c.94,0,1.51-.49,1.51-1.35v-.47c0-.86-.57-1.35-1.51-1.35h-2.74v3.18ZM473.19,266.9h2.94c1.02,0,1.65-.53,1.65-1.5v-.47c0-.98-.62-1.5-1.65-1.5h-2.94v3.48Z"/>
    <path class="cls-15" d="M482.27,267.93v-9.72h6.05v1.03h-4.86v3.26h4.57v1.03h-4.57v3.37h4.86v1.03h-6.05Z"/>
    <path class="cls-15" d="M492.73,267.93h-1.19v-9.72h3.95c1.73,0,2.77.99,2.77,2.76,0,1.42-.7,2.38-1.99,2.67l2.27,4.29h-1.35l-2.15-4.18h-2.32v4.18ZM495.49,262.75c.94,0,1.49-.5,1.49-1.39v-.72c0-.89-.55-1.39-1.49-1.39h-2.76v3.51h2.76Z"/>
    <path class="cls-15" d="M500.91,266.4l.88-.72c.7.91,1.52,1.39,2.67,1.39,1.42,0,2.19-.72,2.19-1.84,0-.92-.53-1.38-1.83-1.67l-.81-.18c-1.8-.4-2.8-1.18-2.8-2.67,0-1.73,1.34-2.66,3.28-2.66,1.49,0,2.54.56,3.28,1.59l-.89.64c-.54-.74-1.29-1.2-2.44-1.2-1.26,0-2.05.54-2.05,1.59,0,.92.61,1.34,1.86,1.62l.81.18c1.93.43,2.77,1.27,2.77,2.72,0,1.78-1.28,2.93-3.41,2.93-1.59,0-2.71-.64-3.51-1.7Z"/>
  </g>
  <path class="cls-10" d="M294.98,176.45c2.2,0,3.98-1.78,3.98-3.98s-1.78-3.98-3.98-3.98-3.98,1.78-3.98,3.98,1.78,3.98,3.98,3.98"/>
  <path class="cls-9" d="M300.34,190.31h-10.98s-1.63-.05-1.73-3.83c-.11-4.17,2.35-7.74,2.88-8.63.89-1.5,1.8-.78,1.92-1.44.1-.53.29-.53.29-.53h4.22s.19,0,.29.53c.12.66,1.03-.06,1.92,1.44.53.89,2.98,4.46,2.88,8.63-.1,3.79-1.73,3.83-1.73,3.83h-10.98"/>
  <path class="cls-2" d="M300.34,190.31h-10.98s-1.63-.05-1.73-3.83c-.11-4.17,2.35-7.74,2.88-8.63.89-1.5,1.8-.78,1.92-1.44.1-.53.29-.53.29-.53h4.22s.19,0,.29.53c.12.66,1.03-.06,1.92,1.44.53.89,2.98,4.46,2.88,8.63-.1,3.79-1.73,3.83-1.73,3.83h-10.98"/>
  <path class="cls-12" d="M252.18,176.45c2.2,0,3.98-1.78,3.98-3.98s-1.78-3.98-3.98-3.98-3.98,1.78-3.98,3.98,1.78,3.98,3.98,3.98"/>
  <path class="cls-9" d="M257.54,190.31h-10.98s-1.63-.05-1.73-3.83c-.11-4.17,2.35-7.74,2.88-8.63.89-1.5,1.8-.78,1.92-1.44.1-.53.29-.53.29-.53h4.22s.19,0,.29.53c.12.66,1.03-.06,1.92,1.44.53.89,2.98,4.46,2.88,8.63-.1,3.79-1.73,3.83-1.73,3.83h-10.98"/>
  <path class="cls-2" d="M257.54,190.31h-10.98s-1.63-.05-1.73-3.83c-.11-4.17,2.35-7.74,2.88-8.63.89-1.5,1.8-.78,1.92-1.44.1-.53.29-.53.29-.53h4.22s.19,0,.29.53c.12.66,1.03-.06,1.92,1.44.53.89,2.98,4.46,2.88,8.63-.1,3.79-1.73,3.83-1.73,3.83h-10.98"/>
  <path class="cls-12" d="M273.08,122.5c2.2,0,3.98-1.78,3.98-3.98s-1.78-3.98-3.98-3.98-3.98,1.78-3.98,3.98,1.78,3.98,3.98,3.98"/>
  <path class="cls-9" d="M278.44,136.36h-10.98s-1.63-.05-1.73-3.83c-.11-4.17,2.35-7.74,2.88-8.63.89-1.5,1.8-.78,1.92-1.44.1-.53.29-.53.29-.53h4.22s.19,0,.29.53c.12.66,1.03-.06,1.92,1.44.53.89,2.98,4.46,2.88,8.63-.1,3.79-1.73,3.83-1.73,3.83h-10.98"/>
  <path class="cls-2" d="M278.44,136.36h-10.98s-1.63-.05-1.73-3.83c-.11-4.17,2.35-7.74,2.88-8.63.89-1.5,1.8-.78,1.92-1.44.1-.53.29-.53.29-.53h4.22s.19,0,.29.53c.12.66,1.03-.06,1.92,1.44.53.89,2.98,4.46,2.88,8.63-.1,3.79-1.73,3.83-1.73,3.83h-10.98"/>
  <path class="cls-12" d="M230.28,122.5c2.2,0,3.98-1.78,3.98-3.98s-1.78-3.98-3.98-3.98-3.98,1.78-3.98,3.98,1.78,3.98,3.98,3.98"/>
  <path class="cls-9" d="M235.64,136.36h-10.98s-1.63-.05-1.73-3.83c-.11-4.17,2.35-7.74,2.88-8.63.89-1.5,1.8-.78,1.92-1.44.1-.53.29-.53.29-.53h4.22s.19,0,.29.53c.12.66,1.03-.06,1.92,1.44.53.89,2.98,4.46,2.88,8.63-.1,3.79-1.73,3.83-1.73,3.83h-10.98"/>
  <path class="cls-2" d="M235.64,136.36h-10.98s-1.63-.05-1.73-3.83c-.11-4.17,2.35-7.74,2.88-8.63.89-1.5,1.8-.78,1.92-1.44.1-.53.29-.53.29-.53h4.22s.19,0,.29.53c.12.66,1.03-.06,1.92,1.44.53.89,2.98,4.46,2.88,8.63-.1,3.79-1.73,3.83-1.73,3.83h-10.98"/>
  <path class="cls-18" d="M294.81,122.43c2.25,0,4.08-1.83,4.08-4.08s-1.82-4.08-4.08-4.08-4.08,1.83-4.08,4.08,1.82,4.08,4.08,4.08"/>
  <path class="cls-8" d="M300.3,136.63h-11.25s-1.67-.05-1.77-3.93c-.11-4.27,2.41-7.93,2.95-8.84.91-1.54,1.84-.8,1.96-1.47.1-.54.29-.54.29-.54h4.32s.2,0,.29.54c.12.68,1.05-.06,1.96,1.47.54.91,3.05,4.57,2.95,8.84-.1,3.88-1.77,3.93-1.77,3.93h-11.25"/>
  <path class="cls-2" d="M300.3,136.63h-11.25s-1.67-.05-1.77-3.93c-.11-4.27,2.41-7.93,2.95-8.84.91-1.54,1.84-.8,1.96-1.47.1-.54.29-.54.29-.54h4.32s.2,0,.29.54c.12.68,1.05-.06,1.96,1.47.54.91,3.05,4.57,2.95,8.84-.1,3.88-1.77,3.93-1.77,3.93h-11.25"/>
  <path class="cls-18" d="M252.01,122.43c2.25,0,4.08-1.83,4.08-4.08s-1.83-4.08-4.08-4.08-4.08,1.83-4.08,4.08,1.82,4.08,4.08,4.08"/>
  <path class="cls-13" d="M257.5,136.63h-11.25s-1.67-.05-1.77-3.93c-.11-4.27,2.41-7.93,2.95-8.84.91-1.54,1.84-.8,1.96-1.47.1-.54.29-.54.29-.54h4.32s.2,0,.29.54c.12.68,1.05-.06,1.96,1.47.54.91,3.05,4.57,2.95,8.84-.1,3.88-1.77,3.93-1.77,3.93h-11.25"/>
  <path class="cls-2" d="M257.5,136.63h-11.25s-1.67-.05-1.77-3.93c-.11-4.27,2.41-7.93,2.95-8.84.91-1.54,1.84-.8,1.96-1.47.1-.54.29-.54.29-.54h4.32s.2,0,.29.54c.12.68,1.05-.06,1.96,1.47.54.91,3.05,4.57,2.95,8.84-.1,3.88-1.77,3.93-1.77,3.93h-11.25"/>
  <path class="cls-1" d="M294.81,149.27c2.25,0,4.08-1.83,4.08-4.08s-1.82-4.08-4.08-4.08-4.08,1.83-4.08,4.08,1.82,4.08,4.08,4.08"/>
  <path class="cls-19" d="M300.3,163.47h-11.25s-1.67-.05-1.77-3.93c-.11-4.27,2.41-7.93,2.95-8.84.91-1.54,1.84-.8,1.96-1.47.1-.54.29-.54.29-.54h4.32s.2,0,.29.54c.12.68,1.05-.06,1.96,1.47.54.91,3.05,4.57,2.95,8.84-.1,3.88-1.77,3.93-1.77,3.93h-11.25"/>
  <path class="cls-2" d="M300.3,163.47h-11.25s-1.67-.05-1.77-3.93c-.11-4.27,2.41-7.93,2.95-8.84.91-1.54,1.84-.8,1.96-1.47.1-.54.29-.54.29-.54h4.32s.2,0,.29.54c.12.68,1.05-.06,1.96,1.47.54.91,3.05,4.57,2.95,8.84-.1,3.88-1.77,3.93-1.77,3.93h-11.25"/>
  <path class="cls-1" d="M252.01,149.27c2.25,0,4.08-1.83,4.08-4.08s-1.83-4.08-4.08-4.08-4.08,1.83-4.08,4.08,1.82,4.08,4.08,4.08"/>
  <path class="cls-19" d="M257.5,163.47h-11.25s-1.67-.05-1.77-3.93c-.11-4.27,2.41-7.93,2.95-8.84.91-1.54,1.84-.8,1.96-1.47.1-.54.29-.54.29-.54h4.32s.2,0,.29.54c.12.68,1.05-.06,1.96,1.47.54.91,3.05,4.57,2.95,8.84-.1,3.88-1.77,3.93-1.77,3.93h-11.25"/>
  <path class="cls-2" d="M257.5,163.47h-11.25s-1.67-.05-1.77-3.93c-.11-4.27,2.41-7.93,2.95-8.84.91-1.54,1.84-.8,1.96-1.47.1-.54.29-.54.29-.54h4.32s.2,0,.29.54c.12.68,1.05-.06,1.96,1.47.54.91,3.05,4.57,2.95,8.84-.1,3.88-1.77,3.93-1.77,3.93h-11.25"/>
  <path class="cls-16" d="M295.16,203.79c2.25,0,4.08-1.83,4.08-4.08s-1.83-4.08-4.08-4.08-4.08,1.83-4.08,4.08,1.82,4.08,4.08,4.08"/>
  <path class="cls-5" d="M300.65,217.99h-11.25s-1.67-.05-1.77-3.93c-.11-4.27,2.41-7.93,2.95-8.84.91-1.54,1.84-.8,1.96-1.47.1-.54.29-.54.29-.54h4.32s.2,0,.29.54c.12.68,1.05-.06,1.96,1.47.54.91,3.05,4.57,2.95,8.84-.1,3.88-1.77,3.93-1.77,3.93h-11.25"/>
  <path class="cls-2" d="M300.65,217.99h-11.25s-1.67-.05-1.77-3.93c-.11-4.27,2.41-7.93,2.95-8.84.91-1.54,1.84-.8,1.96-1.47.1-.54.29-.54.29-.54h4.32s.2,0,.29.54c.12.68,1.05-.06,1.96,1.47.54.91,3.05,4.57,2.95,8.84-.1,3.88-1.77,3.93-1.77,3.93h-11.25"/>
  <path class="cls-17" d="M252.36,203.79c2.25,0,4.08-1.83,4.08-4.08s-1.83-4.08-4.08-4.08-4.08,1.83-4.08,4.08,1.82,4.08,4.08,4.08"/>
  <path class="cls-8" d="M257.85,217.99h-11.25s-1.67-.05-1.77-3.93c-.11-4.27,2.41-7.93,2.95-8.84.91-1.54,1.84-.8,1.96-1.47.1-.54.29-.54.29-.54h4.32s.2,0,.29.54c.12.68,1.05-.06,1.96,1.47.54.91,3.05,4.57,2.95,8.84-.1,3.88-1.77,3.93-1.77,3.93h-11.25"/>
  <path class="cls-2" d="M257.85,217.99h-11.25s-1.67-.05-1.77-3.93c-.11-4.27,2.41-7.93,2.95-8.84.91-1.54,1.84-.8,1.96-1.47.1-.54.29-.54.29-.54h4.32s.2,0,.29.54c.12.68,1.05-.06,1.96,1.47.54.91,3.05,4.57,2.95,8.84-.1,3.88-1.77,3.93-1.77,3.93h-11.25"/>
  <path class="cls-4" d="M273.26,40.27c2.25,0,4.08-1.83,4.08-4.08s-1.83-4.08-4.08-4.08-4.08,1.83-4.08,4.08,1.83,4.08,4.08,4.08"/>
  <path class="cls-19" d="M278.75,54.47h-11.25s-1.67-.05-1.77-3.93c-.11-4.27,2.41-7.93,2.95-8.84.91-1.54,1.84-.8,1.96-1.47.1-.54.29-.54.29-.54h4.32s.2,0,.29.54c.12.68,1.05-.06,1.96,1.47.54.91,3.05,4.57,2.95,8.84-.1,3.88-1.77,3.93-1.77,3.93h-11.25"/>
  <path class="cls-2" d="M278.75,54.47h-11.25s-1.67-.05-1.77-3.93c-.11-4.27,2.41-7.93,2.95-8.84.91-1.54,1.84-.8,1.96-1.47.1-.54.29-.54.29-.54h4.32s.2,0,.29.54c.12.68,1.05-.06,1.96,1.47.54.91,3.05,4.57,2.95,8.84-.1,3.88-1.77,3.93-1.77,3.93h-11.25"/>
  <path class="cls-1" d="M230.46,40.27c2.25,0,4.08-1.83,4.08-4.08s-1.83-4.08-4.08-4.08-4.08,1.83-4.08,4.08,1.83,4.08,4.08,4.08"/>
  <path class="cls-8" d="M235.95,54.47h-11.25s-1.67-.05-1.77-3.93c-.11-4.27,2.41-7.93,2.95-8.84.91-1.54,1.84-.8,1.96-1.47.1-.54.29-.54.29-.54h4.32s.2,0,.29.54c.12.68,1.05-.06,1.96,1.47.54.91,3.05,4.57,2.95,8.84-.1,3.88-1.77,3.93-1.77,3.93h-11.25"/>
  <path class="cls-2" d="M235.95,54.47h-11.25s-1.67-.05-1.77-3.93c-.11-4.27,2.41-7.93,2.95-8.84.91-1.54,1.84-.8,1.96-1.47.1-.54.29-.54.29-.54h4.32s.2,0,.29.54c.12.68,1.05-.06,1.96,1.47.54.91,3.05,4.57,2.95,8.84-.1,3.88-1.77,3.93-1.77,3.93h-11.25"/>
  <path class="cls-4" d="M294.81,67.64c2.25,0,4.08-1.83,4.08-4.08s-1.82-4.08-4.08-4.08-4.08,1.83-4.08,4.08,1.83,4.08,4.08,4.08"/>
  <path class="cls-8" d="M300.3,81.84h-11.25s-1.67-.05-1.77-3.93c-.11-4.27,2.41-7.93,2.95-8.84.91-1.54,1.84-.8,1.96-1.47.1-.54.29-.54.29-.54h4.32s.2,0,.29.54c.12.68,1.05-.06,1.96,1.47.54.91,3.05,4.57,2.95,8.84-.1,3.88-1.77,3.93-1.77,3.93h-11.25"/>
  <path class="cls-2" d="M300.3,81.84h-11.25s-1.67-.05-1.77-3.93c-.11-4.27,2.41-7.93,2.95-8.84.91-1.54,1.84-.8,1.96-1.47.1-.54.29-.54.29-.54h4.32s.2,0,.29.54c.12.68,1.05-.06,1.96,1.47.54.91,3.05,4.57,2.95,8.84-.1,3.88-1.77,3.93-1.77,3.93h-11.25"/>
  <path class="cls-18" d="M252.01,67.64c2.25,0,4.08-1.83,4.08-4.08s-1.83-4.08-4.08-4.08-4.08,1.83-4.08,4.08,1.83,4.08,4.08,4.08"/>
  <path class="cls-8" d="M257.5,81.84h-11.25s-1.67-.05-1.77-3.93c-.11-4.27,2.41-7.93,2.95-8.84.91-1.54,1.84-.8,1.96-1.47.1-.54.29-.54.29-.54h4.32s.2,0,.29.54c.12.68,1.05-.06,1.96,1.47.54.91,3.05,4.57,2.95,8.84-.1,3.88-1.77,3.93-1.77,3.93h-11.25"/>
  <path class="cls-2" d="M257.5,81.84h-11.25s-1.67-.05-1.77-3.93c-.11-4.27,2.41-7.93,2.95-8.84.91-1.54,1.84-.8,1.96-1.47.1-.54.29-.54.29-.54h4.32s.2,0,.29.54c.12.68,1.05-.06,1.96,1.47.54.91,3.05,4.57,2.95,8.84-.1,3.88-1.77,3.93-1.77,3.93h-11.25"/>
  <path class="cls-4" d="M294.8,94.79c2.25,0,4.08-1.83,4.08-4.08s-1.83-4.08-4.08-4.08-4.08,1.83-4.08,4.08,1.82,4.08,4.08,4.08"/>
  <path class="cls-13" d="M300.28,108.99h-11.25s-1.67-.05-1.77-3.93c-.11-4.27,2.41-7.93,2.95-8.84.91-1.54,1.84-.8,1.96-1.47.1-.54.29-.54.29-.54h4.32s.2,0,.29.54c.12.68,1.05-.06,1.96,1.47.54.91,3.05,4.57,2.95,8.84-.1,3.88-1.77,3.93-1.77,3.93h-11.25"/>
  <path class="cls-2" d="M300.28,108.99h-11.25s-1.67-.05-1.77-3.93c-.11-4.27,2.41-7.93,2.95-8.84.91-1.54,1.84-.8,1.96-1.47.1-.54.29-.54.29-.54h4.32s.2,0,.29.54c.12.68,1.05-.06,1.96,1.47.54.91,3.05,4.57,2.95,8.84-.1,3.88-1.77,3.93-1.77,3.93h-11.25"/>
  <path class="cls-14" d="M252,94.79c2.25,0,4.08-1.83,4.08-4.08s-1.83-4.08-4.08-4.08-4.08,1.83-4.08,4.08,1.82,4.08,4.08,4.08"/>
  <path class="cls-6" d="M257.48,108.99h-11.25s-1.67-.05-1.77-3.93c-.11-4.27,2.41-7.93,2.95-8.84.91-1.54,1.84-.8,1.96-1.47.1-.54.29-.54.29-.54h4.32s.2,0,.29.54c.12.68,1.05-.06,1.96,1.47.54.91,3.05,4.57,2.95,8.84-.1,3.88-1.77,3.93-1.77,3.93h-11.25"/>
  <path class="cls-2" d="M257.48,108.99h-11.25s-1.67-.05-1.77-3.93c-.11-4.27,2.41-7.93,2.95-8.84.91-1.54,1.84-.8,1.96-1.47.1-.54.29-.54.29-.54h4.32s.2,0,.29.54c.12.68,1.05-.06,1.96,1.47.54.91,3.05,4.57,2.95,8.84-.1,3.88-1.77,3.93-1.77,3.93h-11.25"/>
  <path class="cls-14" d="M294.8,40.27c2.25,0,4.08-1.83,4.08-4.08s-1.83-4.08-4.08-4.08-4.08,1.83-4.08,4.08,1.82,4.08,4.08,4.08"/>
  <path class="cls-5" d="M300.28,54.47h-11.25s-1.67-.05-1.77-3.93c-.11-4.27,2.41-7.93,2.95-8.84.91-1.54,1.84-.8,1.96-1.47.1-.54.29-.54.29-.54h4.32s.2,0,.29.54c.12.68,1.05-.06,1.96,1.47.54.91,3.05,4.57,2.95,8.84-.1,3.88-1.77,3.93-1.77,3.93h-11.25"/>
  <path class="cls-2" d="M300.28,54.47h-11.25s-1.67-.05-1.77-3.93c-.11-4.27,2.41-7.93,2.95-8.84.91-1.54,1.84-.8,1.96-1.47.1-.54.29-.54.29-.54h4.32s.2,0,.29.54c.12.68,1.05-.06,1.96,1.47.54.91,3.05,4.57,2.95,8.84-.1,3.88-1.77,3.93-1.77,3.93h-11.25"/>
  <path class="cls-14" d="M252,40.27c2.25,0,4.08-1.83,4.08-4.08s-1.83-4.08-4.08-4.08-4.08,1.83-4.08,4.08,1.82,4.08,4.08,4.08"/>
  <path class="cls-5" d="M257.48,54.47h-11.25s-1.67-.05-1.77-3.93c-.11-4.27,2.41-7.93,2.95-8.84.91-1.54,1.84-.8,1.96-1.47.1-.54.29-.54.29-.54h4.32s.2,0,.29.54c.12.68,1.05-.06,1.96,1.47.54.91,3.05,4.57,2.95,8.84-.1,3.88-1.77,3.93-1.77,3.93h-11.25"/>
  <path class="cls-2" d="M257.48,54.47h-11.25s-1.67-.05-1.77-3.93c-.11-4.27,2.41-7.93,2.95-8.84.91-1.54,1.84-.8,1.96-1.47.1-.54.29-.54.29-.54h4.32s.2,0,.29.54c.12.68,1.05-.06,1.96,1.47.54.91,3.05,4.57,2.95,8.84-.1,3.88-1.77,3.93-1.77,3.93h-11.25"/>
  <path class="cls-4" d="M273.26,176.37c2.25,0,4.08-1.83,4.08-4.08s-1.83-4.08-4.08-4.08-4.08,1.83-4.08,4.08,1.82,4.08,4.08,4.08"/>
  <path class="cls-19" d="M278.75,190.57h-11.25s-1.67-.05-1.77-3.93c-.11-4.27,2.41-7.93,2.95-8.84.91-1.54,1.84-.8,1.96-1.47.1-.54.29-.54.29-.54h4.32s.2,0,.29.54c.12.68,1.05-.06,1.96,1.47.54.91,3.05,4.57,2.95,8.84-.1,3.88-1.77,3.93-1.77,3.93h-11.25"/>
  <path class="cls-2" d="M278.75,190.57h-11.25s-1.67-.05-1.77-3.93c-.11-4.27,2.41-7.93,2.95-8.84.91-1.54,1.84-.8,1.96-1.47.1-.54.29-.54.29-.54h4.32s.2,0,.29.54c.12.68,1.05-.06,1.96,1.47.54.91,3.05,4.57,2.95,8.84-.1,3.88-1.77,3.93-1.77,3.93h-11.25"/>
  <path class="cls-4" d="M230.46,176.37c2.25,0,4.08-1.83,4.08-4.08s-1.83-4.08-4.08-4.08-4.08,1.83-4.08,4.08,1.82,4.08,4.08,4.08"/>
  <path class="cls-8" d="M235.95,190.57h-11.25s-1.67-.05-1.77-3.93c-.11-4.27,2.41-7.93,2.95-8.84.91-1.54,1.84-.8,1.96-1.47.1-.54.29-.54.29-.54h4.32s.2,0,.29.54c.12.68,1.05-.06,1.96,1.47.54.91,3.05,4.57,2.95,8.84-.1,3.88-1.77,3.93-1.77,3.93h-11.25"/>
  <path class="cls-2" d="M235.95,190.57h-11.25s-1.67-.05-1.77-3.93c-.11-4.27,2.41-7.93,2.95-8.84.91-1.54,1.84-.8,1.96-1.47.1-.54.29-.54.29-.54h4.32s.2,0,.29.54c.12.68,1.05-.06,1.96,1.47.54.91,3.05,4.57,2.95,8.84-.1,3.88-1.77,3.93-1.77,3.93h-11.25"/>
  <path class="cls-1" d="M273.26,94.79c2.25,0,4.08-1.83,4.08-4.08s-1.83-4.08-4.08-4.08-4.08,1.83-4.08,4.08,1.82,4.08,4.08,4.08"/>
  <path class="cls-19" d="M278.75,108.99h-11.25s-1.67-.05-1.77-3.93c-.11-4.27,2.41-7.93,2.95-8.84.91-1.54,1.84-.8,1.96-1.47.1-.54.29-.54.29-.54h4.32s.2,0,.29.54c.12.68,1.05-.06,1.96,1.47.54.91,3.05,4.57,2.95,8.84-.1,3.88-1.77,3.93-1.77,3.93h-11.25"/>
  <path class="cls-2" d="M278.75,108.99h-11.25s-1.67-.05-1.77-3.93c-.11-4.27,2.41-7.93,2.95-8.84.91-1.54,1.84-.8,1.96-1.47.1-.54.29-.54.29-.54h4.32s.2,0,.29.54c.12.68,1.05-.06,1.96,1.47.54.91,3.05,4.57,2.95,8.84-.1,3.88-1.77,3.93-1.77,3.93h-11.25"/>
  <path class="cls-1" d="M230.46,94.79c2.25,0,4.08-1.83,4.08-4.08s-1.83-4.08-4.08-4.08-4.08,1.83-4.08,4.08,1.82,4.08,4.08,4.08"/>
  <path class="cls-19" d="M235.95,108.99h-11.25s-1.67-.05-1.77-3.93c-.11-4.27,2.41-7.93,2.95-8.84.91-1.54,1.84-.8,1.96-1.47.1-.54.29-.54.29-.54h4.32s.2,0,.29.54c.12.68,1.05-.06,1.96,1.47.54.91,3.05,4.57,2.95,8.84-.1,3.88-1.77,3.93-1.77,3.93h-11.25"/>
  <path class="cls-2" d="M235.95,108.99h-11.25s-1.67-.05-1.77-3.93c-.11-4.27,2.41-7.93,2.95-8.84.91-1.54,1.84-.8,1.96-1.47.1-.54.29-.54.29-.54h4.32s.2,0,.29.54c.12.68,1.05-.06,1.96,1.47.54.91,3.05,4.57,2.95,8.84-.1,3.88-1.77,3.93-1.77,3.93h-11.25"/>
  <path class="cls-7" d="M273.08,67.98c2.2,0,3.98-1.78,3.98-3.98s-1.78-3.98-3.98-3.98-3.98,1.78-3.98,3.98,1.78,3.98,3.98,3.98"/>
  <path class="cls-9" d="M278.44,81.84h-10.98s-1.63-.05-1.73-3.83c-.11-4.17,2.35-7.74,2.88-8.63.89-1.5,1.8-.78,1.92-1.44.1-.53.29-.53.29-.53h4.22s.19,0,.29.53c.12.66,1.03-.06,1.92,1.44.53.89,2.98,4.46,2.88,8.63-.1,3.79-1.73,3.83-1.73,3.83h-10.98"/>
  <path class="cls-2" d="M278.44,81.84h-10.98s-1.63-.05-1.73-3.83c-.11-4.17,2.35-7.74,2.88-8.63.89-1.5,1.8-.78,1.92-1.44.1-.53.29-.53.29-.53h4.22s.19,0,.29.53c.12.66,1.03-.06,1.92,1.44.53.89,2.98,4.46,2.88,8.63-.1,3.79-1.73,3.83-1.73,3.83h-10.98"/>
  <path class="cls-12" d="M230.28,67.98c2.2,0,3.98-1.78,3.98-3.98s-1.78-3.98-3.98-3.98-3.98,1.78-3.98,3.98,1.78,3.98,3.98,3.98"/>
  <path class="cls-9" d="M235.64,81.84h-10.98s-1.63-.05-1.73-3.83c-.11-4.17,2.35-7.74,2.88-8.63.89-1.5,1.8-.78,1.92-1.44.1-.53.29-.53.29-.53h4.22s.19,0,.29.53c.12.66,1.03-.06,1.92,1.44.53.89,2.98,4.46,2.88,8.63-.1,3.79-1.73,3.83-1.73,3.83h-10.98"/>
  <path class="cls-2" d="M235.64,81.84h-10.98s-1.63-.05-1.73-3.83c-.11-4.17,2.35-7.74,2.88-8.63.89-1.5,1.8-.78,1.92-1.44.1-.53.29-.53.29-.53h4.22s.19,0,.29.53c.12.66,1.03-.06,1.92,1.44.53.89,2.98,4.46,2.88,8.63-.1,3.79-1.73,3.83-1.73,3.83h-10.98"/>
  <path class="cls-17" d="M273.26,149.27c2.25,0,4.08-1.83,4.08-4.08s-1.83-4.08-4.08-4.08-4.08,1.83-4.08,4.08,1.82,4.08,4.08,4.08"/>
  <path class="cls-5" d="M278.75,163.47h-11.25s-1.67-.05-1.77-3.93c-.11-4.27,2.41-7.93,2.95-8.84.91-1.54,1.84-.8,1.96-1.47.1-.54.29-.54.29-.54h4.32s.2,0,.29.54c.12.68,1.05-.06,1.96,1.47.54.91,3.05,4.57,2.95,8.84-.1,3.88-1.77,3.93-1.77,3.93h-11.25"/>
  <path class="cls-2" d="M278.75,163.47h-11.25s-1.67-.05-1.77-3.93c-.11-4.27,2.41-7.93,2.95-8.84.91-1.54,1.84-.8,1.96-1.47.1-.54.29-.54.29-.54h4.32s.2,0,.29.54c.12.68,1.05-.06,1.96,1.47.54.91,3.05,4.57,2.95,8.84-.1,3.88-1.77,3.93-1.77,3.93h-11.25"/>
  <path class="cls-17" d="M230.46,149.27c2.25,0,4.08-1.83,4.08-4.08s-1.83-4.08-4.08-4.08-4.08,1.83-4.08,4.08,1.82,4.08,4.08,4.08"/>
  <path class="cls-13" d="M235.95,163.47h-11.25s-1.67-.05-1.77-3.93c-.11-4.27,2.41-7.93,2.95-8.84.91-1.54,1.84-.8,1.96-1.47.1-.54.29-.54.29-.54h4.32s.2,0,.29.54c.12.68,1.05-.06,1.96,1.47.54.91,3.05,4.57,2.95,8.84-.1,3.88-1.77,3.93-1.77,3.93h-11.25"/>
  <path class="cls-2" d="M235.95,163.47h-11.25s-1.67-.05-1.77-3.93c-.11-4.27,2.41-7.93,2.95-8.84.91-1.54,1.84-.8,1.96-1.47.1-.54.29-.54.29-.54h4.32s.2,0,.29.54c.12.68,1.05-.06,1.96,1.47.54.91,3.05,4.57,2.95,8.84-.1,3.88-1.77,3.93-1.77,3.93h-11.25"/>
  <path class="cls-18" d="M273.26,203.79c2.25,0,4.08-1.83,4.08-4.08s-1.83-4.08-4.08-4.08-4.08,1.83-4.08,4.08,1.82,4.08,4.08,4.08"/>
  <path class="cls-13" d="M278.75,217.99h-11.25s-1.67-.05-1.77-3.93c-.11-4.27,2.41-7.93,2.95-8.84.91-1.54,1.84-.8,1.96-1.47.1-.54.29-.54.29-.54h4.32s.2,0,.29.54c.12.68,1.05-.06,1.96,1.47.54.91,3.05,4.57,2.95,8.84-.1,3.88-1.77,3.93-1.77,3.93h-11.25"/>
  <path class="cls-2" d="M278.75,217.99h-11.25s-1.67-.05-1.77-3.93c-.11-4.27,2.41-7.93,2.95-8.84.91-1.54,1.84-.8,1.96-1.47.1-.54.29-.54.29-.54h4.32s.2,0,.29.54c.12.68,1.05-.06,1.96,1.47.54.91,3.05,4.57,2.95,8.84-.1,3.88-1.77,3.93-1.77,3.93h-11.25"/>
  <path class="cls-18" d="M230.46,203.79c2.25,0,4.08-1.83,4.08-4.08s-1.83-4.08-4.08-4.08-4.08,1.83-4.08,4.08,1.82,4.08,4.08,4.08"/>
  <path class="cls-13" d="M235.95,217.99h-11.25s-1.67-.05-1.77-3.93c-.11-4.27,2.41-7.93,2.95-8.84.91-1.54,1.84-.8,1.96-1.47.1-.54.29-.54.29-.54h4.32s.2,0,.29.54c.12.68,1.05-.06,1.96,1.47.54.91,3.05,4.57,2.95,8.84-.1,3.88-1.77,3.93-1.77,3.93h-11.25"/>
  <path class="cls-2" d="M235.95,217.99h-11.25s-1.67-.05-1.77-3.93c-.11-4.27,2.41-7.93,2.95-8.84.91-1.54,1.84-.8,1.96-1.47.1-.54.29-.54.29-.54h4.32s.2,0,.29.54c.12.68,1.05-.06,1.96,1.47.54.91,3.05,4.57,2.95,8.84-.1,3.88-1.77,3.93-1.77,3.93h-11.25"/>
  <path class="cls-12" d="M454,176.48c2.2,0,3.98-1.78,3.98-3.98s-1.78-3.98-3.98-3.98-3.98,1.78-3.98,3.98,1.78,3.98,3.98,3.98"/>
  <path class="cls-9" d="M459.35,190.34h-10.98s-1.63-.05-1.73-3.83c-.1-4.17,2.35-7.74,2.88-8.63.89-1.5,1.8-.78,1.92-1.44.1-.53.29-.53.29-.53h4.22s.19,0,.29.53c.12.66,1.03-.06,1.92,1.44.53.89,2.98,4.46,2.88,8.63-.1,3.79-1.73,3.83-1.73,3.83h-10.98"/>
  <path class="cls-2" d="M459.35,190.34h-10.98s-1.63-.05-1.73-3.83c-.1-4.17,2.35-7.74,2.88-8.63.89-1.5,1.8-.78,1.92-1.44.1-.53.29-.53.29-.53h4.22s.19,0,.29.53c.12.66,1.03-.06,1.92,1.44.53.89,2.98,4.46,2.88,8.63-.1,3.79-1.73,3.83-1.73,3.83h-10.98"/>
  <path class="cls-12" d="M411.2,176.48c2.2,0,3.98-1.78,3.98-3.98s-1.78-3.98-3.98-3.98-3.98,1.78-3.98,3.98,1.78,3.98,3.98,3.98"/>
  <path class="cls-9" d="M416.55,190.34h-10.98s-1.63-.05-1.73-3.83c-.1-4.17,2.35-7.74,2.88-8.63.89-1.5,1.8-.78,1.92-1.44.1-.53.29-.53.29-.53h4.22s.19,0,.29.53c.12.66,1.03-.06,1.92,1.44.53.89,2.98,4.46,2.88,8.63-.1,3.79-1.73,3.83-1.73,3.83h-10.98"/>
  <path class="cls-2" d="M416.55,190.34h-10.98s-1.63-.05-1.73-3.83c-.1-4.17,2.35-7.74,2.88-8.63.89-1.5,1.8-.78,1.92-1.44.1-.53.29-.53.29-.53h4.22s.19,0,.29.53c.12.66,1.03-.06,1.92,1.44.53.89,2.98,4.46,2.88,8.63-.1,3.79-1.73,3.83-1.73,3.83h-10.98"/>
  <path class="cls-4" d="M454.17,231.22c2.25,0,4.08-1.83,4.08-4.08s-1.83-4.08-4.08-4.08-4.08,1.83-4.08,4.08,1.83,4.08,4.08,4.08"/>
  <path class="cls-8" d="M459.66,245.42h-11.25s-1.67-.05-1.77-3.93c-.11-4.27,2.41-7.93,2.95-8.84.91-1.54,1.84-.8,1.96-1.47.1-.54.29-.54.29-.54h4.32s.2,0,.29.54c.12.68,1.05-.06,1.96,1.47.54.91,3.05,4.57,2.95,8.84-.1,3.88-1.77,3.93-1.77,3.93h-11.25"/>
  <path class="cls-2" d="M459.66,245.42h-11.25s-1.67-.05-1.77-3.93c-.11-4.27,2.41-7.93,2.95-8.84.91-1.54,1.84-.8,1.96-1.47.1-.54.29-.54.29-.54h4.32s.2,0,.29.54c.12.68,1.05-.06,1.96,1.47.54.91,3.05,4.57,2.95,8.84-.1,3.88-1.77,3.93-1.77,3.93h-11.25"/>
  <path class="cls-4" d="M411.38,231.22c2.25,0,4.08-1.83,4.08-4.08s-1.83-4.08-4.08-4.08-4.08,1.83-4.08,4.08,1.83,4.08,4.08,4.08"/>
  <path class="cls-5" d="M416.86,245.42h-11.25s-1.67-.05-1.77-3.93c-.11-4.27,2.41-7.93,2.95-8.84.91-1.54,1.84-.8,1.96-1.47.1-.54.29-.54.29-.54h4.32s.2,0,.29.54c.12.68,1.05-.06,1.96,1.47.54.91,3.05,4.57,2.95,8.84-.1,3.88-1.77,3.93-1.77,3.93h-11.25"/>
  <path class="cls-2" d="M416.86,245.42h-11.25s-1.67-.05-1.77-3.93c-.11-4.27,2.41-7.93,2.95-8.84.91-1.54,1.84-.8,1.96-1.47.1-.54.29-.54.29-.54h4.32s.2,0,.29.54c.12.68,1.05-.06,1.96,1.47.54.91,3.05,4.57,2.95,8.84-.1,3.88-1.77,3.93-1.77,3.93h-11.25"/>
  <path class="cls-12" d="M432.1,122.53c2.2,0,3.98-1.78,3.98-3.98s-1.78-3.98-3.98-3.98-3.98,1.78-3.98,3.98,1.78,3.98,3.98,3.98"/>
  <path class="cls-9" d="M437.45,136.39h-10.98s-1.63-.05-1.73-3.83c-.1-4.17,2.35-7.74,2.88-8.63.89-1.5,1.8-.78,1.92-1.44.1-.53.29-.53.29-.53h4.22s.19,0,.29.53c.12.66,1.03-.06,1.92,1.44.53.89,2.98,4.46,2.88,8.63-.1,3.79-1.73,3.83-1.73,3.83h-10.98"/>
  <path class="cls-2" d="M437.45,136.39h-10.98s-1.63-.05-1.73-3.83c-.1-4.17,2.35-7.74,2.88-8.63.89-1.5,1.8-.78,1.92-1.44.1-.53.29-.53.29-.53h4.22s.19,0,.29.53c.12.66,1.03-.06,1.92,1.44.53.89,2.98,4.46,2.88,8.63-.1,3.79-1.73,3.83-1.73,3.83h-10.98"/>
  <path class="cls-12" d="M389.3,122.53c2.2,0,3.98-1.78,3.98-3.98s-1.78-3.98-3.98-3.98-3.98,1.78-3.98,3.98,1.78,3.98,3.98,3.98"/>
  <path class="cls-9" d="M394.65,136.39h-10.98s-1.63-.05-1.73-3.83c-.1-4.17,2.35-7.74,2.88-8.63.89-1.5,1.8-.78,1.92-1.44.1-.53.29-.53.29-.53h4.22s.19,0,.29.53c.12.66,1.03-.06,1.92,1.44.53.89,2.98,4.46,2.88,8.63-.1,3.79-1.73,3.83-1.73,3.83h-10.98"/>
  <path class="cls-2" d="M394.65,136.39h-10.98s-1.63-.05-1.73-3.83c-.1-4.17,2.35-7.74,2.88-8.63.89-1.5,1.8-.78,1.92-1.44.1-.53.29-.53.29-.53h4.22s.19,0,.29.53c.12.66,1.03-.06,1.92,1.44.53.89,2.98,4.46,2.88,8.63-.1,3.79-1.73,3.83-1.73,3.83h-10.98"/>
  <path class="cls-12" d="M367.9,122.53c2.2,0,3.98-1.78,3.98-3.98s-1.78-3.98-3.98-3.98-3.98,1.78-3.98,3.98,1.78,3.98,3.98,3.98"/>
  <path class="cls-9" d="M373.25,136.39h-10.98s-1.63-.05-1.73-3.83c-.1-4.17,2.35-7.74,2.88-8.63.89-1.5,1.8-.78,1.92-1.44.1-.53.29-.53.29-.53h4.22s.19,0,.29.53c.12.66,1.03-.06,1.92,1.44.53.89,2.98,4.46,2.88,8.63-.1,3.79-1.73,3.83-1.73,3.83h-10.98"/>
  <path class="cls-2" d="M373.25,136.39h-10.98s-1.63-.05-1.73-3.83c-.1-4.17,2.35-7.74,2.88-8.63.89-1.5,1.8-.78,1.92-1.44.1-.53.29-.53.29-.53h4.22s.19,0,.29.53c.12.66,1.03-.06,1.92,1.44.53.89,2.98,4.46,2.88,8.63-.1,3.79-1.73,3.83-1.73,3.83h-10.98"/>
  <path class="cls-18" d="M453.81,13.15c2.25,0,4.08-1.83,4.08-4.08s-1.83-4.08-4.08-4.08-4.08,1.83-4.08,4.08,1.83,4.08,4.08,4.08"/>
  <path class="cls-13" d="M459.3,27.35h-11.25s-1.67-.05-1.77-3.93c-.11-4.27,2.41-7.93,2.95-8.84.91-1.54,1.84-.8,1.96-1.47.1-.54.29-.54.29-.54h4.32s.2,0,.29.54c.12.68,1.05-.06,1.96,1.47.54.91,3.05,4.57,2.95,8.84-.1,3.88-1.77,3.93-1.77,3.93h-11.25"/>
  <path class="cls-2" d="M459.3,27.35h-11.25s-1.67-.05-1.77-3.93c-.11-4.27,2.41-7.93,2.95-8.84.91-1.54,1.84-.8,1.96-1.47.1-.54.29-.54.29-.54h4.32s.2,0,.29.54c.12.68,1.05-.06,1.96,1.47.54.91,3.05,4.57,2.95,8.84-.1,3.88-1.77,3.93-1.77,3.93h-11.25"/>
  <path class="cls-18" d="M411.01,13.15c2.25,0,4.08-1.83,4.08-4.08s-1.83-4.08-4.08-4.08-4.08,1.83-4.08,4.08,1.83,4.08,4.08,4.08"/>
  <path class="cls-13" d="M416.5,27.35h-11.25s-1.67-.05-1.77-3.93c-.11-4.27,2.41-7.93,2.95-8.84.91-1.54,1.84-.8,1.96-1.47.1-.54.29-.54.29-.54h4.32s.2,0,.29.54c.12.68,1.05-.06,1.96,1.47.54.91,3.05,4.57,2.95,8.84-.1,3.88-1.77,3.93-1.77,3.93h-11.25"/>
  <path class="cls-2" d="M416.5,27.35h-11.25s-1.67-.05-1.77-3.93c-.11-4.27,2.41-7.93,2.95-8.84.91-1.54,1.84-.8,1.96-1.47.1-.54.29-.54.29-.54h4.32s.2,0,.29.54c.12.68,1.05-.06,1.96,1.47.54.91,3.05,4.57,2.95,8.84-.1,3.88-1.77,3.93-1.77,3.93h-11.25"/>
  <path class="cls-4" d="M432.27,13.15c2.25,0,4.08-1.83,4.08-4.08s-1.83-4.08-4.08-4.08-4.08,1.83-4.08,4.08,1.83,4.08,4.08,4.08"/>
  <path class="cls-19" d="M437.76,27.35h-11.25s-1.67-.05-1.77-3.93c-.11-4.27,2.41-7.93,2.95-8.84.91-1.54,1.84-.8,1.96-1.47.1-.54.29-.54.29-.54h4.32s.2,0,.29.54c.12.68,1.05-.06,1.96,1.47.54.91,3.05,4.57,2.95,8.84-.1,3.88-1.77,3.93-1.77,3.93h-11.25"/>
  <path class="cls-2" d="M437.76,27.35h-11.25s-1.67-.05-1.77-3.93c-.11-4.27,2.41-7.93,2.95-8.84.91-1.54,1.84-.8,1.96-1.47.1-.54.29-.54.29-.54h4.32s.2,0,.29.54c.12.68,1.05-.06,1.96,1.47.54.91,3.05,4.57,2.95,8.84-.1,3.88-1.77,3.93-1.77,3.93h-11.25"/>
  <path class="cls-1" d="M389.48,13.15c2.25,0,4.08-1.83,4.08-4.08s-1.83-4.08-4.08-4.08-4.08,1.83-4.08,4.08,1.83,4.08,4.08,4.08"/>
  <path class="cls-19" d="M394.96,27.35h-11.25s-1.67-.05-1.77-3.93c-.11-4.27,2.41-7.93,2.95-8.84.91-1.54,1.84-.8,1.96-1.47.1-.54.29-.54.29-.54h4.32s.2,0,.29.54c.12.68,1.05-.06,1.96,1.47.54.91,3.05,4.57,2.95,8.84-.1,3.88-1.77,3.93-1.77,3.93h-11.25"/>
  <path class="cls-2" d="M394.96,27.35h-11.25s-1.67-.05-1.77-3.93c-.11-4.27,2.41-7.93,2.95-8.84.91-1.54,1.84-.8,1.96-1.47.1-.54.29-.54.29-.54h4.32s.2,0,.29.54c.12.68,1.05-.06,1.96,1.47.54.91,3.05,4.57,2.95,8.84-.1,3.88-1.77,3.93-1.77,3.93h-11.25"/>
  <path class="cls-1" d="M368.08,13.15c2.25,0,4.08-1.83,4.08-4.08s-1.83-4.08-4.08-4.08-4.08,1.83-4.08,4.08,1.83,4.08,4.08,4.08"/>
  <path class="cls-8" d="M373.56,27.35h-11.25s-1.67-.05-1.77-3.93c-.11-4.27,2.41-7.93,2.95-8.84.91-1.54,1.84-.8,1.96-1.47.1-.54.29-.54.29-.54h4.32s.2,0,.29.54c.12.68,1.05-.06,1.96,1.47.54.91,3.05,4.57,2.95,8.84-.1,3.88-1.77,3.93-1.77,3.93h-11.25"/>
  <path class="cls-2" d="M373.56,27.35h-11.25s-1.67-.05-1.77-3.93c-.11-4.27,2.41-7.93,2.95-8.84.91-1.54,1.84-.8,1.96-1.47.1-.54.29-.54.29-.54h4.32s.2,0,.29.54c.12.68,1.05-.06,1.96,1.47.54.91,3.05,4.57,2.95,8.84-.1,3.88-1.77,3.93-1.77,3.93h-11.25"/>
  <path class="cls-18" d="M453.82,122.46c2.25,0,4.08-1.83,4.08-4.08s-1.83-4.08-4.08-4.08-4.08,1.83-4.08,4.08,1.83,4.08,4.08,4.08"/>
  <path class="cls-13" d="M459.31,136.66h-11.25s-1.67-.05-1.77-3.93c-.11-4.27,2.41-7.93,2.95-8.84.91-1.54,1.84-.8,1.96-1.47.1-.54.29-.54.29-.54h4.32s.2,0,.29.54c.12.68,1.05-.06,1.96,1.47.54.91,3.05,4.57,2.95,8.84-.1,3.88-1.77,3.93-1.77,3.93h-11.25"/>
  <path class="cls-2" d="M459.31,136.66h-11.25s-1.67-.05-1.77-3.93c-.11-4.27,2.41-7.93,2.95-8.84.91-1.54,1.84-.8,1.96-1.47.1-.54.29-.54.29-.54h4.32s.2,0,.29.54c.12.68,1.05-.06,1.96,1.47.54.91,3.05,4.57,2.95,8.84-.1,3.88-1.77,3.93-1.77,3.93h-11.25"/>
  <path class="cls-18" d="M411.03,122.46c2.25,0,4.08-1.83,4.08-4.08s-1.83-4.08-4.08-4.08-4.08,1.83-4.08,4.08,1.83,4.08,4.08,4.08"/>
  <path class="cls-13" d="M416.51,136.66h-11.25s-1.67-.05-1.77-3.93c-.11-4.27,2.41-7.93,2.95-8.84.91-1.54,1.84-.8,1.96-1.47.1-.54.29-.54.29-.54h4.32s.2,0,.29.54c.12.68,1.05-.06,1.96,1.47.54.91,3.05,4.57,2.95,8.84-.1,3.88-1.77,3.93-1.77,3.93h-11.25"/>
  <path class="cls-2" d="M416.51,136.66h-11.25s-1.67-.05-1.77-3.93c-.11-4.27,2.41-7.93,2.95-8.84.91-1.54,1.84-.8,1.96-1.47.1-.54.29-.54.29-.54h4.32s.2,0,.29.54c.12.68,1.05-.06,1.96,1.47.54.91,3.05,4.57,2.95,8.84-.1,3.88-1.77,3.93-1.77,3.93h-11.25"/>
  <path class="cls-1" d="M453.82,149.3c2.25,0,4.08-1.83,4.08-4.08s-1.83-4.08-4.08-4.08-4.08,1.83-4.08,4.08,1.83,4.08,4.08,4.08"/>
  <path class="cls-19" d="M459.31,163.5h-11.25s-1.67-.05-1.77-3.93c-.11-4.27,2.41-7.93,2.95-8.84.91-1.54,1.84-.8,1.96-1.47.1-.54.29-.54.29-.54h4.32s.2,0,.29.54c.12.68,1.05-.06,1.96,1.47.54.91,3.05,4.57,2.95,8.84-.1,3.88-1.77,3.93-1.77,3.93h-11.25"/>
  <path class="cls-2" d="M459.31,163.5h-11.25s-1.67-.05-1.77-3.93c-.11-4.27,2.41-7.93,2.95-8.84.91-1.54,1.84-.8,1.96-1.47.1-.54.29-.54.29-.54h4.32s.2,0,.29.54c.12.68,1.05-.06,1.96,1.47.54.91,3.05,4.57,2.95,8.84-.1,3.88-1.77,3.93-1.77,3.93h-11.25"/>
  <path class="cls-1" d="M411.03,149.3c2.25,0,4.08-1.83,4.08-4.08s-1.83-4.08-4.08-4.08-4.08,1.83-4.08,4.08,1.83,4.08,4.08,4.08"/>
  <path class="cls-19" d="M416.51,163.5h-11.25s-1.67-.05-1.77-3.93c-.11-4.27,2.41-7.93,2.95-8.84.91-1.54,1.84-.8,1.96-1.47.1-.54.29-.54.29-.54h4.32s.2,0,.29.54c.12.68,1.05-.06,1.96,1.47.54.91,3.05,4.57,2.95,8.84-.1,3.88-1.77,3.93-1.77,3.93h-11.25"/>
  <path class="cls-2" d="M416.51,163.5h-11.25s-1.67-.05-1.77-3.93c-.11-4.27,2.41-7.93,2.95-8.84.91-1.54,1.84-.8,1.96-1.47.1-.54.29-.54.29-.54h4.32s.2,0,.29.54c.12.68,1.05-.06,1.96,1.47.54.91,3.05,4.57,2.95,8.84-.1,3.88-1.77,3.93-1.77,3.93h-11.25"/>
  <path class="cls-1" d="M432.27,231.22c2.25,0,4.08-1.83,4.08-4.08s-1.83-4.08-4.08-4.08-4.08,1.83-4.08,4.08,1.83,4.08,4.08,4.08"/>
  <path class="cls-19" d="M437.76,245.42h-11.25s-1.67-.05-1.77-3.93c-.11-4.27,2.41-7.93,2.95-8.84.91-1.54,1.84-.8,1.96-1.47.1-.54.29-.54.29-.54h4.32s.2,0,.29.54c.12.68,1.05-.06,1.96,1.47.54.91,3.05,4.57,2.95,8.84-.1,3.88-1.77,3.93-1.77,3.93h-11.25"/>
  <path class="cls-2" d="M437.76,245.42h-11.25s-1.67-.05-1.77-3.93c-.11-4.27,2.41-7.93,2.95-8.84.91-1.54,1.84-.8,1.96-1.47.1-.54.29-.54.29-.54h4.32s.2,0,.29.54c.12.68,1.05-.06,1.96,1.47.54.91,3.05,4.57,2.95,8.84-.1,3.88-1.77,3.93-1.77,3.93h-11.25"/>
  <path class="cls-1" d="M389.48,231.22c2.25,0,4.08-1.83,4.08-4.08s-1.83-4.08-4.08-4.08-4.08,1.83-4.08,4.08,1.83,4.08,4.08,4.08"/>
  <path class="cls-19" d="M394.96,245.42h-11.25s-1.67-.05-1.77-3.93c-.11-4.27,2.41-7.93,2.95-8.84.91-1.54,1.84-.8,1.96-1.47.1-.54.29-.54.29-.54h4.32s.2,0,.29.54c.12.68,1.05-.06,1.96,1.47.54.91,3.05,4.57,2.95,8.84-.1,3.88-1.77,3.93-1.77,3.93h-11.25"/>
  <path class="cls-2" d="M394.96,245.42h-11.25s-1.67-.05-1.77-3.93c-.11-4.27,2.41-7.93,2.95-8.84.91-1.54,1.84-.8,1.96-1.47.1-.54.29-.54.29-.54h4.32s.2,0,.29.54c.12.68,1.05-.06,1.96,1.47.54.91,3.05,4.57,2.95,8.84-.1,3.88-1.77,3.93-1.77,3.93h-11.25"/>
  <path class="cls-1" d="M368.08,231.22c2.25,0,4.08-1.83,4.08-4.08s-1.83-4.08-4.08-4.08-4.08,1.83-4.08,4.08,1.83,4.08,4.08,4.08"/>
  <path class="cls-19" d="M373.56,245.42h-11.25s-1.67-.05-1.77-3.93c-.11-4.27,2.41-7.93,2.95-8.84.91-1.54,1.84-.8,1.96-1.47.1-.54.29-.54.29-.54h4.32s.2,0,.29.54c.12.68,1.05-.06,1.96,1.47.54.91,3.05,4.57,2.95,8.84-.1,3.88-1.77,3.93-1.77,3.93h-11.25"/>
  <path class="cls-2" d="M373.56,245.42h-11.25s-1.67-.05-1.77-3.93c-.11-4.27,2.41-7.93,2.95-8.84.91-1.54,1.84-.8,1.96-1.47.1-.54.29-.54.29-.54h4.32s.2,0,.29.54c.12.68,1.05-.06,1.96,1.47.54.91,3.05,4.57,2.95,8.84-.1,3.88-1.77,3.93-1.77,3.93h-11.25"/>
  <path class="cls-17" d="M454.17,203.82c2.25,0,4.08-1.83,4.08-4.08s-1.83-4.08-4.08-4.08-4.08,1.83-4.08,4.08,1.83,4.08,4.08,4.08"/>
  <path class="cls-5" d="M459.66,218.02h-11.25s-1.67-.05-1.77-3.93c-.11-4.27,2.41-7.93,2.95-8.84.91-1.54,1.84-.8,1.96-1.47.1-.54.29-.54.29-.54h4.32s.2,0,.29.54c.12.68,1.05-.06,1.96,1.47.54.91,3.05,4.57,2.95,8.84-.1,3.88-1.77,3.93-1.77,3.93h-11.25"/>
  <path class="cls-2" d="M459.66,218.02h-11.25s-1.67-.05-1.77-3.93c-.11-4.27,2.41-7.93,2.95-8.84.91-1.54,1.84-.8,1.96-1.47.1-.54.29-.54.29-.54h4.32s.2,0,.29.54c.12.68,1.05-.06,1.96,1.47.54.91,3.05,4.57,2.95,8.84-.1,3.88-1.77,3.93-1.77,3.93h-11.25"/>
  <path class="cls-17" d="M411.38,203.82c2.25,0,4.08-1.83,4.08-4.08s-1.83-4.08-4.08-4.08-4.08,1.83-4.08,4.08,1.83,4.08,4.08,4.08"/>
  <path class="cls-5" d="M416.86,218.02h-11.25s-1.67-.05-1.77-3.93c-.11-4.27,2.41-7.93,2.95-8.84.91-1.54,1.84-.8,1.96-1.47.1-.54.29-.54.29-.54h4.32s.2,0,.29.54c.12.68,1.05-.06,1.96,1.47.54.91,3.05,4.57,2.95,8.84-.1,3.88-1.77,3.93-1.77,3.93h-11.25"/>
  <path class="cls-2" d="M416.86,218.02h-11.25s-1.67-.05-1.77-3.93c-.11-4.27,2.41-7.93,2.95-8.84.91-1.54,1.84-.8,1.96-1.47.1-.54.29-.54.29-.54h4.32s.2,0,.29.54c.12.68,1.05-.06,1.96,1.47.54.91,3.05,4.57,2.95,8.84-.1,3.88-1.77,3.93-1.77,3.93h-11.25"/>
  <path class="cls-4" d="M432.27,40.3c2.25,0,4.08-1.83,4.08-4.08s-1.83-4.08-4.08-4.08-4.08,1.83-4.08,4.08,1.83,4.08,4.08,4.08"/>
  <path class="cls-8" d="M437.76,54.5h-11.25s-1.67-.05-1.77-3.93c-.11-4.27,2.41-7.93,2.95-8.84.91-1.54,1.84-.8,1.96-1.47.1-.54.29-.54.29-.54h4.32s.2,0,.29.54c.12.68,1.05-.06,1.96,1.47.54.91,3.05,4.57,2.95,8.84-.1,3.88-1.77,3.93-1.77,3.93h-11.25"/>
  <path class="cls-2" d="M437.76,54.5h-11.25s-1.67-.05-1.77-3.93c-.11-4.27,2.41-7.93,2.95-8.84.91-1.54,1.84-.8,1.96-1.47.1-.54.29-.54.29-.54h4.32s.2,0,.29.54c.12.68,1.05-.06,1.96,1.47.54.91,3.05,4.57,2.95,8.84-.1,3.88-1.77,3.93-1.77,3.93h-11.25"/>
  <path class="cls-14" d="M389.48,40.3c2.25,0,4.08-1.83,4.08-4.08s-1.83-4.08-4.08-4.08-4.08,1.83-4.08,4.08,1.83,4.08,4.08,4.08"/>
  <path class="cls-8" d="M394.96,54.5h-11.25s-1.67-.05-1.77-3.93c-.11-4.27,2.41-7.93,2.95-8.84.91-1.54,1.84-.8,1.96-1.47.1-.54.29-.54.29-.54h4.32s.2,0,.29.54c.12.68,1.05-.06,1.96,1.47.54.91,3.05,4.57,2.95,8.84-.1,3.88-1.77,3.93-1.77,3.93h-11.25"/>
  <path class="cls-2" d="M394.96,54.5h-11.25s-1.67-.05-1.77-3.93c-.11-4.27,2.41-7.93,2.95-8.84.91-1.54,1.84-.8,1.96-1.47.1-.54.29-.54.29-.54h4.32s.2,0,.29.54c.12.68,1.05-.06,1.96,1.47.54.91,3.05,4.57,2.95,8.84-.1,3.88-1.77,3.93-1.77,3.93h-11.25"/>
  <path class="cls-4" d="M368.08,40.3c2.25,0,4.08-1.83,4.08-4.08s-1.83-4.08-4.08-4.08-4.08,1.83-4.08,4.08,1.83,4.08,4.08,4.08"/>
  <path class="cls-19" d="M373.56,54.5h-11.25s-1.67-.05-1.77-3.93c-.11-4.27,2.41-7.93,2.95-8.84.91-1.54,1.84-.8,1.96-1.47.1-.54.29-.54.29-.54h4.32s.2,0,.29.54c.12.68,1.05-.06,1.96,1.47.54.91,3.05,4.57,2.95,8.84-.1,3.88-1.77,3.93-1.77,3.93h-11.25"/>
  <path class="cls-2" d="M373.56,54.5h-11.25s-1.67-.05-1.77-3.93c-.11-4.27,2.41-7.93,2.95-8.84.91-1.54,1.84-.8,1.96-1.47.1-.54.29-.54.29-.54h4.32s.2,0,.29.54c.12.68,1.05-.06,1.96,1.47.54.91,3.05,4.57,2.95,8.84-.1,3.88-1.77,3.93-1.77,3.93h-11.25"/>
  <path class="cls-4" d="M453.82,67.67c2.25,0,4.08-1.83,4.08-4.08s-1.83-4.08-4.08-4.08-4.08,1.83-4.08,4.08,1.83,4.08,4.08,4.08"/>
  <path class="cls-8" d="M459.31,81.87h-11.25s-1.67-.05-1.77-3.93c-.11-4.27,2.41-7.93,2.95-8.84.91-1.54,1.84-.8,1.96-1.47.1-.54.29-.54.29-.54h4.32s.2,0,.29.54c.12.68,1.05-.06,1.96,1.47.54.91,3.05,4.57,2.95,8.84-.1,3.88-1.77,3.93-1.77,3.93h-11.25"/>
  <path class="cls-2" d="M459.31,81.87h-11.25s-1.67-.05-1.77-3.93c-.11-4.27,2.41-7.93,2.95-8.84.91-1.54,1.84-.8,1.96-1.47.1-.54.29-.54.29-.54h4.32s.2,0,.29.54c.12.68,1.05-.06,1.96,1.47.54.91,3.05,4.57,2.95,8.84-.1,3.88-1.77,3.93-1.77,3.93h-11.25"/>
  <path class="cls-4" d="M411.03,67.67c2.25,0,4.08-1.83,4.08-4.08s-1.83-4.08-4.08-4.08-4.08,1.83-4.08,4.08,1.83,4.08,4.08,4.08"/>
  <path class="cls-8" d="M416.51,81.87h-11.25s-1.67-.05-1.77-3.93c-.11-4.27,2.41-7.93,2.95-8.84.91-1.54,1.84-.8,1.96-1.47.1-.54.29-.54.29-.54h4.32s.2,0,.29.54c.12.68,1.05-.06,1.96,1.47.54.91,3.05,4.57,2.95,8.84-.1,3.88-1.77,3.93-1.77,3.93h-11.25"/>
  <path class="cls-2" d="M416.51,81.87h-11.25s-1.67-.05-1.77-3.93c-.11-4.27,2.41-7.93,2.95-8.84.91-1.54,1.84-.8,1.96-1.47.1-.54.29-.54.29-.54h4.32s.2,0,.29.54c.12.68,1.05-.06,1.96,1.47.54.91,3.05,4.57,2.95,8.84-.1,3.88-1.77,3.93-1.77,3.93h-11.25"/>
  <path class="cls-1" d="M453.81,94.82c2.25,0,4.08-1.83,4.08-4.08s-1.83-4.08-4.08-4.08-4.08,1.83-4.08,4.08,1.83,4.08,4.08,4.08"/>
  <path class="cls-5" d="M459.3,109.02h-11.25s-1.67-.05-1.77-3.93c-.11-4.27,2.41-7.93,2.95-8.84.91-1.54,1.84-.8,1.96-1.47.1-.54.29-.54.29-.54h4.32s.2,0,.29.54c.12.68,1.05-.06,1.96,1.47.54.91,3.05,4.57,2.95,8.84-.1,3.88-1.77,3.93-1.77,3.93h-11.25"/>
  <path class="cls-2" d="M459.3,109.02h-11.25s-1.67-.05-1.77-3.93c-.11-4.27,2.41-7.93,2.95-8.84.91-1.54,1.84-.8,1.96-1.47.1-.54.29-.54.29-.54h4.32s.2,0,.29.54c.12.68,1.05-.06,1.96,1.47.54.91,3.05,4.57,2.95,8.84-.1,3.88-1.77,3.93-1.77,3.93h-11.25"/>
  <path class="cls-4" d="M411.01,94.82c2.25,0,4.08-1.83,4.08-4.08s-1.83-4.08-4.08-4.08-4.08,1.83-4.08,4.08,1.83,4.08,4.08,4.08"/>
  <path class="cls-19" d="M416.5,109.02h-11.25s-1.67-.05-1.77-3.93c-.11-4.27,2.41-7.93,2.95-8.84.91-1.54,1.84-.8,1.96-1.47.1-.54.29-.54.29-.54h4.32s.2,0,.29.54c.12.68,1.05-.06,1.96,1.47.54.91,3.05,4.57,2.95,8.84-.1,3.88-1.77,3.93-1.77,3.93h-11.25"/>
  <path class="cls-2" d="M416.5,109.02h-11.25s-1.67-.05-1.77-3.93c-.11-4.27,2.41-7.93,2.95-8.84.91-1.54,1.84-.8,1.96-1.47.1-.54.29-.54.29-.54h4.32s.2,0,.29.54c.12.68,1.05-.06,1.96,1.47.54.91,3.05,4.57,2.95,8.84-.1,3.88-1.77,3.93-1.77,3.93h-11.25"/>
  <path class="cls-14" d="M453.81,40.3c2.25,0,4.08-1.83,4.08-4.08s-1.83-4.08-4.08-4.08-4.08,1.83-4.08,4.08,1.83,4.08,4.08,4.08"/>
  <path class="cls-5" d="M459.3,54.5h-11.25s-1.67-.05-1.77-3.93c-.11-4.27,2.41-7.93,2.95-8.84.91-1.54,1.84-.8,1.96-1.47.1-.54.29-.54.29-.54h4.32s.2,0,.29.54c.12.68,1.05-.06,1.96,1.47.54.91,3.05,4.57,2.95,8.84-.1,3.88-1.77,3.93-1.77,3.93h-11.25"/>
  <path class="cls-2" d="M459.3,54.5h-11.25s-1.67-.05-1.77-3.93c-.11-4.27,2.41-7.93,2.95-8.84.91-1.54,1.84-.8,1.96-1.47.1-.54.29-.54.29-.54h4.32s.2,0,.29.54c.12.68,1.05-.06,1.96,1.47.54.91,3.05,4.57,2.95,8.84-.1,3.88-1.77,3.93-1.77,3.93h-11.25"/>
  <path class="cls-14" d="M411.01,40.3c2.25,0,4.08-1.83,4.08-4.08s-1.83-4.08-4.08-4.08-4.08,1.83-4.08,4.08,1.83,4.08,4.08,4.08"/>
  <path class="cls-5" d="M416.5,54.5h-11.25s-1.67-.05-1.77-3.93c-.11-4.27,2.41-7.93,2.95-8.84.91-1.54,1.84-.8,1.96-1.47.1-.54.29-.54.29-.54h4.32s.2,0,.29.54c.12.68,1.05-.06,1.96,1.47.54.91,3.05,4.57,2.95,8.84-.1,3.88-1.77,3.93-1.77,3.93h-11.25"/>
  <path class="cls-2" d="M416.5,54.5h-11.25s-1.67-.05-1.77-3.93c-.11-4.27,2.41-7.93,2.95-8.84.91-1.54,1.84-.8,1.96-1.47.1-.54.29-.54.29-.54h4.32s.2,0,.29.54c.12.68,1.05-.06,1.96,1.47.54.91,3.05,4.57,2.95,8.84-.1,3.88-1.77,3.93-1.77,3.93h-11.25"/>
  <path class="cls-4" d="M432.27,176.4c2.25,0,4.08-1.83,4.08-4.08s-1.83-4.08-4.08-4.08-4.08,1.83-4.08,4.08,1.83,4.08,4.08,4.08"/>
  <path class="cls-6" d="M437.76,190.6h-11.25s-1.67-.05-1.77-3.93c-.11-4.27,2.41-7.93,2.95-8.84.91-1.54,1.84-.8,1.96-1.47.1-.54.29-.54.29-.54h4.32s.2,0,.29.54c.12.68,1.05-.06,1.96,1.47.54.91,3.05,4.57,2.95,8.84-.1,3.88-1.77,3.93-1.77,3.93h-11.25"/>
  <path class="cls-2" d="M437.76,190.6h-11.25s-1.67-.05-1.77-3.93c-.11-4.27,2.41-7.93,2.95-8.84.91-1.54,1.84-.8,1.96-1.47.1-.54.29-.54.29-.54h4.32s.2,0,.29.54c.12.68,1.05-.06,1.96,1.47.54.91,3.05,4.57,2.95,8.84-.1,3.88-1.77,3.93-1.77,3.93h-11.25"/>
  <path class="cls-4" d="M389.48,176.4c2.25,0,4.08-1.83,4.08-4.08s-1.83-4.08-4.08-4.08-4.08,1.83-4.08,4.08,1.83,4.08,4.08,4.08"/>
  <path class="cls-19" d="M394.96,190.6h-11.25s-1.67-.05-1.77-3.93c-.11-4.27,2.41-7.93,2.95-8.84.91-1.54,1.84-.8,1.96-1.47.1-.54.29-.54.29-.54h4.32s.2,0,.29.54c.12.68,1.05-.06,1.96,1.47.54.91,3.05,4.57,2.95,8.84-.1,3.88-1.77,3.93-1.77,3.93h-11.25"/>
  <path class="cls-2" d="M394.96,190.6h-11.25s-1.67-.05-1.77-3.93c-.11-4.27,2.41-7.93,2.95-8.84.91-1.54,1.84-.8,1.96-1.47.1-.54.29-.54.29-.54h4.32s.2,0,.29.54c.12.68,1.05-.06,1.96,1.47.54.91,3.05,4.57,2.95,8.84-.1,3.88-1.77,3.93-1.77,3.93h-11.25"/>
  <path class="cls-4" d="M368.08,176.4c2.25,0,4.08-1.83,4.08-4.08s-1.83-4.08-4.08-4.08-4.08,1.83-4.08,4.08,1.83,4.08,4.08,4.08"/>
  <path class="cls-8" d="M373.56,190.6h-11.25s-1.67-.05-1.77-3.93c-.11-4.27,2.41-7.93,2.95-8.84.91-1.54,1.84-.8,1.96-1.47.1-.54.29-.54.29-.54h4.32s.2,0,.29.54c.12.68,1.05-.06,1.96,1.47.54.91,3.05,4.57,2.95,8.84-.1,3.88-1.77,3.93-1.77,3.93h-11.25"/>
  <path class="cls-2" d="M373.56,190.6h-11.25s-1.67-.05-1.77-3.93c-.11-4.27,2.41-7.93,2.95-8.84.91-1.54,1.84-.8,1.96-1.47.1-.54.29-.54.29-.54h4.32s.2,0,.29.54c.12.68,1.05-.06,1.96,1.47.54.91,3.05,4.57,2.95,8.84-.1,3.88-1.77,3.93-1.77,3.93h-11.25"/>
  <path class="cls-14" d="M432.27,94.82c2.25,0,4.08-1.83,4.08-4.08s-1.83-4.08-4.08-4.08-4.08,1.83-4.08,4.08,1.83,4.08,4.08,4.08"/>
  <path class="cls-19" d="M437.76,109.02h-11.25s-1.67-.05-1.77-3.93c-.11-4.27,2.41-7.93,2.95-8.84.91-1.54,1.84-.8,1.96-1.47.1-.54.29-.54.29-.54h4.32s.2,0,.29.54c.12.68,1.05-.06,1.96,1.47.54.91,3.05,4.57,2.95,8.84-.1,3.88-1.77,3.93-1.77,3.93h-11.25"/>
  <path class="cls-2" d="M437.76,109.02h-11.25s-1.67-.05-1.77-3.93c-.11-4.27,2.41-7.93,2.95-8.84.91-1.54,1.84-.8,1.96-1.47.1-.54.29-.54.29-.54h4.32s.2,0,.29.54c.12.68,1.05-.06,1.96,1.47.54.91,3.05,4.57,2.95,8.84-.1,3.88-1.77,3.93-1.77,3.93h-11.25"/>
  <path class="cls-14" d="M389.48,94.82c2.25,0,4.08-1.83,4.08-4.08s-1.83-4.08-4.08-4.08-4.08,1.83-4.08,4.08,1.83,4.08,4.08,4.08"/>
  <path class="cls-5" d="M394.96,109.02h-11.25s-1.67-.05-1.77-3.93c-.11-4.27,2.41-7.93,2.95-8.84.91-1.54,1.84-.8,1.96-1.47.1-.54.29-.54.29-.54h4.32s.2,0,.29.54c.12.68,1.05-.06,1.96,1.47.54.91,3.05,4.57,2.95,8.84-.1,3.88-1.77,3.93-1.77,3.93h-11.25"/>
  <path class="cls-2" d="M394.96,109.02h-11.25s-1.67-.05-1.77-3.93c-.11-4.27,2.41-7.93,2.95-8.84.91-1.54,1.84-.8,1.96-1.47.1-.54.29-.54.29-.54h4.32s.2,0,.29.54c.12.68,1.05-.06,1.96,1.47.54.91,3.05,4.57,2.95,8.84-.1,3.88-1.77,3.93-1.77,3.93h-11.25"/>
  <path class="cls-1" d="M368.08,94.82c2.25,0,4.08-1.83,4.08-4.08s-1.83-4.08-4.08-4.08-4.08,1.83-4.08,4.08,1.83,4.08,4.08,4.08"/>
  <path class="cls-19" d="M373.56,109.02h-11.25s-1.67-.05-1.77-3.93c-.11-4.27,2.41-7.93,2.95-8.84.91-1.54,1.84-.8,1.96-1.47.1-.54.29-.54.29-.54h4.32s.2,0,.29.54c.12.68,1.05-.06,1.96,1.47.54.91,3.05,4.57,2.95,8.84-.1,3.88-1.77,3.93-1.77,3.93h-11.25"/>
  <path class="cls-2" d="M373.56,109.02h-11.25s-1.67-.05-1.77-3.93c-.11-4.27,2.41-7.93,2.95-8.84.91-1.54,1.84-.8,1.96-1.47.1-.54.29-.54.29-.54h4.32s.2,0,.29.54c.12.68,1.05-.06,1.96,1.47.54.91,3.05,4.57,2.95,8.84-.1,3.88-1.77,3.93-1.77,3.93h-11.25"/>
  <path class="cls-12" d="M432.1,68.01c2.2,0,3.98-1.78,3.98-3.98s-1.78-3.98-3.98-3.98-3.98,1.78-3.98,3.98,1.78,3.98,3.98,3.98"/>
  <path class="cls-9" d="M437.45,81.87h-10.98s-1.63-.05-1.73-3.83c-.1-4.17,2.35-7.74,2.88-8.63.89-1.5,1.8-.78,1.92-1.44.1-.53.29-.53.29-.53h4.22s.19,0,.29.53c.12.66,1.03-.06,1.92,1.44.53.89,2.98,4.46,2.88,8.63-.1,3.79-1.73,3.83-1.73,3.83h-10.98"/>
  <path class="cls-2" d="M437.45,81.87h-10.98s-1.63-.05-1.73-3.83c-.1-4.17,2.35-7.74,2.88-8.63.89-1.5,1.8-.78,1.92-1.44.1-.53.29-.53.29-.53h4.22s.19,0,.29.53c.12.66,1.03-.06,1.92,1.44.53.89,2.98,4.46,2.88,8.63-.1,3.79-1.73,3.83-1.73,3.83h-10.98"/>
  <path class="cls-12" d="M389.3,68.01c2.2,0,3.98-1.78,3.98-3.98s-1.78-3.98-3.98-3.98-3.98,1.78-3.98,3.98,1.78,3.98,3.98,3.98"/>
  <path class="cls-9" d="M394.65,81.87h-10.98s-1.63-.05-1.73-3.83c-.1-4.17,2.35-7.74,2.88-8.63.89-1.5,1.8-.78,1.92-1.44.1-.53.29-.53.29-.53h4.22s.19,0,.29.53c.12.66,1.03-.06,1.92,1.44.53.89,2.98,4.46,2.88,8.63-.1,3.79-1.73,3.83-1.73,3.83h-10.98"/>
  <path class="cls-2" d="M394.65,81.87h-10.98s-1.63-.05-1.73-3.83c-.1-4.17,2.35-7.74,2.88-8.63.89-1.5,1.8-.78,1.92-1.44.1-.53.29-.53.29-.53h4.22s.19,0,.29.53c.12.66,1.03-.06,1.92,1.44.53.89,2.98,4.46,2.88,8.63-.1,3.79-1.73,3.83-1.73,3.83h-10.98"/>
  <path class="cls-12" d="M367.9,68.01c2.2,0,3.98-1.78,3.98-3.98s-1.78-3.98-3.98-3.98-3.98,1.78-3.98,3.98,1.78,3.98,3.98,3.98"/>
  <path class="cls-9" d="M373.25,81.87h-10.98s-1.63-.05-1.73-3.83c-.1-4.17,2.35-7.74,2.88-8.63.89-1.5,1.8-.78,1.92-1.44.1-.53.29-.53.29-.53h4.22s.19,0,.29.53c.12.66,1.03-.06,1.92,1.44.53.89,2.98,4.46,2.88,8.63-.1,3.79-1.73,3.83-1.73,3.83h-10.98"/>
  <path class="cls-2" d="M373.25,81.87h-10.98s-1.63-.05-1.73-3.83c-.1-4.17,2.35-7.74,2.88-8.63.89-1.5,1.8-.78,1.92-1.44.1-.53.29-.53.29-.53h4.22s.19,0,.29.53c.12.66,1.03-.06,1.92,1.44.53.89,2.98,4.46,2.88,8.63-.1,3.79-1.73,3.83-1.73,3.83h-10.98"/>
  <path class="cls-17" d="M432.27,149.3c2.25,0,4.08-1.83,4.08-4.08s-1.83-4.08-4.08-4.08-4.08,1.83-4.08,4.08,1.83,4.08,4.08,4.08"/>
  <path class="cls-8" d="M437.76,163.5h-11.25s-1.67-.05-1.77-3.93c-.11-4.27,2.41-7.93,2.95-8.84.91-1.54,1.84-.8,1.96-1.47.1-.54.29-.54.29-.54h4.32s.2,0,.29.54c.12.68,1.05-.06,1.96,1.47.54.91,3.05,4.57,2.95,8.84-.1,3.88-1.77,3.93-1.77,3.93h-11.25"/>
  <path class="cls-2" d="M437.76,163.5h-11.25s-1.67-.05-1.77-3.93c-.11-4.27,2.41-7.93,2.95-8.84.91-1.54,1.84-.8,1.96-1.47.1-.54.29-.54.29-.54h4.32s.2,0,.29.54c.12.68,1.05-.06,1.96,1.47.54.91,3.05,4.57,2.95,8.84-.1,3.88-1.77,3.93-1.77,3.93h-11.25"/>
  <path class="cls-17" d="M389.48,149.3c2.25,0,4.08-1.83,4.08-4.08s-1.83-4.08-4.08-4.08-4.08,1.83-4.08,4.08,1.83,4.08,4.08,4.08"/>
  <path class="cls-8" d="M394.96,163.5h-11.25s-1.67-.05-1.77-3.93c-.11-4.27,2.41-7.93,2.95-8.84.91-1.54,1.84-.8,1.96-1.47.1-.54.29-.54.29-.54h4.32s.2,0,.29.54c.12.68,1.05-.06,1.96,1.47.54.91,3.05,4.57,2.95,8.84-.1,3.88-1.77,3.93-1.77,3.93h-11.25"/>
  <path class="cls-2" d="M394.96,163.5h-11.25s-1.67-.05-1.77-3.93c-.11-4.27,2.41-7.93,2.95-8.84.91-1.54,1.84-.8,1.96-1.47.1-.54.29-.54.29-.54h4.32s.2,0,.29.54c.12.68,1.05-.06,1.96,1.47.54.91,3.05,4.57,2.95,8.84-.1,3.88-1.77,3.93-1.77,3.93h-11.25"/>
  <path class="cls-17" d="M368.08,149.3c2.25,0,4.08-1.83,4.08-4.08s-1.83-4.08-4.08-4.08-4.08,1.83-4.08,4.08,1.83,4.08,4.08,4.08"/>
  <path class="cls-5" d="M373.56,163.5h-11.25s-1.67-.05-1.77-3.93c-.11-4.27,2.41-7.93,2.95-8.84.91-1.54,1.84-.8,1.96-1.47.1-.54.29-.54.29-.54h4.32s.2,0,.29.54c.12.68,1.05-.06,1.96,1.47.54.91,3.05,4.57,2.95,8.84-.1,3.88-1.77,3.93-1.77,3.93h-11.25"/>
  <path class="cls-2" d="M373.56,163.5h-11.25s-1.67-.05-1.77-3.93c-.11-4.27,2.41-7.93,2.95-8.84.91-1.54,1.84-.8,1.96-1.47.1-.54.29-.54.29-.54h4.32s.2,0,.29.54c.12.68,1.05-.06,1.96,1.47.54.91,3.05,4.57,2.95,8.84-.1,3.88-1.77,3.93-1.77,3.93h-11.25"/>
  <path class="cls-18" d="M432.27,203.82c2.25,0,4.08-1.83,4.08-4.08s-1.83-4.08-4.08-4.08-4.08,1.83-4.08,4.08,1.83,4.08,4.08,4.08"/>
  <path class="cls-19" d="M437.76,218.02h-11.25s-1.67-.05-1.77-3.93c-.11-4.27,2.41-7.93,2.95-8.84.91-1.54,1.84-.8,1.96-1.47.1-.54.29-.54.29-.54h4.32s.2,0,.29.54c.12.68,1.05-.06,1.96,1.47.54.91,3.05,4.57,2.95,8.84-.1,3.88-1.77,3.93-1.77,3.93h-11.25"/>
  <path class="cls-2" d="M437.76,218.02h-11.25s-1.67-.05-1.77-3.93c-.11-4.27,2.41-7.93,2.95-8.84.91-1.54,1.84-.8,1.96-1.47.1-.54.29-.54.29-.54h4.32s.2,0,.29.54c.12.68,1.05-.06,1.96,1.47.54.91,3.05,4.57,2.95,8.84-.1,3.88-1.77,3.93-1.77,3.93h-11.25"/>
  <path class="cls-18" d="M389.48,203.82c2.25,0,4.08-1.83,4.08-4.08s-1.83-4.08-4.08-4.08-4.08,1.83-4.08,4.08,1.83,4.08,4.08,4.08"/>
  <path class="cls-13" d="M394.96,218.02h-11.25s-1.67-.05-1.77-3.93c-.11-4.27,2.41-7.93,2.95-8.84.91-1.54,1.84-.8,1.96-1.47.1-.54.29-.54.29-.54h4.32s.2,0,.29.54c.12.68,1.05-.06,1.96,1.47.54.91,3.05,4.57,2.95,8.84-.1,3.88-1.77,3.93-1.77,3.93h-11.25"/>
  <path class="cls-2" d="M394.96,218.02h-11.25s-1.67-.05-1.77-3.93c-.11-4.27,2.41-7.93,2.95-8.84.91-1.54,1.84-.8,1.96-1.47.1-.54.29-.54.29-.54h4.32s.2,0,.29.54c.12.68,1.05-.06,1.96,1.47.54.91,3.05,4.57,2.95,8.84-.1,3.88-1.77,3.93-1.77,3.93h-11.25"/>
  <path class="cls-18" d="M368.08,203.82c2.25,0,4.08-1.83,4.08-4.08s-1.83-4.08-4.08-4.08-4.08,1.83-4.08,4.08,1.83,4.08,4.08,4.08"/>
  <path class="cls-13" d="M373.56,218.02h-11.25s-1.67-.05-1.77-3.93c-.11-4.27,2.41-7.93,2.95-8.84.91-1.54,1.84-.8,1.96-1.47.1-.54.29-.54.29-.54h4.32s.2,0,.29.54c.12.68,1.05-.06,1.96,1.47.54.91,3.05,4.57,2.95,8.84-.1,3.88-1.77,3.93-1.77,3.93h-11.25"/>
  <path class="cls-2" d="M373.56,218.02h-11.25s-1.67-.05-1.77-3.93c-.11-4.27,2.41-7.93,2.95-8.84.91-1.54,1.84-.8,1.96-1.47.1-.54.29-.54.29-.54h4.32s.2,0,.29.54c.12.68,1.05-.06,1.96,1.47.54.91,3.05,4.57,2.95,8.84-.1,3.88-1.77,3.93-1.77,3.93h-11.25"/>
  <path class="cls-12" d="M541.3,176.48c2.2,0,3.98-1.78,3.98-3.98s-1.78-3.98-3.98-3.98-3.98,1.78-3.98,3.98,1.78,3.98,3.98,3.98"/>
  <path class="cls-9" d="M546.66,190.34h-10.98s-1.63-.05-1.73-3.83c-.1-4.17,2.35-7.74,2.88-8.63.89-1.5,1.8-.78,1.92-1.44.1-.53.29-.53.29-.53h4.22s.19,0,.29.53c.12.66,1.03-.06,1.92,1.44.53.89,2.98,4.46,2.88,8.63-.1,3.79-1.73,3.83-1.73,3.83h-10.98"/>
  <path class="cls-2" d="M546.66,190.34h-10.98s-1.63-.05-1.73-3.83c-.1-4.17,2.35-7.74,2.88-8.63.89-1.5,1.8-.78,1.92-1.44.1-.53.29-.53.29-.53h4.22s.19,0,.29.53c.12.66,1.03-.06,1.92,1.44.53.89,2.98,4.46,2.88,8.63-.1,3.79-1.73,3.83-1.73,3.83h-10.98"/>
  <path class="cls-4" d="M541.48,231.22c2.25,0,4.08-1.83,4.08-4.08s-1.83-4.08-4.08-4.08-4.08,1.83-4.08,4.08,1.83,4.08,4.08,4.08"/>
  <path class="cls-9" d="M546.97,245.42h-11.25s-1.67-.05-1.77-3.93c-.11-4.27,2.41-7.93,2.95-8.84.91-1.54,1.84-.8,1.96-1.47.1-.54.29-.54.29-.54h4.32s.2,0,.29.54c.12.68,1.05-.06,1.96,1.47.54.91,3.05,4.57,2.95,8.84-.1,3.88-1.77,3.93-1.77,3.93h-11.25"/>
  <path class="cls-2" d="M546.97,245.42h-11.25s-1.67-.05-1.77-3.93c-.11-4.27,2.41-7.93,2.95-8.84.91-1.54,1.84-.8,1.96-1.47.1-.54.29-.54.29-.54h4.32s.2,0,.29.54c.12.68,1.05-.06,1.96,1.47.54.91,3.05,4.57,2.95,8.84-.1,3.88-1.77,3.93-1.77,3.93h-11.25"/>
  <path class="cls-12" d="M519.4,122.53c2.2,0,3.98-1.78,3.98-3.98s-1.78-3.98-3.98-3.98-3.98,1.78-3.98,3.98,1.78,3.98,3.98,3.98"/>
  <path class="cls-9" d="M524.76,136.39h-10.98s-1.63-.05-1.73-3.83c-.1-4.17,2.35-7.74,2.88-8.63.89-1.5,1.8-.78,1.92-1.44.1-.53.29-.53.29-.53h4.22s.19,0,.29.53c.12.66,1.03-.06,1.92,1.44.53.89,2.98,4.46,2.88,8.63-.1,3.79-1.73,3.83-1.73,3.83h-10.98"/>
  <path class="cls-2" d="M524.76,136.39h-10.98s-1.63-.05-1.73-3.83c-.1-4.17,2.35-7.74,2.88-8.63.89-1.5,1.8-.78,1.92-1.44.1-.53.29-.53.29-.53h4.22s.19,0,.29.53c.12.66,1.03-.06,1.92,1.44.53.89,2.98,4.46,2.88,8.63-.1,3.79-1.73,3.83-1.73,3.83h-10.98"/>
  <path class="cls-18" d="M541.12,13.15c2.25,0,4.08-1.83,4.08-4.08s-1.83-4.08-4.08-4.08-4.08,1.83-4.08,4.08,1.83,4.08,4.08,4.08"/>
  <path class="cls-13" d="M546.61,27.35h-11.25s-1.67-.05-1.77-3.93c-.11-4.27,2.41-7.93,2.95-8.84.91-1.54,1.84-.8,1.96-1.47.1-.54.29-.54.29-.54h4.32s.2,0,.29.54c.12.68,1.05-.06,1.96,1.47.54.91,3.05,4.57,2.95,8.84-.1,3.88-1.77,3.93-1.77,3.93h-11.25"/>
  <path class="cls-2" d="M546.61,27.35h-11.25s-1.67-.05-1.77-3.93c-.11-4.27,2.41-7.93,2.95-8.84.91-1.54,1.84-.8,1.96-1.47.1-.54.29-.54.29-.54h4.32s.2,0,.29.54c.12.68,1.05-.06,1.96,1.47.54.91,3.05,4.57,2.95,8.84-.1,3.88-1.77,3.93-1.77,3.93h-11.25"/>
  <path class="cls-1" d="M519.58,13.15c2.25,0,4.08-1.83,4.08-4.08s-1.83-4.08-4.08-4.08-4.08,1.83-4.08,4.08,1.83,4.08,4.08,4.08"/>
  <path class="cls-19" d="M525.07,27.35h-11.25s-1.67-.05-1.77-3.93c-.11-4.27,2.41-7.93,2.95-8.84.91-1.54,1.84-.8,1.96-1.47.1-.54.29-.54.29-.54h4.32s.2,0,.29.54c.12.68,1.05-.06,1.96,1.47.54.91,3.05,4.57,2.95,8.84-.1,3.88-1.77,3.93-1.77,3.93h-11.25"/>
  <path class="cls-2" d="M525.07,27.35h-11.25s-1.67-.05-1.77-3.93c-.11-4.27,2.41-7.93,2.95-8.84.91-1.54,1.84-.8,1.96-1.47.1-.54.29-.54.29-.54h4.32s.2,0,.29.54c.12.68,1.05-.06,1.96,1.47.54.91,3.05,4.57,2.95,8.84-.1,3.88-1.77,3.93-1.77,3.93h-11.25"/>
  <path class="cls-18" d="M541.13,122.46c2.25,0,4.08-1.83,4.08-4.08s-1.83-4.08-4.08-4.08-4.08,1.83-4.08,4.08,1.83,4.08,4.08,4.08"/>
  <path class="cls-13" d="M546.62,136.66h-11.25s-1.67-.05-1.77-3.93c-.11-4.27,2.41-7.93,2.95-8.84.91-1.54,1.84-.8,1.96-1.47.1-.54.29-.54.29-.54h4.32s.2,0,.29.54c.12.68,1.05-.06,1.96,1.47.54.91,3.05,4.57,2.95,8.84-.1,3.88-1.77,3.93-1.77,3.93h-11.25"/>
  <path class="cls-2" d="M546.62,136.66h-11.25s-1.67-.05-1.77-3.93c-.11-4.27,2.41-7.93,2.95-8.84.91-1.54,1.84-.8,1.96-1.47.1-.54.29-.54.29-.54h4.32s.2,0,.29.54c.12.68,1.05-.06,1.96,1.47.54.91,3.05,4.57,2.95,8.84-.1,3.88-1.77,3.93-1.77,3.93h-11.25"/>
  <path class="cls-1" d="M541.13,149.3c2.25,0,4.08-1.83,4.08-4.08s-1.83-4.08-4.08-4.08-4.08,1.83-4.08,4.08,1.83,4.08,4.08,4.08"/>
  <path class="cls-9" d="M546.62,163.5h-11.25s-1.67-.05-1.77-3.93c-.11-4.27,2.41-7.93,2.95-8.84.91-1.54,1.84-.8,1.96-1.47.1-.54.29-.54.29-.54h4.32s.2,0,.29.54c.12.68,1.05-.06,1.96,1.47.54.91,3.05,4.57,2.95,8.84-.1,3.88-1.77,3.93-1.77,3.93h-11.25"/>
  <path class="cls-2" d="M546.62,163.5h-11.25s-1.67-.05-1.77-3.93c-.11-4.27,2.41-7.93,2.95-8.84.91-1.54,1.84-.8,1.96-1.47.1-.54.29-.54.29-.54h4.32s.2,0,.29.54c.12.68,1.05-.06,1.96,1.47.54.91,3.05,4.57,2.95,8.84-.1,3.88-1.77,3.93-1.77,3.93h-11.25"/>
  <path class="cls-1" d="M519.58,231.22c2.25,0,4.08-1.83,4.08-4.08s-1.83-4.08-4.08-4.08-4.08,1.83-4.08,4.08,1.83,4.08,4.08,4.08"/>
  <path class="cls-19" d="M525.07,245.42h-11.25s-1.67-.05-1.77-3.93c-.11-4.27,2.41-7.93,2.95-8.84.91-1.54,1.84-.8,1.96-1.47.1-.54.29-.54.29-.54h4.32s.2,0,.29.54c.12.68,1.05-.06,1.96,1.47.54.91,3.05,4.57,2.95,8.84-.1,3.88-1.77,3.93-1.77,3.93h-11.25"/>
  <path class="cls-2" d="M525.07,245.42h-11.25s-1.67-.05-1.77-3.93c-.11-4.27,2.41-7.93,2.95-8.84.91-1.54,1.84-.8,1.96-1.47.1-.54.29-.54.29-.54h4.32s.2,0,.29.54c.12.68,1.05-.06,1.96,1.47.54.91,3.05,4.57,2.95,8.84-.1,3.88-1.77,3.93-1.77,3.93h-11.25"/>
  <path class="cls-17" d="M541.48,203.82c2.25,0,4.08-1.83,4.08-4.08s-1.83-4.08-4.08-4.08-4.08,1.83-4.08,4.08,1.83,4.08,4.08,4.08"/>
  <path class="cls-5" d="M546.97,218.02h-11.25s-1.67-.05-1.77-3.93c-.11-4.27,2.41-7.93,2.95-8.84.91-1.54,1.84-.8,1.96-1.47.1-.54.29-.54.29-.54h4.32s.2,0,.29.54c.12.68,1.05-.06,1.96,1.47.54.91,3.05,4.57,2.95,8.84-.1,3.88-1.77,3.93-1.77,3.93h-11.25"/>
  <path class="cls-2" d="M546.97,218.02h-11.25s-1.67-.05-1.77-3.93c-.11-4.27,2.41-7.93,2.95-8.84.91-1.54,1.84-.8,1.96-1.47.1-.54.29-.54.29-.54h4.32s.2,0,.29.54c.12.68,1.05-.06,1.96,1.47.54.91,3.05,4.57,2.95,8.84-.1,3.88-1.77,3.93-1.77,3.93h-11.25"/>
  <path class="cls-4" d="M519.58,40.3c2.25,0,4.08-1.83,4.08-4.08s-1.83-4.08-4.08-4.08-4.08,1.83-4.08,4.08,1.83,4.08,4.08,4.08"/>
  <path class="cls-8" d="M525.07,54.5h-11.25s-1.67-.05-1.77-3.93c-.11-4.27,2.41-7.93,2.95-8.84.91-1.54,1.84-.8,1.96-1.47.1-.54.29-.54.29-.54h4.32s.2,0,.29.54c.12.68,1.05-.06,1.96,1.47.54.91,3.05,4.57,2.95,8.84-.1,3.88-1.77,3.93-1.77,3.93h-11.25"/>
  <path class="cls-2" d="M525.07,54.5h-11.25s-1.67-.05-1.77-3.93c-.11-4.27,2.41-7.93,2.95-8.84.91-1.54,1.84-.8,1.96-1.47.1-.54.29-.54.29-.54h4.32s.2,0,.29.54c.12.68,1.05-.06,1.96,1.47.54.91,3.05,4.57,2.95,8.84-.1,3.88-1.77,3.93-1.77,3.93h-11.25"/>
  <path class="cls-4" d="M541.13,67.67c2.25,0,4.08-1.83,4.08-4.08s-1.83-4.08-4.08-4.08-4.08,1.83-4.08,4.08,1.83,4.08,4.08,4.08"/>
  <path class="cls-8" d="M546.62,81.87h-11.25s-1.67-.05-1.77-3.93c-.11-4.27,2.41-7.93,2.95-8.84.91-1.54,1.84-.8,1.96-1.47.1-.54.29-.54.29-.54h4.32s.2,0,.29.54c.12.68,1.05-.06,1.96,1.47.54.91,3.05,4.57,2.95,8.84-.1,3.88-1.77,3.93-1.77,3.93h-11.25"/>
  <path class="cls-2" d="M546.62,81.87h-11.25s-1.67-.05-1.77-3.93c-.11-4.27,2.41-7.93,2.95-8.84.91-1.54,1.84-.8,1.96-1.47.1-.54.29-.54.29-.54h4.32s.2,0,.29.54c.12.68,1.05-.06,1.96,1.47.54.91,3.05,4.57,2.95,8.84-.1,3.88-1.77,3.93-1.77,3.93h-11.25"/>
  <path class="cls-4" d="M541.12,94.82c2.25,0,4.08-1.83,4.08-4.08s-1.83-4.08-4.08-4.08-4.08,1.83-4.08,4.08,1.83,4.08,4.08,4.08"/>
  <path class="cls-8" d="M546.61,109.02h-11.25s-1.67-.05-1.77-3.93c-.11-4.27,2.41-7.93,2.95-8.84.91-1.54,1.84-.8,1.96-1.47.1-.54.29-.54.29-.54h4.32s.2,0,.29.54c.12.68,1.05-.06,1.96,1.47.54.91,3.05,4.57,2.95,8.84-.1,3.88-1.77,3.93-1.77,3.93h-11.25"/>
  <path class="cls-2" d="M546.61,109.02h-11.25s-1.67-.05-1.77-3.93c-.11-4.27,2.41-7.93,2.95-8.84.91-1.54,1.84-.8,1.96-1.47.1-.54.29-.54.29-.54h4.32s.2,0,.29.54c.12.68,1.05-.06,1.96,1.47.54.91,3.05,4.57,2.95,8.84-.1,3.88-1.77,3.93-1.77,3.93h-11.25"/>
  <path class="cls-14" d="M541.12,40.3c2.25,0,4.08-1.83,4.08-4.08s-1.83-4.08-4.08-4.08-4.08,1.83-4.08,4.08,1.83,4.08,4.08,4.08"/>
  <path class="cls-5" d="M546.61,54.5h-11.25s-1.67-.05-1.77-3.93c-.11-4.27,2.41-7.93,2.95-8.84.91-1.54,1.84-.8,1.96-1.47.1-.54.29-.54.29-.54h4.32s.2,0,.29.54c.12.68,1.05-.06,1.96,1.47.54.91,3.05,4.57,2.95,8.84-.1,3.88-1.77,3.93-1.77,3.93h-11.25"/>
  <path class="cls-2" d="M546.61,54.5h-11.25s-1.67-.05-1.77-3.93c-.11-4.27,2.41-7.93,2.95-8.84.91-1.54,1.84-.8,1.96-1.47.1-.54.29-.54.29-.54h4.32s.2,0,.29.54c.12.68,1.05-.06,1.96,1.47.54.91,3.05,4.57,2.95,8.84-.1,3.88-1.77,3.93-1.77,3.93h-11.25"/>
  <path class="cls-4" d="M519.58,176.4c2.25,0,4.08-1.83,4.08-4.08s-1.83-4.08-4.08-4.08-4.08,1.83-4.08,4.08,1.83,4.08,4.08,4.08"/>
  <path class="cls-6" d="M525.07,190.6h-11.25s-1.67-.05-1.77-3.93c-.11-4.27,2.41-7.93,2.95-8.84.91-1.54,1.84-.8,1.96-1.47.1-.54.29-.54.29-.54h4.32s.2,0,.29.54c.12.68,1.05-.06,1.96,1.47.54.91,3.05,4.57,2.95,8.84-.1,3.88-1.77,3.93-1.77,3.93h-11.25"/>
  <path class="cls-2" d="M525.07,190.6h-11.25s-1.67-.05-1.77-3.93c-.11-4.27,2.41-7.93,2.95-8.84.91-1.54,1.84-.8,1.96-1.47.1-.54.29-.54.29-.54h4.32s.2,0,.29.54c.12.68,1.05-.06,1.96,1.47.54.91,3.05,4.57,2.95,8.84-.1,3.88-1.77,3.93-1.77,3.93h-11.25"/>
  <path class="cls-1" d="M519.58,94.82c2.25,0,4.08-1.83,4.08-4.08s-1.83-4.08-4.08-4.08-4.08,1.83-4.08,4.08,1.83,4.08,4.08,4.08"/>
  <path class="cls-19" d="M525.07,109.02h-11.25s-1.67-.05-1.77-3.93c-.11-4.27,2.41-7.93,2.95-8.84.91-1.54,1.84-.8,1.96-1.47.1-.54.29-.54.29-.54h4.32s.2,0,.29.54c.12.68,1.05-.06,1.96,1.47.54.91,3.05,4.57,2.95,8.84-.1,3.88-1.77,3.93-1.77,3.93h-11.25"/>
  <path class="cls-2" d="M525.07,109.02h-11.25s-1.67-.05-1.77-3.93c-.11-4.27,2.41-7.93,2.95-8.84.91-1.54,1.84-.8,1.96-1.47.1-.54.29-.54.29-.54h4.32s.2,0,.29.54c.12.68,1.05-.06,1.96,1.47.54.91,3.05,4.57,2.95,8.84-.1,3.88-1.77,3.93-1.77,3.93h-11.25"/>
  <path class="cls-12" d="M519.4,68.01c2.2,0,3.98-1.78,3.98-3.98s-1.78-3.98-3.98-3.98-3.98,1.78-3.98,3.98,1.78,3.98,3.98,3.98"/>
  <path class="cls-9" d="M524.76,81.87h-10.98s-1.63-.05-1.73-3.83c-.1-4.17,2.35-7.74,2.88-8.63.89-1.5,1.8-.78,1.92-1.44.1-.53.29-.53.29-.53h4.22s.19,0,.29.53c.12.66,1.03-.06,1.92,1.44.53.89,2.98,4.46,2.88,8.63-.1,3.79-1.73,3.83-1.73,3.83h-10.98"/>
  <path class="cls-2" d="M524.76,81.87h-10.98s-1.63-.05-1.73-3.83c-.1-4.17,2.35-7.74,2.88-8.63.89-1.5,1.8-.78,1.92-1.44.1-.53.29-.53.29-.53h4.22s.19,0,.29.53c.12.66,1.03-.06,1.92,1.44.53.89,2.98,4.46,2.88,8.63-.1,3.79-1.73,3.83-1.73,3.83h-10.98"/>
  <path class="cls-17" d="M519.58,149.3c2.25,0,4.08-1.83,4.08-4.08s-1.83-4.08-4.08-4.08-4.08,1.83-4.08,4.08,1.83,4.08,4.08,4.08"/>
  <path class="cls-5" d="M525.07,163.5h-11.25s-1.67-.05-1.77-3.93c-.11-4.27,2.41-7.93,2.95-8.84.91-1.54,1.84-.8,1.96-1.47.1-.54.29-.54.29-.54h4.32s.2,0,.29.54c.12.68,1.05-.06,1.96,1.47.54.91,3.05,4.57,2.95,8.84-.1,3.88-1.77,3.93-1.77,3.93h-11.25"/>
  <path class="cls-2" d="M525.07,163.5h-11.25s-1.67-.05-1.77-3.93c-.11-4.27,2.41-7.93,2.95-8.84.91-1.54,1.84-.8,1.96-1.47.1-.54.29-.54.29-.54h4.32s.2,0,.29.54c.12.68,1.05-.06,1.96,1.47.54.91,3.05,4.57,2.95,8.84-.1,3.88-1.77,3.93-1.77,3.93h-11.25"/>
  <path class="cls-18" d="M519.58,203.82c2.25,0,4.08-1.83,4.08-4.08s-1.83-4.08-4.08-4.08-4.08,1.83-4.08,4.08,1.83,4.08,4.08,4.08"/>
  <path class="cls-13" d="M525.07,218.02h-11.25s-1.67-.05-1.77-3.93c-.11-4.27,2.41-7.93,2.95-8.84.91-1.54,1.84-.8,1.96-1.47.1-.54.29-.54.29-.54h4.32s.2,0,.29.54c.12.68,1.05-.06,1.96,1.47.54.91,3.05,4.57,2.95,8.84-.1,3.88-1.77,3.93-1.77,3.93h-11.25"/>
  <path class="cls-2" d="M525.07,218.02h-11.25s-1.67-.05-1.77-3.93c-.11-4.27,2.41-7.93,2.95-8.84.91-1.54,1.84-.8,1.96-1.47.1-.54.29-.54.29-.54h4.32s.2,0,.29.54c.12.68,1.05-.06,1.96,1.47.54.91,3.05,4.57,2.95,8.84-.1,3.88-1.77,3.93-1.77,3.93h-11.25"/>
  <path class="cls-12" d="M497.33,176.48c2.2,0,3.98-1.78,3.98-3.98s-1.78-3.98-3.98-3.98-3.98,1.78-3.98,3.98,1.78,3.98,3.98,3.98"/>
  <path class="cls-9" d="M502.69,190.34h-10.98s-1.63-.05-1.73-3.83c-.1-4.17,2.35-7.74,2.88-8.63.89-1.5,1.8-.78,1.92-1.44.1-.53.29-.53.29-.53h4.22s.19,0,.29.53c.12.66,1.03-.06,1.92,1.44.53.89,2.98,4.46,2.88,8.63-.1,3.79-1.73,3.83-1.73,3.83h-10.98"/>
  <path class="cls-2" d="M502.69,190.34h-10.98s-1.63-.05-1.73-3.83c-.1-4.17,2.35-7.74,2.88-8.63.89-1.5,1.8-.78,1.92-1.44.1-.53.29-.53.29-.53h4.22s.19,0,.29.53c.12.66,1.03-.06,1.92,1.44.53.89,2.98,4.46,2.88,8.63-.1,3.79-1.73,3.83-1.73,3.83h-10.98"/>
  <path class="cls-4" d="M497.51,231.22c2.25,0,4.08-1.83,4.08-4.08s-1.83-4.08-4.08-4.08-4.08,1.83-4.08,4.08,1.83,4.08,4.08,4.08"/>
  <path class="cls-8" d="M503,245.42h-11.25s-1.67-.05-1.77-3.93c-.11-4.27,2.41-7.93,2.95-8.84.91-1.54,1.84-.8,1.96-1.47.1-.54.29-.54.29-.54h4.32s.2,0,.29.54c.12.68,1.05-.06,1.96,1.47.54.91,3.05,4.57,2.95,8.84-.1,3.88-1.77,3.93-1.77,3.93h-11.25"/>
  <path class="cls-2" d="M503,245.42h-11.25s-1.67-.05-1.77-3.93c-.11-4.27,2.41-7.93,2.95-8.84.91-1.54,1.84-.8,1.96-1.47.1-.54.29-.54.29-.54h4.32s.2,0,.29.54c.12.68,1.05-.06,1.96,1.47.54.91,3.05,4.57,2.95,8.84-.1,3.88-1.77,3.93-1.77,3.93h-11.25"/>
  <path class="cls-12" d="M475.43,122.53c2.2,0,3.98-1.78,3.98-3.98s-1.78-3.98-3.98-3.98-3.98,1.78-3.98,3.98,1.78,3.98,3.98,3.98"/>
  <path class="cls-9" d="M480.79,136.39h-10.98s-1.63-.05-1.73-3.83c-.1-4.17,2.35-7.74,2.88-8.63.89-1.5,1.8-.78,1.92-1.44.1-.53.29-.53.29-.53h4.22s.19,0,.29.53c.12.66,1.03-.06,1.92,1.44.53.89,2.98,4.46,2.88,8.63-.1,3.79-1.73,3.83-1.73,3.83h-10.98"/>
  <path class="cls-2" d="M480.79,136.39h-10.98s-1.63-.05-1.73-3.83c-.1-4.17,2.35-7.74,2.88-8.63.89-1.5,1.8-.78,1.92-1.44.1-.53.29-.53.29-.53h4.22s.19,0,.29.53c.12.66,1.03-.06,1.92,1.44.53.89,2.98,4.46,2.88,8.63-.1,3.79-1.73,3.83-1.73,3.83h-10.98"/>
  <path class="cls-18" d="M497.15,13.15c2.25,0,4.08-1.83,4.08-4.08s-1.83-4.08-4.08-4.08-4.08,1.83-4.08,4.08,1.83,4.08,4.08,4.08"/>
  <path class="cls-13" d="M502.64,27.35h-11.25s-1.67-.05-1.77-3.93c-.11-4.27,2.41-7.93,2.95-8.84.91-1.54,1.84-.8,1.96-1.47.1-.54.29-.54.29-.54h4.32s.2,0,.29.54c.12.68,1.05-.06,1.96,1.47.54.91,3.05,4.57,2.95,8.84-.1,3.88-1.77,3.93-1.77,3.93h-11.25"/>
  <path class="cls-2" d="M502.64,27.35h-11.25s-1.67-.05-1.77-3.93c-.11-4.27,2.41-7.93,2.95-8.84.91-1.54,1.84-.8,1.96-1.47.1-.54.29-.54.29-.54h4.32s.2,0,.29.54c.12.68,1.05-.06,1.96,1.47.54.91,3.05,4.57,2.95,8.84-.1,3.88-1.77,3.93-1.77,3.93h-11.25"/>
  <path class="cls-1" d="M475.61,13.15c2.25,0,4.08-1.83,4.08-4.08s-1.83-4.08-4.08-4.08-4.08,1.83-4.08,4.08,1.83,4.08,4.08,4.08"/>
  <path class="cls-19" d="M481.1,27.35h-11.25s-1.67-.05-1.77-3.93c-.11-4.27,2.41-7.93,2.95-8.84.91-1.54,1.84-.8,1.96-1.47.1-.54.29-.54.29-.54h4.32s.2,0,.29.54c.12.68,1.05-.06,1.96,1.47.54.91,3.05,4.57,2.95,8.84-.1,3.88-1.77,3.93-1.77,3.93h-11.25"/>
  <path class="cls-2" d="M481.1,27.35h-11.25s-1.67-.05-1.77-3.93c-.11-4.27,2.41-7.93,2.95-8.84.91-1.54,1.84-.8,1.96-1.47.1-.54.29-.54.29-.54h4.32s.2,0,.29.54c.12.68,1.05-.06,1.96,1.47.54.91,3.05,4.57,2.95,8.84-.1,3.88-1.77,3.93-1.77,3.93h-11.25"/>
  <path class="cls-18" d="M497.16,122.46c2.25,0,4.08-1.83,4.08-4.08s-1.83-4.08-4.08-4.08-4.08,1.83-4.08,4.08,1.83,4.08,4.08,4.08"/>
  <path class="cls-19" d="M502.65,136.66h-11.25s-1.67-.05-1.77-3.93c-.11-4.27,2.41-7.93,2.95-8.84.91-1.54,1.84-.8,1.96-1.47.1-.54.29-.54.29-.54h4.32s.2,0,.29.54c.12.68,1.05-.06,1.96,1.47.54.91,3.05,4.57,2.95,8.84-.1,3.88-1.77,3.93-1.77,3.93h-11.25"/>
  <path class="cls-2" d="M502.65,136.66h-11.25s-1.67-.05-1.77-3.93c-.11-4.27,2.41-7.93,2.95-8.84.91-1.54,1.84-.8,1.96-1.47.1-.54.29-.54.29-.54h4.32s.2,0,.29.54c.12.68,1.05-.06,1.96,1.47.54.91,3.05,4.57,2.95,8.84-.1,3.88-1.77,3.93-1.77,3.93h-11.25"/>
  <path class="cls-1" d="M497.16,149.3c2.25,0,4.08-1.83,4.08-4.08s-1.83-4.08-4.08-4.08-4.08,1.83-4.08,4.08,1.83,4.08,4.08,4.08"/>
  <path class="cls-19" d="M502.65,163.5h-11.25s-1.67-.05-1.77-3.93c-.11-4.27,2.41-7.93,2.95-8.84.91-1.54,1.84-.8,1.96-1.47.1-.54.29-.54.29-.54h4.32s.2,0,.29.54c.12.68,1.05-.06,1.96,1.47.54.91,3.05,4.57,2.95,8.84-.1,3.88-1.77,3.93-1.77,3.93h-11.25"/>
  <path class="cls-2" d="M502.65,163.5h-11.25s-1.67-.05-1.77-3.93c-.11-4.27,2.41-7.93,2.95-8.84.91-1.54,1.84-.8,1.96-1.47.1-.54.29-.54.29-.54h4.32s.2,0,.29.54c.12.68,1.05-.06,1.96,1.47.54.91,3.05,4.57,2.95,8.84-.1,3.88-1.77,3.93-1.77,3.93h-11.25"/>
  <path class="cls-1" d="M475.61,231.22c2.25,0,4.08-1.83,4.08-4.08s-1.83-4.08-4.08-4.08-4.08,1.83-4.08,4.08,1.83,4.08,4.08,4.08"/>
  <path class="cls-5" d="M481.1,245.42h-11.25s-1.67-.05-1.77-3.93c-.11-4.27,2.41-7.93,2.95-8.84.91-1.54,1.84-.8,1.96-1.47.1-.54.29-.54.29-.54h4.32s.2,0,.29.54c.12.68,1.05-.06,1.96,1.47.54.91,3.05,4.57,2.95,8.84-.1,3.88-1.77,3.93-1.77,3.93h-11.25"/>
  <path class="cls-2" d="M481.1,245.42h-11.25s-1.67-.05-1.77-3.93c-.11-4.27,2.41-7.93,2.95-8.84.91-1.54,1.84-.8,1.96-1.47.1-.54.29-.54.29-.54h4.32s.2,0,.29.54c.12.68,1.05-.06,1.96,1.47.54.91,3.05,4.57,2.95,8.84-.1,3.88-1.77,3.93-1.77,3.93h-11.25"/>
  <path class="cls-17" d="M497.51,203.82c2.25,0,4.08-1.83,4.08-4.08s-1.83-4.08-4.08-4.08-4.08,1.83-4.08,4.08,1.83,4.08,4.08,4.08"/>
  <path class="cls-5" d="M503,218.02h-11.25s-1.67-.05-1.77-3.93c-.11-4.27,2.41-7.93,2.95-8.84.91-1.54,1.84-.8,1.96-1.47.1-.54.29-.54.29-.54h4.32s.2,0,.29.54c.12.68,1.05-.06,1.96,1.47.54.91,3.05,4.57,2.95,8.84-.1,3.88-1.77,3.93-1.77,3.93h-11.25"/>
  <path class="cls-2" d="M503,218.02h-11.25s-1.67-.05-1.77-3.93c-.11-4.27,2.41-7.93,2.95-8.84.91-1.54,1.84-.8,1.96-1.47.1-.54.29-.54.29-.54h4.32s.2,0,.29.54c.12.68,1.05-.06,1.96,1.47.54.91,3.05,4.57,2.95,8.84-.1,3.88-1.77,3.93-1.77,3.93h-11.25"/>
  <path class="cls-4" d="M475.61,40.3c2.25,0,4.08-1.83,4.08-4.08s-1.83-4.08-4.08-4.08-4.08,1.83-4.08,4.08,1.83,4.08,4.08,4.08"/>
  <path class="cls-8" d="M481.1,54.5h-11.25s-1.67-.05-1.77-3.93c-.11-4.27,2.41-7.93,2.95-8.84.91-1.54,1.84-.8,1.96-1.47.1-.54.29-.54.29-.54h4.32s.2,0,.29.54c.12.68,1.05-.06,1.96,1.47.54.91,3.05,4.57,2.95,8.84-.1,3.88-1.77,3.93-1.77,3.93h-11.25"/>
  <path class="cls-2" d="M481.1,54.5h-11.25s-1.67-.05-1.77-3.93c-.11-4.27,2.41-7.93,2.95-8.84.91-1.54,1.84-.8,1.96-1.47.1-.54.29-.54.29-.54h4.32s.2,0,.29.54c.12.68,1.05-.06,1.96,1.47.54.91,3.05,4.57,2.95,8.84-.1,3.88-1.77,3.93-1.77,3.93h-11.25"/>
  <path class="cls-4" d="M497.16,67.67c2.25,0,4.08-1.83,4.08-4.08s-1.83-4.08-4.08-4.08-4.08,1.83-4.08,4.08,1.83,4.08,4.08,4.08"/>
  <path class="cls-8" d="M502.65,81.87h-11.25s-1.67-.05-1.77-3.93c-.11-4.27,2.41-7.93,2.95-8.84.91-1.54,1.84-.8,1.96-1.47.1-.54.29-.54.29-.54h4.32s.2,0,.29.54c.12.68,1.05-.06,1.96,1.47.54.91,3.05,4.57,2.95,8.84-.1,3.88-1.77,3.93-1.77,3.93h-11.25"/>
  <path class="cls-2" d="M502.65,81.87h-11.25s-1.67-.05-1.77-3.93c-.11-4.27,2.41-7.93,2.95-8.84.91-1.54,1.84-.8,1.96-1.47.1-.54.29-.54.29-.54h4.32s.2,0,.29.54c.12.68,1.05-.06,1.96,1.47.54.91,3.05,4.57,2.95,8.84-.1,3.88-1.77,3.93-1.77,3.93h-11.25"/>
  <path class="cls-14" d="M497.15,94.82c2.25,0,4.08-1.83,4.08-4.08s-1.83-4.08-4.08-4.08-4.08,1.83-4.08,4.08,1.83,4.08,4.08,4.08"/>
  <path class="cls-8" d="M502.64,109.02h-11.25s-1.67-.05-1.77-3.93c-.11-4.27,2.41-7.93,2.95-8.84.91-1.54,1.84-.8,1.96-1.47.1-.54.29-.54.29-.54h4.32s.2,0,.29.54c.12.68,1.05-.06,1.96,1.47.54.91,3.05,4.57,2.95,8.84-.1,3.88-1.77,3.93-1.77,3.93h-11.25"/>
  <path class="cls-2" d="M502.64,109.02h-11.25s-1.67-.05-1.77-3.93c-.11-4.27,2.41-7.93,2.95-8.84.91-1.54,1.84-.8,1.96-1.47.1-.54.29-.54.29-.54h4.32s.2,0,.29.54c.12.68,1.05-.06,1.96,1.47.54.91,3.05,4.57,2.95,8.84-.1,3.88-1.77,3.93-1.77,3.93h-11.25"/>
  <path class="cls-14" d="M497.15,40.3c2.25,0,4.08-1.83,4.08-4.08s-1.83-4.08-4.08-4.08-4.08,1.83-4.08,4.08,1.83,4.08,4.08,4.08"/>
  <path class="cls-5" d="M502.64,54.5h-11.25s-1.67-.05-1.77-3.93c-.11-4.27,2.41-7.93,2.95-8.84.91-1.54,1.84-.8,1.96-1.47.1-.54.29-.54.29-.54h4.32s.2,0,.29.54c.12.68,1.05-.06,1.96,1.47.54.91,3.05,4.57,2.95,8.84-.1,3.88-1.77,3.93-1.77,3.93h-11.25"/>
  <path class="cls-2" d="M502.64,54.5h-11.25s-1.67-.05-1.77-3.93c-.11-4.27,2.41-7.93,2.95-8.84.91-1.54,1.84-.8,1.96-1.47.1-.54.29-.54.29-.54h4.32s.2,0,.29.54c.12.68,1.05-.06,1.96,1.47.54.91,3.05,4.57,2.95,8.84-.1,3.88-1.77,3.93-1.77,3.93h-11.25"/>
  <path class="cls-4" d="M475.61,176.4c2.25,0,4.08-1.83,4.08-4.08s-1.83-4.08-4.08-4.08-4.08,1.83-4.08,4.08,1.83,4.08,4.08,4.08"/>
  <path class="cls-19" d="M481.1,190.6h-11.25s-1.67-.05-1.77-3.93c-.11-4.27,2.41-7.93,2.95-8.84.91-1.54,1.84-.8,1.96-1.47.1-.54.29-.54.29-.54h4.32s.2,0,.29.54c.12.68,1.05-.06,1.96,1.47.54.91,3.05,4.57,2.95,8.84-.1,3.88-1.77,3.93-1.77,3.93h-11.25"/>
  <path class="cls-2" d="M481.1,190.6h-11.25s-1.67-.05-1.77-3.93c-.11-4.27,2.41-7.93,2.95-8.84.91-1.54,1.84-.8,1.96-1.47.1-.54.29-.54.29-.54h4.32s.2,0,.29.54c.12.68,1.05-.06,1.96,1.47.54.91,3.05,4.57,2.95,8.84-.1,3.88-1.77,3.93-1.77,3.93h-11.25"/>
  <path class="cls-4" d="M475.61,94.82c2.25,0,4.08-1.83,4.08-4.08s-1.83-4.08-4.08-4.08-4.08,1.83-4.08,4.08,1.83,4.08,4.08,4.08"/>
  <path class="cls-19" d="M481.1,109.02h-11.25s-1.67-.05-1.77-3.93c-.11-4.27,2.41-7.93,2.95-8.84.91-1.54,1.84-.8,1.96-1.47.1-.54.29-.54.29-.54h4.32s.2,0,.29.54c.12.68,1.05-.06,1.96,1.47.54.91,3.05,4.57,2.95,8.84-.1,3.88-1.77,3.93-1.77,3.93h-11.25"/>
  <path class="cls-2" d="M481.1,109.02h-11.25s-1.67-.05-1.77-3.93c-.11-4.27,2.41-7.93,2.95-8.84.91-1.54,1.84-.8,1.96-1.47.1-.54.29-.54.29-.54h4.32s.2,0,.29.54c.12.68,1.05-.06,1.96,1.47.54.91,3.05,4.57,2.95,8.84-.1,3.88-1.77,3.93-1.77,3.93h-11.25"/>
  <path class="cls-12" d="M475.43,68.01c2.2,0,3.98-1.78,3.98-3.98s-1.78-3.98-3.98-3.98-3.98,1.78-3.98,3.98,1.78,3.98,3.98,3.98"/>
  <path class="cls-9" d="M480.79,81.87h-10.98s-1.63-.05-1.73-3.83c-.1-4.17,2.35-7.74,2.88-8.63.89-1.5,1.8-.78,1.92-1.44.1-.53.29-.53.29-.53h4.22s.19,0,.29.53c.12.66,1.03-.06,1.92,1.44.53.89,2.98,4.46,2.88,8.63-.1,3.79-1.73,3.83-1.73,3.83h-10.98"/>
  <path class="cls-2" d="M480.79,81.87h-10.98s-1.63-.05-1.73-3.83c-.1-4.17,2.35-7.74,2.88-8.63.89-1.5,1.8-.78,1.92-1.44.1-.53.29-.53.29-.53h4.22s.19,0,.29.53c.12.66,1.03-.06,1.92,1.44.53.89,2.98,4.46,2.88,8.63-.1,3.79-1.73,3.83-1.73,3.83h-10.98"/>
  <path class="cls-17" d="M475.61,149.3c2.25,0,4.08-1.83,4.08-4.08s-1.83-4.08-4.08-4.08-4.08,1.83-4.08,4.08,1.83,4.08,4.08,4.08"/>
  <path class="cls-9" d="M481.1,163.5h-11.25s-1.67-.05-1.77-3.93c-.11-4.27,2.41-7.93,2.95-8.84.91-1.54,1.84-.8,1.96-1.47.1-.54.29-.54.29-.54h4.32s.2,0,.29.54c.12.68,1.05-.06,1.96,1.47.54.91,3.05,4.57,2.95,8.84-.1,3.88-1.77,3.93-1.77,3.93h-11.25"/>
  <path class="cls-2" d="M481.1,163.5h-11.25s-1.67-.05-1.77-3.93c-.11-4.27,2.41-7.93,2.95-8.84.91-1.54,1.84-.8,1.96-1.47.1-.54.29-.54.29-.54h4.32s.2,0,.29.54c.12.68,1.05-.06,1.96,1.47.54.91,3.05,4.57,2.95,8.84-.1,3.88-1.77,3.93-1.77,3.93h-11.25"/>
  <path class="cls-18" d="M475.61,203.82c2.25,0,4.08-1.83,4.08-4.08s-1.83-4.08-4.08-4.08-4.08,1.83-4.08,4.08,1.83,4.08,4.08,4.08"/>
  <path class="cls-19" d="M481.1,218.02h-11.25s-1.67-.05-1.77-3.93c-.11-4.27,2.41-7.93,2.95-8.84.91-1.54,1.84-.8,1.96-1.47.1-.54.29-.54.29-.54h4.32s.2,0,.29.54c.12.68,1.05-.06,1.96,1.47.54.91,3.05,4.57,2.95,8.84-.1,3.88-1.77,3.93-1.77,3.93h-11.25"/>
  <path class="cls-2" d="M481.1,218.02h-11.25s-1.67-.05-1.77-3.93c-.11-4.27,2.41-7.93,2.95-8.84.91-1.54,1.84-.8,1.96-1.47.1-.54.29-.54.29-.54h4.32s.2,0,.29.54c.12.68,1.05-.06,1.96,1.47.54.91,3.05,4.57,2.95,8.84-.1,3.88-1.77,3.93-1.77,3.93h-11.25"/>
  <path class="cls-12" d="M584.64,176.48c2.2,0,3.98-1.78,3.98-3.98s-1.78-3.98-3.98-3.98-3.98,1.78-3.98,3.98,1.78,3.98,3.98,3.98"/>
  <path class="cls-19" d="M590,190.34h-10.98s-1.63-.05-1.73-3.83c-.1-4.17,2.35-7.74,2.88-8.63.89-1.5,1.8-.78,1.92-1.44.1-.53.29-.53.29-.53h4.22s.19,0,.29.53c.12.66,1.03-.06,1.92,1.44.53.89,2.98,4.46,2.88,8.63-.1,3.79-1.73,3.83-1.73,3.83h-10.98"/>
  <path class="cls-2" d="M590,190.34h-10.98s-1.63-.05-1.73-3.83c-.1-4.17,2.35-7.74,2.88-8.63.89-1.5,1.8-.78,1.92-1.44.1-.53.29-.53.29-.53h4.22s.19,0,.29.53c.12.66,1.03-.06,1.92,1.44.53.89,2.98,4.46,2.88,8.63-.1,3.79-1.73,3.83-1.73,3.83h-10.98"/>
  <path class="cls-4" d="M584.82,231.22c2.25,0,4.08-1.83,4.08-4.08s-1.83-4.08-4.08-4.08-4.08,1.83-4.08,4.08,1.83,4.08,4.08,4.08"/>
  <path class="cls-8" d="M590.31,245.42h-11.25s-1.67-.05-1.77-3.93c-.11-4.27,2.41-7.93,2.95-8.84.91-1.54,1.84-.8,1.96-1.47.1-.54.29-.54.29-.54h4.32s.2,0,.29.54c.12.68,1.05-.06,1.96,1.47.54.91,3.05,4.57,2.95,8.84-.1,3.88-1.77,3.93-1.77,3.93h-11.25"/>
  <path class="cls-2" d="M590.31,245.42h-11.25s-1.67-.05-1.77-3.93c-.11-4.27,2.41-7.93,2.95-8.84.91-1.54,1.84-.8,1.96-1.47.1-.54.29-.54.29-.54h4.32s.2,0,.29.54c.12.68,1.05-.06,1.96,1.47.54.91,3.05,4.57,2.95,8.84-.1,3.88-1.77,3.93-1.77,3.93h-11.25"/>
  <path class="cls-12" d="M562.74,122.53c2.2,0,3.98-1.78,3.98-3.98s-1.78-3.98-3.98-3.98-3.98,1.78-3.98,3.98,1.78,3.98,3.98,3.98"/>
  <path class="cls-9" d="M568.1,136.39h-10.98s-1.63-.05-1.73-3.83c-.1-4.17,2.35-7.74,2.88-8.63.89-1.5,1.8-.78,1.92-1.44.1-.53.29-.53.29-.53h4.22s.19,0,.29.53c.12.66,1.03-.06,1.92,1.44.53.89,2.98,4.46,2.88,8.63-.1,3.79-1.73,3.83-1.73,3.83h-10.98"/>
  <path class="cls-2" d="M568.1,136.39h-10.98s-1.63-.05-1.73-3.83c-.1-4.17,2.35-7.74,2.88-8.63.89-1.5,1.8-.78,1.92-1.44.1-.53.29-.53.29-.53h4.22s.19,0,.29.53c.12.66,1.03-.06,1.92,1.44.53.89,2.98,4.46,2.88,8.63-.1,3.79-1.73,3.83-1.73,3.83h-10.98"/>
  <path class="cls-18" d="M584.46,13.15c2.25,0,4.08-1.83,4.08-4.08s-1.83-4.08-4.08-4.08-4.08,1.83-4.08,4.08,1.83,4.08,4.08,4.08"/>
  <path class="cls-13" d="M589.94,27.35h-11.25s-1.67-.05-1.77-3.93c-.11-4.27,2.41-7.93,2.95-8.84.91-1.54,1.84-.8,1.96-1.47.1-.54.29-.54.29-.54h4.32s.2,0,.29.54c.12.68,1.05-.06,1.96,1.47.54.91,3.05,4.57,2.95,8.84-.1,3.88-1.77,3.93-1.77,3.93h-11.25"/>
  <path class="cls-2" d="M589.94,27.35h-11.25s-1.67-.05-1.77-3.93c-.11-4.27,2.41-7.93,2.95-8.84.91-1.54,1.84-.8,1.96-1.47.1-.54.29-.54.29-.54h4.32s.2,0,.29.54c.12.68,1.05-.06,1.96,1.47.54.91,3.05,4.57,2.95,8.84-.1,3.88-1.77,3.93-1.77,3.93h-11.25"/>
  <path class="cls-4" d="M562.92,13.15c2.25,0,4.08-1.83,4.08-4.08s-1.83-4.08-4.08-4.08-4.08,1.83-4.08,4.08,1.83,4.08,4.08,4.08"/>
  <path class="cls-19" d="M568.41,27.35h-11.25s-1.67-.05-1.77-3.93c-.11-4.27,2.41-7.93,2.95-8.84.91-1.54,1.84-.8,1.96-1.47.1-.54.29-.54.29-.54h4.32s.2,0,.29.54c.12.68,1.05-.06,1.96,1.47.54.91,3.05,4.57,2.95,8.84-.1,3.88-1.77,3.93-1.77,3.93h-11.25"/>
  <path class="cls-2" d="M568.41,27.35h-11.25s-1.67-.05-1.77-3.93c-.11-4.27,2.41-7.93,2.95-8.84.91-1.54,1.84-.8,1.96-1.47.1-.54.29-.54.29-.54h4.32s.2,0,.29.54c.12.68,1.05-.06,1.96,1.47.54.91,3.05,4.57,2.95,8.84-.1,3.88-1.77,3.93-1.77,3.93h-11.25"/>
  <path class="cls-18" d="M584.47,122.46c2.25,0,4.08-1.83,4.08-4.08s-1.83-4.08-4.08-4.08-4.08,1.83-4.08,4.08,1.83,4.08,4.08,4.08"/>
  <path class="cls-13" d="M589.96,136.66h-11.25s-1.67-.05-1.77-3.93c-.11-4.27,2.41-7.93,2.95-8.84.91-1.54,1.84-.8,1.96-1.47.1-.54.29-.54.29-.54h4.32s.2,0,.29.54c.12.68,1.05-.06,1.96,1.47.54.91,3.05,4.57,2.95,8.84-.1,3.88-1.77,3.93-1.77,3.93h-11.25"/>
  <path class="cls-2" d="M589.96,136.66h-11.25s-1.67-.05-1.77-3.93c-.11-4.27,2.41-7.93,2.95-8.84.91-1.54,1.84-.8,1.96-1.47.1-.54.29-.54.29-.54h4.32s.2,0,.29.54c.12.68,1.05-.06,1.96,1.47.54.91,3.05,4.57,2.95,8.84-.1,3.88-1.77,3.93-1.77,3.93h-11.25"/>
  <path class="cls-1" d="M584.47,149.3c2.25,0,4.08-1.83,4.08-4.08s-1.83-4.08-4.08-4.08-4.08,1.83-4.08,4.08,1.83,4.08,4.08,4.08"/>
  <path class="cls-19" d="M589.96,163.5h-11.25s-1.67-.05-1.77-3.93c-.11-4.27,2.41-7.93,2.95-8.84.91-1.54,1.84-.8,1.96-1.47.1-.54.29-.54.29-.54h4.32s.2,0,.29.54c.12.68,1.05-.06,1.96,1.47.54.91,3.05,4.57,2.95,8.84-.1,3.88-1.77,3.93-1.77,3.93h-11.25"/>
  <path class="cls-2" d="M589.96,163.5h-11.25s-1.67-.05-1.77-3.93c-.11-4.27,2.41-7.93,2.95-8.84.91-1.54,1.84-.8,1.96-1.47.1-.54.29-.54.29-.54h4.32s.2,0,.29.54c.12.68,1.05-.06,1.96,1.47.54.91,3.05,4.57,2.95,8.84-.1,3.88-1.77,3.93-1.77,3.93h-11.25"/>
  <path class="cls-1" d="M562.92,231.22c2.25,0,4.08-1.83,4.08-4.08s-1.83-4.08-4.08-4.08-4.08,1.83-4.08,4.08,1.83,4.08,4.08,4.08"/>
  <path class="cls-19" d="M568.41,245.42h-11.25s-1.67-.05-1.77-3.93c-.11-4.27,2.41-7.93,2.95-8.84.91-1.54,1.84-.8,1.96-1.47.1-.54.29-.54.29-.54h4.32s.2,0,.29.54c.12.68,1.05-.06,1.96,1.47.54.91,3.05,4.57,2.95,8.84-.1,3.88-1.77,3.93-1.77,3.93h-11.25"/>
  <path class="cls-2" d="M568.41,245.42h-11.25s-1.67-.05-1.77-3.93c-.11-4.27,2.41-7.93,2.95-8.84.91-1.54,1.84-.8,1.96-1.47.1-.54.29-.54.29-.54h4.32s.2,0,.29.54c.12.68,1.05-.06,1.96,1.47.54.91,3.05,4.57,2.95,8.84-.1,3.88-1.77,3.93-1.77,3.93h-11.25"/>
  <path class="cls-17" d="M584.82,203.82c2.25,0,4.08-1.83,4.08-4.08s-1.83-4.08-4.08-4.08-4.08,1.83-4.08,4.08,1.83,4.08,4.08,4.08"/>
  <path class="cls-5" d="M590.31,218.02h-11.25s-1.67-.05-1.77-3.93c-.11-4.27,2.41-7.93,2.95-8.84.91-1.54,1.84-.8,1.96-1.47.1-.54.29-.54.29-.54h4.32s.2,0,.29.54c.12.68,1.05-.06,1.96,1.47.54.91,3.05,4.57,2.95,8.84-.1,3.88-1.77,3.93-1.77,3.93h-11.25"/>
  <path class="cls-2" d="M590.31,218.02h-11.25s-1.67-.05-1.77-3.93c-.11-4.27,2.41-7.93,2.95-8.84.91-1.54,1.84-.8,1.96-1.47.1-.54.29-.54.29-.54h4.32s.2,0,.29.54c.12.68,1.05-.06,1.96,1.47.54.91,3.05,4.57,2.95,8.84-.1,3.88-1.77,3.93-1.77,3.93h-11.25"/>
  <path class="cls-4" d="M562.92,40.3c2.25,0,4.08-1.83,4.08-4.08s-1.83-4.08-4.08-4.08-4.08,1.83-4.08,4.08,1.83,4.08,4.08,4.08"/>
  <path class="cls-8" d="M568.41,54.5h-11.25s-1.67-.05-1.77-3.93c-.11-4.27,2.41-7.93,2.95-8.84.91-1.54,1.84-.8,1.96-1.47.1-.54.29-.54.29-.54h4.32s.2,0,.29.54c.12.68,1.05-.06,1.96,1.47.54.91,3.05,4.57,2.95,8.84-.1,3.88-1.77,3.93-1.77,3.93h-11.25"/>
  <path class="cls-2" d="M568.41,54.5h-11.25s-1.67-.05-1.77-3.93c-.11-4.27,2.41-7.93,2.95-8.84.91-1.54,1.84-.8,1.96-1.47.1-.54.29-.54.29-.54h4.32s.2,0,.29.54c.12.68,1.05-.06,1.96,1.47.54.91,3.05,4.57,2.95,8.84-.1,3.88-1.77,3.93-1.77,3.93h-11.25"/>
  <path class="cls-4" d="M584.47,67.67c2.25,0,4.08-1.83,4.08-4.08s-1.83-4.08-4.08-4.08-4.08,1.83-4.08,4.08,1.83,4.08,4.08,4.08"/>
  <path class="cls-8" d="M589.96,81.87h-11.25s-1.67-.05-1.77-3.93c-.11-4.27,2.41-7.93,2.95-8.84.91-1.54,1.84-.8,1.96-1.47.1-.54.29-.54.29-.54h4.32s.2,0,.29.54c.12.68,1.05-.06,1.96,1.47.54.91,3.05,4.57,2.95,8.84-.1,3.88-1.77,3.93-1.77,3.93h-11.25"/>
  <path class="cls-2" d="M589.96,81.87h-11.25s-1.67-.05-1.77-3.93c-.11-4.27,2.41-7.93,2.95-8.84.91-1.54,1.84-.8,1.96-1.47.1-.54.29-.54.29-.54h4.32s.2,0,.29.54c.12.68,1.05-.06,1.96,1.47.54.91,3.05,4.57,2.95,8.84-.1,3.88-1.77,3.93-1.77,3.93h-11.25"/>
  <path class="cls-1" d="M584.46,94.82c2.25,0,4.08-1.83,4.08-4.08s-1.83-4.08-4.08-4.08-4.08,1.83-4.08,4.08,1.83,4.08,4.08,4.08"/>
  <path class="cls-9" d="M589.94,109.02h-11.25s-1.67-.05-1.77-3.93c-.11-4.27,2.41-7.93,2.95-8.84.91-1.54,1.84-.8,1.96-1.47.1-.54.29-.54.29-.54h4.32s.2,0,.29.54c.12.68,1.05-.06,1.96,1.47.54.91,3.05,4.57,2.95,8.84-.1,3.88-1.77,3.93-1.77,3.93h-11.25"/>
  <path class="cls-2" d="M589.94,109.02h-11.25s-1.67-.05-1.77-3.93c-.11-4.27,2.41-7.93,2.95-8.84.91-1.54,1.84-.8,1.96-1.47.1-.54.29-.54.29-.54h4.32s.2,0,.29.54c.12.68,1.05-.06,1.96,1.47.54.91,3.05,4.57,2.95,8.84-.1,3.88-1.77,3.93-1.77,3.93h-11.25"/>
  <path class="cls-14" d="M584.46,40.3c2.25,0,4.08-1.83,4.08-4.08s-1.83-4.08-4.08-4.08-4.08,1.83-4.08,4.08,1.83,4.08,4.08,4.08"/>
  <path class="cls-5" d="M589.94,54.5h-11.25s-1.67-.05-1.77-3.93c-.11-4.27,2.41-7.93,2.95-8.84.91-1.54,1.84-.8,1.96-1.47.1-.54.29-.54.29-.54h4.32s.2,0,.29.54c.12.68,1.05-.06,1.96,1.47.54.91,3.05,4.57,2.95,8.84-.1,3.88-1.77,3.93-1.77,3.93h-11.25"/>
  <path class="cls-2" d="M589.94,54.5h-11.25s-1.67-.05-1.77-3.93c-.11-4.27,2.41-7.93,2.95-8.84.91-1.54,1.84-.8,1.96-1.47.1-.54.29-.54.29-.54h4.32s.2,0,.29.54c.12.68,1.05-.06,1.96,1.47.54.91,3.05,4.57,2.95,8.84-.1,3.88-1.77,3.93-1.77,3.93h-11.25"/>
  <path class="cls-4" d="M562.92,176.4c2.25,0,4.08-1.83,4.08-4.08s-1.83-4.08-4.08-4.08-4.08,1.83-4.08,4.08,1.83,4.08,4.08,4.08"/>
  <path class="cls-8" d="M568.41,190.6h-11.25s-1.67-.05-1.77-3.93c-.11-4.27,2.41-7.93,2.95-8.84.91-1.54,1.84-.8,1.96-1.47.1-.54.29-.54.29-.54h4.32s.2,0,.29.54c.12.68,1.05-.06,1.96,1.47.54.91,3.05,4.57,2.95,8.84-.1,3.88-1.77,3.93-1.77,3.93h-11.25"/>
  <path class="cls-2" d="M568.41,190.6h-11.25s-1.67-.05-1.77-3.93c-.11-4.27,2.41-7.93,2.95-8.84.91-1.54,1.84-.8,1.96-1.47.1-.54.29-.54.29-.54h4.32s.2,0,.29.54c.12.68,1.05-.06,1.96,1.47.54.91,3.05,4.57,2.95,8.84-.1,3.88-1.77,3.93-1.77,3.93h-11.25"/>
  <path class="cls-14" d="M562.92,94.82c2.25,0,4.08-1.83,4.08-4.08s-1.83-4.08-4.08-4.08-4.08,1.83-4.08,4.08,1.83,4.08,4.08,4.08"/>
  <path class="cls-19" d="M568.41,109.02h-11.25s-1.67-.05-1.77-3.93c-.11-4.27,2.41-7.93,2.95-8.84.91-1.54,1.84-.8,1.96-1.47.1-.54.29-.54.29-.54h4.32s.2,0,.29.54c.12.68,1.05-.06,1.96,1.47.54.91,3.05,4.57,2.95,8.84-.1,3.88-1.77,3.93-1.77,3.93h-11.25"/>
  <path class="cls-2" d="M568.41,109.02h-11.25s-1.67-.05-1.77-3.93c-.11-4.27,2.41-7.93,2.95-8.84.91-1.54,1.84-.8,1.96-1.47.1-.54.29-.54.29-.54h4.32s.2,0,.29.54c.12.68,1.05-.06,1.96,1.47.54.91,3.05,4.57,2.95,8.84-.1,3.88-1.77,3.93-1.77,3.93h-11.25"/>
  <path class="cls-12" d="M562.74,68.01c2.2,0,3.98-1.78,3.98-3.98s-1.78-3.98-3.98-3.98-3.98,1.78-3.98,3.98,1.78,3.98,3.98,3.98"/>
  <path class="cls-9" d="M568.1,81.87h-10.98s-1.63-.05-1.73-3.83c-.1-4.17,2.35-7.74,2.88-8.63.89-1.5,1.8-.78,1.92-1.44.1-.53.29-.53.29-.53h4.22s.19,0,.29.53c.12.66,1.03-.06,1.92,1.44.53.89,2.98,4.46,2.88,8.63-.1,3.79-1.73,3.83-1.73,3.83h-10.98"/>
  <path class="cls-2" d="M568.1,81.87h-10.98s-1.63-.05-1.73-3.83c-.1-4.17,2.35-7.74,2.88-8.63.89-1.5,1.8-.78,1.92-1.44.1-.53.29-.53.29-.53h4.22s.19,0,.29.53c.12.66,1.03-.06,1.92,1.44.53.89,2.98,4.46,2.88,8.63-.1,3.79-1.73,3.83-1.73,3.83h-10.98"/>
  <path class="cls-17" d="M562.92,149.3c2.25,0,4.08-1.83,4.08-4.08s-1.83-4.08-4.08-4.08-4.08,1.83-4.08,4.08,1.83,4.08,4.08,4.08"/>
  <path class="cls-5" d="M568.41,163.5h-11.25s-1.67-.05-1.77-3.93c-.11-4.27,2.41-7.93,2.95-8.84.91-1.54,1.84-.8,1.96-1.47.1-.54.29-.54.29-.54h4.32s.2,0,.29.54c.12.68,1.05-.06,1.96,1.47.54.91,3.05,4.57,2.95,8.84-.1,3.88-1.77,3.93-1.77,3.93h-11.25"/>
  <path class="cls-2" d="M568.41,163.5h-11.25s-1.67-.05-1.77-3.93c-.11-4.27,2.41-7.93,2.95-8.84.91-1.54,1.84-.8,1.96-1.47.1-.54.29-.54.29-.54h4.32s.2,0,.29.54c.12.68,1.05-.06,1.96,1.47.54.91,3.05,4.57,2.95,8.84-.1,3.88-1.77,3.93-1.77,3.93h-11.25"/>
  <path class="cls-18" d="M562.92,203.82c2.25,0,4.08-1.83,4.08-4.08s-1.83-4.08-4.08-4.08-4.08,1.83-4.08,4.08,1.83,4.08,4.08,4.08"/>
  <path class="cls-9" d="M568.41,218.02h-11.25s-1.67-.05-1.77-3.93c-.11-4.27,2.41-7.93,2.95-8.84.91-1.54,1.84-.8,1.96-1.47.1-.54.29-.54.29-.54h4.32s.2,0,.29.54c.12.68,1.05-.06,1.96,1.47.54.91,3.05,4.57,2.95,8.84-.1,3.88-1.77,3.93-1.77,3.93h-11.25"/>
  <path class="cls-2" d="M568.41,218.02h-11.25s-1.67-.05-1.77-3.93c-.11-4.27,2.41-7.93,2.95-8.84.91-1.54,1.84-.8,1.96-1.47.1-.54.29-.54.29-.54h4.32s.2,0,.29.54c.12.68,1.05-.06,1.96,1.47.54.91,3.05,4.57,2.95,8.84-.1,3.88-1.77,3.93-1.77,3.93h-11.25"/>
  <line class="cls-3" x1="312.71" y1="98.63" x2="346" y2="75.05"/>
  <polyline class="cls-3" points="321.72 99.83 312.71 98.62 314.57 89.73"/>
  <polyline class="cls-3" points="336.99 73.85 346 75.05 344.15 83.95"/>
  <line class="cls-3" x1="312.71" y1="57.77" x2="346" y2="34.2"/>
  <polyline class="cls-3" points="321.72 58.98 312.71 57.77 314.57 48.87"/>
  <polyline class="cls-3" points="336.99 32.99 346 34.2 344.15 43.09"/>
  <line class="cls-3" x1="312.9" y1="158.17" x2="346.01" y2="181.63"/>
  <polyline class="cls-3" points="314.76 167.07 312.9 158.16 321.92 156.97"/>
  <polyline class="cls-3" points="344.16 172.73 346.01 181.63 337 182.83"/>
  <line class="cls-3" x1="312.9" y1="199.02" x2="346.01" y2="222.49"/>
  <polyline class="cls-3" points="314.76 207.92 312.9 199.02 321.92 197.82"/>
  <polyline class="cls-3" points="344.16 213.59 346.01 222.49 337 223.69"/>
  <g>
    <path class="cls-15" d="M11.65,188.89v-9.72h6.05v1.03h-4.86v3.26h4.57v1.03h-4.57v3.37h4.86v1.03h-6.05Z"/>
    <path class="cls-15" d="M20.92,188.89v-9.72h1.19v8.69h4.22v1.03h-5.41Z"/>
    <path class="cls-15" d="M29.03,188.89v-9.72h6.05v1.03h-4.86v3.26h4.57v1.03h-4.57v3.37h4.86v1.03h-6.05Z"/>
    <path class="cls-15" d="M37.8,184.09c0-3.25,1.49-5.08,3.99-5.08,1.65,0,2.78.78,3.41,2.13l-.97.57c-.4-1-1.22-1.66-2.44-1.66-1.7,0-2.71,1.32-2.71,3.32v1.45c0,1.99,1.01,3.2,2.71,3.2,1.26,0,2.13-.7,2.53-1.75l.95.58c-.62,1.37-1.83,2.21-3.48,2.21-2.5,0-3.99-1.73-3.99-4.97Z"/>
    <path class="cls-15" d="M51.46,180.2v8.69h-1.19v-8.69h-3.15v-1.03h7.5v1.03h-3.15Z"/>
    <path class="cls-15" d="M57.25,188.89v-9.72h6.05v1.03h-4.86v3.26h4.57v1.03h-4.57v3.37h4.86v1.03h-6.05Z"/>
    <path class="cls-15" d="M66.51,179.17h3.32c2.47,0,4.06,1.62,4.06,4.86s-1.59,4.86-4.06,4.86h-3.32v-9.72ZM69.84,187.86c1.63,0,2.78-1.11,2.78-3.04v-1.59c0-1.92-1.15-3.04-2.78-3.04h-2.13v7.66h2.13Z"/>
  </g>
  <g>
    <path class="cls-15" d="M6.84,201.79c0-3.26,1.65-5.03,4.21-5.03s4.21,1.77,4.21,5.03-1.65,5.03-4.21,5.03-4.21-1.77-4.21-5.03ZM13.97,202.6v-1.62c0-1.92-1.21-3.18-2.93-3.18s-2.93,1.25-2.93,3.18v1.62c0,1.92,1.21,3.18,2.93,3.18s2.93-1.25,2.93-3.18Z"/>
    <path class="cls-15" d="M18.38,206.66v-9.72h5.91v1.03h-4.72v3.26h4.3v1.03h-4.3v4.4h-1.19Z"/>
    <path class="cls-15" d="M27.32,206.66v-9.72h5.91v1.03h-4.72v3.26h4.3v1.03h-4.3v4.4h-1.19Z"/>
    <path class="cls-15" d="M35.79,206.66v-.98h1.39v-7.77h-1.39v-.97h3.98v.97h-1.39v7.77h1.39v.98h-3.98Z"/>
    <path class="cls-15" d="M42.43,201.85c0-3.25,1.49-5.08,3.99-5.08,1.65,0,2.78.78,3.41,2.13l-.97.57c-.4-1-1.22-1.66-2.44-1.66-1.7,0-2.71,1.32-2.71,3.32v1.45c0,1.99,1.01,3.2,2.71,3.2,1.26,0,2.13-.7,2.53-1.75l.95.58c-.62,1.37-1.83,2.21-3.48,2.21-2.5,0-3.99-1.73-3.99-4.97Z"/>
    <path class="cls-15" d="M52.75,206.66v-9.72h6.05v1.03h-4.86v3.26h4.57v1.03h-4.57v3.37h4.86v1.03h-6.05Z"/>
    <path class="cls-15" d="M63.21,206.66h-1.19v-9.72h3.95c1.73,0,2.77.99,2.77,2.76,0,1.42-.7,2.38-1.99,2.67l2.27,4.29h-1.35l-2.15-4.18h-2.32v4.18ZM65.96,201.47c.94,0,1.49-.5,1.49-1.39v-.72c0-.89-.55-1.39-1.49-1.39h-2.76v3.51h2.76Z"/>
    <path class="cls-15" d="M71.38,205.12l.88-.72c.7.91,1.52,1.39,2.67,1.39,1.42,0,2.19-.72,2.19-1.84,0-.92-.53-1.38-1.83-1.67l-.81-.18c-1.8-.4-2.8-1.18-2.8-2.67,0-1.73,1.34-2.66,3.28-2.66,1.49,0,2.54.56,3.28,1.59l-.9.64c-.54-.74-1.29-1.2-2.44-1.2-1.26,0-2.05.54-2.05,1.59,0,.92.61,1.34,1.86,1.62l.81.18c1.93.43,2.77,1.27,2.77,2.72,0,1.78-1.28,2.93-3.41,2.93-1.59,0-2.71-.64-3.51-1.7Z"/>
  </g>
  <g>
    <path class="cls-15" d="M102.96,214.75v-9.72h6.05v1.03h-4.86v3.26h4.57v1.03h-4.57v3.37h4.86v1.03h-6.05Z"/>
    <path class="cls-15" d="M114.48,209.8l-3.15-4.78h1.43l2.49,3.87h.03l2.54-3.87h1.36l-3.18,4.74,3.27,4.99h-1.43l-2.6-4.08h-.03l-2.6,4.08h-1.36l3.24-4.95Z"/>
    <path class="cls-15" d="M121.93,214.75v-9.72h6.05v1.03h-4.86v3.26h4.57v1.03h-4.57v3.37h4.86v1.03h-6.05Z"/>
    <path class="cls-15" d="M130.7,209.94c0-3.25,1.49-5.08,3.99-5.08,1.65,0,2.78.78,3.41,2.13l-.97.57c-.4-1-1.22-1.66-2.44-1.66-1.7,0-2.71,1.32-2.71,3.32v1.45c0,1.99,1.01,3.2,2.71,3.2,1.26,0,2.13-.7,2.53-1.75l.95.58c-.62,1.37-1.83,2.21-3.48,2.21-2.5,0-3.99-1.73-3.99-4.97Z"/>
    <path class="cls-15" d="M142.14,205.02v6.02c0,1.85.61,2.83,2.37,2.83s2.37-.97,2.37-2.83v-6.02h1.19v5.74c0,2.83-.97,4.15-3.61,4.15s-3.52-1.32-3.52-4.15v-5.74h1.19Z"/>
    <path class="cls-15" d="M154.98,206.05v8.69h-1.19v-8.69h-3.15v-1.03h7.5v1.03h-3.15Z"/>
    <path class="cls-15" d="M160.19,214.75v-.98h1.39v-7.77h-1.39v-.97h3.98v.97h-1.39v7.77h1.39v.98h-3.98Z"/>
    <path class="cls-15" d="M169.6,214.75l-3.3-9.72h1.28l1.63,4.9,1.09,3.65h.07l1.12-3.65,1.65-4.9h1.24l-3.34,9.72h-1.45Z"/>
    <path class="cls-15" d="M176.98,214.75v-9.72h6.05v1.03h-4.86v3.26h4.57v1.03h-4.57v3.37h4.86v1.03h-6.05Z"/>
  </g>
  <g>
    <path class="cls-15" d="M118.71,222.79h4.08c1.63,0,2.64.99,2.64,2.51s-.95,1.96-1.61,2.06v.08c.71.04,1.95.64,1.95,2.26s-1.09,2.81-2.56,2.81h-4.5v-9.72ZM119.91,226.99h2.74c.94,0,1.51-.49,1.51-1.35v-.47c0-.86-.57-1.35-1.51-1.35h-2.74v3.18ZM119.91,231.48h2.94c1.02,0,1.65-.53,1.65-1.5v-.47c0-.98-.62-1.5-1.65-1.5h-2.94v3.48Z"/>
    <path class="cls-15" d="M128.49,227.65c0-3.26,1.65-5.03,4.21-5.03s4.21,1.77,4.21,5.03-1.65,5.03-4.21,5.03-4.21-1.77-4.21-5.03ZM135.62,228.46v-1.62c0-1.92-1.21-3.18-2.93-3.18s-2.93,1.25-2.93,3.18v1.62c0,1.92,1.21,3.18,2.93,3.18s2.93-1.25,2.93-3.18Z"/>
    <path class="cls-15" d="M146.04,232.51l-.99-2.87h-4.01l-.99,2.87h-1.21l3.47-9.72h1.52l3.47,9.72h-1.25ZM143.07,223.87h-.07l-1.68,4.74h3.42l-1.68-4.74Z"/>
    <path class="cls-15" d="M151.13,232.51h-1.19v-9.72h3.95c1.73,0,2.77.99,2.77,2.76,0,1.42-.7,2.38-1.99,2.67l2.27,4.29h-1.35l-2.15-4.18h-2.32v4.18ZM153.89,227.33c.94,0,1.49-.5,1.49-1.39v-.72c0-.89-.55-1.39-1.49-1.39h-2.76v3.51h2.76Z"/>
    <path class="cls-15" d="M160.03,222.79h3.32c2.47,0,4.06,1.62,4.06,4.86s-1.59,4.86-4.06,4.86h-3.32v-9.72ZM163.35,231.48c1.63,0,2.78-1.11,2.78-3.04v-1.59c0-1.92-1.15-3.04-2.78-3.04h-2.13v7.66h2.13Z"/>
  </g>
  <path class="cls-11" d="M44.28,94.63c2.25,0,4.08-1.83,4.08-4.08s-1.83-4.08-4.08-4.08-4.08,1.83-4.08,4.08,1.82,4.08,4.08,4.08"/>
  <path class="cls-5" d="M49.77,108.83h-11.25s-1.67-.05-1.77-3.93c-.11-4.27,2.41-7.93,2.95-8.84.91-1.54,1.84-.8,1.96-1.47.1-.54.29-.54.29-.54h4.32s.2,0,.29.54c.12.68,1.05-.06,1.96,1.47.54.91,3.05,4.57,2.95,8.84-.1,3.88-1.77,3.93-1.77,3.93h-11.25"/>
  <path class="cls-2" d="M49.77,108.83h-11.25s-1.67-.05-1.77-3.93c-.11-4.27,2.41-7.93,2.95-8.84.91-1.54,1.84-.8,1.96-1.47.1-.54.29-.54.29-.54h4.32s.2,0,.29.54c.12.68,1.05-.06,1.96,1.47.54.91,3.05,4.57,2.95,8.84-.1,3.88-1.77,3.93-1.77,3.93h-11.25"/>
  <path class="cls-4" d="M44.28,122c2.25,0,4.08-1.83,4.08-4.08s-1.83-4.08-4.08-4.08-4.08,1.83-4.08,4.08,1.82,4.08,4.08,4.08"/>
  <path class="cls-19" d="M49.77,136.2h-11.25s-1.67-.05-1.77-3.93c-.11-4.27,2.41-7.93,2.95-8.84.91-1.54,1.84-.8,1.96-1.47.1-.54.29-.54.29-.54h4.32s.2,0,.29.54c.12.68,1.05-.06,1.96,1.47.54.91,3.05,4.57,2.95,8.84-.1,3.88-1.77,3.93-1.77,3.93h-11.25"/>
  <path class="cls-2" d="M49.77,136.2h-11.25s-1.67-.05-1.77-3.93c-.11-4.27,2.41-7.93,2.95-8.84.91-1.54,1.84-.8,1.96-1.47.1-.54.29-.54.29-.54h4.32s.2,0,.29.54c.12.68,1.05-.06,1.96,1.47.54.91,3.05,4.57,2.95,8.84-.1,3.88-1.77,3.93-1.77,3.93h-11.25"/>
  <path class="cls-12" d="M44.1,149.44c2.2,0,3.98-1.78,3.98-3.98s-1.78-3.98-3.98-3.98-3.98,1.78-3.98,3.98,1.78,3.98,3.98,3.98"/>
  <path class="cls-9" d="M49.46,163.31h-10.98s-1.63-.05-1.73-3.83c-.11-4.17,2.35-7.74,2.88-8.63.89-1.5,1.8-.78,1.92-1.44.1-.53.29-.53.29-.53h4.22s.19,0,.29.53c.12.66,1.03-.06,1.92,1.44.53.89,2.98,4.46,2.88,8.63-.1,3.79-1.73,3.83-1.73,3.83h-10.98"/>
  <path class="cls-2" d="M49.46,163.31h-10.98s-1.63-.05-1.73-3.83c-.11-4.17,2.35-7.74,2.88-8.63.89-1.5,1.8-.78,1.92-1.44.1-.53.29-.53.29-.53h4.22s.19,0,.29.53c.12.66,1.03-.06,1.92,1.44.53.89,2.98,4.46,2.88,8.63-.1,3.79-1.73,3.83-1.73,3.83h-10.98"/>
  <path class="cls-18" d="M153.66,68.05c2.2,0,3.98-1.78,3.98-3.98s-1.78-3.98-3.98-3.98-3.98,1.78-3.98,3.98,1.78,3.98,3.98,3.98"/>
  <path class="cls-5" d="M159.01,81.91h-10.98s-1.63-.05-1.73-3.83c-.11-4.17,2.35-7.74,2.88-8.63.89-1.5,1.8-.78,1.92-1.44.1-.53.29-.53.29-.53h4.22s.19,0,.29.53c.12.66,1.03-.06,1.92,1.44.53.89,2.98,4.46,2.88,8.63-.1,3.79-1.73,3.83-1.73,3.83h-10.98"/>
  <path class="cls-2" d="M159.01,81.91h-10.98s-1.63-.05-1.73-3.83c-.11-4.17,2.35-7.74,2.88-8.63.89-1.5,1.8-.78,1.92-1.44.1-.53.29-.53.29-.53h4.22s.19,0,.29.53c.12.66,1.03-.06,1.92,1.44.53.89,2.98,4.46,2.88,8.63-.1,3.79-1.73,3.83-1.73,3.83h-10.98"/>
  <path class="cls-12" d="M152.96,176.78c2.2,0,3.98-1.78,3.98-3.98s-1.78-3.98-3.98-3.98-3.98,1.78-3.98,3.98,1.78,3.98,3.98,3.98"/>
  <path class="cls-9" d="M158.31,190.65h-10.98s-1.63-.05-1.73-3.83c-.11-4.17,2.35-7.74,2.88-8.63.89-1.5,1.8-.78,1.92-1.44.1-.53.29-.53.29-.53h4.22s.19,0,.29.53c.12.66,1.03-.06,1.92,1.44.53.89,2.98,4.46,2.88,8.63-.1,3.79-1.73,3.83-1.73,3.83h-10.98"/>
  <path class="cls-2" d="M158.31,190.65h-10.98s-1.63-.05-1.73-3.83c-.11-4.17,2.35-7.74,2.88-8.63.89-1.5,1.8-.78,1.92-1.44.1-.53.29-.53.29-.53h4.22s.19,0,.29.53c.12.66,1.03-.06,1.92,1.44.53.89,2.98,4.46,2.88,8.63-.1,3.79-1.73,3.83-1.73,3.83h-10.98"/>
  <path class="cls-1" d="M153.49,122.24c2.25,0,4.08-1.83,4.08-4.08s-1.83-4.08-4.08-4.08-4.08,1.83-4.08,4.08,1.82,4.08,4.08,4.08"/>
  <path class="cls-19" d="M158.97,136.44h-11.25s-1.67-.05-1.77-3.93c-.11-4.27,2.41-7.93,2.95-8.84.91-1.54,1.84-.8,1.96-1.47.1-.54.29-.54.29-.54h4.32s.2,0,.29.54c.12.68,1.05-.06,1.96,1.47.54.91,3.05,4.57,2.95,8.84-.1,3.88-1.77,3.93-1.77,3.93h-11.25"/>
  <path class="cls-2" d="M158.97,136.44h-11.25s-1.67-.05-1.77-3.93c-.11-4.27,2.41-7.93,2.95-8.84.91-1.54,1.84-.8,1.96-1.47.1-.54.29-.54.29-.54h4.32s.2,0,.29.54c.12.68,1.05-.06,1.96,1.47.54.91,3.05,4.57,2.95,8.84-.1,3.88-1.77,3.93-1.77,3.93h-11.25"/>
  <path class="cls-4" d="M153.14,149.61c2.25,0,4.08-1.83,4.08-4.08s-1.83-4.08-4.08-4.08-4.08,1.83-4.08,4.08,1.82,4.08,4.08,4.08"/>
  <path class="cls-5" d="M158.62,163.81h-11.25s-1.67-.05-1.77-3.93c-.11-4.27,2.41-7.93,2.95-8.84.91-1.54,1.84-.8,1.96-1.47.1-.54.29-.54.29-.54h4.32s.2,0,.29.54c.12.68,1.05-.06,1.96,1.47.54.91,3.05,4.57,2.95,8.84-.1,3.88-1.77,3.93-1.77,3.93h-11.25"/>
  <path class="cls-2" d="M158.62,163.81h-11.25s-1.67-.05-1.77-3.93c-.11-4.27,2.41-7.93,2.95-8.84.91-1.54,1.84-.8,1.96-1.47.1-.54.29-.54.29-.54h4.32s.2,0,.29.54c.12.68,1.05-.06,1.96,1.47.54.91,3.05,4.57,2.95,8.84-.1,3.88-1.77,3.93-1.77,3.93h-11.25"/>
  <path class="cls-18" d="M153.49,94.86c2.25,0,4.08-1.83,4.08-4.08s-1.83-4.08-4.08-4.08-4.08,1.83-4.08,4.08,1.82,4.08,4.08,4.08"/>
  <path class="cls-8" d="M158.97,109.06h-11.25s-1.67-.05-1.77-3.93c-.11-4.27,2.41-7.93,2.95-8.84.91-1.54,1.84-.8,1.96-1.47.1-.54.29-.54.29-.54h4.32s.2,0,.29.54c.12.68,1.05-.06,1.96,1.47.54.91,3.05,4.57,2.95,8.84-.1,3.88-1.77,3.93-1.77,3.93h-11.25"/>
  <path class="cls-2" d="M158.97,109.06h-11.25s-1.67-.05-1.77-3.93c-.11-4.27,2.41-7.93,2.95-8.84.91-1.54,1.84-.8,1.96-1.47.1-.54.29-.54.29-.54h4.32s.2,0,.29.54c.12.68,1.05-.06,1.96,1.47.54.91,3.05,4.57,2.95,8.84-.1,3.88-1.77,3.93-1.77,3.93h-11.25"/>
  <path class="cls-10" d="M132.2,122.26c2.2,0,3.98-1.78,3.98-3.98s-1.78-3.98-3.98-3.98-3.98,1.78-3.98,3.98,1.78,3.98,3.98,3.98"/>
  <path class="cls-13" d="M137.56,136.12h-10.98s-1.63-.05-1.73-3.83c-.11-4.17,2.35-7.74,2.88-8.63.89-1.5,1.8-.78,1.92-1.44.1-.53.29-.53.29-.53h4.22s.19,0,.29.53c.12.66,1.03-.06,1.92,1.44.53.89,2.98,4.46,2.88,8.63-.1,3.79-1.73,3.83-1.73,3.83h-10.98"/>
  <path class="cls-2" d="M137.56,136.12h-10.98s-1.63-.05-1.73-3.83c-.11-4.17,2.35-7.74,2.88-8.63.89-1.5,1.8-.78,1.92-1.44.1-.53.29-.53.29-.53h4.22s.19,0,.29.53c.12.66,1.03-.06,1.92,1.44.53.89,2.98,4.46,2.88,8.63-.1,3.79-1.73,3.83-1.73,3.83h-10.98"/>
  <path class="cls-1" d="M132.38,177c2.25,0,4.08-1.83,4.08-4.08s-1.83-4.08-4.08-4.08-4.08,1.83-4.08,4.08,1.82,4.08,4.08,4.08"/>
  <path class="cls-8" d="M137.87,191.2h-11.25s-1.67-.05-1.77-3.93c-.11-4.27,2.41-7.93,2.95-8.84.91-1.54,1.84-.8,1.96-1.47.1-.54.29-.54.29-.54h4.32s.2,0,.29.54c.12.68,1.05-.06,1.96,1.47.54.91,3.05,4.57,2.95,8.84-.1,3.88-1.77,3.93-1.77,3.93h-11.25"/>
  <path class="cls-2" d="M137.87,191.2h-11.25s-1.67-.05-1.77-3.93c-.11-4.27,2.41-7.93,2.95-8.84.91-1.54,1.84-.8,1.96-1.47.1-.54.29-.54.29-.54h4.32s.2,0,.29.54c.12.68,1.05-.06,1.96,1.47.54.91,3.05,4.57,2.95,8.84-.1,3.88-1.77,3.93-1.77,3.93h-11.25"/>
  <path class="cls-14" d="M132.03,68.24c2.25,0,4.08-1.83,4.08-4.08s-1.83-4.08-4.08-4.08-4.08,1.83-4.08,4.08,1.82,4.08,4.08,4.08"/>
  <path class="cls-13" d="M137.52,82.44h-11.25s-1.67-.05-1.77-3.93c-.11-4.27,2.41-7.93,2.95-8.84.91-1.54,1.84-.8,1.96-1.47.1-.54.29-.54.29-.54h4.32s.2,0,.29.54c.12.68,1.05-.06,1.96,1.47.54.91,3.05,4.57,2.95,8.84-.1,3.88-1.77,3.93-1.77,3.93h-11.25"/>
  <path class="cls-2" d="M137.52,82.44h-11.25s-1.67-.05-1.77-3.93c-.11-4.27,2.41-7.93,2.95-8.84.91-1.54,1.84-.8,1.96-1.47.1-.54.29-.54.29-.54h4.32s.2,0,.29.54c.12.68,1.05-.06,1.96,1.47.54.91,3.05,4.57,2.95,8.84-.1,3.88-1.77,3.93-1.77,3.93h-11.25"/>
  <path class="cls-1" d="M132.03,95.08c2.25,0,4.08-1.83,4.08-4.08s-1.83-4.08-4.08-4.08-4.08,1.83-4.08,4.08,1.82,4.08,4.08,4.08"/>
  <path class="cls-19" d="M137.52,109.28h-11.25s-1.67-.05-1.77-3.93c-.11-4.27,2.41-7.93,2.95-8.84.91-1.54,1.84-.8,1.96-1.47.1-.54.29-.54.29-.54h4.32s.2,0,.29.54c.12.68,1.05-.06,1.96,1.47.54.91,3.05,4.57,2.95,8.84-.1,3.88-1.77,3.93-1.77,3.93h-11.25"/>
  <path class="cls-2" d="M137.52,109.28h-11.25s-1.67-.05-1.77-3.93c-.11-4.27,2.41-7.93,2.95-8.84.91-1.54,1.84-.8,1.96-1.47.1-.54.29-.54.29-.54h4.32s.2,0,.29.54c.12.68,1.05-.06,1.96,1.47.54.91,3.05,4.57,2.95,8.84-.1,3.88-1.77,3.93-1.77,3.93h-11.25"/>
  <path class="cls-11" d="M132.38,149.6c2.25,0,4.08-1.83,4.08-4.08s-1.83-4.08-4.08-4.08-4.08,1.83-4.08,4.08,1.82,4.08,4.08,4.08"/>
  <path class="cls-5" d="M137.87,163.8h-11.25s-1.67-.05-1.77-3.93c-.11-4.27,2.41-7.93,2.95-8.84.91-1.54,1.84-.8,1.96-1.47.1-.54.29-.54.29-.54h4.32s.2,0,.29.54c.12.68,1.05-.06,1.96,1.47.54.91,3.05,4.57,2.95,8.84-.1,3.88-1.77,3.93-1.77,3.93h-11.25"/>
  <path class="cls-2" d="M137.87,163.8h-11.25s-1.67-.05-1.77-3.93c-.11-4.27,2.41-7.93,2.95-8.84.91-1.54,1.84-.8,1.96-1.47.1-.54.29-.54.29-.54h4.32s.2,0,.29.54c.12.68,1.05-.06,1.96,1.47.54.91,3.05,4.57,2.95,8.84-.1,3.88-1.77,3.93-1.77,3.93h-11.25"/>
  <line class="cls-3" x1="171.98" y1="85.73" x2="210.94" y2="58.87"/>
  <polyline class="cls-3" points="180.97 87.05 171.98 85.73 173.94 76.86"/>
  <polyline class="cls-3" points="201.95 57.55 210.94 58.87 208.97 67.74"/>
  <line class="cls-3" x1="65.44" y1="96.29" x2="109.75" y2="82.39"/>
  <polyline class="cls-3" points="73.64 100.2 65.44 96.29 69.94 88.39"/>
  <polyline class="cls-3" points="101.54 78.47 109.75 82.39 105.25 90.29"/>
  <line class="cls-3" x1="171.75" y1="163.81" x2="211.78" y2="191.3"/>
  <polyline class="cls-3" points="173.74 172.68 171.75 163.81 180.74 162.48"/>
  <polyline class="cls-3" points="209.79 182.43 211.78 191.3 202.79 192.63"/>
  <line class="cls-3" x1="67.01" y1="157.77" x2="108.59" y2="170.93"/>
  <polyline class="cls-3" points="71.49 165.68 67.01 157.77 75.22 153.88"/>
  <polyline class="cls-3" points="104.11 163.02 108.58 170.93 100.37 174.82"/>
  <line class="cls-3" x1="172.09" y1="126.95" x2="211.66" y2="126.95"/>
  <polyline class="cls-3" points="178.75 133.14 172.09 126.95 178.75 120.76"/>
  <polyline class="cls-3" points="205.01 120.76 211.66 126.95 205.01 133.14"/>
  <line class="cls-3" x1="67.04" y1="126.95" x2="109.72" y2="126.95"/>
  <polyline class="cls-3" points="73.7 133.14 67.04 126.95 73.7 120.76"/>
  <polyline class="cls-3" points="103.06 120.76 109.72 126.95 103.06 133.14"/>
  <line class="cls-3" x1="314.11" y1="127.11" x2="353.68" y2="127.11"/>
  <polyline class="cls-3" points="320.77 133.3 314.11 127.11 320.77 120.92"/>
  <polyline class="cls-3" points="347.03 120.92 353.68 127.11 347.03 133.3"/>
</svg>