<?xml version="1.0" encoding="UTF-8"?>
<svg id="Layer_1" data-name="Layer 1" xmlns="http://www.w3.org/2000/svg" viewBox="0 0 288 288">
  <defs>
    <style>
      .cls-1 {
        fill: #fcb530;
      }
    </style>
  </defs>
  <g>
    <path class="cls-1" d="M64.02,166.33c-17.15,0-25.96-6.07-26.2-18.04l1.92-.04c.22,10.87,8.16,16.16,24.28,16.16,9.81,0,24.32-5.66,24.32-17.82,0-10.89-3.27-15.8-23.53-18.03-17.22-1.85-28.51-4.29-28.51-20.67s7.53-22.32,27.8-22.32c13.17,0,28.99,3.77,29.52,21.72l-1.92.06c-.39-13.17-9.67-19.85-27.59-19.85-19.1,0-25.88,5.34-25.88,20.39s10.12,16.97,26.8,18.76c19.58,2.15,25.24,6.63,25.24,19.94,0,7.52-4.82,12.2-8.86,14.8-4.81,3.09-11.31,4.94-17.38,4.94Z"/>
    <path class="cls-1" d="M93.9,146.51c0,16.75-8.67,23.59-29.93,23.59-10.11,0-17.88-2.14-23.11-6.36-4.59-3.7-7.13-8.87-7.55-15.36l1.92-.13c.59,9.09,6.05,19.93,28.74,19.93,10.51,0,17.44-1.62,21.81-5.11,4.22-3.36,6.19-8.62,6.19-16.56,0-14.48-6.28-19.56-26.88-21.75-19.24-2.01-24.51-5.64-24.51-16.87,0-17.29,17.96-18.63,23.46-18.63,16.7,0,25.36,6.05,25.75,17.99l-1.92.06c-.35-10.85-8.15-16.13-23.83-16.13-6.48,0-21.54,1.63-21.54,16.71,0,9.28,3.44,12.94,22.78,14.96,10.93,1.16,17.42,3.05,21.72,6.33,4.76,3.63,6.88,8.98,6.88,17.33Z"/>
    <path class="cls-1" d="M141.59,172.35c-11.75,0-20.08-2.55-25.47-7.81-4.84-4.73-7.2-11.57-7.2-20.93v-61.45h1.92v61.45c0,8.81,2.17,15.21,6.62,19.55,5.01,4.89,12.9,7.26,24.13,7.26s19.12-2.38,24.13-7.26c4.45-4.35,6.62-10.74,6.62-19.55v-61.45h1.92v61.45c0,9.35-2.35,16.2-7.2,20.93-5.38,5.26-13.72,7.81-25.47,7.81ZM141.59,168.54c-19.38,0-28.41-7.69-28.41-24.2v-62.18h1.92v62.18c0,10.37,3.01,22.28,26.49,22.28s26.49-11.9,26.49-22.28v-62.18h1.92v62.18c0,16.51-9.03,24.2-28.41,24.2Z"/>
    <path class="cls-1" d="M141.59,164.65c-22.68,0-24.53-10.96-24.53-24.2v-58.3h1.92v58.3c0,7.02.62,12.47,3.64,16.25,3.28,4.11,9.31,6.03,18.96,6.03s15.68-1.91,18.96-6.03c3.02-3.78,3.64-9.23,3.64-16.25v-58.3h1.92v58.3c0,13.24-1.85,24.2-24.53,24.2Z"/>
    <path class="cls-1" d="M141.55,160.77c-8.44,0-13.81-1.46-16.92-4.58-3.86-3.89-3.82-9.7-3.77-17.07,0-.83.01-1.68.01-2.55v-54.41h1.92v54.41c0,.87,0,1.73-.01,2.56-.05,6.91-.08,12.38,3.22,15.7,2.72,2.74,7.66,4.02,15.55,4.02s12.83-1.28,15.55-4.02c3.3-3.32,3.26-8.78,3.22-15.7,0-.84-.01-1.69-.01-2.56v-54.41h1.92v54.41c0,.87,0,1.72.01,2.55.05,7.36.09,13.18-3.77,17.07-3.11,3.13-8.48,4.58-16.92,4.58Z"/>
    <path class="cls-1" d="M196.47,171.75h-1.92v-55.88l-.37-31.41,14.21,22.22,36.45,55.73h3.59l-.08-80.21h1.92s.08,82.13.08,82.13h-6.56l-37.02-56.61-10.59-16.57.29,24.7v55.9ZM192.46,171.75h-1.92v-89.9h6.55l37.02,56.61,10.59,16.57-.29-24.7-.08-48.16h1.92s.08,48.15.08,48.15l.37,31.42-14.21-22.22-36.45-55.73h-3.59v87.98Z"/>
    <polygon class="cls-1" points="200.36 171.75 198.43 171.75 198.43 127.49 198.06 95.98 207.08 110.53 243.57 166.25 252.31 166.25 252.23 82.16 254.15 82.16 254.24 168.17 242.53 168.17 205.46 111.57 200.07 102.86 200.36 127.48 200.36 171.75"/>
    <polygon class="cls-1" points="258.12 172.06 241.22 172.06 209.36 124.54 203.95 115.79 204.2 140.4 204.24 171.75 202.32 171.75 202.28 140.42 201.96 108.91 210.97 123.5 242.25 170.14 256.2 170.14 256.12 82.16 258.04 82.16 258.12 172.06"/>
    <path class="cls-1" d="M64.45,172.75c-2.56,0-4.9-.11-6.86-.2-9.09-.44-16.51-3.41-21.44-8.59-4.03-4.23-6.32-9.94-6.27-15.65l1.92.02c-.06,7.82,5.31,21.32,25.88,22.31,8.13.38,23.26,1.08,31.58-7.44,4.64-4.75,6.66-11.9,6-21.24-.86-11.84-9.93-18.03-29.41-20.06-15.86-1.65-21.85-3.21-21.85-13.23,0-14.98,15.55-16.14,20.31-16.14,13.54,0,21.83,5.53,22.15,14.8l-1.92.07c-.29-8.22-7.66-12.94-20.23-12.94-5.53,0-18.39,1.39-18.39,14.22,0,7.76,3.2,9.56,20.13,11.32,9.48.99,16.51,2.95,21.49,5.99,5.9,3.6,9.14,8.93,9.64,15.84.7,9.91-1.5,17.56-6.54,22.72-6.85,7.02-17.7,8.21-26.19,8.21Z"/>
    <path class="cls-1" d="M62.64,163.02c-14.05,0-20.61-4.61-21.14-14.7l1.92-.1c.26,4.88,1.97,8.1,5.38,10.14,3.61,2.16,9.24,3.03,17.22,2.65,8.18-.41,18.02-3.47,18.39-15.76.3-9.58-6.88-12.12-23.09-14.2-19.2-2.25-28.95-6.65-28.9-24.48.02-8.35,2.13-14.37,6.43-18.38,4.57-4.27,11.67-6.34,21.69-6.34,11.23,0,19.56,1.7,25.48,5.19,6.99,4.13,10.72,10.94,11.07,20.24l-1.92.07c-.33-8.73-3.65-14.83-10.13-18.66-5.61-3.31-13.63-4.92-24.5-4.92-18.32,0-26.16,6.82-26.2,22.81-.04,16.47,8.74,20.4,27.22,22.57,19.31,2.47,25.1,6.25,24.78,16.16-.33,10.73-7.51,16.99-20.22,17.62-1.2.06-2.36.09-3.47.09Z"/>
  </g>
  <path class="cls-1" d="M247.51,194.34l-1.92,5.69-1.1-5.69h-4.17l2.99,11.5h3.85l2.05-6.63,2.05,6.63h3.85l2.99-11.5h-4.17l-1.1,5.69-1.92-5.69h-3.48.12ZM233.64,206.16c3.76,0,6.1-2.05,6.1-6.1s-2.33-6.1-6.1-6.1-6.1,2.05-6.1,6.1,2.33,6.1,6.1,6.1M233.64,202.68c-1.31,0-2.17-.53-2.17-2.58s.86-2.58,2.17-2.58,2.17.53,2.17,2.58-.86,2.58-2.17,2.58M214.65,188.94h-3.72v16.9h4.01v-9.82l1.55,2.37,5.15,7.45h3.72v-16.9h-4.01v9.82l-1.55-2.37-5.15-7.45h0ZM197.63,197.2c1.1,0,1.88.57,1.84,1.72h-3.93c.04-1.02.86-1.72,2.09-1.72M203.65,201.21v-1.1c0-3.97-2.17-6.1-6.01-6.1s-6.14,2.13-6.14,6.1,2.33,6.1,6.38,6.1,5.56-1.55,5.6-3.44l-3.93-.49c-.04.45-.49.74-1.84.74s-2.25-.65-2.25-1.8h8.18ZM180.37,197.61h2.09v4.42c0,2,1.06,4.17,4.95,4.17s2-.25,2.45-.45l-.29-3.52c-.37.25-1.27.61-2.05.53-.74-.08-1.19-.41-1.19-1.31v-3.85h3.48v-3.23h-3.48v-3.48h-3.89v3.48h-2.09v3.23h0ZM178.45,188.94h-3.97v3.93h3.97v-3.93ZM174.52,205.83h3.89v-11.5h-3.89v11.5ZM163.35,194.34h-3.56l.2,3.35v8.14h3.89v-7.2c.37-.45,1.23-1.06,2.5-1.06,1.02,0,1.68.45,1.68,1.76v6.55h3.89v-7.04c0-3.44-1.68-4.79-4.7-4.79s-2.86.57-3.64,1.35l-.25-1.02v-.04ZM150.38,202.6c-2.82,0-3.15-1.39-3.15-3.11v-10.6h-4.01v10.68c0,3.76,1.55,6.55,7.16,6.55s7.16-2.82,7.16-6.55v-10.68h-4.01v10.6c0,1.68-.33,3.11-3.15,3.11M130.38,203.13c-1.23,0-1.68-.37-1.72-1.19l-3.93.49c.04,2.7,1.72,3.76,5.65,3.76s5.89-.98,5.89-4.09-2.41-3.23-5.24-3.44c-1.35-.08-1.84-.25-1.84-.82s.53-.82,1.31-.82c1.27,0,1.55.41,1.55,1.02l3.93-.49c-.04-2.62-1.92-3.6-5.52-3.6s-5.52.98-5.52,4.05,2.25,3.15,5.24,3.35c1.31.08,1.96.16,1.96.78s-.65.94-1.8.94M113.81,197.61h2.09v4.42c0,2,1.06,4.17,4.95,4.17s2-.25,2.45-.45l-.29-3.52c-.37.25-1.27.61-2.05.53-.74-.08-1.19-.41-1.19-1.31v-3.85h3.48v-3.23h-3.48v-3.48h-3.89v3.48h-2.09v3.23h0ZM103.5,194.34h-3.56l.2,3.35v8.14h3.89v-7.2c.37-.45,1.23-1.06,2.5-1.06,1.02,0,1.68.45,1.68,1.76v6.55h3.89v-7.04c0-3.44-1.68-4.79-4.7-4.79s-2.86.57-3.64,1.35l-.25-1.02v-.04ZM92.08,197.2c1.1,0,1.88.57,1.84,1.72h-3.93c.04-1.02.86-1.72,2.09-1.72M98.06,201.21v-1.1c0-3.97-2.17-6.1-6.01-6.1s-6.14,2.13-6.14,6.1,2.33,6.1,6.38,6.1,5.56-1.55,5.6-3.44l-3.93-.49c-.04.45-.49.74-1.8.74s-2.25-.65-2.25-1.8h8.14ZM79.85,201.58c-.49.65-1.27,1.06-2.29,1.06s-2.09-.78-2.09-2.58.94-2.54,2.09-2.54,1.8.45,2.29,1.06v2.99ZM76.91,194.01c-3.68,0-5.44,2.09-5.44,6.1s1.76,6.1,5.44,6.1,2.62-.49,3.23-1.35l.25,1.02h3.56l-.2-3.35v-13.58h-3.89v6.1c-.65-.65-1.84-1.02-2.95-1.02M65.98,205.83h3.56l-.2-3.35v-8.14h-3.89v7.2c-.37.45-1.23,1.06-2.5,1.06-1.02,0-1.68-.45-1.68-1.76v-6.55h-3.89v7.04c0,3.44,1.68,4.79,4.7,4.79s2.86-.57,3.64-1.35l.25,1.02v.04ZM45.94,197.61h2.09v4.42c0,2,1.06,4.17,4.95,4.17s2-.25,2.45-.45l-.29-3.52c-.37.25-1.27.61-2.05.53-.74-.08-1.19-.41-1.19-1.31v-3.85h3.48v-3.23h-3.48v-3.48h-3.89v3.48h-2.09v3.23h0ZM37.79,202.6c-2.13.08-3.27-.65-3.31-2.58l-4.09.49c.04,3.52,1.92,5.65,7.4,5.65s7.16-1.55,7.08-5.6c-.08-4.17-2.45-4.87-7.08-5.11-2.37-.16-2.95-.33-2.95-1.31,0-1.55,1.43-1.96,2.62-2,2.13-.04,3.27.65,3.31,2.58l4.09-.49c-.04-3.52-2.41-5.65-7.4-5.65s-6.71,1.72-6.63,5.65c.08,4.01,3.35,4.54,6.79,4.66,2.54.12,3.27.57,3.31,1.72,0,1.51-1.55,1.92-3.11,1.96"/>
</svg>