<?xml version="1.0" encoding="UTF-8"?>
<svg id="Layer_1" data-name="Layer 1" xmlns="http://www.w3.org/2000/svg" viewBox="0 0 288 288">
  <defs>
    <style>
      .cls-1 {
        fill: #c10230;
      }

      .cls-2 {
        stroke-width: .02px;
      }

      .cls-2, .cls-3 {
        fill: none;
        stroke: #c10230;
      }

      .cls-3 {
        stroke-miterlimit: 10;
        stroke-width: .53px;
      }

      .cls-4 {
        fill: #fff;
      }

      .cls-5 {
        fill: #241f21;
      }
    </style>
  </defs>
  <path class="cls-1" d="M66.62,176.99c-.2,0-.52-.07-.57.18-.02,0-.13.13-.13.17.08.05.28,0,.39.03.01.04.06.07.08.12.02,0,0,0,.02.01.03.12,0,.19,0,.31,0,.13.1.21.06.37-.08.02-.09.11-.21.04-.11-.06-.36-.1-.49-.07-.15.04-.29.18-.42.18-.13-.5-.54-.43-.53.08.01,0-.08.35-.16.37,0,.01-.04.04-.05.04-.02.09-.25.18-.34.19-.18.02-.15.1-.14.26h.01c.16,0,.58-.29.7-.41.26-.25.58-.49.95-.5.19,0,.9.18.9-.18.06-.02-.14-.57.09-.62l.08-.22c0-.14.05-.32.02-.46-.07,0-.22.06-.23.12"/>
  <path class="cls-1" d="M40.09,187.18s-.14-.15-.16-.14c0,.1.06.16.07.26,0,.12-.09.11-.1.19-.07.04.03.23.05.27.03.06.06.15.08.22.03.08.06.03.08-.03.03-.11.1-.21.18-.28.04-.03.08-.07.09-.12,0-.02,0-.14.01-.15l-.08-.12c-.07-.03-.17-.07-.23-.11"/>
  <path class="cls-1" d="M67.77,176.58c.06,0,.1-.06.17-.07l.34-.18c.04-.16.02-.26.01-.4-.15-.03-.34-.04-.5,0-.13.03-.25.02-.36.12-.17.16-.06.33-.08.53,0,.07,0,.15.02.21.02.06.07.14.09.2.05.02.05.1.1.12.12.07.28.17.39.26.05.05.1.12.17.12.13.01.12-.06.19-.11,0-.04-.38-.17-.45-.22-.12-.08-.37-.37-.34-.5h.01c.05-.01.21-.05.23-.1"/>
  <path class="cls-1" d="M71.2,173.3c-.15.09.25.29.31.31,0,.12-.19.28-.32.24-.17-.05-.23-.24-.35-.36-.1-.1-.21-.19-.3-.28-.11-.11-.24-.21-.33-.33-.07-.06-.12-.1-.18-.02.02.11.23.34.31.41.24.24.46.48.74.67.17.11.35.03.51-.05.07-.04.29-.39.25-.43l.03-.15c.04-.08.03-.16-.01-.22-.21,0-.48.11-.65.21"/>
  <path class="cls-1" d="M43.37,187.8c-.07.03-.12.08-.17.14-.05.07-.13.17-.08.25.06.01.08.01.14-.01.02,0,.04-.01.06-.02.03,0,.06-.05.08-.07,0-.01.02-.02.03-.03,0-.01.02-.04.03-.06.01-.02.01-.06.04-.06v-.13s-.09,0-.13,0"/>
  <path class="cls-5" d="M127.84,238.61h18.85v-6.38h-11.82v-6h9.98v-6.21h-9.98v-5.49h11.65v-6.25h-18.68v30.33ZM107.54,238.61h7.24v-23.99h9.6v-6.34h-26.48v6.34h9.64v23.99ZM87.06,238.61h7.24v-30.33h-7.24v30.33ZM53.77,238.61h6.68v-16.54l18.94,17.69h.64v-31.49h-6.68v16.71l-18.89-17.69h-.69v31.32ZM28.79,208.28h-7.16v17.44c0,9.04,4.93,13.88,12.77,13.88s12.72-4.88,12.72-13.92v-17.39h-6.47v17.39c0,4.85-2.14,7.29-5.91,7.29-3.98,0-5.96-2.66-5.96-8.01v-16.67Z"/>
  <path class="cls-1" d="M236.89,238.7h18.85v-6.38h-11.83v-6h9.98v-6.21h-9.98v-5.49h11.65v-6.25h-18.68v30.33ZM217.83,213.89c3.99,0,5.95,1.07,5.95,4.11,0,2.74-1.93,4.29-5.61,4.29h-1.54v-8.4h1.2ZM209.6,238.7h7.03v-11.91h1.03l8.1,11.91h8.27l-9.25-13.03c3.68-1.63,5.66-4.58,5.66-8.4,0-2.61-1.28-5.14-3.56-6.77-2.61-1.88-5.61-2.14-9.47-2.14h-7.8v30.33ZM185.23,238.7h18.85v-6.38h-11.83v-6h9.98v-6.21h-9.98v-5.49h11.66v-6.25h-18.68v30.33ZM152.28,238.7h7.16v-12.73h11.7v12.73h7.11v-30.33h-7.11v11.14h-11.7v-11.14h-7.16v30.33Z"/>
  <path class="cls-5" d="M260.75,235.68c0,1.88,1.63,3.56,3.56,3.56s3.55-1.63,3.55-3.56-1.54-3.56-3.55-3.56-3.56,1.58-3.56,3.56M263.06,229.21l2.1.3c1.93-9.25,3.47-16.54,3.51-22.11l-8.27,1.16c.17,6.26,1.11,13.11,2.66,20.65"/>
  <rect class="cls-5" x="19.33" y="252.84" width="49.41" height="2.69"/>
  <rect class="cls-5" x="216.95" y="252.84" width="49.41" height="2.69"/>
  <path class="cls-5" d="M87.68,248.76c-.57-.39-1.17-.68-1.8-.87-.63-.19-1.29-.29-1.98-.29-.87,0-1.7.16-2.49.49-.79.33-1.48.79-2.08,1.4-.59.61-1.05,1.31-1.36,2.11-.31.8-.46,1.65-.46,2.56,0,1.06.21,2.03.63,2.93.42.9,1.03,1.65,1.82,2.28.56.44,1.17.78,1.83,1,.67.23,1.36.34,2.08.34.67,0,1.32-.09,1.94-.28.62-.19,1.2-.46,1.73-.81l.19-3.26c-.62.52-1.23.91-1.85,1.17-.62.26-1.24.39-1.86.39-1.05,0-1.91-.35-2.56-1.05-.65-.7-.98-1.61-.98-2.73s.33-2.05.99-2.76c.66-.72,1.51-1.08,2.55-1.08.6,0,1.17.13,1.72.4.55.27,1.08.67,1.61,1.22l.31-3.14ZM93.72,251.46c.62-.72,1.39-1.08,2.31-1.08s1.69.36,2.32,1.08c.62.72.93,1.62.93,2.7s-.31,1.97-.93,2.69c-.62.72-1.39,1.08-2.32,1.08s-1.69-.36-2.31-1.08c-.62-.72-.94-1.61-.94-2.68s.31-1.98.94-2.7M90.23,256.71c.31.79.78,1.5,1.39,2.12.59.6,1.26,1.07,2.02,1.39.76.32,1.56.48,2.39.48.98,0,1.9-.22,2.78-.66.88-.44,1.61-1.06,2.21-1.86.42-.56.74-1.18.96-1.86.22-.68.32-1.4.32-2.17,0-.92-.15-1.78-.46-2.57-.31-.8-.76-1.49-1.36-2.1-.59-.6-1.27-1.07-2.04-1.39-.77-.32-1.57-.48-2.4-.48s-1.64.16-2.4.48c-.76.32-1.43.78-2.01,1.38-.61.63-1.07,1.34-1.39,2.13-.31.79-.47,1.65-.47,2.56s.16,1.76.47,2.55M107.92,260.31v-6.71l7.68,7.17h.25v-12.76h-2.71v6.77l-7.65-7.17h-.28v12.69h2.7ZM122.24,260.31v-6.71l7.68,7.17h.26v-12.76h-2.7v6.77l-7.66-7.17h-.28v12.69h2.71ZM141.5,260.31v-2.59h-4.79v-2.43h4.04v-2.52h-4.04v-2.22h4.72v-2.53h-7.57v12.29h7.64ZM154,248.76c-.57-.39-1.17-.68-1.8-.87-.63-.19-1.29-.29-1.97-.29-.87,0-1.7.16-2.49.49-.79.33-1.48.79-2.08,1.4-.59.61-1.05,1.31-1.36,2.11-.31.8-.46,1.65-.46,2.56,0,1.06.21,2.03.63,2.93.42.9,1.03,1.65,1.82,2.28.56.44,1.17.78,1.84,1,.66.23,1.36.34,2.08.34.67,0,1.32-.09,1.95-.28.62-.19,1.2-.46,1.72-.81l.19-3.26c-.61.52-1.23.91-1.85,1.17-.62.26-1.24.39-1.86.39-1.05,0-1.91-.35-2.56-1.05-.65-.7-.98-1.61-.98-2.73s.33-2.05.99-2.76c.66-.72,1.51-1.08,2.55-1.08.6,0,1.17.13,1.72.4.55.27,1.08.67,1.62,1.22l.31-3.14ZM162.27,260.31v-9.73h3.89v-2.57h-10.73v2.57h3.91v9.73h2.93ZM171.41,248.02h-2.93v12.29h2.93v-12.29ZM184.54,248.76c-.57-.39-1.17-.68-1.8-.87-.63-.19-1.29-.29-1.97-.29-.87,0-1.7.16-2.49.49-.79.33-1.48.79-2.08,1.4-.59.61-1.05,1.31-1.36,2.11-.31.8-.47,1.65-.47,2.56,0,1.06.21,2.03.63,2.93.42.9,1.03,1.65,1.82,2.28.56.44,1.17.78,1.83,1,.67.23,1.36.34,2.08.34.67,0,1.32-.09,1.95-.28.62-.19,1.2-.46,1.73-.81l.19-3.26c-.62.52-1.23.91-1.85,1.17-.62.26-1.24.39-1.86.39-1.05,0-1.91-.35-2.56-1.05-.65-.7-.98-1.61-.98-2.73s.33-2.05.99-2.76c.66-.72,1.51-1.08,2.55-1.08.6,0,1.17.13,1.72.4.55.27,1.08.67,1.62,1.22l.31-3.14ZM187.26,248.02v7.07c0,1.78.45,3.16,1.36,4.15.91.98,2.18,1.48,3.81,1.48s2.88-.5,3.79-1.49c.91-.99,1.37-2.38,1.37-4.15v-7.05h-2.62v7.05c0,.96-.21,1.69-.62,2.2-.41.5-1,.75-1.78.75s-1.41-.27-1.81-.81c-.4-.54-.6-1.35-.6-2.44v-6.76h-2.9ZM206.59,260.31v-9.73h3.89v-2.57h-10.73v2.57h3.91v9.73h2.93Z"/>
  <path class="cls-1" d="M104.93,157.13c-.07,0-.14,0-.2,0l.03.16c.04.06.06.09.08.15.02.05.04.09.09.11.05.02.16.08.2.03.03-.04.03-.09.02-.14-.02-.08,0-.18,0-.26,0-.03.01-.08,0-.11-.07,0-.15.06-.23.06"/>
  <path class="cls-1" d="M179.11,146.05h0s0,0,0,0c0,0,0,0,0,0"/>
  <path class="cls-1" d="M215.96,137.71s-.28.06-.33.08c-.08.02-.21.15-.22.24,0,.12.33-.06.37-.08.06-.04.12-.07.18-.1.02-.01.04-.02.07-.03.05-.03.09-.09.13-.11l-.04-.11c-.05.04-.1.11-.17.11"/>
  <path class="cls-1" d="M234.53,135.37c-.15-.1-.29-.22-.46-.3l-.2-.11c-.05-.06-.19-.14-.27-.12-.18.04.18.26.22.3.23.19.53.3.76.49.1.09.22.21.31.31.05.07.27.26.35.27-.02-.1-.18-.27-.23-.36-.1-.17-.32-.37-.49-.48"/>
  <path class="cls-1" d="M234.7,134.36s.03-.06.05-.09c.05-.06.14-.07.15-.15.02-.11-.04-.21-.04-.32,0-.05-.02-.1-.03-.14-.04,0-.05.06-.06.08-.02.05-.04.09-.08.13-.05.06-.12.1-.15.17-.08.14-.24.25-.35.35v.04c.12,0,.21.02.33-.02.04-.01.16-.02.18-.06"/>
  <path class="cls-1" d="M244.22,61.81l-1.04-28.02-.03-2.35-10.97.09-5.9-.16h-.7s-1.66,0-1.66,0l-.39-.1-10.33.06h-.17s-2.84-.14-2.84-.14l-.77-.03-3.71-.15-41.62-.12h-2.6c-.14.05-.43.08-.54.17-.3.04-.54.1-.87.11-.37,0-.73.05-1.09.13-.69.15-1.29.35-2.01.36l-1.01.82-2.74-.03-.14-.86-3.48-.09-6.42-.73-6.52.19-.28.34c0,.11.02.24.06.35.02.05.07.08.13.08.11.01.19.07.3.1.05.01.11.02.16.03,0,.11-.02.13-.11.24-.16.23-.23.63-.45.81-.15.12-1.03.51-1.03.64.02.01.02,0,.02.02.16,0,.29-.11.33.1.02.1.22.2.31.22.1.37-.67.37-.15.88.25.25-.46.35-.55.57-.06.15.13.48.09.68-.31.16-.79-.06-1.15.13l-4.47.78.39-5.82-21.88-.15-8.22-.06-37.44-.97-7.71.16-2.8,57.43-2.57,52.67-.3,2.52,7.89,12-27.12,17,8.26,13-.14.35s-.16.33-.15.38c-.02.03-.03.06-.03.1-.05.06-.03.17-.08.23,0,.08-.04.22-.06.31-.03.11-.04.22-.04.34,0,.29,0,.57.05.85l.07.72s.02.04.03.09c0,.06.08.35.11.39.08.08.35-.34.39-.41.12-.2.17-.5.3-.67.12-.18.19-.6.36-.71.09-.06.11-.08.2-.12.04-.02.21-.06.22-.09.15,0-.05-.58-.02-.71.05-.21.19-.42.24-.64.09.02.15.34.15.43,0,.27.58.75.74.56.09-.1.06-.29.22-.29.32,0,.22.14.39.36.31.42.53-.61.52-.85-.01-.18.04-.37.03-.55,0-.14-.45-.3-.45-.39.12,0,.37.02.37-.13-.14-.03-.27-.28-.34-.38-.14-.21.37.05.38.19.01.11.09.71.19.74.04-.12.15-.36.27-.36,0,.25.21.81.4.24.11-.34-.04-.68.32-.81,0,.1-.03.18-.04.29l-.12.4c-.05.09-.12.17-.11.28.02,0,.01.01.01.03h.02s.03.04.04.04c0,.02,0,.04.02.04,0,.23.28.02.29-.05.14-.03.54-.38.58-.51.09,0,.18.07.25.02.22-.15.08-.4.28-.52.08-.05.3-.1.32-.22,0-.04-.1-.16-.1-.26,0-.19.06-.38.06-.59,0-.08-.03-.17,0-.25.02-.07.18-.19.18-.17.13-.04.36-.11.37-.28,0-.16.15-.81.26-.85,0,.19-.08.37-.08.57v.99c-.01.19-.21.55.08.43.19-.08.36-.28.28.1-.05.24-.58.32-.58.51,0,.08.23.16.19.27-.05.13-.09.21-.11.39.29.33.15,0,.43-.04.18-.02.19.19.33.19.03-.12,0-.19,0-.32.08-.02.18-.11.26-.15.11-.05.13.37.28.1.05-.09.22-.47.24-.48,0-.14.53-.29.52-.67.11-.03.19-.44.24-.34.07.15.07.25.25.29.47.11.12.07.26.38.1.21.42.38.06.38-.02.08,0,.2-.07.26-.09.08-.3.12-.29.28.14.03.3.05.44.05-.02.1-.31.54-.37.65-.16.26-.27.97-.74.6-.36-.29-.33-.62-.79-.77-.04.15.18.28.1.44-.11.23-.08.49,0,.74.11.33.41.15.71.08.25-.06.5-.01.76-.03.3-.02.18-.17.17-.39-.02-.31.24-.85.31-1.18.07-.3.33-.2.36-.45.08-.58.42-.11.7-.35.08-.07.14-.43.26-.56.19-.22.05-.33.05-.56.09,0,.2.14.25-.02.19-.58.44.08.49.29.46,0,.05-.29.31-.55.47-.02.28-.38.19-.71-.06-.23-.16-.56-.11-.79.1.13.28.68.53.6.42-.15.17.37.51.13.74-.53.49,1.61.54,2,.05.43.25-.2.63-.24.39-.04.49-.18.58-.58l.22-1.03c.07-.33-.94-.6-.46-1.2.15-.19.93-.21,1.17-.22.16,0,.3.4.33.27.03-.12.32-.9.53-.69.36.35.16-.44.48-.53.08-.05.2-.08.2-.15,0-.03-.01-.22-.02-.22-.16-.02-.25-.03-.39-.13-.17-.12-.27-.32-.31-.52-.03-.12.01-.27.01-.39,0-.1-.05-.25-.12-.33-.03-.03-.2-.25-.15-.25.04,0,.2.15.23.19.1.15.3.25.47.3.2.06.55.14.68.32.06.08.15.16.19.25.03.07.04.2.09.25-.07-.02-.15-.24-.26-.1-.06.07-.08.08-.17.11-.14.05-.27.09-.09.24.11.09.24.19.24.33.06.15.1.11.22.18.03.02.07.07.07.12.03.01.05.2.03.26-.08.2.11.22.21.34.07.09.15.01.19-.07.09-.17.02-.22.02-.37.01,0,.06-.04.06-.07.13-.03.1-.3.29-.3,0,.27.17.54.28.77.05.12.25.32.25.44,0,.2-.01.23.12.38.31.35.24-.55.26-.64.04-.16.05-.33.11-.48.05-.12.15-.25.18-.37.18-.11.76-.5.16-.49-.17,0-.29-.26-.16-.26.15,0,.31.03.44-.04.02-.01.3-.56.25-.64-.12-.17-.71,0-.27-.38.11-.1.18-.39.25-.43.05-.03.1.25.11.3.04.18.51-.19.66-.26.38-.17-.16.1,0,.21.61.46.11.28-.29.5-.22.12.29.4.25.43-.27.22.19.57.22.42.06-.33-.11-.44.33-.62.3-.12.37-.14.36-.49,0-.13.32.17.43.07.29-.3-.02-.51.37-.18.11.1.39.06.46.2.08.17.29.23.31-.03.01-.23.58.26.57.03,0-.22.06-.68-.18-.68.07-.02.18-.57.23-.68.15-.4.07-.61.2-.08.18.71.56.25.77-.17.09-.18.04-.29,0-.46-.03-.14.11-.34.17-.46.32-.6-.1.25.47-.33.21-.21.45,0,.53.26.14.44.17.22.61.33.18.05-.1-.95-.11-1.14,0-.14,0-.25.05-.37.06-.13.39-.41.06-.57-.1-.05-.26.34-.29.42-.04.1-.31.23-.19,0,.08-.16.44-.4.2-.59-.05-.04-.15-.17-.16-.24,0-.04.2-.3.1-.33.06-.08.17-.38.08-.47-.04-.04-.09.01-.13,0-.11-.04-.39-.6-.39-.72.17,0,.3.36.5.38.1.01.19.02.22-.09.03-.1.1-.22.12-.32.02,0,0,0,.02.01v.02c.06.02.14.33.25.37,0,.06-.05.37-.03.39.08.08.38.04.38.21.08.02-.07.42-.07.49,0,.08-.01.24.01.31.04.1.14-.01.21.04,0,.07-.02.33.05.37,0,.03.04.08.06.11.04.04.09.02.13.04.01,0,.05.05.07.06.02.03.04.08.07.1.01,0,.06.02.07.01.02-.01,0-.04.04-.04.14-.12.29-.17.41-.31.08-.09.03-.49.15-.68l.3-.46c.23-.34-.34-.51.24-.82.26-.14-.14.87.19.45.08-.1.44-.41.38-.45-.17-.1-.36-.48-.2-.63.2-.18.62.1.63.34-.08-.06-.22.03-.32-.06-.43-.37-.05.14,0,.32.02.08.47.03.58.06.25.05.44.38.66.11.1-.13.31-.12.21-.3-.1-.18-.05-.34-.05-.55,0-.25-.11.26-.11.27-.09.3-1.34-.49-1.22-.75.1-.21-.44-.31-.07-.57.15-.1.49-.66.55-.84.38.38.36-.17.61-.43,0,.21-.06.53-.14.72-.05.12-.15.46-.13.59,0,.02.16,0,.19,0,.19,0,.39.37.67.39.14,0,.73-.02.74,0,.07.11-.02.17.15.32.15.13.38.54.37.17,0-.33.19-.5.37-.76.14-.04.44-.07.37-.28-.07-.19.11-.26.08-.38-.24-.06.05-.77.14-.89.11-.16.22-.22.35-.45.18-.32.16-.04.2.12.11,0,.25-.23.44-.23h.01c0,.37-.62.81-.91.89-.03.17-.31.5,0,.4.26-.08.48.09.55.31.16,0,.69-.21.77.1.03,0,.05.01.09,0,.13-.55,1.62-1.06,2.12-.94h.01c0,.1.11.17.13.24l.74-.59c.11-.09.58-.25.59-.32.02-.34-.17-.71.27-.84.28-.08.62.09.71-.26.02,0,.02-.01.04-.01,0-.02,0-.01.02-.01,0-.01.05-.02.07-.02.25-.21.29-.56.53-.65.29-.12.5-.69.81-.7,0,.56-.41.39-.47.58-.11,0-.24.2-.32.28-.25.22.14.17.14.3-.47,0-.28.23-.62.35.02.06.45.05.53.07.47.12.65.46.79.85.22,0,.49.06.74.05.41,0,.29.82.85.18.43-.49,1.26-1.48,1.99-1.3.03,0,.11-.42.12-.48.07-.3.54-1.65.82-1.75-.14-.26-.28-.33-.1-.61.07-.11.08-.35.08-.49,0-.23.01-.2-.14-.25-.29-.1-.03-.29-.14-.39-.09-.08-.22-.06-.16-.23.04-.12.19-.19.27-.27.04.15-.03.4-.02.56,0,.26.27.04.38.12.05.04.21.69.21.79,0,.31-.17.26-.34.42-.21.2.16.26.33.27.28.02.39.09.58-.2.13-.2.37-.33.36-.6,0-.11-.2-.33.04-.38.26-.06.16-.26.28-.31.13-.05.22.01.27-.18,0-.02.07-.24-.01-.21-.46.18-.15-.11,0-.37.18-.33.16-.03.21.11.06.17.51-.3.59-.4.12-.18.41-.59.61-.65,0,.08-.06.13-.09.2-.07.11-.13.21-.2.32-.04.07-.09.13-.13.2-.06.09-.13.18-.19.27-.02.03-.06.08-.08.11-.01.01-.05.04-.05.06-.03,0-.03.02-.05.04-.06.03-.35.17-.36.22-.05.02-.1.1-.12.14-.04.05-.06.22-.05.28.02.11,0,.26.04.36.02.08.02.1.02.16v.21s0,.11,0,.11v.03h-.01s0,.04,0,.05c-.02,0,0,0,0,.02-.02,0,0,.01,0,.03h-.01c-.13.19-.14.37-.11.58h0s.01.02.01.02c.15,0,.25-.46.25-.59,0-.37,0-.68.29-.95.17-.16.3-.37.48-.53.2-.18.47-.48.72-.57.23-.12,1.16-.39,1.31-.12.03.04.31-.03.36-.06.21-.12,0-.55.29-.72.19-.11.54-.08.69-.21.12-.11-.56-.65-.68-.79-.25-.3-.39-.58-.29-1,.03,0,.51.71.67.75.1-.1.18-.29.27-.41.44-.63-.07.61.13.79.31.27.74.38,1.05.64.45.11.24-.21.23-.55,0-.03,0-.21.04-.21.08,0,.04.17.2.07.1-.07.21-.32.32-.35.05.18-.26.52-.31.7-.11.38.11.2.37.26,0,.28-.49.36-.49.51.4.09.53.31.81.58.14.14.3.13.47.23.67.38.45-.25.93-.47.12-.06.8-.32.81-.18.02.25-.46.93,0,.91.19,0,.02.37-.03.51-.11.3-1.75-.41-1.97-.49-.56-.19-1.26-.85-1.45-1.4-.05,0-.15.4-.17.46-.08.25-.36.61-.01.66.33.05.6.03.91.17l1.23.56c.38.18.77.28,1.13.52.28.16,1.15.33,1.44.24.39-.12.6-.18.95-.43.21-.15.32-.26.53-.08.24.2.53-.24.77-.24.13,0,.63.44.63.15.02,0,0-.15.06-.17.01-.12.06-.24.05-.37,0-.07-.41.03-.53,0-.21-.05-.36-.24-.49-.28-.1-.47.46-1.29.13-1.61l-.33-.26c-.09-.09-.32-.39-.45-.35-.11.04-.44.21-.55.1,0-.1.16-.18.1-.31-.13,0-.21.24-.39.2-.08-.02-.29-.22-.31-.29-.04-.12.15-.21.2-.31.07-.12-.08-.46-.1-.61-.02-.16.09-.38.14-.53.06-.18.13-.29.13-.49,0-.23.19-.12.31-.33.1-.18-.12-.36.07-.6.27-.25.43-.61.7-.88.1-.1.16-.18.2-.27.06.88.27,1.69-.77,1.9-.65.13-.29.88-.28,1.41,0,.22.47-.21.54-.27.22-.19.46-.54.72-.65.18-.08.5.27.78.3.46.04.15.92.01,1.14-.09.15-.32.22-.46.31-.19.12-.31-.13-.5-.07,0,.49,1.19,0,1.27-.24.06.02.02.16.11.18.15-.63.64-1.17.96-1.74.21-.37.51-.71.82-.99.16-.16,1.1-.69,1.1-.7.17,0,.59.07.73-.01.06-.04.13-.49.18-.59.28-.63,1.01-1.35,1.69-1.53v-.02c-.1-.02-.45-.27-.35-.25.14.03.32.04.43.13.27.25.25-.21.35-.45.07-.19.44-.45.65-.45.04.06-.27.6-.3.73-.09.31-.3.35-.57.46,0,.05.52.53.6.64.06.09.32.65.39.64.04-.16.09-.32.19-.46.38-.25.71-.42,1.18-.47.5-.05.66-.02.67.48,0,0,0,.01.02.02,1.43.18,1.26-1.97,1.96-2.69.35-.18.68-.08,1.04-.08h.01s0-.02,0-.02c0-.39.21-.63.33-.98l.19-.51c.05-.13,0-.34.1-.44.44,0,.79.44,1.24.27.63-.24.29-1.15.64-1.5.38-.28.6-.31.74-.79.05-.17.12-.37.28-.46.16-.1.24.07.35.02,0,0,0-.01.02-.02,0-.02,0-.03.01-.05.26-.31.6-.49,1.02-.59.62-.14,1.08-.3,1.6-.67.25-.19,1.04-.89.94-1.24-.2,0-.51.42-.7.09-.09-.15-.33-.26-.38-.39-.02-.05.03-.08,0-.13-.08-.11-.21-.19-.24-.35-.03-.22.05-.34-.09-.55-.1-.14-.19-.39-.19-.56h.54c.25,0,.2.42.57.16.24-.17.38-.61.52-.85.26-.44.67-1.47,1.21-1.57.26-.05.59-.03.81-.17.13-.09-.06-.67-.02-.83.14,0,.31.41.54.41.13,0,.62-.26.7-.2-.08.33-.55.48-.81.6-.29.14-.33.24-.48.53-.17.32.08.77.08,1.14,0,.19,0,.31-.08.48-.09.18.1.23.13.4.04.12.11.24.15.37.06.17.14.48.09.65-.03.09-.07.12-.12.2-.04.06-.07.15-.12.21,0,.07-.03.08-.01.17.17.12.39.21.54.34.38.26.79.86.8,1.32,0,.3-.17.44-.45.51-.3.07-.33.25-.57.37-.13.26-.2.48-.15.79.08.07.21.05.3.1l.45.26s.1.07.13.1c.13.06.14.22.23.31,0,.01.01.01.02.02h.01s.02,0,.02,0h.01c.07-.02.21-.15.26-.19.18-.13.44-.16.66-.16.24,0,.3.12.44.26h0s.02,0,.02,0h.02c.14-.21.74-.32.97-.33l.59-.03c.17,0,.44-.05.59-.02.21-.17.35-.27.58-.34.16-.05.68-.33.68-.52-.11,0-.26.05-.35,0-.06-.02-.23-.24-.13-.29.19-.1.49.15.49-.24-.01-.84.53-.18.67-.53.07-.16.39-.35.4-.05,0,.15.23.28.2.31-.17.18-.06.46,0,.65.03.1.16.12.22.2.05.05.02.25.05.33.04,0,.29-.32.33-.36.11-.15.09-.28.11-.46.01-.14.11-.13.19-.21.04-.04.02-.36.06-.47.08-.19-.08-.17-.08-.32,0-.05.13-.16.16-.22.04-.09.16-.56.23-.46.12.17.2.33.41.41.16-.03.2.18.36.03.33-.33.15-.15.48-.1.17.03.43-.2.51-.16.03.1.05.18.17.2.13.02.19.01.11.12-.13.18-.16.5-.35.65-.15.11-.39-.76-.63-.46-.11.14-.25.2-.35.34-.06.08-.28.23-.3.3.2.15.45.09.62.34.13.2-.1.47-.04.69.09.02.25-.09.35-.12.34-.12.51.06.8-.25.27-.29.19-.97.76-.98.26,0,.16-.04.36-.22.13-.11.51-.39.65-.14.02.02.07.11.1.12,0,0,0,0,0,.02h0s.41-.65.49-.74c.07-.08.15-.17.26-.19.06-.01.11.05.17.06.21.03.41-.09.62,0,.15.07.21.12.33.22.14.12.17-.15.26-.24.16-.15.33-.01.49-.01.26,0,.3-.21.49-.34.12-.08.25.22.41.17.4-.13.09-.71.55-.29.25.22.17.29.31.57.07.15.18.16.22.36.08.46-.08.51.42.32.24-.1.58-.41.82-.41.14.17.43-.06.3.3-.05.14-.17.29-.17.44,0,.24.4-.04.33.37-.1.67.47-.31.5-.33.14-.12.15-.21.34-.2.18,0,.15-.29.33-.29.02.04.02.11.04.16.22,0,.47-.49.69-.59.2-.09.34.28.29.42-.07.18-.32.26-.4.45-.1.2-.1.23.12.16.46-.16.83-.43,1.27-.62.08-.04.29.33.33.41.28.58-1.23.97-1.12,1.48.01,0,0,0,.01.01.23.03.46.01.69.01.13.18-.47.25-.41.46.32.08.6.24.87-.03.13-.13.55-.46.74-.42.06.23.11.23.21.43.22-.12.18-.35.35-.47.05-.04.07.04.12.06.1.05.49-.69.54-.85.08-.26-.01-.71.11-.92l.38.3c.08.06.24.26.32.29,0,.04.06.07.1.07,0,0,0,0,.02,0,.05-.22,0-.51,0-.75,0-.19-.14-.28-.11-.44.12,0,.11-.13.11-.22,0-.11.13-.1.18-.22-.05-.26.15-.24.35-.28.21-.05.15-.04.22.13.12.31.26-.27.33-.36.08-.11.29-.46.43-.46.07.19.26.46.39.63.11.15.13.3.33.3.34,0,.52-.1.85.03.2.08.73-.33,1.02-.3.15.02.87-.05.94-.21.16-.1.25-.27.44-.36.56-.27,1.59-.28,2.09.11h.02c.15,0,.31-.13.5-.13.23,0,.38.23.57.24.51,0,1-.27,1.5-.37.24-.05.55-.09.79-.05.25.04.41.23.63.3.12.15.51.4.68.52.25.17.43.44.66.64.7.58,1.35,1.19,1.9,1.91h.02c.11-.15.34-.19.51-.22.08-.01.19-.01.24-.09.05-.07.03-.19.07-.24.03-.27.03-.32-.09-.55-.15-.29.06-.43.23-.64.1-.13.18-.24.3-.35.05-.05.23-.23.23-.3-.27,0-.45.33-.61.49-.15.15-.39.42-.43.63,0,0-.13-.21-.18-.24-.1-.07-.22-.08-.33-.16-.07-.05-.47-.48-.3-.53.07-.02.14.04.21.02.36-.06.53-.37.81-.53.12-.07.23.02.35,0,.13-.03.08-.19.2-.2.28-.05.57-.07.83-.18.17-.07.36-.35.43-.09l.36,1.42c.06,0,.9-.51.7-.17-.17.28-.75.2-.75.55.32,0,.64-.26.93.06.1.11.19.08.35.07.14,0,.07-.13.09-.24.09-.57.74-1.05,1.15-1.38.24-.05.55-.28.78-.4.45-.24.74-.09,1.18,0,.18.04.32.05.51.05.2,0,.15-.06.26-.17h.03s0,.02.01.02c0,.03.02.05.02.08.14.17.45.14.52-.07.1-.31.38-.59.67-.74.53-.37,1.02-.53,1.67-.53.54,0,1.46.13,1.82.58.09.04.16.12.27.12.1.04.34,0,.44-.04.14-.16.29-.35.4-.54.18-.29.5-.13.83-.12.11,0,.26.03.35.09.2.14.19.26.43.05.2-.18.55.04.78-.11.12-.08.19-.12.24-.27.03-.08.1-.4.16-.42.03.12-.04.51.09.58.13.06.49-.24.53-.12.06.19.12.69.12.9,0,.24-.01.7-.08.91-.12,0-.31-.8-.33-.91-.04-.27-.06-.39-.33-.44-.08-.02-.45-.15-.45-.13,0,.18.32.58.37.81.05.26.24.43.36.66.27.23.42.6.43.95.24-.09.5-.38.75-.49.55-.25.89.2,1.4.06.22-.06.51-.38.71-.51.27-.17.65-.31.97-.31.2-.04.44-.07.65-.04.19.02.4.16.57.16.02-.07,0-.17,0-.25,0-.04.03-.26,0-.27-.02-.08-.29-.03-.29-.27,0-.07-.03-.47-.06-.47-.08,0-.3.33-.36.39-.28.29-.72-.38-.96-.06-.3.42-.52.22-.94.31-.19.04-.82.21-.75-.1.08-.38.23-.75.49-1.04.24-.27.3.01.61-.06.1-.03.26-.08.37-.03.35.15.28,0,.63-.05.21-.03.44.05.65.05.19,0-.03-.24-.07-.32-.16-.33-.24-.65-.45-.94-.36-.48-.77.19-1.09.46-.69.59-.52-.19-.52-.66,0-.13-.08-.19-.08-.3,0-.15.13-.26.13-.43,0-.16.13-.19.27-.19.12.15,0,.51.19.59l.29.12c.07.03.13.12.2.12.05-.39.06-.87.19-1.25.07-.23.11-.47.15-.7.05-.25.02-.57.13-.8.16-.59.37-1.28.37-1.9l.65.19c-.07.07-.15.16-.15.27.22.26.02.64-.04.92-.03.13-.11.32-.04.45.09.15.1.28.09.46-.01.26.21.75.38.99.06.09.1.21.19.27.08.05.35.25.37.32-.19,0-.39-.26-.55-.26,0,.3.22.88.37,1.14.1.18.15.42.29.57.12.13.37.41.42.56.08.09.15.35.24.39.15.07.32.12.48.1.21-.25.14-.69.14-1.02,0-.26-.08-.44-.23-.64-.1-.14-.25-.25-.34-.41-.11-.19-.03-.22-.03-.41,0-.1-.33-.34-.41-.44-.15-.18-.35-.27-.42-.53-.02-.1-.07-.15-.07-.26.1,0,.14.2.24.12.09-.07.58-.54.44-.13-.22.59.35.76.43,1.26.05.33.13.55.32.83.07.11.24.56.34.56.22,0,.45-.21.63-.32.13-.08.26-.13.41-.16.19-.03-.07.33-.14.4-.17.19-.4.3-.62.43-.27.24.15.29.33.38.09.05.2.1.28.17.04.03.11.17.14.18,0,.01,0,.01,0,.02-.04.01-.92-.15-.64,0,.2.11.56.12.78.12.15,0,.34-.13.51-.15.27-.03.5-.11.78-.06.1.02.16.09.27.04.11-.05.29-.12.41-.12.31-.03.59-.08.88-.15.14-.03.46-.18.56-.27.2-.19.94-.27,1.21-.29.19,0,.33-.01.52.03.1.03.2.14.29.15,0,.02,0,.01.03.02.01.02,0,.01.03.02,0,.01.04.03.06.03h0c.11.01.28-.22.36-.29.11-.06.25-.12.34-.18.12-.09.13-.44.25-.58.09-.11.34-.06.37-.16.05-.2-.04-.64-.14-.81-.15-.26.15-.42.18-.69.08,0,.35.53.38.63h0s.11-.14.15-.18c.23-.24.68-.42,1.01-.3.16.06.29.08.39.23.06.1.03.29.09.37h.02c.06-.46.48-.24.66-.55.1-.13.2-.29.28-.43.07-.12.18-.22.23-.36.02-.08.02-.17.02-.25,0-.13.08-.23.08-.36,0-.13.13-.28.16-.41h.01c.08.36,0,.76.07,1.13.07.4.25.79.36,1.18.05.08.15.28.15.37h0c-.18,0-.36-.04-.54-.04-.04.05.21.11.24.13.41.17.34.47.45.82.08.25.44.26.66.25.46,0,.46-.85.45-1.19,0-.25-.09-.46-.17-.68-.11-.29-.12-.59-.12-.91.01-.15,0-.4.07-.52.06-.1.27-.25.27-.38-.27-.09-.07-.52.02-.68.14-.23.25-.32.46-.47.11-.08.06-.15.09-.27.12-.42.83-.72,1.24-.67.09.05.2.08.3.1.11.03.24.11.34.15.15.06.12-.08.15-.17-.19,0-.46-.07-.6-.2-.07-.07-.13-.1-.09-.2.1-.26-.12-.09-.12-.28,0-.13.14-.16.19-.25.16-.33-.07-.77-.15-1.08-.1,0-.19.03-.29.03-.05.19.03.42-.13.6-.04.04-.27.09-.3.02-.04-.08.04-.72.09-.74.07-.02.22,0,.31,0,.15,0,.23-.1.32-.21-.04-.19-.13-.38-.17-.56-.01,0-.04-.03-.04-.04-.2-.02-.34-.05-.34-.28,0-.43-.12-.83-.12-1.26,0-.18.04-.4,0-.57-.04-.18-.21-.4-.21-.56-.02-.12-.04-.24-.07-.36-.05-.17-.13-.32-.13-.5,0-.11.12-.18.15-.29.02,0,.07.21.09.25.05.1.25.28.25.38,0,.18-.03.18.08.34.15.21.1.45.13.69.02.11.04.21-.02.32-.06.13-.03.08-.01.2,0-.02.08.18.09.24.03.17.18.29.18.49,0,.1-.12.33-.05.34.11.02.25.01.37,0,.15,0,.22-.32.33-.45.06-.07.29-.34.36-.36,0,.14-.11.27-.11.44,0,.25.22.57.29.82.06.21.18.34.24.56.05.19-.13.23-.13.37,0,.19.1.45,0,.61-.08.12-.17.21-.27.31-.17.17.04.13.11.26.11.09.26.24.26.39,0,.18-.43.01-.41.22,0,.07.05.12.06.21,0,.07-.03.13-.03.2-.03.01,0,.35,0,.39.05.13.21.24.29.35.16.21.27.39.26.66,0,.15-.13.45-.1.57.25,0,.32.03.5.2.09.13.03.26.2.31.15.05.08.15.17.23.03.03.21-.11.25-.13.07-.04.26-.07.3-.13,0-.01-.14-.09-.16-.13-.09-.15-.19-.34-.15-.53.03-.14.2-.11.3-.16.17-.08.12-.29.35-.39l.42-.19c-.18,0-.41-.29-.09-.25.22.02.28.19.42.02.19-.23.08-.57.26-.82.12-.17.08.05.08.14,0,.31,0,.59-.06.88-.02.11-.15.27-.15.33,0,.1.14.2.17.3.04.19,0,.31.01.5,0,.14.26.29.29.43.14.14.12.31.21.42.11,0,.33-.03.42.03.09.06.11.22.18.25.1.05.24,0,.35.02.1.01.17.09.27.09.17,0,.4-.13.57-.2.29-.12.64-.06.94.01.25.05.56.29.79.28.03-.1.36-.53.46-.56.16-.05.29-.18.47-.19.44-.03.33-.21.58-.52.09-.11.17-.16.3-.2.1-.02.29,0,.29-.12-.07-.09-.06-.53,0-.64.13-.3.55-.25.54-.59,0-.38.2-.7-.02-1.07-.03-.14-.18-.36-.25-.5-.15-.33-.25-.48-.5-.72-.11-.1,0-.28-.16-.38-.13-.08-.25-.15-.29-.31.18-.18.22-.21.46-.28.04-.01.21-.26.26-.32.11-.12.11-.68-.05-.72-.24-.06-.33-.32-.58-.37,0-.03.28-.22.31-.23.16-.21.37-.33.36-.61,0-.19-.2-.38-.21-.55.02,0,.68.44.47.04-.06-.12-.1-.28-.04-.4.02-.03.08-.21.11-.22.02-.07.39-.28.38-.36-.05.14.09.55.1.74l.02.89c.08.15.08.33.16.48.03.07.18.29.18.34-.09.02-.17,0-.26.03,0,.04.01.2.05.22.24.19.05.1-.02.29-.04.1.08.2.16.28.12.13.21.55.26.74.07.3.03.63.1.93.07.25.02.35.17.56.08.1.12.36.26.39.02.08,0,.17-.09.22,0,.02,0,.03,0,.05.56.18-.04.4.14.64.12,0,.25-.08.38-.09.14,0,.6,0,.61.2,0,.08-.02.42.06.46.09.03.67-.16.72-.24.05-.09-.02-.2.06-.3.1-.13.1-.17.14-.33,0,0,.03,0,.04-.02.07,0,.02.43.19.44.05,0,.02-.42.01-.51l-.05-.78c-.01-.13-.08-.5.1-.2.05.09.38.14.28.25-.2.23-.06.33-.12.58-.05.2.44-.13.54-.13.04.05-.1.3-.1.37,0,.17.23-.06.27-.09.09-.06.11-.35.22-.32.34.11.22-.46.28-.68.06-.23.4-.05.54-.23.12-.15.05-.32.16-.48.16-.24-.06-.46.07-.71.08-.16-.21-.97-.21-1.16.04,0,.45.96.46,1.03.03.17-.24.3-.11.43.33.32.2.41.11.81-.13.61-.46.94-.89,1.34-.39.36.39.55.58.73.1.31.1.38.43.48.16.05.27.24.37.01.06-.14.05-.3.14-.43.12-.16.3-.11.37-.36.03-.12.3-.33.43-.34-.01-.04-.12-.05-.13-.17,0-.12.1-.41-.04-.44-.28-.07-.1-.5-.11-.7,0-.13.05-.24.04-.37,0-.13-.08-.24-.05-.37.15,0,.28.18.28.31,0,.2,0,.38-.05.57-.07.3.38.07.51.32.09.18.14.4.17.6.02.19-.04.2.12.28.18.09.01.39-.05.52-.05.11-.57.17-.51.23.12.1.15.12.29.14.15.03.38.11.46.25.05.03.07.07.1.1,0,.01,0,.02,0,.03.06.18.02.5.03.7.16,0,.25-.2.38-.21.1,0,.31.18.35.27.06,0,.04-.23.05-.29.12-.46.05-.96.12-1.43.02-.1,0-.21.05-.3.1-.19.14-.1.04-.31-.06-.14-.12-.31-.16-.46-.09,0-.21.15-.35.17-.09.02-.3-.22-.3-.3.22,0,.14-.1.29-.18.17-.09.23-.05.27-.27.3.23.52,1.26.52,1.64,0,0,0,0,.01,0,.03-.11.07-.63.31-.55.06.02.09.1.15.12.08.04.21-.31.28-.24.07.07.23.53.25.65,0,.06-.05.19.02.22.26.12.2-.22.24-.39.04-.2.06-.51.2-.67.1-.12.41-.35.26-.51-.15-.16-.04-.34-.09-.53-.02,0-.23.15-.33.15-.11,0-.42-.35-.49-.46-.07-.1.16-1.01.37-.73.1.13.11.37.27.47.12.07.32-.28.41-.35.08-.05.08-.15.07-.24,0-.06-.02-.18.08-.16.17.03.34-.69.43-.43.06.18.16.01.24-.07.06-.06.29-.16.29-.24-.14-.06-.24-.14-.22-.31.02-.12.24-.25.34-.32.1-.07.26-.3.38-.31.02.09-.16.58-.05.61.24.11.35-.18.53-.26.09-.04.18-.02.27-.07.08-.05.16-.16.25-.16,0,.15-.05.19-.12.32-.07.13.15.46.16.63,0,.05.02.26-.06.25-.09-.01-.17-.44-.3-.22-.09.16-.35.37-.52.29-.12-.06-.22.1-.33.12-.21.06-.16-.2-.28-.19-.04.17-.11.24-.22.37-.12.15-.08.14.04.24.26.21.09.56-.02.8-.14.18-.26.31-.31.55.09,0,.51-.66.57-.46.07.26-.13.37-.13.67.05,0,.27-.27.3-.2.07.15.03.52.04.7,0,.04.07.33.1.36.02.03.2-.36.26-.42.43-.46.27.31.42.5.05-.07.22-.13.23-.23.01-.12-.11-.17-.16-.27-.33-.6.13-1.22.03-1.82-.03-.21-.03-.35.08-.52.01-.03.1-.2.13-.16.09.08-.05.34.18.23.15-.07.27-.09.4-.21.17-.16.05.1.16.1.11,0,.31-.12.36.02.14.34-.11.34-.25.56-.07.11-.09.23-.12.35-.02.1-.21-.2-.29-.21-.11,0-.14.45-.16.54-.07.36.3-.22.26.06-.01.12-.04.24-.04.37,0,.27.24-.15.2-.32-.02-.06-.13-.26-.09-.28.21-.13.48,0,.61-.31.07-.19.21-.38.27-.56.02,0,0,.06,0,.07-.02.1-.03.12.02.22.14,0,.23-.1.35-.15.05-.02.09-.04.14-.05.03,0,.11-.01.13-.03.12.06.25-.12.3-.23.03-.09.1-.39.2-.39.05,0,.04.3.04.37,0,.25.26.1.3.3.02.1.02.4.07.45.05.05.15-.24.24-.18.1.07.1.5.25.39.19-.16.31-.25.55-.16.03.16-.12.18-.12.35,0-.01,0,.18.01.23.09,0,.18-.22.31-.22.04.15.04.33.08.48.06,0,.34-.36.4-.43.21-.22.08-.7.07-.99-.01-.27.07-.49.07-.75-.16-.04-.38-.09-.57-.09,0-.03.26-.33.31-.37.11-.06.22-.14.31-.24.15-.15.3-.33.33-.02,0,.05.08.24.07.28-.02.04-.21-.08-.24-.01h0v.02c.17.04.16.1.29.19.14.1.39-.21.49-.3.07-.07.08-.45.24-.45.03.12,0,.3,0,.43,0,.07.07.42,0,.42-.15.03-.13-.11-.25-.11-.04.13-.12.2-.21.3-.11.13-.14.1-.03.21.2.2.06.42-.04.6-.11.2-.19.21.04.33.33.17.13.32.22.55.07.18.23.3.29.5,0,0,.01,0,.02,0,.08-.21.06-.55.19-.71.13-.16.24-.29.41-.41.13-.1.16,0,.21.1.02.05.15,0,.21,0,.29,0,.42-.53.49-.75.07,0,.2.24.21-.02,0-.26.1-.15.22-.3.39-.18.31-.5.39-.84.02-.1.1-.37.05-.44-.1-.14.07-.24.16-.33.04.11.01.32.04.44.04.23-.1.3-.1.47.13,0,.19-.08.2.11,0,.24.11.45.12.68.02.23-.05.21.12.39.23.24.27.44.47.04.07-.13.08-.06.17-.06.1,0,.21-.08.3-.11.02.06-.11.23-.13.31-.04.15.13.07.24.15.03.07.03.12.03.19,0,0,.23-.14.24-.15.11,0,.35.16.47.19,0,.03-.14.04-.17.04-.08,0-.4.41-.44.5-.02.03-.19.44-.05.33.17-.13.53-.47.36,0,0,.03.1.03.12.04.16.04.1-.04.09-.18,0-.1.1-.23.13-.34h0l.13.77.14.53c.08.02.24-.12.29-.21.07-.12.1-.28.28-.29.31-.03.29-.37.37-.58.02-.04.13.02.19.01.6-.13,1.57-.98,1.83-1.51.12-.2.17-.33.31-.5.01-.02,0-.3.01-.34.05-.36-.01-.2-.22-.35-.13-.1-.03-.4-.07-.56-.07-.02-.36,0-.38-.03-.06-.09-.09-.35-.12-.46-.06-.2-.37-.29-.28-.54.06-.17.22-.42.36-.53h.01s.05-.72.05-.72c.16-.23.64-.54.52-.87-.09-.26-.32-.43-.15-.68.33-.5-.12-.39-.13-.91,0-.18.03-.89-.16-.94,0-.02-.02-.02-.02-.04-.16-.04-.34-.18-.48-.21,0-.02-.03-.06-.05-.06-.06-.36-.37-.52-.16-1,.24-.55-.44-1.18-.06-1.91.17-.34.74-.13,1.12-.33.35-.18.55-.27.87-.55.66-.56.87-.62,1.58-.16.41.26,1.39.76,1.25-.15l.7-32.72v-.32s-.07-5.5-.07-5.5l-.92-21.38Z"/>
  <path class="cls-4" d="M115.88,75.3c-7.7,0-13.97-6.25-13.97-13.94,0-7.78,6.25-13.98,14.08-13.99,7.55,0,13.86,6.32,13.86,13.88,0,7.79-6.22,14.05-13.97,14.05M115.87,73.48c6.64,0,12.11-5.43,12.15-12,.04-6.71-5.3-12.2-12-12.27-6.68-.08-12.23,5.25-12.27,12.05-.04,6.77,5.4,12.22,12.12,12.23"/>
  <path class="cls-4" d="M111.39,67.78c-.76,0-1.52-.21-1.89-.57.18-.13.3-.37.3-.62,0-.48-.39-.86-.88-.86-.54,0-.91.46-.91,1.03,0,.33.12.64.33.92.55.74,1.73,1.28,3.03,1.28,2,0,3.56-1.12,3.56-2.77,0-1.01-.59-1.74-1.4-2.16-.28-.15-.61-.27-.92-.34.31-.06.64-.19.91-.36.71-.42,1.19-1.13,1.19-1.95,0-1.5-1.43-2.51-3.23-2.51-1.44,0-2.38.56-2.83,1.19-.21.3-.31.6-.31.86,0,.64.44,1.06.91,1.06.49,0,.88-.4.88-.86,0-.25-.13-.48-.3-.61.3-.27.83-.46,1.59-.46,1.06,0,1.9.46,1.9,1.37,0,.58-.31,1.06-.85,1.35-.43.25-1,.39-1.65.39h-.55v1.19h.51c.68,0,1.25.1,1.7.3.71.3,1.09.82,1.09,1.5,0,.92-.92,1.64-2.17,1.64M118.8,68.81h4.3v-1.15h-1.25v-1.68h1.59v-1.12h-1.59v-2.4l-1.35.55v1.86h-2.87l4.28-5.4-.98-.76-5.22,6.64.3.61h4.49v1.73h-1.7v1.12Z"/>
  <path class="cls-4" d="M107.9,57.53h2.95l.28-1.21h-.68l-.14.58h-1.12l.67-2.87h.53l.15-.63h-1.74l-.14.63h.5l-.67,2.87h-.44l-.14.64ZM112.81,57.58c.91,0,1.56-.78,1.56-1.6,0-.67-.46-1.25-1.29-1.25-.91,0-1.56.78-1.56,1.6,0,.67.46,1.25,1.29,1.25M112.83,57c-.34,0-.62-.23-.62-.68,0-.59.38-1.03.83-1.03.34,0,.62.23.62.68,0,.59-.38,1.03-.83,1.03M116.17,57.58c.37,0,.71-.09.97-.27v-.61c-.28.19-.6.31-.93.31-.4,0-.72-.26-.72-.73,0-.7.52-.98.92-.98.13,0,.25.02.33.08-.06.08-.09.17-.09.26,0,.22.17.4.4.4.26,0,.42-.23.42-.49,0-.49-.48-.82-1.03-.82-.89,0-1.64.71-1.64,1.6,0,.79.6,1.25,1.38,1.25M118.7,57.58c.43,0,.76-.28.99-.62,0,.38.21.62.57.62.3,0,.65-.16.84-.81l-.28-.11c-.14.38-.27.45-.35.45-.09,0-.14-.06-.14-.17,0-.07.02-.18.05-.3l.47-1.87h-.64l-.19.57c-.11-.31-.41-.62-.77-.62-.8,0-1.43.84-1.43,1.79,0,.64.37,1.07.89,1.07M119.03,56.99c-.33,0-.5-.26-.5-.58,0-.56.37-1.07.83-1.07.37,0,.54.23.54.58,0,.59-.41,1.07-.87,1.07M122.27,57.58c.36,0,.67-.16.86-.81l-.28-.11c-.14.38-.26.45-.37.45-.1,0-.15-.06-.15-.19,0-.07.02-.16.05-.27l.86-3.72h-1.2l-.15.58h.51l-.73,3.15c-.03.11-.04.21-.04.3,0,.38.2.62.62.62"/>
  <path class="cls-4" d="M113.4,80.94h1.96v-.66h-1.23v-.62h1.04v-.65h-1.04v-.57h1.21v-.65h-1.94v3.15ZM111.3,80.94h.75v-2.49h1v-.66h-2.75v.66h1v2.49ZM109.17,80.94h.75v-3.15h-.75v3.15ZM105.72,80.94h.7v-1.72l1.96,1.84h.07v-3.27h-.69v1.73l-1.96-1.84h-.07v3.25ZM103.13,77.79h-.74v1.81c0,.94.51,1.44,1.32,1.44s1.32-.51,1.32-1.44v-1.8h-.67v1.8c0,.5-.22.76-.61.76-.41,0-.62-.28-.62-.83v-1.73Z"/>
  <path class="cls-4" d="M126.08,80.95h1.96v-.66h-1.23v-.62h1.04v-.65h-1.04v-.57h1.21v-.65h-1.94v3.15ZM124.1,78.37c.41,0,.62.11.62.43,0,.29-.2.45-.58.45h-.16v-.87h.12ZM123.25,80.95h.73v-1.24h.11l.84,1.24h.86l-.96-1.35c.38-.17.59-.47.59-.87,0-.27-.13-.54-.37-.7-.27-.2-.58-.22-.98-.22h-.81v3.15ZM120.72,80.95h1.95v-.66h-1.23v-.62h1.04v-.65h-1.04v-.57h1.21v-.65h-1.94v3.15ZM117.3,80.95h.74v-1.32h1.21v1.32h.74v-3.15h-.74v1.16h-1.21v-1.16h-.74v3.15Z"/>
  <path class="cls-4" d="M128.56,80.64c0,.2.17.37.37.37s.37-.17.37-.37c0-.21-.16-.37-.37-.37s-.37.16-.37.37M128.8,79.97l.22.03c.2-.96.36-1.72.37-2.3l-.86.12c.02.65.11,1.36.27,2.14"/>
  <path class="cls-4" d="M79.62,69.95c0-2.38-1.14-3.74-2.55-4.48,1.3-.69,2.27-1.91,2.27-4.04,0-3.32-2.52-5.65-6.01-5.65s-5.95,2.1-6.03,5.62h3.6c.08-1.49,1.08-2.38,2.44-2.38s2.41.86,2.41,2.52c0,1.39-.75,2.46-2.49,2.46h-.52v3.13h.52c1.77,0,2.77,1.08,2.77,2.71,0,1.77-1.11,2.74-2.66,2.74-1.41,0-2.63-.8-2.68-2.58h-3.6c.05,4.12,3.07,5.82,6.28,5.82,3.38,0,6.26-1.94,6.26-5.87M94.07,69.01c0-1.85-.22-3.71-1.77-5.26-.8-.8-2.05-1.33-3.68-1.33-1.33,0-2.44.5-2.96.99v-4.24h7.97v-3.24h-11.24v11.13h3.29c.25-.78.91-1.61,2.38-1.61,1.74,0,2.41,1.27,2.41,3.54,0,1.25-.14,2.3-.78,2.93-.44.44-1.02.64-1.71.64-1.5,0-2.22-.89-2.41-2.44h-3.6c.11,1.44.39,2.88,1.61,4.1.86.86,2.35,1.58,4.4,1.58s3.46-.72,4.35-1.61c1.44-1.44,1.74-2.99,1.74-5.21"/>
  <path class="cls-4" d="M71.25,53.48v-1.05h-2.75v-5.01h-1.18v6.06h3.93ZM76.69,50.45c0-1.05.01-1.81-.6-2.42-.43-.43-.94-.66-1.64-.66s-1.22.24-1.64.66c-.61.61-.6,1.37-.6,2.42s-.02,1.8.6,2.42c.43.43.95.66,1.64.66s1.21-.24,1.64-.66c.61-.61.6-1.37.6-2.42M75.51,50.45c0,1.17-.07,1.45-.3,1.7-.17.2-.43.32-.76.32s-.6-.13-.77-.32c-.23-.25-.29-.54-.29-1.7s.06-1.45.29-1.7c.17-.2.44-.32.77-.32s.59.13.76.32c.23.26.3.54.3,1.7M82.58,51.62h-1.2c-.12.49-.43.86-1.02.86-.32,0-.59-.12-.76-.32-.23-.25-.3-.54-.3-1.71s.07-1.45.3-1.71c.17-.19.43-.31.76-.31.6,0,.9.37,1.02.86h1.2c-.21-1.27-1.1-1.92-2.23-1.92-.66,0-1.21.24-1.63.66-.61.61-.6,1.37-.6,2.42s-.02,1.8.6,2.42c.43.43.97.66,1.63.66,1.12,0,2.02-.65,2.23-1.91M88.62,53.48l-2.21-6.06h-.93l-2.2,6.06h1.23l.37-1.07h2.15l.36,1.07h1.23ZM86.72,51.41h-1.51l.76-2.21.74,2.21ZM93.73,53.48v-1.05h-2.75v-5.01h-1.18v6.06h3.93Z"/>
  <path class="cls-4" d="M78.09,80.94h1.96v-.66h-1.23v-.62h1.04v-.65h-1.04v-.57h1.21v-.65h-1.94v3.15ZM75.99,80.94h.75v-2.49h1v-.66h-2.75v.66h1v2.49ZM73.86,80.94h.75v-3.15h-.75v3.15ZM70.41,80.94h.7v-1.72l1.96,1.84h.07v-3.27h-.69v1.73l-1.96-1.84h-.07v3.25ZM67.82,77.79h-.74v1.81c0,.94.51,1.44,1.32,1.44s1.32-.51,1.32-1.44v-1.8h-.67v1.8c0,.5-.22.76-.61.76-.41,0-.62-.28-.62-.83v-1.73Z"/>
  <path class="cls-4" d="M90.77,80.95h1.96v-.66h-1.23v-.62h1.04v-.65h-1.04v-.57h1.21v-.65h-1.94v3.15ZM88.79,78.37c.41,0,.62.11.62.43,0,.29-.2.45-.58.45h-.16v-.87h.12ZM87.94,80.95h.73v-1.24h.11l.84,1.24h.86l-.96-1.35c.38-.17.59-.47.59-.87,0-.27-.14-.54-.37-.7-.27-.2-.58-.22-.98-.22h-.81v3.15ZM85.41,80.95h1.96v-.66h-1.23v-.62h1.04v-.65h-1.04v-.57h1.21v-.65h-1.94v3.15ZM81.99,80.95h.74v-1.32h1.21v1.32h.74v-3.15h-.74v1.16h-1.21v-1.16h-.74v3.15Z"/>
  <path class="cls-4" d="M93.25,80.64c0,.2.17.37.37.37s.37-.17.37-.37c0-.21-.16-.37-.37-.37s-.37.16-.37.37M93.49,79.97l.22.03c.2-.96.36-1.72.37-2.3l-.86.12c.02.65.11,1.36.28,2.14"/>
  <path class="cls-4" d="M144.09,69.49c0-1.39-1.03-2.42-2.8-2.42-2.18,0-3.6,1.56-3.6,4.01,0,2.92,2.15,4.57,8.2,4.57,5.57,0,9.06-2.45,9.06-6.37,0-2.18-1.36-3.54-3.13-4.25,3.16-.5,4.87-2.09,4.87-4.66,0-3.24-3.01-5.19-7.88-5.19-5.75,0-8.55,1.71-8.55,5.07,0,1.59,1.21,2.71,2.86,2.71s3.19-.97,3.19-2.89c0-.29-.06-.59-.18-.85.35-.12.71-.18,1.06-.18,1.47,0,2.3.77,2.3,1.86,0,1.71-1.09,2.68-3.04,2.68-.71,0-1.47-.15-2.18-.32l-1.09,4.1c.59-.06,1.15-.12,1.74-.12,1.71,0,2.54.62,2.54,1.92,0,1.59-.97,2.74-2.89,2.74-.53,0-1.03-.06-1.47-.24.62-.44,1-1.21,1-2.18M162.03,69.49c0-1.39-1.03-2.42-2.8-2.42-2.18,0-3.6,1.56-3.6,4.01,0,2.92,2.15,4.57,8.2,4.57,5.58,0,9.06-2.45,9.06-6.37,0-2.18-1.36-3.54-3.13-4.25,3.16-.5,4.87-2.09,4.87-4.66,0-3.24-3.01-5.19-7.88-5.19-5.75,0-8.55,1.71-8.55,5.07,0,1.59,1.21,2.71,2.86,2.71s3.19-.97,3.19-2.89c0-.29-.06-.59-.18-.85.36-.12.71-.18,1.06-.18,1.48,0,2.3.77,2.3,1.86,0,1.71-1.09,2.68-3.04,2.68-.71,0-1.48-.15-2.18-.32l-1.09,4.1c.59-.06,1.15-.12,1.74-.12,1.71,0,2.54.62,2.54,1.92,0,1.59-.97,2.74-2.89,2.74-.53,0-1.03-.06-1.48-.24.62-.44,1-1.21,1-2.18"/>
  <path class="cls-4" d="M147.83,53.92l.68-2.53h-1.21l-.58.92c-.27.43-.45.45-1.13.45h-.1l1-3.71c.08-.31.16-.39.37-.39h.34l.31-1.16h-3.61l-.31,1.16h.24c.2,0,.24.08.16.39l-.89,3.32c-.09.31-.16.39-.37.39h-.24l-.31,1.16h5.66ZM151.59,54.06c1.63,0,2.9-1.2,2.9-2.83,0-1.48-1.12-2.21-2.63-2.21-1.63,0-2.84,1.14-2.84,2.77,0,1.48,1.07,2.27,2.57,2.27M151.51,52.84c-.28,0-.39-.16-.39-.43,0-.45.3-2.15.88-2.15.27,0,.37.18.37.43,0,.43-.29,2.15-.86,2.15M157.89,51.28c0,.55.42.75.87.75.81,0,1.22-.63,1.22-1.37,0-1-.81-1.64-2.25-1.64-1.63,0-2.84,1.17-2.84,2.83s1.26,2.21,2.45,2.21c.98,0,1.76-.36,2.21-1.19l-.99-.65c-.22.29-.44.5-.77.5-.43,0-.69-.29-.69-.81,0-.93.43-1.71,1.02-1.71.17,0,.32.04.43.1-.38.14-.65.51-.65.97M161.6,54.06c.63,0,1.14-.35,1.48-.82.09.53.55.82,1.33.82.39,0,.71-.07,1.09-.14l.29-1.09c-.07.02-.13.04-.19.04-.1,0-.18-.04-.18-.2,0-.08.03-.17.06-.29l.89-3.34c-.28.08-.73.14-1.28.14h-.94l-.2.69c-.14-.51-.57-.84-1.11-.84-1.72,0-2.74,1.8-2.74,3.36,0,.96.56,1.68,1.52,1.68M162.6,52.76c-.18,0-.32-.12-.32-.4,0-.91.47-2.05.97-2.05.17,0,.31.14.31.39,0,.86-.45,2.06-.96,2.06M167.72,54.06c.39,0,.7-.04,1.07-.14l.29-1.08c-.06.02-.13.03-.18.03-.1,0-.16-.05-.16-.19,0-.23.2-.86.33-1.32l1.08-3.98c-.28.08-.73.13-1.28.13h-1.42l-.3,1.11h.18c.16,0,.19.09.11.39l-.81,3.02c-.09.34-.24.8-.24,1.06,0,.66.49.98,1.33.98"/>
  <path class="cls-4" d="M141,77.61v1.91c0,.48.12.86.37,1.12.25.27.59.4,1.03.4s.78-.13,1.03-.4c.25-.27.37-.64.37-1.12v-1.91h-.71v1.91c0,.26-.06.46-.17.59-.11.14-.27.2-.48.2s-.38-.07-.49-.22c-.11-.14-.16-.36-.16-.66v-1.83h-.78ZM145.44,80.93v-1.81l2.08,1.94h.07v-3.45h-.73v1.83l-2.07-1.94h-.08v3.43h.73ZM149.34,77.61h-.79v3.32h.79v-3.32ZM151.77,80.93v-2.63h1.05v-.69h-2.9v.69h1.06v2.63h.79ZM155.46,80.93v-.7h-1.3v-.66h1.09v-.68h-1.09v-.6h1.28v-.68h-2.05v3.32h2.07ZM158.58,80.93v-1.4h1.28v1.4h.78v-3.32h-.78v1.22h-1.28v-1.22h-.78v3.32h.78ZM163.66,80.93v-.7h-1.29v-.66h1.09v-.68h-1.09v-.6h1.28v-.68h-2.05v3.32h2.06ZM165.86,78.32c.1.07.15.19.15.34s-.05.27-.16.35c-.11.08-.26.12-.46.12h-.17v-.92h.13c.23,0,.4.04.5.11M165.23,80.93v-1.3h.11l.89,1.3h.9l-1.01-1.43c.2-.09.35-.21.46-.37.11-.16.16-.34.16-.55,0-.15-.03-.29-.1-.42-.07-.13-.16-.24-.29-.33-.12-.08-.25-.14-.4-.18-.15-.04-.36-.05-.64-.05h-.86v3.32h.77ZM169.7,80.93v-.7h-1.3v-.66h1.09v-.68h-1.09v-.6h1.28v-.68h-2.05v3.32h2.07ZM170.56,80.87c.08.08.17.12.27.12.11,0,.2-.04.28-.12.07-.08.11-.17.11-.27s-.04-.2-.11-.28c-.08-.07-.17-.11-.28-.11-.1,0-.2.04-.27.11-.08.08-.12.17-.12.28s.04.19.12.27M170.93,79.92v-.07c.26-1.18.38-1.96.38-2.36l-.9.12c0,.33.04.68.09,1.05.05.37.12.78.21,1.21l.23.03Z"/>
  <path class="cls-4" d="M192.98,113.62c-3.38,0-5.11-1.2-5.15-3.55h.37c.04,2.14,1.6,3.18,4.79,3.18,1.13,0,4.8-.25,4.8-3.52,0-2.15-.65-3.12-4.64-3.56-3.18-.34-5.62-.86-5.62-4.07,0-1.46.59-2.64,1.7-3.4.95-.65,2.26-.99,3.77-.99,4.7,0,5.76,2.33,5.82,4.28h-.37c-.08-2.59-1.91-3.91-5.45-3.91-1.2,0-5.11.29-5.11,4.03,0,2.68,1.63,3.31,5.29,3.7,3.85.42,4.96,1.3,4.96,3.93,0,2.87-2.67,3.89-5.17,3.89M192.98,114.35c-1.99,0-3.52-.42-4.55-1.25-.9-.73-1.4-1.74-1.49-3.02l.37-.02c.12,1.79,1.2,3.93,5.67,3.93,5.13,0,5.53-3.27,5.53-4.27,0-3.19-1.64-3.9-5.3-4.29-3.79-.39-4.82-1.11-4.82-3.31,0-3.4,3.53-3.66,4.62-3.66,3.29,0,4.99,1.19,5.07,3.54h-.37c-.07-2.13-1.61-3.18-4.7-3.18-1.28,0-4.25.32-4.25,3.3,0,1.83.68,2.55,4.49,2.95,3.82.4,5.63,1.2,5.63,4.66s-3.04,4.64-5.89,4.64"/>
  <path class="cls-4" d="M208.27,114.05c-3.82,0-5.59-1.51-5.59-4.76v-12.25h.37v12.25c0,2.05.59,4.4,5.23,4.4s5.23-2.35,5.23-4.4v-12.25h.37v12.25c0,3.25-1.78,4.76-5.6,4.76M208.27,114.8c-4.39,0-6.43-1.8-6.43-5.66v-12.11h.37v12.11c0,1.74.43,3,1.3,3.86.99.96,2.54,1.43,4.76,1.43s3.77-.47,4.76-1.43c.88-.86,1.3-2.12,1.3-3.86v-12.11h.37v12.11c0,3.86-2.04,5.66-6.43,5.66"/>
  <path class="cls-4" d="M208.27,113.28c-4.47,0-4.83-2.16-4.83-4.76v-11.49h.37v11.49c0,2.57.32,4.39,4.46,4.39s4.46-1.82,4.46-4.39v-11.49h.37v11.49c0,2.6-.36,4.76-4.83,4.76"/>
  <path class="cls-4" d="M208.27,112.52c-1.66,0-2.71-.29-3.32-.9-.76-.77-.75-1.91-.74-3.36,0-.16,0-.33,0-.5v-10.72h.37v10.72c0,.17,0,.34,0,.5,0,1.37-.02,2.45.64,3.1.54.54,1.51.79,3.07.79s2.53-.25,3.07-.79c.65-.66.65-1.74.64-3.1,0-.16,0-.33,0-.5v-10.72h.37v10.72c0,.17,0,.34,0,.5.01,1.45.02,2.6-.74,3.36-.61.62-1.67.9-3.33.9"/>
  <path class="cls-4" d="M217.93,114.68v-17.53s.02-.1.05-.13.08-.05.13-.05h1c.06,0,.12.03.15.08l7.24,11.07,2.1,3.29-.05-4.89v-9.49s.35,0,.35,0v9.49s.07,5.53.07,5.53c0,.08-.05.15-.13.18-.08.02-.16,0-.21-.08l-2.44-3.83-7.19-10.98h-.71v17.34s-.36,0-.36,0ZM218.72,114.68v-11.02s-.07-5.53-.07-5.53c0-.08.05-.15.13-.18.08-.02.16,0,.21.08l2.44,3.83,7.19,10.98h.71v-15.81s.35,0,.35,0v16s0,.1-.04.13c-.03.03-.08.05-.13.05h-1c-.06,0-.12-.03-.15-.08l-7.24-11.07-2.1-3.29.05,4.89v11.02s-.36,0-.36,0Z"/>
  <path class="cls-4" d="M219.49,114.68v-8.72s-.07-5.53-.07-5.53c0-.08.05-.16.13-.18s.16,0,.21.08l1.42,2.3,7.19,10.98h1.74v-16.58s.35,0,.35,0v16.76s0,.1-.04.13c-.03.04-.08.05-.13.05h-2.02c-.06,0-.12-.03-.15-.08l-7.24-11.07-1.08-1.74.05,4.88v8.72s-.36,0-.36,0Z"/>
  <path class="cls-4" d="M231.05,114.74h-3.04c-.06,0-.12-.03-.15-.08l-6.22-9.28-1.08-1.74.05,4.88v6.17s-.36,0-.36,0v-6.17s-.07-5.53-.07-5.53c0-.08.05-.16.13-.18.08-.02.16,0,.21.08l1.42,2.3,6.17,9.2h2.76v-17.34s.35,0,.35,0v17.53s0,.1-.04.13-.08.05-.13.05"/>
  <path class="cls-4" d="M193.09,114.87c-.51,0-.98-.02-1.37-.04-3.8-.18-5.48-2.53-5.46-4.77h.37c-.01,1.55,1.04,4.21,5.11,4.4,1.6.08,4.58.22,6.22-1.46.92-.94,1.32-2.35,1.18-4.2-.17-2.33-1.96-3.56-5.8-3.96-3.12-.32-4.3-.63-4.3-2.6,0-2.95,3.06-3.18,4-3.18,2.67,0,4.3,1.09,4.36,2.91h-.37c-.06-1.61-1.51-2.55-3.99-2.55-1.09,0-3.63.27-3.63,2.81,0,1.64.8,1.91,3.97,2.24,1.87.2,3.25.58,4.23,1.18,1.18.72,1.8,1.74,1.9,3.12.14,1.96-.29,3.46-1.29,4.48-1.35,1.38-3.47,1.62-5.13,1.62"/>
  <path class="cls-4" d="M192.71,112.96c-2.76,0-4.04-.91-4.15-2.89l.37-.02c.07,1.35.67,2.71,4.46,2.52,1.62-.08,3.56-.68,3.63-3.11.06-1.89-1.36-2.39-4.56-2.81-3.78-.45-5.7-1.32-5.69-4.82,0-3.2,2.79-4.87,5.53-4.87,3.01,0,7.03.52,7.2,5h-.37c-.12-3.16-2.3-4.64-6.84-4.64-2.56,0-5.16,1.55-5.17,4.5,0,3.25,1.72,4.02,5.37,4.46,3.8.49,4.94,1.23,4.88,3.18-.06,2.11-1.47,3.34-3.98,3.46-.24.01-.47.02-.69.02"/>
  <path class="cls-4" d="M187.82,120.76c-.42.01-.65-.13-.65-.51l-.8.1c0,.7.38,1.11,1.46,1.11.71,0,1.41-.31,1.4-1.11-.01-.82-.49-.96-1.4-1.01-.46-.03-.58-.07-.58-.26,0-.3.29-.39.52-.39.42,0,.65.13.65.51l.8-.1c0-.7-.48-1.11-1.46-1.11-.7,0-1.32.34-1.31,1.11.02.79.66.89,1.34.92.5.03.65.12.65.34,0,.3-.31.38-.62.38M189.42,119.78h.42v.87c0,.39.21.82.98.82.23,0,.39-.05.48-.08l-.05-.69c-.07.05-.25.12-.4.1-.15-.02-.23-.08-.23-.26v-.76h.68v-.64h-.68v-.68h-.77v.68h-.42v.64ZM193.38,121.4h.71l-.04-.66v-1.6h-.77v1.42c-.07.09-.24.21-.49.21-.2,0-.33-.08-.33-.35v-1.29h-.77v1.39c0,.68.33.94.93.94.28,0,.57-.11.72-.27l.05.2ZM195.53,119.07c-.73,0-1.07.41-1.07,1.2s.34,1.2,1.07,1.2c.25,0,.52-.1.64-.27l.05.2h.7l-.04-.66v-2.67h-.77v1.21c-.13-.13-.36-.21-.58-.21M196.11,120.56c-.1.13-.25.21-.45.21-.23,0-.41-.15-.41-.5s.18-.51.41-.51c.2,0,.35.09.45.21v.58ZM199.7,120.49v-.22c0-.79-.43-1.2-1.18-1.2s-1.21.42-1.21,1.2.46,1.2,1.26,1.2,1.1-.31,1.11-.68l-.78-.09c0,.09-.1.15-.36.15-.28,0-.44-.13-.44-.35h1.61ZM198.52,119.69c.22,0,.37.11.36.34h-.77c0-.2.17-.34.41-.34M200.77,119.14h-.71l.04.66v1.61h.77v-1.42c.07-.09.24-.21.49-.21.2,0,.33.09.33.35v1.29h.77v-1.39c0-.68-.33-.94-.93-.94-.28,0-.57.11-.72.27l-.05-.2ZM202.8,119.78h.41v.87c0,.39.21.82.98.82.23,0,.39-.05.48-.08l-.05-.69c-.07.05-.25.12-.4.1-.14-.02-.24-.08-.24-.26v-.76h.68v-.64h-.68v-.68h-.77v.68h-.41v.64ZM206.06,120.87c-.24,0-.33-.07-.34-.23l-.78.1c.01.53.34.74,1.11.74.56,0,1.16-.19,1.16-.8s-.48-.64-1.03-.68c-.27-.02-.36-.05-.36-.16,0-.1.11-.16.26-.16.25,0,.31.08.31.2l.78-.09c0-.52-.37-.71-1.09-.71-.48,0-1.09.2-1.09.8s.44.62,1.03.66c.26.02.39.04.39.15s-.13.18-.36.18M210.01,120.77c-.56,0-.62-.28-.62-.61v-2.09h-.79v2.11c0,.74.3,1.29,1.41,1.29s1.41-.55,1.41-1.29v-2.11h-.79v2.09c0,.33-.07.61-.62.61M212.56,119.14h-.7l.04.66v1.61h.77v-1.42c.07-.09.24-.21.49-.21.21,0,.33.09.33.35v1.29h.77v-1.39c0-.68-.33-.94-.93-.94-.28,0-.57.11-.72.27l-.05-.2ZM214.77,121.4h.77v-2.26h-.77v2.26ZM215.54,118.07h-.79v.78h.79v-.78ZM215.92,119.78h.42v.87c0,.39.21.82.98.82.23,0,.39-.05.48-.08l-.06-.69c-.07.05-.25.12-.4.1-.15-.02-.24-.08-.24-.26v-.76h.68v-.64h-.68v-.68h-.77v.68h-.42v.64ZM220.5,120.49v-.22c0-.79-.43-1.2-1.18-1.2s-1.21.42-1.21,1.2.46,1.2,1.26,1.2,1.1-.31,1.11-.68l-.78-.09c0,.09-.09.15-.36.15-.28,0-.44-.13-.44-.35h1.6ZM219.33,119.69c.22,0,.37.11.36.34h-.77c0-.2.17-.34.41-.34M222.68,118.07h-.73v3.33h.79v-1.94s.3.47.3.47l1.01,1.47h.73v-3.33h-.79v1.94s-.3-.47-.3-.47l-1.01-1.47ZM226.42,120.78c-.26,0-.43-.11-.43-.51s.17-.51.43-.51.43.11.43.51-.17.51-.43.51M226.42,121.47c.74,0,1.21-.4,1.21-1.2s-.46-1.2-1.21-1.2-1.21.4-1.21,1.2.46,1.2,1.21,1.2M229.15,119.14l-.38,1.12-.22-1.12h-.82l.59,2.26h.76l.4-1.31.41,1.31h.76l.59-2.26h-.82l-.22,1.12-.38-1.12h-.68Z"/>
  <path class="cls-4" d="M120.74,116.15l-.42-.89h-.47l.67,1.26v.76h.42v-.76l.67-1.26h-.46l-.42.89ZM122.55,117.28h.4v-.87c0-.21-.05-.37-.17-.48-.11-.11-.27-.16-.46-.16-.11,0-.21.01-.3.04-.09.02-.18.05-.26.1l.08.29c.05-.03.11-.05.18-.07.07-.02.14-.03.22-.03.1,0,.17.03.22.07.05.05.07.12.07.22v.05c-.05,0-.11,0-.18,0-.06,0-.13,0-.19,0-.16,0-.28.05-.37.12-.09.07-.14.18-.14.31,0,.06,0,.12.03.17.02.05.05.1.09.13.03.04.08.07.13.09.05.02.11.03.18.03.1,0,.19-.02.27-.05.08-.04.14-.08.2-.13v.16ZM122.11,116.99s-.05-.06-.05-.11c0-.06.02-.09.05-.12.04-.02.08-.04.15-.05.04,0,.09-.01.13-.02.05,0,.1,0,.14-.01v.23s-.08.06-.13.07c-.05.02-.11.03-.16.03-.05,0-.1-.01-.13-.04M123.85,115.14h-.42v1.76c0,.05,0,.1.02.15.01.05.04.09.07.13.03.04.07.07.12.09.05.02.11.04.19.04.05,0,.1,0,.15-.01.05,0,.09-.02.13-.03l-.02-.29s-.04,0-.06,0c-.02,0-.04,0-.06,0-.05,0-.08-.01-.1-.03-.02-.02-.03-.06-.03-.1v-1.72ZM124.79,115.83c-.09.04-.17.09-.23.16-.06.07-.11.15-.14.25-.03.1-.05.2-.05.32s.02.22.05.31c.04.09.09.17.15.24.07.07.15.12.24.16.1.04.2.05.33.05.1,0,.19,0,.29-.03.09-.02.18-.05.25-.08l-.05-.28c-.06.03-.12.05-.2.06-.07.01-.15.02-.23.02-.14,0-.24-.03-.3-.1-.06-.06-.09-.15-.1-.26h.88s.02-.07.02-.11c0-.04,0-.08,0-.12,0-.1-.01-.18-.04-.26-.02-.08-.06-.14-.11-.2-.05-.06-.11-.1-.19-.13-.08-.03-.16-.05-.26-.05-.11,0-.21.02-.3.05M125.26,116.14c.04.06.05.13.04.23h-.51c0-.09.04-.17.08-.23.04-.06.11-.09.2-.09s.15.03.19.09M128.15,116.57c0,.13-.03.23-.1.3-.07.07-.17.11-.31.11s-.24-.04-.31-.11c-.07-.07-.1-.17-.1-.3v-1.31h-.42v1.29c0,.11.02.22.06.31.04.09.09.18.16.24.07.07.16.12.26.16.1.04.22.05.35.05s.25-.02.35-.05c.1-.04.19-.09.26-.16.07-.07.12-.15.16-.24.04-.1.06-.2.06-.31v-1.29h-.43v1.31ZM129.52,117.28v-1.04s.07-.07.11-.1c.05-.03.1-.04.16-.04.09,0,.16.03.2.1.04.07.06.17.06.3v.77h.42v-.77c0-.1-.01-.19-.03-.28-.02-.09-.05-.17-.1-.24-.04-.07-.1-.12-.17-.16-.07-.04-.15-.06-.24-.06-.09,0-.17.02-.25.05-.08.04-.14.1-.19.18v-.2h-.4v1.48h.41ZM131.38,115.8h-.42v1.48h.42v-1.48ZM131,115.54s.1.07.17.07.13-.02.17-.07c.04-.05.07-.1.07-.17s-.02-.12-.07-.17c-.05-.05-.1-.07-.17-.07s-.13.02-.17.07c-.04.05-.07.1-.07.17s.02.12.07.17M133.27,116.24c-.03-.09-.08-.18-.15-.24-.06-.07-.14-.12-.24-.17-.09-.04-.2-.06-.33-.06s-.23.02-.32.06c-.1.04-.17.1-.24.17-.07.07-.11.15-.15.24-.03.09-.05.19-.05.3s.02.21.05.3c.03.09.08.17.15.24.07.07.14.12.24.16.09.04.2.06.32.06s.23-.02.33-.06c.1-.04.18-.09.24-.16.06-.07.11-.15.15-.24.03-.09.05-.19.05-.3s-.02-.21-.05-.3M132.89,116.72c-.01.05-.03.1-.06.14-.03.04-.06.08-.11.1-.04.02-.1.04-.16.04s-.12-.01-.16-.04c-.04-.02-.08-.06-.1-.1-.03-.04-.05-.09-.06-.14-.01-.06-.02-.11-.02-.17s0-.12.02-.17c.01-.06.03-.1.06-.15.03-.04.06-.08.1-.1.04-.02.1-.04.16-.04s.12.01.16.04c.04.03.08.06.11.1.03.04.05.09.06.15.01.06.02.11.02.17s0,.12-.02.17M134.16,117.28v-1.04s.06-.07.11-.1c.04-.03.1-.04.16-.04.1,0,.16.03.2.1.04.07.06.17.06.3v.77h.42v-.77c0-.1,0-.19-.03-.28-.02-.09-.05-.17-.09-.24-.04-.07-.1-.12-.17-.16-.07-.04-.15-.06-.24-.06-.09,0-.17.02-.25.05-.07.04-.14.1-.19.18v-.2h-.4v1.48h.42ZM136.59,116.63c-.04-.05-.07-.1-.12-.13-.05-.04-.1-.07-.16-.09-.05-.02-.1-.04-.15-.06-.06-.03-.11-.05-.15-.07-.04-.02-.06-.05-.06-.09s.02-.07.05-.08c.04-.01.08-.02.14-.02.07,0,.13.01.19.03.06.02.12.04.18.07l.06-.29c-.07-.04-.15-.07-.22-.08-.08-.02-.16-.02-.24-.02s-.16,0-.23.03c-.07.02-.13.04-.18.08-.05.04-.09.08-.12.14-.03.06-.04.12-.04.2,0,.07.01.13.04.18.03.05.06.09.1.12.04.04.09.07.14.09.06.03.11.05.17.08.07.03.13.06.18.08.04.02.07.06.07.1,0,.05-.02.09-.07.11-.05.02-.1.03-.17.03s-.14,0-.21-.02c-.07-.01-.13-.04-.2-.06l-.06.29c.07.03.15.05.24.07.09.02.17.03.25.03.09,0,.18,0,.25-.03.08-.02.14-.05.2-.09.06-.04.1-.09.13-.15.03-.06.05-.13.05-.21s-.02-.14-.05-.19M139.23,115.61c-.04-.08-.1-.14-.18-.19-.08-.05-.17-.09-.27-.12s-.22-.04-.35-.04h-.6v2.02h.43v-.74h.14l.59.74h.53l-.68-.82c.15-.05.27-.13.35-.23.08-.1.12-.22.12-.36,0-.1-.02-.19-.06-.27M138.74,116.14c-.09.06-.21.08-.35.08h-.13v-.63h.18c.13,0,.24.02.32.07.08.05.12.12.12.23,0,.11-.05.19-.14.25M140.14,115.83c-.09.04-.17.09-.23.16-.06.07-.11.15-.15.25-.03.1-.05.2-.05.32s.02.22.05.31c.03.09.09.17.15.24.07.07.15.12.24.16.1.04.2.05.33.05.1,0,.2,0,.29-.03.09-.02.18-.05.25-.08l-.05-.28c-.06.03-.13.05-.2.06-.08.01-.15.02-.23.02-.14,0-.24-.03-.3-.1-.06-.06-.1-.15-.1-.26h.88s.02-.07.02-.11c0-.04,0-.08,0-.12,0-.1-.01-.18-.04-.26-.03-.08-.07-.14-.11-.2-.05-.06-.11-.1-.19-.13-.07-.03-.16-.05-.26-.05-.11,0-.22.02-.31.05M140.61,116.14c.04.06.05.13.04.23h-.51c0-.09.04-.17.08-.23.05-.06.11-.09.2-.09s.15.03.19.09M141.31,116.13h.24v.65c0,.08,0,.15.03.21.02.07.05.12.09.17.04.05.09.09.15.12.06.03.14.04.23.04.07,0,.13,0,.2-.02.07-.01.12-.03.17-.05l-.03-.29c-.07.02-.15.03-.22.03s-.12-.02-.15-.06c-.02-.04-.04-.1-.04-.16v-.64h.44v-.32h-.44v-.38h-.42v.38h-.24v.32ZM143.22,115.8h-.42v1.48h.42v-1.48ZM142.84,115.54s.1.07.17.07.13-.02.17-.07c.04-.05.07-.1.07-.17s-.02-.12-.07-.17c-.05-.05-.1-.07-.17-.07s-.13.02-.17.07c-.05.05-.07.1-.07.17s.02.12.07.17M144.64,115.8s-.08-.01-.12-.01c-.1,0-.19.02-.25.07-.06.05-.11.12-.13.2v-.26h-.4v1.48h.42v-.93c.04-.06.1-.11.16-.14.07-.03.16-.05.26-.05h.07v-.36ZM145.31,115.83c-.09.04-.17.09-.23.16-.06.07-.11.15-.14.25-.03.1-.05.2-.05.32s.02.22.05.31c.03.09.08.17.15.24.07.07.14.12.24.16.1.04.21.05.33.05.1,0,.2,0,.29-.03.09-.02.18-.05.25-.08l-.05-.28c-.06.03-.12.05-.2.06-.08.01-.15.02-.23.02-.14,0-.24-.03-.3-.1-.06-.06-.1-.15-.1-.26h.88s.02-.07.02-.11c0-.04,0-.08,0-.12,0-.1-.01-.18-.04-.26-.03-.08-.07-.14-.12-.2-.05-.06-.11-.1-.19-.13-.08-.03-.16-.05-.26-.05-.12,0-.22.02-.31.05M145.78,116.14c.04.06.05.13.04.23h-.51c0-.09.03-.17.08-.23.05-.06.11-.09.2-.09s.15.03.19.09M146.97,115.83c-.09.04-.17.09-.23.16-.06.07-.11.15-.14.25-.03.1-.05.2-.05.32s.02.22.05.31c.04.09.08.17.15.24.07.07.15.12.24.16.09.04.2.05.33.05.1,0,.19,0,.29-.03.09-.02.18-.05.25-.08l-.05-.28c-.06.03-.12.05-.2.06-.08.01-.15.02-.23.02-.14,0-.24-.03-.3-.1-.06-.06-.1-.15-.1-.26h.88s.02-.07.02-.11c0-.04,0-.08,0-.12,0-.1-.01-.18-.04-.26-.02-.08-.06-.14-.11-.2-.05-.06-.11-.1-.19-.13-.08-.03-.16-.05-.26-.05-.11,0-.21.02-.3.05M147.44,116.14c.04.06.05.13.04.23h-.51c0-.09.03-.17.08-.23.04-.06.11-.09.2-.09s.15.03.19.09M149.29,116.63c-.04-.05-.08-.1-.12-.13-.05-.04-.1-.07-.16-.09-.06-.02-.11-.04-.15-.06-.06-.03-.11-.05-.15-.07-.04-.02-.06-.05-.06-.09s.02-.07.05-.08c.04-.01.08-.02.14-.02.06,0,.13.01.19.03.06.02.12.04.18.07l.06-.29c-.07-.04-.15-.07-.23-.08-.08-.02-.16-.02-.25-.02-.08,0-.16,0-.23.03-.07.02-.13.04-.18.08-.05.04-.09.08-.12.14-.03.06-.04.12-.04.2,0,.07.01.13.04.18.03.05.06.09.1.12.04.04.09.07.14.09.06.03.11.05.17.08.07.03.13.06.18.08.04.02.07.06.07.1,0,.05-.02.09-.07.11-.05.02-.1.03-.17.03s-.14,0-.21-.02c-.07-.01-.14-.04-.2-.06l-.06.29c.07.03.14.05.24.07.09.02.17.03.25.03.09,0,.18,0,.25-.03.08-.02.14-.05.2-.09.06-.04.1-.09.13-.15.03-.06.05-.13.05-.21s-.02-.14-.05-.19M151.61,115.26h-.46l-.77,2.02h.44l.14-.43h.83l.14.43h.44l-.77-2.02ZM151.68,116.52h-.61l.31-.92.3.92ZM153.73,116.63c-.03-.05-.07-.1-.12-.13-.05-.04-.1-.07-.16-.09-.06-.02-.1-.04-.15-.06-.06-.03-.11-.05-.15-.07-.04-.02-.06-.05-.06-.09s.02-.07.05-.08c.04-.01.08-.02.14-.02.07,0,.13.01.19.03.06.02.12.04.18.07l.06-.29c-.07-.04-.15-.07-.23-.08-.08-.02-.16-.02-.24-.02s-.16,0-.23.03c-.07.02-.13.04-.18.08-.05.04-.09.08-.12.14-.03.06-.04.12-.04.2,0,.07.01.13.04.18.02.05.06.09.1.12.04.04.09.07.14.09.05.03.11.05.17.08.07.03.13.06.18.08.04.02.07.06.07.1,0,.05-.02.09-.07.11-.04.02-.1.03-.17.03s-.14,0-.21-.02c-.07-.01-.13-.04-.2-.06l-.06.29c.07.03.15.05.23.07.09.02.17.03.25.03.09,0,.17,0,.25-.03.08-.02.15-.05.2-.09.06-.04.1-.09.13-.15.03-.06.05-.13.05-.21s-.02-.14-.05-.19M155.16,116.63c-.03-.05-.08-.1-.12-.13-.05-.04-.1-.07-.16-.09-.06-.02-.1-.04-.15-.06-.06-.03-.11-.05-.15-.07-.04-.02-.07-.05-.07-.09s.02-.07.05-.08c.03-.01.08-.02.14-.02.06,0,.13.01.19.03.06.02.12.04.18.07l.06-.29c-.07-.04-.15-.07-.23-.08-.08-.02-.16-.02-.24-.02s-.16,0-.23.03c-.07.02-.13.04-.18.08-.05.04-.09.08-.12.14-.03.06-.05.12-.05.2,0,.07.01.13.04.18.02.05.06.09.1.12.04.04.09.07.15.09.06.03.11.05.17.08.07.03.13.06.18.08.04.02.07.06.07.1,0,.05-.02.09-.07.11-.04.02-.1.03-.17.03s-.14,0-.21-.02c-.07-.01-.14-.04-.2-.06l-.06.29c.07.03.14.05.24.07.09.02.17.03.25.03.09,0,.17,0,.25-.03.08-.02.15-.05.2-.09.06-.04.1-.09.13-.15.03-.06.05-.13.05-.21s-.02-.14-.05-.19M156.99,116.24c-.03-.09-.08-.18-.15-.24-.06-.07-.14-.12-.24-.17-.1-.04-.2-.06-.33-.06s-.23.02-.33.06c-.09.04-.17.1-.24.17-.07.07-.12.15-.15.24-.03.09-.05.19-.05.3s.02.21.05.3c.03.09.08.17.15.24.07.07.14.12.24.16.1.04.2.06.33.06s.23-.02.33-.06c.1-.04.17-.09.24-.16.07-.07.11-.15.15-.24s.05-.19.05-.3-.02-.21-.05-.3M156.61,116.72c-.01.05-.03.1-.06.14-.03.04-.06.08-.11.1-.04.02-.1.04-.16.04s-.12-.01-.16-.04c-.04-.02-.08-.06-.11-.1-.03-.04-.05-.09-.06-.14-.01-.06-.02-.11-.02-.17s0-.12.02-.17c.01-.06.03-.1.06-.15.03-.04.06-.08.11-.1.04-.02.1-.04.16-.04s.12.01.16.04c.05.03.08.06.11.1.03.04.05.09.06.15.01.06.02.11.02.17s0,.12-.02.17M157.8,115.83c-.1.04-.18.09-.24.16-.07.07-.12.15-.15.24-.03.09-.05.2-.05.3s.02.21.05.31c.03.09.08.18.15.24.07.07.15.12.24.16.1.04.21.06.34.06.07,0,.15,0,.23-.02.08-.02.14-.04.2-.07l-.04-.3c-.1.04-.2.06-.32.06-.14,0-.25-.04-.32-.12-.07-.08-.1-.19-.1-.33s.04-.25.1-.33c.07-.08.18-.12.32-.12.11,0,.22.02.32.07l.04-.3c-.05-.03-.12-.05-.2-.06-.08-.01-.15-.02-.23-.02-.13,0-.24.02-.34.06M159.38,115.8h-.42v1.48h.42v-1.48ZM159,115.54s.1.07.17.07.13-.02.17-.07c.05-.05.07-.1.07-.17s-.02-.12-.07-.17c-.04-.05-.1-.07-.17-.07s-.13.02-.17.07c-.05.05-.07.1-.07.17s.02.12.07.17M160.71,117.28h.4v-.87c0-.21-.06-.37-.17-.48-.11-.11-.27-.16-.46-.16-.11,0-.21.01-.3.04-.09.02-.18.05-.25.1l.08.29c.05-.03.11-.05.18-.07.07-.02.14-.03.22-.03.1,0,.17.03.22.07.05.05.07.12.07.22v.05c-.05,0-.11,0-.18,0-.07,0-.13,0-.19,0-.16,0-.28.05-.37.12-.09.07-.14.18-.14.31,0,.06,0,.12.03.17.02.05.05.1.08.13.04.04.08.07.13.09.05.02.11.03.18.03.1,0,.19-.02.27-.05.08-.04.14-.08.2-.13v.16ZM160.27,116.99s-.05-.06-.05-.11c0-.06.02-.09.06-.12.04-.02.08-.04.14-.05.04,0,.09-.01.13-.02.05,0,.09,0,.14-.01v.23s-.08.06-.14.07c-.05.02-.1.03-.16.03-.05,0-.1-.01-.13-.04M161.45,116.13h.24v.65c0,.08,0,.15.03.21.02.07.04.12.08.17.04.05.09.09.15.12.06.03.14.04.23.04.07,0,.13,0,.2-.02.07-.01.12-.03.17-.05l-.03-.29c-.07.02-.14.03-.22.03s-.12-.02-.15-.06c-.02-.04-.04-.1-.04-.16v-.64h.44v-.32h-.44v-.38h-.42v.38h-.24v.32ZM163.35,115.8h-.42v1.48h.42v-1.48ZM162.97,115.54s.1.07.17.07.13-.02.17-.07c.04-.05.07-.1.07-.17s-.02-.12-.07-.17c-.05-.05-.1-.07-.17-.07s-.13.02-.17.07c-.04.05-.07.1-.07.17s.02.12.07.17M165.24,116.24c-.03-.09-.08-.18-.15-.24-.06-.07-.14-.12-.24-.17-.1-.04-.2-.06-.33-.06s-.23.02-.33.06c-.09.04-.17.1-.24.17-.07.07-.12.15-.15.24-.03.09-.05.19-.05.3s.02.21.05.3c.03.09.08.17.15.24.06.07.14.12.24.16.1.04.2.06.33.06s.23-.02.33-.06c.09-.04.17-.09.24-.16.07-.07.12-.15.15-.24.03-.09.05-.19.05-.3s-.02-.21-.05-.3M164.86,116.72c-.01.05-.03.1-.06.14-.03.04-.06.08-.11.1-.04.02-.1.04-.16.04s-.12-.01-.16-.04c-.04-.02-.08-.06-.11-.1-.03-.04-.05-.09-.06-.14-.01-.06-.02-.11-.02-.17s0-.12.02-.17c.01-.06.03-.1.06-.15.03-.04.06-.08.11-.1.04-.02.1-.04.16-.04s.12.01.16.04c.05.03.08.06.11.1.03.04.05.09.06.15.01.06.02.11.02.17s0,.12-.02.17M166.13,117.28v-1.04s.07-.07.11-.1c.05-.03.1-.04.16-.04.1,0,.16.03.21.1.04.07.06.17.06.3v.77h.42v-.77c0-.1,0-.19-.03-.28-.02-.09-.05-.17-.1-.24-.04-.07-.1-.12-.16-.16-.07-.04-.15-.06-.24-.06-.09,0-.17.02-.25.05-.07.04-.14.1-.18.18v-.2h-.4v1.48h.42Z"/>
  <path class="cls-4" d="M129.91,101.12h-2.95l-2.12,4.71-2.12-4.71h-2.95l3.69,7.14v4.07h2.76v-4.07l3.69-7.14ZM138.63,108.37c0,.64-.17,1.13-.5,1.47-.34.34-.83.5-1.48.5s-1.14-.17-1.48-.5-.51-.83-.51-1.47v-7.25h-2.76v7.17c0,1.32.42,2.36,1.25,3.11.84.75,2,1.13,3.49,1.13s2.66-.38,3.49-1.13c.84-.75,1.25-1.79,1.25-3.11v-7.17h-2.76v7.25ZM152.63,103.1c-.25-.44-.59-.81-1.03-1.1-.44-.29-.95-.51-1.55-.65-.6-.15-1.24-.22-1.94-.22h-3.57v11.21h2.76v-3.89h.51l3.08,3.89h3.4l-3.69-4.41c.75-.29,1.34-.72,1.76-1.28.42-.56.63-1.22.63-1.97,0-.61-.12-1.13-.37-1.57M149.72,105.95c-.41.29-.99.44-1.73.44h-.67v-3.15h.79c.71,0,1.26.12,1.65.36.39.24.59.61.59,1.12,0,.53-.21.94-.62,1.23M164.21,112.33h2.85l-4.18-11.21h-3.03l-4.17,11.21h2.84l.69-2.17h4.29l.71,2.17ZM161.37,103.24l1.43,4.73h-2.88l1.45-4.73Z"/>
  <path class="cls-4" d="M197.62,72.82l1.55-4.13h-8.94c.81-1.22,2.73-2.29,4.84-3.48,3.76-2.08,5.22-3.6,5.22-6.78,0-2.82-1.92-5.56-7.02-5.56-5.93,0-7.73,3.65-8.29,6.78h5.31c.43-1.99,1.09-3,2.61-3,1.24,0,1.65.77,1.65,1.66,0,1.82-1.02,2.62-4.13,4.46-5.15,3.06-7.02,5.74-7.79,9.27l-.15.77h15.15ZM208.67,72.82l4.35-19.59h-3.85c-1.02.83-3.04,1.84-5.4,2.08l-.9,3.69c.59.03,2.27,0,3.32-.21l-3.17,14.03h5.65ZM216.4,53.23l-.96,4.19h9.04c-3.57,3.39-8.48,9.9-10.56,15.4h6.21c2.14-5.32,5.93-11.38,10.28-15.75l.84-3.84h-14.84Z"/>
  <path class="cls-4" d="M185.77,50.95l.16-.85h-1.7l.61-3.32h-1.04l-.77,4.17h2.75ZM186.57,50.71c.26.24.61.36,1.04.36s.82-.15,1.13-.45c.31-.3.46-.67.46-1.1,0-.38-.13-.69-.39-.93-.26-.24-.59-.36-1-.36-.46,0-.85.15-1.16.44-.31.3-.47.66-.47,1.09,0,.39.13.7.39.94M188.1,49.08c.09.11.13.26.13.44,0,.24-.06.45-.18.61-.12.17-.26.25-.43.25-.14,0-.25-.06-.34-.17-.09-.12-.14-.26-.14-.45,0-.24.06-.44.18-.61.12-.17.27-.25.43-.25.14,0,.25.05.34.17M192.28,48.54c-.17-.1-.34-.18-.52-.23-.18-.05-.36-.08-.55-.08-.48,0-.88.15-1.19.44-.32.29-.48.66-.48,1.1,0,.38.13.7.4.94.26.24.61.36,1.03.36.16,0,.32-.02.48-.06.16-.04.34-.1.53-.19l-.15-.74c-.13.08-.26.14-.37.17-.12.04-.23.05-.35.05-.19,0-.34-.06-.46-.18-.12-.12-.18-.27-.18-.46s.08-.36.24-.5c.16-.14.36-.21.6-.21.12,0,.25.03.37.08.13.05.26.13.39.24l.21-.76ZM194.41,49.69c-.04.22-.11.39-.22.51-.11.12-.23.18-.38.18-.13,0-.23-.04-.31-.14-.08-.09-.11-.21-.11-.36,0-.28.07-.52.2-.71.13-.19.3-.29.49-.29.09,0,.17.02.24.07.07.05.13.12.17.21l-.09.52ZM194.65,48.36l-.04.26c-.13-.13-.26-.22-.38-.28-.12-.06-.26-.08-.41-.08-.38,0-.7.16-.96.47-.25.31-.38.71-.38,1.18,0,.34.09.62.26.82.17.21.4.31.68.31.14,0,.27-.03.4-.09.13-.06.27-.15.41-.28l-.05.27h.94l.48-2.59h-.94ZM196.74,50.95l.78-4.23h-.96l-.78,4.23h.95Z"/>
  <path class="cls-4" d="M202.56,80.85h3.57v-1.16h-2.24v-1.09h1.89v-1.12h-1.89v-.99h2.2v-1.13h-3.53v5.49ZM198.71,80.85h1.37v-4.34h1.82v-1.15h-5.01v1.15h1.82v4.34ZM194.84,80.85h1.37v-5.49h-1.37v5.49ZM188.54,80.85h1.26v-3l3.58,3.2h.12v-5.7h-1.26v3.02l-3.57-3.2h-.13v5.67ZM183.82,75.36h-1.35v3.16c0,1.64.93,2.51,2.42,2.51s2.41-.88,2.41-2.52v-3.15h-1.22v3.15c0,.88-.41,1.32-1.12,1.32-.75,0-1.13-.48-1.13-1.45v-3.02Z"/>
  <path class="cls-4" d="M224.53,80.87h3.57v-1.16h-2.24v-1.09h1.89v-1.12h-1.89v-.99h2.2v-1.13h-3.53v5.49ZM220.92,76.37c.75,0,1.13.19,1.13.75,0,.49-.36.78-1.06.78h-.29v-1.52h.23ZM219.37,80.87h1.33v-2.16h.19l1.53,2.16h1.56l-1.75-2.36c.7-.3,1.07-.83,1.07-1.52,0-.47-.24-.93-.67-1.23-.49-.34-1.06-.39-1.79-.39h-1.48v5.49ZM214.75,80.87h3.57v-1.16h-2.24v-1.09h1.89v-1.12h-1.89v-.99h2.2v-1.13h-3.53v5.49ZM208.52,80.87h1.35v-2.3h2.21v2.3h1.35v-5.49h-1.35v2.02h-2.21v-2.02h-1.35v5.49Z"/>
  <path class="cls-4" d="M229.04,80.32c0,.34.31.64.67.64s.67-.29.67-.64-.29-.64-.67-.64-.67.29-.67.64M229.48,79.15l.4.05c.36-1.68.65-3,.67-4l-1.57.21c.03,1.13.21,2.37.5,3.74"/>
  <path class="cls-2" d="M86.17,90.29l-.77,19.03,2.2.91,1.88-2.05,1.24,1.2,3.29-3.59-1.04-1.43,7.47-8.16-14.27-5.91ZM89.88,107.73l2.67-2.91.65.83-2.59,2.83-.73-.76Z"/>
  <polygon class="cls-4" points="87.83 106.32 86.69 109.63 87.51 109.99 88.61 106.79 87.83 106.32"/>
  <polygon class="cls-3" points="87.83 106.32 86.69 109.63 87.51 109.99 88.61 106.79 87.83 106.32"/>
  <path class="cls-4" d="M93.21,105.65l-2.6,2.84-.73-.76,2.68-2.91.65.83ZM100.45,96.19l-14.28-5.91-.2,4.84h5.88l-3.79,10.41,1.51.93-.99,2.7.89-.97,1.24,1.21,3.3-3.59-1.04-1.44,7.48-8.16Z"/>
  <path class="cls-1" d="M90.05,107.73l.56.58,2.44-2.66-.5-.64-2.5,2.72ZM90.62,108.67l-.9-.93,2.85-3.11.8,1.03-2.75,3.01ZM89.47,108l1.24,1.21,3.15-3.42-1.04-1.44,7.43-8.11-13.96-5.78-.19,4.54h5.93l-3.81,10.48,1.51.93-.81,2.21.56-.61ZM88.26,109.69l1.16-3.18-1.51-.93,3.76-10.34h-5.83l.21-5.14,14.61,6.05-7.53,8.22,1.04,1.44-3.45,3.76-1.24-1.2-1.22,1.33Z"/>
  <path class="cls-2" d="M76.39,95.12l6.56,17.87h2.38l.95-2.61,1.6.64,1.67-4.57-1.51-.93,3.78-10.4h-15.44ZM86.5,109.82l1.36-3.72.92.52-1.31,3.61-.96-.42Z"/>
  <path class="cls-4" d="M88.78,106.63l-1.31,3.61-.97-.42,1.36-3.72.92.52ZM91.85,95.12h-9.6l.27,6.25,1.75.28.2,4.87-1.72.02.12,2.78-1.1.46,1.19,3.23h2.38l.95-2.61,1.6.64,1.67-4.58-1.51-.93,3.79-10.41Z"/>
  <path class="cls-1" d="M86.66,109.75l.74.32,1.23-3.39-.7-.4-1.27,3.47ZM87.54,110.4l-1.19-.51,1.45-3.96,1.13.65-1.39,3.83ZM83.04,112.88h2.21l.96-2.65,1.6.64,1.59-4.37-1.51-.93,3.76-10.34h-9.3l.26,6.02,1.75.28.22,5.09-1.72.02.12,2.74-1.07.44,1.12,3.04ZM85.43,113.13h-2.55l-1.26-3.42,1.13-.47-.12-2.82,1.73-.02-.2-4.64-1.75-.28-.28-6.48h9.9l-3.81,10.48,1.51.93-1.75,4.79-1.6-.64-.94,2.58Z"/>
  <polygon class="cls-4" points="82.83 105.79 83.63 105.81 83.5 102.27 82.71 102.15 82.83 105.79"/>
  <polygon class="cls-3" points="83.5 102.27 82.71 102.15 82.83 105.79 83.63 105.81 83.5 102.27"/>
  <path class="cls-2" d="M67.77,96.22l12.9,14,2.2-.91-.12-2.78,1.72-.02-.21-4.86-1.75-.28-.48-11.06-14.27,5.91ZM82.72,105.93l-.17-3.95,1.05.13.17,3.84-1.05-.02Z"/>
  <path class="cls-4" d="M70.59,119.73v-3.77h-.57v2.65l-1.74-2.65h-.52v3.77h.57v-2.65l1.74,2.65h.52ZM74.49,119.73v-.51h-1.84v-1.13h1.57v-.51h-1.57v-1.1h1.84v-.51h-2.41v3.77h2.41ZM79.83,115.95h-.6l-.66,2.7-.76-2.7h-.46l-.76,2.7-.66-2.7h-.6l.99,3.77h.5l.76-2.64.77,2.64h.5l.98-3.77ZM85.32,119.73v-3.77h-.57v1.61h-1.53v-1.61h-.57v3.77h.57v-1.65h1.53v1.65h.57ZM89.58,119.73l-1.38-3.77h-.46l-1.38,3.77h.61l.26-.76h1.49l.26.76h.61ZM88.55,118.48h-1.16l.59-1.67.57,1.67ZM92.89,115.95h-.6l-.87,2.75-.87-2.75h-.59l1.24,3.77h.45l1.25-3.77ZM96.32,119.73v-.51h-1.84v-1.13h1.57v-.51h-1.57v-1.1h1.84v-.51h-2.41v3.77h2.41ZM100.44,119.73v-3.77h-.57v2.65l-1.74-2.65h-.52v3.77h.57v-2.65l1.74,2.65h.52Z"/>
  <path class="cls-4" d="M72.89,128.22l-1.52-2.93c.66-.24,1.24-.83,1.24-1.78,0-1.13-.82-2.08-2.2-2.08h-2.66v6.79h1.33v-2.71h.95l1.33,2.71h1.54ZM71.29,123.51c0,.52-.38.9-.96.9h-1.25v-1.79h1.25c.58,0,.96.37.96.9M75.99,121.44h-1.33v6.79h1.33v-6.79ZM82.64,126.22c0-.6-.16-1.1-.52-1.44-.28-.27-.68-.44-1.3-.52l-.8-.12c-.28-.04-.5-.14-.63-.27-.14-.13-.2-.32-.2-.49,0-.47.34-.86,1.05-.86.45,0,.96.06,1.39.47l.84-.83c-.58-.56-1.26-.79-2.19-.79-1.47,0-2.36.85-2.36,2.06,0,.57.16,1.01.49,1.33.3.3.73.48,1.32.56l.82.11c.31.05.47.11.6.24.14.14.21.34.21.57,0,.54-.42.84-1.2.84-.63,0-1.21-.14-1.64-.57l-.86.86c.67.68,1.45.9,2.48.9,1.42,0,2.52-.74,2.52-2.06M85.89,121.44h-1.33v6.79h1.33v-6.79ZM93.35,128.22v-6.79h-1.32v4.16l-2.69-4.16h-1.18v6.79h1.33v-4.17l2.69,4.17h1.18ZM100.45,125.44v-.99h-2.57v1.11h1.25v.26c0,.35-.09.66-.31.91-.22.24-.54.38-.94.38-.36,0-.66-.13-.85-.35-.26-.29-.32-.61-.32-1.92s.07-1.62.32-1.91c.19-.22.49-.36.85-.36.68,0,1.07.35,1.22.99h1.34c-.18-1.15-.98-2.18-2.56-2.18-.76,0-1.35.27-1.83.74-.69.69-.67,1.54-.67,2.71s-.02,2.02.67,2.71c.48.48,1.09.74,1.83.74s1.37-.21,1.92-.77c.48-.5.65-1.09.65-2.07"/>
  <path class="cls-4" d="M67.75,96.22l12.92,14.01,2.2-.91-.12-2.78,1.72-.02-.21-4.87-1.75-.28-.49-11.07-14.28,5.92ZM82.73,105.93l-.17-3.95,1.05.13.17,3.84-1.05-.02Z"/>
  <path class="cls-1" d="M82.84,105.81h.81s-.16-3.6-.16-3.6l-.8-.1.16,3.7ZM83.91,106.08l-1.3-.02-.18-4.21,1.29.16.18,4.07ZM67.96,96.27l12.74,13.82,2.04-.85-.12-2.82,1.73-.02-.2-4.64-1.75-.28-.48-10.99-13.96,5.78ZM80.64,110.38l-13.09-14.2,14.61-6.05.49,11.14,1.75.28.21,5.09-1.72.02.12,2.74-2.36.98Z"/>
</svg>