<?xml version="1.0" encoding="UTF-8"?>
<svg id="Layer_1" data-name="Layer 1" xmlns="http://www.w3.org/2000/svg" xmlns:xlink="http://www.w3.org/1999/xlink" viewBox="0 0 288 288">
  <defs>
    <style>
      .cls-1 {
        fill: none;
      }

      .cls-2 {
        fill: #910000;
      }

      .cls-3 {
        clip-path: url(#clippath);
      }
    </style>
    <clipPath id="clippath">
      <rect class="cls-1" x="14.91" y="88.98" width="255.01" height="87.32"/>
    </clipPath>
  </defs>
  <g class="cls-3">
    <path class="cls-2" d="M264.79,176.1v-5.58c.15-.21.35-.39.59-.54.24-.15.52-.23.85-.23.51,0,.88.19,1.1.56s.34.92.34,1.64v4.15h2.24v-4.14c0-.52-.05-1.03-.16-1.51-.11-.48-.28-.91-.51-1.28-.23-.37-.53-.66-.89-.88-.37-.22-.8-.33-1.32-.33-.48,0-.92.1-1.32.3-.4.2-.74.52-1,.94v-1.08h-2.16v7.97h2.24ZM257.96,173.06c-.07.29-.17.56-.32.79-.15.23-.34.41-.58.55-.24.14-.53.2-.87.2s-.64-.07-.88-.2c-.23-.14-.43-.32-.57-.55-.15-.23-.25-.49-.32-.79-.07-.29-.1-.61-.1-.93s.03-.64.1-.94c.07-.3.17-.56.32-.79.15-.23.34-.41.57-.55.23-.14.53-.2.88-.2s.63.07.87.2c.24.14.43.32.58.55.15.23.25.49.32.79.07.3.1.61.1.94s-.03.64-.1.93M260.03,170.51c-.18-.5-.44-.94-.79-1.32-.35-.38-.78-.67-1.28-.89s-1.09-.33-1.76-.33-1.25.11-1.76.33c-.51.22-.94.52-1.28.89-.35.38-.61.82-.79,1.32-.18.5-.27,1.04-.27,1.62s.09,1.12.27,1.62c.18.5.44.94.79,1.32.35.38.78.67,1.28.88.51.21,1.09.32,1.76.32s1.25-.11,1.76-.32c.51-.21.94-.51,1.28-.88s.61-.82.79-1.32.27-1.04.27-1.62-.09-1.12-.27-1.62M247.77,166.72c.24.26.55.38.93.38s.7-.13.94-.38c.25-.26.37-.56.37-.91s-.12-.66-.37-.92c-.25-.25-.56-.38-.94-.38s-.69.13-.93.38c-.24.25-.36.56-.36.92s.12.65.36.91M249.83,168.14h-2.24v7.97h2.24v-7.97ZM239.56,169.89h1.29v3.48c0,.41.05.8.15,1.15.1.35.25.65.47.92.21.26.49.47.82.61.33.15.74.22,1.22.22.36,0,.72-.03,1.08-.1.36-.07.66-.15.9-.25l-.16-1.59c-.38.12-.78.18-1.21.18-.4,0-.67-.11-.81-.33-.14-.22-.2-.51-.2-.88v-3.42h2.39v-1.75h-2.39v-2.06h-2.24v2.06h-1.29v1.75ZM233.23,174.55c-.17-.13-.25-.33-.25-.59,0-.29.1-.5.29-.63.2-.13.46-.21.78-.27.22-.03.46-.06.72-.08.26-.02.51-.04.74-.07v1.26c-.21.16-.45.3-.72.41-.27.11-.57.16-.88.16-.28,0-.51-.07-.68-.2M235.6,176.1h2.16v-4.69c0-1.13-.3-1.99-.91-2.57-.61-.58-1.44-.87-2.49-.87-.58,0-1.12.06-1.62.19-.5.13-.96.31-1.37.55l.44,1.57c.28-.15.61-.28.98-.38.37-.1.76-.15,1.18-.15.53,0,.93.13,1.18.4.25.27.38.66.38,1.17v.28c-.28.01-.6.02-.95.03-.35.01-.69.03-1.01.05-.85.05-1.52.27-2.01.65-.49.38-.74.94-.74,1.67,0,.33.05.63.16.9.11.27.26.51.46.71.2.2.44.36.72.47.28.11.6.17.95.17.54,0,1.02-.1,1.44-.29.41-.2.77-.44,1.06-.72v.85ZM226.37,166.72c.24.26.55.38.93.38s.7-.13.94-.38c.25-.26.37-.56.37-.91s-.12-.66-.37-.92c-.25-.25-.56-.38-.94-.38s-.69.13-.93.38c-.24.25-.36.56-.36.92s.12.65.36.91M228.43,168.14h-2.24v7.97h2.24v-7.97ZM219.91,168.29c-.52.21-.96.5-1.32.87-.35.37-.62.8-.8,1.31-.18.51-.27,1.05-.27,1.64s.09,1.14.27,1.64c.18.51.45.95.8,1.32.35.37.79.66,1.32.88.52.21,1.13.32,1.82.32.39,0,.8-.04,1.22-.12.42-.08.77-.2,1.05-.35l-.25-1.6c-.51.23-1.08.34-1.7.34-.79,0-1.36-.22-1.73-.65-.37-.44-.56-1.02-.56-1.77s.19-1.33.56-1.76.95-.65,1.73-.65c.62,0,1.19.11,1.7.34l.25-1.6c-.28-.15-.64-.27-1.05-.35-.42-.08-.83-.12-1.22-.12-.69,0-1.29.11-1.82.32M213.48,173.06c-.07.29-.17.56-.32.79-.15.23-.34.41-.58.55-.24.14-.53.2-.87.2s-.64-.07-.88-.2c-.23-.14-.43-.32-.57-.55-.15-.23-.25-.49-.32-.79-.07-.29-.1-.61-.1-.93s.03-.64.1-.94c.07-.3.17-.56.32-.79.15-.23.34-.41.57-.55.23-.14.53-.2.88-.2s.63.07.87.2c.24.14.43.32.58.55.15.23.25.49.32.79.07.3.1.61.1.94s-.03.64-.1.93M215.55,170.51c-.18-.5-.44-.94-.79-1.32-.35-.38-.78-.67-1.28-.89s-1.09-.33-1.76-.33-1.25.11-1.76.33c-.51.22-.94.52-1.28.89-.35.38-.61.82-.79,1.32-.18.5-.27,1.04-.27,1.62s.09,1.12.27,1.62.44.94.79,1.32c.35.38.78.67,1.28.88.51.21,1.09.32,1.76.32s1.25-.11,1.76-.32c.51-.21.94-.51,1.28-.88.35-.38.61-.82.79-1.32.18-.5.27-1.04.27-1.62s-.09-1.12-.27-1.62M205.68,172.59c-.19-.28-.41-.51-.67-.71-.26-.2-.54-.36-.84-.48-.3-.12-.56-.24-.79-.33-.32-.14-.59-.27-.82-.38-.23-.11-.34-.27-.34-.49,0-.23.1-.38.29-.45.19-.07.44-.11.76-.11.35,0,.7.05,1.04.14.34.09.67.21.99.35l.34-1.6c-.39-.21-.8-.36-1.22-.44-.42-.08-.86-.12-1.32-.12s-.84.05-1.22.15-.7.25-.98.44c-.28.2-.5.45-.65.75-.16.31-.24.67-.24,1.08,0,.38.07.7.2.96.14.26.32.48.54.67.22.19.48.35.78.49.29.14.6.27.92.4.39.16.71.3.95.42.24.11.36.3.36.55,0,.28-.12.48-.37.59-.25.11-.55.16-.92.16s-.76-.04-1.13-.12c-.37-.08-.73-.19-1.08-.34l-.33,1.59c.36.15.78.28,1.27.37.49.09.94.14,1.35.14.49,0,.94-.06,1.36-.17.41-.11.77-.28,1.08-.51.31-.22.54-.5.72-.83.17-.33.26-.71.26-1.13s-.09-.76-.28-1.04M197.98,172.59c-.19-.28-.41-.51-.67-.71-.26-.2-.54-.36-.84-.48-.3-.12-.56-.24-.79-.33-.32-.14-.59-.27-.82-.38-.23-.11-.34-.27-.34-.49,0-.23.09-.38.29-.45.19-.07.44-.11.76-.11.35,0,.7.05,1.04.14.34.09.67.21.99.35l.34-1.6c-.39-.21-.8-.36-1.22-.44-.42-.08-.86-.12-1.32-.12s-.84.05-1.22.15c-.38.1-.7.25-.98.44-.28.2-.5.45-.65.75-.16.31-.24.67-.24,1.08,0,.38.07.7.2.96.14.26.32.48.54.67.22.19.48.35.78.49.29.14.6.27.92.4.39.16.71.3.95.42.24.11.36.3.36.55,0,.28-.12.48-.37.59-.25.11-.55.16-.92.16s-.76-.04-1.13-.12c-.37-.08-.73-.19-1.08-.34l-.33,1.59c.36.15.78.28,1.27.37.48.09.93.14,1.35.14.49,0,.94-.06,1.36-.17.41-.11.77-.28,1.08-.51.31-.22.54-.5.72-.83.17-.33.26-.71.26-1.13s-.09-.76-.28-1.04M186.92,172h-3.27l1.64-4.96,1.64,4.96ZM186.53,165.21h-2.49l-4.14,10.89h2.37l.77-2.29h4.48l.77,2.29h2.37l-4.14-10.89ZM174.03,172.59c-.19-.28-.41-.51-.67-.71-.26-.2-.54-.36-.84-.48-.3-.12-.56-.24-.79-.33-.32-.14-.59-.27-.82-.38-.23-.11-.34-.27-.34-.49,0-.23.1-.38.29-.45.19-.07.44-.11.76-.11.35,0,.7.05,1.04.14.34.09.67.21.99.35l.34-1.6c-.39-.21-.8-.36-1.22-.44-.42-.08-.86-.12-1.32-.12s-.84.05-1.22.15c-.38.1-.7.25-.98.44-.28.2-.5.45-.65.75-.16.31-.24.67-.24,1.08,0,.38.07.7.2.96.14.26.32.48.54.67.22.19.48.35.78.49.29.14.6.27.92.4.39.16.71.3.95.42.24.11.36.3.36.55,0,.28-.12.48-.37.59-.25.11-.55.16-.92.16s-.76-.04-1.13-.12c-.37-.08-.73-.19-1.08-.34l-.33,1.59c.36.15.78.28,1.27.37.49.09.94.14,1.35.14.49,0,.94-.06,1.36-.17.41-.11.77-.28,1.08-.51.31-.22.54-.5.72-.83.17-.33.26-.71.26-1.13s-.09-.76-.28-1.04M164.04,169.94c.21.31.28.72.23,1.23h-2.73c.04-.49.19-.9.43-1.22.25-.32.6-.48,1.05-.48s.81.16,1.01.47M161.51,168.28c-.49.2-.9.49-1.23.85-.34.37-.6.81-.78,1.32-.18.52-.27,1.09-.27,1.71s.09,1.17.28,1.68c.19.51.46.94.81,1.3.35.36.79.64,1.3.83.51.2,1.1.29,1.77.29.53,0,1.05-.05,1.55-.16.5-.1.95-.25,1.34-.45l-.28-1.52c-.32.15-.68.26-1.08.34-.4.08-.82.12-1.24.12-.74,0-1.28-.17-1.62-.52s-.52-.81-.54-1.39h4.73c.05-.19.1-.39.12-.61.03-.22.04-.44.04-.66,0-.52-.07-1-.21-1.41-.14-.42-.35-.78-.62-1.08s-.61-.53-1.02-.7c-.41-.16-.88-.25-1.4-.25-.61,0-1.16.1-1.64.3M155.09,169.94c.21.31.28.72.23,1.23h-2.73c.04-.49.19-.9.43-1.22.25-.32.6-.48,1.05-.48s.81.16,1.01.47M152.57,168.28c-.49.2-.9.49-1.23.85-.34.37-.6.81-.78,1.32-.18.52-.27,1.09-.27,1.71s.09,1.17.28,1.68c.19.51.46.94.81,1.3.35.36.79.64,1.3.83.51.2,1.1.29,1.77.29.53,0,1.05-.05,1.55-.16.5-.1.95-.25,1.34-.45l-.28-1.52c-.32.15-.68.26-1.08.34-.4.08-.82.12-1.24.12-.74,0-1.28-.17-1.62-.52-.34-.35-.52-.81-.54-1.39h4.73c.05-.19.1-.39.12-.61.03-.22.04-.44.04-.66,0-.52-.07-1-.21-1.41s-.35-.78-.62-1.08c-.27-.3-.61-.53-1.02-.7-.41-.16-.88-.25-1.4-.25-.61,0-1.16.1-1.64.3M148.98,168.14c-.2-.05-.42-.08-.67-.08-.56,0-1,.13-1.33.39-.33.26-.58.63-.73,1.1v-1.41h-2.16v7.97h2.24v-5.04c.22-.33.51-.58.88-.75.37-.17.83-.26,1.39-.26h.38v-1.91ZM139.24,166.72c.24.26.55.38.93.38s.7-.13.94-.38c.25-.26.37-.56.37-.91s-.12-.66-.37-.92c-.25-.25-.56-.38-.94-.38s-.69.13-.93.38c-.24.25-.36.56-.36.92s.12.65.36.91M141.3,168.14h-2.24v7.97h2.24v-7.97ZM131.03,169.89h1.29v3.48c0,.41.05.8.15,1.15.1.35.25.65.47.92.21.26.48.47.82.61.33.15.74.22,1.22.22.36,0,.72-.03,1.08-.1.36-.07.66-.15.9-.25l-.16-1.59c-.38.12-.78.18-1.21.18-.4,0-.67-.11-.81-.33-.14-.22-.2-.51-.2-.88v-3.42h2.39v-1.75h-2.39v-2.06h-2.24v2.06h-1.29v1.75ZM127.22,169.94c.21.31.28.72.23,1.23h-2.73c.04-.49.19-.9.43-1.22.25-.32.6-.48,1.05-.48s.81.16,1.01.47M124.69,168.28c-.49.2-.9.49-1.23.85-.34.37-.6.81-.78,1.32-.18.52-.27,1.09-.27,1.71s.09,1.17.28,1.68c.19.51.46.94.81,1.3.35.36.79.64,1.3.83.51.2,1.1.29,1.77.29.53,0,1.05-.05,1.55-.16.5-.1.95-.25,1.34-.45l-.28-1.52c-.32.15-.68.26-1.08.34-.4.08-.82.12-1.24.12-.74,0-1.28-.17-1.62-.52s-.52-.81-.54-1.39h4.73c.05-.19.1-.39.12-.61.03-.22.04-.44.04-.66,0-.52-.07-1-.21-1.41s-.35-.78-.62-1.08c-.27-.3-.61-.53-1.02-.7-.41-.16-.88-.25-1.4-.25-.61,0-1.16.1-1.64.3M117.15,169.93c-.48.31-1.11.46-1.9.46h-.69v-3.4h.95c.7,0,1.26.13,1.7.38.44.25.65.65.65,1.21,0,.6-.24,1.05-.72,1.36M119.81,167.07c-.23-.41-.55-.76-.96-1.04-.41-.28-.9-.48-1.46-.62-.57-.14-1.19-.2-1.86-.2h-3.25v10.89h2.29v-3.97h.74l3.16,3.97h2.85l-3.68-4.4c.82-.28,1.44-.69,1.88-1.22.44-.53.65-1.18.65-1.95,0-.56-.11-1.04-.34-1.46M105.57,172.59c-.19-.28-.41-.51-.67-.71-.26-.2-.54-.36-.84-.48-.3-.12-.56-.24-.79-.33-.32-.14-.59-.27-.82-.38-.23-.11-.34-.27-.34-.49,0-.23.1-.38.29-.45.19-.07.44-.11.76-.11.35,0,.7.05,1.04.14.34.09.67.21.99.35l.34-1.6c-.39-.21-.8-.36-1.22-.44-.42-.08-.86-.12-1.32-.12s-.84.05-1.22.15-.7.25-.98.44c-.28.2-.5.45-.65.75-.16.31-.24.67-.24,1.08,0,.38.07.7.2.96.14.26.32.48.54.67.22.19.48.35.78.49.29.14.6.27.92.4.39.16.71.3.95.42.24.11.36.3.36.55,0,.28-.12.48-.37.59-.25.11-.55.16-.92.16s-.76-.04-1.13-.12c-.37-.08-.73-.19-1.08-.34l-.33,1.59c.36.15.78.28,1.27.37.48.09.94.14,1.35.14.49,0,.94-.06,1.36-.17.41-.11.77-.28,1.08-.51.31-.22.54-.5.72-.83.17-.33.26-.71.26-1.13s-.09-.76-.28-1.04M92.46,176.1v-5.58c.15-.21.35-.39.59-.54.24-.15.52-.23.85-.23.51,0,.88.19,1.1.56.22.37.34.92.34,1.64v4.15h2.24v-4.14c0-.52-.05-1.03-.16-1.51-.11-.48-.28-.91-.51-1.28-.23-.37-.53-.66-.89-.88-.37-.22-.8-.33-1.32-.33-.48,0-.92.1-1.33.3-.4.2-.74.52-1,.94v-1.08h-2.16v7.97h2.24ZM85.63,173.06c-.07.29-.17.56-.32.79-.15.23-.34.41-.58.55-.24.14-.53.2-.87.2s-.64-.07-.88-.2c-.23-.14-.43-.32-.57-.55-.15-.23-.25-.49-.32-.79-.07-.29-.1-.61-.1-.93s.03-.64.1-.94c.07-.3.17-.56.32-.79.15-.23.34-.41.57-.55.23-.14.53-.2.88-.2s.63.07.87.2c.24.14.43.32.58.55.15.23.25.49.32.79.07.3.1.61.1.94s-.03.64-.1.93M87.7,170.51c-.18-.5-.44-.94-.79-1.32-.35-.38-.78-.67-1.28-.89-.51-.22-1.09-.33-1.76-.33s-1.25.11-1.76.33c-.51.22-.94.52-1.28.89-.35.38-.61.82-.79,1.32-.18.5-.27,1.04-.27,1.62s.09,1.12.27,1.62.44.94.79,1.32c.35.38.78.67,1.28.88.51.21,1.09.32,1.76.32s1.25-.11,1.76-.32c.51-.21.94-.51,1.28-.88s.61-.82.79-1.32c.18-.5.27-1.04.27-1.62s-.09-1.12-.27-1.62M75.44,166.72c.24.26.55.38.93.38s.7-.13.94-.38c.25-.26.37-.56.37-.91s-.12-.66-.37-.92c-.25-.25-.56-.38-.94-.38s-.69.13-.93.38c-.24.25-.36.56-.36.92s.12.65.36.91M77.5,168.14h-2.24v7.97h2.24v-7.97ZM67.44,176.1v-5.58c.15-.21.35-.39.59-.54.24-.15.52-.23.85-.23.51,0,.88.19,1.1.56s.34.92.34,1.64v4.15h2.24v-4.14c0-.52-.05-1.03-.16-1.51-.11-.48-.28-.91-.51-1.28-.23-.37-.53-.66-.89-.88-.37-.22-.8-.33-1.32-.33-.48,0-.92.1-1.33.3-.4.2-.74.52-1,.94v-1.08h-2.16v7.97h2.24ZM60.08,172.29c0,.69-.19,1.23-.56,1.61-.37.39-.92.58-1.65.58s-1.28-.19-1.65-.58c-.37-.39-.56-.93-.56-1.61v-7.08h-2.29v6.97c0,.62.1,1.19.31,1.69.21.51.5.94.88,1.3.38.36.85.64,1.41.83.56.2,1.19.29,1.9.29s1.33-.1,1.89-.29c.56-.2,1.03-.47,1.41-.83.38-.36.68-.79.88-1.3.21-.51.31-1.07.31-1.69v-6.97h-2.29v7.08ZM44.49,169.94c.21.31.28.72.23,1.23h-2.73c.04-.49.19-.9.43-1.22.25-.32.6-.48,1.05-.48s.81.16,1.01.47M41.96,168.28c-.48.2-.9.49-1.23.85-.34.37-.6.81-.78,1.32-.18.52-.27,1.09-.27,1.71s.09,1.17.28,1.68c.19.51.46.94.81,1.3.35.36.79.64,1.3.83.51.2,1.1.29,1.77.29.53,0,1.05-.05,1.55-.16.5-.1.95-.25,1.34-.45l-.28-1.52c-.32.15-.68.26-1.08.34-.4.08-.82.12-1.24.12-.74,0-1.28-.17-1.62-.52-.34-.35-.52-.81-.54-1.39h4.73c.05-.19.1-.39.12-.61.03-.22.04-.44.04-.66,0-.52-.07-1-.21-1.41-.14-.42-.35-.78-.62-1.08-.27-.3-.61-.53-1.02-.7-.41-.16-.88-.25-1.4-.25-.61,0-1.16.1-1.64.3M36.87,164.55h-2.24v9.45c0,.28.03.56.11.83.07.27.19.51.36.72s.39.38.66.51c.27.13.61.19,1.01.19.26,0,.53-.02.8-.06.27-.04.5-.08.69-.14l-.08-1.57c-.1.02-.2.04-.31.05-.11.01-.21.02-.31.02-.25,0-.43-.06-.53-.19-.1-.13-.16-.31-.16-.56v-9.24ZM27.52,174.55c-.17-.13-.25-.33-.25-.59,0-.29.1-.5.29-.63.2-.13.46-.21.79-.27.22-.03.46-.06.72-.08.26-.02.51-.04.74-.07v1.26c-.21.16-.45.3-.72.41-.27.11-.57.16-.88.16-.28,0-.51-.07-.68-.2M29.89,176.1h2.16v-4.69c0-1.13-.3-1.99-.91-2.57-.6-.58-1.44-.87-2.49-.87-.58,0-1.12.06-1.62.19-.5.13-.96.31-1.37.55l.44,1.57c.28-.15.61-.28.98-.38s.76-.15,1.18-.15c.53,0,.93.13,1.18.4.25.27.38.66.38,1.17v.28c-.28.01-.6.02-.95.03-.35.01-.69.03-1.01.05-.85.05-1.52.27-2.01.65-.49.38-.74.94-.74,1.67,0,.33.05.63.16.9.11.27.26.51.46.71.2.2.44.36.72.47.28.11.6.17.95.17.54,0,1.02-.1,1.44-.29.41-.2.77-.44,1.06-.72v.85ZM20.1,170l-2.24-4.79h-2.5l3.6,6.82v4.07h2.29v-4.07l3.6-6.82h-2.5l-2.24,4.79Z"/>
    <path class="cls-2" d="M239.13,100.41l7.71,25.5h-15.52l7.8-25.5ZM254.47,149.42h15.34l-22.5-60.44h-16.33l-22.5,60.44h15.34l3.72-11.71h23.14l3.81,11.71ZM176.34,115.02c-2.24,1.57-5.35,2.36-9.35,2.36h-3.63v-16.97h4.27c3.81,0,6.77.65,8.89,1.95,2.12,1.3,3.18,3.31,3.18,6.03s-1.12,5.05-3.36,6.62M192.04,99.64c-1.33-2.39-3.18-4.37-5.54-5.94-2.36-1.57-5.14-2.75-8.35-3.54-3.21-.79-6.68-1.18-10.44-1.18h-19.24v60.44h14.88v-20.96h2.72l16.61,20.96h18.33l-19.87-23.78c4.05-1.57,7.21-3.87,9.48-6.9,2.27-3.02,3.4-6.56,3.4-10.62,0-3.27-.67-6.09-2-8.48M116.54,128.09c0,3.45-.91,6.08-2.72,7.89-1.81,1.81-4.48,2.72-7.99,2.72s-6.17-.91-7.99-2.72-2.72-4.45-2.72-7.89v-39.11h-14.88v38.66c0,7.14,2.25,12.74,6.76,16.79,4.51,4.05,10.78,6.08,18.83,6.08s14.32-2.03,18.83-6.08c4.51-4.05,6.76-9.65,6.76-16.79v-38.66h-14.88v39.11ZM69.54,88.98h-15.88l-11.43,25.41-11.43-25.41h-15.88l19.87,38.48v21.96h14.88v-21.96l19.87-38.48Z"/>
  </g>
</svg>
