<?xml version="1.0" encoding="UTF-8"?>
<svg id="Layer_1" data-name="Layer 1" xmlns="http://www.w3.org/2000/svg" viewBox="0 0 720 720">
  <defs>
    <style>
      .cls-1 {
        fill: #fff;
      }
    </style>
  </defs>
  <path class="cls-1" d="M114.34,620.66h-14.48v35.3c0,18.3,9.97,28.09,25.84,28.09s25.75-9.89,25.75-28.18v-35.21h-13.1v35.21c0,9.81-4.34,14.75-11.97,14.75-8.06,0-12.05-5.38-12.05-16.22v-33.73ZM164.9,682.05h13.53v-33.47l38.33,35.81h1.3v-63.74h-13.53v33.82l-38.24-35.82h-1.39v63.39ZM232.28,682.05h14.65v-61.4h-14.65v61.4ZM273.73,682.05h14.65v-48.56h19.42v-12.83h-53.59v12.83h19.52v48.56ZM314.84,682.05h38.15v-12.92h-23.93v-12.14h20.21v-12.57h-20.21v-11.1h23.59v-12.66h-37.81v61.4Z"/>
  <path class="cls-1" d="M383.96,682.16h14.52v-25.82h23.74v25.82h14.43v-61.56h-14.43v22.61h-23.74v-22.61h-14.52v61.56ZM450.83,682.16h38.26v-12.95h-24v-12.18h20.26v-12.61h-20.26v-11.13h23.65v-12.69h-37.91v61.56ZM500.3,682.16h14.26v-24.17h2.09l16.43,24.17h16.78l-18.78-26.43c7.47-3.3,11.48-9.31,11.48-17.05,0-5.3-2.61-10.43-7.22-13.74-5.3-3.82-11.39-4.35-19.21-4.35h-15.83v61.56ZM516.99,631.81c8.09,0,12.08,2.18,12.08,8.35,0,5.57-3.91,8.7-11.39,8.7h-3.13v-17.05h2.43ZM555.69,682.16h38.26v-12.95h-24v-12.18h20.26v-12.61h-20.26v-11.13h23.65v-12.69h-37.91v61.56Z"/>
  <path class="cls-1" d="M608.79,662.92l4.26.61c3.91-18.78,7.04-33.56,7.13-44.87l-16.78,2.35c.35,12.7,2.26,26.61,5.39,41.91M604.1,676.05c0,3.82,3.3,7.22,7.22,7.22s7.21-3.3,7.21-7.22-3.13-7.22-7.21-7.22-7.22,3.22-7.22,7.22"/>
  <path class="cls-1" d="M359.76,531.55c126.06.07,229.87-103.03,230.58-227.79.73-127.4-100.5-231.42-227.78-232.88-126.78-1.45-232.05,99.65-232.84,228.61-.79,128.47,102.4,231.98,230.04,232.05M359.95,566.02c-146.2.05-265.07-118.61-265.09-264.62-.02-147.61,118.56-265.36,267.27-265.4,143.35-.03,263.09,119.89,263.01,263.42-.08,147.87-118.13,266.54-265.19,266.59"/>
  <path class="cls-1" d="M417.58,454h81.6v-21.74h-23.72v-31.9h30.21v-21.18h-30.21v-45.46l-25.69,10.45v35.29h-54.49l81.32-102.49-18.64-14.4-99.1,125.93,5.65,11.58h85.27v32.75h-32.19v21.18ZM276.97,434.51c-14.4,0-28.8-3.95-35.86-10.73,3.39-2.54,5.65-7.06,5.65-11.86,0-9.03-7.34-16.38-16.66-16.38-10.16,0-17.22,8.75-17.22,19.48,0,6.21,2.26,12.14,6.21,17.51,10.45,14.12,32.75,24.28,57.6,24.28,37.83,0,67.48-21.18,67.48-52.52,0-19.2-11.29-33.03-26.54-40.94-5.36-2.82-11.58-5.08-17.51-6.49,5.93-1.13,12.14-3.67,17.22-6.78,13.55-7.91,22.59-21.46,22.59-36.99,0-28.52-27.11-47.72-61.27-47.72-27.39,0-45.18,10.73-53.65,22.59-3.95,5.65-5.93,11.29-5.93,16.38,0,12.14,8.47,20.05,17.22,20.05,9.32,0,16.66-7.62,16.66-16.38,0-4.8-2.54-9.04-5.65-11.58,5.65-5.08,15.81-8.75,30.21-8.75,20.05,0,36.14,8.75,36.14,25.98,0,11.01-5.93,20.05-16.09,25.69-8.19,4.8-18.92,7.34-31.34,7.34h-10.45v22.59h9.6c12.99,0,23.72,1.98,32.19,5.65,13.55,5.65,20.61,15.53,20.61,28.52,0,17.51-17.5,31.06-41.22,31.06"/>
  <path class="cls-1" d="M487.31,229.57c6.8,0,12.76-3.1,16.34-15.38l-5.25-2.03c-2.62,7.27-4.89,8.59-7.04,8.59-1.91,0-2.74-1.07-2.74-3.7,0-1.31.36-2.98.84-5.13l16.34-70.6h-22.66l-2.86,10.97h9.78l-13.83,59.75c-.48,2.03-.72,3.94-.72,5.72,0,7.16,3.7,11.81,11.81,11.81M425.89,218.48c-6.32,0-9.42-4.89-9.42-11.09,0-10.61,7.04-20.39,15.74-20.39,6.92,0,10.26,4.29,10.26,11.09,0,11.21-7.87,20.39-16.58,20.39M419.69,229.57c8.11,0,14.43-5.37,18.72-11.81,0,7.16,3.94,11.81,10.73,11.81,5.72,0,12.4-3.1,15.98-15.38l-5.25-2.03c-2.62,7.27-5.13,8.59-6.68,8.59-1.79,0-2.62-1.07-2.62-3.22,0-1.31.36-3.34.95-5.6l8.94-35.54h-12.16l-3.58,10.73c-2.15-5.96-7.75-11.69-14.67-11.69-15.15,0-27.19,15.86-27.19,33.87,0,12.16,7.04,20.27,16.82,20.27M371.63,229.57c7.04,0,13.48-1.79,18.37-5.13l.12-11.57c-5.37,3.7-11.57,5.84-17.65,5.84-7.63,0-13.71-5.01-13.71-13.83,0-13.24,9.9-18.6,17.53-18.6,2.38,0,4.65.48,6.2,1.55-1.07,1.43-1.79,3.1-1.79,5.01,0,4.17,3.34,7.51,7.51,7.51,5.01,0,7.99-4.29,7.99-9.42,0-9.18-9.06-15.5-19.56-15.5-16.82,0-31.13,13.48-31.13,30.41,0,14.91,11.45,23.73,26.12,23.73M308.3,218.72c-6.44,0-11.81-4.41-11.81-12.88,0-11.21,7.16-19.56,15.86-19.56,6.44,0,11.81,4.41,11.81,12.88,0,11.21-7.15,19.56-15.86,19.56M307.82,229.57c17.29,0,29.58-14.79,29.58-30.41,0-12.64-8.83-23.73-24.57-23.73-17.29,0-29.58,14.79-29.58,30.41,0,12.64,8.83,23.73,24.57,23.73M214.56,228.61h56.05l5.37-23.02h-13l-2.62,11.09h-21.23l12.64-54.5h10.02l2.74-12.04h-33.03l-2.74,12.04h9.54l-12.64,54.38h-8.35l-2.74,12.05Z"/>
</svg>