<?xml version="1.0" encoding="UTF-8"?>
<svg id="Layer_1" data-name="Layer 1" xmlns="http://www.w3.org/2000/svg" xmlns:xlink="http://www.w3.org/1999/xlink" viewBox="0 0 720 720">
  <defs>
    <style>
      .cls-1 {
        fill: none;
      }

      .cls-2 {
        fill: #c0042f;
      }

      .cls-3 {
        clip-path: url(#clippath);
      }
    </style>
    <clipPath id="clippath">
      <rect class="cls-1" x="94.86" y="614.68" width="530.28" height="69.32"/>
    </clipPath>
  </defs>
  <g class="cls-3">
    <path d="M110.22,616.79h-15.36v37.44c0,19.41,10.58,29.79,27.41,29.79s27.32-10.49,27.32-29.89v-37.34h-13.89v37.34c0,10.4-4.6,15.64-12.69,15.64-8.55,0-12.78-5.7-12.78-17.2v-35.78ZM163.84,681.91h14.35v-35.5l40.65,37.99h1.38v-67.6h-14.35v35.87l-40.56-37.99h-1.47v67.24ZM235.3,681.91h15.54v-65.12h-15.54v65.12ZM279.27,681.91h15.54v-51.51h20.6v-13.61h-56.84v13.61h20.7v51.51ZM322.86,681.91h40.47v-13.7h-25.39v-12.88h21.43v-13.33h-21.43v-11.78h25.02v-13.43h-40.1v65.12Z"/>
    <path class="cls-2" d="M375.32,682.1h15.36v-27.32h25.11v27.32h15.27v-65.12h-15.27v23.92h-25.11v-23.92h-15.36v65.12ZM446.04,682.1h40.47v-13.7h-25.39v-12.88h21.43v-13.33h-21.43v-11.77h25.02v-13.43h-40.1v65.12ZM498.38,682.1h15.08v-25.57h2.21l17.38,25.57h17.75l-19.86-27.96c7.91-3.5,12.14-9.84,12.14-18.03,0-5.61-2.76-11.04-7.64-14.53-5.61-4.05-12.05-4.6-20.32-4.6h-16.74v65.12ZM516.03,628.84c8.55,0,12.78,2.3,12.78,8.83,0,5.89-4.14,9.2-12.05,9.2h-3.31v-18.03h2.58ZM556.96,682.1h40.47v-13.7h-25.39v-12.88h21.43v-13.33h-21.43v-11.77h25.02v-13.43h-40.1v65.12Z"/>
    <path d="M613.14,661.74l4.51.65c4.14-19.86,7.44-35.5,7.54-47.46l-17.75,2.49c.37,13.43,2.39,28.15,5.7,44.33M608.17,675.63c0,4.04,3.49,7.63,7.64,7.63s7.63-3.49,7.63-7.63-3.31-7.63-7.63-7.63-7.64,3.4-7.64,7.63"/>
  </g>
  <path class="cls-2" d="M359.76,531.55c126.06.07,229.87-103.03,230.58-227.79.73-127.4-100.5-231.42-227.78-232.88-126.78-1.45-232.05,99.65-232.84,228.61-.79,128.47,102.4,231.98,230.04,232.05M359.95,566.02c-146.2.05-265.07-118.61-265.09-264.62-.02-147.61,118.56-265.36,267.27-265.4,143.35-.03,263.09,119.89,263.01,263.42-.08,147.87-118.13,266.54-265.19,266.59"/>
  <path class="cls-2" d="M417.58,454h81.6v-21.74h-23.72v-31.9h30.21v-21.18h-30.21v-45.46l-25.69,10.45v35.29h-54.49l81.32-102.49-18.64-14.4-99.1,125.93,5.65,11.58h85.27v32.75h-32.19v21.18ZM276.98,434.51c-14.4,0-28.8-3.95-35.86-10.73,3.39-2.54,5.65-7.06,5.65-11.86,0-9.03-7.34-16.38-16.66-16.38-10.16,0-17.22,8.75-17.22,19.48,0,6.21,2.26,12.14,6.21,17.51,10.45,14.12,32.75,24.28,57.6,24.28,37.83,0,67.48-21.18,67.48-52.52,0-19.2-11.29-33.03-26.54-40.94-5.36-2.82-11.58-5.08-17.51-6.49,5.93-1.13,12.14-3.67,17.22-6.78,13.55-7.91,22.59-21.46,22.59-36.99,0-28.52-27.11-47.72-61.27-47.72-27.39,0-45.18,10.73-53.65,22.59-3.95,5.65-5.93,11.29-5.93,16.38,0,12.14,8.47,20.05,17.22,20.05,9.32,0,16.66-7.62,16.66-16.38,0-4.8-2.54-9.04-5.65-11.58,5.65-5.08,15.81-8.75,30.21-8.75,20.05,0,36.14,8.75,36.14,25.98,0,11.01-5.93,20.05-16.09,25.69-8.19,4.8-18.92,7.34-31.34,7.34h-10.45v22.59h9.6c12.99,0,23.72,1.98,32.19,5.65,13.55,5.65,20.61,15.53,20.61,28.52,0,17.51-17.5,31.06-41.22,31.06"/>
  <path class="cls-2" d="M487.31,229.57c6.8,0,12.76-3.1,16.34-15.38l-5.25-2.03c-2.62,7.27-4.89,8.59-7.04,8.59-1.91,0-2.74-1.07-2.74-3.7,0-1.31.36-2.98.84-5.13l16.34-70.6h-22.66l-2.86,10.97h9.78l-13.83,59.75c-.48,2.03-.72,3.94-.72,5.72,0,7.16,3.7,11.81,11.81,11.81M425.89,218.48c-6.32,0-9.42-4.89-9.42-11.09,0-10.61,7.04-20.39,15.74-20.39,6.92,0,10.26,4.29,10.26,11.09,0,11.21-7.87,20.39-16.58,20.39M419.69,229.57c8.11,0,14.43-5.37,18.72-11.81,0,7.16,3.94,11.81,10.73,11.81,5.72,0,12.4-3.1,15.98-15.38l-5.25-2.03c-2.62,7.27-5.13,8.59-6.68,8.59-1.79,0-2.62-1.07-2.62-3.22,0-1.31.36-3.34.95-5.6l8.94-35.54h-12.16l-3.58,10.73c-2.15-5.96-7.75-11.69-14.67-11.69-15.15,0-27.19,15.86-27.19,33.87,0,12.16,7.04,20.27,16.82,20.27M371.63,229.57c7.04,0,13.48-1.79,18.37-5.13l.12-11.57c-5.37,3.7-11.57,5.84-17.65,5.84-7.63,0-13.71-5.01-13.71-13.83,0-13.24,9.9-18.6,17.53-18.6,2.38,0,4.65.48,6.2,1.55-1.07,1.43-1.79,3.1-1.79,5.01,0,4.17,3.34,7.51,7.51,7.51,5.01,0,7.99-4.29,7.99-9.42,0-9.18-9.06-15.5-19.56-15.5-16.82,0-31.13,13.48-31.13,30.41,0,14.91,11.45,23.73,26.12,23.73M308.3,218.72c-6.44,0-11.81-4.41-11.81-12.88,0-11.21,7.16-19.56,15.86-19.56,6.44,0,11.81,4.41,11.81,12.88,0,11.21-7.15,19.56-15.86,19.56M307.83,229.57c17.29,0,29.58-14.79,29.58-30.41,0-12.64-8.83-23.73-24.57-23.73-17.29,0-29.58,14.79-29.58,30.41,0,12.64,8.83,23.73,24.57,23.73M214.57,228.61h56.05l5.37-23.02h-13l-2.62,11.09h-21.23l12.64-54.5h10.02l2.74-12.04h-33.03l-2.74,12.04h9.54l-12.64,54.38h-8.35l-2.74,12.05Z"/>
</svg>